<svg xmlns="http://www.w3.org/2000/svg" viewBox="0 0 18 17.89"><defs><style>.cls-1{fill:#fff;}.cls-2{opacity:0.16;}</style></defs><g id="Layer_2" data-name="Layer 2"><g id="Layer_1-2" data-name="Layer 1"><path class="cls-1" d="M3.75,6.27a1.44,1.44,0,0,1-.77,0,1.51,1.51,0,0,1-.55-.38c-.26-.22-.53-.43-.8-.63a.58.58,0,0,0-.18-.08.13.13,0,0,0-.15.08.18.18,0,0,0,0,.16,9.89,9.89,0,0,0,.72,1.21,14.16,14.16,0,0,0-1.79.54c-.12,0-.26.12-.26.25s.12.19.23.23a2,2,0,0,0,.87,0l1-.17c-.27.35-.52.7-.76,1.07a1,1,0,0,0-.19.5.19.19,0,0,0,.06.16.21.21,0,0,0,.13,0,1,1,0,0,0,.54-.34,4.33,4.33,0,0,1,1.23-1,7.64,7.64,0,0,1,2.3-.29,1.54,1.54,0,0,0,1-.42,1.47,1.47,0,0,0,.25-.48,1.23,1.23,0,0,0,.07-.57.66.66,0,0,0-.29-.49c-.33-.21-.81,0-1.14.1A10,10,0,0,1,3.75,6.27Z"/><path class="cls-1" d="M2.1,6.36c.2.39,0,.27-.05.28a13.3,13.3,0,0,1-.72-1.21.18.18,0,0,1,0-.16.12.12,0,0,1,.1-.08A9.78,9.78,0,0,0,2.1,6.36Z"/><path class="cls-1" d="M1.24,8.84A.17.17,0,0,0,1.3,9a.19.19,0,0,0,.13,0A1,1,0,0,0,2,8.64a4.33,4.33,0,0,1,1.23-1,7.64,7.64,0,0,1,2.3-.29,1.57,1.57,0,0,0,1-.42,1.38,1.38,0,0,0,.25-.48l0-.1a1.61,1.61,0,0,1-.08.38,1.47,1.47,0,0,1-.25.48,1.54,1.54,0,0,1-1,.42,7.64,7.64,0,0,0-2.3.29,4.33,4.33,0,0,0-1.23,1,1,1,0,0,1-.54.34.21.21,0,0,1-.13,0,.19.19,0,0,1-.06-.16A.59.59,0,0,1,1.24,8.84Z"/><path class="cls-1" d="M0,7.43a.2.2,0,0,1,.09-.16.45.45,0,0,0,.19.11,2,2,0,0,0,.87,0l1-.16c.38-.13,0,.17,0,.27l-1,.17a2,2,0,0,1-.87,0C.12,7.62,0,7.54,0,7.43Z"/><g class="cls-2"><path class="cls-1" d="M2.73,6.38a.85.85,0,0,0,.68.11,2.74,2.74,0,0,1,.69-.1c.06,0,.14,0,.14.09a.12.12,0,0,1,0,.08.7.7,0,0,1-.41.16,2.07,2.07,0,0,1-1.18-.2.67.67,0,0,1-.19-.14c-.07-.08,0-.19.08-.17S2.66,6.33,2.73,6.38Z"/></g><g class="cls-2"><path class="cls-1" d="M2,5.65l.26.3s0,0,0,.06a.11.11,0,0,1,0,.07h0A.28.28,0,0,1,2.11,6L1.85,5.7s-.09-.13,0-.15S2,5.62,2,5.65Z"/></g><path class="cls-1" d="M14.19,5.16a1.44,1.44,0,0,0,.66-.4,1.7,1.7,0,0,0,.26-.62,9.09,9.09,0,0,1,.33-1,.34.34,0,0,1,.1-.16.15.15,0,0,1,.18,0s0,.1.06.15a11.07,11.07,0,0,1,0,1.41A16.56,16.56,0,0,1,17.61,4c.13,0,.29,0,.36.07s0,.23-.06.32a2,2,0,0,1-.73.48l-1,.42a11.35,11.35,0,0,1,1.21.49,1,1,0,0,1,.43.31.22.22,0,0,1,0,.17.19.19,0,0,1-.1.1.94.94,0,0,1-.64,0,4.17,4.17,0,0,0-1.57-.16,7.44,7.44,0,0,0-2.09,1,1.54,1.54,0,0,1-1.08.2A1.47,1.47,0,0,1,12,7.17a1.3,1.3,0,0,1-.37-.44.71.71,0,0,1,0-.57c.17-.35.66-.46,1-.53A9.91,9.91,0,0,0,14.19,5.16Z"/><path class="cls-1" d="M15.63,4.35c0,.44.13.23.19.21,0-.38,0-1,0-1.41,0,0,0-.12-.06-.15a.12.12,0,0,0-.13,0A12.28,12.28,0,0,1,15.63,4.35Z"/><path class="cls-1" d="M17.69,6a.17.17,0,0,1,0,.12.19.19,0,0,1-.1.1.94.94,0,0,1-.64,0A4.21,4.21,0,0,0,15.4,6a7.44,7.44,0,0,0-2.09,1,1.54,1.54,0,0,1-1.08.2A1.23,1.23,0,0,1,11.76,7l-.08-.07a1.44,1.44,0,0,0,.27.28,1.47,1.47,0,0,0,.47.27,1.54,1.54,0,0,0,1.08-.2,7.44,7.44,0,0,1,2.09-1,4.17,4.17,0,0,1,1.57.16.94.94,0,0,0,.64,0,.19.19,0,0,0,.1-.1.22.22,0,0,0,0-.17A.65.65,0,0,0,17.69,6Z"/><path class="cls-1" d="M18,4.11A.18.18,0,0,0,17.81,4a.48.48,0,0,1-.09.19A1.93,1.93,0,0,1,17,4.7L16,5.12c-.39.1.07.17.19.21l1-.42a2,2,0,0,0,.73-.48C18,4.34,18,4.21,18,4.11Z"/><path class="cls-1" d="M4.6,2.56a2,2,0,0,1-.18-1.2A1.36,1.36,0,0,1,5.18.45,1.51,1.51,0,0,1,7,1.06a4.57,4.57,0,0,1,.45.61.87.87,0,0,1,.2.5.88.88,0,0,1-.1.36A2.46,2.46,0,0,1,6,3.8C5.34,3.93,4.82,3,4.6,2.56Z"/><path class="cls-1" d="M6.32,1.52A.73.73,0,1,1,5.44,1,.72.72,0,0,1,6.32,1.52Z"/><path class="cls-1" d="M6.27,1.38a.74.74,0,0,1-.55.89.72.72,0,0,1-.89-.54A.73.73,0,0,1,5.37.84.75.75,0,0,1,6.27,1.38Z"/><path class="cls-1" d="M5.93.92a.66.66,0,0,1,.12.27.72.72,0,0,1-.54.89A.77.77,0,0,1,5,2a.72.72,0,0,0,.77.27.74.74,0,0,0,.55-.89A.76.76,0,0,0,5.93.92Z"/><path class="cls-1" d="M6.05,1.49a.47.47,0,1,1-.57-.35A.48.48,0,0,1,6.05,1.49Z"/><path class="cls-1" d="M5.24,1.52a.19.19,0,0,0,0,.15.11.11,0,0,0,.06.07.05.05,0,0,0,.08,0,.13.13,0,0,0,0-.06.23.23,0,0,1,0-.16s.06-.07,0-.12a0,0,0,0,1,0,0s0,0-.06,0A.28.28,0,0,0,5.24,1.52Z"/><path class="cls-1" d="M5.54,1.27s0,0,0,0a0,0,0,0,0,0,.06h.06a.11.11,0,0,0,.08-.07,0,0,0,0,0,0,0,0,0,0,0,0,0,0,.12.12,0,0,0-.13,0Z"/><path class="cls-1" d="M7.49,1.67A5.65,5.65,0,0,0,7,1.06,1.56,1.56,0,0,0,5.36.38a1.18,1.18,0,0,0,.19,0A1.31,1.31,0,0,1,6,.5,1.7,1.7,0,0,1,6.58,1a2.57,2.57,0,0,1,.55,1.29,2,2,0,0,1,.48-.39A.82.82,0,0,0,7.49,1.67Z"/><path class="cls-1" d="M10.35.94a2,2,0,0,1,.88-.85,1.4,1.4,0,0,1,1.18.1A1.52,1.52,0,0,1,13,2.06a6.08,6.08,0,0,1-.24.72.88.88,0,0,1-.3.45.64.64,0,0,1-.35.12,2.41,2.41,0,0,1-2-.59C9.66,2.33,10.08,1.4,10.35.94Z"/><circle class="cls-1" cx="11.64" cy="1.26" r="0.73"/><path class="cls-1" d="M12.27,1.61a.74.74,0,1,1-1.11-1,.74.74,0,0,1,1-.07A.73.73,0,0,1,12.27,1.61Z"/><path class="cls-1" d="M12.45,1.07a.66.66,0,0,1-.14.26.73.73,0,0,1-1,.07A.68.68,0,0,1,11,.9a.73.73,0,0,0,1.25.71A.69.69,0,0,0,12.45,1.07Z"/><circle class="cls-1" cx="11.7" cy="1.19" r="0.47"/><path class="cls-1" d="M11.57.85a.24.24,0,0,0-.13.09.14.14,0,0,0,0,.09.08.08,0,0,0,.07.05l0,0A.23.23,0,0,1,11.68,1s.09,0,.12,0v0a.09.09,0,0,0,0-.05A.3.3,0,0,0,11.57.85Z"/><path class="cls-1" d="M12,1h0s0,0,0,.05,0,0,0,.06a.11.11,0,0,0,.11,0l0,0V1a.16.16,0,0,0-.09-.09Z"/><path class="cls-1" d="M12.75,2.78q.13-.36.24-.72A1.57,1.57,0,0,0,12.57.29a1.42,1.42,0,0,0,.11.16,1.23,1.23,0,0,1,.18.46,1.75,1.75,0,0,1-.06.72,2.64,2.64,0,0,1-.74,1.2c.2,0,.17.61.37.67Z"/><path class="cls-1" d="M6.08,16.53a.68.68,0,0,0,.27.61,3,3,0,0,0,1.91.75c3.36,0,4-1.16,4-1.25a.71.71,0,0,0,0-.25c-.07-.73-.14-1.47-.2-2.2a2.89,2.89,0,0,0-.27-1.13,2.54,2.54,0,0,0-2.18-.93,4.92,4.92,0,0,0-2.41.34C5.61,13.26,6,15,6.08,16.53Z"/><path class="cls-1" d="M12.3,16.58a.48.48,0,0,0,0-.24l-.12-1.44a2.48,2.48,0,0,0-.37-.17,8.8,8.8,0,0,0-2.28-.46,7.37,7.37,0,0,0-2,0A3.22,3.22,0,0,0,6,15c0,.3,0,.61,0,.91a1.08,1.08,0,0,0,.54.17l4.41.53a3.14,3.14,0,0,1,.91.19l.16.07A.92.92,0,0,0,12.3,16.58Z"/><path class="cls-1" d="M5.08,3.81A3.57,3.57,0,0,1,7.45,1.43c1.25-.32,3.6-.11,4.57.94,2,2.2,1.94,10.9,1.89,11.14a2.51,2.51,0,0,1-1.74,1.66A8.57,8.57,0,0,1,7,15.44a5.81,5.81,0,0,1-2.39-1c-.26-.26-.18-.77-.2-1.12,0-.55,0-1.1,0-1.64A52.4,52.4,0,0,1,5.08,3.81Z"/><path class="cls-1" d="M12,2.38a3.57,3.57,0,0,0-1.82-.91A2.61,2.61,0,0,1,11,2c2,2.2,1.94,10.9,1.89,11.15a2.49,2.49,0,0,1-1.74,1.65A8.47,8.47,0,0,1,6,15.09L5.47,15A9.25,9.25,0,0,0,7,15.45a8.43,8.43,0,0,0,5.18-.27,2.51,2.51,0,0,0,1.74-1.65C14,13.28,14.06,4.59,12,2.38Z"/><path class="cls-1" d="M6.56,4l0,0-.08-.1s0-.06,0-.07a0,0,0,0,1,.07,0,.59.59,0,0,0,.07.1.06.06,0,0,1,0,.07Z"/><path class="cls-1" d="M9,5.08H9A.06.06,0,0,1,8.94,5,.05.05,0,0,1,9,5h.25a0,0,0,0,1,0,0s0,.05,0,.05Zm-.29,0h0L8.48,5s-.05,0,0-.06a0,0,0,0,1,.06,0l.24,0a.06.06,0,0,1,0,.06A0,0,0,0,1,8.74,5.06Zm.75,0s0,0-.05,0a0,0,0,0,1,.05,0l.24,0a0,0,0,0,1,.06,0s0,0,0,.06l-.25,0ZM8.24,5h0L8,4.92s0,0,0-.06a0,0,0,0,1,.06,0l.24.06s.05,0,0,.06S8.26,5,8.24,5ZM10,5s-.05,0-.05,0,0,0,0-.06l.24-.08a0,0,0,0,1,.06,0,.05.05,0,0,1,0,.07L10,5ZM7.76,4.84h0l-.23-.1a.05.05,0,1,1,0-.1l.23.1s0,0,0,.07A.05.05,0,0,1,7.76,4.84Zm2.7-.07-.05,0a.05.05,0,0,1,0-.07l.21-.12s.06,0,.07,0a0,0,0,0,1,0,.07l-.23.12ZM7.31,4.62h0l-.21-.14a0,0,0,1,1,.06-.08l.21.13a0,0,0,0,1,0,.07S7.33,4.62,7.31,4.62Zm3.58-.11s0,0,0,0a0,0,0,0,1,0-.07l.19-.15a0,0,0,1,1,.07.07,1.56,1.56,0,0,1-.2.16Zm-4-.19h0l-.19-.18a0,0,0,0,1,0-.07,0,0,0,0,1,.07,0,1,1,0,0,0,.18.17.06.06,0,0,1,0,.08Zm4.36-.14,0,0a.06.06,0,0,1,0-.07,1.46,1.46,0,0,0,.16-.19,0,0,0,0,1,.07,0,0,0,0,0,1,0,.07,1.56,1.56,0,0,1-.16.2Z"/><path class="cls-1" d="M11.56,3.77h0a.06.06,0,0,1,0-.07.36.36,0,0,0,.05-.1.06.06,0,0,1,.07,0,.05.05,0,0,1,0,.07l-.06.11S11.58,3.77,11.56,3.77Z"/><path class="cls-1" d="M8.16,2.62a.79.79,0,0,0,.13.4,2.14,2.14,0,0,0,.08-.44.67.67,0,0,0-.1-.43C8.17,2.21,8.16,2.52,8.16,2.62Z"/><path class="cls-1" d="M9.24,2.62a.64.64,0,0,0,.13.4,2.14,2.14,0,0,0,.08-.44.74.74,0,0,0-.1-.43C9.25,2.21,9.24,2.52,9.24,2.62Z"/><g class="cls-2"><path class="cls-1" d="M15.11,4.71a.77.77,0,0,1-.51.45,2.85,2.85,0,0,0-.64.29c-.05,0-.1.1-.07.16a.1.1,0,0,0,.09,0,.74.74,0,0,0,.43-.08,2.17,2.17,0,0,0,.88-.82.49.49,0,0,0,.08-.21c0-.1-.07-.18-.16-.1S15.14,4.63,15.11,4.71Z"/></g><g class="cls-2"><path class="cls-1" d="M15.34,3.69l-.07.4v.07s0,0,.06,0a.05.05,0,0,0,0,0A.34.34,0,0,0,15.42,4l.06-.38c0-.05,0-.16-.06-.14S15.34,3.65,15.34,3.69Z"/></g><path class="cls-1" d="M7.5,8.88a2.28,2.28,0,0,0-.25.72,4.56,4.56,0,0,0-.11,1.17,3.5,3.5,0,0,0,.5,1.56,2.06,2.06,0,0,0,.61.7,2.33,2.33,0,0,0,1,.33,2,2,0,0,0,.89,0,1.6,1.6,0,0,0,.77-.64,4.51,4.51,0,0,0,.64-2.39,3.6,3.6,0,0,0-.08-1.18,1.4,1.4,0,0,0-.22-.44,1.26,1.26,0,0,0-.38-.31C9.9,7.79,8.13,7.81,7.5,8.88Z"/><path class="cls-1" d="M7.16,8.54a2.26,2.26,0,0,0-.24.72,4.2,4.2,0,0,0-.12,1.17A3.68,3.68,0,0,0,7.31,12a2.27,2.27,0,0,0,.61.7,2.41,2.41,0,0,0,1,.32,1.87,1.87,0,0,0,.88,0,1.63,1.63,0,0,0,.78-.64A4.66,4.66,0,0,0,11.21,10a3.64,3.64,0,0,0-.09-1.19,1.22,1.22,0,0,0-.22-.44A1.39,1.39,0,0,0,10.53,8C9.57,7.45,7.79,7.47,7.16,8.54Z"/><path class="cls-1" d="M9.46,12.85a.05.05,0,0,1-.05,0s0-.05,0-.05l.26,0,.12-.05a0,0,0,0,1,0,.08l-.13,0a1.27,1.27,0,0,1-.28.06Zm-.4,0h0l-.14,0-.26,0s0,0,0,0,0-.05.06,0l.25,0,.14,0s0,0,0,.05A0,0,0,0,1,9.06,12.85Zm-.79-.17h0L8,12.53l-.09-.07a0,0,0,1,1,0-.07l.09.06a1.48,1.48,0,0,0,.25.14,0,0,0,0,1,0,.06S8.29,12.68,8.27,12.68Zm1.9-.17h0a0,0,0,0,1,0-.07,1.8,1.8,0,0,0,.25-.29h0a.06.06,0,0,1,.07,0,0,0,0,0,1,0,.07h0a2,2,0,0,1-.26.31Zm-2.52-.33s0,0,0,0a1.52,1.52,0,0,1-.19-.28l0-.06a0,0,0,0,1,0-.06.05.05,0,0,1,.07,0l0,.05a2.27,2.27,0,0,0,.18.28,0,0,0,0,1,0,.06Zm3-.32h0a0,0,0,0,1,0-.06,2.39,2.39,0,0,0,.15-.37,0,0,0,0,1,.06,0s0,0,0,.06l-.15.38A.05.05,0,0,1,10.63,11.86Zm-3.38-.38,0,0c0-.13-.1-.26-.14-.39a.06.06,0,0,1,0-.06s.05,0,.05,0,.09.25.14.37a0,0,0,0,1,0,.06Zm3.64-.39h0s0,0,0-.05.05-.26.07-.4,0,0,.05,0,0,0,0,.05,0,.28-.07.41S10.91,11.09,10.89,11.09ZM7,10.71a0,0,0,0,1,0,0,1,1,0,0,1,0-.24c0-.06,0-.11,0-.17s0,0,0,0H7a0,0,0,0,1,0,0v.16l0,.24s0,.05,0,.05Zm4-.42h0a0,0,0,0,1-.05,0c0-.08,0-.16,0-.25a.76.76,0,0,1,0-.15,0,0,0,0,1,0,0,0,0,0,0,1,.05,0s0,.09,0,.14,0,.18,0,.26A.07.07,0,0,1,11,10.29ZM7,9.91H7s0,0,0-.06A3.55,3.55,0,0,1,7,9.45s0,0,0,0,0,0,0,.05a3.1,3.1,0,0,0-.06.39A0,0,0,0,1,7,9.91Zm4-.42s0,0,0-.05a1.6,1.6,0,0,0-.05-.39s0-.05,0-.05a0,0,0,0,1,0,0,2.52,2.52,0,0,1,.06.41.05.05,0,0,1-.05.05ZM7.17,9.12h0s0,0,0,0a2.42,2.42,0,0,1,.16-.39,0,0,0,0,1,.07,0,0,0,0,0,1,0,.06,2,2,0,0,0-.16.36A0,0,0,0,1,7.17,9.12Zm3.67-.41s0,0,0,0l-.1-.15a1,1,0,0,0-.15-.14.06.06,0,0,1,0-.07,0,0,0,0,1,.07,0,.81.81,0,0,1,.16.16.64.64,0,0,1,.11.16,0,0,0,0,1,0,.06ZM7.57,8.44l0,0s0-.05,0-.06a1.59,1.59,0,0,1,.33-.25.06.06,0,0,1,.07,0,0,0,0,0,1,0,.06,2,2,0,0,0-.32.23Zm2.67-.25h0L9.85,8a0,0,0,0,1,0,0s0,0,0,0a2.26,2.26,0,0,1,.39.15,0,0,0,0,1,0,.06A.05.05,0,0,1,10.24,8.19ZM8.27,8a.05.05,0,0,1,0,0,.07.07,0,0,1,0-.06,2.71,2.71,0,0,1,.41-.09.07.07,0,0,1,.05,0,.07.07,0,0,1,0,.06A1.59,1.59,0,0,0,8.28,8ZM9.47,8h0a2.6,2.6,0,0,0-.4,0,0,0,0,0,1,0,0,0,0,0,0,1,0,0,2.73,2.73,0,0,1,.41,0s0,0,0,0A0,0,0,0,1,9.47,8Z"/><g class="cls-2"><path class="cls-1" d="M5.48,4.05a.59.59,0,0,0,.07.37.25.25,0,0,0,.33.1A.27.27,0,0,0,6,4.41a2.76,2.76,0,0,0,.19-.68A2.81,2.81,0,0,1,7,2.57c.08-.08.16-.21.08-.29a.2.2,0,0,0-.08,0c-.44-.13-.78.22-1,.54A2.25,2.25,0,0,0,5.48,4.05Z"/></g><g class="cls-2"><path class="cls-1" d="M7.18,2A.38.38,0,0,0,7.52,2a.67.67,0,0,0,.14-.09A1.68,1.68,0,0,1,8,1.84a.34.34,0,0,0,.26-.18.11.11,0,0,0,0-.13l-.07,0a1.58,1.58,0,0,0-.7.15C7.38,1.69,7,1.86,7.18,2Z"/></g></g></g></svg>