<svg width="298" height="85" viewBox="0 0 298 85" fill="none" xmlns="http://www.w3.org/2000/svg">
<path d="M29.1951 83.775C21.6123 83.775 8.26586 76.7866 4.80768 72.716C2.83404 70.3188 1.54995 67.4296 1.09305 64.3582C0.636147 61.2868 1.02365 58.149 2.21404 55.281C3.29328 52.5762 5.01861 50.1768 7.23921 48.2926C4.16404 44.4401 2.18529 39.8293 1.51159 34.9462C-0.667783 19.4024 10.121 3.60638 24.5842 1.28291C26.216 1.01685 27.866 0.878343 29.5193 0.868652C35.875 0.897105 42.0591 2.93327 47.1885 6.68633C49.7346 8.70875 51.7656 11.3055 53.1149 14.264C54.4642 17.2225 55.0935 20.4585 54.9514 23.7071C54.7718 27.7345 53.1626 31.5661 50.4125 34.5139C53.8944 38.0352 56.3803 42.4168 57.617 47.2119C58.7207 51.4983 58.8379 55.9792 57.9597 60.3175C57.0814 64.6557 55.2307 68.7382 52.5468 72.2578C49.8629 75.7775 46.4156 78.6425 42.4644 80.6374C38.5133 82.6323 34.1611 83.7051 29.7354 83.775H29.1951Z" fill="#F67300"/>
<path d="M98.0345 85.0002C94.2921 85.0093 90.6468 83.809 87.642 81.578C86.0954 82.0754 84.4912 82.3721 82.869 82.4606C79.5008 82.6407 76.2048 82.7128 72.8907 82.8028C70.5852 82.8028 68.3698 82.8028 66.1364 82.8028H65.9203C63.903 82.8028 61.8857 82.8028 59.8684 82.8028C42.8657 82.8028 39.7317 71.996 39.1734 67.3671L39.0833 66.6466V64.8455C39.2094 58.0732 39.2995 51.499 39.4075 44.9429C39.5156 38.3868 39.6056 31.6145 39.7137 24.9683C39.7137 23.1671 39.7137 21.366 39.5156 19.3848C39.248 15.0605 40.5623 10.7865 43.2135 7.35982C45.8647 3.93315 49.6718 1.58774 53.9247 0.760986C55.8797 0.357048 57.8723 0.163823 59.8684 0.184622H65.1278C70.4051 0.184622 75.9346 0.184622 81.338 0.562861C84.0217 0.742975 86.9035 0.81502 90.4518 0.81502H97.17C99.5295 0.81502 101.871 0.81502 104.212 0.81502C106.554 0.81502 108.409 0.81502 110.498 0.81502H110.841C113.677 0.921378 116.466 1.57582 119.054 2.74224C122.282 4.19233 124.971 6.62239 126.739 9.68743C128.508 12.7525 129.266 16.2967 128.906 19.817C128.674 23.2088 127.426 26.4521 125.326 29.1249C123.225 31.7977 120.368 33.7761 117.127 34.8025C116.532 35.0186 115.92 35.1987 115.325 35.3608C115.325 44.3785 115.325 53.3842 115.325 62.3779C115.325 82.1904 102.844 84.5499 99.4034 84.8381C98.9892 84.9822 98.5028 85.0002 98.0345 85.0002Z" fill="#F67300"/>
<path d="M135.75 83.865C134.324 83.8662 132.903 83.6969 131.518 83.3607L131.121 83.2526C127.745 82.3647 124.723 80.4588 122.468 77.7938C120.212 75.1289 118.831 71.8341 118.513 68.3572V67.9069C118.261 63.9804 118.081 60.144 118.009 56.2175L117.829 34.73C115.371 34.1633 113.073 33.0451 111.11 31.46C109.148 29.8749 107.571 27.8643 106.5 25.5802C105.549 23.6406 104.99 21.5321 104.857 19.376C104.723 17.2198 105.017 15.0586 105.722 13.0165C106.427 10.9744 107.528 9.0917 108.963 7.47676C110.398 5.86182 112.138 4.54645 114.083 3.6063C116.648 2.31096 119.476 1.62086 122.35 1.58903C128.294 1.58903 134.345 1.48096 140.361 1.48096C142.901 1.48096 145.422 1.48096 147.962 1.48096C150.831 1.50312 153.649 2.23717 156.164 3.61723C158.679 4.99729 160.812 6.98019 162.371 9.38795C163.843 11.6958 164.727 14.3289 164.947 17.0572C165.167 19.7855 164.715 22.5262 163.632 25.0398C162.657 27.4554 161.13 29.6085 159.171 31.326C157.213 33.0434 154.879 34.2772 152.357 34.9281C152.357 36.0808 152.357 37.2335 152.357 38.4043C152.483 47.41 152.609 56.4157 152.663 65.4214C152.708 69.4228 151.533 73.343 149.295 76.6605C147.817 78.8956 145.804 80.7255 143.438 81.9839C141.072 83.2422 138.43 83.8888 135.75 83.865Z" fill="#F67300"/>
<path d="M161.038 83.7748C156.471 83.6242 152.145 81.6864 148.992 78.3785C145.839 75.0706 144.111 70.657 144.18 66.0876C144.18 60.9724 144.18 55.7491 144.18 50.5438C144.18 48.1483 144.18 45.7528 144.18 43.3392C143.982 40.5115 143.91 33.5951 144.18 27.5072C144.576 18.8258 145.188 5.89358 155.365 2.48943C157.236 1.78649 159.219 1.42651 161.219 1.42676C165.581 1.51276 169.754 3.22108 172.925 6.21832C176.095 9.21557 178.035 13.2866 178.365 17.637V17.9072C178.545 20.3207 178.708 22.7162 178.708 25.2378L178.473 66.1056C178.512 70.7177 176.725 75.1579 173.503 78.4578C170.281 81.7577 165.884 83.6496 161.273 83.7207L161.038 83.7748Z" fill="#F67300"/>
<path d="M202.05 83.4149C199.863 83.4178 197.697 82.9862 195.678 82.1452C193.659 81.3042 191.827 80.0705 190.289 78.5158C187.259 81.5351 183.182 83.2704 178.906 83.3609H178.563C174.151 83.3142 169.925 81.5774 166.755 78.5081C163.586 75.4388 161.713 71.2707 161.525 66.8625V66.6463L161.218 18.7721C161.207 16.9927 161.388 15.2172 161.759 13.4768C162.228 11.1562 163.212 8.97087 164.641 7.08272C166.337 4.83044 168.544 3.01393 171.081 1.78314C173.618 0.55236 176.411 -0.0573859 179.23 0.00424853C184.023 -0.0787241 188.654 1.7412 192.108 5.06545C194.859 2.78931 198.284 1.48503 201.852 1.3551H202.248C206.569 1.36839 210.712 3.07209 213.792 6.10163C216.872 9.13117 218.644 13.2459 218.729 17.5653L219.197 31.9744C219.359 37.8101 219.431 43.6458 219.521 49.4095C219.521 49.4095 219.521 53.5161 219.629 55.2091C219.629 58.6313 219.773 62.0174 219.773 65.4036C219.943 69.2115 218.838 72.9673 216.633 76.0764C214.427 79.1854 211.248 81.4699 207.598 82.5684C205.81 83.1615 203.934 83.4478 202.05 83.4149Z" fill="#F67300"/>
<path d="M231.643 83.3428C230.404 83.3392 229.165 83.273 227.933 83.1446C220.629 82.7283 213.766 79.5152 208.769 74.1725C203.772 68.8297 201.024 61.7677 201.096 54.4525C201.096 46.6176 201.294 39.467 201.69 32.5687C202.116 26.1878 204.088 20.0063 207.436 14.5573C209.709 10.4119 213.056 6.95395 217.124 4.54569C221.193 2.13744 225.834 0.867426 230.562 0.868653C237.232 0.91167 243.68 3.26695 248.808 7.53286L249.096 7.76701L249.366 8.01917C251.361 9.8049 253.111 11.8458 254.572 14.089C256.158 16.4776 257.109 19.2309 257.336 22.0892C257.563 24.9475 257.058 27.8164 255.868 30.4253C256.597 31.3405 257.237 32.3237 257.778 33.3612L257.958 33.7034L258.12 34.0636C259.38 36.9006 260.048 39.9651 260.083 43.0693C260.083 44.2401 260.083 45.2487 260.083 46.2393C260.289 51.6837 259.792 57.132 258.606 62.4496C255.022 75.3817 244.719 83.3428 231.643 83.3428Z" fill="#F67300"/>
<path d="M268.008 83.775C260.425 83.775 247.079 76.7866 243.621 72.716C241.643 70.3206 240.357 67.4313 239.9 64.3591C239.443 61.2869 239.833 58.1482 241.027 55.281C242.107 52.5815 243.825 50.1838 246.034 48.2926C242.971 44.435 240.999 39.8258 240.324 34.9462C238.145 19.4024 248.934 3.60638 263.397 1.28291C265.029 1.01685 266.679 0.878343 268.332 0.868652C274.687 0.899563 280.871 2.93549 286.001 6.68633C288.557 8.7042 290.6 11.2982 291.961 14.2564C293.323 17.2146 293.966 20.4531 293.836 23.7071C293.657 27.7345 292.047 31.5661 289.297 34.5139C292.766 38.045 295.25 42.4229 296.502 47.2119C297.603 51.5134 297.712 56.0092 296.818 60.3587C295.925 64.7082 294.054 68.7975 291.347 72.317C288.64 75.8364 285.167 78.6938 281.192 80.6727C277.217 82.6516 272.844 83.7002 268.404 83.739L268.008 83.775Z" fill="#F67300"/>
<path d="M29.3572 71.7796C25.7549 71.9417 15.3083 66.5744 13.9394 64.9533C13.4121 64.2012 13.0812 63.3292 12.9767 62.4166C12.8722 61.5039 12.9974 60.5797 13.341 59.7278C13.6846 58.8759 14.2357 58.1234 14.9442 57.5387C15.6526 56.9541 16.496 56.5557 17.3976 56.3799C18.7665 56.2899 24.0618 59.4959 25.4307 60.2343C26.2947 60.671 27.2433 60.9148 28.2108 60.9487C29.1784 60.9826 30.1417 60.8058 31.0342 60.4307C31.9267 60.0555 32.727 59.4909 33.3797 58.7759C34.0324 58.061 34.522 57.2127 34.8146 56.2899C35.133 55.5077 35.2122 54.6487 35.0423 53.8216C34.8723 52.9944 34.4609 52.2362 33.86 51.6429C32.7845 50.6215 31.5721 49.7547 30.2577 49.0673C28.0783 47.9506 25.6828 47.1401 23.4314 46.0954C18.028 43.4477 14.1916 39.4312 13.309 33.2533C12.1023 24.1035 18.3702 14.4134 26.5474 13.0986C28.944 12.7057 31.3953 12.8015 33.7538 13.3804C36.1124 13.9592 38.3296 15.009 40.2721 16.4667C42.3614 17.9977 45.2612 24.5718 40.4342 27.3816C39.5647 27.8397 38.5551 27.955 37.6047 27.7049C36.6543 27.4548 35.8323 26.8574 35.3009 26.0307C34.6 25.0155 33.5727 24.2707 32.3898 23.9201C31.207 23.5695 29.9398 23.6342 28.7988 24.1035C27.7463 24.5109 26.8403 25.2248 26.1981 26.1528C25.5559 27.0809 25.207 28.1803 25.1965 29.3088C24.7102 32.6049 25.5928 34.1359 28.6367 35.5768C30.9602 36.6214 33.4637 37.504 35.8412 38.6207C40.9024 41.1243 44.7569 44.7266 46.1978 50.2741C46.8439 52.8303 46.8963 55.5006 46.3508 58.0803C45.8054 60.66 44.6766 63.0805 43.051 65.1564C41.4253 67.2324 39.346 68.9086 36.9724 70.0566C34.5988 71.2047 31.9938 71.7941 29.3572 71.7796Z" fill="white"/>
<path d="M91.9107 23.8509H62.6962V36.1346C65.7402 36.1346 68.712 36.1346 71.5939 36.1346C72.9495 36.0953 74.3033 36.2592 75.6104 36.6209C77.0435 36.769 78.359 37.4803 79.2676 38.5984C80.1763 39.7164 80.6035 41.1496 80.4555 42.5827C80.3074 44.0158 79.5961 45.3313 78.478 46.24C77.36 47.1486 75.9268 47.5759 74.4937 47.4278C71.1256 47.5178 67.6674 47.4278 64.2992 47.2657C63.6964 47.2442 63.0951 47.1901 62.4981 47.1036V59.7115C68.5139 59.5494 74.6918 59.3873 80.7977 59.3153C82.0768 59.255 83.3555 59.4447 84.562 59.8736C85.6833 60.3655 86.6089 61.2167 87.1927 62.293C87.7765 63.3693 87.9853 64.6093 87.7861 65.8174C87.5162 67.1227 86.8154 68.2995 85.7962 69.1586C84.7771 70.0177 83.4987 70.5093 82.1665 70.5544C78.9425 70.7165 75.7365 70.7885 72.5304 70.8786C68.2798 70.8786 63.939 70.8786 59.5983 70.8786C54.6992 70.8786 51.4932 69.924 51.0069 65.9795V64.8448C51.259 51.6064 51.4031 38.35 51.6553 25.2197C51.6553 22.9683 51.5652 20.807 51.4031 18.5555C51.3676 17.1355 51.848 15.7506 52.7555 14.6577C53.6629 13.5648 54.9358 12.8379 56.3382 12.6118C57.5234 12.3717 58.7315 12.263 59.9405 12.2876C66.8389 12.2876 73.8273 12.2876 80.7256 12.6838C90.5238 13.3322 100.394 12.6838 110.192 12.936C111.516 12.9501 112.825 13.2191 114.047 13.7285C115.06 14.1349 115.905 14.8726 116.445 15.8213C116.984 16.7699 117.187 17.8734 117.019 18.9518C116.988 20.0212 116.611 21.0519 115.945 21.8895C115.28 22.7272 114.361 23.3268 113.326 23.5987C112.216 23.9895 111.045 24.1845 109.868 24.1751C107.779 24.1751 105.689 24.1751 103.528 24.1751C103.528 24.4092 103.366 24.5713 103.366 24.7334C103.366 37.3414 103.366 49.9494 103.366 62.5573C103.366 64.0703 103.366 72.7518 98.4848 72.9859C97.7592 73.0601 97.026 72.9866 96.3295 72.7698C95.633 72.553 94.9876 72.1974 94.4322 71.7245C93.8769 71.2516 93.423 70.6711 93.098 70.0181C92.7729 69.365 92.5835 68.6529 92.5411 67.9247C92.2169 63.9982 92.0548 59.9817 91.9647 55.9652C91.9647 45.6086 91.9647 35.2521 91.9647 24.8955C92.0728 24.7334 91.9827 24.4993 91.9107 23.8509Z" fill="white"/>
<path d="M129.663 23.6897C127.015 23.5276 124.601 23.4556 122.188 23.2935C121.169 23.3448 120.158 23.0999 119.276 22.5885C118.393 22.077 117.678 21.3209 117.217 20.4117C116.952 19.8822 116.796 19.3049 116.758 18.7141C116.72 18.1232 116.8 17.5308 116.995 16.9716C117.19 16.4125 117.495 15.8981 117.892 15.4588C118.288 15.0195 118.769 14.6642 119.306 14.4139C120.248 13.923 121.288 13.652 122.35 13.6214C130.851 13.6214 139.371 13.4593 147.872 13.6214C148.707 13.5956 149.535 13.7798 150.28 14.1573C151.026 14.5347 151.664 15.0932 152.137 15.7816C152.611 16.47 152.903 17.2662 152.989 18.0972C153.075 18.9282 152.95 19.7674 152.627 20.5377C152.239 21.5108 151.56 22.3406 150.684 22.9143C149.807 23.488 148.775 23.7776 147.728 23.7438H140.253V25.5449C140.415 38.9454 140.649 52.3638 140.74 65.8544C140.728 67.4001 140.251 68.9065 139.371 70.1771C138.822 70.9664 138.033 71.5576 137.121 71.8626C136.209 72.1676 135.223 72.1703 134.309 71.8702C133.248 71.6349 132.292 71.0618 131.584 70.2369C130.876 69.4121 130.455 68.3799 130.383 67.2953C130.131 63.6029 129.969 59.9106 129.897 56.1282C129.825 45.9338 129.747 35.7273 129.663 25.5089V23.6897Z" fill="white"/>
<path d="M159.417 13.819C162.713 12.3781 166.172 14.8637 166.622 18.8802C166.784 20.9695 166.946 23.1309 166.946 25.2923C166.748 38.8729 166.622 52.5255 166.622 66.0881C166.661 66.8051 166.556 67.5227 166.314 68.1989C166.072 68.8751 165.698 69.4963 165.214 70.0262C164.729 70.5562 164.144 70.9842 163.492 71.2852C162.84 71.5863 162.134 71.7544 161.417 71.7796C160.697 71.7567 159.99 71.5903 159.336 71.2903C158.682 70.9903 158.094 70.5626 157.608 70.0325C157.121 69.5023 156.746 68.8803 156.503 68.203C156.26 67.5256 156.155 66.8066 156.193 66.0881C156.193 58.3071 156.193 50.5983 156.193 42.7993C155.995 42.7993 155.203 14.8637 159.417 13.819Z" fill="white"/>
<path d="M182.832 34.2264C182.832 37.8287 182.832 40.9627 182.832 44.1687C182.994 51.4813 183.156 58.794 183.318 66.0165C183.373 66.679 183.291 67.3455 183.08 67.9755C182.868 68.6056 182.53 69.1859 182.087 69.6813C181.644 70.1766 181.105 70.5767 180.502 70.857C179.899 71.1373 179.246 71.2921 178.581 71.3119C177.234 71.2883 175.95 70.7377 175.003 69.7781C174.057 68.8184 173.525 67.5262 173.52 66.1786V65.7824C173.52 50.0404 173.358 34.3885 173.286 18.6466C173.272 17.6712 173.375 16.6977 173.592 15.7468C173.717 15.0909 173.994 14.4737 174.403 13.9456C176.492 11.0638 182.436 11.2259 184.273 14.2698C185.392 16.1286 186.384 18.0601 187.245 20.0515C190.847 28.1566 194.323 36.2617 197.854 44.2948C197.985 44.7526 198.234 45.1683 198.574 45.5016C198.574 43.8986 198.574 42.3676 198.574 40.8546C198.412 33.2178 198.16 25.599 197.998 17.9622C197.933 17.3557 197.994 16.7424 198.179 16.1611C198.364 15.5798 198.667 15.0433 199.071 14.5858C199.474 14.1283 199.968 13.7597 200.522 13.5036C201.075 13.2474 201.676 13.1093 202.286 13.098C202.896 13.0867 203.501 13.2025 204.064 13.438C204.627 13.6734 205.134 14.0234 205.554 14.4657C205.974 14.908 206.297 15.4329 206.504 16.0069C206.71 16.581 206.794 17.1916 206.751 17.8001C206.913 22.6271 207.075 27.3641 207.238 32.2092C207.4 38.1529 207.472 44.1687 207.562 50.1125C207.562 55.2637 207.796 60.3069 207.796 65.3681C207.938 66.6564 207.599 67.9516 206.844 69.0053C206.09 70.059 204.973 70.797 203.707 71.0777C202.748 71.4464 201.692 71.4797 200.711 71.1723C199.73 70.865 198.882 70.235 198.304 69.3847C197.759 68.6369 197.305 67.8266 196.953 66.9711C192.45 56.4525 187.947 45.9519 183.373 35.4332C183.163 35.0447 182.982 34.6414 182.832 34.2264Z" fill="white"/>
<path d="M237.821 46.2576C235.35 46.2362 232.883 46.0497 230.436 45.6992C229.738 45.6247 229.067 45.3907 228.474 45.0152C227.881 44.6397 227.383 44.1329 227.017 43.5339C226.652 42.935 226.429 42.2599 226.366 41.561C226.303 40.8621 226.401 40.158 226.654 39.5033C226.915 38.7346 227.395 38.059 228.035 37.5598C228.675 37.0605 229.447 36.7594 230.256 36.6935C233.948 36.3873 237.731 36.1352 241.495 36.0631C242.593 35.9452 243.701 36.1479 244.685 36.6465C245.67 37.1452 246.489 37.9185 247.043 38.8729C247.633 40.1893 247.957 41.6094 247.997 43.0515C247.997 48.455 248.249 54.0385 246.881 59.4239C244.557 67.9253 237.875 72.194 229.139 71.2213C223.358 70.663 218.693 68.5016 215.487 63.4404C213.804 60.7424 212.941 57.6139 213.001 54.4347C213.001 47.3563 213.163 40.2958 213.56 33.2353C213.872 28.7618 215.276 24.433 217.648 20.6274C223.358 10.8292 234.273 11.1534 241.063 16.7729C242.329 17.8711 243.438 19.1377 244.359 20.5373C245.085 21.4975 245.415 22.6997 245.281 23.896C245.147 25.0923 244.559 26.1917 243.639 26.9674C242.7 27.6743 241.532 28.0084 240.361 27.9053C239.191 27.8022 238.1 27.2692 237.299 26.409C235.73 24.7462 233.674 23.6237 231.427 23.203C230.519 23.0439 229.584 23.1933 228.771 23.6275C227.959 24.0617 227.315 24.7556 226.942 25.5985C225.264 28.747 224.345 32.2442 224.258 35.811C224.024 41.3585 224.024 46.8159 224.024 52.3634C224.009 54.0296 224.277 55.6862 224.817 57.2625C225.203 58.1579 225.841 58.922 226.653 59.4623C227.465 60.0025 228.416 60.2958 229.392 60.3064C229.685 60.3426 229.981 60.3426 230.274 60.3064C235.425 60.5586 236.47 59.8382 237.191 54.903C237.555 52.0345 237.765 49.1486 237.821 46.2576Z" fill="white"/>
<path d="M268.17 71.7796C264.568 71.9417 254.121 66.5744 252.752 64.9533C252.225 64.2012 251.894 63.3292 251.79 62.4166C251.685 61.5039 251.81 60.5797 252.154 59.7278C252.498 58.8759 253.049 58.1234 253.757 57.5387C254.466 56.9541 255.309 56.5557 256.21 56.3799C257.579 56.2899 262.875 59.4959 264.244 60.2343C265.108 60.6679 266.056 60.9091 267.023 60.9414C267.99 60.9738 268.952 60.7965 269.843 60.4217C270.735 60.0469 271.535 59.4835 272.188 58.7703C272.841 58.0571 273.332 57.2109 273.627 56.2899C273.941 55.5069 274.018 54.6492 273.848 53.823C273.678 52.9969 273.27 52.2388 272.673 51.6429C271.597 50.6215 270.385 49.7547 269.071 49.0673C266.891 47.9506 264.496 47.1401 262.244 46.0954C256.841 43.4477 253.004 39.4312 252.122 33.2533C250.843 24.1035 257.093 14.4674 265.288 13.0986C267.685 12.7057 270.136 12.8015 272.495 13.3804C274.853 13.9592 277.07 15.009 279.013 16.4667C281.102 17.9977 284.002 24.5718 279.175 27.3816C278.306 27.8397 277.296 27.955 276.346 27.7049C275.395 27.4548 274.573 26.8574 274.042 26.0307C273.341 25.0155 272.314 24.2707 271.131 23.9201C269.948 23.5695 268.681 23.6342 267.54 24.1035C266.49 24.515 265.587 25.23 264.945 26.1571C264.303 27.0842 263.953 28.1814 263.937 29.3088C263.469 32.6049 264.352 34.1359 267.396 35.5768C269.719 36.6214 272.205 37.504 274.6 38.6207C279.643 41.1243 283.606 44.7266 284.957 50.2741C285.602 52.8259 285.655 55.4914 285.112 58.067C284.57 60.6426 283.446 63.0601 281.826 65.135C280.207 67.2098 278.134 68.8871 275.768 70.0387C273.401 71.1903 270.802 71.7858 268.17 71.7796Z" fill="white"/>
</svg>
