<svg xmlns="http://www.w3.org/2000/svg" viewBox="0 0 105.88 73.41"><defs><style>.cls-1{fill:#727c84;}.cls-2{fill:#454b4f;}.cls-3{fill:#7dc3e2;}.cls-4{fill:#e54a35;}.cls-5{fill:#af322c;}.cls-6,.cls-8{fill:#fff;}.cls-7{fill:#64bfed;}.cls-8{opacity:0.4;}.cls-9{opacity:0.14;}</style></defs><g id="Layer_2" data-name="Layer 2"><g id="Layer_1-2" data-name="Layer 1"><rect class="cls-1" x="53.57" y="8.49" width="4.59" height="18.09"/><path class="cls-2" d="M53.57,12a3.08,3.08,0,0,1,2.3.59c.78.8,1.74,7.26,1.74,7.26h.55l-.07-9.61H53.57Z"/><path class="cls-3" d="M4.38,49.14a4.86,4.86,0,0,0,0,9.67Z"/><path class="cls-4" d="M8,65.06l97.36-.86s2.13-16-2.47-19c-6.08-4-16.53-5.76-16.53-5.76s-1.59-18.64-19.57-20c-15.93-1.2-27.3-.08-33.06,5.25s-7.23,15.16-7.23,15.16S13.37,37.3,8,46.48C4.09,53.25,8,65.06,8,65.06Z"/><path class="cls-5" d="M104.93,48.41a63.82,63.82,0,0,1-.44,10.24L7.13,59.5s-.39-1.18-.81-3A39.67,39.67,0,0,0,8,65.06l97.36-.86S106.7,54.06,104.93,48.41Z"/><path class="cls-6" d="M30.07,41.46l52.85-.8C83,39,82,32,77.55,26.17,71.77,18.5,47.05,19,39,23.61,31.23,28.1,30.07,41.46,30.07,41.46Z"/><path class="cls-7" d="M32.16,40.1l48.19-.7c.08-1.49-.88-7.57-4.89-12.69C70.18,20,47.64,20.44,40.33,24.47,33.21,28.4,32.16,40.1,32.16,40.1Z"/><path class="cls-6" d="M51.68,20.49a41.5,41.5,0,0,1,3.13,10.33A43.81,43.81,0,0,1,55,41.09L61.78,41s-.37-6.72-.88-10.12c-1.2-8-3.61-10.57-3.61-10.57Z"/><path class="cls-4" d="M52.23,19.58s1.92,2.72,3,8.7.81,14.57.81,14.57h4.58s.28-10.2-.86-14.09c-1.86-6.4-3.72-9.18-3.72-9.18Z"/><rect class="cls-4" x="3.42" y="48.19" width="4.32" height="11.48" rx="1.22"/><path class="cls-5" d="M6.66,48.25v8.07a1.25,1.25,0,0,1-1.25,1.25h-2v.89a1.25,1.25,0,0,0,1.25,1.26H6.49a1.25,1.25,0,0,0,1.25-1.26v-9A1.24,1.24,0,0,0,6.66,48.25Z"/><path class="cls-8" d="M.75,53.43a1.47,1.47,0,0,0,.32,1,.72.72,0,0,0,1,.11c.29-.25.24-.7.33-1.07a9,9,0,0,1,.36-.85,2.32,2.32,0,0,0,.12-1.28.94.94,0,0,0-.22-.46C1.73,50,.75,52.88.75,53.43Z"/><path class="cls-8" d="M36.43,31.74a4.47,4.47,0,0,0-.25,2.17,2.1,2.1,0,0,0,1.3,1.65,2.3,2.3,0,0,0,2.42-1A11.17,11.17,0,0,0,41.08,32a11.42,11.42,0,0,1,4.38-5.21c.7-.44,1.54-.93,1.64-1.76a.73.73,0,0,0-.06-.44.92.92,0,0,0-.55-.39c-1.92-.69-4.45.85-6,1.94A11.24,11.24,0,0,0,36.43,31.74Z"/><path class="cls-8" d="M61.31,26.1a3.21,3.21,0,0,0,2.39,1c.89,0,1.78-.11,2.67-.07,1.71.06,3.33.78,5,1a2.12,2.12,0,0,0,1.25-.1.83.83,0,0,0,.45-1.06,1.1,1.1,0,0,0-.42-.41c-2.47-1.68-5.32-2.12-8.18-2.66-.78-.15-1.92-.73-2.69-.4A1.78,1.78,0,0,0,61.31,26.1Z"/><path class="cls-8" d="M15.16,42.64a6.65,6.65,0,0,0-2.87,3.53,2.89,2.89,0,0,0,.15,2.46,2.44,2.44,0,0,0,3.53.2,10.23,10.23,0,0,0,1.19-1.49A14.82,14.82,0,0,1,21.36,44c.54-.33,1.16-.76,1.18-1.4C22.67,39.52,16.15,42,15.16,42.64Z"/><circle class="cls-1" cx="27.96" cy="64.24" r="9.18"/><path class="cls-2" d="M34.06,57.38A9.18,9.18,0,0,1,20.69,69.84,9.18,9.18,0,1,0,34.06,57.38Z"/><circle class="cls-4" cx="27.96" cy="64.24" r="4.88"/><path class="cls-8" d="M24.22,64.31a2.22,2.22,0,0,0,.2,1.08,1.86,1.86,0,0,0,.94.85,1.11,1.11,0,0,0,.59.11,1.05,1.05,0,0,0,.77-.91c.08-.41,0-.84.12-1.26a2.11,2.11,0,0,1,.92-1.35c.3-.19.65-.3.94-.51,1.56-1.07-.86-2.09-1.89-1.64A4.21,4.21,0,0,0,24.22,64.31Z"/><path class="cls-8" d="M20.08,62.39a1.84,1.84,0,0,0,.08.74.75.75,0,0,0,.56.46.77.77,0,0,0,.71-.51,3.6,3.6,0,0,0,.19-.91,6.32,6.32,0,0,1,3-4c.13-.09.28-.19.31-.35.18-1.08-2.55.42-2.89.74A6.09,6.09,0,0,0,20.08,62.39Z"/><path class="cls-8" d="M26.26,56.78a.35.35,0,0,0,.13.45.75.75,0,0,0,.51.07,1,1,0,0,0,.58-.23.56.56,0,0,0,.18-.58.61.61,0,0,0-.58-.34,1.82,1.82,0,0,0-.68.19Z"/><circle class="cls-1" cx="84.41" cy="63.47" r="9.18"/><path class="cls-2" d="M90.51,56.61A9.18,9.18,0,0,1,77.14,69.07,9.18,9.18,0,1,0,90.51,56.61Z"/><circle class="cls-4" cx="84.41" cy="63.47" r="4.88"/><path class="cls-8" d="M80.67,63.54a2.33,2.33,0,0,0,.19,1.08,1.88,1.88,0,0,0,1,.85,1.08,1.08,0,0,0,.58.11,1.05,1.05,0,0,0,.77-.91c.09-.41,0-.84.12-1.26a2.13,2.13,0,0,1,.93-1.35c.3-.19.65-.3.94-.51,1.56-1.07-.86-2.09-1.89-1.64A4.21,4.21,0,0,0,80.67,63.54Z"/><path class="cls-8" d="M76.53,61.62a1.54,1.54,0,0,0,.08.74.73.73,0,0,0,.55.46.8.8,0,0,0,.72-.51,3.59,3.59,0,0,0,.19-.92,6.31,6.31,0,0,1,3-4c.14-.09.29-.19.31-.35.19-1.08-2.54.42-2.88.74A6.09,6.09,0,0,0,76.53,61.62Z"/><path class="cls-8" d="M82.7,56a.36.36,0,0,0,.14.46.8.8,0,0,0,.51.07,1,1,0,0,0,.58-.23.56.56,0,0,0,.17-.58.59.59,0,0,0-.57-.34,1.87,1.87,0,0,0-.69.19Z"/><path class="cls-1" d="M65.24.68c-4.33-2.45-4.95,2.5-6.42,2.76s-3,.36-3,.36-1.48-.1-2.95-.36S50.83-1.77,46.49.68c-3.93,2.22-.3,7.75,2.57,9.21,2.14,1.09,6.81,1.4,6.81,1.4s4.66-.31,6.8-1.4C65.54,8.43,69.17,2.9,65.24.68Zm-16.86,5a1.77,1.77,0,1,1,1.76-1.76A1.76,1.76,0,0,1,48.38,5.65Zm15.16,0A1.77,1.77,0,1,1,65.3,3.89,1.76,1.76,0,0,1,63.54,5.65Z"/><path class="cls-8" d="M54.35,17.19a1.5,1.5,0,0,0,.09.42.36.36,0,0,0,.68,0,1.22,1.22,0,0,0,.08-.43c0-.69.61-3.64-.35-3.72C53.72,13.37,54.3,16.51,54.35,17.19Z"/><g class="cls-9"><path class="cls-6" d="M65.31,3.89a1.76,1.76,0,0,1-.61,1.33L63.07,9.67c2.53-1.58,5.36-6,3.05-8.34l-.84,2.28A1.27,1.27,0,0,1,65.31,3.89Z"/><path class="cls-6" d="M45,5a9.17,9.17,0,0,0,4,4.92l.33.15,2.73-7.19A9.47,9.47,0,0,0,50,.38L48.09,2.15a1.53,1.53,0,0,1,.3,0,1.77,1.77,0,1,1-1.77,1.77,2.22,2.22,0,0,1,.06-.45Z"/><path class="cls-6" d="M56,3.79l-3.94,7a34.41,34.41,0,0,0,3.78.49l1.13-.1L58.47,3.5C57.41,3.67,56.41,3.76,56,3.79Z"/></g></g></g></svg>