<svg width="60" height="60" viewBox="0 0 60 60" fill="none" xmlns="http://www.w3.org/2000/svg">
<path d="M30 60C46.5685 60 60 46.5685 60 30C60 13.4315 46.5685 0 30 0C13.4315 0 0 13.4315 0 30C0 46.5685 13.4315 60 30 60Z" fill="#F2CD30"/>
<path d="M48.5404 12.1799C41.1604 4.61994 30.1804 3.11994 21.3004 6.47994C11.6404 10.0799 4.02039 19.6799 4.44039 31.0799C4.86039 41.6999 12.2404 50.5199 21.4804 53.7599C33.0004 57.7799 46.5004 52.86 52.4404 41.82C57.6004 32.4 56.3404 20.1599 48.5404 12.1799ZM33.1804 38.3399C29.1004 40.0799 24.4204 39.8399 21.1204 36.8399C16.6804 32.8199 16.8004 24.3599 21.3004 21.2999C25.1404 18.6599 29.4604 17.6999 33.0004 18.8399C34.2004 19.1999 39.0004 20.9999 40.3804 25.7999C41.4604 29.5199 39.7804 32.6999 39.2404 33.6599C37.2604 36.7799 34.3204 37.8599 33.1804 38.3399ZM52.4404 22.0799C52.4404 22.1399 52.4404 22.1399 52.4404 22.1999C52.4404 22.1399 52.4404 22.0799 52.4404 22.0799Z" fill="#D23949"/>
<path d="M47.4 19.2596C47.1 19.0196 47.04 19.0196 47.04 18.9596C47.28 18.2396 47.46 17.5196 47.7 16.7996C47.94 16.9196 48.36 17.1596 48.36 17.1596C48.06 17.8796 47.76 18.5996 47.4 19.2596Z" fill="#F26D44"/>
<path d="M43.4407 29.0998C43.0207 28.4998 42.6007 27.8998 42.1807 27.3598C42.3607 27.2398 42.5407 27.1198 42.7207 26.9398C43.0807 27.5998 43.5007 28.2598 43.8607 28.8598C43.7407 28.9798 43.5607 29.0398 43.4407 29.0998Z" fill="#F26D44"/>
<path d="M43.7405 13.62C43.3205 13.02 42.9005 12.42 42.4805 11.88C42.6605 11.76 42.8405 11.64 43.0205 11.46C43.3805 12.12 43.8005 12.78 44.1605 13.38C44.0405 13.44 43.9205 13.5 43.7405 13.62Z" fill="#F26D44"/>
<path d="M14.5202 24.3596C14.2202 24.1196 14.1602 24.1196 14.1602 24.0596C14.4002 23.3396 14.5802 22.6196 14.8202 21.8996C15.0602 22.0196 15.4802 22.2596 15.4802 22.2596C15.1802 22.9796 14.8202 23.6396 14.5202 24.3596Z" fill="#F26D44"/>
<path d="M23.4 18.0596C23.1 17.8196 23.04 17.8196 23.04 17.7596C23.28 17.0396 23.46 16.3196 23.7 15.5996C23.94 15.7196 24.36 15.9596 24.36 15.9596C24.06 16.6796 23.76 17.3396 23.4 18.0596Z" fill="#F26D44"/>
<path d="M21.4801 12.6596C21.1801 12.4196 21.1201 12.4196 21.1201 12.3596C21.3601 11.6396 21.5401 10.9196 21.7801 10.1996C22.0201 10.3196 22.4401 10.5596 22.4401 10.5596C22.1401 11.2796 21.7801 11.9396 21.4801 12.6596Z" fill="#F26D44"/>
<path d="M26.2197 43.8C26.8797 43.14 27.5397 42.4199 28.2597 41.7599C28.4997 41.9999 28.6797 42.18 28.9197 42.42C28.1397 43.08 27.4197 43.68 26.6397 44.34C26.5197 44.16 26.3997 43.98 26.2197 43.8Z" fill="#FF9E5C"/>
<path d="M37.501 17.5799C38.161 16.9199 38.821 16.1999 39.541 15.5399C39.781 15.7799 39.961 15.9598 40.201 16.1998C39.421 16.8598 38.701 17.4599 37.921 18.1199C37.801 17.9399 37.621 17.7599 37.501 17.5799Z" fill="#FF9E5C"/>
<path d="M8.94043 21.2396C9.60043 20.5796 10.2604 19.8596 10.9804 19.1996C11.2204 19.4396 11.4004 19.6196 11.6404 19.8596C10.8604 20.5196 10.1404 21.1196 9.3604 21.7796C9.1804 21.5996 9.06043 21.4196 8.94043 21.2396Z" fill="#FF9E5C"/>
<path d="M9.30042 37.6797C9.00042 37.4397 8.94043 37.4397 8.94043 37.3797C9.18043 36.6597 9.36042 35.9397 9.60042 35.2197C9.84042 35.3397 10.2604 35.5797 10.2604 35.5797C9.9604 36.2997 9.60042 36.9597 9.30042 37.6797Z" fill="#F26D44"/>
<path d="M22.1403 50.9998C21.8403 50.7598 21.7803 50.7598 21.7803 50.6998C22.0203 49.9798 22.2003 49.2599 22.4403 48.5399C22.6803 48.6599 23.1003 48.8998 23.1003 48.8998C22.8003 49.6198 22.5003 50.2798 22.1403 50.9998Z" fill="#F26D44"/>
<path d="M19.5606 44.6996C18.9006 43.7996 18.2406 42.8996 17.6406 41.9996C17.9406 41.8196 18.2406 41.5796 18.4806 41.3996C19.0806 42.4196 19.6206 43.3796 20.2206 44.3996C19.9806 44.4596 19.8006 44.5796 19.5606 44.6996Z" fill="#F26D44"/>
<path d="M11.8203 43.2596C12.3003 42.7196 12.8403 42.2396 13.3203 41.6996C13.5003 41.8796 13.6203 41.9996 13.8003 42.1796C13.2003 42.6596 12.6603 43.1396 12.0603 43.6196C12.0003 43.4996 11.9403 43.3796 11.8203 43.2596Z" fill="#FF9E5C"/>
<path d="M30.001 52.2596C30.481 51.7196 31.021 51.2396 31.501 50.6996C31.681 50.8796 31.801 50.9996 31.981 51.1796C31.381 51.6596 30.841 52.1396 30.241 52.6196C30.241 52.4996 30.121 52.3796 30.001 52.2596Z" fill="#FF9E5C"/>
<path d="M15.2406 31.8596C15.1206 32.2796 15.1206 32.3396 15.1206 32.3396C14.2806 32.2796 13.4406 32.2196 12.6006 32.0996C12.6606 31.7996 12.7206 31.4996 12.7806 31.1996C13.6206 31.4396 14.4006 31.6196 15.2406 31.8596Z" fill="#F26D44"/>
<path d="M10.2601 27.5401C10.1401 27.9601 10.1401 28.0201 10.1401 28.0201C9.30012 27.9601 8.46012 27.9001 7.62012 27.7801C7.68012 27.4801 7.74011 27.1801 7.80011 26.8801C8.64011 27.1201 9.4201 27.3601 10.2601 27.5401Z" fill="#F26D44"/>
<path d="M32.7002 46.8C32.9402 46.14 33.1802 45.4199 33.4202 44.7599C33.6602 44.8199 33.8402 44.94 34.0802 45C33.7802 45.66 33.4802 46.38 33.1202 47.04C32.9402 46.98 32.8202 46.86 32.7002 46.8Z" fill="#F26D44"/>
<path d="M40.141 48.9598C39.901 49.3198 39.901 49.3798 39.841 49.3798C39.061 49.0798 38.281 48.7199 37.501 48.4199C37.681 48.1799 37.801 47.8798 37.981 47.6398C38.701 48.1198 39.421 48.5398 40.141 48.9598Z" fill="#F26D44"/>
<path d="M44.0397 45.0596C43.9797 44.3996 43.8597 43.6797 43.9197 43.0197C43.9197 42.7197 44.3397 42.4197 44.5797 42.1197C44.7597 42.4797 45.1797 42.8996 45.1197 43.2596C44.9997 43.9196 44.6997 44.5197 44.4597 45.1197C44.2797 45.1197 44.1597 45.0596 44.0397 45.0596Z" fill="#F26D44"/>
<path d="M48.9 40.4998C48.6 40.2598 48.54 40.2598 48.54 40.1998C48.78 39.4798 48.96 38.7599 49.2 38.0399C49.44 38.1599 49.86 38.3998 49.86 38.3998C49.62 39.1198 49.26 39.7798 48.9 40.4998Z" fill="#F26D44"/>
<path d="M38.5797 42.3596C38.2797 42.1196 38.2197 42.1196 38.2197 42.0596C38.4597 41.3396 38.6397 40.6196 38.8797 39.8996C39.1197 40.0196 39.5397 40.2596 39.5397 40.2596C39.2397 41.0396 38.8797 41.6996 38.5797 42.3596Z" fill="#F26D44"/>
<path d="M42.001 37.02C42.481 36.48 43.021 36 43.501 35.46C43.681 35.64 43.801 35.76 43.981 35.94C43.381 36.42 42.841 36.9 42.241 37.38C42.241 37.26 42.121 37.14 42.001 37.02Z" fill="#FF9E5C"/>
<path d="M42.4805 21.0596C42.9605 20.5196 43.5005 20.0396 43.9805 19.4996C44.1605 19.6796 44.2805 19.7996 44.4605 19.9796C43.8605 20.4596 43.3205 20.9396 42.7205 21.4196C42.6605 21.2996 42.6005 21.1796 42.4805 21.0596Z" fill="#F26D44"/>
<path d="M17.6404 17.94C17.4004 17.16 17.1004 16.4399 16.9804 15.6599C16.9204 15.4199 17.3404 15.0599 17.5204 14.7599C17.7604 14.9399 18.1804 15.18 18.2404 15.42C18.3004 16.2 18.3004 17.04 18.3004 17.88C18.0604 17.88 17.8804 17.94 17.6404 17.94Z" fill="#F26D44"/>
<path d="M32.7006 15.9C32.4606 16.26 32.4606 16.3201 32.4006 16.3201C31.6206 16.0201 30.8405 15.66 30.0605 15.36C30.2405 15.12 30.3606 14.8201 30.5406 14.5801C31.2606 15.0601 31.9806 15.48 32.7006 15.9Z" fill="#F26D44"/>
<path d="M12.9606 15.6596C12.6606 15.4196 12.6006 15.4196 12.6006 15.3596C12.8406 14.6396 13.0206 13.9196 13.2606 13.1996C13.5006 13.3196 13.9206 13.5596 13.9206 13.5596C13.6206 14.2796 13.3206 14.9396 12.9606 15.6596Z" fill="#F26D44"/>
<path d="M52.8006 28.0199C52.5606 27.2399 52.2606 26.5198 52.1406 25.7398C52.0806 25.4998 52.5006 25.1398 52.6806 24.8398C52.9206 25.0198 53.3406 25.2598 53.4006 25.4998C53.4606 26.2798 53.4606 27.1198 53.4606 27.9598C53.1606 27.9598 52.9806 27.9599 52.8006 28.0199Z" fill="#F26D44"/>
<path d="M48.0602 25.7401C47.7602 25.5001 47.7002 25.5001 47.7002 25.4401C47.9402 24.7201 48.1202 24.0001 48.3602 23.2801C48.6002 23.4001 49.0202 23.6401 49.0202 23.6401C48.7202 24.3601 48.4202 25.0201 48.0602 25.7401Z" fill="#F26D44"/>
<path d="M27.1201 11.9998C26.6401 11.6398 26.5801 11.6399 26.5801 11.5799C26.9401 10.4999 27.2401 9.41984 27.6001 8.33984C27.9601 8.51984 28.6201 8.87984 28.5601 8.93984C28.1401 9.95984 27.6601 10.9798 27.1201 11.9998Z" fill="#FF9E5C"/>
<path d="M48.1201 33.6596C47.6401 33.2996 47.5801 33.2996 47.5801 33.2396C47.9401 32.1596 48.2401 31.0796 48.6001 29.9996C48.9601 30.1796 49.6201 30.5396 49.5601 30.5996C49.1401 31.5596 48.6001 32.5796 48.1201 33.6596Z" fill="#FF9E5C"/>
<path d="M36.1204 10.4998C35.7004 9.89983 35.2804 9.29981 34.8604 8.75981C35.0404 8.63981 35.2204 8.51984 35.4004 8.33984C35.7604 8.99984 36.1804 9.65981 36.5404 10.2598C36.4204 10.3798 36.3004 10.4398 36.1204 10.4998Z" fill="#F26D44"/>
</svg>
