<svg xmlns="http://www.w3.org/2000/svg" viewBox="0 0 67.61 145"><defs><style>.cls-1{isolation:isolate;}.cls-2{fill:#f9b818;}.cls-3{fill:#e42d31;}.cls-4{fill:#4ca58c;}.cls-5{fill:#ddff63;}.cls-6{mix-blend-mode:screen;opacity:0.5;}.cls-7{fill:#fb4b4e;}</style></defs><g class="cls-1"><g id="Layer_2" data-name="Layer 2"><g id="Layer_1-2" data-name="Layer 1"><path class="cls-2" d="M35.12,59.54l11.78,83.4c.41,2.92,5,2.65,4.6-.28L39.72,59.26c-.41-2.92-5-2.65-4.6.28Z"/><path class="cls-3" d="M33.59,34C32,34.1,10.05,35.79,4.3,17.32a33.63,33.63,0,0,0-4,21.21,33.24,33.24,0,0,0,1.43,6C19.05,52.44,32.33,35.62,33.59,34Z"/><path class="cls-4" d="M33.59,34l0-.06c-1-1-16.62-17-5.82-33.35A33.74,33.74,0,0,0,4.3,17.32C10.05,35.79,32,34.1,33.59,34Z"/><path class="cls-5" d="M33.75,34.1v0h0Z"/><path class="cls-4" d="M33.81,33.81s16.41-17,33.26-6A33.75,33.75,0,0,0,50.48,4.41C31.27,10.35,33.81,33.81,33.81,33.81Z"/><path class="cls-5" d="M33.59,34h.1l-.06-.05Z"/><path class="cls-4" d="M33.75,34.1l0,0h0l-.05-.24-.06.08.06.05h-.1C32.33,35.62,19.05,52.44,1.77,44.57a33.81,33.81,0,0,0,19.7,20.7C38.37,57.18,34.35,36.73,33.75,34.1Z"/><path class="cls-4" d="M33.74,34.06v0c1.07.79,18.65,14.2,10.74,31.77a33.83,33.83,0,0,0,20.7-19.51C56.72,28.53,34.57,33.85,33.74,34.06Z"/><path class="cls-3" d="M67.07,27.84c-16.85-11-33.26,6-33.26,6S31.27,10.35,50.48,4.41A33.61,33.61,0,0,0,29.08.34c-.43.06-.85.13-1.27.21C17,16.9,32.62,32.89,33.63,33.9l.06-.08.05.24c.83-.21,23-5.53,31.45,12.3a33.66,33.66,0,0,0,2.09-17.28C67.22,28.66,67.14,28.25,67.07,27.84Z"/><path class="cls-3" d="M33.75,34.1c.6,2.63,4.62,23.08-12.28,31.17a33.61,33.61,0,0,0,17.06,2,33,33,0,0,0,6-1.41C52.4,48.3,34.82,34.89,33.75,34.1Z"/><g class="cls-6"><path class="cls-7" d="M28.64,6.42c.42-.07.84-.15,1.27-.21A33.82,33.82,0,0,1,67.55,32c0-1-.13-2-.27-2.94-.06-.42-.14-.83-.21-1.24a33.8,33.8,0,0,0-38-27.5c-.43.06-.85.13-1.27.21a33.78,33.78,0,0,0-27.47,38c.13,1,.32,1.95.54,2.89a33.79,33.79,0,0,1,27.76-35Z"/></g></g></g></g></svg>