<svg width="66" height="66" viewBox="0 0 66 66" fill="none" xmlns="http://www.w3.org/2000/svg">
<path d="M33 66C51.2254 66 66 51.2254 66 33C66 14.7746 51.2254 0 33 0C14.7746 0 0 14.7746 0 33C0 51.2254 14.7746 66 33 66Z" fill="#D93E4F"/>
<path d="M31.0199 62.2046C22.6049 61.0496 14.1899 56.2646 9.40486 49.3346C8.74486 48.5096 6.10486 43.2296 9.73486 44.5496C12.7049 45.7046 14.5199 48.6746 17.3249 50.3246C25.7399 54.7796 35.9699 56.0996 43.8899 49.8296C44.5499 49.3346 45.0449 48.8396 45.8699 48.5096C48.0149 47.5196 51.1499 48.8396 51.6449 51.1496C52.1399 53.2946 49.6649 56.7596 48.1799 58.2446C46.5299 59.7296 44.5499 60.7196 42.4049 61.3796C38.6099 62.5346 34.8149 62.6996 31.0199 62.2046Z" fill="#E55C6B"/>
<path d="M29.3707 1.32042C27.8857 1.48542 26.4007 1.81542 24.9157 2.14542C21.1207 3.30042 16.5007 4.95042 13.3657 7.42542C11.3857 8.91042 9.90073 11.0554 8.41573 12.8704C7.09573 14.8504 5.77573 16.6654 4.29073 18.4804C3.13573 19.9654 1.98073 21.4504 1.65073 23.4304C0.990733 26.7304 3.79573 30.1954 7.09573 31.0204C12.2107 32.3404 16.3357 28.7104 20.2957 26.0704C24.9157 23.1004 30.1957 20.2954 35.3107 18.4804C40.9207 16.5004 46.8607 15.6754 52.6357 16.9954C54.7807 17.4904 56.7607 18.1504 58.5757 19.3054C61.3807 21.1204 63.3607 24.0904 64.1857 27.2254C62.0407 19.1404 57.9157 9.90042 49.9957 6.10542C43.2307 2.80542 36.7957 0.495422 29.3707 1.32042Z" fill="#E55C6B"/>
<path opacity="0.8" d="M18.4785 9.73531C18.1485 9.57031 17.8185 9.57031 17.4885 9.57031C14.8485 9.90031 13.8585 12.2103 12.7035 14.1903C11.5485 16.5003 10.5585 18.9753 10.0635 21.4503C10.7235 19.3053 11.8785 17.3253 13.0335 15.5103C14.5185 13.0353 15.6735 13.0353 17.9835 11.7153C18.6435 11.3853 19.1385 10.5603 18.8085 9.90031C18.4785 9.90031 18.4785 9.90031 18.4785 9.73531Z" fill="white"/>
<path opacity="0.8" d="M20.1307 8.90953C19.6357 9.07453 19.3057 9.56953 19.3057 10.0645C19.6357 10.3945 20.1307 10.5595 20.6257 10.5595C21.1207 10.3945 21.2857 9.89953 21.1207 9.40453C20.9557 8.90953 20.4607 8.74453 19.9657 8.90953H20.1307Z" fill="white"/>
<path d="M42 30.2C41.2 30.1 39.3 30.1 36.1 30.1L24.6 30.2C23.5 30.2 23 29.5 23 28C23 27.1 23.4 26.5 24.1 26.2C24.4 26.1 24.7 26 25.1 26C29.4 26 33.1 26.1 36.2 26.1C39.3 26.1 41.1 26.1 41.7 26.1C42.2 26.1 42.7 26.2 43 26.6C43.4 26.9 43.6 27.2 43.6 27.4C43.6 27.6 43.7 27.8 43.7 28C43.7 28.2 43.7 28.4 43.6 28.6C43.6 28.8 43.4 29.2 43.1 29.6C42.8 30 42.5 30.2 42 30.2ZM42 39.5C41.2 39.4 39.3 39.4 36.1 39.4L24.6 39.5C23.5 39.5 23 38.8 23 37.3C23 36.4 23.4 35.8 24.1 35.5C24.4 35.4 24.7 35.3 25.1 35.3C29.4 35.3 33.1 35.4 36.2 35.4C39.3 35.4 41.1 35.4 41.7 35.4C42.2 35.4 42.7 35.5 43 35.9C43.4 36.2 43.6 36.5 43.6 36.7C43.6 36.9 43.7 37.1 43.7 37.3C43.7 37.5 43.7 37.7 43.6 37.9C43.6 38.1 43.4 38.5 43.1 38.9C42.8 39.2 42.5 39.5 42 39.5Z" fill="white"/>
</svg>
