<svg xmlns="http://www.w3.org/2000/svg" viewBox="0 0 145.59 191.59"><defs><style>.cls-1{fill:#c32f43;}.cls-2{fill:#ddeefd;}.cls-3{fill:#b12819;}.cls-4{fill:#ffc8af;}.cls-5,.cls-6{fill:#ff9d80;}.cls-6{opacity:0.51;}.cls-10,.cls-11,.cls-14,.cls-17,.cls-7{fill:none;stroke-linecap:round;stroke-linejoin:round;}.cls-7{stroke:#3f2732;}.cls-8{fill:#3f2732;}.cls-9{fill:#d6402e;}.cls-10{stroke:#d6402e;}.cls-11{stroke:#f99621;stroke-width:6.34px;}.cls-12{fill:#512c3f;}.cls-13{fill:#f39d22;}.cls-14{stroke:#f67300;stroke-width:2.38px;}.cls-15{fill:#b1dbfc;}.cls-16{fill:#5b394a;}.cls-17{stroke:#84446a;stroke-width:3.96px;}.cls-18{fill:#dd5465;}.cls-19{fill:#44b0d7;}</style></defs><g id="Layer_2" data-name="Layer 2"><g id="Layer_1-2" data-name="Layer 1"><rect class="cls-1" x="43.29" y="103.08" width="65.33" height="49.61" rx="14.67" transform="translate(151.91 255.76) rotate(180)"/><path class="cls-2" d="M38,126.53c14,0,26.13-8.94,26.7-9.37a5.91,5.91,0,0,0-7.08-9.46c-.24.18-12.14,8.84-23.25,6.68-5.32-1-9.65-4.39-13.24-10.27a5.9,5.9,0,1,0-10.08,6.15C16.41,119,23.52,124.33,32.19,126A30.43,30.43,0,0,0,38,126.53Z"/><ellipse class="cls-3" cx="114.75" cy="33.14" rx="30.84" ry="29.2"/><ellipse class="cls-3" cx="36" cy="29.2" rx="30.84" ry="29.2"/><path class="cls-2" d="M51.28,115.5V147a9.4,9.4,0,0,0,2.42,6.12c3.44,4.07,10.2,6.85,17.93,6.85h3.68c8.26,0,15.4-3.17,18.59-7.7A9.11,9.11,0,0,0,95.66,147V115.5c0-7.13-9.15-13-20.35-13H71.63C60.43,102.54,51.28,108.37,51.28,115.5Z"/><path class="cls-4" d="M86.21,175.54l-5.62-15.26c-1.46.07-11.72.06-13,0L62,175.54l-7.77-1.3c-5.09-18.86-.76-25.68-.76-25.68H94.74s4.33,6.82-.76,25.68Z"/><path class="cls-2" d="M95.29,168.65c-.34,1.74-1.33,6.86-1.87,8.86l-6.89.16-2.86-9Z"/><path class="cls-2" d="M52.92,168.65H64.54l-3,10.5L55,178.82C54.49,176.82,53.26,170.39,52.92,168.65Z"/><path class="cls-5" d="M74.11,98.35v8.82l8.36-3.27a4.8,4.8,0,0,1-3.13-5.85Z"/><path class="cls-5" d="M74.37,98.35v8.82L66,103.9a4.81,4.81,0,0,0,3.14-5.85Z"/><circle class="cls-5" cx="112.02" cy="70.33" r="9.1"/><circle class="cls-5" cx="34.92" cy="70.33" r="9.1"/><path class="cls-4" d="M46.11,39.29v5.22h58.35a34.52,34.52,0,0,1,5,17.89V77.86A22,22,0,0,1,87.53,99.78H57.23a20,20,0,0,1-20-20V62.4A34.61,34.61,0,0,1,46.11,39.29Z"/><circle class="cls-6" cx="96.79" cy="81.84" r="6.13"/><circle class="cls-6" cx="51.52" cy="81.84" r="6.13"/><path class="cls-7" d="M77.45,81a5,5,0,0,1-9.09.7"/><circle class="cls-8" cx="85.47" cy="73.5" r="2.67"/><circle class="cls-8" cx="59.66" cy="73.5" r="2.67"/><path class="cls-9" d="M109.59,45.38c2.76,3.71,4.07,8.37,2.26,12.93-1.63,4.12-6,6.92-10.2,6.1-2.45-.49-4.58-2.07-7-2.73-2.87-.77-5.94-.18-8.83-.86a11.25,11.25,0,0,1-7.72-7,7.3,7.3,0,0,1-6.24,3.68,11.67,11.67,0,0,1-7-2.45,14.9,14.9,0,0,1-6.07,7.33,27.74,27.74,0,0,1-13.31,4.8c-3.72.32-7.82-.3-10.4-3.15-3.28-3.63-2.93-9.44-1.71-14.29,1.28-5.09,3.65-10.4,8.18-12.57,4-1.9,8.6-.9,12.85.18,6.39,1.62,12.86,3.35,19.43,3.07,4.27-.18,8.46-1.21,12.67-1.94s8.57-1.17,12.74-.18A19.08,19.08,0,0,1,109.59,45.38Z"/><polyline class="cls-10" points="74.05 68.27 74.35 73.84 69.98 72.1 72.55 77.22"/><path class="cls-11" d="M95.71,37.08s8.72-1.12,13.88,8.3"/><path class="cls-11" d="M48.56,34.78s-8.72-1.12-13.88,8.3"/><path class="cls-4" d="M18,92c-3.59-.53-1.29,5.66-1,8-1.09.08-1.8-1.09-2.24-2.1l-2.36-5.4c-.53-1.21-1.58-2.67-2.82-2.2-.93.36-1.13,1.59-1.07,2.58a13.09,13.09,0,0,0,.69,3.51L6.71,93.82c-.85-.88-2.12-1.83-3.18-1.2a1.9,1.9,0,0,0-.72,2.08,5.58,5.58,0,0,0,1.16,2A11.24,11.24,0,0,0,7.3,100a19.05,19.05,0,0,0-4.49-2.3c-.85-.31-2-.49-2.53.21-.77.94.21,2.28,1.19,3a23.55,23.55,0,0,0,4.36,2.57,4.59,4.59,0,0,0-3-.71,1.47,1.47,0,0,0-.76.26c-.75.61,0,1.79.67,2.45a21,21,0,0,0,6.46,4.63,7.79,7.79,0,0,0,10.4-4.35,14.08,14.08,0,0,0,1.09-6.44C20.25,93.46,18,92,18,92Z"/><polygon class="cls-12" points="51.75 135.18 96.37 135.18 102.28 165.7 42.56 165.37 51.75 135.18"/><path class="cls-13" d="M79.53,136.34,82.84,150a8.7,8.7,0,0,0,10,6.51l29.26-5.29a8.71,8.71,0,0,0,7-10.16l-2.52-13.56a8.7,8.7,0,0,0-10-7l-18.21,3.17-8.75,1.53-3.1.53A8.7,8.7,0,0,0,79.53,136.34Z"/><path class="cls-14" d="M119.34,129.06l-7,8.39a10.34,10.34,0,0,1-10.81,3.28L87,136.5"/><path class="cls-2" d="M110.16,146.78A5.92,5.92,0,0,0,116,142c2-10,.38-18.52-4.74-25.22-8.82-11.55-24.89-12.82-25.57-12.87a5.91,5.91,0,0,0-.87,11.78c.24,0,11.58,1,17.09,8.31,3,3.94,3.8,9.08,2.5,15.72a5.91,5.91,0,0,0,4.65,6.94A6.48,6.48,0,0,0,110.16,146.78Z"/><path class="cls-4" d="M114.09,145.25l-9.73-5.52s-8.65,6.39-2.52,13a7.93,7.93,0,0,0,8.31,5.25C116.71,157.5,118.46,149.18,114.09,145.25Z"/><path class="cls-15" d="M87.17,103.25a7.21,7.21,0,0,1-14.41,0Z"/><path class="cls-15" d="M75.79,103.25a7.2,7.2,0,0,1-14.4,0Z"/><path class="cls-8" d="M76.69,107.08l9.62,11.32a1.37,1.37,0,0,1-.15,1.91L80,125.6a1.36,1.36,0,0,1-2.21-.76l-3.42-16.6a1.35,1.35,0,0,1,.77-1.51h0A1.37,1.37,0,0,1,76.69,107.08Z"/><path class="cls-8" d="M72,107.08,62.37,118.4a1.37,1.37,0,0,0,.15,1.91l6.2,5.29a1.36,1.36,0,0,0,2.21-.76l3.42-16.6a1.35,1.35,0,0,0-.77-1.51h0A1.37,1.37,0,0,0,72,107.08Z"/><path class="cls-8" d="M74.28,130.37h0A1.76,1.76,0,0,0,76,128.62V115.28a1.76,1.76,0,0,0-1.75-1.75h0a1.76,1.76,0,0,0-1.75,1.75v13.34A1.76,1.76,0,0,0,74.28,130.37Z"/><path class="cls-16" d="M74.39,115.5h0A2.53,2.53,0,0,0,76.9,113v-5.47A2.52,2.52,0,0,0,74.39,105h0a2.52,2.52,0,0,0-2.52,2.51V113A2.53,2.53,0,0,0,74.39,115.5Z"/><path class="cls-8" d="M62.1,177.76l.63,6.11c.33,2.38-1.28,4.53-3.39,4.51l-11.57-.13c-1.34,0-2-1.93-.92-2.93l7.94-7.73Z"/><path class="cls-2" d="M57,184.07h0a1.65,1.65,0,0,0,1.64-1.64v-4.67A1.64,1.64,0,0,0,57,176.12h0a1.63,1.63,0,0,0-1.64,1.64v4.67A1.64,1.64,0,0,0,57,184.07Z"/><rect class="cls-8" x="54.45" y="177.59" width="7.38" height="2.46"/><path class="cls-8" d="M85.8,177.76l-.63,6.11c-.33,2.38,1.28,4.53,3.39,4.51l11.57-.13c1.34,0,1.94-1.93.92-2.93l-7.94-7.73Z"/><path class="cls-2" d="M90.9,184.07h0a1.65,1.65,0,0,1-1.64-1.64v-4.67a1.64,1.64,0,0,1,1.64-1.64h0a1.64,1.64,0,0,1,1.64,1.64v4.67A1.65,1.65,0,0,1,90.9,184.07Z"/><rect class="cls-8" x="86.06" y="177.59" width="7.38" height="2.46"/><path class="cls-17" d="M64.65,145.68s3.5,6.13,15.75,10.94"/><path class="cls-18" d="M53.28,131.25h0a4.39,4.39,0,0,0,4.37-4.38V110.25a4.39,4.39,0,0,0-4.37-4.38h0a4.39,4.39,0,0,0-4.38,4.38v16.62A4.39,4.39,0,0,0,53.28,131.25Z"/><path class="cls-18" d="M89.59,108.49v16.69l8.75-1.53V108.49a4.36,4.36,0,0,0-7.46-3.08A4.31,4.31,0,0,0,89.59,108.49Z"/><rect class="cls-19" x="30.17" y="188.31" width="88.97" height="3.28" rx="1.24"/></g></g></svg>