<svg xmlns="http://www.w3.org/2000/svg" viewBox="0 0 643.4 92.92"><defs><style>.cls-1{fill:#f7ad19;}.cls-2{fill:#fff;}</style></defs><g id="Layer_2" data-name="Layer 2"><g id="Layer_1-2" data-name="Layer 1"><path class="cls-1" d="M27.15,80.34c-5.52,1.31-14.07-.54-17.78-3a14.19,14.19,0,0,1-6.17-14l0-.21a18.32,18.32,0,0,1-1.77-3.23c-4.15-9.73.86-21.6,11.07-25.79A24.63,24.63,0,0,1,15.92,33a22.73,22.73,0,0,1,13.13.78l.21.08a15.59,15.59,0,0,1,9.66,11.76,13.78,13.78,0,0,1,.16,3.2,18.55,18.55,0,0,1,2.26,20.46,21.15,21.15,0,0,1-13.78,11Z"/><path class="cls-1" d="M42.58,76.48l-.28,0c-.73.13-1.46.2-2.36.28h-.2a21.52,21.52,0,0,1-18.15-7.75c-3-3.88-6-13-5.81-17.86A15.22,15.22,0,0,1,18,43.75l.27-.45.3-.42a15.54,15.54,0,0,1,9.54-6.32,17.09,17.09,0,0,1,5.48-.38A16.48,16.48,0,0,1,38.88,34,15.93,15.93,0,0,1,55.6,40.4c2.85,4.35,4,13.87,3.61,17.39a22,22,0,0,1-7.22,14l-.34.28a24.92,24.92,0,0,1-8.6,4.34Z"/><path class="cls-1" d="M59.42,73.12a22.47,22.47,0,0,1-3.19.46c-.5.16-1,.29-1.52.4a15.88,15.88,0,0,1-15.39-5l-2.58-2.88-2.61-11.4C31.65,44,30.8,40.3,35,34.76l.33-.44a16.81,16.81,0,0,1,9.42-5.72A16.53,16.53,0,0,1,57.49,31l.15.11a15.05,15.05,0,0,1,2.9,2.65A20.41,20.41,0,0,1,74.28,44.51,20.82,20.82,0,0,1,76,55.83l0,.22A21.2,21.2,0,0,1,64.81,71.22,20.86,20.86,0,0,1,59.42,73.12Z"/><path class="cls-1" d="M74,70.09a21.9,21.9,0,0,1-5.51.41,20.66,20.66,0,0,1-11.67-4.3l-.36-.3a16.5,16.5,0,0,1-5.82-10.17A15.14,15.14,0,0,1,50.62,52a16,16,0,0,1-.44-10.11,19.57,19.57,0,0,1,4.75-8,23,23,0,0,1,9.14-5.5,21.7,21.7,0,0,1,2.52-.66,22.31,22.31,0,0,1,14.59,2c4.73,2.58,7.71,6.47,8.53,11a13.7,13.7,0,0,1,.07,4.56,16.61,16.61,0,0,1,.69,10.41C88.66,62.7,82.17,68.46,74.28,70Z"/><path class="cls-1" d="M89.2,66.71A18.63,18.63,0,0,1,86,67,21.08,21.08,0,0,1,66.47,54.35,21.47,21.47,0,0,1,70.9,30.89,21.09,21.09,0,0,1,82,25a20.87,20.87,0,0,1,5.58-.28,20,20,0,0,1,10,3.42,16.66,16.66,0,0,1,7.54,11.29,14.18,14.18,0,0,1-.18,5.16,15.11,15.11,0,0,1-1.72,12.55A21.32,21.32,0,0,1,89.2,66.71Z"/><path class="cls-1" d="M100,65a16,16,0,0,1-7.64-.47A15,15,0,0,1,83.8,58l-.15-.25-.15-.25c-1.32-2.37-1.6-3.82-2.93-10.8L78.8,37.39c.33-1.23.67-2.47,1-3.71l.09-.26a15.49,15.49,0,0,1,4.31-6.73l.45-.4.48-.37a16.91,16.91,0,0,1,7.25-3.17,17.29,17.29,0,0,1,4.47-.21l.58-.11c6.25-1.09,12.65.76,16.64,4.8a14.27,14.27,0,0,1,3.74,13.64A15.41,15.41,0,0,1,113,48.65a14.37,14.37,0,0,1-4.1,11.71l-.33.33A16.64,16.64,0,0,1,100,65Z"/><path class="cls-1" d="M112.7,62.64a16.42,16.42,0,0,1-4.84.09,15.86,15.86,0,0,1-9.69-5l-.24-.25-.22-.27c-2.29-2.8-2.72-4.87-3.84-10.42l-.06-.31a40,40,0,0,1-1.17-8.88,12.06,12.06,0,0,1-.57-2.24,14.35,14.35,0,0,1,7-14.46,17.09,17.09,0,0,1,6.17-2.32,16.11,16.11,0,0,1,14.78,5,13.32,13.32,0,0,1,3.34,8.92c1,2.81,3.19,13.45,2.74,16.87,0,.15,0,.3-.07.44A15.58,15.58,0,0,1,119.48,60,17.57,17.57,0,0,1,112.7,62.64Z"/><path class="cls-1" d="M124.49,61.07a22.39,22.39,0,0,1-3.2.28,13.62,13.62,0,0,1-1.54.33,15.83,15.83,0,0,1-15-5.73l-2.43-3q-1-5.77-2-11.54c-1.91-10.92-2.57-14.6,1.88-19.92l.36-.41a16.68,16.68,0,0,1,9.68-5.22,16.39,16.39,0,0,1,12.58,3.07l.16.12a15.26,15.26,0,0,1,2.74,2.79,20.4,20.4,0,0,1,13.12,11.46,20.79,20.79,0,0,1,1.14,11.38l0,.22a21.06,21.06,0,0,1-17.37,16.19Z"/><path class="cls-1" d="M139.9,58.16a20.54,20.54,0,0,1-4.25.19,22.11,22.11,0,0,1-12.87-5.64c-5.38-5-8-12.52-6.5-19.34a23.29,23.29,0,0,1,9.62-14.1l.28-.18a21.77,21.77,0,0,1,8.64-3.18c.37-.06.75-.1,1.15-.14a18.39,18.39,0,0,1,13.63,3.82,15.87,15.87,0,0,1,6.7,11.3,13.94,13.94,0,0,1,2.58,6.47c.7,5.45-2.35,10.23-3.29,11.57a24.29,24.29,0,0,1-7.2,6.41l-.31.17A25.59,25.59,0,0,1,139.9,58.16Z"/><path class="cls-1" d="M165.52,55a16.64,16.64,0,0,1-6.29-.42,15.9,15.9,0,0,1-9.15-6.68l-.12-.19a15.52,15.52,0,0,1-2.18-6.25A16.37,16.37,0,0,1,146,40.11,14.15,14.15,0,0,1,141,27a15.2,15.2,0,0,1,7.61-10.65,15.84,15.84,0,0,1,4.12-3.86l.15-.1a17,17,0,0,1,15.88-1.06,14.85,14.85,0,0,1,2.61,1.55,14.82,14.82,0,0,1,10.16,7.21,14.19,14.19,0,0,1-1,15.77,16.19,16.19,0,0,1-1.15,1.4c.34,4,0,7.05-2.39,10.7l-.27.4A16.21,16.21,0,0,1,165.52,55Z"/><path class="cls-1" d="M181,53.14a21.23,21.23,0,0,1-6.2-.15,22,22,0,0,1-16.09-13.68A21.38,21.38,0,0,1,163.36,17l.32-.31a21,21,0,0,1,8.29-5,20.4,20.4,0,0,1,4.23-1,22.18,22.18,0,0,1,6.73.34,18.94,18.94,0,0,1,10.43,5.3,21.47,21.47,0,0,1-5.25,34.69A19.4,19.4,0,0,1,181,53.14Z"/><path class="cls-1" d="M207.8,59.52c-.76.07-1.54.1-2.32.1-3.41-.06-8.47-1.14-12.07-4a14.75,14.75,0,0,1-5.58-14,20.21,20.21,0,0,1-3.3-6.2,20.29,20.29,0,0,1,8.52-23.3l.19-.12A21.7,21.7,0,0,1,203,8.68l.75-.06a16.47,16.47,0,0,1,5.48-1.43c.5,0,1-.06,1.55-.06a15.42,15.42,0,0,1,13.67,7.59c.62,1,1.24,2,1.85,3q.3,4.31.59,8.6c.53,7.65.6,10.86.3,13.74a18.51,18.51,0,0,1-2.56,8.22A21.08,21.08,0,0,1,207.8,59.52Z"/><path class="cls-1" d="M224.3,48.74a20.61,20.61,0,0,1-4.25-.09,22.1,22.1,0,0,1-12.44-6.5c-5-5.3-7.12-13-5.18-19.72A23.23,23.23,0,0,1,213,9l.28-.16a21.79,21.79,0,0,1,8.83-2.6c.37,0,.75,0,1.15-.06a18.36,18.36,0,0,1,13.33,4.73,15.87,15.87,0,0,1,5.91,11.72,13.8,13.8,0,0,1,2.14,6.63c.33,5.48-3,10.05-4.05,11.33a24.19,24.19,0,0,1-7.6,5.9l-.32.16A25.59,25.59,0,0,1,224.3,48.74Z"/><path class="cls-1" d="M240,47.89a16.46,16.46,0,0,1-6.24-.79A15.86,15.86,0,0,1,225,39.86l-.09-.16a15.57,15.57,0,0,1-1.81-6.37,17,17,0,0,1-1.73-1.43,14.18,14.18,0,0,1-4.18-13.35,15.18,15.18,0,0,1,8.21-10.17,15.71,15.71,0,0,1,4.33-3.61l.17-.1a17,17,0,0,1,15.88-.11,15.58,15.58,0,0,1,2.51,1.7A14.81,14.81,0,0,1,258,14.07a14.21,14.21,0,0,1-1.91,15.68,15.69,15.69,0,0,1-1.23,1.32c.1,4-.39,7-3,10.54l-.3.39A16.2,16.2,0,0,1,240,47.89Z"/><path class="cls-1" d="M265.27,46.45H265a22.46,22.46,0,0,1-2.34-.15l-.19,0A21.35,21.35,0,0,1,246,35.43c-2.28-4.36-3.61-13.89-2.55-18.62A15.08,15.08,0,0,1,247,9.87l.32-.37.36-.35a15.46,15.46,0,0,1,10.45-4.54,16.73,16.73,0,0,1,5.43.59A16.62,16.62,0,0,1,269.09,4a15.89,15.89,0,0,1,15.26,9.24c2,4.77,1.49,14.34.48,17.74a22,22,0,0,1-9.51,12.47l-.39.22a24.89,24.89,0,0,1-9.18,2.75Z"/><path class="cls-1" d="M287.75,45.75a16.11,16.11,0,0,1-5.27-.73,16.28,16.28,0,0,1-3.15.76,18.66,18.66,0,0,1-1.94.18,15.79,15.79,0,0,1-9.84-3l-.19-.14c-5.67-4.22-6-8.6-6.52-16.57s-.77-12.06,3.3-16.79a16.53,16.53,0,0,1,14.7-5.35l.57.09a22,22,0,0,1,2.7-.25,22.28,22.28,0,0,1,9,1.6,20.36,20.36,0,0,1,10.08,9.07c1.55,3.08,1.6,5,1.76,10.45.22,6.1.35,10.15-2.91,14.4A16.06,16.06,0,0,1,287.75,45.75Z"/><path class="cls-1" d="M299.21,45.49q-.07-6.41-.14-12.82,0,6.42,0,12.82c-5.94.08-7.84.12-10.84-1.08A16,16,0,0,1,282,40c-3.1-3.6-3.37-7-3.6-10l0-.22c-.08-1.34-.23-4.8-.33-7.68-.17-6.05-.24-8.52,1.77-12a16.52,16.52,0,0,1,27.39-.75c.06.09.11.18.17.26a15.12,15.12,0,0,1,2.28,7.53c.19.06.37.13.56.21a14.24,14.24,0,0,1,9.38,13.23A14.55,14.55,0,0,1,310.45,44c-3.13,1.37-4.83,1.38-11.15,1.49Z"/><path class="cls-1" d="M309.79,45.2a16.17,16.17,0,0,1-13.55-7.09l-.19-.29-.17-.29c-1.83-3.13-1.92-5.24-2.17-10.9v-.32a40.78,40.78,0,0,1,.23-8.95,13.46,13.46,0,0,1-.22-2.29,14.37,14.37,0,0,1,9.15-13.2A17,17,0,0,1,309.29.54a16.05,16.05,0,0,1,13.78,7.22A13.33,13.33,0,0,1,325,17.1c.54,2.92,1,13.78.09,17.08l-.14.43a15.57,15.57,0,0,1-8,9A17.32,17.32,0,0,1,309.79,45.2Z"/><path class="cls-1" d="M316.58,45.72a16.74,16.74,0,0,1-4.41-.59l-.16-.05a16,16,0,0,1-9.62-8c-1.49-2.91-1.53-5.34-1.62-10.46-.13-7.76-.12-11.35,1.64-14.9a15.7,15.7,0,0,1,14.22-8.58,16.78,16.78,0,0,1,3.83.42,17.74,17.74,0,0,1,1.82-.09A20.76,20.76,0,0,1,328,4.3a23.7,23.7,0,0,1,3.4-.21c9.36.06,17.14,5.79,18.85,13.8,0,.17.07.35.1.52.12.69.27,1.54.36,7.21s.06,7.68-1.34,10.67a15.17,15.17,0,0,1-8.5,7.93,16.27,16.27,0,0,1-10.34.53,17.15,17.15,0,0,1-4.81.66,17.9,17.9,0,0,1-4.13-.5A16.6,16.6,0,0,1,316.58,45.72Z"/><path class="cls-1" d="M341.43,45.28a16.15,16.15,0,0,1-13.36-7.43l-.19-.29-.16-.3c-1.75-3.17-1.79-5.29-1.9-10.95V26a40,40,0,0,1,.45-8.94,13.54,13.54,0,0,1-.16-2.3,14.37,14.37,0,0,1,9.47-13A16.91,16.91,0,0,1,342.05.62a16,16,0,0,1,13.59,7.56,13.31,13.31,0,0,1,1.67,9.38c.46,2.94.71,13.8-.34,17.09l-.15.42a15.5,15.5,0,0,1-8.27,8.81A17.26,17.26,0,0,1,341.43,45.28Z"/><path class="cls-1" d="M352.73,45.56a16.32,16.32,0,0,1-6.14-1.34,15.92,15.92,0,0,1-8.07-8l-.08-.17a15.72,15.72,0,0,1-1.23-6.51A14.79,14.79,0,0,1,335.62,28a14.15,14.15,0,0,1-3-13.66,15.2,15.2,0,0,1,9.08-9.4,15.93,15.93,0,0,1,4.63-3.22l.18-.08a17,17,0,0,1,15.82,1.31,15,15,0,0,1,2.34,1.92,14.76,14.76,0,0,1,9,8.64,14.19,14.19,0,0,1-3.3,15.44c-.44.44-.88.84-1.33,1.21-.26,4-1,7-3.93,10.23l-.34.36A16.16,16.16,0,0,1,352.73,45.56Z"/><path class="cls-1" d="M367.94,45.74a20.08,20.08,0,0,1-4.21-.57,22.07,22.07,0,0,1-11.61-7.86,20.9,20.9,0,0,1-2.92-20.2A23.27,23.27,0,0,1,361.17,5l.3-.12a21.74,21.74,0,0,1,9-1.59l1.15.07a18.36,18.36,0,0,1,12.7,6.21,15.87,15.87,0,0,1,4.55,12.31,14,14,0,0,1,1.38,6.84c-.3,5.48-4.14,9.64-5.31,10.79a24.29,24.29,0,0,1-8.22,5l-.34.11A25.34,25.34,0,0,1,367.94,45.74Z"/><path class="cls-1" d="M390.43,46.87a16.66,16.66,0,0,1-2.82-.4,25.76,25.76,0,0,1-2.78,0,21.49,21.49,0,0,1-14.68-6.61,19.6,19.6,0,0,1-5.35-9.64,20.37,20.37,0,0,1,1-11.76A21.11,21.11,0,0,1,379.07,6.76,15.83,15.83,0,0,1,393.2,0c8.05.43,14.16,6.06,14.95,13.63.15,1.12.2,2.36-.46,11.39-.72,10.37-.8,11.46-2.86,14.66l-.12.18A16.14,16.14,0,0,1,390.43,46.87Z"/><path class="cls-1" d="M406.92,48.33A16.53,16.53,0,0,1,401,46.82a15.32,15.32,0,0,1-8.07-9h0c-1.43-4.7.13-20.28.71-22l.15-.44A16,16,0,0,1,403.39,6c3.16-1.17,5.42-1.06,10.17-.81l.25,0c1.28.06,2.29.12,3.06.17A17,17,0,0,1,429,10.68l.22.25a13.7,13.7,0,0,1-.35,18.64,14.32,14.32,0,0,1-4.91,7.53l-.35.27c-.19.15-.39.29-.58.42a13.77,13.77,0,0,1-5.81,7.85A16.48,16.48,0,0,1,406.92,48.33Z"/><path class="cls-1" d="M425.14,49.32l-.31,0a22.45,22.45,0,0,1-2.28-.44l-.21,0A21.38,21.38,0,0,1,407.44,36c-1.71-4.61-1.82-14.23-.18-18.78a15.17,15.17,0,0,1,4.38-6.45l.37-.33.39-.29a15.34,15.34,0,0,1,10.94-3.2,17.2,17.2,0,0,1,5.33,1.28,16.48,16.48,0,0,1,5.61-.49,15.9,15.9,0,0,1,14,11.08c1.41,5-.32,14.41-1.75,17.65a21.93,21.93,0,0,1-11,11.19l-.41.17a24.88,24.88,0,0,1-9.45,1.57Z"/><path class="cls-1" d="M442,50.93q.64-6.37,1.3-12.76-.71,6.38-1.42,12.74c-5.81-.58-7.75-.76-10.51-2.22a15.64,15.64,0,0,1-5.85-5.13c-2.7-3.94-2.58-7.33-2.48-10.34a1.48,1.48,0,0,0,0-.21c.08-1.34.31-4.8.54-7.68.51-6,.72-8.47,3.08-11.66A16.55,16.55,0,0,1,454,16l.16.32A15.17,15.17,0,0,1,455.59,24l.54.28A14.23,14.23,0,0,1,464,38.47a14.55,14.55,0,0,1-10.61,12.24c-3.27,1-5,.83-11.26.23Z"/><path class="cls-1" d="M457.34,52.47q.72-6.36,1.45-12.73-.78,6.36-1.58,12.72c-5.79-.65-7.73-.85-10.48-2.35a15.74,15.74,0,0,1-5.79-5.2c-2.65-4-2.5-7.37-2.35-10.37v-.21c.09-1.34.37-4.8.63-7.67.59-6,.82-8.48,3.25-11.66a16.55,16.55,0,0,1,27.3,2.66l.15.32a15.07,15.07,0,0,1,1.32,7.72l.53.29a14.25,14.25,0,0,1,7.68,14.3A14.57,14.57,0,0,1,468.69,52.4c-3.27,1-5,.76-11.26.08Z"/><path class="cls-1" d="M474.16,54.33c-8.05-1-13.74-7.51-12.94-15a13,13,0,0,1,3.12-7.13Q472.41,22,480.71,11.83c3.19-4,8.49-6,14.23-5.22,8.37,1.11,14.07,7.88,13,15.31a12.73,12.73,0,0,1-2.4,5.79l-.25.36q-8.64,10.2-17,20.53A15.06,15.06,0,0,1,474.16,54.33Z"/><path class="cls-1" d="M505.72,60.86a15.31,15.31,0,0,1-3.61-1,15.89,15.89,0,0,1-4.85-3.07,17.62,17.62,0,0,1-10.11-7.27,20.8,20.8,0,0,1-3.06-18.85l.06-.18c1.59-4.75,6.2-10.92,12.64-13.27a24.1,24.1,0,0,1,11.65-1.12c.49.07,1,.15,1.47.25a19.66,19.66,0,0,1,2.16.18A15.56,15.56,0,0,1,525.46,29.4c.38,2.25.14,4.32-.31,7.69-.14,1-.29,2.14-.45,3.33-.19,1.41-.38,2.87-.54,4-.59,4.42-1.12,8.34-4.94,12.11A16.17,16.17,0,0,1,505.72,60.86Z"/><path class="cls-1" d="M516.93,60a18.45,18.45,0,0,1-3.16-.77,21.09,21.09,0,0,1-14.13-18.44,21.49,21.49,0,0,1,12-20.65,20.9,20.9,0,0,1,17.71-.26,19.88,19.88,0,0,1,8.27,6.55,16.7,16.7,0,0,1,3.35,13.16,14.3,14.3,0,0,1-1.89,4.8,15.1,15.1,0,0,1-5.8,11.26A21.26,21.26,0,0,1,516.93,60Z"/><path class="cls-1" d="M531.66,62.42a18.42,18.42,0,0,1-3.15-.81A21.06,21.06,0,0,1,514.59,43a21.48,21.48,0,0,1,12.22-20.5,20.94,20.94,0,0,1,17.71-.05,19.85,19.85,0,0,1,8.2,6.65,16.66,16.66,0,0,1,3.2,13.18A14.19,14.19,0,0,1,554,47.07,15.09,15.09,0,0,1,548,58.26,21.3,21.3,0,0,1,531.66,62.42Z"/><path class="cls-1" d="M546.73,64.93a20.19,20.19,0,0,1-4.1-1.17,22.1,22.1,0,0,1-10.43-9.43c-3.53-6.4-3.61-14.4,0-20.4a23.28,23.28,0,0,1,13.6-10.33l.32-.08a21.77,21.77,0,0,1,9.22-.27c.36.06.74.14,1.13.23a18.46,18.46,0,0,1,11.75,8A15.86,15.86,0,0,1,571,44.27a13.73,13.73,0,0,1,.4,7c-1.06,5.38-5.48,9-6.8,9.93l-.14.1A24.35,24.35,0,0,1,555.68,65l-.35.06A25.62,25.62,0,0,1,546.73,64.93Z"/><path class="cls-1" d="M562,68.32a21.24,21.24,0,0,1-5.23-1.68,20.69,20.69,0,0,1-9.18-8.4l-.22-.42a16.48,16.48,0,0,1-1.53-11.62,15.63,15.63,0,0,1,1.35-3.48,16.06,16.06,0,0,1,3.43-9.53,19.56,19.56,0,0,1,7.39-5.6A23.09,23.09,0,0,1,568.58,26a22.51,22.51,0,0,1,15.35,7.69c3.4,4.17,4.69,8.91,3.74,13.41A13.82,13.82,0,0,1,586,51.28a16.58,16.58,0,0,1-3.31,9.91c-4.33,5.83-12.52,8.71-20.43,7.18Z"/><path class="cls-1" d="M576.84,71.27a21.51,21.51,0,0,1-5.22-1.76,20.58,20.58,0,0,1-9.08-8.5c-.08-.14-.15-.28-.22-.42A16.54,16.54,0,0,1,560.92,49a15.13,15.13,0,0,1,1.41-3.46A16,16,0,0,1,565.86,36a19.64,19.64,0,0,1,7.47-5.52A23.13,23.13,0,0,1,583.9,29a25.9,25.9,0,0,1,2.58.38,22.31,22.31,0,0,1,12.68,7.5c3.36,4.21,4.59,9,3.59,13.45A13.65,13.65,0,0,1,601,54.52a16.52,16.52,0,0,1-3.41,9.86c-4.42,5.79-12.64,8.56-20.53,6.94Z"/><path class="cls-1" d="M601.66,76.35a16.67,16.67,0,0,1-5.8-2.54,15.92,15.92,0,0,1-6.38-9.43l-.05-.22a15.58,15.58,0,0,1,.08-6.58,16.14,16.14,0,0,1-1.25-1.85,14.13,14.13,0,0,1-.25-14,15.21,15.21,0,0,1,10.79-7.41,16,16,0,0,1,5.2-2.24l.19,0a17.15,17.15,0,0,1,15.34,4.41,15,15,0,0,1,1.94,2.35A14.84,14.84,0,0,1,628.63,49a14.18,14.18,0,0,1-6.3,14.55,15.62,15.62,0,0,1-1.55.91c-1,3.88-2.37,6.64-5.88,9.25l-.42.3A16.36,16.36,0,0,1,601.66,76.35Z"/><path class="cls-1" d="M616.91,79.91a21.55,21.55,0,0,1-5.81-2.26A22,22,0,0,1,600.56,59.3a21.36,21.36,0,0,1,12-19.39l.4-.18a21.17,21.17,0,0,1,9.54-1.87,20.81,20.81,0,0,1,4.32.55A22.71,22.71,0,0,1,633,41a19,19,0,0,1,8.07,8.53,21.2,21.2,0,0,1-2.61,23.15,21.49,21.49,0,0,1-14.17,7.69A19.89,19.89,0,0,1,616.91,79.91Z"/><path class="cls-1" d="M185.88,92.83a14.22,14.22,0,0,1-3.63,0A15.25,15.25,0,0,1,176.94,91a17,17,0,0,1-11.28-4.5,21.23,21.23,0,0,1-7.61-17.48v-.18c.3-5,3.09-12.12,8.54-16a22.91,22.91,0,0,1,10.64-4c.49-.05,1-.09,1.45-.11a16,16,0,0,1,2.07-.38,15.15,15.15,0,0,1,15.77,9.09c.91,2.09,1.2,4.15,1.62,7.51.12,1,.26,2.07.4,3.23.18,1.45.37,2.95.5,4.1.56,4.44,1,8.37-1.62,13A15.47,15.47,0,0,1,185.88,92.83Z"/><path class="cls-1" d="M196.93,89.4q-.62-6.39-1.22-12.76.54,6.38,1.1,12.77c-5.74.55-7.58.75-10.59-.21a15.46,15.46,0,0,1-6.42-3.88c-3.31-3.33-3.86-6.68-4.34-9.64l0-.21c-.19-1.33-.64-4.77-1-7.63-.67-6-.95-8.48.7-12.08a15.83,15.83,0,0,1,26.49-3l.18.24a15.29,15.29,0,0,1,2.84,7.31l.56.17a14.22,14.22,0,0,1,10.2,12.42A14.56,14.56,0,0,1,207.68,87c-2.91,1.62-4.55,1.76-10.66,2.39Z"/><path class="cls-1" d="M211.81,88q-.52-6.39-1.06-12.78.47,6.41.94,12.79c-5.64.48-7.53.65-10.43-.29a15.29,15.29,0,0,1-6.49-4C191.47,80.32,191,77,190.52,74l0-.21c-.17-1.33-.58-4.78-.88-7.65-.6-6-.85-8.46.82-12a15.82,15.82,0,0,1,26.51-2.71l.23.31A15.41,15.41,0,0,1,219.9,59l.57.18a14.24,14.24,0,0,1,10,12.54,14.55,14.55,0,0,1-7.91,14C219.67,87.27,218,87.4,211.9,88Z"/><path class="cls-1" d="M235.05,85.83a17.53,17.53,0,0,1-3.16,0,20.73,20.73,0,0,1-17.36-14.85,21.82,21.82,0,0,1,6.77-22.79,19.86,19.86,0,0,1,11.27-4.53A19.59,19.59,0,0,1,238,44a19.12,19.12,0,0,1,9.23,4.56,16.88,16.88,0,0,1,6,12.08,14.76,14.76,0,0,1-.73,5.1,15.47,15.47,0,0,1-3,12.27A20.29,20.29,0,0,1,235.05,85.83Z"/><path class="cls-1" d="M250.15,85a20.27,20.27,0,0,1-6-.49A21.79,21.79,0,0,1,234.85,48l.32-.3a20.15,20.15,0,0,1,8.29-4.52,19.26,19.26,0,0,1,4.14-.72,21.1,21.1,0,0,1,6.51.71A18.34,18.34,0,0,1,264,49,21.81,21.81,0,0,1,268,71.93a21,21,0,0,1-10.9,11.44A18.38,18.38,0,0,1,250.15,85Z"/><path class="cls-1" d="M271.65,84a15.26,15.26,0,0,1-5.12-.67,14.71,14.71,0,0,1-3,.8,15.51,15.51,0,0,1-1.87.21,15,15,0,0,1-9.6-2.88l-.19-.13c-5.56-4.15-5.93-8.53-6.58-16.49s-.94-12,2.95-16.83a15.59,15.59,0,0,1,11.31-5.66,17.31,17.31,0,0,1,2.88.12l.56.09a20.82,20.82,0,0,1,2.61-.28,21.25,21.25,0,0,1,8.78,1.48,20,20,0,0,1,9.92,8.95c1.54,3.05,1.62,4.93,1.85,10.42.3,6.09.49,10.13-2.61,14.43A15.41,15.41,0,0,1,271.65,84Z"/><path class="cls-1" d="M282.37,83.54a15.49,15.49,0,0,1-6-1A15.66,15.66,0,0,1,268.08,75l-.08-.17a15.79,15.79,0,0,1-1.56-6.42,16,16,0,0,1-1.64-1.49,14.5,14.5,0,0,1-3.65-13.48,15,15,0,0,1,8.27-9.89,15.39,15.39,0,0,1,4.31-3.46l.17-.09a16,16,0,0,1,15.42.42,14.82,14.82,0,0,1,2.38,1.79,14.71,14.71,0,0,1,6.84,23.72,16.77,16.77,0,0,1-1.23,1.28c0,4-.6,7-3.24,10.43l-.3.39A15.49,15.49,0,0,1,282.37,83.54Z"/><path class="cls-1" d="M297.11,82.88a18.85,18.85,0,0,1-4.11-.35,21.37,21.37,0,0,1-15.64-27.2,23,23,0,0,1,10.92-12.78l.29-.15a20.62,20.62,0,0,1,8.69-2.08h1.12A17.58,17.58,0,0,1,311,45.8a16.12,16.12,0,0,1,5.09,12.05,14.23,14.23,0,0,1,1.71,6.74c0,5.49-3.48,9.86-4.55,11.07l-.11.13a23.29,23.29,0,0,1-7.57,5.34l-.32.13A24.15,24.15,0,0,1,297.11,82.88Z"/><path class="cls-1" d="M318.79,83a15.06,15.06,0,0,1-5.08-.86,15.52,15.52,0,0,1-14.44-2.43l-.18-.14c-5.4-4.36-5.6-8.75-5.94-16.73s-.48-12.07,3.58-16.7a15.64,15.64,0,0,1,11.53-5.22,16.26,16.26,0,0,1,2.87.23l.55.11A23.06,23.06,0,0,1,314.3,41,21,21,0,0,1,323,42.86a20,20,0,0,1,9.57,9.31c1.42,3.11,1.43,5,1.46,10.49.06,6.1.09,10.15-3.17,14.32A15.4,15.4,0,0,1,318.79,83Z"/><path class="cls-1" d="M329.52,82.91a15.37,15.37,0,0,1-13.95-9.07l-.08-.18a16.12,16.12,0,0,1-1.31-6.48,16.32,16.32,0,0,1-1.57-1.55A14.48,14.48,0,0,1,309.48,52a15,15,0,0,1,8.64-9.56,15.45,15.45,0,0,1,4.44-3.3l.17-.08a16.12,16.12,0,0,1,15.39,1,14.86,14.86,0,0,1,2.3,1.88,14.71,14.71,0,0,1,5.93,24,14.69,14.69,0,0,1-1.28,1.23c-.18,4-.86,7-3.63,10.3l-.32.37A15.49,15.49,0,0,1,329.52,82.91Z"/><path class="cls-1" d="M358.59,85.73a14.78,14.78,0,0,1-3.58-.56,15.41,15.41,0,0,1-5-2.48,17,17,0,0,1-10.51-6,21.25,21.25,0,0,1-5.06-18.39l0-.16c1-4.9,4.75-11.57,10.69-14.66A22.8,22.8,0,0,1,356.22,41c.49,0,1,0,1.45.09a16.25,16.25,0,0,1,2.1-.08,15.12,15.12,0,0,1,14.31,11.2c.61,2.2.61,4.29.56,7.68,0,.95,0,2.08-.06,3.25,0,1.46-.05,3-.09,4.13-.07,4.48-.15,8.44-3.43,12.64A15.43,15.43,0,0,1,358.59,85.73Z"/><path class="cls-1" d="M375.38,84.09a15,15,0,0,1-5-1.09,15.24,15.24,0,0,1-3.1.54A15.23,15.23,0,0,1,356,79.89l-.16-.13c-5.19-4.6-5.2-9-5.17-17s.08-12.08,4.35-16.51a15.64,15.64,0,0,1,11.76-4.69,17.09,17.09,0,0,1,2.85.36l.55.14a23.15,23.15,0,0,1,2.63-.06,21.13,21.13,0,0,1,8.62,2.22A20,20,0,0,1,390.59,54c1.27,3.16,1.19,5,1,10.52-.21,6.08-.37,10.13-3.81,14.14A15.35,15.35,0,0,1,375.38,84.09Z"/><path class="cls-1" d="M392.07,84.7a15.74,15.74,0,0,1-2.74-.4,22.11,22.11,0,0,1-2.7,0,20.51,20.51,0,0,1-14.21-6.62,19.75,19.75,0,0,1-5.15-9.63,21.08,21.08,0,0,1,1-11.78,20.78,20.78,0,0,1,12.92-11.71A15.29,15.29,0,0,1,395,37.87a15,15,0,0,1,14.46,13.65c.13,1.12.18,2.37-.5,11.38-.76,10.36-.84,11.44-2.84,14.63l-.14.22A15.57,15.57,0,0,1,392.07,84.7Z"/><path class="cls-1" d="M412.33,86.17a15.46,15.46,0,0,1-5.89-1.63A15.64,15.64,0,0,1,399,76.21l-.09-.24a16,16,0,0,1-.85-6.52,14.67,14.67,0,0,1-1.46-1.64A14.48,14.48,0,0,1,394.4,54a15,15,0,0,1,9.27-9,15.45,15.45,0,0,1,4.65-3l.17-.07a16.11,16.11,0,0,1,15.29,2,14.52,14.52,0,0,1,2.19,2,14.71,14.71,0,0,1,4.3,24.32,17,17,0,0,1-1.35,1.14c-.45,4-1.34,6.93-4.34,10l-.34.34A15.47,15.47,0,0,1,412.33,86.17Z"/><path class="cls-1" d="M427.39,87.38A20,20,0,0,1,421.53,86a21.78,21.78,0,0,1-3.95-37.51l.36-.24A20.05,20.05,0,0,1,426.79,45a19.29,19.29,0,0,1,4.2-.11,20.9,20.9,0,0,1,6.34,1.64,18.34,18.34,0,0,1,8.91,7.21A21.82,21.82,0,0,1,447,77a21.06,21.06,0,0,1-12.45,9.75A18.56,18.56,0,0,1,427.39,87.38Z"/><path class="cls-1" d="M443.42,88.86a19.85,19.85,0,0,1-5.85-1.43,21.78,21.78,0,0,1-3.46-37.56l.36-.23a20.08,20.08,0,0,1,8.91-3.18,19.13,19.13,0,0,1,4.2-.05,20.92,20.92,0,0,1,6.32,1.72,18.44,18.44,0,0,1,8.81,7.32,21.83,21.83,0,0,1,.44,23.28,21.05,21.05,0,0,1-12.57,9.59A18.58,18.58,0,0,1,443.42,88.86Z"/><path class="cls-1" d="M459.46,90.62q.77-6.37,1.52-12.73-.83,6.36-1.64,12.71c-5.62-.66-7.5-.87-10.16-2.36A15.31,15.31,0,0,1,443.61,83c-2.54-4-2.37-7.37-2.2-10.37v-.21c.1-1.34.39-4.8.67-7.67.62-6,.86-8.45,3.22-11.61a15.82,15.82,0,0,1,26.52,2.68l.15.31a15.46,15.46,0,0,1,1.22,7.73l.52.29A14.21,14.21,0,0,1,481,78.47a14.55,14.55,0,0,1-10.55,12.09c-3.2,1-4.83.76-10.94.07Z"/><path class="cls-1" d="M473.15,92.42A20,20,0,0,1,468,91.1a19.78,19.78,0,0,1-9.38-7.72l-.24-.39a16.86,16.86,0,0,1-2.2-11.48,15.3,15.3,0,0,1,1.1-3.57A16.45,16.45,0,0,1,460,58.2a19.18,19.18,0,0,1,6.81-6.11,22,22,0,0,1,10.09-2.39,21.48,21.48,0,0,1,2.52.17,21.1,21.1,0,0,1,12.79,6.41c3.55,3.92,5.08,8.54,4.44,13.09a13.94,13.94,0,0,1-1.35,4.35,17.06,17.06,0,0,1-2.59,10.11c-3.83,6.13-11.57,9.58-19.3,8.62Z"/><path class="cls-2" d="M186,35.06a8.07,8.07,0,0,1-4,4.71,5.92,5.92,0,0,1-2.36.64,7.66,7.66,0,0,1-2,0,8.58,8.58,0,0,1-6.09-5.52,9.21,9.21,0,0,1,1.84-9.23,7.2,7.2,0,0,1,3.06-1.87,6.23,6.23,0,0,1,3.7-.1,5.65,5.65,0,0,1,3.49,1.8A9,9,0,0,1,186,35.06Zm-5.24-5.72a8.49,8.49,0,0,0-1-.52,1.64,1.64,0,0,0-1.26-.17,3.22,3.22,0,0,0-1.76,4.91,2.73,2.73,0,0,0,4.15.6,3.8,3.8,0,0,0,.75-1.12A3.72,3.72,0,0,0,180.71,29.34Z"/><path class="cls-2" d="M24.22,67.85c-1.47.42-6.14-.61-6.84-1.08a2.13,2.13,0,0,1,.6-3.61c.54-.17,3,.54,3.6.68A2.85,2.85,0,0,0,25,61.43a1.61,1.61,0,0,0-.82-1.68,6.78,6.78,0,0,0-1.66-.63c-1-.22-2-.29-3-.47-2.43-.48-4.37-1.62-5.3-3.88a7.09,7.09,0,0,1,3.51-9,8.08,8.08,0,0,1,5.94-.06c1,.38,2.76,2.61,1,4.14a1.71,1.71,0,0,1-2.22,0,2.37,2.37,0,0,0-2.83-.1,2.24,2.24,0,0,0-1,2.34c.11,1.3.61,1.8,2,2,1.05.17,2.14.26,3.19.46a7.19,7.19,0,0,1,5.25,3.44C31.17,62,28.74,66.77,24.22,67.85Z"/><path class="cls-2" d="M45.72,56.75a9,9,0,0,1-2.62,5.54,12.26,12.26,0,0,1-2.92,1.59c-.16,0-.63.07-1.06.11a7.71,7.71,0,0,1-6.58-2.78c-1.18-1.53-3.18-7.9-3.08-9.83a2.88,2.88,0,0,1,.44-1.52A1.56,1.56,0,0,1,31,49.05a1.83,1.83,0,0,1,2,.63,7.07,7.07,0,0,1,1,2.67c.92,3.14,1.81,5.51,2.29,6a3.22,3.22,0,0,0,3.72.26,3.12,3.12,0,0,0,1.28-1.93c.14-.61.09-1-.6-4.38-.79-4-.82-4.26-.17-5.08a2.11,2.11,0,0,1,3.37.29C44.73,48.64,45.91,55,45.72,56.75Z"/><path class="cls-2" d="M62.57,54.4A7.8,7.8,0,0,1,58.51,60a8.41,8.41,0,0,1-4.15.75c-1-.08-1-.08-1.41.24a2.23,2.23,0,0,1-3.16-.31l-.5-.57q-.91-4.17-1.82-8.34c-2-9.15-2-9-1.29-9.85a2.2,2.2,0,0,1,3-.45c.78.54.93,1,1.4,3.62.42,2.28.44,2.35.65,2.24a8.76,8.76,0,0,1,4.23-1.26,7.51,7.51,0,0,1,6.48,4.11A8.76,8.76,0,0,1,62.57,54.4ZM57.7,52.78c-.56-2.51-3.2-3.17-4.68-1.15a2.13,2.13,0,0,0-.36,2.16,2.59,2.59,0,0,0,1.39,2.05,1.82,1.82,0,0,0,1.82.22,1.84,1.84,0,0,0,1.18-.7A2.74,2.74,0,0,0,57.7,52.78Z"/><path class="cls-2" d="M76.1,48.64a4.64,4.64,0,0,1,1.24,4.24C76.8,55,74.48,57,71.68,57.49a8.46,8.46,0,0,1-2,.2,7.06,7.06,0,0,1-4-1.39,4.23,4.23,0,0,1-1.54-2.57,1.73,1.73,0,0,1,.74-1.85,2.22,2.22,0,0,1,3.35.73c.36,1,1.46,1.37,2.8,1.1,1.83-.37,2.66-1.84,1.46-2.6a4.53,4.53,0,0,0-2.74-.41c-4.28.18-7.27-2.56-6.34-5.84a7,7,0,0,1,1.47-2.38,9.05,9.05,0,0,1,3.31-1.95,8.11,8.11,0,0,1,6,.38c1.91,1,2.64,2.56,1.73,3.67a2.43,2.43,0,0,1-3.68,0,3.31,3.31,0,0,0-.95-.64,3.4,3.4,0,0,0-3.27.91,1.09,1.09,0,0,0-.38,1,.87.87,0,0,0,.56.92,3.1,3.1,0,0,0,2.27.25,7,7,0,0,1,2.68.11A6.71,6.71,0,0,1,76.1,48.64Z"/><path class="cls-2" d="M83.82,44.6a4.72,4.72,0,0,0,.54,3.19,2.11,2.11,0,0,0,2.23.89A2.14,2.14,0,0,0,88,48a2.29,2.29,0,0,1,3.34-.26,2.45,2.45,0,0,1,.22,3.21A7.16,7.16,0,0,1,86,54.19a7.65,7.65,0,0,1-7-4.94,9.16,9.16,0,0,1,1.72-9.67,6.48,6.48,0,0,1,5.22-2,6.3,6.3,0,0,1,3.39,1.13c2.06,1.38,2.79,3.2,1.77,4.5-.82,1-1.8,1.06-3.35.07-1.28-.85-1.57-.92-2.3-.66A3,3,0,0,0,83.82,44.6Z"/><path class="cls-2" d="M104.55,38.19a2.1,2.1,0,0,1-1.42,1.58c-.45.15-.76.1-1.62-.16a3.76,3.76,0,0,0-1.3-.22,4.84,4.84,0,0,1-.54.22,3.29,3.29,0,0,0-1.31,1.6c-.11.34,0,1.24.63,4.71.84,4.76.82,5.08.06,5.89a2.51,2.51,0,0,1-2.19.58,2,2,0,0,1-1.37-1.06c-.3-.55-.45-1.2-1.53-7.16-.39-2.19-.78-4.37-1.18-6.56l.21-.74a2.48,2.48,0,0,1,.66-1.07,2.18,2.18,0,0,1,3,.26c.13.17.29.11,1.07-.31C100.9,33.94,105.25,35.49,104.55,38.19Z"/><path class="cls-2" d="M112.71,48.06a2.45,2.45,0,0,1-.9,1.49A3.35,3.35,0,0,1,110,50a2.34,2.34,0,0,1-1.54-.76c-.34-.42-.39-.7-1.28-5.36-1-5.19-1.07-6.1-.66-6.71,1-1.51,3.42-1.47,4.12.08C110.92,38,112.78,47.48,112.71,48.06Zm-6.25-16.47c1.64-1,3.74.14,3.11,1.71a2.36,2.36,0,0,1-2.66,1.18A1.52,1.52,0,0,1,106.46,31.59Z"/><path class="cls-2" d="M128.6,42.54a7.76,7.76,0,0,1-4.34,5.37,8.35,8.35,0,0,1-4.17.54c-1-.13-1-.13-1.42.16a2.22,2.22,0,0,1-3.13-.47c-.16-.2-.31-.4-.47-.59l-1.38-8.44c-1.52-9.24-1.49-9-.78-9.9a2.2,2.2,0,0,1,3-.29c.74.58.88,1,1.21,3.69.3,2.3.31,2.36.53,2.26a8.68,8.68,0,0,1,4.28-1,7.47,7.47,0,0,1,6.24,4.43A8.91,8.91,0,0,1,128.6,42.54Zm-4.76-1.87c-.43-2.54-3-3.34-4.61-1.4a2.1,2.1,0,0,0-.47,2.14A2.6,2.6,0,0,0,120,43.53a1.81,1.81,0,0,0,1.8.31,1.87,1.87,0,0,0,1.21-.63A2.76,2.76,0,0,0,123.84,40.67Z"/><path class="cls-2" d="M145.44,39.16a5.45,5.45,0,0,1-1,2.74,10.74,10.74,0,0,1-2.77,2.43,10.74,10.74,0,0,1-4.91,1.22,8.54,8.54,0,0,1-4.43-2.08,8.72,8.72,0,0,1-2.68-7.7,10.66,10.66,0,0,1,4-6,7.47,7.47,0,0,1,3.55-1.22,4.6,4.6,0,0,1,3.71,1.09,3.82,3.82,0,0,1,1.94,3.15,3.18,3.18,0,0,1-.19,2.28c-.23.54-.57,1.22-.73,1.5A9.79,9.79,0,0,1,138.93,39a5.45,5.45,0,0,1-2.41.73L135,40l.28.27a3.18,3.18,0,0,0,2.54,1.09,4.77,4.77,0,0,0,3.59-2.42,2.4,2.4,0,0,1,1.82-1.37A2,2,0,0,1,145.44,39.16Zm-10.06-3.74c.46.16,1,0,1.75-.47.56-.34,1.13-1.09,1.09-1.37a1.1,1.1,0,0,0-.33-.42c-.64-.45-1.86,0-2.68,1.11C134.7,35,134.74,35.2,135.38,35.42Z"/><path class="cls-2" d="M169.42,28.68c-.55.76-1,.94-2.92,1.18l-1.69.2.66,4.89c.72,5.26.71,5.48.15,6.34a2.51,2.51,0,0,1-2.62.9A2.56,2.56,0,0,1,161.58,41c-.25-.41-.39-1.22-1-5.35-.23-1.62-.45-3.24-.68-4.86l-1.67.15c-1.89.18-2.48.07-3.12-.48-1.15-1-.76-2.66.74-3.33a8.81,8.81,0,0,1,1.61-.4,9,9,0,0,0,1.42-.27c.49-.13.48-.16.42-.69a2.84,2.84,0,0,1,1.13-2.8,2.5,2.5,0,0,1,2-.13,3.19,3.19,0,0,1,1.47,2.1l.16.71,1.76-.22c2.33-.28,3-.08,3.7,1A1.9,1.9,0,0,1,169.42,28.68Z"/><path class="cls-2" d="M212.92,21.71q.21,2.84.44,5.67c.54,6.73.65,9.59.46,11.6a6.5,6.5,0,0,1-1.06,3.52,7.52,7.52,0,0,1-7.07,4.3,8,8,0,0,1-3.7-1.08,2.19,2.19,0,0,1-.54-3,2.28,2.28,0,0,1,2.83-.81,4.92,4.92,0,0,0,1.51.21,2.4,2.4,0,0,0,1.58-.43,3.8,3.8,0,0,0,1.57-2.1,9.23,9.23,0,0,0,.08-2c0-.54-.05-1.07-.08-1.61l-1,.44a7.78,7.78,0,0,1-10.42-4.86,9.09,9.09,0,0,1-.13-4.12,7.91,7.91,0,0,1,3.33-4.8,7.41,7.41,0,0,1,3.49-1.18,6.88,6.88,0,0,1,3.44.48,2.11,2.11,0,0,0,.75.22,5.14,5.14,0,0,0,.37-.82,1.82,1.82,0,0,1,1.9-1.37,1.92,1.92,0,0,1,1.88,1.13Zm-8,4.4a3,3,0,0,0-2.65,3.18,2.92,2.92,0,0,0,4.37,2.18,3.38,3.38,0,0,0,1.16-1.58A3,3,0,0,0,204.92,26.11Z"/><path class="cls-2" d="M231.08,30.16a5.47,5.47,0,0,1-1.2,2.67A11.18,11.18,0,0,1,227,35.06a10.56,10.56,0,0,1-5,.88,8.53,8.53,0,0,1-4.27-2.36,8.69,8.69,0,0,1-2.15-7.86A10.57,10.57,0,0,1,219.92,20a7.33,7.33,0,0,1,3.62-1,4.51,4.51,0,0,1,3.62,1.33,3.82,3.82,0,0,1,1.72,3.28,3.18,3.18,0,0,1-.34,2.26,15,15,0,0,1-.83,1.44,9.74,9.74,0,0,1-3.1,2.25,5.38,5.38,0,0,1-2.45.57l-1.52.12.25.3a3.22,3.22,0,0,0,2.46,1.25,4.77,4.77,0,0,0,3.73-2.17A2.37,2.37,0,0,1,229,28.39,2,2,0,0,1,231.08,30.16Zm-9.77-4.41c.45.19,1,.09,1.78-.35.58-.3,1.19-1,1.17-1.29a1,1,0,0,0-.3-.45c-.61-.49-1.85-.08-2.74.94C220.67,25.24,220.69,25.49,221.31,25.75Z"/><path class="cls-2" d="M245.45,21.88c-.6.73-1,.88-3,1l-1.69.11c.12,1.64.25,3.28.37,4.91.41,5.3.39,5.52-.22,6.35a2.53,2.53,0,0,1-2.67.74,2.58,2.58,0,0,1-1.34-1.24c-.23-.42-.32-1.24-.66-5.4-.14-1.63-.27-3.26-.4-4.88l-1.67.05c-1.9.06-2.48-.08-3.09-.67-1.08-1.06-.59-2.7.94-3.28a8.45,8.45,0,0,1,1.63-.3,10.42,10.42,0,0,0,1.43-.19c.49-.1.49-.13.45-.66a2.82,2.82,0,0,1,1.3-2.73,2.49,2.49,0,0,1,2,0,3.24,3.24,0,0,1,1.35,2.18c0,.24.07.48.11.72l1.77-.12c2.34-.14,3,.1,3.63,1.26A1.94,1.94,0,0,1,245.45,21.88Z"/><path class="cls-2" d="M271.81,27.59a9,9,0,0,1-3.54,5,11.77,11.77,0,0,1-3.14,1,9.19,9.19,0,0,1-1.06-.08,7.69,7.69,0,0,1-5.95-3.89c-.88-1.72-1.72-8.35-1.28-10.23a2.77,2.77,0,0,1,.7-1.41,1.49,1.49,0,0,1,1.24-.6,1.82,1.82,0,0,1,1.86,1,7.35,7.35,0,0,1,.53,2.8c.35,3.26.81,5.75,1.2,6.3a3.16,3.16,0,0,0,3.59.91,3.12,3.12,0,0,0,1.59-1.68c.24-.57.26-.92.18-4.41-.07-4-.05-4.33.72-5a2.1,2.1,0,0,1,3.25.88C272.25,19.42,272.3,25.87,271.81,27.59Z"/><path class="cls-2" d="M289.14,32a2.16,2.16,0,0,1-2.79.71,2.13,2.13,0,0,1-.88-.86l-.35-.55c0-1.54-.07-3.08-.1-4.62-.15-5.15-.11-5-1.16-5.47a4.14,4.14,0,0,0-2.67,0,4.09,4.09,0,0,0-1.94,1.89l-.27.67c.06,1.23.12,2.47.19,3.7.22,3.7.22,3.77-.05,4.34a2.08,2.08,0,0,1-1.71,1.29,2,2,0,0,1-1.74-.38c-.92-.69-.92-.72-1.3-7.31s-.33-7.09.38-7.9a2.23,2.23,0,0,1,1.95-.73,2.93,2.93,0,0,1,1.54,1c0,.16.17.12.6-.08a8.13,8.13,0,0,1,6.78-.43,7.92,7.92,0,0,1,3.25,2.83c.35.69.35.81.54,5.46C289.63,30.49,289.59,31.41,289.14,32Z"/><path class="cls-2" d="M306.11,30.74a1.65,1.65,0,0,1-1.2,1.59c-.59.26-.69.25-5.84.34-4.93.07-5.22.08-5.72-.13a2.23,2.23,0,0,1-.91-.64c-.37-.43-.41-.49-.56-2.78-.07-1.29-.18-4.62-.25-7.38-.07-4.65-.05-5.06.18-5.44a2,2,0,0,1,1.88-1,1.91,1.91,0,0,1,1.93.94c.41.65.55,2.09.84,8.59.07,1.48.13,3,.19,4.46l.56-.08c.3,0,2.05-.1,3.84-.16,3.15-.08,3.35,0,3.88.16A1.6,1.6,0,0,1,306.11,30.74Z"/><path class="cls-2" d="M312.06,30.81a2.35,2.35,0,0,1-1.12,1.32,3.24,3.24,0,0,1-1.88.18,2.31,2.31,0,0,1-1.4-1c-.27-.47-.27-.75-.42-5.49-.17-5.28-.11-6.19.38-6.73,1.22-1.33,3.6-.92,4.05.71C311.87,20.53,312.22,30.24,312.06,30.81Zm-3.6-17.25c1.77-.74,3.67.72,2.8,2.17a2.34,2.34,0,0,1-2.8.75A1.52,1.52,0,0,1,308.46,13.56Z"/><path class="cls-2" d="M337.05,31.13a2,2,0,0,1-1.3,1.24,2.11,2.11,0,0,1-2.73-1c-.3-.53-.29-.79-.26-5.15,0-1.53,0-3.06,0-4.59l-.37-.25c-.26-.23-.56-.29-1.26-.3a3.56,3.56,0,0,0-2.74,1.09l-.4.47c0,1.36,0,2.72,0,4.08,0,4,0,4.15-.26,4.71a2,2,0,0,1-2,1.16,1.91,1.91,0,0,1-1.85-.85c-.43-.54-.5-1.51-.43-5.78.1-3.74.07-4.21-.13-4.65-.4-.85-1.16-1-2.3-.44-.76.34-2,1.51-2,1.95,0,.13-.06,2.07-.12,4.3-.06,3.62-.09,4.09-.32,4.56a2.49,2.49,0,0,1-2.74,1.14,2.62,2.62,0,0,1-1.39-1.28c-.17-.31-.21-1.38-.23-5.09,0-6.31.08-8.54.47-9.33a2.18,2.18,0,0,1,3.71-.27c.27.38.31.38.61.22a12.75,12.75,0,0,1,2.67-.76,6.13,6.13,0,0,1,4.38,1.39l.46.47.94-.43a7.94,7.94,0,0,1,3.78-.83c2.88,0,5.13,1.46,5.61,3.57.06.34.17,2.73.24,5.37C337.26,30.16,337.26,30.69,337.05,31.13Z"/><path class="cls-2" d="M344.06,30.94a2.46,2.46,0,0,1-1.15,1.31,3.21,3.21,0,0,1-1.88.12,2.28,2.28,0,0,1-1.38-1c-.25-.48-.25-.76-.29-5.5,0-5.28.05-6.19.56-6.72,1.25-1.3,3.62-.83,4,.82C344.13,20.67,344.23,30.38,344.06,30.94Zm-3.17-17.32c1.79-.7,3.65.81,2.75,2.24a2.34,2.34,0,0,1-2.82.68A1.52,1.52,0,0,1,340.89,13.62Z"/><path class="cls-2" d="M360.45,20.14c-.65.67-1.09.78-3.05.73l-1.7-.05c0,1.65,0,3.29-.07,4.94-.07,5.3-.11,5.52-.78,6.29a2.38,2.38,0,0,1-4-.85c-.19-.44-.21-1.26-.18-5.44,0-1.63,0-3.26,0-4.9l-1.67-.1c-1.89-.1-2.46-.3-3-.93-1-1.15-.36-2.74,1.23-3.19a9.16,9.16,0,0,1,1.64-.15,8.63,8.63,0,0,0,1.44-.07c.5-.05.5-.08.51-.61a2.84,2.84,0,0,1,1.54-2.61,2.52,2.52,0,0,1,2,.17,3.21,3.21,0,0,1,1.14,2.3c0,.24,0,.48.05.72l1.78.05c2.34.06,3,.36,3.5,1.57A1.91,1.91,0,0,1,360.45,20.14Z"/><path class="cls-2" d="M376.78,28.05a5.53,5.53,0,0,1-1.5,2.51,11,11,0,0,1-3.16,1.89,10.77,10.77,0,0,1-5,.32,8.52,8.52,0,0,1-4-2.84,8.7,8.7,0,0,1-1.25-8,10.61,10.61,0,0,1,5-5.22,7.47,7.47,0,0,1,3.7-.56A4.53,4.53,0,0,1,374,17.84a3.82,3.82,0,0,1,1.34,3.45,3.23,3.23,0,0,1-.59,2.21c-.33.49-.78,1.1-1,1.34a9.9,9.9,0,0,1-3.33,1.88,5.36,5.36,0,0,1-2.5.29L366.39,27l.22.32a3.24,3.24,0,0,0,2.3,1.53,4.79,4.79,0,0,0,3.95-1.74,2.39,2.39,0,0,1,2-1A2,2,0,0,1,376.78,28.05Zm-9.21-5.48a2.07,2.07,0,0,0,1.81-.16c.61-.23,1.3-.86,1.31-1.15a1.16,1.16,0,0,0-.25-.48c-.55-.55-1.83-.28-2.83.62C367,22,367,22.23,367.57,22.57Z"/><path class="cls-2" d="M394.13,24.15c-.49,8.34-.49,8.34-.82,8.85a2.48,2.48,0,0,1-2.8,1,3.13,3.13,0,0,1-.8-.54l-.37-.4-.55.22a8.94,8.94,0,0,1-3.33.47A7.65,7.65,0,0,1,380,31.21a6.8,6.8,0,0,1-2-3.61,8.39,8.39,0,0,1,.42-4.26,8.07,8.07,0,0,1,5.34-4.51,8.56,8.56,0,0,1,5.79.76c.19.11.24-.14.43-2.46s.24-2.66.5-3.19a2,2,0,0,1,2-1.12,2.06,2.06,0,0,1,2,2.16C394.62,15.49,394.45,19,394.13,24.15Zm-4.87,2.06a2.85,2.85,0,0,0-1.17-2.48,2.35,2.35,0,0,0-1.34-.67,3.55,3.55,0,0,0-2.67.72,2.81,2.81,0,0,0-.37,4.26,3.76,3.76,0,0,0,2.21,1.09,4.9,4.9,0,0,0,.83-.09A3,3,0,0,0,389.26,26.21Z"/><path class="cls-2" d="M418.53,21.1c-.72.68-.79.67-4.45.4l-3.27-.22c0,.33-.05.67-.07,1,0,.56-.05,1.26,0,1.57l.06.57,1.57,0a5.53,5.53,0,0,1,2.12.27c1.33.6,1.61,1.82.62,2.63-.57.43-1.38.56-3.1.44l-1.4-.1-.18,3.11c-.2,3.45-.3,3.88-1,4.37a2.72,2.72,0,0,1-2.53.14,2.11,2.11,0,0,1-1-1.23c-.17-.48.66-13.65.91-14.39A3.21,3.21,0,0,1,408.42,18c.48-.19.78-.17,4.73,0,4.65.23,4.85.29,5.44.93A1.45,1.45,0,0,1,418.53,21.1Z"/><path class="cls-2" d="M434,31.43a9,9,0,0,1-4.15,4.5,11.79,11.79,0,0,1-3.24.65c-.16,0-.62-.12-1-.21a7.71,7.71,0,0,1-5.42-4.62c-.66-1.82-.66-8.49,0-10.3a2.84,2.84,0,0,1,.87-1.32,1.53,1.53,0,0,1,1.31-.44,1.84,1.84,0,0,1,1.72,1.21,7.38,7.38,0,0,1,.17,2.85c-.05,3.27.08,5.8.4,6.4a3.18,3.18,0,0,0,3.45,1.35A3.1,3.1,0,0,0,429.89,30c.31-.54.37-.88.73-4.35.44-4,.5-4.31,1.35-4.9a2.1,2.1,0,0,1,3.12,1.27C435.48,23.39,434.71,29.79,434,31.43Z"/><path class="cls-2" d="M450.53,37.05a1.66,1.66,0,0,1-1.38,1.44c-.62.19-.72.18-5.85-.32-4.9-.49-5.2-.51-5.67-.77a2.18,2.18,0,0,1-.83-.74c-.33-.47-.35-.54-.25-2.83.08-1.28.35-4.6.59-7.36.45-4.63.52-5,.78-5.38a2,2,0,0,1,2-.77,1.91,1.91,0,0,1,1.81,1.14c.34.7.31,2.14-.13,8.63-.1,1.49-.21,3-.31,4.46h.57c.3,0,2,.12,3.84.27,3.13.27,3.33.32,3.83.59A1.62,1.62,0,0,1,450.53,37.05Z"/><path class="cls-2" d="M466,38.7c-.08.72-.53,1.17-1.39,1.43-.62.18-.72.16-5.85-.39-4.89-.55-5.19-.58-5.66-.85a2.16,2.16,0,0,1-.82-.74c-.32-.48-.35-.54-.22-2.84.1-1.28.4-4.6.68-7.35.51-4.62.58-5,.85-5.37a2,2,0,0,1,2-.75,1.92,1.92,0,0,1,1.8,1.17c.33.7.28,2.14-.24,8.63l-.36,4.45h.56c.3,0,2.05.16,3.84.32,3.13.31,3.33.37,3.83.64A1.61,1.61,0,0,1,466,38.7Z"/><path class="cls-2" d="M477.29,41a1.5,1.5,0,0,1-1.59.6c-.76-.09-1.11-.33-1.06-.73a.88.88,0,0,1,.3-.53q8.3-10.4,16.83-20.68c.25-.32.74-.44,1.49-.34s1.09.34,1,.71a.76.76,0,0,1-.14.33Q485.6,30.62,477.29,41Z"/><path class="cls-2" d="M509.46,47.56a2.29,2.29,0,0,1-2.19.53,2.59,2.59,0,0,1-1.56-2.79,6.23,6.23,0,0,0,0-.83l-.94.27a4.66,4.66,0,0,1-2.48,0c-2.2-.31-2.82-.68-4-2.37a8.36,8.36,0,0,1-1.14-7.8c.72-2.09,3.15-4.8,4.9-5.41a9.93,9.93,0,0,1,6-.06,2,2,0,0,0,1.37.13A2.07,2.07,0,0,1,512,31.13a20.2,20.2,0,0,1-.32,4.21c-.24,1.9-.62,5.14-.9,7.2C510.25,46.47,510.12,46.9,509.46,47.56Zm-2.41-12c.13-.87.18-1.43.06-1.54a4.51,4.51,0,0,0-2.66-.32,2.9,2.9,0,0,0-2.11,1.54,3.58,3.58,0,0,0-.1,4.11,1.11,1.11,0,0,0,.95.61,3.44,3.44,0,0,0,1.26-.14C505.75,39.43,506.72,37.79,507.05,35.52Z"/><path class="cls-2" d="M519.22,37.41a4.66,4.66,0,0,0-.56,3.18,2.11,2.11,0,0,0,1.81,1.59,2.17,2.17,0,0,0,1.52-.24,2.29,2.29,0,0,1,3.23.86,2.45,2.45,0,0,1-.87,3.11,7.14,7.14,0,0,1-6.27,1.27,7.66,7.66,0,0,1-4.92-7A9.15,9.15,0,0,1,518,31.66a6.49,6.49,0,0,1,5.6-.19,6.35,6.35,0,0,1,2.81,2.2c1.48,2,1.57,3.94.17,4.83-1.13.71-2.05.4-3.18-1-.92-1.22-1.17-1.39-1.95-1.38A2.94,2.94,0,0,0,519.22,37.41Z"/><path class="cls-2" d="M534.21,39.81a4.68,4.68,0,0,0-.59,3.18,2.11,2.11,0,0,0,1.79,1.61,2.21,2.21,0,0,0,1.52-.22,2.28,2.28,0,0,1,3.22.9,2.44,2.44,0,0,1-.9,3.09,7.1,7.1,0,0,1-6.29,1.2,7.67,7.67,0,0,1-4.84-7,9.17,9.17,0,0,1,4.94-8.49,6.48,6.48,0,0,1,5.6-.12,6.3,6.3,0,0,1,2.79,2.23c1.46,2,1.52,4,.12,4.83-1.14.7-2.06.38-3.17-1.08-.91-1.24-1.16-1.41-1.94-1.41A3,3,0,0,0,534.21,39.81Z"/><path class="cls-2" d="M558,48.67A5.45,5.45,0,0,1,556.17,51a11.13,11.13,0,0,1-3.4,1.41,10.69,10.69,0,0,1-5.06-.4,8.53,8.53,0,0,1-3.54-3.37,8.63,8.63,0,0,1-.1-8.15A10.58,10.58,0,0,1,549.75,36a7.48,7.48,0,0,1,3.76,0,4.57,4.57,0,0,1,3.18,2.21,3.82,3.82,0,0,1,.84,3.6,3.13,3.13,0,0,1-.9,2.1c-.39.44-.93,1-1.17,1.19a9.74,9.74,0,0,1-3.58,1.39,5.31,5.31,0,0,1-2.52-.07l-1.51-.27a3.78,3.78,0,0,0,.17.35,3.23,3.23,0,0,0,2.07,1.84,4.78,4.78,0,0,0,4.17-1.16,2.41,2.41,0,0,1,2.17-.72A2,2,0,0,1,558,48.67Zm-8.37-6.74c.39.3.93.33,1.82.11.64-.14,1.41-.67,1.46-.95a1,1,0,0,0-.18-.51c-.46-.63-1.77-.55-2.89.21C549.15,41.27,549.11,41.52,549.64,41.93Z"/><path class="cls-2" d="M572.05,49.25a4.62,4.62,0,0,1-.46,4.4c-1.3,1.79-4.19,2.69-7,2.12a8.33,8.33,0,0,1-1.89-.55,7,7,0,0,1-3.21-2.82,4.13,4.13,0,0,1-.46-3A1.75,1.75,0,0,1,560.44,48a2.23,2.23,0,0,1,2.82,2c0,1,.83,1.82,2.18,2.08,1.82.35,3.15-.7,2.32-1.86a4.5,4.5,0,0,0-2.37-1.42c-4-1.44-5.77-5.12-3.66-7.79A6.93,6.93,0,0,1,564,39.31a8.87,8.87,0,0,1,3.8-.56,8.09,8.09,0,0,1,5.41,2.63c1.38,1.68,1.49,3.37.23,4A2.46,2.46,0,0,1,570,44a3.14,3.14,0,0,0-.63-1,3.4,3.4,0,0,0-3.37-.39,1.09,1.09,0,0,0-.74.82.86.86,0,0,0,.18,1,3,3,0,0,0,2,1.09,7.13,7.13,0,0,1,2.44,1.12A6.77,6.77,0,0,1,572.05,49.25Z"/><path class="cls-2" d="M587.1,52.32a4.66,4.66,0,0,1-.51,4.39c-1.33,1.77-4.23,2.64-7,2a8.54,8.54,0,0,1-1.89-.58,7,7,0,0,1-3.18-2.85,4.13,4.13,0,0,1-.42-3,1.73,1.73,0,0,1,1.4-1.42,2.22,2.22,0,0,1,2.8,2c0,1,.82,1.83,2.15,2.1,1.83.38,3.17-.66,2.35-1.82a4.43,4.43,0,0,0-2.36-1.45c-4-1.49-5.7-5.19-3.56-7.84a6.85,6.85,0,0,1,2.28-1.62,8.76,8.76,0,0,1,3.81-.51,8.08,8.08,0,0,1,5.38,2.69c1.36,1.7,1.45,3.39.18,4a2.45,2.45,0,0,1-3.4-1.45,3.12,3.12,0,0,0-.62-1,3.44,3.44,0,0,0-3.37-.44,1.09,1.09,0,0,0-.75.81.88.88,0,0,0,.16,1.06,3.06,3.06,0,0,0,2,1.11A7.08,7.08,0,0,1,585,49.79,6.86,6.86,0,0,1,587.1,52.32Z"/><path class="cls-2" d="M614.28,53c-.78.53-1.23.56-3.16.11l-1.67-.38c-.34,1.61-.68,3.22-1,4.83-1.11,5.19-1.19,5.39-2,6a2.39,2.39,0,0,1-3.72-1.61c-.1-.47.05-1.28.89-5.37.34-1.6.67-3.2,1-4.8L603,51.32c-1.85-.48-2.36-.79-2.79-1.52-.74-1.32.2-2.76,1.84-2.88a9,9,0,0,1,1.65.17,10.21,10.21,0,0,0,1.44.23c.5,0,.51,0,.62-.51a2.86,2.86,0,0,1,2-2.25,2.56,2.56,0,0,1,2,.57,3.2,3.2,0,0,1,.68,2.48c0,.24-.06.48-.1.72l1.74.39c2.3.53,2.89,1,3.15,2.24A1.9,1.9,0,0,1,614.28,53Z"/><path class="cls-2" d="M627.75,64.59a8,8,0,0,1-5.41,3,5.59,5.59,0,0,1-2.45-.2,8.52,8.52,0,0,1-1.89-.67,8.63,8.63,0,0,1-3.87-7.27,9.17,9.17,0,0,1,4.88-8,7.19,7.19,0,0,1,3.53-.72,6.31,6.31,0,0,1,3.53,1.17,5.65,5.65,0,0,1,2.69,2.88A9,9,0,0,1,627.75,64.59Zm-3-7.16a8.11,8.11,0,0,0-.77-.83,1.63,1.63,0,0,0-1.14-.6,3.22,3.22,0,0,0-3.33,4,2.76,2.76,0,0,0,3.72,2,4,4,0,0,0,1.09-.81A3.7,3.7,0,0,0,624.74,57.43Z"/><path class="cls-2" d="M186.06,79a2.16,2.16,0,0,1-1.91,1.07A2.6,2.6,0,0,1,182,77.77a4.57,4.57,0,0,0-.22-.79l-.81.5a4.52,4.52,0,0,1-2.32.65c-2.14.25-2.81.05-4.36-1.29a8.5,8.5,0,0,1-3-7.26c.15-2.2,1.75-5.43,3.24-6.46a9.4,9.4,0,0,1,5.64-1.58,1.84,1.84,0,0,0,1.32-.21,2,2,0,0,1,2.85,1.17,22,22,0,0,1,.75,4.15c.24,1.9.7,5.14,1,7.2C186.54,77.77,186.52,78.21,186.06,79ZM180.8,68c-.1-.87-.19-1.43-.33-1.51a4.27,4.27,0,0,0-2.57.36c-.81.38-1.15.8-1.59,2a3.68,3.68,0,0,0,.92,4,1.06,1.06,0,0,0,1.05.35,3.1,3.1,0,0,0,1.15-.45C180.55,72.09,181.06,70.26,180.8,68Z"/><path class="cls-2" d="M202.36,74.14a1.64,1.64,0,0,1-1,1.68c-.55.31-.64.31-5.62.82-4.76.46-5.05.5-5.55.33a2.29,2.29,0,0,1-.94-.57c-.39-.4-.43-.46-.78-2.72-.17-1.28-.56-4.59-.86-7.34-.46-4.62-.48-5-.29-5.43A1.91,1.91,0,0,1,189,59.77a1.84,1.84,0,0,1,1.95.78c.46.61.71,2,1.54,8.49.19,1.47.38,2.95.56,4.43l.54-.12c.29-.06,2-.27,3.7-.48,3-.34,3.24-.32,3.77-.15A1.59,1.59,0,0,1,202.36,74.14Z"/><path class="cls-2" d="M217.43,72.77a1.66,1.66,0,0,1-1.05,1.67c-.55.3-.65.3-5.63.74-4.77.41-5.06.44-5.56.27a2.25,2.25,0,0,1-.92-.58c-.4-.4-.43-.46-.75-2.73-.15-1.28-.5-4.6-.77-7.35-.41-4.63-.42-5-.23-5.44a1.91,1.91,0,0,1,1.76-1.11,1.85,1.85,0,0,1,1.94.8c.45.62.68,2.05,1.44,8.51.16,1.48.33,3,.5,4.43l.54-.11c.29-.06,2-.25,3.71-.43,3-.3,3.24-.28,3.77-.11A1.6,1.6,0,0,1,217.43,72.77Z"/><path class="cls-2" d="M232.26,63.25a4.87,4.87,0,0,0,.17,3.24,2,2,0,0,0,2,1.14,2,2,0,0,0,1.38-.57,2.17,2.17,0,0,1,3.24.13,2.51,2.51,0,0,1-.14,3.22A6.8,6.8,0,0,1,233.32,73a7.59,7.59,0,0,1-6.17-5.72,9.32,9.32,0,0,1,2.7-9.4,6.39,6.39,0,0,1,8.38.1c1.83,1.61,2.34,3.5,1.22,4.67-.91,1-1.86.85-3.23-.31-1.14-1-1.41-1.1-2.14-.92A2.87,2.87,0,0,0,232.26,63.25Z"/><path class="cls-2" d="M255.84,67.25a7.86,7.86,0,0,1-4.13,4.47,5.47,5.47,0,0,1-2.31.52,7.78,7.78,0,0,1-1.94-.11,8.52,8.52,0,0,1-5.62-5.85,9.4,9.4,0,0,1,2.24-9.11,6.9,6.9,0,0,1,3.06-1.7,5.88,5.88,0,0,1,3.58.1,5.46,5.46,0,0,1,3.3,2A9.26,9.26,0,0,1,255.84,67.25Zm-4.79-6a7.72,7.72,0,0,0-.94-.57,1.56,1.56,0,0,0-1.21-.25,3.23,3.23,0,0,0-2,4.81,2.61,2.61,0,0,0,4,.83,4.13,4.13,0,0,0,.78-1.08A3.83,3.83,0,0,0,251.05,61.25Z"/><path class="cls-2" d="M272.8,70.23a2.07,2.07,0,0,1-3.57-.11l-.35-.55c-.05-1.54-.11-3.07-.16-4.61-.23-5.15-.18-5-1.21-5.45a3.85,3.85,0,0,0-2.59.05,4,4,0,0,0-1.85,1.91c-.09.23-.18.45-.26.67l.24,3.7c.27,3.7.28,3.77,0,4.34a2,2,0,0,1-1.64,1.31,1.83,1.83,0,0,1-1.68-.36c-.9-.67-.91-.71-1.37-7.29s-.43-7.08.24-7.91a2.14,2.14,0,0,1,1.88-.75,2.9,2.9,0,0,1,1.52,1c0,.15.16.11.58-.09a7.64,7.64,0,0,1,6.57-.52,7.74,7.74,0,0,1,3.2,2.79c.35.68.35.81.6,5.45C273.26,68.73,273.23,69.64,272.8,70.23Z"/><path class="cls-2" d="M288.44,57.73c-.6.7-1,.84-2.93.9l-1.65,0c.08,1.64.15,3.28.22,4.92.23,5.31.2,5.53-.41,6.33a2.4,2.4,0,0,1-2.62.65,2.55,2.55,0,0,1-1.26-1.27c-.21-.44-.27-1.25-.47-5.42l-.24-4.9h-1.62c-1.85,0-2.4-.16-3-.77a2,2,0,0,1,1-3.24,8,8,0,0,1,1.58-.25,9.23,9.23,0,0,0,1.39-.14c.49-.08.49-.11.47-.65a2.84,2.84,0,0,1,1.34-2.68,2.36,2.36,0,0,1,2,.06,3.26,3.26,0,0,1,1.24,2.22l.09.72,1.72,0c2.27-.06,2.93.2,3.48,1.38A2,2,0,0,1,288.44,57.73Z"/><path class="cls-2" d="M304.69,64.71a5.5,5.5,0,0,1-1.31,2.6,11,11,0,0,1-2.95,2.06,10.14,10.14,0,0,1-4.87.6,8.31,8.31,0,0,1-4-2.61,8.93,8.93,0,0,1-1.65-8,10.44,10.44,0,0,1,4.54-5.48,7,7,0,0,1,3.55-.76,4.33,4.33,0,0,1,3.44,1.54A3.81,3.81,0,0,1,302.91,58a3.21,3.21,0,0,1-.45,2.24,14.46,14.46,0,0,1-.88,1.4,9.37,9.37,0,0,1-3.12,2.07,5.11,5.11,0,0,1-2.41.42l-1.48,0,.23.31a3.09,3.09,0,0,0,2.32,1.4,4.59,4.59,0,0,0,3.73-2,2.3,2.3,0,0,1,1.91-1.13A2,2,0,0,1,304.69,64.71Zm-9.22-5c.43.21.94.14,1.74-.25.58-.26,1.21-.94,1.21-1.22a1.24,1.24,0,0,0-.27-.47c-.56-.52-1.79-.18-2.7.78C294.88,59.2,294.88,59.45,295.47,59.75Z"/><path class="cls-2" d="M320.47,69.23a2.07,2.07,0,0,1-3.56-.24c-.11-.18-.22-.37-.32-.56,0-1.54,0-3.08,0-4.62,0-5.15,0-5-1-5.49a3.83,3.83,0,0,0-2.59,0,3.94,3.94,0,0,0-1.92,1.84c-.1.22-.2.44-.29.66,0,1.24.07,2.47.1,3.71.13,3.71.13,3.77-.15,4.34a2,2,0,0,1-1.69,1.24,1.87,1.87,0,0,1-1.67-.42c-.88-.71-.88-.74-1.09-7.34s-.16-7.1.54-7.89a2.12,2.12,0,0,1,1.91-.68,2.88,2.88,0,0,1,1.48,1.08c0,.16.16.12.58-.07a7,7,0,0,1,9.67,2.65c.33.69.33.82.4,5.47C321,67.76,320.92,68.67,320.47,69.23Z"/><path class="cls-2" d="M336.57,57.34c-.62.69-1,.81-2.95.79H332l0,4.93c0,5.31,0,5.53-.66,6.31a2.41,2.41,0,0,1-2.64.55,2.53,2.53,0,0,1-1.21-1.33c-.19-.44-.22-1.25-.27-5.43,0-1.64,0-3.27,0-4.9l-1.62-.07c-1.85-.07-2.39-.26-2.94-.89a2,2,0,0,1,1.13-3.2,8.55,8.55,0,0,1,1.59-.19,7,7,0,0,0,1.4-.09c.49-.06.49-.09.49-.62a2.83,2.83,0,0,1,1.44-2.63,2.34,2.34,0,0,1,1.95.13A3.21,3.21,0,0,1,331.78,53l.06.73h1.72c2.27,0,2.92.31,3.43,1.51A2,2,0,0,1,336.57,57.34Z"/><path class="cls-2" d="M360.7,72.08a2.15,2.15,0,0,1-2,.79,2.61,2.61,0,0,1-1.82-2.6,5.73,5.73,0,0,0-.1-.82l-.88.39a4.43,4.43,0,0,1-2.38.31c-2.15-.05-2.78-.35-4.13-1.88a8.56,8.56,0,0,1-2-7.62c.46-2.16,2.5-5.13,4.11-5.94a9.38,9.38,0,0,1,5.81-.77,1.87,1.87,0,0,0,1.33,0,2,2,0,0,1,2.65,1.55,21.92,21.92,0,0,1,.16,4.22c0,1.92,0,5.19-.06,7.26C361.35,70.91,361.27,71.35,360.7,72.08Zm-3.65-11.67c0-.88,0-1.45-.12-1.54a4.26,4.26,0,0,0-2.59,0c-.84.26-1.24.63-1.85,1.78a3.67,3.67,0,0,0,.35,4.09,1.06,1.06,0,0,0,1,.5,3.34,3.34,0,0,0,1.2-.29C356.23,64.44,357,62.7,357.05,60.41Z"/><path class="cls-2" d="M377.69,70.46a2.06,2.06,0,0,1-2.75.51,2,2,0,0,1-.79-.92l-.3-.57c.07-1.54.15-3.08.22-4.62.21-5.14.24-5-.74-5.53a3.83,3.83,0,0,0-2.59-.16,3.94,3.94,0,0,0-2,1.74c-.11.22-.21.44-.32.65,0,1.24-.05,2.47-.07,3.71,0,3.71,0,3.77-.35,4.32a2,2,0,0,1-1.75,1.17,1.85,1.85,0,0,1-1.65-.5c-.84-.75-.84-.78-.75-7.38s.17-7.1.91-7.86a2.11,2.11,0,0,1,1.94-.59,2.89,2.89,0,0,1,1.42,1.15c0,.16.16.13.59,0a7,7,0,0,1,9.54,3.09c.29.7.29.83.15,5.48C378.27,69,378.17,69.91,377.69,70.46Z"/><path class="cls-2" d="M395.77,62c-.53,8.34-.52,8.34-.84,8.86a2.42,2.42,0,0,1-2.73,1,3.11,3.11,0,0,1-.77-.55l-.36-.4-.53.22a8.25,8.25,0,0,1-3.24.46A7.26,7.26,0,0,1,382,69a6.84,6.84,0,0,1-1.93-3.61,8.87,8.87,0,0,1,.43-4.26,7.93,7.93,0,0,1,5.21-4.49,8.06,8.06,0,0,1,5.61.76c.19.11.24-.14.43-2.46s.25-2.66.5-3.18a2,2,0,0,1,2-1.12c1.17.07,1.85.8,2,2.16C396.27,53.33,396.1,56.87,395.77,62ZM391,64a2.85,2.85,0,0,0-1.12-2.48,2.25,2.25,0,0,0-1.3-.67,3.38,3.38,0,0,0-2.59.72,2.87,2.87,0,0,0-.38,4.26A3.52,3.52,0,0,0,387.77,67a4.24,4.24,0,0,0,.81-.08A3,3,0,0,0,391,64Z"/><path class="cls-2" d="M421.09,61.14c-.67.64-1.1.74-3,.59l-1.65-.13-.3,4.93c-.34,5.3-.39,5.51-1.09,6.25a2.39,2.39,0,0,1-2.66.37,2.51,2.51,0,0,1-1.12-1.4c-.16-.46-.14-1.27.1-5.45.09-1.63.18-3.26.28-4.89L410,61.23c-1.84-.19-2.37-.41-2.88-1.08A2,2,0,0,1,408.51,57a8.2,8.2,0,0,1,1.6-.07,9.25,9.25,0,0,0,1.4,0c.49,0,.49-.06.53-.59a2.86,2.86,0,0,1,1.62-2.53,2.37,2.37,0,0,1,1.94.27,3.21,3.21,0,0,1,1,2.34c0,.24,0,.48,0,.72l1.72.13c2.27.18,2.89.51,3.32,1.74A2,2,0,0,1,421.09,61.14Z"/><path class="cls-2" d="M435.59,70.6a7.89,7.89,0,0,1-4.74,3.84,5.3,5.3,0,0,1-2.36.17,7.67,7.67,0,0,1-1.9-.38,8.51,8.51,0,0,1-4.72-6.6,9.34,9.34,0,0,1,3.53-8.69,6.82,6.82,0,0,1,3.26-1.24,5.81,5.81,0,0,1,3.54.61,5.5,5.5,0,0,1,3,2.45A9.26,9.26,0,0,1,435.59,70.6ZM431.7,64a6.42,6.42,0,0,0-.85-.7,1.51,1.51,0,0,0-1.16-.42,3.23,3.23,0,0,0-2.62,4.47,2.61,2.61,0,0,0,3.83,1.4,3.86,3.86,0,0,0,.93-1A3.79,3.79,0,0,0,431.7,64Z"/><path class="cls-2" d="M451.83,72.19A7.86,7.86,0,0,1,447.05,76a5.51,5.51,0,0,1-2.37.15,7.39,7.39,0,0,1-1.89-.41A8.54,8.54,0,0,1,438.15,69a9.4,9.4,0,0,1,3.64-8.65,7,7,0,0,1,3.29-1.2,6,6,0,0,1,3.53.67,5.49,5.49,0,0,1,2.95,2.48A9.25,9.25,0,0,1,451.83,72.19ZM448,65.52a8.73,8.73,0,0,0-.84-.72,1.58,1.58,0,0,0-1.16-.43,3.23,3.23,0,0,0-2.68,4.44,2.61,2.61,0,0,0,3.81,1.45,3.86,3.86,0,0,0,.94-1A3.79,3.79,0,0,0,448,65.52Z"/><path class="cls-2" d="M468,76.87a1.67,1.67,0,0,1-1.37,1.42c-.6.18-.69.16-5.67-.4-4.75-.56-5-.58-5.49-.86a2.2,2.2,0,0,1-.8-.75c-.3-.47-.33-.54-.18-2.83.11-1.28.43-4.6.72-7.35.53-4.62.6-5,.87-5.37A1.89,1.89,0,0,1,458,60a1.84,1.84,0,0,1,1.74,1.17c.32.7.26,2.15-.3,8.63l-.39,4.44h.55c.29,0,2,.16,3.72.32,3,.32,3.23.38,3.72.65A1.62,1.62,0,0,1,468,76.87Z"/><path class="cls-2" d="M481.68,72.69a4.76,4.76,0,0,1-.18,4.41c-1.15,1.88-3.88,3-6.62,2.62A7.72,7.72,0,0,1,473,79.3a6.61,6.61,0,0,1-3.28-2.58,4.21,4.21,0,0,1-.63-2.92,1.75,1.75,0,0,1,1.25-1.53A2.14,2.14,0,0,1,473.22,74c0,1,.92,1.76,2.23,1.92,1.79.22,3-.92,2.14-2a4.39,4.39,0,0,0-2.38-1.24c-4-1.16-5.89-4.7-4-7.51a7,7,0,0,1,2.08-1.81,8.46,8.46,0,0,1,3.64-.82,7.59,7.59,0,0,1,5.4,2.23c1.43,1.58,1.64,3.25.46,4a2.33,2.33,0,0,1-3.38-1.16,3.16,3.16,0,0,0-.67-.91,3.21,3.21,0,0,0-3.29-.15,1.09,1.09,0,0,0-.66.86.89.89,0,0,0,.23,1,2.93,2.93,0,0,0,2,.94,6.74,6.74,0,0,1,2.43.94A6.65,6.65,0,0,1,481.68,72.69Z"/></g></g></svg>