<svg width="29" height="60" viewBox="0 0 29 60" fill="none" xmlns="http://www.w3.org/2000/svg">
<path d="M18.0383 44.7765C18.0383 45.7929 18.0383 46.8555 17.9921 47.8719C17.9921 48.9806 17.9459 50.1355 17.8997 51.2443C17.8997 51.4753 17.8997 51.6601 17.8535 51.8911C17.8073 52.815 17.7611 53.7852 17.7149 54.7091C17.6226 56.1413 17.5301 57.6658 16.6524 58.7746C15.9594 59.6524 14.8045 60.1143 13.6957 59.9757C12.5869 59.8371 11.6168 59.0518 11.1086 58.0354C10.7852 57.2963 10.6928 56.4647 10.6004 55.6331C10.508 54.6167 10.4618 53.5542 10.4156 52.5379C10.4156 52.1683 10.3694 51.7987 10.3694 51.4291C10.3232 50.2741 10.3232 49.1192 10.3232 47.9642C10.3232 46.7169 10.3694 45.4233 10.4156 44.176C10.5542 41.4503 11.4782 38.9094 14.7583 39.5562C16.098 39.7872 17.253 40.8497 17.7149 42.1895C18.0383 42.9748 18.0383 43.8988 18.0383 44.7765Z" fill="#F9CC3D"/>
<path opacity="0.7" d="M18.038 44.7768C18.038 45.7931 18.038 46.8557 17.9918 47.8721C17.9918 48.9808 17.9456 50.1357 17.8994 51.2445C15.6819 51.5217 12.8638 51.7065 10.4153 51.3831C10.3691 50.2282 10.3691 49.0732 10.3691 47.9183C10.3691 46.6709 10.4153 45.3773 10.4615 44.13C10.6001 41.4043 11.5241 38.8634 14.8042 39.5102C16.1439 39.7412 17.2989 40.8037 17.7608 42.1435C18.038 42.9751 18.038 43.899 18.038 44.7768Z" fill="#F67300"/>
<path d="M28.8953 34.7515C28.8491 37.3386 28.7567 39.8795 28.7105 42.4666C28.6643 43.5754 28.6181 44.7765 27.8328 45.7005C26.9088 46.763 25.338 47.0864 23.8135 47.3174C21.8732 47.5946 19.9329 47.7794 17.9926 47.918C17.2072 47.9642 16.4218 48.0104 15.6365 48.0104C13.8809 48.0566 12.1254 48.0566 10.3699 47.9642C9.03011 47.918 7.73657 47.8256 6.44302 47.687C5.05707 47.5484 3.57874 47.3637 2.37759 46.7169C-0.0247174 45.4233 0.529666 42.9286 0.391072 40.7573C0.298675 39.0942 0.206262 37.4772 0.113866 35.8141C0.0676676 35.2135 0.0676789 34.6592 0.0676789 34.0586C0.0676789 33.5966 0.0214638 33.1808 0.0214638 32.7188C-0.0709325 27.9142 0.113877 23.0634 0.991642 18.305C1.08404 17.7968 1.17644 17.2886 1.31503 16.7805C1.96181 13.8238 2.88576 10.9595 4.13311 8.14143C5.70385 4.72276 8.24473 1.21166 12.264 0.241497C14.4353 -0.266682 16.699 0.0567047 18.6855 0.934469C20.3025 1.62744 21.7346 2.64382 22.8434 3.84498C25.3843 6.57067 26.493 10.1279 27.2322 13.5928C27.417 14.5629 27.6018 15.4869 27.7866 16.4571C28.6181 21.2617 28.8491 26.1587 28.8953 31.0557C28.8953 32.2107 28.8953 33.5042 28.8953 34.7515Z" fill="#D93E4F"/>
<path d="M27.7861 16.4109C26.354 16.8728 24.9219 17.2424 23.4897 17.5658C17.7149 18.9056 11.7092 19.2751 5.7958 18.7208C4.73324 18.6284 2.83914 18.5822 0.991211 18.305C1.08361 17.7968 1.17601 17.2886 1.3146 16.7805C1.96138 13.8238 2.88533 10.9595 4.13268 8.14143C5.70342 4.72276 8.2443 1.21166 12.2635 0.241497C14.4349 -0.266682 16.6986 0.0567047 18.6851 0.93447C20.302 1.62744 21.7342 2.64382 22.8429 3.84498C25.3838 6.57067 26.4926 10.1279 27.2318 13.5928C27.4165 14.4705 27.6013 15.4407 27.7861 16.4109Z" fill="#933D2E"/>
<path d="M28.8947 34.7515C28.8485 37.3386 28.7561 39.8794 28.7099 42.4665C28.6637 43.5753 28.6175 44.7764 27.8322 45.7004C26.9082 46.763 25.3375 47.0863 23.8129 47.3173C21.8726 47.5945 19.9323 47.7793 17.992 47.9179C17.2066 47.9641 16.4212 48.0103 15.6359 48.0103C13.8803 48.0565 12.1248 48.0565 10.3693 47.9641C9.02953 47.9179 7.73598 47.8255 6.44243 47.6869C5.05649 47.5484 3.57815 47.3636 2.377 46.7168C-0.0253018 45.4232 0.529081 42.9285 0.390487 40.7572C0.298091 39.0941 0.205678 37.4771 0.113281 35.814C6.76581 36.507 13.4646 36.5532 20.1633 35.9064C20.4405 35.8602 21.5492 35.7678 22.9352 35.583C24.6907 35.352 27.0006 35.0287 28.8947 34.7515Z" fill="#7F48C3"/>
<path opacity="0.3" d="M28.8956 34.7516C28.8494 37.3387 28.757 39.8795 28.7108 42.4666C28.6646 43.5754 28.6184 44.7766 27.833 45.7005C26.9091 46.7631 25.3383 47.0865 23.8138 47.3174C21.8734 47.5946 19.9331 47.7794 17.9928 47.918C17.2074 47.9642 16.4221 48.0104 15.6367 48.0104C19.2402 45.1923 21.5501 40.9421 22.6588 36.5995C22.7512 36.2761 22.8436 35.9065 22.8898 35.5831C23.9062 31.1019 23.86 26.4359 23.6752 21.8623C23.629 20.4301 23.5366 18.998 23.4442 17.5658C23.2132 14.4706 22.7974 11.3753 21.9658 8.41863C21.2729 5.92393 20.2565 3.47542 18.8706 1.25791C18.7782 1.11932 18.732 1.0269 18.6396 0.888306C20.2565 1.58128 21.6887 2.59766 22.7974 3.79881C25.3383 6.5245 26.4471 10.0817 27.1863 13.5466C27.371 14.5168 27.5558 15.4407 27.7406 16.4109C28.5722 21.2155 28.8032 26.1125 28.8494 31.0095C28.8956 32.2107 28.8956 33.5042 28.8956 34.7516Z" fill="#7C4135"/>
<path opacity="0.24" d="M10.6472 4.9534C10.3238 4.49142 9.76945 4.399 9.26127 4.58379C8.19871 5.04578 7.69054 6.10834 7.27476 7.07851C6.76658 8.18726 6.25841 9.38841 5.93503 10.5434C5.28825 12.7609 4.78005 14.9784 4.41046 17.2421C4.04088 19.552 3.67131 21.9081 3.53272 24.2642C3.34792 26.6665 3.16314 29.346 4.0871 31.6559C4.82627 33.4114 7.22857 33.5038 7.92154 31.6559C8.70691 29.4846 8.61451 26.9899 8.7531 24.7262C8.8917 22.4625 9.03028 20.1526 9.35367 17.8889C9.67706 15.6714 10.0928 13.5 10.5086 11.2825C10.6934 10.22 10.8782 9.11121 11.0168 8.04866C11.1092 6.9861 11.294 5.92356 10.6472 4.9534Z" fill="white"/>
<path opacity="0.24" d="M8.70669 39.186C8.66049 38.5392 8.66049 37.7538 8.24471 37.2457C7.87512 36.7837 7.13593 36.3217 6.48916 36.5989C5.05702 37.1533 4.87224 38.4468 4.68745 39.7866C4.50265 41.1725 4.36406 42.4198 5.14943 43.6672C6.07339 45.1455 8.01371 44.6374 8.61429 43.2514C9.16867 41.9579 8.84529 40.5257 8.70669 39.186Z" fill="white"/>
</svg>
