<svg width="320" height="313" viewBox="0 0 320 313" fill="none" xmlns="http://www.w3.org/2000/svg">
<path d="M246.79 229.148C246.79 229.87 246.065 231.316 245.339 231.316C244.613 231.316 243.161 230.593 243.161 229.87C243.161 229.148 243.887 227.702 244.613 227.702C246.065 227.702 246.79 228.425 246.79 229.148Z" fill="#EB027E"/>
<path d="M246.063 217.582C246.063 218.305 245.337 219.027 245.337 219.027C244.612 219.027 243.886 218.305 243.886 218.305C243.886 217.582 244.612 216.859 244.612 216.859C245.337 216.859 246.063 217.582 246.063 217.582Z" fill="#EB027E"/>
<path d="M263.483 242.882C263.483 243.604 262.757 244.327 262.757 244.327C262.032 244.327 261.306 243.604 261.306 243.604C261.306 242.882 262.032 242.159 262.032 242.159C262.757 242.159 262.757 242.159 263.483 242.882Z" fill="#EB027E"/>
<path d="M270.743 229.87C270.743 230.593 270.017 232.039 269.291 232.039C268.565 232.039 267.113 231.316 267.113 230.593C267.113 229.87 267.839 228.424 268.565 228.424C270.017 227.702 270.743 228.424 270.743 229.87Z" fill="#EB027E"/>
<path d="M256.226 219.751C256.226 220.474 256.226 220.474 255.5 220.474C254.774 220.474 254.774 220.474 254.774 219.751C254.774 219.028 254.774 219.028 255.5 219.028C255.5 219.028 256.226 219.028 256.226 219.751Z" fill="#EB027E"/>
<path d="M179.286 247.942C179.286 248.664 178.56 250.11 177.834 250.11C177.108 250.11 175.656 249.387 175.656 248.664C175.656 247.942 176.382 246.496 177.108 246.496C178.56 246.496 179.286 247.219 179.286 247.942Z" fill="#EB027E"/>
<path d="M178.558 237.099C178.558 237.822 177.833 238.545 177.833 238.545C177.107 238.545 176.381 237.822 176.381 237.822C176.381 237.099 177.107 236.376 177.107 236.376C177.833 235.653 178.558 236.376 178.558 237.099Z" fill="#EB027E"/>
<path d="M195.254 261.676C195.254 262.399 194.528 263.122 194.528 263.122C193.802 263.122 193.076 262.399 193.076 262.399C193.076 261.676 193.802 260.953 193.802 260.953C194.528 260.953 195.254 261.676 195.254 261.676Z" fill="#EB027E"/>
<path d="M203.238 248.665C203.238 249.388 202.512 250.833 201.786 250.833C201.06 250.833 199.608 250.111 199.608 249.388C199.608 248.665 200.334 247.219 201.06 247.219C201.786 247.219 203.238 247.942 203.238 248.665Z" fill="#EB027E"/>
<path d="M188.721 238.544C188.721 239.267 188.721 239.267 187.995 239.267C187.27 239.267 187.27 239.267 187.27 238.544C187.27 237.822 187.27 237.822 187.995 237.822C187.995 237.822 187.995 238.544 188.721 238.544Z" fill="#EB027E"/>
<path d="M113.236 254.448C113.962 254.448 114.688 255.894 114.688 256.617C114.688 257.339 113.236 258.062 112.51 258.062C111.784 258.062 111.059 256.617 111.059 255.894C111.059 255.171 111.784 254.448 113.236 254.448Z" fill="#EB027E"/>
<path d="M102.347 251.556C103.073 251.556 103.073 252.279 103.073 253.002C103.073 253.725 102.347 253.725 101.621 253.725C100.896 253.725 100.896 253.002 100.896 252.279C100.896 251.556 101.621 251.556 102.347 251.556Z" fill="#EB027E"/>
<path d="M131.38 244.327C132.106 244.327 132.106 245.05 132.106 245.773C132.106 246.496 131.38 246.496 130.655 246.496C129.929 246.496 129.929 245.773 129.929 245.05C130.655 244.327 130.655 244.327 131.38 244.327Z" fill="#EB027E"/>
<path d="M121.946 232.762C122.672 232.762 123.398 234.208 123.398 234.931C123.398 235.654 121.946 236.376 121.22 236.376C120.494 236.376 119.769 234.931 119.769 234.208C119.769 232.762 120.494 232.039 121.946 232.762Z" fill="#EB027E"/>
<path d="M107.427 242.882C108.153 242.882 108.153 243.605 108.153 243.605C108.153 244.328 107.427 244.328 107.427 244.328C106.701 244.328 106.701 243.605 106.701 243.605C105.975 242.882 106.701 242.882 107.427 242.882Z" fill="#EB027E"/>
<path d="M84.9273 266.737C85.6531 266.737 86.379 267.459 86.379 268.182C86.379 268.905 85.6531 269.628 84.9273 269.628C84.2014 269.628 83.4756 268.905 83.4756 268.182C83.4756 267.459 84.2014 266.737 84.9273 266.737Z" fill="#EB027E"/>
<path d="M76.2161 267.459C76.9419 267.459 76.9419 267.459 76.9419 268.182C76.9419 268.905 76.9419 268.905 76.2161 268.905C75.4902 268.905 75.4902 268.905 75.4902 268.182C75.4902 268.182 75.4902 267.459 76.2161 267.459Z" fill="#EB027E"/>
<path d="M95.8147 254.448C96.5406 254.448 96.5406 254.448 96.5406 255.171C96.5406 255.894 96.5406 255.894 95.8147 255.894C95.0889 255.894 95.0889 255.894 95.0889 255.171C95.0889 254.448 95.0889 254.448 95.8147 254.448Z" fill="#EB027E"/>
<path d="M85.6519 247.942C86.3778 247.942 87.1036 248.665 87.1036 249.388C87.1036 250.11 86.3778 250.833 85.6519 250.833C84.926 250.833 84.2002 250.11 84.2002 249.388C84.2002 249.388 84.2002 248.665 85.6519 247.942Z" fill="#EB027E"/>
<path d="M77.6692 259.508C78.3951 259.508 78.3951 259.508 78.3951 260.231C78.3951 260.954 78.3951 260.954 77.6692 260.954C76.9434 260.954 76.9434 260.954 76.9434 260.231C76.9434 260.231 76.9434 259.508 77.6692 259.508Z" fill="#EB027E"/>
<path d="M73.314 211.076C74.0399 211.076 74.7657 211.799 74.7657 212.522C74.7657 213.245 74.0399 213.968 73.314 213.968C72.5882 213.968 71.8623 213.245 71.8623 212.522C71.8623 211.799 72.5882 211.076 73.314 211.076Z" fill="#EB027E"/>
<path d="M64.6028 211.799C65.3287 211.799 65.3287 211.799 65.3287 212.522C65.3287 213.245 65.3287 213.245 64.6028 213.245C63.8769 213.245 63.877 213.245 63.877 212.522C63.877 211.799 63.8769 211.799 64.6028 211.799Z" fill="#EB027E"/>
<path d="M84.2014 198.064C84.9273 198.064 84.9273 198.064 84.9273 198.787C84.9273 199.51 84.9273 199.51 84.2014 199.51C83.4756 199.51 83.4756 199.51 83.4756 198.787C83.4756 198.787 83.4756 198.064 84.2014 198.064Z" fill="#EB027E"/>
<path d="M73.314 192.282C74.0399 192.282 74.7657 193.005 74.7657 193.727C74.7657 194.45 74.0399 195.173 73.314 195.173C72.5882 195.173 71.8623 194.45 71.8623 193.727C71.8623 193.005 72.5882 192.282 73.314 192.282Z" fill="#EB027E"/>
<path d="M66.0559 203.848C66.7818 203.848 66.7818 203.848 66.7818 204.571C66.7818 205.293 66.7818 205.293 66.0559 205.293C65.3301 205.293 65.3301 205.293 65.3301 204.571C65.3301 204.571 65.3301 203.848 66.0559 203.848Z" fill="#EB027E"/>
<path d="M63.8753 153.97C64.6011 154.693 64.6011 155.415 63.8753 156.138C63.1494 156.861 62.4236 156.861 61.6977 156.138C60.9719 155.415 60.9719 154.693 61.6977 153.97C62.4236 153.247 63.8753 153.247 63.8753 153.97Z" fill="#EB027E"/>
<path d="M58.0673 147.464C58.0673 147.464 58.0673 148.186 58.0673 148.909C58.0673 148.909 57.3414 148.909 56.6156 148.909C56.6156 148.909 55.8897 148.186 56.6156 147.464C57.3414 147.464 57.3414 147.464 58.0673 147.464Z" fill="#EB027E"/>
<path d="M80.5699 153.97C80.5699 153.97 80.5699 154.693 80.5699 155.415C80.5699 155.415 79.844 155.415 79.1182 155.415C79.1182 155.415 79.1182 154.693 79.1182 153.97C79.844 153.97 80.5699 153.97 80.5699 153.97Z" fill="#EB027E"/>
<path d="M79.1175 142.404C79.8433 143.127 79.8433 143.849 79.1175 144.572C78.3916 145.295 77.6658 145.295 76.9399 144.572C76.214 143.849 76.214 143.127 76.9399 142.404C76.9399 141.681 78.3916 141.681 79.1175 142.404Z" fill="#EB027E"/>
<path d="M64.5989 143.849V144.572H63.873V143.849C63.873 143.126 64.5989 143.126 64.5989 143.849Z" fill="#EB027E"/>
<path d="M61.6975 103.369C62.4234 104.092 62.4234 104.815 61.6975 105.538C60.9717 106.261 60.2458 106.261 59.52 105.538C58.7941 104.815 58.7941 104.092 59.52 103.369C60.2458 103.369 60.9717 103.369 61.6975 103.369Z" fill="#EB027E"/>
<path d="M55.1656 97.5866C55.1656 97.5866 55.1656 98.3094 55.1656 99.0323C55.1656 99.0323 54.4397 99.0323 53.7139 99.0323C53.7139 99.0323 53.7139 98.3094 53.7139 97.5866C54.4397 96.8637 55.1656 96.8637 55.1656 97.5866Z" fill="#EB027E"/>
<path d="M78.3921 104.092C78.3921 104.092 79.118 104.815 78.3921 105.538C78.3921 105.538 77.6663 105.538 76.9404 105.538C76.9404 105.538 76.9404 104.815 76.9404 104.092C76.9404 103.369 77.6663 103.369 78.3921 104.092Z" fill="#EB027E"/>
<path d="M76.2141 91.8035C76.94 92.5263 76.94 93.2492 76.2141 93.9721C75.4883 94.6949 74.7624 94.6949 74.0366 93.9721C73.3107 93.2492 73.3107 92.5263 74.0366 91.8035C74.7624 91.8035 75.4883 91.8035 76.2141 91.8035Z" fill="#EB027E"/>
<path d="M62.4251 93.249V93.9719H61.6992V93.249C61.6992 93.249 61.6992 93.249 62.4251 93.249Z" fill="#EB027E"/>
<path d="M78.391 73.0089C78.391 73.7318 76.9393 74.4546 76.2134 74.4546C75.4876 74.4546 74.7617 73.0089 74.7617 72.2861C74.7617 71.5632 76.2134 70.8403 76.9393 70.8403C77.6651 71.5632 78.391 72.2861 78.391 73.0089Z" fill="#EB027E"/>
<path d="M79.8426 62.1657C79.8426 62.8886 79.1167 62.8886 78.3909 62.8886C77.665 62.8886 77.665 62.1657 77.665 61.4428C77.665 60.72 78.3909 60.72 79.1167 60.72C79.8426 60.72 79.8426 61.4428 79.8426 62.1657Z" fill="#EB027E"/>
<path d="M90.7313 91.08C90.7313 91.8029 90.0054 91.8029 89.2796 91.8029C88.5537 91.8029 88.5537 91.08 88.5537 90.3571C88.5537 89.6343 89.2796 89.6343 90.0054 89.6343C90.0054 90.3571 90.7313 90.3571 90.7313 91.08Z" fill="#EB027E"/>
<path d="M101.619 80.2373C101.619 81.6831 100.167 82.4059 99.4415 81.6831C97.9898 81.6831 97.264 80.2373 97.9898 79.5145C97.9898 78.0687 99.4415 77.3459 100.167 78.0687C101.619 78.0687 102.345 78.7916 101.619 80.2373Z" fill="#EB027E"/>
<path d="M89.2798 66.5029C89.2798 67.2257 88.554 67.2257 88.554 67.2257C87.8281 67.2257 87.8281 66.5029 87.8281 66.5029C87.8281 65.0571 88.554 65.0571 88.554 65.0571C89.2798 65.0571 90.0057 65.78 89.2798 66.5029Z" fill="#EB027E"/>
<path d="M141.542 69.3947C141.542 70.1175 140.091 70.8404 139.365 70.8404C138.639 70.8404 137.913 69.3947 137.913 68.6718C137.913 67.9489 139.365 67.2261 140.091 67.2261C140.816 67.9489 141.542 68.6718 141.542 69.3947Z" fill="#EB027E"/>
<path d="M143.719 58.5514C143.719 59.2743 142.993 59.2743 142.267 59.2743C141.541 59.2743 141.541 58.5514 141.541 57.8286C141.541 57.1057 142.267 57.1057 142.993 57.1057C142.993 57.1057 143.719 57.8286 143.719 58.5514Z" fill="#EB027E"/>
<path d="M153.883 87.4658C153.883 88.1886 153.157 88.1886 152.431 88.1886C151.705 88.1886 151.705 87.4658 151.705 86.7429C151.705 86.02 152.431 86.02 153.157 86.02C153.883 86.7429 154.608 86.7429 153.883 87.4658Z" fill="#EB027E"/>
<path d="M165.496 76.6231C165.496 78.0688 164.044 78.7917 163.318 78.0688C161.867 78.0688 161.141 76.6231 161.867 75.9002C161.867 74.4545 163.319 73.7316 164.044 74.4545C164.77 74.4545 165.496 75.1773 165.496 76.6231Z" fill="#EB027E"/>
<path d="M153.157 62.8882C153.157 63.6111 152.431 63.6111 152.431 63.6111C151.705 63.6111 151.705 62.8882 151.705 62.8882C151.705 62.1654 152.431 62.1654 152.431 62.1654C153.157 61.4425 153.157 62.1654 153.157 62.8882Z" fill="#EB027E"/>
<path d="M211.952 75.1775C212.678 75.1775 214.129 75.1775 214.129 76.6232C214.129 77.3461 214.129 78.7918 212.678 78.7918C211.952 78.7918 210.5 78.7918 210.5 77.3461C210.5 76.6232 210.5 75.1775 211.952 75.1775Z" fill="#EB027E"/>
<path d="M200.337 78.0691C201.063 78.0691 201.789 78.0691 201.789 78.792C201.789 79.5148 201.789 80.2377 201.063 80.2377C200.337 80.2377 199.611 80.2377 199.611 79.5148C199.611 78.792 199.611 78.0691 200.337 78.0691Z" fill="#EB027E"/>
<path d="M223.564 57.1064C224.29 57.1064 225.015 57.1064 225.015 57.8293C225.015 58.5522 225.015 59.275 224.29 59.275C223.564 59.275 222.838 59.275 222.838 58.5522C222.838 57.8293 222.838 57.1064 223.564 57.1064Z" fill="#EB027E"/>
<path d="M209.048 50.6003C209.774 50.6003 211.226 51.3232 211.226 52.0461C211.226 52.7689 210.5 54.2147 209.774 54.2147C209.048 54.2147 207.597 53.4918 207.597 52.7689C207.597 52.0461 207.597 51.3232 209.048 50.6003Z" fill="#EB027E"/>
<path d="M201.062 67.2261C201.788 67.2261 201.788 67.2261 202.514 67.9489C202.514 68.6718 202.514 68.6718 201.788 69.3947C201.062 69.3947 201.062 69.3947 200.336 68.6718C200.336 67.9489 200.336 67.2261 201.062 67.2261Z" fill="#EB027E"/>
<path d="M248.241 63.6118C248.967 63.6118 249.693 63.6118 250.418 65.0575C250.418 65.7804 250.418 66.5033 248.967 67.2261C248.241 67.2261 247.515 67.2261 246.789 65.7804C246.789 65.0575 247.515 63.6118 248.241 63.6118Z" fill="#EB027E"/>
<path d="M238.805 65.7808C239.531 65.7808 239.531 65.7808 240.257 66.5036C240.257 67.2265 240.257 67.2265 239.531 67.9494C238.805 67.9494 238.805 67.9494 238.079 67.2265C238.079 66.5036 238.805 65.7808 238.805 65.7808Z" fill="#EB027E"/>
<path d="M257.678 49.1543C258.404 49.1543 258.404 49.1543 259.13 49.8772C259.13 50.6 259.13 50.6 258.404 51.3229C257.678 51.3229 257.678 51.3229 256.952 50.6C256.952 49.8772 256.952 49.1543 257.678 49.1543Z" fill="#EB027E"/>
<path d="M246.062 44.0945C246.788 44.0945 247.514 44.0945 248.24 45.5402C248.24 46.2631 248.24 46.9859 246.788 47.7088C246.062 47.7088 245.336 47.7088 244.61 46.2631C244.61 45.5402 244.61 44.8173 246.062 44.0945Z" fill="#EB027E"/>
<path d="M239.53 57.8293C240.255 57.8293 240.255 57.8293 240.255 58.5522C240.255 59.2751 240.255 59.2751 239.53 59.2751C238.804 59.2751 238.804 59.2751 238.804 58.5522C238.804 57.8293 238.804 57.8293 239.53 57.8293Z" fill="#EB027E"/>
<path d="M253.323 105.538C254.049 105.538 254.774 105.538 255.5 106.261C255.5 106.984 255.5 107.707 254.049 108.43C253.323 108.43 252.597 108.43 251.871 106.984C251.871 106.984 252.597 106.261 253.323 105.538Z" fill="#EB027E"/>
<path d="M244.614 107.706C245.34 107.706 245.34 107.706 246.066 108.429C246.066 109.152 246.066 109.152 245.34 109.875C244.614 109.875 244.614 109.875 243.889 109.152C243.163 108.429 243.889 107.706 244.614 107.706Z" fill="#EB027E"/>
<path d="M262.761 91.0806C263.487 91.0806 263.487 91.0806 264.213 91.8034C264.213 92.5263 264.213 92.5263 263.487 93.2492C262.761 93.2492 262.761 93.2492 262.035 92.5263C262.035 91.8034 262.035 91.0806 262.761 91.0806Z" fill="#EB027E"/>
<path d="M251.148 86.7434C251.874 86.7434 252.6 86.7434 253.326 88.1891C253.326 88.912 253.326 89.6349 251.874 90.3577C251.148 90.3577 250.422 90.3577 249.696 88.912C249.696 87.4663 250.422 86.7434 251.148 86.7434Z" fill="#EB027E"/>
<path d="M244.616 99.7549C245.341 99.7549 245.341 99.7549 245.341 100.478C245.341 101.201 245.341 101.201 244.616 101.201C243.89 101.201 243.89 101.201 243.89 100.478C243.89 99.7549 243.89 99.7549 244.616 99.7549Z" fill="#EB027E"/>
<path d="M255.501 153.247C256.226 153.247 256.952 153.247 257.678 154.693C257.678 155.416 257.678 156.139 256.226 156.861C255.501 156.861 254.775 156.861 254.049 155.416C254.049 154.693 254.775 153.247 255.501 153.247Z" fill="#EB027E"/>
<path d="M246.792 155.416C247.518 155.416 247.518 155.416 248.244 156.139C248.244 156.862 248.244 156.862 247.518 157.585C246.792 157.585 246.792 157.585 246.066 156.862C245.34 156.139 246.066 155.416 246.792 155.416Z" fill="#EB027E"/>
<path d="M264.939 138.79C265.665 138.79 265.665 138.79 266.39 139.512C266.39 140.235 266.39 140.235 265.665 140.958C264.939 140.958 264.939 140.958 264.213 140.235C264.213 139.512 264.213 138.79 264.939 138.79Z" fill="#EB027E"/>
<path d="M253.326 133.73C254.052 133.73 254.777 133.73 255.503 135.175C255.503 135.898 255.503 136.621 254.052 137.344C253.326 137.344 252.6 137.344 251.874 135.898C251.874 135.175 252.6 134.453 253.326 133.73Z" fill="#EB027E"/>
<path d="M246.793 146.741C247.519 146.741 247.519 146.741 247.519 147.464C247.519 148.187 247.519 148.187 246.793 148.187C246.067 148.187 246.067 148.187 246.067 147.464C246.067 147.464 246.067 147.464 246.793 146.741Z" fill="#EB027E"/>
<path d="M251.869 193.004C252.595 193.727 252.595 195.173 251.143 195.896C250.417 196.619 248.965 196.619 248.239 195.173C247.514 194.45 247.514 193.004 248.965 192.281C250.417 192.281 251.143 192.281 251.869 193.004Z" fill="#EB027E"/>
<path d="M245.337 184.33C246.063 185.053 245.337 185.775 245.337 185.775C244.612 186.498 243.886 185.775 243.886 185.775C243.886 185.053 243.886 184.33 243.886 184.33C244.612 183.607 245.337 183.607 245.337 184.33Z" fill="#EB027E"/>
<path d="M272.92 197.341C272.92 198.064 272.92 198.787 272.92 198.787C272.194 199.51 271.468 198.787 271.468 198.787C270.742 198.064 271.468 197.341 271.468 197.341C271.468 196.618 272.194 196.618 272.92 197.341Z" fill="#EB027E"/>
<path d="M272.92 182.161C273.646 182.884 273.646 184.33 272.195 185.053C271.469 185.776 270.017 185.776 269.291 184.33C268.565 183.607 268.565 182.161 270.017 181.438C270.743 180.716 272.195 180.716 272.92 182.161Z" fill="#EB027E"/>
<path d="M254.772 180.715C254.772 181.438 254.772 181.438 254.772 182.161C254.046 182.161 254.046 182.161 253.32 182.161C253.32 181.438 253.32 181.438 253.32 180.715C254.046 179.993 254.772 179.993 254.772 180.715Z" fill="#EB027E"/>
<path d="M200.336 52.7695C200.336 52.7695 199.61 52.7695 200.336 52.7695C198.884 53.4924 198.884 54.2153 198.159 54.9381C196.707 55.661 195.981 57.1067 194.529 57.8296C193.803 59.2753 192.352 59.9982 190.9 61.4439C189.448 62.8896 187.997 64.3354 187.271 65.7811C185.819 67.2268 184.367 69.3954 182.916 70.8411C181.464 72.2868 180.012 74.4554 178.561 76.624C177.109 78.7926 175.657 80.2383 174.205 82.4069C172.754 84.5755 171.302 86.7441 170.576 88.1898C169.124 90.3584 168.399 92.527 166.947 93.9728C165.495 96.1413 164.769 97.5871 164.043 99.7557C163.318 101.201 162.592 103.37 161.866 104.816C161.14 106.261 160.414 107.707 159.688 109.153C158.962 110.599 158.962 111.321 158.237 112.767C157.511 113.49 157.511 114.213 157.511 114.936C157.511 115.659 157.511 115.659 157.511 115.659C157.511 115.659 157.511 115.659 158.237 114.936C158.237 114.213 158.962 113.49 159.688 112.767C160.414 112.044 161.14 110.599 161.866 109.876C162.592 108.43 163.318 106.984 164.769 105.539C165.495 104.093 166.947 102.647 167.673 100.479C169.124 99.0328 169.85 96.8642 171.302 95.4185C172.754 93.2499 174.205 91.8042 174.931 89.6356C176.383 87.467 177.835 86.0213 178.561 83.8527C180.012 81.6841 181.464 80.2383 182.19 78.0698C183.641 75.9012 185.093 74.4554 185.819 72.2868C187.271 70.1183 187.997 68.6725 189.448 67.2268C190.9 65.7811 191.626 63.6125 192.352 62.1668C193.078 60.721 194.529 59.2753 195.255 57.8296C195.981 56.3838 196.707 55.661 197.433 54.9381C198.884 54.9381 199.61 54.2153 200.336 52.7695C199.61 52.7695 200.336 52.7695 200.336 52.7695Z" fill="#02DBF3"/>
<path d="M140.088 57.1064C140.088 57.1064 140.088 57.1064 140.088 57.8293C140.088 58.5522 140.088 59.275 140.088 60.7208C140.088 62.8894 140.814 66.5037 140.814 70.118C140.814 72.2866 141.54 74.4552 141.54 76.6238C141.54 78.7924 142.266 80.961 142.266 83.8524C142.266 86.021 142.992 88.9124 142.992 91.8039C143.717 94.6954 143.717 96.8639 144.443 99.7554C145.169 102.647 145.169 104.815 145.895 107.707C146.621 110.598 146.621 112.767 147.347 115.658C148.073 120.718 148.798 125.056 149.524 129.393C150.25 133.007 150.976 136.621 150.976 138.79C150.976 140.236 151.702 140.959 151.702 141.682C151.702 142.404 151.702 142.404 151.702 142.404C151.702 142.404 151.702 142.404 151.702 141.682C151.702 140.959 151.702 140.236 151.702 138.79C151.702 136.621 150.976 133.007 150.976 129.393C150.25 125.056 150.25 120.718 149.524 115.658C149.524 113.49 148.798 110.598 148.798 107.707C148.798 104.815 148.073 102.647 148.073 99.7554C147.347 96.8639 147.347 94.6954 146.621 91.8039C145.895 88.9124 145.895 86.7439 145.169 83.8524C144.443 81.6838 144.443 78.7924 143.717 76.6238C142.992 74.4552 142.992 72.2866 142.266 70.118C141.54 66.5037 140.814 62.8894 140.088 60.7208C140.088 59.275 139.362 58.5522 139.362 57.8293C140.088 57.1064 140.088 57.1064 140.088 57.1064Z" fill="#EB027E"/>
<path d="M84.9248 59.2747C85.6507 59.9975 85.6507 60.7204 86.3765 60.7204C87.1024 62.1661 88.5541 63.6118 90.0058 65.0576C91.4575 66.5033 93.6351 68.6719 95.8126 70.8405C96.5385 71.5633 97.9902 73.0091 99.4419 74.4548C100.894 75.9005 101.619 76.6234 103.071 78.0691C104.523 79.5148 105.249 80.2377 106.7 81.6834C108.152 83.1292 108.878 83.852 110.33 85.2978C112.507 87.4664 114.685 89.6349 116.862 91.0807C119.04 92.5264 120.492 93.9721 121.943 95.4179C122.669 96.1407 122.669 96.1407 123.395 96.8636L124.121 97.5864C124.121 97.5864 124.121 97.5864 124.121 96.8636C124.121 96.8636 123.395 96.1407 123.395 95.4179C122.669 93.9721 121.218 92.5264 119.766 90.3578C118.314 88.1892 116.862 86.0206 114.685 83.852C113.959 82.4063 112.507 81.6834 111.781 80.2377C110.33 78.792 109.604 78.0691 108.152 76.6234C106.7 75.1777 105.975 74.4548 104.523 73.0091C103.071 71.5633 102.345 70.8405 100.894 70.1176C98.716 67.949 95.8126 66.5033 93.6351 65.0576C91.4575 63.6118 89.2799 62.1661 88.5541 61.4433C86.3765 59.9975 85.6507 59.9975 84.9248 59.2747Z" fill="#2471BA"/>
<path d="M79.8428 90.3581C79.8428 90.3581 80.5686 90.3581 79.8428 90.3581C81.2945 91.081 81.2945 91.8038 82.0203 91.8038C83.472 93.2496 85.6496 94.6953 88.553 96.141C91.4564 98.3096 95.0857 100.478 97.9891 102.647C99.4408 104.093 101.618 104.815 103.796 106.261C105.974 107.707 107.425 109.153 109.603 109.875C111.78 111.321 113.232 112.767 115.41 113.49C117.587 114.935 119.039 116.381 121.216 117.104C124.846 119.273 127.749 122.164 130.653 124.333C133.556 126.501 135.734 127.947 137.185 129.393C137.911 130.116 138.637 130.116 139.363 130.838C140.089 130.838 140.089 131.561 140.089 131.561C140.089 131.561 140.089 131.561 139.363 130.838C139.363 130.116 138.637 130.116 137.911 129.393C136.459 127.947 135.008 125.778 132.104 123.61C129.927 121.441 127.023 118.55 123.394 115.658C121.942 114.213 119.765 112.767 118.313 111.321C116.861 109.875 114.684 108.43 112.506 106.984C110.329 105.538 108.877 104.093 106.699 103.37C104.522 101.924 103.07 101.201 100.893 99.7554C97.2633 97.5868 93.634 95.4182 90.0047 93.9724C87.1013 92.5267 84.1979 91.081 82.0203 90.3581C81.2945 89.6353 80.5686 89.6353 79.8428 89.6353C80.5686 90.3581 79.8428 90.3581 79.8428 90.3581Z" fill="#2E60A2"/>
<path d="M31.2122 102.647C31.2122 102.647 31.2122 102.647 31.938 102.647C32.6639 102.647 33.3897 102.647 34.1156 103.37C36.2932 103.37 39.1966 104.093 42.1 104.815C45.7293 105.538 49.3585 106.261 53.7137 106.984C55.8912 107.707 58.0688 107.707 60.2464 108.43C63.1498 108.43 65.3273 109.153 67.5049 109.153C69.6825 109.876 71.86 109.875 74.0376 110.598C76.2152 111.321 78.3927 112.044 80.5703 112.044C84.9254 113.49 88.5547 114.213 92.184 114.936C95.8132 115.658 98.7167 116.381 100.168 117.104C100.894 117.104 101.62 117.827 102.346 117.827C103.072 117.827 103.072 117.827 103.072 117.827C103.072 117.827 103.072 117.827 102.346 117.104C101.62 117.104 100.894 116.381 100.168 116.381C98.7167 115.658 95.8132 114.213 92.9098 112.767C90.0064 111.321 86.3771 109.875 82.022 108.43C79.8444 107.707 77.6669 106.984 75.4893 106.261C73.3117 105.538 71.1342 104.815 68.9566 104.815C66.7791 104.093 64.6015 104.093 61.6981 103.37C59.5205 102.647 57.3429 102.647 55.1654 101.924C50.8103 101.201 46.4551 100.478 42.8259 100.478C39.1966 100.478 35.5673 100.478 33.3897 100.478C31.938 100.478 31.2122 100.478 30.4863 100.478C31.2122 102.647 31.2122 102.647 31.2122 102.647Z" fill="#02DBF3"/>
<path d="M0 158.307H0.725855C1.45171 158.307 2.17756 157.584 3.62927 157.584C5.08098 156.861 6.53269 156.861 8.71025 156.139C10.162 155.416 12.3395 154.693 14.5171 153.97C16.6947 153.247 18.8722 152.524 21.7756 151.801C24.6791 151.079 26.8566 150.356 29.76 149.633C32.6635 148.91 35.5669 148.187 38.4703 147.464C41.3737 146.741 44.2771 146.019 47.1805 145.296C50.8098 144.573 53.7132 143.85 56.6167 143.85C59.5201 143.127 62.4235 143.127 65.3269 142.404C68.2303 142.404 71.1337 141.681 73.3113 141.681C76.2147 141.681 78.3923 140.958 80.5699 140.958C82.7474 140.958 84.925 140.958 86.3767 140.236C87.8284 140.236 90.006 140.236 90.7318 140.236C92.1835 140.236 92.9094 140.236 93.6352 140.236C94.3611 140.236 94.3611 140.236 94.3611 140.236C94.3611 140.236 94.3611 140.236 93.6352 140.236C92.9094 140.236 92.1835 140.236 90.7318 140.236C89.2801 140.236 87.8284 140.236 86.3767 140.236C84.925 140.236 82.7474 140.236 80.5699 140.236C78.3923 140.236 76.2147 140.236 73.3113 140.236C71.1337 140.236 68.2303 140.236 65.3269 140.958C62.4235 140.958 59.5201 141.681 56.6167 141.681C53.7132 142.404 50.8098 142.404 47.9064 143.127C45.003 143.85 42.0996 144.573 39.1961 145.296C36.2927 146.019 33.3893 146.741 30.4859 147.464C27.5825 148.187 24.6791 148.91 22.5015 150.356C19.5981 151.079 17.4205 151.801 15.2429 153.247C13.0654 153.97 10.8878 154.693 8.71025 156.139C6.53269 156.861 5.08098 157.584 3.62927 158.307C2.17756 159.03 1.45171 159.753 0.725855 159.753C0.725855 158.307 0 158.307 0 158.307Z" fill="#2E60A2"/>
<path d="M124.122 153.247C124.122 153.247 123.396 153.247 122.67 153.247C121.945 153.247 120.493 153.247 119.041 152.525C117.589 152.525 116.138 152.525 113.96 151.802C111.783 151.802 109.605 151.802 106.702 151.079C103.798 151.079 101.621 151.079 98.7172 151.079C95.8138 151.079 92.9104 151.079 89.2811 151.802C86.3777 151.802 82.7484 152.525 79.1192 152.525C75.4899 153.247 71.8606 153.247 68.9572 153.97C65.3279 154.693 61.6987 155.416 58.7952 156.139C55.166 156.862 52.2625 157.585 48.6333 159.03C45.004 159.753 42.1006 161.199 39.1972 161.922C36.2938 162.645 33.3903 164.09 30.4869 165.536C27.5835 166.982 25.4059 167.705 23.2284 168.428C21.0508 169.15 19.5991 170.596 17.4215 171.319C16.6957 172.042 15.244 172.765 14.5181 173.488C13.7923 174.211 13.0664 174.211 13.0664 174.211C13.0664 174.211 13.7923 174.211 14.5181 173.488C15.244 173.488 16.6957 172.765 18.1474 172.042C19.5991 171.319 21.7767 170.596 23.9542 169.873C26.1318 169.15 28.3094 168.428 31.2128 166.982C34.1162 166.259 36.2938 164.813 39.923 164.09C42.8264 163.368 45.7299 161.922 49.3591 161.199C52.2626 160.476 55.8918 159.753 59.5211 158.307C63.1504 157.585 66.7796 156.862 69.6831 156.139C73.3123 155.416 76.9416 154.693 79.845 154.693C83.4743 153.97 86.3777 153.97 90.007 153.247C92.9104 153.247 96.5397 152.525 99.4431 152.525C102.347 152.525 105.25 152.525 107.427 151.802C110.331 151.802 112.508 151.802 114.686 151.802C116.864 151.802 118.315 151.802 119.767 151.802C121.219 151.802 122.67 151.802 123.396 151.802C123.396 153.247 124.122 153.247 124.122 153.247Z" fill="#02DBF3"/>
<path d="M134.283 158.308C134.283 158.308 133.557 158.308 132.831 158.308C132.106 158.308 130.654 159.03 129.202 159.03C126.299 159.753 121.944 161.199 116.863 162.645C114.685 163.368 111.782 164.091 108.878 165.536C105.975 166.259 103.071 167.705 100.168 169.151C97.2646 170.596 94.3612 172.042 90.7319 173.488C87.8285 174.933 84.1992 176.379 81.2958 178.548C78.3924 179.994 74.7631 182.162 71.8597 183.608C68.9562 185.776 66.0528 187.222 63.1494 189.391C57.3426 193.005 52.2616 197.342 47.9065 200.957C43.5513 204.571 39.9221 207.462 37.7445 209.631C36.2928 211.077 35.5669 211.8 34.8411 212.522C34.1152 213.245 34.1152 213.245 34.1152 213.245C34.1152 213.245 34.1152 213.245 34.8411 212.522C35.5669 211.8 36.2928 211.077 37.7445 210.354C39.9221 208.185 43.5513 205.294 47.9065 201.679C52.2616 198.065 57.3426 194.451 63.1494 190.836C66.0528 188.668 68.9562 187.222 71.8597 185.054C74.7631 182.885 77.6665 181.439 81.2958 179.994C84.1992 178.548 87.8285 176.379 90.7319 174.933C93.6353 173.488 97.2646 172.042 100.168 170.596C103.071 169.151 105.975 167.705 108.878 166.982C111.782 165.536 114.685 164.813 116.863 164.091C121.944 162.645 125.573 161.199 128.476 160.476C129.928 159.753 131.38 159.753 132.106 159.753C133.557 159.03 134.283 158.308 134.283 158.308Z" fill="#02DBF3"/>
<path d="M84.1982 166.259C82.7465 166.259 82.7465 166.982 81.2948 166.982C79.8431 167.705 76.9397 168.428 74.0363 169.15C71.1329 169.873 68.2294 171.319 64.6002 172.765C63.1485 173.488 60.9709 174.211 59.5192 174.933C58.0675 175.656 55.8899 176.379 53.7124 177.825C52.2606 178.548 50.8089 179.993 48.6314 180.716C47.1797 181.439 45.0021 182.885 43.5504 183.608C39.9211 185.776 37.0177 187.945 34.8401 190.114C31.9367 192.282 29.7592 193.728 28.3074 195.174C27.5816 195.896 26.8557 196.619 26.8557 196.619C26.1299 196.619 26.1299 197.342 26.1299 197.342C26.1299 197.342 26.1299 197.342 26.8557 196.619C27.5816 196.619 27.5816 195.896 29.0333 195.174C30.485 194.451 32.6626 193.005 35.566 191.559C38.4694 190.114 41.3728 187.945 45.0021 186.499C46.4538 185.776 48.6314 184.331 50.0831 183.608C51.5348 182.885 53.7124 181.439 55.1641 180.716C57.3416 179.993 58.7933 178.548 60.9709 177.825C62.4226 177.102 64.6002 176.379 66.0519 174.933C69.6812 173.488 72.5846 172.042 75.488 170.596C78.3914 169.15 80.569 168.428 82.0207 167.705C82.7465 166.982 83.4724 166.982 84.1982 166.259Z" fill="#0288C9"/>
<path d="M127.026 169.873C127.026 169.873 127.026 169.873 126.3 169.873C125.574 169.873 124.848 170.596 124.122 170.596C121.945 171.319 119.041 172.765 115.412 174.21C111.783 175.656 107.427 177.825 103.798 179.993C101.621 181.439 99.443 182.162 97.2655 183.608C95.0879 185.053 92.9104 186.499 90.7328 187.945C88.5552 189.391 86.3777 190.836 84.2001 192.282C82.0225 193.728 79.845 195.174 78.3933 197.342C74.764 200.234 71.1347 203.848 68.2313 206.016C65.3279 208.908 63.1503 211.077 61.6986 213.245C60.9728 213.968 60.2469 214.691 59.521 215.414C58.0693 216.137 58.0693 216.137 58.0693 216.137C58.0693 216.137 58.0693 216.137 58.7952 215.414C59.521 214.691 60.2469 214.691 60.9728 213.968C62.4245 212.522 65.3279 210.354 68.2313 207.462C71.1347 205.294 74.764 202.402 79.1191 198.788C81.2967 197.342 83.4742 195.896 84.926 194.451C87.1035 193.005 89.2811 191.559 91.4586 190.113C93.6362 188.668 95.8138 187.222 97.9913 185.776C100.169 184.331 102.346 182.885 104.524 182.162C108.879 179.993 112.508 177.102 116.138 175.656C119.767 173.488 122.67 172.042 124.122 171.319C124.848 170.596 125.574 170.596 126.3 169.873C127.026 169.873 127.026 169.873 127.026 169.873Z" fill="#0288C9"/>
<path d="M99.4417 191.559C99.4417 191.559 99.4417 191.559 98.7159 192.282C97.99 192.282 97.2642 193.005 96.5383 193.727C95.0866 195.173 92.1832 196.619 89.2798 198.787C86.3764 200.956 83.4729 203.848 79.8437 206.739C78.392 208.185 76.2144 209.63 74.7627 211.799C73.311 213.245 71.1334 215.413 69.6817 216.859C68.23 218.305 66.0524 220.473 64.6007 222.642C63.149 224.811 61.6973 226.256 60.2456 228.425C57.3422 232.039 55.1646 235.654 52.9871 238.545C50.8095 241.436 49.3578 244.328 47.9061 245.774C47.1802 246.496 47.1802 247.219 46.4544 247.942C46.4544 248.665 45.7285 248.665 45.7285 248.665C45.7285 248.665 45.7285 248.665 46.4544 247.942C46.4544 247.219 47.1802 246.496 47.9061 245.774C49.3578 244.328 50.8095 241.436 53.7129 238.545C55.8905 235.654 58.7939 232.762 61.6973 229.148C63.149 227.702 64.6007 225.533 66.0524 224.088C67.5042 222.642 68.9559 220.473 71.1334 219.028C72.5851 217.582 74.7627 215.413 76.2144 213.968C77.6661 212.522 79.8437 210.353 81.2954 208.908C84.1988 206.016 87.8281 203.125 90.0056 200.233C92.909 198.065 95.0866 195.896 96.5383 194.45C97.99 193.005 98.7159 192.282 99.4417 191.559Z" fill="#2E60A2"/>
<path d="M122.668 179.27C122.668 179.27 122.668 179.27 121.942 179.993C121.217 180.716 120.491 180.716 119.765 182.162C117.587 183.607 115.41 185.776 112.506 189.39C111.055 190.836 109.603 192.282 107.425 194.45C105.974 195.896 103.796 198.065 102.344 200.233C100.893 202.402 98.7151 204.571 97.2634 206.016C95.8117 208.185 93.6341 210.353 92.1824 212.522C90.7307 214.691 89.279 216.859 87.1014 219.028C85.6497 221.196 84.198 223.365 82.7463 225.534C79.8429 229.871 77.6653 234.208 75.4878 237.822C73.3102 241.437 71.8585 244.328 71.1326 246.497C70.4068 247.219 70.4068 248.665 69.6809 248.665C69.6809 249.388 68.9551 249.388 68.9551 249.388C68.9551 249.388 68.9551 249.388 69.6809 248.665C69.6809 247.942 70.4068 247.219 71.1326 246.497C72.5844 244.328 74.0361 241.437 76.2136 237.822C78.3912 234.208 80.5688 229.871 83.4722 226.256C84.9239 224.088 86.3756 221.919 87.8273 219.751C89.279 217.582 90.7307 215.413 92.9083 213.245C94.36 211.076 96.5375 208.908 97.9893 206.739C99.441 204.571 101.619 202.402 103.07 200.233C104.522 198.065 106.7 196.619 108.151 194.45C109.603 193.005 111.055 190.836 112.506 189.39C115.41 186.499 117.587 183.607 119.765 182.162C120.491 181.439 121.217 180.716 122.668 179.27C122.668 179.993 122.668 179.27 122.668 179.27Z" fill="#EB027E"/>
<path d="M142.994 166.982C142.994 166.982 142.994 166.982 142.268 167.705C141.543 168.427 140.817 169.15 140.091 169.873C139.365 170.596 137.913 172.042 136.462 173.487C135.01 174.933 133.558 176.379 132.106 178.548C130.655 179.993 129.203 182.162 127.751 184.33C126.3 186.499 124.122 188.668 122.67 190.836C121.219 193.005 119.041 195.896 117.589 198.065C116.138 200.956 114.686 203.125 113.234 206.016C111.783 208.908 110.331 211.076 108.879 213.968C107.427 216.859 105.976 219.028 105.25 221.919C103.798 224.811 103.072 226.979 102.346 229.148C101.621 231.317 100.169 233.485 99.443 235.654C98.7172 237.822 97.9913 239.991 97.2654 241.437C96.5396 242.882 96.5396 244.328 95.8137 245.774C95.0879 247.22 95.0879 247.942 95.0879 248.665C95.0879 249.388 95.0879 249.388 95.0879 249.388C95.0879 249.388 95.0879 249.388 95.8137 248.665C95.8137 247.942 96.5396 247.22 97.2654 245.774C97.9913 244.328 98.7172 242.882 99.443 241.437C100.169 239.991 100.895 237.822 101.621 235.654C102.346 233.485 103.798 231.317 104.524 229.148C105.976 226.979 106.702 224.088 108.153 221.919C109.605 219.751 111.057 216.859 112.508 213.968C113.96 211.076 115.412 208.908 116.864 206.016C118.315 203.125 119.767 200.956 121.219 198.065C122.67 195.896 124.122 193.005 125.574 190.836C127.025 188.668 128.477 186.499 129.929 184.33C131.381 182.162 132.832 179.993 134.284 178.548C135.736 176.379 137.187 174.933 137.913 173.487C139.365 172.042 140.091 170.596 140.817 169.873C141.543 169.15 142.268 167.705 142.994 167.705C142.994 166.982 142.994 166.982 142.994 166.982Z" fill="#02DBF3"/>
<path d="M148.799 167.704C148.799 167.704 148.799 167.704 148.073 168.427C148.073 169.15 147.347 169.873 146.621 170.596C145.895 171.319 145.895 172.764 145.17 174.21C144.444 175.656 143.718 177.102 142.992 179.27C142.266 180.716 141.54 182.884 140.814 185.053C140.089 187.222 139.363 189.39 138.637 191.559C137.911 193.727 137.185 195.896 136.459 198.787C135.733 200.956 135.008 203.848 134.282 206.016C133.556 208.185 132.83 211.076 132.83 213.245C132.104 215.413 132.104 218.305 131.378 220.473C130.652 222.642 130.652 224.811 129.927 226.979C129.927 229.148 129.201 231.316 129.201 232.762C129.201 234.931 128.475 236.376 128.475 237.822C128.475 239.268 128.475 240.714 127.749 241.436C127.749 242.882 127.749 243.605 127.749 244.328C127.749 245.051 127.749 245.051 127.749 245.051C127.749 245.051 127.749 245.051 127.749 244.328C127.749 243.605 127.749 242.882 128.475 242.159C128.475 241.436 129.201 239.991 129.201 238.545C129.201 237.099 129.927 235.654 130.652 233.485C131.378 231.316 131.378 229.871 132.104 227.702C132.83 225.533 132.83 223.365 133.556 221.196C134.282 219.028 135.008 216.859 135.008 213.968C135.733 211.799 136.459 208.908 137.185 206.739C137.911 204.57 138.637 201.679 139.363 199.51C140.089 197.342 140.814 194.45 141.54 192.282C142.266 190.113 142.992 187.945 143.718 185.776C144.444 183.607 145.17 181.439 145.17 179.993C145.895 178.547 145.895 176.379 146.621 174.933C147.347 173.487 147.347 172.042 148.073 171.319C148.073 170.596 148.799 169.15 148.799 169.15C148.799 167.704 148.799 167.704 148.799 167.704Z" fill="#EB027E"/>
<path d="M124.122 211.076C124.122 211.076 124.122 211.076 123.396 211.799C123.396 212.522 122.67 213.245 121.944 213.968C121.218 214.69 121.218 216.136 120.492 217.582C119.767 219.028 119.041 220.473 118.315 221.919C117.589 223.365 116.863 225.533 116.137 226.979C115.412 229.148 114.686 230.593 113.96 232.762C113.234 234.931 112.508 237.099 111.782 239.268C111.056 241.436 110.331 243.605 109.605 245.774C108.879 247.942 108.153 250.111 108.153 252.279C107.427 254.448 107.427 256.617 106.701 258.785C105.975 260.954 105.975 263.122 105.25 265.291C105.25 267.46 104.524 268.905 104.524 271.074C104.524 272.52 103.798 274.688 103.798 276.134C103.798 277.58 103.798 279.025 103.798 279.748C103.798 280.471 103.798 281.194 103.798 281.917C103.798 282.64 103.798 282.64 103.798 282.64C103.798 282.64 103.798 282.64 103.798 281.917C103.798 281.194 103.798 280.471 104.524 279.748C104.524 279.025 105.25 277.58 105.25 276.134C105.25 274.688 105.975 273.242 105.975 271.797C106.701 270.351 106.701 268.182 107.427 266.014C108.153 263.845 108.153 261.677 108.879 260.231C109.605 258.062 110.331 255.894 110.331 253.725C111.056 251.557 111.782 249.388 112.508 247.219C113.234 245.051 113.96 242.882 114.686 240.714C115.412 238.545 116.137 236.376 116.863 234.208C117.589 232.039 118.315 229.871 119.041 228.425C119.767 226.256 120.492 224.811 120.492 222.642C121.218 221.196 121.944 219.028 121.944 218.305C122.67 216.859 122.67 215.413 123.396 214.69C123.396 213.968 124.122 213.245 124.122 212.522C123.396 211.076 124.122 211.076 124.122 211.076Z" fill="#0288C9"/>
<path d="M148.801 211.799C148.801 211.799 148.801 212.522 148.801 213.245C148.801 213.967 148.801 214.69 148.075 216.136C147.349 219.027 147.349 222.642 146.623 227.702C146.623 229.87 145.898 232.762 145.898 234.93C145.898 237.822 145.172 240.713 145.172 243.605C145.172 246.496 144.446 249.388 144.446 253.002C144.446 255.894 143.72 259.508 143.72 262.399C143.72 265.291 143.72 268.905 142.994 271.797C142.994 274.688 142.994 277.579 142.994 281.194C142.994 286.977 142.994 292.76 142.994 297.097C142.994 301.434 142.994 305.771 142.994 308.663C142.994 310.108 142.994 310.831 142.994 311.554C142.994 312.277 142.994 313 142.994 313C142.994 313 142.994 312.277 142.994 311.554C142.994 310.831 142.994 310.108 142.994 308.663C142.994 305.771 142.994 302.157 143.72 297.097C143.72 292.76 144.446 286.977 144.446 281.194C144.446 278.302 144.446 275.411 145.172 272.519C145.172 269.628 145.898 266.014 145.898 263.122C145.898 260.231 146.623 256.616 146.623 253.725C146.623 250.833 147.349 247.942 147.349 244.328C147.349 241.436 148.075 238.545 148.075 235.653C148.075 232.762 148.801 230.593 148.801 228.425C149.527 223.365 149.527 219.75 149.527 216.859C149.527 215.413 149.527 214.69 149.527 213.967C148.801 212.522 148.801 211.799 148.801 211.799Z" fill="#0288C9"/>
<path d="M154.607 162.645C154.607 162.645 154.607 162.645 154.607 163.367C154.607 164.09 154.607 164.813 154.607 166.259C154.607 167.705 154.607 169.15 154.607 170.596C154.607 172.042 154.607 174.21 154.607 176.379C154.607 178.548 154.607 180.716 154.607 183.608C154.607 185.776 154.607 188.668 155.333 191.559C155.333 194.451 155.333 197.342 156.059 200.233C156.059 203.125 156.785 206.016 156.785 208.908C156.785 211.799 157.511 214.691 157.511 217.582C157.511 220.474 158.237 223.365 158.237 226.257C158.237 229.148 158.963 231.317 158.963 234.208C158.963 236.377 159.688 239.268 159.688 241.437C159.688 243.605 160.414 245.774 160.414 247.22C160.414 248.665 161.14 250.834 161.14 251.557C161.14 253.003 161.14 253.725 161.866 254.448C161.866 255.171 161.866 255.171 161.866 255.171V254.448C161.866 253.725 161.866 253.003 161.866 251.557C161.866 250.111 161.866 248.665 161.866 247.22C161.866 245.774 161.866 243.605 161.866 241.437C161.866 239.268 161.866 237.1 161.866 234.208C161.866 232.039 161.866 229.148 161.14 226.257C161.14 223.365 161.14 220.474 160.414 217.582C160.414 214.691 159.688 211.799 159.688 208.908C159.688 206.016 158.963 203.125 158.963 200.233C158.963 197.342 158.237 194.451 158.237 191.559C158.237 188.668 157.511 186.499 157.511 183.608C157.511 181.439 156.785 178.548 156.785 176.379C156.785 174.21 156.059 172.042 156.059 170.596C156.059 169.15 155.333 166.982 155.333 166.259C155.333 164.813 155.333 164.09 154.607 163.367V162.645Z" fill="#02DBF3"/>
<path d="M162.593 179.993C162.593 180.716 162.593 180.716 162.593 181.439C162.593 182.162 162.593 183.607 162.593 185.053C162.593 186.499 163.319 188.667 163.319 190.836C163.319 191.559 164.044 193.004 164.044 193.727C164.044 194.45 164.77 195.896 164.77 196.619C164.77 197.342 165.496 198.787 165.496 199.51C165.496 200.233 166.222 201.679 166.222 202.402C166.948 204.57 167.674 206.016 167.674 207.462C168.4 208.907 168.4 210.353 169.125 211.076C169.125 211.799 169.125 211.799 169.851 211.799V212.522C169.851 212.522 169.851 212.522 169.851 211.799C169.851 211.799 169.851 211.076 169.851 210.353C169.851 209.63 169.851 208.185 169.851 206.739C169.851 205.293 169.125 203.125 169.125 200.956C169.125 200.233 169.125 198.787 168.4 198.065C168.4 197.342 167.674 195.896 167.674 195.173C167.674 194.45 166.948 193.004 166.948 192.282C166.948 191.559 166.222 190.113 166.222 189.39C165.496 187.222 164.77 185.776 164.77 184.33C164.044 182.884 163.319 181.439 163.319 180.716C162.593 180.716 162.593 180.716 162.593 179.993Z" fill="#2E60A2"/>
<path d="M173.48 238.545C173.48 239.268 173.48 239.991 173.48 240.714C173.48 242.159 173.48 243.605 173.48 245.774C173.48 247.942 173.48 250.111 173.48 253.002C173.48 254.448 173.48 255.894 173.48 256.617C173.48 258.062 173.48 259.508 174.206 260.954C174.206 262.399 174.206 263.845 174.932 265.291C174.932 266.737 174.932 268.182 175.658 268.905C175.658 271.797 176.384 273.965 176.384 276.134C176.384 278.302 177.11 279.748 177.11 281.194C177.11 281.917 177.11 281.917 177.11 282.64V283.362C177.11 283.362 177.11 283.362 177.11 282.64C177.11 282.64 177.11 281.917 177.11 281.194C177.11 279.748 177.11 278.302 177.11 276.134C177.11 273.965 177.11 271.797 177.11 268.905C177.11 267.459 177.11 266.014 177.11 265.291C177.11 263.845 177.11 262.399 177.11 260.954C177.11 259.508 177.11 258.062 176.384 256.617C176.384 255.171 176.384 253.725 175.658 253.002C175.658 250.111 174.932 247.942 174.206 245.774C173.48 243.605 173.48 242.159 173.48 240.714C174.206 239.268 174.206 239.268 173.48 238.545Z" fill="#2E60A2"/>
<path d="M172.027 187.944C172.027 187.944 172.027 187.944 172.753 188.667C172.753 189.39 173.479 190.113 174.205 190.836C174.931 193.004 176.382 195.896 177.834 198.787C178.56 200.233 179.286 202.402 180.738 204.57C181.463 206.739 182.915 208.907 183.641 211.076C184.367 213.245 185.819 215.413 186.544 217.582C187.27 219.75 188.722 221.919 189.448 224.088C190.174 226.256 191.625 228.425 192.351 230.593C193.077 232.762 193.803 234.93 195.255 237.099C196.706 241.436 198.158 245.773 199.61 248.665C201.062 252.279 201.787 255.171 202.513 257.339C202.513 258.062 203.239 259.508 203.239 259.508C203.239 260.231 203.239 260.231 203.239 260.231C203.239 260.231 203.239 260.231 203.239 259.508C203.239 258.785 203.239 258.062 202.513 257.339C201.787 255.171 201.062 252.279 200.336 248.665C199.61 245.051 198.158 240.713 196.706 236.376C195.981 234.208 195.255 232.039 194.529 229.87C193.803 227.702 193.077 225.533 191.625 222.642C190.9 220.473 189.448 218.305 188.722 216.136C187.996 213.967 186.544 211.799 185.819 209.63C185.093 207.462 183.641 205.293 182.915 203.847C182.189 201.679 180.738 200.233 180.012 198.787C178.56 195.173 176.382 193.004 175.657 190.836C174.931 190.113 174.931 189.39 174.205 188.667C172.027 188.667 172.027 187.944 172.027 187.944Z" fill="#EB027E"/>
<path d="M185.094 237.1C185.094 237.822 185.094 238.545 185.82 239.268C185.82 240.714 186.545 242.883 187.271 245.774C187.997 248.665 188.723 251.557 189.449 254.448C190.175 255.894 190.175 258.063 190.901 259.508C191.626 260.954 191.626 263.123 192.352 264.568C193.078 266.014 193.078 268.183 193.804 269.628C194.53 271.074 194.53 273.243 195.256 274.689C195.982 278.303 196.707 281.194 197.433 283.363C198.159 286.254 198.885 288.423 198.885 289.869C198.885 290.592 199.611 291.314 199.611 291.314C199.611 292.037 199.611 292.037 199.611 292.037C199.611 292.037 199.611 292.037 199.611 291.314C199.611 290.592 199.611 290.592 199.611 289.146C199.611 287.7 198.885 285.531 198.885 282.64C198.159 279.749 198.159 276.857 197.433 273.243C197.433 271.797 196.707 269.628 196.707 268.183C195.982 266.737 195.982 264.568 195.256 263.123C194.53 261.677 194.53 259.508 193.804 258.063C193.078 256.617 193.078 254.448 192.352 253.003C191.626 250.111 190.175 246.497 189.449 244.328C188.723 241.437 187.997 239.991 187.271 238.545C185.82 238.545 185.094 237.822 185.094 237.1Z" fill="#0288C9"/>
<path d="M173.48 168.427C173.48 168.427 173.48 168.427 174.206 169.15C174.932 169.873 175.658 170.596 176.384 171.319C177.11 172.042 178.561 173.487 180.013 174.933C181.465 176.379 182.917 177.824 184.368 179.27C185.82 180.716 187.998 182.885 189.449 185.053C191.627 187.222 193.079 189.39 195.256 191.559C197.434 193.727 198.885 195.896 201.063 198.065C203.241 200.233 204.692 203.125 206.87 205.293C209.047 207.462 210.499 210.353 212.677 212.522C214.854 214.691 216.306 217.582 217.758 219.751C219.209 221.919 221.387 224.088 222.839 226.256C224.29 228.425 225.742 230.594 227.194 232.762C228.645 234.931 229.371 236.376 230.823 237.822C231.549 239.268 233.001 240.714 233.726 242.159C234.452 243.605 235.178 244.328 235.178 245.051C235.904 245.774 235.904 245.774 235.904 245.774C235.904 245.774 235.904 245.774 235.178 245.051C235.178 244.328 234.452 243.605 233.726 242.159C233.001 240.714 232.275 239.268 231.549 237.822C230.823 236.376 230.097 234.208 228.645 232.039C227.194 229.871 226.468 227.702 225.016 225.533C223.564 223.365 222.113 221.196 220.661 218.305C219.209 216.136 217.032 213.245 215.58 211.076C214.128 208.908 211.951 206.016 209.773 203.848C207.596 201.679 206.144 198.788 203.966 196.619C201.789 194.45 199.611 192.282 198.16 190.113C195.982 187.945 193.804 185.776 192.353 184.33C190.175 182.162 188.723 180.716 186.546 179.27C185.094 177.824 182.917 176.379 181.465 174.933C180.013 173.487 178.561 172.764 177.836 172.042C176.384 171.319 175.658 170.596 174.932 169.873C173.48 168.427 173.48 168.427 173.48 168.427Z" fill="#02DBF3"/>
<path d="M188.721 163.367C188.721 163.367 188.721 163.367 189.447 164.09C190.173 164.09 190.899 164.813 191.625 165.536C193.076 166.259 193.802 166.982 195.254 167.705C196.706 168.427 198.157 169.15 200.335 170.596C202.512 171.319 203.964 172.765 206.142 174.21C208.319 175.656 210.497 176.379 212.674 177.825C214.852 179.27 217.03 180.716 219.207 182.162C221.385 183.608 223.562 185.053 226.466 186.499C228.643 187.945 230.821 189.391 233.724 191.559C235.902 193.005 238.079 194.451 240.257 196.619C242.434 198.065 244.612 199.511 246.064 200.956C248.241 202.402 249.693 203.848 251.145 205.294C252.596 206.739 254.048 208.185 255.5 208.908C256.952 210.354 257.677 211.076 259.129 211.799C259.855 212.522 260.581 213.245 261.307 213.968C262.033 214.691 262.033 214.691 262.033 214.691C262.033 214.691 262.033 214.691 261.307 213.968C260.581 213.245 259.855 212.522 259.129 211.799C258.403 211.076 256.952 209.631 256.226 208.908C254.774 207.462 253.322 206.016 251.871 204.571C250.419 203.125 248.967 201.679 246.79 200.233C244.612 198.788 243.16 196.619 240.983 195.173C238.805 193.728 236.628 191.559 234.45 190.113C232.273 188.668 230.095 186.499 227.192 185.053C225.014 183.608 222.111 182.162 219.933 180.716C217.755 179.27 214.852 177.825 212.674 176.379C210.497 174.933 208.319 174.21 206.142 172.765C203.964 171.319 201.787 170.596 199.609 169.873C197.431 169.15 195.98 168.427 194.528 167.705C193.076 166.982 191.625 166.259 190.173 166.259C188.721 165.536 187.995 165.536 187.27 165.536C189.447 163.367 188.721 163.367 188.721 163.367Z" fill="#2E60A2"/>
<path d="M253.322 226.256C253.322 226.256 251.144 222.642 246.789 218.305C246.063 216.859 244.612 216.136 243.16 214.69C241.708 213.244 240.982 211.799 239.531 210.353C238.079 208.907 236.627 207.462 235.176 206.016C233.724 204.57 232.272 203.124 230.82 201.679C229.369 200.233 227.917 198.787 225.74 197.341C224.288 195.896 222.836 194.45 221.384 193.727C218.481 190.836 215.578 188.667 212.674 187.221C207.593 183.607 203.964 181.438 203.964 181.438C203.964 181.438 207.593 184.33 212.674 187.944C214.852 190.113 217.755 192.281 221.384 195.173C222.836 196.619 224.288 198.064 225.74 199.51C227.191 200.956 228.643 202.402 230.095 203.847C231.546 205.293 232.998 206.739 234.45 208.184C235.901 209.63 237.353 211.076 238.805 212.522C240.257 213.967 241.708 215.413 243.16 216.859C244.612 218.305 245.338 219.75 246.789 220.473C250.419 223.365 253.322 226.256 253.322 226.256Z" fill="#EB027E"/>
<path d="M284.535 187.945C284.535 187.945 283.809 187.945 283.083 187.222C282.357 186.499 280.905 185.776 279.454 185.053C276.55 183.607 272.195 180.716 267.114 178.547C264.211 177.102 261.307 175.656 258.404 174.21C255.5 172.765 251.871 171.319 248.968 169.873C245.338 168.427 242.435 166.982 238.806 166.259C235.177 164.813 231.547 164.09 227.918 163.367C224.289 162.644 220.659 161.199 217.03 160.476C213.401 159.753 209.772 159.03 206.868 158.307C200.336 157.584 193.803 156.862 187.996 156.139C182.189 156.139 177.834 156.139 174.931 156.139C173.479 156.139 172.027 156.139 171.301 156.139C170.575 156.139 169.85 156.139 169.85 156.139C169.85 156.139 170.575 156.139 171.301 156.139C172.027 156.139 173.479 156.139 174.931 156.139C177.834 156.139 182.915 156.139 187.996 156.862C193.803 157.584 199.61 158.307 206.868 159.03C210.497 159.753 214.127 160.476 217.03 161.199C220.659 161.922 224.289 162.644 227.918 164.09C231.547 164.813 235.177 166.259 238.806 166.982C242.435 168.427 246.064 169.15 248.968 170.596C252.597 172.042 255.5 173.487 258.404 174.21C261.307 175.656 264.211 177.102 267.114 177.825C272.195 179.993 276.55 182.885 280.179 184.33C281.631 185.053 283.083 185.776 283.809 186.499C283.809 187.945 284.535 187.945 284.535 187.945Z" fill="#2E60A2"/>
<path d="M292.521 165.536C292.521 165.536 291.795 165.536 291.795 164.813C291.069 164.813 290.343 164.09 288.892 163.367C287.44 162.644 285.988 161.921 283.811 161.199C281.633 160.476 280.181 159.753 278.004 159.03C275.826 158.307 273.649 157.584 270.745 156.861C267.842 156.139 265.664 155.416 262.761 154.693C259.858 153.97 256.954 153.247 254.051 152.524C251.147 151.801 248.244 151.078 245.34 151.078C242.437 150.356 239.534 150.356 236.63 149.633C233.727 149.633 230.823 148.91 227.92 148.91C225.016 148.91 222.839 148.91 219.936 148.91C217.758 148.91 214.855 148.91 212.677 148.91C210.499 148.91 208.322 148.91 206.87 148.91C205.418 148.91 203.967 148.91 202.515 149.633C201.063 149.633 200.337 149.633 199.612 149.633C198.886 149.633 198.886 149.633 198.886 149.633H199.612C200.337 149.633 201.063 149.633 202.515 149.633C203.967 149.633 205.418 149.633 206.87 149.633C208.322 149.633 210.499 149.633 212.677 149.633C214.855 149.633 217.032 149.633 219.936 150.356C222.113 150.356 225.016 151.078 227.92 151.078C230.823 151.078 233.727 151.801 236.63 151.801C239.534 152.524 242.437 152.524 245.34 153.247C248.244 153.97 251.147 153.97 254.051 154.693C256.954 155.416 259.858 156.139 262.761 156.139C265.664 156.861 268.568 157.584 270.745 158.307C272.923 159.03 275.826 159.753 278.004 160.476C280.181 161.199 282.359 161.921 283.811 161.921C285.262 162.644 287.44 162.644 288.166 163.367C289.618 164.09 290.343 164.09 291.069 164.09C291.795 165.536 292.521 165.536 292.521 165.536Z" fill="#02DBF3"/>
<path d="M286.713 140.236C286.713 140.236 285.987 140.236 285.262 140.236C284.536 140.236 283.084 139.513 281.632 139.513C278.729 138.79 273.648 138.067 268.567 137.344C265.664 137.344 262.76 136.621 259.857 136.621C256.953 136.621 253.324 135.898 250.421 135.898C247.517 135.898 243.888 135.898 240.259 135.898C236.629 135.898 233.726 135.898 230.097 136.621C226.467 136.621 223.564 137.344 219.935 137.344C217.031 138.067 213.402 138.067 210.499 138.79C204.692 139.513 198.885 140.958 194.53 142.404C190.175 143.85 185.82 145.296 183.642 146.019C182.19 146.741 181.464 146.741 180.739 147.464C180.013 147.464 180.013 148.187 180.013 148.187C180.013 148.187 180.739 148.187 181.464 148.187C182.19 148.187 182.916 147.464 184.368 147.464C187.271 146.741 190.901 145.296 195.982 144.573C201.062 143.127 206.143 142.404 212.676 141.681C215.58 140.958 219.209 140.958 222.112 140.236C225.016 139.513 228.645 139.513 232.274 139.513C235.904 139.513 238.807 138.79 242.436 138.79C246.065 138.79 248.969 138.79 252.598 138.79C255.502 138.79 259.131 138.79 262.034 138.79C264.938 138.79 267.841 138.79 270.745 139.513C275.826 140.236 280.181 140.236 283.81 140.958C285.262 140.958 286.713 141.681 287.439 141.681C285.987 140.236 286.713 140.236 286.713 140.236Z" fill="#EB027E"/>
<path d="M270.019 113.49C269.293 113.49 268.567 113.49 267.841 113.49C266.389 113.49 264.212 113.49 261.308 114.213C259.131 114.213 256.227 114.935 253.324 115.658C251.872 115.658 250.421 116.381 248.969 116.381C247.517 116.381 246.066 117.104 244.614 117.827C243.162 118.55 241.71 118.55 240.259 119.273C238.807 119.995 237.355 119.995 235.904 120.718C233 121.441 230.823 122.887 228.645 123.61C226.467 124.333 225.016 125.056 224.29 125.778C223.564 125.778 223.564 126.501 222.838 126.501H222.112C222.112 126.501 222.112 126.501 222.838 126.501C223.564 126.501 223.564 126.501 224.29 125.778C225.742 125.778 227.919 125.056 230.097 124.333C232.274 123.61 235.178 122.887 238.081 122.164C239.533 121.441 240.985 121.441 242.436 120.718C243.888 119.995 245.34 119.995 246.791 119.273C248.243 118.55 249.695 118.55 251.146 117.827C252.598 117.104 254.05 117.104 255.502 116.381C258.405 115.658 260.583 114.935 262.76 114.213C264.938 113.49 266.389 112.767 267.841 112.767C268.567 113.49 269.293 113.49 270.019 113.49Z" fill="#0288C9"/>
<path d="M229.371 105.538C229.371 105.538 229.371 105.538 228.645 105.538C227.919 105.538 227.194 106.261 226.468 106.261C224.29 106.984 221.387 107.707 218.483 109.152C214.854 110.598 211.225 112.044 207.596 113.49C205.418 114.212 203.966 115.658 201.789 116.381C199.611 117.104 198.159 118.55 195.982 119.272C193.804 120.718 192.353 121.441 190.175 122.887C187.997 124.333 186.546 125.055 185.094 126.501C181.465 128.67 178.561 130.838 176.384 133.007C174.206 135.175 172.029 136.621 170.577 138.067C169.851 138.79 169.125 139.513 169.125 139.513L168.399 140.236C168.399 140.236 168.399 140.236 169.125 139.513C169.851 139.513 170.577 138.79 171.303 138.067C172.755 137.344 174.932 135.175 177.836 133.73C180.739 132.284 183.642 130.115 187.272 127.947C188.723 127.224 190.901 125.778 193.078 125.055C195.256 123.61 196.708 122.887 198.885 122.164C201.063 121.441 202.515 119.995 204.692 119.272C206.87 118.55 208.321 117.104 210.499 116.381C214.128 114.212 217.758 112.767 220.661 111.321C223.564 109.875 226.468 108.43 227.919 107.707C227.919 106.984 227.919 106.261 229.371 105.538Z" fill="#02DBF3"/>
<path d="M246.065 78.792C246.065 78.792 245.339 78.792 244.613 79.5149C243.887 79.5149 243.161 80.2377 241.71 80.9606C238.806 82.4063 235.177 83.852 230.822 86.0206C228.644 87.4664 226.467 88.1892 223.563 89.6349C221.386 91.0807 218.482 92.5264 216.305 93.9721C213.401 95.4179 211.224 96.8636 208.32 99.0322C205.417 100.478 203.239 102.646 200.336 104.092C198.158 106.261 195.255 107.707 193.077 109.875C190.9 112.044 187.996 113.489 185.819 115.658C181.464 119.272 177.109 122.887 174.205 126.501C170.576 129.392 168.398 132.284 166.221 134.453C165.495 135.175 164.769 135.898 164.043 136.621C163.317 137.344 163.317 137.344 163.317 137.344C163.317 137.344 163.317 137.344 164.043 136.621C164.769 135.898 165.495 135.175 166.221 134.453C168.398 132.284 171.302 130.115 174.205 126.501C177.834 123.61 181.464 119.995 186.545 116.381C188.722 114.212 190.9 112.767 193.803 110.598C195.981 108.429 198.884 106.984 201.062 104.815C203.965 102.646 206.143 101.201 209.046 99.755C211.95 98.3093 214.127 96.1407 217.031 94.695C219.208 93.2493 222.112 91.8035 224.289 90.3578C226.467 88.9121 228.644 87.4664 230.822 86.7435C235.177 84.5749 238.806 82.4063 240.984 81.6835C242.436 80.9606 243.161 80.2377 243.887 80.2377C245.339 78.792 246.065 78.792 246.065 78.792Z" fill="#EB027E"/>
<path d="M209.773 78.0693C209.047 78.0693 209.047 78.7922 208.321 78.7922C207.595 79.5151 206.143 80.2379 204.692 80.9608C203.24 81.6837 201.788 83.1294 200.336 84.5751C199.611 85.298 198.885 86.0208 198.159 86.7437C197.433 87.4666 196.707 88.1894 195.981 88.9123C195.255 89.6352 194.53 90.358 193.804 91.0809C193.078 91.8037 192.352 92.5266 191.626 93.2495C190.174 94.6952 189.449 96.1409 188.723 97.5867C187.997 99.0324 187.271 99.7552 186.545 100.478C186.545 101.201 186.545 101.201 185.819 101.201L186.545 100.478C187.271 99.7552 188.723 99.0324 189.449 98.3095C190.9 97.5867 192.352 96.1409 193.804 94.6952C194.53 93.9723 195.255 93.2495 195.981 92.5266C196.707 91.8037 197.433 91.0809 198.159 90.358C198.885 89.6352 199.611 88.9123 200.336 88.1894C201.062 87.4666 201.788 86.7437 202.514 86.0208C203.966 84.5751 204.692 83.1294 206.143 82.4065C206.869 80.9608 207.595 80.2379 208.321 79.5151C209.773 78.7922 209.773 78.7922 209.773 78.0693Z" fill="#0288C9"/>
<path d="M187.997 195.173C187.997 195.896 188.723 196.619 188.723 196.619C189.449 198.065 190.175 199.51 190.9 200.956C191.626 203.125 193.078 205.293 194.53 207.462C195.256 208.908 195.981 209.63 196.707 211.076C197.433 212.522 198.159 213.245 198.885 214.69C199.611 216.136 200.337 216.859 201.062 218.305C201.788 219.75 202.514 220.473 203.24 221.919C204.692 224.088 205.418 226.256 206.869 228.425C207.595 230.593 209.047 232.039 209.773 232.762C209.773 233.485 210.499 233.485 210.499 234.208V234.931C210.499 234.931 210.499 234.931 210.499 234.208C210.499 234.208 210.499 233.485 209.773 232.762C209.773 231.316 209.047 229.871 208.321 227.702C207.595 225.533 206.869 223.365 205.418 221.196C204.692 219.75 203.966 219.028 203.966 217.582C203.24 216.136 202.514 215.413 201.788 213.968C201.062 212.522 200.337 211.799 199.611 210.353C198.885 208.908 198.159 208.185 197.433 206.739C195.981 204.57 194.53 202.402 193.078 200.233C191.626 198.787 190.9 197.342 190.175 195.896C188.723 195.896 188.723 195.896 187.997 195.173Z" fill="#0288C9"/>
<path d="M108.151 50.6006C108.151 50.6006 137.911 85.2981 142.992 127.947C142.992 127.947 142.267 75.9008 108.151 50.6006Z" fill="#02DBF3"/>
<path d="M207.596 15.1802C207.596 15.1802 161.141 46.2633 156.786 109.152C156.786 109.152 156.786 41.2033 207.596 15.1802Z" fill="#0288C9"/>
<path d="M219.209 200.956C219.209 200.956 251.872 229.148 257.679 266.736C257.679 266.736 239.533 217.582 219.209 200.956Z" fill="#0288C9"/>
<path d="M61.6967 203.847C61.6967 203.847 34.8401 218.305 22.5005 253.002C21.7747 252.279 39.921 224.088 61.6967 203.847Z" fill="#EB027E"/>
<path d="M249.695 185.776C249.695 185.776 288.891 204.571 296.876 247.22C296.876 247.22 283.81 207.462 249.695 185.776Z" fill="#02DBF3"/>
<path d="M295.424 231.316L294.699 222.642L293.247 231.316L289.618 224.088L291.795 233.485C291.795 233.485 284.537 229.871 283.811 229.148C283.085 228.425 290.343 237.099 290.343 237.099L278.004 234.931L289.618 240.714L278.73 244.328L290.343 243.605L285.988 250.834L291.795 246.497L286.714 259.508L294.699 248.665L295.424 254.448L296.876 248.665L302.683 263.122L299.78 248.665L304.861 253.725L299.78 245.774L314.297 252.28L299.78 244.328L319.378 245.051L301.231 242.882L312.119 239.268L303.409 240.714L305.586 234.931L299.78 239.268L304.861 222.642L297.602 237.099L298.328 230.594L295.424 231.316Z" fill="#7DE8F2"/>
<path d="M82.7463 54.2151L82.0205 47.7094L81.2946 54.2151L78.3912 48.4322L79.8429 55.6609C79.8429 55.6609 74.0361 52.7694 74.0361 52.0465C73.3102 51.3237 79.117 58.5523 79.117 58.5523L68.9551 57.1066L77.6653 61.4438L69.6809 63.6124L78.3912 62.8895L74.7619 68.6724L79.117 65.0581L75.4878 75.1782L82.0205 66.5038L82.7463 70.841L84.198 65.781L88.5531 76.6239L86.3756 65.781L90.0049 69.3953L86.3756 63.6124L97.2634 68.6724L85.6497 62.1666H100.893L87.1014 60.7209L95.8117 57.8295L89.279 59.2752L90.7307 54.938L86.3756 58.5523L90.0049 45.5408L84.198 56.3837L84.9239 51.3237L82.7463 54.2151Z" fill="#2471BA"/>
<path d="M95.0869 242.882L94.361 236.376L93.6351 242.882L90.7317 237.099L92.1834 244.328C92.1834 244.328 86.3766 241.436 86.3766 240.714C85.6507 239.991 91.4576 247.219 91.4576 247.219L82.0215 245.774L90.7317 250.111L82.7473 253.002L91.4576 252.279L87.8283 257.339L92.1834 253.725L88.5542 263.845L95.0869 255.171L95.8127 259.508L97.2644 254.448L101.62 265.291L99.442 254.448L103.071 258.062L98.7161 253.002L109.604 258.062L97.9903 251.557H113.233L99.442 250.111L108.152 247.219L101.62 248.665L103.071 244.328L98.7161 247.942L102.345 234.931L96.5386 245.774L97.2644 240.714L95.0869 242.882Z" fill="#7DE8F2"/>
<path d="M23.9527 246.496L23.2269 242.159L22.501 246.496L20.3234 242.882L21.7751 247.942C21.7751 247.942 18.1459 245.773 17.42 245.773L21.0493 250.111L14.5166 248.665L20.3234 251.556L15.2425 253.002L21.0493 252.279L18.8717 255.894L21.7751 253.725L19.5976 260.231L23.9527 254.448V257.339L24.6786 254.448L27.582 261.676L26.1303 254.448L29.0337 257.339L26.1303 253.002L33.3888 256.616L26.1303 252.279H36.2922L26.8561 250.833L32.663 248.665L28.3078 249.388L29.7595 246.496L26.8561 248.665L29.7595 239.99L26.1303 247.219V243.605L23.9527 246.496Z" fill="#E96AB0"/>
<path d="M243.886 73.7319L243.16 69.3947L242.435 73.7319L240.257 70.1176L241.709 75.1776C241.709 75.1776 238.079 73.009 237.354 73.009L240.983 77.3462L234.45 75.9005L240.257 78.7919L234.45 80.2377L240.257 79.5148L238.079 83.1291L240.983 80.9605L239.531 87.4663L243.886 81.6834V84.5748L244.612 81.6834L247.516 88.912L246.064 81.6834L248.967 84.5748L246.064 80.9605L253.322 84.5748L246.064 80.2377H256.226L246.79 78.7919L252.597 76.6233L248.241 77.3462L249.693 74.4548L246.79 76.6233L249.693 67.949L246.064 75.1776V71.5633L243.886 73.7319Z" fill="#E96AB0"/>
<path d="M201.788 259.508V255.894L201.062 259.508L199.611 256.617L200.336 260.954C200.336 260.954 197.433 259.508 196.707 258.785L199.611 262.399L193.804 261.677L198.885 263.845L194.53 265.291L199.611 264.568L197.433 267.46L199.611 265.291L197.433 271.074L201.062 266.014V268.182L201.788 265.291L203.966 271.797L202.514 265.291L204.692 267.46L202.514 263.845L208.321 266.737L201.788 263.122H210.498L202.514 262.399L206.869 260.954L203.24 261.677L203.966 259.508L203.24 261.677L205.417 254.448L202.514 260.954V258.062L201.788 259.508Z" fill="#E96AB0"/>
<path d="M87.1021 133.73C87.1021 133.73 37.0182 127.224 11.6133 140.958C11.6133 140.235 47.906 119.272 87.1021 133.73Z" fill="#0288C9"/>
<path d="M150.251 156.862C150.251 156.862 147.348 135.176 107.426 125.779C107.426 125.779 140.089 122.887 150.251 156.862Z" fill="#02DBF3"/>
<path d="M150.976 91.0813C150.976 91.0813 152.428 44.818 165.493 33.2522C165.493 33.2522 144.443 46.2637 150.976 91.0813Z" fill="#02DBF3"/>
<path d="M136.461 150.356C136.461 150.356 100.169 117.104 58.7949 122.164C58.7949 122.164 96.5393 121.441 136.461 150.356Z" fill="#EB027E"/>
<path d="M169.124 151.801C169.124 151.801 183.641 135.898 212.675 129.393C212.675 129.393 183.641 128.67 169.124 151.801Z" fill="#02DBF3"/>
<path d="M173.481 117.104C173.481 117.104 160.415 127.224 158.963 148.187C158.963 148.187 158.238 120.718 173.481 117.104Z" fill="#02DBF3"/>
<path d="M23.9542 193.005L23.2284 187.222L22.5025 193.005L20.325 187.945L21.7767 194.451C21.7767 194.451 17.4215 191.559 16.6957 191.559C15.9698 191.559 21.0508 196.619 21.0508 196.619L13.0664 195.174L20.325 198.788L13.0664 200.956L20.325 200.234L17.4215 204.571L21.7767 201.679L18.8732 210.354L23.9542 203.125V206.739L25.4059 202.402L29.0352 211.799L26.8576 202.402L30.4869 205.294L26.8576 200.234L36.2938 205.294L26.8576 200.234H39.1972L27.5835 198.788L34.842 196.619L29.0352 197.342L30.4869 193.728L26.8576 196.619L30.4869 185.776L25.4059 195.174V190.836L23.9542 193.005Z" fill="#2471BA"/>
<path d="M278.729 180.716L278.003 176.379V180.716L275.825 177.102L277.277 182.162C277.277 182.162 273.648 179.993 272.922 179.993L276.551 184.33L270.019 182.885L275.825 185.776L270.019 187.222L275.825 186.499L273.648 190.113L276.551 187.945L274.374 195.173L278.729 189.39V192.282L279.455 189.39L282.358 196.619L280.906 189.39L283.81 192.282L280.906 187.945L288.165 191.559L280.906 187.222H291.068L281.632 185.776L287.439 183.607L283.084 184.33L284.536 181.439L281.632 183.607L284.536 174.933L280.906 182.162V178.547L278.729 180.716Z" fill="#2471BA"/>
<path d="M205.416 8.67437L204.69 1.44573L203.238 8.67437L199.609 2.16859L201.786 10.1201L195.254 6.50577C194.528 5.78291 201.061 13.7344 201.061 13.7344L190.173 11.5658L200.335 16.6259L190.899 19.5173L200.335 18.7945L196.706 24.5774L201.786 20.963L197.431 32.5289L204.69 23.1316L205.416 28.1917L206.867 23.1316L211.948 35.4203L209.771 23.1316L214.126 27.4688L209.771 20.963L222.11 26.746L209.771 20.2402L226.466 20.963L210.497 18.7945L219.933 15.903L212.674 17.3487L214.852 12.2887L208.319 14.4573L212.674 0L206.142 12.2887L206.867 7.22864L205.416 8.67437Z" fill="#2471BA"/>
<path d="M129.956 225.127C129.956 225.127 148.279 214.133 179.018 223.454C179.018 223.454 172.629 231.579 153.462 231.579C134.296 231.579 129.956 225.127 129.956 225.127Z" fill="#F7B76B"/>
<path d="M129.956 225.127C129.956 225.127 148.279 214.133 179.018 223.454C179.018 223.454 172.629 231.579 153.462 231.579C134.296 231.579 129.956 225.127 129.956 225.127Z" fill="#F7B76B"/>
<path opacity="0.42" d="M142.493 222.259C142.975 221.781 143.457 221.183 143.939 220.586C134.898 222.139 129.956 225.007 129.956 225.007C129.956 225.007 131.403 227.158 136.224 228.951C138.274 226.68 140.564 224.529 142.493 222.259Z" fill="#D79A3F"/>
<path opacity="0.42" d="M174.316 222.139C173.11 224.29 171.784 226.56 170.578 228.711C176.728 226.321 179.14 223.334 179.14 223.334C177.451 222.975 175.884 222.497 174.316 222.139Z" fill="#D79A3F"/>
<path d="M129.955 225.127L129.231 231.579C129.231 231.579 139.237 238.988 154.666 238.988C170.096 238.988 179.74 231.221 179.74 231.221L179.258 223.454C179.258 223.454 167.806 231.221 154.666 231.221C141.527 231.221 129.955 225.127 129.955 225.127Z" fill="#F7B76B"/>
<path opacity="0.42" d="M171.3 227.516C168.287 228.831 164.55 230.025 160.451 230.623C160.21 233.252 160.09 235.881 159.849 238.629C165.032 238.032 169.372 236.598 172.626 235.164C172.265 232.654 171.783 230.145 171.3 227.516Z" fill="#FFE0BB"/>
<path opacity="0.55" d="M146.229 230.384C141.648 229.548 137.55 228.233 134.657 227.038C134.295 229.309 133.933 231.699 133.451 233.969C136.224 235.403 140.443 237.076 145.626 238.032C145.747 235.522 145.988 233.013 146.229 230.384Z" fill="#D79A3F"/>
<path d="M150.929 209.234C150.929 209.234 148.638 219.152 142.973 224.768C142.973 224.768 152.978 232.894 166.117 224.768C166.117 224.768 159.005 218.316 157.92 209.234H150.929Z" fill="#C08638"/>
<path opacity="0.35" d="M154.426 217.36C156.234 217.121 158.042 216.523 159.85 215.926C159.006 213.894 158.283 211.744 157.921 209.234H150.809C150.809 209.234 149.965 212.699 148.157 216.643C150.448 217.24 152.617 217.599 154.426 217.36Z" fill="#402F16"/>
<path opacity="0.55" d="M153.343 209.234H152.981C151.775 220.706 148.761 227.636 148.761 227.636C150.449 228.114 152.499 228.473 154.79 228.353C154.911 228.353 153.102 224.29 153.343 209.234Z" fill="#765425"/>
<path d="M154.546 212.699C159.14 212.699 162.864 210.88 162.864 208.636C162.864 206.392 159.14 204.573 154.546 204.573C149.952 204.573 146.229 206.392 146.229 208.636C146.229 210.88 149.952 212.699 154.546 212.699Z" fill="#C08638"/>
<path d="M159.609 205.41C160.694 206.366 160.694 208.278 154.064 208.397C153.461 208.397 146.831 208.039 149.122 205.529C147.313 206.246 146.229 207.322 146.229 208.636C146.229 210.906 149.965 212.699 154.546 212.699C159.127 212.699 162.864 210.906 162.864 208.636C162.864 207.322 161.538 206.127 159.609 205.41Z" fill="#F7B76B"/>
<path d="M163.707 169.921C160.573 171.594 156.836 171.833 153.34 171.713C150.206 171.594 147.675 171.116 144.902 170.16C146.711 175.178 151.532 191.071 151.532 206.725C154.787 208.876 157.439 206.725 157.439 206.725C157.439 206.725 156.836 187.008 164.31 169.801C164.19 169.921 164.069 169.921 163.707 169.921Z" fill="#C08638"/>
<path opacity="0.55" d="M153.343 171.713C151.896 171.713 150.57 171.474 149.243 171.235C149.967 174.222 153.464 204.693 153.102 207.441C153.343 207.561 153.584 207.561 153.825 207.561C153.825 207.68 154.549 171.713 153.343 171.713Z" fill="#765425"/>
<path d="M190.347 117.343C190.347 117.343 209.393 97.6266 220.965 104.438C236.154 113.4 230.006 136.223 209.634 147.933C192.878 157.612 186.248 156.657 185.525 161.675C184.802 166.814 191.07 164.543 189.865 162.392C189.865 162.392 187.092 163.348 187.454 160.839C187.815 158.21 196.133 156.776 195.169 166.336C194.807 170.04 189.021 174.103 183.235 170.757C179.739 168.725 178.895 163.229 180.944 158.807C187.574 145.066 200.232 149.606 210.84 133.953C222.291 117.104 211.924 112.683 207.344 114.356C202.522 116.148 196.495 120.689 189.503 127.859L190.347 117.343Z" fill="#F7B76B"/>
<path opacity="0.55" d="M201.8 108.022C195.29 112.205 190.348 117.343 190.348 117.343L189.504 127.858C192.638 124.632 195.652 122.003 198.304 119.852C199.027 115.789 200.232 111.846 201.8 108.022Z" fill="#D79A3F"/>
<path opacity="0.55" d="M183.598 162.273C183.839 155.701 189.022 150.921 189.866 149.487C186.37 151.519 183.356 154.028 181.066 158.927C178.896 163.349 179.861 168.845 183.356 170.877C184.924 171.833 186.491 172.191 187.937 172.072C185.888 169.323 183.477 166.097 183.598 162.273Z" fill="#D79A3F"/>
<path opacity="0.55" d="M211.806 135.148C222.534 119.375 216.025 113.28 210.721 112.922C210.118 112.922 209.515 113.041 208.912 113.28C208.069 113.519 207.345 113.997 206.381 114.356C206.381 114.356 206.381 114.356 206.502 114.356C207.225 114.117 208.069 113.997 209.033 113.997C213.975 113.639 221.329 118.777 210.962 133.953C200.474 149.487 187.938 145.185 181.308 158.449C189.023 148.412 201.198 150.562 211.806 135.148Z" fill="#956942"/>
<path opacity="0.42" d="M217.228 118.897C220.122 116.746 223.015 114.476 225.667 112.086C224.582 110.174 223.135 108.501 221.206 107.067C218.796 109.218 216.505 111.608 214.215 113.998C215.661 115.312 216.626 116.985 217.228 118.897Z" fill="#D79A3F"/>
<path opacity="0.42" d="M224.821 125.35C221.808 127.023 218.674 128.576 215.539 130.249C213.611 133.475 211.2 136.582 208.548 139.33C214.093 138.613 218.674 136.343 223.616 133.356C225.545 130.249 226.75 127.142 227.353 124.035C226.509 124.394 225.665 124.872 224.821 125.35Z" fill="#D79A3F"/>
<path opacity="0.42" d="M200.472 145.902C196.855 148.173 193.239 149.726 189.743 151.757C192.395 151.638 194.806 152.116 197.458 152.713C200.592 151.399 204.45 149.487 209.271 146.739C209.754 146.5 210.236 146.141 210.718 145.783C209.995 145.902 209.392 146.022 208.669 146.022C206.017 146.261 203.244 146.141 200.472 145.902Z" fill="#D79A3F"/>
<path d="M118.745 117.343C118.745 117.343 99.6988 97.6266 88.1265 104.438C72.9378 113.4 79.0856 136.223 99.4577 148.053C116.213 157.732 122.843 156.776 123.567 161.795C124.29 166.933 118.022 164.663 119.227 162.512C119.227 162.512 122 163.468 121.638 160.958C121.276 158.329 112.959 156.896 113.923 166.455C114.285 170.159 120.071 174.222 125.857 170.876C129.353 168.845 130.197 163.348 128.147 158.927C121.517 145.185 108.86 149.726 98.2522 134.072C86.6799 117.104 97.0468 112.683 101.628 114.356C106.449 116.148 112.477 120.689 119.468 127.859L118.745 117.343Z" fill="#F7B76B"/>
<path opacity="0.55" d="M111.273 115.55C111.273 117.223 111.393 118.896 111.514 120.569C114.046 122.6 116.699 124.99 119.473 127.858L118.749 117.343C118.749 117.343 115.373 113.877 110.67 110.412C111.152 111.966 111.393 113.758 111.273 115.55Z" fill="#D79A3F"/>
<path opacity="0.55" d="M128.031 158.808C126.222 154.864 123.81 152.475 121.157 150.682C122.363 152.475 123.328 154.506 123.931 156.657C125.378 162.273 124.534 167.531 121.157 172.072C122.604 172.072 124.292 171.713 125.86 170.877C129.236 168.845 130.201 163.229 128.031 158.808Z" fill="#D79A3F"/>
<path opacity="0.55" d="M97.2891 135.148C86.5606 119.375 93.07 113.28 98.374 112.922C98.9768 112.922 99.5795 113.041 100.182 113.28C101.026 113.519 101.749 113.997 102.714 114.356C102.714 114.356 102.714 114.356 102.593 114.356C101.87 114.117 101.026 113.997 100.062 113.997C95.1193 113.639 87.7661 118.777 98.1329 133.953C108.62 149.487 121.157 145.185 127.787 158.449C120.072 148.412 107.777 150.562 97.2891 135.148Z" fill="#956942"/>
<path opacity="0.42" d="M91.861 118.897C88.9679 116.746 86.0748 114.476 83.4229 112.086C84.5078 110.174 85.9543 108.501 87.883 107.067C90.2939 109.218 92.5843 111.608 94.8746 113.998C93.3076 115.312 92.3432 116.985 91.861 118.897Z" fill="#D79A3F"/>
<path opacity="0.42" d="M84.2678 125.35C87.2814 127.023 90.4156 128.576 93.5498 130.249C95.4785 133.475 97.8894 136.582 100.541 139.33C94.9963 138.613 90.4156 136.343 85.4732 133.356C83.5445 130.249 82.3391 127.142 81.7363 124.035C82.5801 124.394 83.424 124.872 84.2678 125.35Z" fill="#D79A3F"/>
<path opacity="0.42" d="M108.497 145.902C112.114 148.173 115.73 149.726 119.226 151.757C116.574 151.638 114.163 152.116 111.511 152.713C108.377 151.399 104.519 149.487 99.6975 146.739C99.2153 146.5 98.7332 146.141 98.251 145.783C98.9742 145.902 99.577 146.022 100.3 146.022C103.073 146.261 105.845 146.141 108.497 145.902Z" fill="#D79A3F"/>
<path opacity="0.35" d="M160.452 181.034C161.416 177.329 162.622 173.506 164.189 169.801C164.189 169.801 163.948 169.801 163.586 169.801C160.452 171.474 156.715 171.713 153.219 171.594C150.085 171.474 147.554 170.996 144.781 170.04C145.505 171.952 146.71 175.656 147.795 180.197C151.652 182.348 156.233 182.348 160.452 181.034Z" fill="#402F16"/>
<path d="M154.546 111.249L116.815 108.142C116.815 108.142 119.347 143.034 127.544 157.374C133.451 167.65 143.215 175.178 154.667 175.178C166.118 175.178 175.883 167.65 181.789 157.374C189.986 143.034 192.518 108.142 192.518 108.142L154.546 111.249Z" fill="#F7B76B"/>
<path opacity="0.42" d="M165.516 126.185C165.396 134.789 164.673 143.512 163.588 151.518C162.503 159.405 159.007 169.084 156.476 175.178C165.637 168.964 169.736 158.449 172.99 149.845C176.245 141.361 177.812 132.518 179.018 123.556C174.557 125.11 169.615 125.946 165.516 126.185Z" fill="#FFE0BB"/>
<path opacity="0.55" d="M150.448 125.708C143.577 125.11 136.224 124.154 129.835 122.242C130.679 128.695 131.402 135.267 132.728 141.481C135.742 154.745 142.01 165.977 151.051 174.939C152.136 175.059 153.341 175.178 154.547 175.178C154.547 175.178 149.484 165.26 149.484 145.424C149.484 138.613 149.725 132.041 150.448 125.708Z" fill="#D79A3F"/>
<path opacity="0.55" d="M191.312 117.821C192.036 112.086 192.277 108.262 192.277 108.262L154.546 111.369L116.815 108.262C116.815 108.262 117.057 112.325 117.78 118.18C117.78 118.06 155.631 131.563 191.312 117.821Z" fill="#D79A3F"/>
<path d="M154.548 95.5952C131.886 95.5952 112.96 104.199 112.96 104.199V114.834C112.96 114.834 135.984 120.808 155.633 120.808C175.402 120.808 196.016 114.834 196.016 114.834V104.199C196.016 104.199 177.211 95.5952 154.548 95.5952Z" fill="#F7B76B"/>
<path d="M153.463 111.129C131.162 111.129 117.541 105.991 112.96 104.438C112.96 105.991 112.96 114.834 112.96 114.834C112.96 114.834 135.984 120.808 155.633 120.808C175.402 120.808 196.016 114.834 196.016 114.834C196.016 114.834 196.016 104.677 196.016 104.199C189.024 107.186 174.076 111.129 153.463 111.129Z" fill="#F7B76B"/>
<path opacity="0.55" d="M134.656 109.815C130.195 109.218 126.338 108.381 123.083 107.545C123.083 110.652 122.963 113.878 122.722 116.985C126.097 117.702 130.075 118.419 134.415 119.016C134.656 115.909 134.656 112.922 134.656 109.815Z" fill="#D79A3F"/>
<path opacity="0.42" d="M175.764 109.457C173.352 109.815 170.82 110.174 168.167 110.413C168.287 113.639 168.046 116.865 167.685 120.092C170.82 119.733 173.834 119.375 176.608 118.897C176.487 115.79 176.125 112.683 175.764 109.457Z" fill="#FFE0BB"/>
<path opacity="0.42" d="M193.967 105.035C192.762 105.513 191.315 105.991 189.747 106.469C190.109 109.695 190.35 112.922 190.712 116.267C192.038 115.909 193.123 115.67 193.967 115.431C193.726 111.966 193.726 108.5 193.967 105.035Z" fill="#D79A3F"/>
<path opacity="0.55" d="M143.455 120.091C145.143 120.211 146.711 120.33 148.399 120.45C148.52 117.343 148.64 114.117 148.64 111.01C146.831 110.89 145.143 110.89 143.576 110.771C143.576 113.878 143.576 116.984 143.455 120.091Z" fill="#D79A3F"/>
<path d="M154.548 95.5952C131.886 95.5952 112.96 104.199 112.96 104.199C112.96 104.199 112.96 104.318 112.96 104.438C117.42 105.991 131.042 109.934 153.463 109.934C174.076 109.934 189.024 107.186 196.016 104.199C196.016 104.199 177.211 95.5952 154.548 95.5952Z" fill="#F7B76B"/>
<path opacity="0.42" d="M154.548 95.5952C131.886 95.5952 112.96 104.199 112.96 104.199C112.96 104.199 112.96 104.318 112.96 104.438C117.42 105.991 131.283 111.966 153.584 111.966C174.197 111.966 188.903 107.306 195.895 104.318C195.895 104.318 177.211 95.5952 154.548 95.5952Z" fill="#D79A3F"/>
<path opacity="0.42" d="M128.387 99.0603C119.105 101.45 113.078 104.199 113.078 104.199C113.078 104.199 113.078 104.318 113.078 104.438C114.766 105.035 117.659 106.23 121.878 107.425C123.927 104.677 126.097 101.809 128.387 99.0603Z" fill="#FFE0BB"/>
<path opacity="0.42" d="M151.413 95.7151C150.569 95.7151 149.725 95.7151 148.881 95.8346C145.024 100.853 141.046 105.872 137.188 110.771C138.876 111.01 140.684 111.249 142.492 111.369C145.144 106.111 148.399 100.973 151.413 95.7151Z" fill="#FFE0BB"/>
<path opacity="0.42" d="M185.407 100.375C184.443 103.123 183.478 105.872 182.394 108.62C188.3 107.186 192.881 105.513 196.015 104.199C196.015 104.199 192.037 102.287 185.407 100.375Z" fill="#FFE0BB"/>
<path opacity="0.42" d="M171.423 97.1487C169.977 96.9098 168.651 96.6708 167.084 96.5513C165.155 100.853 162.985 105.035 160.574 109.098C159.972 110.054 159.369 111.01 158.887 111.966C161.177 111.846 163.467 111.727 165.637 111.488C167.807 106.708 169.736 101.928 171.423 97.1487Z" fill="#FFE0BB"/>
<path d="M154.547 99.4189C137.791 99.4189 123.808 103.84 123.808 103.84C123.808 103.84 123.808 103.96 123.808 104.079C127.062 105.274 137.188 108.142 153.823 108.142C169.133 108.142 180.223 106.111 185.406 103.84C185.406 103.84 171.302 99.4189 154.547 99.4189Z" fill="#956942"/>
<path d="M112.96 104.199C112.96 104.199 123.809 112.563 155.151 112.563C186.493 112.563 196.016 104.318 196.016 104.318C196.016 104.318 182.756 111.368 155.03 111.368C127.305 111.368 112.96 104.199 112.96 104.199Z" fill="white"/>
<path d="M112.96 114.237C112.96 114.595 112.96 114.834 112.96 114.834C112.96 114.834 135.984 120.809 155.633 120.809C175.402 120.809 196.016 114.834 196.016 114.834C196.016 114.834 196.016 114.595 196.016 114.237C196.016 114.237 175.402 120.211 155.633 120.211C135.984 120.211 112.96 114.237 112.96 114.237Z" fill="white"/>
<path d="M130.074 225.127C130.074 225.127 142.37 230.743 154.786 230.743C167.323 230.743 179.136 223.573 179.136 223.573C179.136 223.573 168.769 231.699 154.786 231.699C140.803 231.699 130.074 225.127 130.074 225.127Z" fill="white"/>
<path d="M162.292 142.845C163.477 139.786 162.75 135.771 159.425 133.897C156.481 132.215 153.5 132.444 150.633 134.012C149.448 134.662 148.569 135.733 148.072 137.033C147.689 138.065 148.072 139.136 148.951 139.633C149.754 140.054 150.709 139.901 151.283 139.136C152.162 137.951 153.27 137.415 154.761 137.3C156.596 137.186 157.934 138.333 157.934 140.168C157.896 141.43 157.322 142.424 156.252 142.921C155.105 143.457 153.882 143.916 152.659 144.183C150.977 144.566 149.983 145.981 150.595 147.434C150.939 148.351 151.818 148.887 152.888 148.848C153.614 148.848 154.379 148.542 155.029 148.695C156.252 149.001 157.437 149.498 158.584 150.034C158.966 150.187 159.31 150.722 159.348 151.143C159.654 153.666 158.087 155.502 155.564 155.693C154.264 155.808 152.697 155.119 152.315 153.781C152.276 153.59 152.124 153.399 152.009 153.208C151.397 152.328 150.442 151.946 149.524 152.213C148.569 152.519 147.995 153.399 148.072 154.508C148.148 155.731 148.607 156.802 149.41 157.72C151.588 160.32 154.532 160.74 157.59 160.282C162.024 159.555 165.12 154.393 164.012 149.957C163.553 148.007 162.368 146.631 160.686 145.789C161.221 144.757 161.871 143.839 162.292 142.845Z" fill="white"/>
</svg>
