<svg xmlns="http://www.w3.org/2000/svg" viewBox="0 0 66.18 66.18"><defs><style>.cls-1{fill:#f2cd30;}.cls-2{fill:#d23949;}.cls-3{fill:#f26d44;}.cls-4{fill:#ff9e5c;}</style></defs><g id="Layer_2" data-name="Layer 2"><g id="Layer_1-2" data-name="Layer 1"><circle class="cls-1" cx="33.09" cy="33.09" r="33.09"/><path class="cls-2" d="M53.53,13.49c-8.12-8.32-20.28-10-30-6.3-10.63,4-19.06,14.56-18.57,27.12a28,28,0,0,0,18.83,25A28.59,28.59,0,0,0,57.9,46.15,28,28,0,0,0,53.53,13.49Zm-17,28.85C32,44.29,26.9,44,23.26,40.68c-4.88-4.42-4.77-13.75.18-17.16,4.22-2.9,9-4,12.88-2.72,1.31.42,6.61,2.35,8.12,7.66a11.27,11.27,0,0,1-1.28,8.64A12.82,12.82,0,0,1,36.55,42.34Zm21.27-18s0,.09,0,.11S57.83,24.4,57.82,24.36Z"/><path class="cls-3" d="M52.25,21.29c-.34-.24-.42-.29-.41-.3.24-.8.49-1.6.74-2.4a7.2,7.2,0,0,1,.73.42C53,19.78,52.62,20.51,52.25,21.29Z"/><path class="cls-3" d="M47.89,32.11l-1.4-1.94.62-.44,1.26,2.14Z"/><path class="cls-3" d="M48.23,15l-1.4-1.95.62-.44,1.25,2.15Z"/><path class="cls-3" d="M16,26.88a3.27,3.27,0,0,1-.41-.3l.75-2.39a4.37,4.37,0,0,1,.72.42C16.71,25.37,16.34,26.11,16,26.88Z"/><path class="cls-3" d="M25.79,19.94c-.34-.24-.42-.28-.41-.3.24-.8.49-1.6.74-2.4a5.3,5.3,0,0,1,.73.43C26.53,18.43,26.16,19.17,25.79,19.94Z"/><path class="cls-3" d="M23.65,14c-.34-.24-.42-.28-.41-.3.24-.8.49-1.6.74-2.4a5.3,5.3,0,0,1,.73.43C24.39,12.47,24,13.21,23.65,14Z"/><path class="cls-4" d="M28.92,48.34l2.23-2.25.7.7c-.83.71-1.67,1.41-2.51,2.11Z"/><path class="cls-4" d="M41.36,19.44l2.22-2.26c.24.24.47.48.71.71L41.78,20Z"/><path class="cls-4" d="M9.82,23.46,12,21.2l.71.71L10.24,24Z"/><path class="cls-3" d="M10.21,41.56c-.33-.25-.41-.29-.41-.3l.75-2.4a6.66,6.66,0,0,1,.72.42C11,40,10.59,40.78,10.21,41.56Z"/><path class="cls-3" d="M24.38,56.28C24.05,56,24,56,24,56l.75-2.4c.25.15.74.39.73.42C25.13,54.76,24.76,55.5,24.38,56.28Z"/><path class="cls-3" d="M21.56,49.32c-.72-1-1.43-2-2.15-3l.95-.66L22.29,49Z"/><path class="cls-4" d="M13,47.72,14.7,46l.53.53-1.9,1.6Z"/><path class="cls-4" d="M33.09,57.67,34.77,56l.54.54-1.9,1.59Z"/><path class="cls-3" d="M16.78,35.14c-.12.44-.14.54-.15.54l-2.76-.25c.07-.32.14-.65.22-1Z"/><path class="cls-3" d="M11.27,30.42a4,4,0,0,1-.14.53c-.92-.07-1.84-.16-2.77-.25.08-.32.15-.65.22-1Z"/><path class="cls-3" d="M36,51.65c.26-.76.53-1.51.79-2.27l.71.26c-.34.76-.69,1.51-1,2.26Z"/><path class="cls-3" d="M44.26,54c-.25.38-.29.47-.3.47l-2.57-1.07.51-.87Z"/><path class="cls-3" d="M48.56,49.73a12,12,0,0,1-.16-2.23c0-.36.48-.67.74-1,.2.41.63.86.57,1.23A10,10,0,0,1,49,49.79Z"/><path class="cls-3" d="M53.94,44.67c-.34-.24-.42-.29-.41-.3.24-.8.49-1.6.74-2.4a7.2,7.2,0,0,1,.73.42C54.68,43.15,54.31,43.89,53.94,44.67Z"/><path class="cls-3" d="M42.5,46.78c-.34-.25-.42-.29-.41-.31.24-.8.5-1.59.75-2.39a5.27,5.27,0,0,1,.72.42C43.25,45.26,42.87,46,42.5,46.78Z"/><path class="cls-4" d="M46.32,40.85,48,39.14l.54.54-1.9,1.6Z"/><path class="cls-3" d="M46.83,23.25l1.68-1.71.54.54-1.9,1.6Z"/><path class="cls-3" d="M19.46,19.82a19,19,0,0,1-.76-2.54c-.05-.28.39-.64.61-1,.27.23.74.44.77.7a27,27,0,0,1,0,2.7Z"/><path class="cls-3" d="M36,17.58l-.3.47L33.15,17l.51-.86Z"/><path class="cls-3" d="M14.26,17.29c-.33-.24-.42-.28-.41-.3.24-.8.5-1.59.75-2.39a4.37,4.37,0,0,1,.72.42C15,15.78,14.64,16.52,14.26,17.29Z"/><path class="cls-3" d="M58.18,30.92a22.93,22.93,0,0,1-.76-2.53c-.05-.28.4-.65.61-1,.27.23.74.44.77.69a27,27,0,0,1,0,2.7Z"/><path class="cls-3" d="M53,28.4l-.41-.3.75-2.4a6.66,6.66,0,0,1,.72.42C53.73,26.88,53.36,27.62,53,28.4Z"/><path class="cls-4" d="M29.9,13.28a5.69,5.69,0,0,1-.61-.45c.36-1.2.74-2.4,1.11-3.59a9.33,9.33,0,0,1,1.09.63C31,11,30.46,12.12,29.9,13.28Z"/><path class="cls-4" d="M53,37.12c-.5-.36-.62-.42-.61-.45.36-1.19.74-2.39,1.11-3.58a9.33,9.33,0,0,1,1.09.63C54.16,34.86,53.6,36,53,37.12Z"/><path class="cls-3" d="M39.84,11.63l-1.39-2,.62-.44,1.25,2.14Z"/></g></g></svg>