<svg width="40" height="40" viewBox="0 0 40 40" fill="none" xmlns="http://www.w3.org/2000/svg">
<path d="M20 40C31.0457 40 40 31.0457 40 20C40 8.9543 31.0457 0 20 0C8.9543 0 0 8.9543 0 20C0 31.0457 8.9543 40 20 40Z" fill="#E14358"/>
<path d="M18.8003 37.6998C13.7003 36.9998 8.60033 34.0998 5.70033 29.8998C5.30033 29.3998 3.70033 26.1998 5.90033 26.9998C7.70033 27.6998 8.80033 29.4998 10.5003 30.4998C15.6003 33.1998 21.8003 33.9998 26.6003 30.1998C27.0003 29.8998 27.3003 29.5998 27.8003 29.3998C29.1003 28.7998 31.0003 29.5998 31.3003 30.9998C31.6003 32.2998 30.1003 34.3998 29.2003 35.2998C28.2003 36.1998 27.0003 36.7998 25.7003 37.1998C23.4003 37.8998 21.1003 37.9998 18.8003 37.6998Z" fill="#E76374"/>
<path d="M17.8002 0.800108C16.9002 0.900108 16.0002 1.10011 15.1002 1.30011C12.8002 2.00011 10.0002 3.00011 8.10021 4.50011C6.90021 5.40011 6.00021 6.70011 5.10021 7.80011C4.30021 9.00011 3.50021 10.1001 2.60021 11.2001C1.90021 12.1001 1.20021 13.0001 1.00021 14.2001C0.600208 16.2001 2.30021 18.3001 4.30021 18.8001C7.40021 19.6001 9.90021 17.4001 12.3002 15.8001C15.1002 14.0001 18.3002 12.3001 21.4002 11.2001C24.8002 10.0001 28.4002 9.50011 31.9002 10.3001C33.2002 10.6001 34.4002 11.0001 35.5002 11.7001C37.2002 12.8001 38.4002 14.6001 38.9002 16.5001C37.6002 11.6001 35.1002 6.00011 30.3002 3.70011C26.2002 1.70011 22.3002 0.300108 17.8002 0.800108Z" fill="#E76374"/>
<path opacity="0.8" d="M11.1996 5.8998C10.9996 5.7998 10.7996 5.7998 10.5996 5.7998C8.99961 5.9998 8.39961 7.3998 7.69961 8.5998C6.99961 9.9998 6.39961 11.4998 6.09961 12.9998C6.49961 11.6998 7.19961 10.4998 7.89961 9.3998C8.79961 7.8998 9.49961 7.8998 10.8996 7.0998C11.2996 6.8998 11.5996 6.3998 11.3996 5.9998C11.1996 5.9998 11.1996 5.9998 11.1996 5.8998Z" fill="white"/>
<path opacity="0.8" d="M12.2002 5.3998C11.9002 5.4998 11.7002 5.7998 11.7002 6.0998C11.9002 6.2998 12.2002 6.3998 12.5002 6.3998C12.8002 6.2998 12.9002 5.9998 12.8002 5.6998C12.7002 5.3998 12.4002 5.2998 12.1002 5.3998H12.2002Z" fill="white"/>
<path d="M19.2567 24.7812C19.8317 24.2268 20.2886 23.7699 20.6274 23.4105L24.185 19.7605L25.2476 18.667C25.4222 18.4925 25.6943 18.2512 26.0639 17.9432C26.454 17.6352 26.7313 17.399 26.8955 17.2348C27.4089 16.7214 27.6296 16.1002 27.5578 15.3713C27.4962 14.632 27.1933 13.9903 26.6491 13.4462C25.263 12.0601 23.5433 12.3938 21.4898 14.4472C21.2948 14.6423 21.0483 14.899 20.7506 15.2173C20.4528 15.5355 20.2526 15.746 20.15 15.8487L16.5308 19.4679C14.6518 21.3879 13.7791 22.2811 13.9126 22.1476C13.389 22.6713 13.1426 23.2976 13.1734 24.0266C13.2144 24.7453 13.5173 25.387 14.082 25.9517C14.6467 26.5164 15.2884 26.8192 16.0071 26.8603C16.7361 26.8911 17.3624 26.6447 17.886 26.1211C18.0708 25.9363 18.5277 25.4896 19.2567 24.7812Z" fill="white"/>
<path d="M25.4142 20.7432C24.8597 20.1682 24.4028 19.7113 24.0435 19.3725L20.3935 15.8149L19.3 14.7522C19.1255 14.5777 18.8842 14.3056 18.5762 13.936C18.2682 13.5458 18.032 13.2686 17.8677 13.1043C17.3544 12.591 16.7332 12.3702 16.0042 12.4421C15.265 12.5037 14.6233 12.8066 14.0791 13.3508C12.693 14.7368 13.0267 16.4566 15.0802 18.51C15.2753 18.7051 15.5319 18.9515 15.8502 19.2493C16.1685 19.547 16.379 19.7472 16.4817 19.8499L20.1009 23.4691C22.0208 25.348 22.9141 26.2207 22.7806 26.0873C23.3042 26.6109 23.9305 26.8573 24.6595 26.8265C25.3782 26.7854 26.0199 26.4826 26.5846 25.9179C27.1493 25.3532 27.4522 24.7115 27.4933 23.9928C27.5241 23.2638 27.2777 22.6375 26.754 22.1138C26.5692 21.929 26.1226 21.4721 25.4142 20.7432Z" fill="white"/>
</svg>
