<svg width="70" height="53" viewBox="0 0 70 53" fill="none" xmlns="http://www.w3.org/2000/svg">
<path d="M37.1544 20.3747C36.8999 19.7566 34.5732 20.411 33.8825 19.9021C32.7555 19.1023 34.1369 17.7208 33.0099 16.8119C32.1011 16.0848 30.6833 15.794 31.0468 14.3398C31.1559 13.7945 31.5921 13.3946 31.7375 12.8856C31.8466 12.3403 31.5921 11.7586 31.374 11.286C30.756 10.0136 30.3561 9.32289 31.5921 8.15954C32.0284 7.75964 32.501 7.50515 32.6828 6.92348C32.8282 6.41452 32.1738 4.88763 32.3556 4.34231C32.7918 3.03355 33.7007 2.08833 35.5184 2.59729C36.1728 2.77906 36.7545 2.70635 37.2271 2.23374C37.6997 1.79749 38.0632 1.14311 38.6813 0.852275C39.1902 0.597793 39.9173 0.634143 40.4263 0.779561C41.0443 0.961334 41.2988 1.54301 41.8441 1.76114C43.1165 2.19739 44.1345 0.379663 45.4069 0.0888268C46.0249 -0.0565914 47.4064 -0.056587 47.988 0.343313C48.497 0.743213 48.8242 1.57936 49.1514 2.01561C49.9512 3.0699 50.9691 1.79749 52.2052 2.41552C53.1867 2.92448 53.2958 4.19689 53.4049 4.77856C53.5503 5.50565 53.9138 5.54201 54.4955 5.94191C55.4771 6.52359 56.1678 7.50516 55.6952 8.6685C55.4771 9.25018 54.859 9.75914 54.75 10.4135C54.6409 10.9952 54.9318 11.5042 55.0408 12.0495C55.1135 12.5584 55.1862 13.2128 54.8591 13.6854C54.5682 14.0853 53.9865 14.1944 53.7684 14.6306C53.1867 15.7213 54.6046 16.8483 53.114 17.5754C52.3869 17.9389 51.987 17.7208 51.5144 18.4115C51.0782 19.0659 50.6783 19.7203 50.0602 20.2656C48.8605 21.3562 47.4427 20.9563 46.0612 21.5017C44.6798 22.047 43.88 22.9195 42.2804 22.5923C41.7714 22.4832 41.2988 22.3015 40.7535 22.3015C40.2081 22.3015 39.6992 22.4832 39.1539 22.4832C37.9542 22.5196 37.9905 21.3199 37.3361 20.7019L37.1544 20.3747Z" fill="#D88C39"/>
<path d="M37.918 18.7746C37.3364 18.3383 36.1367 18.1565 35.3732 18.0111C34.4643 17.793 33.5555 17.6112 32.6103 17.4295C31.665 17.284 30.6835 17.1386 29.7019 17.0659C29.3747 17.0659 28.7567 17.0659 28.4295 17.1386C28.1023 17.2113 27.8842 17.7203 28.4658 17.8294C28.0296 18.2293 28.3204 18.5928 28.793 18.5564C28.5749 18.6292 28.3931 18.7019 28.3204 18.8836C28.175 19.6834 29.3747 19.7198 30.7925 20.0833C31.6287 20.3015 36.0276 22.5554 36.8638 24.2278C36.8638 24.1187 36.8638 24.0096 36.8638 23.9006L37.918 18.7746Z" fill="#FFB43B"/>
<path d="M56.7858 18.4838C57.1857 17.7931 56.3495 17.7931 55.9133 18.0112C56.2404 16.8479 55.1135 17.4659 54.6408 17.7931C53.8774 18.302 53.1503 18.7383 52.2778 19.0291C50.6782 19.5745 49.0786 20.0107 47.4426 19.6472L46.2793 23.5007C46.3884 23.5734 46.4611 23.5735 46.6065 23.6098C48.7514 24.1188 51.0418 22.9918 52.9685 22.1556C53.9501 21.7194 54.859 21.2104 55.6951 20.556C56.0587 20.3015 58.0582 18.5565 56.7858 18.4838Z" fill="#FFB43B"/>
<path d="M48.7154 23.72C48.2427 22.4112 47.8428 20.2299 46.8976 19.212C45.9524 18.1577 43.7348 17.8305 42.3897 17.5033C39.045 16.6672 36.2457 18.6303 34.937 21.6478C34.2462 23.211 32.2831 29.9002 33.0829 32.2996L35.4823 33.4266C39.4449 34.59 43.6984 36.1169 47.6247 33.6448C49.5152 32.3723 49.297 25.3196 48.7154 23.72Z" fill="#FBB442"/>
<path d="M42.3535 4.12379C35.9551 4.52369 35.2644 8.74082 35.2644 11.6128C35.228 14.4848 36.5368 20.6651 41.99 21.2468C48.243 21.9375 50.606 16.0481 51.2241 12.5217C51.8421 8.9953 50.9696 3.61483 42.3535 4.12379Z" fill="#FFB43B"/>
<path d="M36.0645 30.6626C36.0645 30.6626 36.2826 27.0271 36.7188 25.5366C37.3732 23.2826 40.1725 22.1192 41.9902 22.4101C43.808 22.6646 46.0619 23.5371 46.4618 27.0271C46.7527 29.6083 46.2074 32.9529 46.2074 32.9529L36.0645 30.6626Z" fill="#D88C39"/>
<path d="M51.9514 26.6636C51.0061 26.7 50.3154 27.9724 49.4065 28.4086C47.4797 29.3538 44.7895 29.681 42.6809 30.0082C40.2088 30.3718 32.7561 30.4808 29.4115 25.7547C27.2666 22.701 26.7576 21.5376 25.667 23.2826L25.7397 23.828C25.7397 23.7916 25.9942 24.6278 26.1396 24.9549C26.3941 25.573 26.6486 26.191 26.9394 26.7727C27.5211 27.8633 28.1027 29.0994 28.9389 30.0082C31.1202 32.4076 35.5918 32.2259 38.5365 32.3713C40.6087 32.444 42.8264 32.444 44.8622 32.1168C47.2253 31.7533 50.0609 31.5715 51.8423 29.8265C52.6421 29.0267 53.9145 26.5909 51.9514 26.6636Z" fill="#D82F19"/>
<path d="M2.72624 43.6419C3.85324 44.7689 7.5614 44.7689 7.5614 44.7689H65.1107C65.1107 44.7689 67.91 44.5508 68.2372 43.2056C68.5644 41.8605 68.9279 30.9905 68.2372 30.0817C67.5464 29.1728 66.2013 28.5184 65.3288 28.3003C64.4199 28.0822 52.6411 26.9552 52.6411 26.9552C52.6411 26.9552 52.0957 31.2086 37.7357 30.7724C29.774 30.5179 26.0659 22.9198 26.0659 22.9198C26.0659 22.9198 18.6495 22.9198 12.033 25.9372C6.72525 28.373 3.01709 29.8272 2.61718 31.4995C1.30842 36.989 2.72624 43.6419 2.72624 43.6419Z" fill="#FF3612"/>
<path d="M56.0232 36.807C51.6243 36.807 48.0615 40.3698 48.0615 44.7687H63.9848C63.9848 40.3698 60.4221 36.807 56.0232 36.807Z" fill="#FFB43B"/>
<path d="M14.7234 36.807C10.3245 36.807 6.76172 40.3697 6.76172 44.7323C7.16162 44.7686 7.4161 44.7687 7.4161 44.7687H22.685C22.685 40.3698 19.1223 36.807 14.7234 36.807Z" fill="#FFB43B"/>
<path d="M19.5213 44.7697C19.5213 47.7144 17.1219 50.1138 14.1771 50.1138C11.2324 50.1138 8.83301 47.7144 8.83301 44.7697C8.83301 41.8249 11.2324 39.4255 14.1771 39.4255C17.1219 39.4619 19.5213 41.8249 19.5213 44.7697Z" fill="#666458"/>
<path d="M14.1775 47.9331C15.9243 47.9331 17.3404 46.517 17.3404 44.7702C17.3404 43.0234 15.9243 41.6074 14.1775 41.6074C12.4307 41.6074 11.0146 43.0234 11.0146 44.7702C11.0146 46.517 12.4307 47.9331 14.1775 47.9331Z" fill="#A09D84"/>
<path d="M16.0314 44.7694C16.0314 45.7873 15.1953 46.6235 14.1773 46.6235C13.1594 46.6235 12.3232 45.7873 12.3232 44.7694C12.3232 43.7514 13.1594 42.9153 14.1773 42.9153C15.1953 42.9516 16.0314 43.7514 16.0314 44.7694Z" fill="#FF3612"/>
<path d="M59.7857 48.544C61.8727 46.457 61.8727 43.0734 59.7857 40.9864C57.6987 38.8994 54.315 38.8994 52.228 40.9864C50.141 43.0734 50.1411 46.457 52.228 48.544C54.315 50.631 57.6987 50.631 59.7857 48.544Z" fill="#666458"/>
<path d="M59.1489 44.7687C59.1489 46.5138 57.7311 47.9316 55.9861 47.9316C54.2411 47.9316 52.8232 46.5138 52.8232 44.7687C52.8232 43.0237 54.2411 41.6059 55.9861 41.6059C57.7675 41.6423 59.1489 43.0601 59.1489 44.7687Z" fill="#A09D84"/>
<path d="M56.023 46.6231C57.047 46.6231 57.8771 45.793 57.8771 44.7691C57.8771 43.7451 57.047 42.915 56.023 42.915C54.999 42.915 54.1689 43.7451 54.1689 44.7691C54.1689 45.793 54.999 46.6231 56.023 46.6231Z" fill="#FF3612"/>
<path d="M24.1397 24.1919C23.1581 23.9737 16.9051 25.9732 15.1237 26.4822C12.1427 27.3184 9.16161 28.518 6.58043 30.1904C5.52615 30.8447 4.65364 31.6809 4.50822 32.9533C4.39916 34.0076 4.58093 35.28 5.85334 35.4981C7.41659 35.7526 9.05254 34.2621 10.3249 33.5713C12.2881 32.4443 14.6148 31.6082 16.8324 31.1356C19.1591 30.6266 21.8493 30.4085 23.9943 29.3178C25.0122 28.8089 25.4485 28.0091 25.5212 26.8821C25.5212 25.9005 25.2667 24.4463 24.1397 24.1919Z" fill="#FFB43B"/>
<path d="M66.82 31.1717C66.7109 29.0268 62.3483 28.8451 60.8215 28.6996C59.44 28.5542 55.8409 27.1727 55.0411 28.9905C55.0047 29.0268 55.0047 29.0995 55.0047 29.1359C54.7866 29.8266 55.1865 30.8082 55.7682 31.1354C57.0042 31.7898 58.7492 31.5353 60.0944 31.6807C61.5485 31.8261 62.821 32.1533 64.2388 32.4805C65.2931 32.8077 66.8927 32.6259 66.82 31.1717Z" fill="#FFB43B"/>
<path d="M4.39833 40.0063C4.18021 39.2065 4.1075 38.4068 3.12592 38.334C2.39883 38.2613 1.3809 39.0248 1.3809 39.0248C1.16277 39.2793 1.05371 39.6428 1.05371 40.2245C1.05371 40.9516 1.05371 42.7329 1.56267 43.2419C2.14435 43.8236 3.81666 43.6418 4.36198 43.1328C5.12542 42.4057 4.58011 40.8061 4.39833 40.0063Z" fill="#A09D84"/>
<path d="M69.9821 40.1153C69.9458 39.1337 69.6186 38.6611 68.5643 38.5884C68.2735 38.552 67.51 38.5884 66.9647 38.7338C66.4557 38.7701 65.9831 38.9883 65.6196 39.6426C65.256 40.3334 65.256 42.1511 65.8014 42.6964C66.4921 43.4235 68.2371 43.5326 69.1096 43.1327C70.0912 42.6964 70.0185 41.0968 69.9821 40.1153Z" fill="#A09D84"/>
<path d="M2.87224 36.8429C2.87224 37.3155 2.58141 37.7154 2.21787 37.7154C1.85432 37.7154 1.56348 37.3155 1.56348 36.8429V32.3713C1.56348 31.8987 1.85432 31.4988 2.21787 31.4988C2.58141 31.4988 2.87224 31.8987 2.87224 32.3713V36.8429Z" fill="#C93D3D"/>
<path d="M1.5996 32.2256C0.65438 32.6255 0 33.5344 0 34.625C0 35.7157 0.65438 36.6246 1.5996 37.0245V32.2256Z" fill="#A09D84"/>
<path d="M1.23663 33.0983C1.0185 32.9165 0.836733 33.1346 0.764024 33.3891C0.618605 33.5709 0.509535 33.789 0.473181 34.0435C0.436826 34.5525 0.69131 34.8433 1.05486 34.3707C1.16392 34.1889 1.4184 33.2437 1.23663 33.0983Z" fill="white"/>
<path d="M50.0962 28.663C50.0962 29.899 50.387 31.1714 50.4597 32.4075C50.4961 33.0255 50.4961 33.6436 50.3506 34.2252C50.1689 34.9523 49.6599 35.2432 49.0055 35.5703C47.6604 36.2247 46.8242 37.6426 46.6425 39.0967C46.4243 40.8781 46.7879 42.9867 46.4971 44.768C46.6788 44.8044 46.897 44.768 47.0424 44.768C47.0424 44.6953 47.006 41.2417 47.0787 39.6057C47.1151 38.6241 47.4786 37.6789 48.0603 36.8791C48.5693 36.2247 49.2964 36.043 49.9508 35.6067C50.9323 34.9523 50.9687 33.5708 50.9323 32.5166C50.896 31.2078 50.6051 29.9354 50.5688 28.6266C50.6051 28.3358 50.0962 28.3358 50.0962 28.663Z" fill="#D82F19"/>
<path d="M28.4294 25.4628C27.266 26.6988 26.8298 28.4802 26.5026 30.0798C26.1027 32.1884 25.9209 34.3697 25.9209 36.5146C25.9209 38.3323 26.0663 40.15 26.2117 41.9314C26.2481 42.5494 26.5026 44.1127 26.6116 44.7307C26.6116 44.767 27.0479 44.767 27.0479 44.7307C27.0479 44.4762 26.8298 43.3492 26.7934 43.1311C26.7207 42.5494 26.6843 41.9314 26.648 41.3497C26.5389 39.6047 26.3935 37.896 26.3935 36.151C26.3935 34.2242 26.5753 32.2611 26.9025 30.3706C27.1933 28.8074 27.5932 27.026 28.7202 25.8263C28.9747 25.5718 28.6475 25.2447 28.4294 25.4628Z" fill="#D82F19"/>
<path d="M48.6071 32.8438C48.6071 33.171 48.3526 33.4618 47.9891 33.4618H45.117C44.7898 33.4618 44.499 33.2073 44.499 32.8438C44.499 32.5166 44.7535 32.2258 45.117 32.2258H47.9891C48.3526 32.2621 48.6071 32.5166 48.6071 32.8438Z" fill="#78A941"/>
<path d="M42.9348 12.886C40.0992 12.4134 39.1176 13.2859 39.0813 14.7401C39.0086 16.1943 40.2083 19.6843 41.8806 19.8298C43.5529 19.9752 46.1341 16.7033 46.1341 15.1764C46.1341 13.6495 44.8616 13.2496 42.9348 12.886Z" fill="#F9D27A"/>
<path d="M36.4638 7.68727C35.046 7.86905 34.4643 5.65143 35.5186 4.88798C36.7547 4.05182 38.0271 4.7062 38.4633 5.94226C38.427 6.05132 38.427 5.94226 38.3179 5.94226L36.4638 7.68727Z" fill="#FBB442"/>
<path d="M36.1739 5.72355C35.5559 6.23251 36.1739 6.66877 36.5738 6.99596L37.41 6.19615C37.3736 5.65084 36.5738 5.39636 36.1739 5.72355Z" fill="#D88C39"/>
<path d="M49.915 6.99517C50.1695 5.57734 52.4599 5.6864 52.8598 6.92246C53.296 8.34029 52.3144 9.35822 50.9693 9.43093C50.8603 9.35822 51.0057 9.39457 51.0057 9.2855L49.915 6.99517Z" fill="#FBB442"/>
<path d="M51.8793 7.32307C51.5885 6.59598 50.9704 7.03224 50.5342 7.32307L51.0432 8.37735C51.5885 8.48642 52.0611 7.79568 51.8793 7.32307Z" fill="#D88C39"/>
<path d="M42.8257 13.7217C42.8257 13.7217 42.135 13.031 41.6624 13.3218C41.2261 13.6127 42.4986 15.1759 42.4986 15.1759C42.4986 15.1759 44.0982 14.158 43.9527 13.8308C43.6619 13.1764 42.8257 13.7217 42.8257 13.7217Z" fill="#231F20"/>
<path d="M42.2439 18.0837C42.2076 18.0837 42.1348 18.0837 42.0985 18.0837C40.8624 17.9383 40.6807 16.5568 40.6807 16.5568C40.6807 16.4841 40.717 16.4114 40.8261 16.375C40.8988 16.375 40.9715 16.4114 41.0078 16.5204C41.0078 16.5568 41.1533 17.6474 42.1712 17.7928C42.971 17.9019 43.7344 16.8476 43.7344 16.8476C43.7708 16.7749 43.8799 16.7749 43.9526 16.8113C44.0253 16.8476 44.0253 16.9567 43.9889 17.0294C43.9162 17.0657 43.1891 18.0837 42.2439 18.0837Z" fill="#231F20"/>
<path d="M39.7359 10.5593C39.7359 10.9592 39.4087 11.3228 38.9724 11.3228C38.5725 11.3228 38.209 10.9956 38.209 10.5593C38.209 10.1594 38.5362 9.7959 38.9724 9.7959C39.3723 9.83225 39.7359 10.1594 39.7359 10.5593Z" fill="#231F20"/>
<path d="M39.0084 10.2325C39.0084 10.378 38.8994 10.5234 38.7176 10.5234C38.5358 10.5234 38.4268 10.4143 38.4268 10.2325C38.4268 10.0508 38.5358 9.94171 38.7176 9.94171C38.8994 9.94171 39.0084 10.0871 39.0084 10.2325Z" fill="white"/>
<path d="M47.7341 12.2333C48.1558 12.2333 48.4976 11.8915 48.4976 11.4699C48.4976 11.0482 48.1558 10.7064 47.7341 10.7064C47.3125 10.7064 46.9707 11.0482 46.9707 11.4699C46.9707 11.8915 47.3125 12.2333 47.7341 12.2333Z" fill="#231F20"/>
<path d="M47.8063 11.1431C47.8063 11.2885 47.6972 11.4339 47.5154 11.4339C47.37 11.4339 47.2246 11.3248 47.2246 11.1431C47.2246 10.9976 47.3337 10.8522 47.5154 10.8522C47.6609 10.8522 47.8063 10.9976 47.8063 11.1431Z" fill="white"/>
<path d="M40.2083 6.16005C39.8448 6.08734 39.2268 6.23275 38.9359 6.41453C38.6087 6.63265 38.6451 6.88713 38.7905 6.92349C38.9723 7.06891 39.7357 6.63265 39.9175 6.5963C40.0629 6.55995 40.3901 6.63266 40.4628 6.48724C40.6446 6.30547 40.3901 6.19641 40.2083 6.16005Z" fill="#D88C39"/>
<path d="M49.6235 8.30471C49.3691 8.05023 48.7874 7.75939 48.4602 7.75939C48.0603 7.72304 47.9512 7.94117 48.0239 8.08658C48.0603 8.30471 48.9328 8.41378 49.1146 8.52284C49.26 8.59555 49.4781 8.85003 49.6235 8.77732C49.878 8.66825 49.7326 8.45013 49.6235 8.30471Z" fill="#D88C39"/>
<path d="M29.6991 21.6475C29.2265 22.011 28.8629 22.5563 28.3903 22.9926C28.1358 23.2107 27.1179 23.756 27.6632 24.1196C27.9904 24.3377 28.2812 23.8651 28.463 23.647C28.6811 23.4288 28.8629 23.1744 29.0447 22.9199C29.1538 22.7745 30.099 21.7929 29.6991 21.6475Z" fill="#231F20"/>
<path d="M31.3716 21.8652C31.0808 21.1017 30.7536 20.5201 30.1719 19.9384C29.9902 19.7566 29.2994 19.1749 28.9359 19.1386C28.8632 19.1386 28.8268 19.1022 28.7541 19.1022C28.2815 19.1386 28.0634 19.3567 27.9907 19.6476C27.8816 20.0475 28.0997 20.5201 28.2088 20.8836C28.4996 21.7198 29.0086 22.5923 29.5539 23.3194C29.9174 23.8647 30.8263 24.7736 31.4807 24.1192C31.9533 23.6466 31.5898 22.4469 31.3716 21.8652ZM29.9174 20.4837C29.772 20.7382 29.663 21.2108 29.6266 21.3199C29.5539 21.1017 29.4812 20.92 29.4085 20.7018C29.3721 20.5201 29.3721 20.2292 29.2994 19.9748C29.5539 20.0838 29.772 20.2656 29.9174 20.4837ZM28.8632 20.0475C28.8632 20.2656 29.0086 20.5201 29.0813 20.7018C29.2267 21.029 29.4085 21.3199 29.5539 21.6471C29.4448 21.8652 29.3721 22.1197 29.3358 22.3741C29.1177 22.0833 28.9722 21.7925 28.8632 21.538C28.6814 21.0654 28.5723 20.3383 28.8632 20.0475ZM29.5539 22.665C29.663 22.5923 29.7357 22.3378 29.772 22.2651C29.772 22.2651 30.0992 22.9558 30.281 23.3194C30.2083 23.283 30.1356 23.2103 30.0629 23.1739C29.8811 23.0285 29.6993 22.8468 29.5539 22.665ZM30.6445 23.4284C30.6445 23.3921 30.6445 23.3557 30.6082 23.3557C30.4264 22.8104 30.1719 22.3378 29.8811 21.8288C29.9902 21.538 30.0992 21.2472 30.2083 20.9563C30.6082 21.5743 30.9354 22.0833 30.9717 22.8468C31.0445 23.2467 30.899 23.4284 30.6445 23.4284Z" fill="#231F20"/>
<path d="M29.702 21.6472C29.2294 22.0107 28.8658 22.556 28.3932 22.9923C28.1388 23.2104 27.1208 23.7557 27.6661 24.1193C27.9933 24.3374 28.2842 23.8648 28.4659 23.6467C28.6841 23.4285 28.8659 23.174 29.0476 22.9196C29.1567 22.7741 30.1019 21.7926 29.702 21.6472Z" fill="#231F20"/>
<path d="M31.3746 21.8649C31.0837 21.1014 30.7565 20.5198 30.1749 19.9381C29.9931 19.7563 29.3023 19.1746 28.9388 19.1383C28.8661 19.1383 28.8297 19.1019 28.757 19.1019C28.2844 19.1383 28.0663 19.3564 27.9936 19.6472C27.8845 20.0471 28.1026 20.5198 28.2117 20.8833C28.5025 21.7195 29.0115 22.592 29.5568 23.3191C29.9204 23.8644 30.8292 24.7732 31.4836 24.1189C31.9562 23.6463 31.5927 22.4465 31.3746 21.8649ZM29.9204 20.4834C29.775 20.7379 29.6659 21.2105 29.6295 21.3196C29.5568 21.1014 29.4841 20.9197 29.4114 20.7015C29.3751 20.5198 29.3751 20.2289 29.3023 19.9744C29.5568 20.0835 29.775 20.2653 29.9204 20.4834ZM28.8661 20.0471C28.8661 20.2653 29.0115 20.5198 29.0842 20.7015C29.2296 21.0287 29.4114 21.3196 29.5568 21.6467C29.4478 21.8649 29.3751 22.1194 29.3387 22.3738C29.1206 22.083 28.9752 21.7922 28.8661 21.5377C28.6843 21.0651 28.5753 20.338 28.8661 20.0471ZM29.5568 22.6647C29.6659 22.592 29.7386 22.3375 29.775 22.2648C29.775 22.2648 30.1022 22.9555 30.2839 23.3191C30.2112 23.2827 30.1385 23.21 30.0658 23.1736C29.884 23.0282 29.7023 22.8465 29.5568 22.6647ZM30.6475 23.4281C30.6475 23.3918 30.6475 23.3554 30.6111 23.3554C30.4294 22.8101 30.1749 22.3375 29.884 21.8285C29.9931 21.5377 30.1021 21.2468 30.2112 20.956C30.6111 21.574 30.9383 22.083 30.9747 22.8465C31.0474 23.2464 30.902 23.4281 30.6475 23.4281Z" fill="#231F20"/>
<path d="M32.2094 15.0659C32.5002 14.9569 32.7547 14.8115 33.0456 14.7024C33.2637 14.6297 33.191 14.2661 32.9365 14.3388C32.6457 14.4479 32.3548 14.557 32.1003 14.7024C31.8822 14.7751 31.9913 15.1386 32.2094 15.0659Z" fill="#FBB442"/>
<path d="M33.8105 15.3945C34.1013 15.2491 34.3922 15.14 34.6467 14.9582C34.8284 14.8128 34.6467 14.4856 34.4649 14.631C34.2104 14.8128 33.9196 14.9219 33.6287 15.0673C33.4106 15.1764 33.5924 15.5035 33.8105 15.3945Z" fill="#FBB442"/>
<path d="M33.9928 16.3018C34.1019 16.1928 34.2109 16.0837 34.3563 15.9383C34.5381 15.7565 34.2473 15.502 34.1019 15.6838C33.9928 15.7929 33.8837 15.9019 33.7383 16.0474C33.5565 16.1928 33.811 16.4836 33.9928 16.3018Z" fill="#FBB442"/>
<path d="M35.2274 16.9205C35.3001 16.7751 35.4455 16.666 35.5546 16.5933C35.6273 16.5206 35.6637 16.4115 35.6273 16.3388C35.591 16.2661 35.4455 16.2297 35.3728 16.2661C35.1911 16.3752 35.0457 16.5569 34.9002 16.7387C34.8275 16.8114 34.9002 16.9568 34.9729 16.9932C35.0457 17.0295 35.1547 16.9932 35.2274 16.9205Z" fill="#FBB442"/>
<path d="M33.7014 13.6485C33.9195 13.5758 34.1376 13.5395 34.3558 13.4304C34.5739 13.3213 34.3921 12.9941 34.174 13.1032C33.9922 13.1759 33.8104 13.2486 33.6287 13.285C33.3742 13.3577 33.4832 13.7212 33.7014 13.6485Z" fill="#FBB442"/>
<path d="M32.0648 11.5404C32.3556 11.5768 32.6828 11.5404 32.9736 11.4314C33.1918 11.3223 33.01 10.9951 32.7919 11.1042C32.6101 11.1769 32.392 11.2132 32.1738 11.1769C31.9193 11.1405 31.8103 11.5041 32.0648 11.5404Z" fill="#FBB442"/>
<path d="M31.81 10.0138C32.0645 10.0138 32.0645 9.65029 31.81 9.65029C31.5555 9.61393 31.5555 10.0138 31.81 10.0138Z" fill="#FBB442"/>
<path d="M31.8471 10.0137C32.0289 9.97731 32.2106 9.97732 32.3924 9.97732C32.6469 9.97732 32.6469 9.61377 32.3924 9.61377C32.1743 9.61377 31.9562 9.61376 31.738 9.68647C31.5199 9.68647 31.629 10.05 31.8471 10.0137Z" fill="#FBB442"/>
<path d="M33.809 11.2492C34.0635 11.2492 34.318 11.2492 34.5725 11.1765C34.7906 11.1402 34.7179 10.7766 34.4634 10.813C34.2453 10.8493 34.0272 10.8493 33.809 10.8493C33.5545 10.8857 33.5545 11.2492 33.809 11.2492Z" fill="#FBB442"/>
<path d="M34.1713 10.0854C34.3167 10.0854 34.4622 10.0854 34.6076 10.0854C34.8621 10.0854 34.8621 9.72186 34.6076 9.72186C34.4622 9.72186 34.3167 9.72186 34.1713 9.72186C33.9168 9.72186 33.9168 10.0854 34.1713 10.0854Z" fill="#FBB442"/>
<path d="M32.8647 8.48604C33.0465 8.48604 33.1919 8.48604 33.3736 8.41333C33.5918 8.34062 33.5191 7.97707 33.2646 8.04978C33.1192 8.08614 33.0101 8.08614 32.8647 8.08614C32.6102 8.12249 32.6102 8.48604 32.8647 8.48604Z" fill="#FBB442"/>
<path d="M34.429 8.19458C34.6108 8.26729 34.7926 8.30365 34.9743 8.30365C35.2288 8.30365 35.2288 7.9401 34.9743 7.9401C34.8289 7.9401 34.6835 7.90374 34.5381 7.83103C34.2836 7.75832 34.1745 8.12187 34.429 8.19458Z" fill="#FBB442"/>
<path d="M33.4801 6.26905C33.6255 6.34176 33.8073 6.45082 33.9891 6.45082C34.2436 6.45082 34.2436 6.08728 33.9891 6.08728C33.88 6.08728 33.771 6.01457 33.6983 5.97822C33.4438 5.8328 33.262 6.15999 33.4801 6.26905Z" fill="#FBB442"/>
<path d="M33.0108 4.48737C33.1199 4.56008 33.2289 4.63279 33.3743 4.7055C33.4834 4.74186 33.5925 4.74185 33.6288 4.63279C33.6652 4.56008 33.6652 4.41466 33.5561 4.3783C33.4471 4.30559 33.3016 4.26925 33.1926 4.16018C33.1199 4.08748 32.9744 4.16018 32.9381 4.23289C32.9017 4.3056 32.9381 4.41466 33.0108 4.48737Z" fill="#FBB442"/>
<path d="M33.7748 3.43372C33.9202 3.57914 34.0656 3.68819 34.211 3.83361C34.3928 4.01539 34.6473 3.72456 34.4655 3.57914C34.3201 3.43372 34.1746 3.32465 34.0292 3.17924C33.8838 2.99746 33.593 3.2883 33.7748 3.43372Z" fill="#FBB442"/>
<path d="M37.4448 2.742C37.5539 2.88741 37.5902 3.03284 37.6993 3.17825C37.8447 3.39638 38.1719 3.17825 38.0265 2.99648C37.9174 2.85106 37.8811 2.70564 37.772 2.56022C37.6629 2.3421 37.3357 2.56022 37.4448 2.742Z" fill="#FBB442"/>
<path d="M36.3181 3.61461C36.3908 3.76002 36.4999 3.90543 36.6089 4.0145C36.7907 4.19627 37.0452 3.90544 36.8634 3.76002C36.7907 3.65096 36.718 3.57825 36.6453 3.43283C36.6089 3.32377 36.4635 3.32377 36.3908 3.36012C36.2817 3.39647 36.2454 3.50554 36.3181 3.61461Z" fill="#FBB442"/>
<path d="M38.7543 4.08922C38.8271 4.19828 38.8998 4.3437 39.0088 4.4164C39.0815 4.45276 39.227 4.45277 39.2633 4.3437C39.2997 4.27099 39.2997 4.12557 39.1906 4.08922C39.1906 4.08922 39.1906 4.08922 39.1543 4.08922C39.1179 4.05286 39.1906 4.12557 39.1543 4.08922C39.1543 4.08922 39.1542 4.08921 39.1179 4.05286C39.0815 4.0165 39.1542 4.08921 39.1179 4.05286C39.0815 4.0165 39.0816 3.98015 39.0452 3.90744C39.0088 3.79838 38.8634 3.79838 38.7907 3.83473C38.718 3.90744 38.718 4.01651 38.7543 4.08922Z" fill="#FBB442"/>
<path d="M38.9363 1.61634C38.9727 1.76176 39.009 1.90717 39.0454 2.05259C39.0454 2.30707 39.4089 2.30707 39.4089 2.05259C39.4089 1.87081 39.3726 1.68904 39.2999 1.50727C39.2272 1.28914 38.8636 1.36186 38.9363 1.61634Z" fill="#FBB442"/>
<path d="M40.3542 2.55883C40.4269 2.7406 40.4633 2.88603 40.4996 3.0678C40.5723 3.28593 40.9359 3.21321 40.8632 2.95873C40.8268 2.77696 40.7541 2.63154 40.7177 2.44977C40.6087 2.23164 40.2815 2.3407 40.3542 2.55883Z" fill="#FBB442"/>
<path d="M39.9909 3.3612C40.0273 3.47026 40.0636 3.57932 40.1 3.72474C40.1 3.97922 40.4635 3.97922 40.4635 3.72474C40.4635 3.57932 40.3908 3.4339 40.3544 3.28848C40.3181 3.17942 40.209 3.14307 40.1363 3.14307C40.0273 3.14307 39.9545 3.25213 39.9909 3.3612Z" fill="#FBB442"/>
<path d="M42.8984 2.19662C42.8984 2.41474 42.8984 2.66923 42.8984 2.88736C42.8984 3.14184 43.262 3.14184 43.262 2.88736C43.262 2.66923 43.262 2.41474 43.262 2.19662C43.262 1.97849 42.8984 1.97849 42.8984 2.19662Z" fill="#FBB442"/>
<path d="M42.063 3.28658C42.3175 3.28658 42.3175 2.92303 42.063 2.92303C41.8449 2.92303 41.8449 3.28658 42.063 3.28658Z" fill="#FBB442"/>
<path d="M41.8799 3.10541C41.8799 3.32354 41.8799 3.54167 42.0253 3.68709C42.1707 3.86886 42.4615 3.61438 42.2798 3.43261C42.2071 3.3599 42.2434 3.21448 42.2434 3.10541C42.2434 2.85093 41.8799 2.85093 41.8799 3.10541Z" fill="#FBB442"/>
<path d="M45.1886 0.488275C45.1886 0.742757 45.1886 0.960882 45.0796 1.17901C44.9705 1.39714 45.2977 1.57891 45.4068 1.36078C45.5522 1.06995 45.5885 0.77911 45.5885 0.451919C45.5522 0.270146 45.1886 0.270148 45.1886 0.488275Z" fill="#FBB442"/>
<path d="M44.4975 2.01514C44.4612 2.26962 44.4248 2.56046 44.4248 2.81495C44.4248 3.06943 44.7884 3.06943 44.7884 2.81495C44.7884 2.59682 44.7883 2.34234 44.8247 2.12421C44.8974 1.86973 44.5339 1.76066 44.4975 2.01514Z" fill="#FBB442"/>
<path d="M45.6613 3.10553C45.5886 3.28731 45.5159 3.43273 45.4432 3.61451C45.3704 3.83263 45.734 3.94169 45.8067 3.72357C45.8794 3.54179 45.9521 3.39638 46.0248 3.2146C46.0975 2.96012 45.734 2.88741 45.6613 3.10553Z" fill="#FBB442"/>
<path d="M46.8972 0.889085C46.7882 1.21628 46.6427 1.54346 46.5337 1.83429C46.4246 2.05242 46.7518 2.23419 46.8609 2.01607C47.0063 1.68888 47.188 1.32533 47.2971 0.961787C47.3335 0.780014 46.9699 0.670957 46.8972 0.889085Z" fill="#FBB442"/>
<path d="M48.0613 2.55947C47.9522 2.81396 47.7705 3.03209 47.6614 3.32292C47.625 3.43199 47.625 3.54105 47.7341 3.57741C47.8068 3.61376 47.9522 3.61376 47.9886 3.50469C48.0977 3.25021 48.2794 3.03208 48.3885 2.74125C48.4248 2.63218 48.4249 2.52313 48.3158 2.48677C48.2431 2.45042 48.0977 2.45041 48.0613 2.55947Z" fill="#FBB442"/>
<path d="M47.0424 3.35885C47.2969 3.35885 47.2969 2.9953 47.0424 2.9953C46.7879 2.9953 46.7879 3.35885 47.0424 3.35885Z" fill="#FBB442"/>
<path d="M46.861 3.25092C46.7883 3.43269 46.752 3.61446 46.7156 3.79624C46.6429 4.01436 47.0065 4.12342 47.0792 3.9053C47.1155 3.72352 47.1882 3.54175 47.2246 3.35998C47.2973 3.14185 46.9338 3.03279 46.861 3.25092Z" fill="#FBB442"/>
<path d="M48.7893 5.06888C49.0074 4.88711 49.2619 4.74169 49.48 4.52356C49.6618 4.34179 49.3709 4.0873 49.2255 4.26908C49.0437 4.45085 48.8256 4.59626 48.6075 4.74168C48.5348 4.81439 48.4984 4.8871 48.5348 4.99617C48.5711 5.06888 48.6802 5.14159 48.7893 5.06888Z" fill="#FBB442"/>
<path d="M49.6967 3.65017C49.9512 3.65017 49.9512 3.28662 49.6967 3.28662C49.4422 3.28662 49.4422 3.65017 49.6967 3.65017Z" fill="#FBB442"/>
<path d="M49.7697 3.61522C49.9515 3.4698 50.1696 3.36074 50.3877 3.25168C50.6059 3.14261 50.4241 2.81541 50.206 2.92448C49.9878 3.03354 49.8061 3.1426 49.588 3.28802C49.5152 3.36073 49.4789 3.43345 49.5152 3.54251C49.5516 3.65157 49.697 3.68793 49.7697 3.61522Z" fill="#FBB442"/>
<path d="M51.334 3.76019C51.5884 3.61477 51.8429 3.46935 52.0974 3.32393C52.3155 3.21487 52.1337 2.88768 51.9156 2.99674C51.6611 3.14216 51.4067 3.28758 51.1522 3.433C50.9341 3.57842 51.1158 3.90561 51.334 3.76019Z" fill="#FBB442"/>
<path d="M49.9868 5.54079C50.2412 5.54079 50.2412 5.17725 49.9868 5.17725C49.7323 5.17725 49.7323 5.54079 49.9868 5.54079Z" fill="#FBB442"/>
<path d="M50.0615 5.50539C50.3523 5.35997 50.6432 5.21455 50.9704 5.14184C51.1885 5.06913 51.1158 4.70559 50.8613 4.7783C50.4977 4.88736 50.1706 5.03278 49.8797 5.21456C49.6616 5.32362 49.8434 5.61445 50.0615 5.50539Z" fill="#FBB442"/>
<path d="M51.9868 5.2155C52.2049 5.2155 52.3867 5.14279 52.5684 5.03372C52.7866 4.88831 52.5684 4.56112 52.3867 4.70654C52.2412 4.77924 52.1322 4.8156 51.9868 4.8156C51.7323 4.8156 51.7323 5.2155 51.9868 5.2155Z" fill="#FBB442"/>
<path d="M52.0239 10.2683C52.3148 10.2683 52.642 10.1956 52.9328 10.1592C53.1873 10.1229 53.0782 9.75935 52.8238 9.7957C52.5693 9.83206 52.2784 9.86841 52.0239 9.90476C51.8058 9.86841 51.8058 10.2683 52.0239 10.2683Z" fill="#FBB442"/>
<path d="M53.6963 9.50383C53.9508 9.46748 54.2416 9.39477 54.4961 9.2857C54.7142 9.21299 54.6051 8.84945 54.387 8.92216C54.1325 9.03122 53.8417 9.06758 53.5872 9.14029C53.3327 9.17664 53.4418 9.54019 53.6963 9.50383Z" fill="#FBB442"/>
<path d="M53.6957 7.83427C54.0593 7.83427 54.3865 7.83428 54.75 7.79792C55.0045 7.76157 55.0045 7.39802 54.75 7.43438C54.3865 7.47073 54.0593 7.47072 53.6957 7.47072C53.4413 7.47072 53.4413 7.83427 53.6957 7.83427Z" fill="#FBB442"/>
<path d="M51.5142 12.3019C51.805 12.3019 52.1322 12.3019 52.423 12.3019C52.6775 12.3019 52.6775 11.9384 52.423 11.9384C52.1322 11.9384 51.805 11.9384 51.5142 11.9384C51.2961 11.9384 51.2961 12.3019 51.5142 12.3019Z" fill="#FBB442"/>
<path d="M53.3314 11.3946C53.6222 11.4309 53.913 11.4673 54.2402 11.4673C54.4947 11.4673 54.4947 11.1037 54.2402 11.1037C53.9857 11.1037 53.6949 11.1037 53.4404 11.0674C53.1859 10.9947 53.0769 11.3582 53.3314 11.3946Z" fill="#FBB442"/>
<path d="M53.6956 12.849C53.9501 12.8853 54.2409 12.9217 54.4954 12.9217C54.7499 12.9217 54.7499 12.5581 54.4954 12.5581C54.2773 12.5581 54.0228 12.5581 53.8047 12.5218C53.5502 12.4491 53.4411 12.8126 53.6956 12.849Z" fill="#FBB442"/>
<path d="M51.5164 13.9026C51.8072 13.9753 52.098 14.048 52.3525 14.1207C52.5706 14.1934 52.6797 13.8299 52.4616 13.7572C52.1707 13.6845 51.8799 13.6117 51.6254 13.539C51.4073 13.4663 51.2982 13.8299 51.5164 13.9026Z" fill="#FBB442"/>
<path d="M52.6788 15.2853C52.7515 15.3217 52.7878 15.3217 52.8605 15.358C52.8969 15.358 52.9332 15.358 52.9332 15.358H52.9696C52.9696 15.358 53.0423 15.3944 53.0059 15.358C53.115 15.3944 53.2241 15.3944 53.2604 15.2853C53.2968 15.2126 53.2968 15.0672 53.1877 15.0309C53.115 14.9945 53.0787 14.9945 53.0059 14.9581C52.9696 14.9581 52.9332 14.9581 52.9332 14.9581H52.8969C52.8969 14.9581 52.8242 14.9218 52.8605 14.9581C52.7515 14.9218 52.6424 14.9218 52.6061 15.0309C52.5697 15.1036 52.6061 15.249 52.6788 15.2853Z" fill="#FBB442"/>
<path d="M50.8233 15.5393C51.0051 15.6483 51.2233 15.7211 51.405 15.7574C51.6232 15.8301 51.7322 15.4666 51.5141 15.3939C51.3323 15.3575 51.1505 15.3212 51.0051 15.2121C50.8233 15.0667 50.6416 15.3939 50.8233 15.5393Z" fill="#FBB442"/>
<path d="M52.5685 16.5197C52.6412 16.5197 52.7139 16.5197 52.7866 16.556C52.8957 16.5924 53.0048 16.5924 53.0411 16.4833C53.0775 16.4106 53.0775 16.2652 52.9684 16.2288C52.823 16.1561 52.7139 16.1561 52.5685 16.1561C52.4594 16.1561 52.3867 16.2288 52.3867 16.3379C52.3867 16.4106 52.4958 16.5197 52.5685 16.5197Z" fill="#FBB442"/>
<path d="M50.1336 17.2475C50.3518 17.3565 50.5699 17.3929 50.788 17.5019C51.0061 17.611 51.1879 17.2838 50.9698 17.1748C50.7516 17.0657 50.5335 17.0293 50.3154 16.9203C50.0973 16.8112 49.9155 17.1384 50.1336 17.2475Z" fill="#FBB442"/>
<path d="M49.8421 18.6672C50.0239 18.7399 50.1693 18.7763 50.3511 18.849C50.5692 18.9581 50.751 18.6309 50.5328 18.5218C50.3511 18.4128 50.133 18.3764 49.9512 18.3037C49.6967 18.231 49.5876 18.5945 49.8421 18.6672Z" fill="#FBB442"/>
<path d="M48.7514 19.1003C48.8241 19.2457 48.9695 19.3184 49.1149 19.4275C49.1876 19.5002 49.3331 19.4275 49.3694 19.3548C49.4058 19.2457 49.3694 19.1366 49.2967 19.1003C49.224 19.0639 49.1876 19.0276 49.1149 18.9912L49.0786 18.9549C49.0786 18.9549 49.0422 18.9185 49.0786 18.9549C49.0786 18.9549 49.0786 18.9185 49.0422 18.9185C49.0059 18.8458 48.8605 18.8095 48.7878 18.8458C48.7514 18.9185 48.715 19.0276 48.7514 19.1003Z" fill="#FBB442"/>
<path d="M55.3661 19.102C55.2934 18.8111 55.0389 18.6294 54.7844 18.7021C54.3845 18.7748 53.403 19.211 53.6211 19.7927C53.8029 20.3017 54.4572 20.1926 54.8208 19.9745C55.0753 19.7927 55.4752 19.4655 55.3661 19.102Z" fill="#D88C39"/>
<path d="M55.1845 17.8663C55.1118 17.8663 55.0027 17.9026 54.9664 18.0117C54.8937 18.0844 54.821 18.1571 54.8573 18.2662C54.8937 18.448 55.1481 18.4116 55.2936 18.3025C55.548 18.0481 55.3663 17.8299 55.1845 17.8663Z" fill="#D88C39"/>
<path d="M55.8017 18.448C55.6926 18.5207 55.6562 18.5934 55.6562 18.6662C55.729 18.8843 56.0925 18.7389 56.2016 18.6662C56.6378 18.3026 55.9471 18.0481 55.8017 18.448Z" fill="#D88C39"/>
<path d="M56.0934 19.2118C56.057 19.2482 56.0207 19.3209 56.0571 19.3936C56.1298 19.5754 56.4206 19.539 56.5297 19.3936C56.8568 18.9573 56.1298 18.8846 56.0934 19.2118Z" fill="#D88C39"/>
<path d="M29.9926 18.1565C29.8836 18.4473 30.1017 18.7018 30.2107 18.8109C30.5743 19.1381 31.5922 19.2835 31.774 18.7018C31.9558 18.1928 31.3377 17.8656 30.9378 17.8293C30.647 17.7566 30.138 17.7929 29.9926 18.1565Z" fill="#D88C39"/>
<path d="M29.3738 19.2475C29.4465 19.2839 29.5192 19.3202 29.6283 19.2839C29.7373 19.2839 29.8464 19.2475 29.8827 19.1748C29.9555 18.993 29.7373 18.884 29.5919 18.884C29.192 18.8476 29.2284 19.1385 29.3738 19.2475Z" fill="#D88C39"/>
<path d="M29.265 18.4113C29.374 18.4113 29.4831 18.375 29.5194 18.3023C29.5922 18.1205 29.2286 17.9751 29.0832 17.9751C28.5015 17.9751 28.9014 18.5931 29.265 18.4113Z" fill="#D88C39"/>
<path d="M29.4834 17.6116C29.5561 17.6116 29.5925 17.5752 29.6288 17.5025C29.7015 17.3207 29.4107 17.1753 29.2653 17.2117C28.7199 17.3207 29.2653 17.8297 29.4834 17.6116Z" fill="#D88C39"/>
<path d="M11.2693 29.3537C10.3968 28.6993 8.79716 29.4264 8.03372 29.9353C7.52475 30.2625 7.05214 30.6988 6.57953 31.0987C5.59796 31.9348 5.23441 34.1888 7.77923 33.2436C8.68809 32.9164 9.26977 31.8258 10.1786 31.3895C10.8694 31.0623 12.4326 30.2262 11.2693 29.3537Z" fill="#FF3612"/>
<path d="M13.887 27.718C13.7779 27.7907 13.5961 27.8634 13.4144 27.9725C13.0145 28.1906 12.5419 28.5542 12.9418 28.8814C13.3053 29.2449 14.3596 28.5905 14.6504 28.2997C15.2684 27.6817 14.3959 27.4635 13.887 27.718Z" fill="#FF3612"/>
<path d="M14.5047 38.079C14.1775 37.2792 11.9963 38.1881 11.5237 38.3335C11.3055 38.4062 10.1422 38.7334 8.688 40.8056C8.46987 41.1328 8.03361 42.0417 8.65164 42.1871C9.12425 42.2961 9.16061 41.46 9.34239 41.1328C9.81499 40.2966 11.0147 39.4968 11.8872 39.1333C12.3235 38.9515 14.7229 38.6607 14.5047 38.079Z" fill="#FF3612"/>
<path d="M55.2946 37.5703C54.4948 37.4249 53.7314 37.6066 52.9316 37.8975C52.0591 38.2247 51.2593 38.879 50.7503 39.5334C50.5685 39.7879 49.8415 40.8058 50.2414 41.0967C50.6776 41.4239 51.0412 40.5877 51.2956 40.3696C52.0954 39.6061 53.1497 38.8427 54.2404 38.5882C54.6766 38.4791 55.4764 38.6246 55.84 38.3337C56.3853 37.8611 55.8036 37.6793 55.2946 37.5703Z" fill="#FF3612"/>
<path d="M51.8406 12.8485C51.5134 14.3027 49.5139 15.1025 47.4054 14.6299C45.2968 14.1573 43.8426 12.594 44.2061 11.1035C44.5333 9.64932 46.5328 8.84952 48.6414 9.32213C50.75 9.79474 52.2041 11.3943 51.8406 12.8485Z" fill="url(#paint0_radial_31_4957)"/>
<path d="M50.968 12.6665C50.7136 13.7935 49.1867 14.4115 47.5871 14.048C45.9511 13.6844 44.8605 12.4847 45.1149 11.3577C45.3694 10.2308 46.8963 9.61273 48.4959 9.97628C50.1319 10.3035 51.2225 11.5395 50.968 12.6665Z" fill="#231F20"/>
<path d="M42.826 11.0314C42.4988 12.4856 40.4993 13.2854 38.3907 12.8128C36.2821 12.3402 34.828 10.777 35.1915 9.28642C35.5187 7.83224 37.5182 7.03244 39.6268 7.50505C41.699 7.97766 43.1531 9.57726 42.826 11.0314Z" fill="url(#paint1_radial_31_4957)"/>
<path d="M41.9163 10.813C41.6618 11.94 40.1349 12.558 38.5353 12.1945C36.8993 11.8309 35.8087 10.6312 36.0632 9.50423C36.3177 8.37724 37.8446 7.75922 39.4442 8.12276C41.0801 8.48631 42.1707 9.72236 41.9163 10.813Z" fill="#231F20"/>
<path d="M44.9338 10.8858C44.8248 10.7041 44.3885 10.5586 44.2067 10.4496C43.6251 10.1951 42.9707 10.2315 42.3163 10.3405L42.28 10.6313C42.2072 10.9222 42.2073 11.2857 42.1709 11.5766C42.8616 11.104 44.1341 11.1403 44.6794 12.0128C44.7157 11.7947 45.0429 11.1403 44.9338 10.8858Z" fill="url(#paint2_radial_31_4957)"/>
<path opacity="0.6" d="M38.6812 8.70502C38.5721 8.5596 38.2813 8.52325 38.1359 8.52325C37.845 8.48689 37.4815 8.5596 37.227 8.74137C36.9362 8.88679 36.6817 9.10492 36.609 9.39576C36.5726 9.57753 36.609 9.86837 36.8271 9.94107C37.0452 9.97743 37.1906 9.79565 37.3361 9.65023C37.6996 9.32304 37.9904 9.21398 38.4267 9.14127C38.6085 9.03221 38.8266 8.92315 38.6812 8.70502Z" fill="white"/>
<path opacity="0.6" d="M48.2788 10.4504C48.1698 10.305 47.8789 10.2687 47.7335 10.2687C47.4427 10.2323 47.0791 10.305 46.8246 10.4868C46.5338 10.6322 46.2793 10.8503 46.2066 11.1412C46.1703 11.323 46.2066 11.6138 46.4248 11.6865C46.6429 11.7229 46.7883 11.5411 46.9337 11.3957C47.2973 11.0685 47.5881 10.9594 48.0243 10.8867C48.2061 10.7776 48.4606 10.6686 48.2788 10.4504Z" fill="white"/>
<defs>
<radialGradient id="paint0_radial_31_4957" cx="0" cy="0" r="1" gradientUnits="userSpaceOnUse" gradientTransform="translate(48.0402 11.9852) scale(3.3677)">
<stop stop-color="#E74E1B"/>
<stop offset="0.57" stop-color="#D54318"/>
<stop offset="1" stop-color="#CE3E17"/>
</radialGradient>
<radialGradient id="paint1_radial_31_4957" cx="0" cy="0" r="1" gradientUnits="userSpaceOnUse" gradientTransform="translate(39.0027 10.1622) scale(3.3677)">
<stop stop-color="#E74E1B"/>
<stop offset="0.57" stop-color="#D54318"/>
<stop offset="1" stop-color="#CE3E17"/>
</radialGradient>
<radialGradient id="paint2_radial_31_4957" cx="0" cy="0" r="1" gradientUnits="userSpaceOnUse" gradientTransform="translate(43.5628 11.1642) scale(1.15982)">
<stop stop-color="#E74E1B"/>
<stop offset="0.57" stop-color="#D54318"/>
<stop offset="1" stop-color="#CE3E17"/>
</radialGradient>
</defs>
</svg>
