<svg width="90" height="90" viewBox="0 0 90 90" fill="none" xmlns="http://www.w3.org/2000/svg">
<rect x="0.5" y="0.5" width="88.7561" height="88.7561" fill="#DF6F78" stroke="#F2CDD0"/>
<path d="M18.3606 23.1137C8.87626 31.3176 10.2825 60.8113 7.89342 58.8522C7.29503 47.4831 5.53111 21.6182 11.4836 14.8717C19.2582 6.06 44.6934 6.79363 66.2348 7.69119C87.7763 8.58875 80.5958 18.462 70.7226 17.5644C60.8495 16.6669 30.6229 12.5069 18.3606 23.1137Z" fill="#F2CDD0" fill-opacity="0.4"/>
<path d="M61.0347 58.3414C70.8168 49.522 79.3769 24.9209 81.841 27.027C82.4582 39.2491 84.2775 67.0545 78.1381 74.3073C70.1194 83.78 43.8856 82.9914 21.6678 82.0265C-0.549988 81.0616 6.85595 70.4476 17.0391 71.4125C27.2223 72.3774 48.3874 69.744 61.0347 58.3414Z" fill="#F2CDD0" fill-opacity="0.4"/>
<path d="M73.6686 68.9878C71.5143 71.0298 65.9038 75.1231 60.6955 75.1603C54.1851 75.2067 61.4439 86.1812 73.6686 68.9878Z" fill="white"/>
</svg>
