<svg width="67" height="47" viewBox="0 0 67 47" fill="none" xmlns="http://www.w3.org/2000/svg">
<path fill-rule="evenodd" clip-rule="evenodd" d="M15.8299 10.5105C15.1384 5.71625 16.3831 3.50349 21.0391 0C21.0391 0 21.2695 2.67374 21.9149 4.51768C22.4681 6.03894 23.4823 6.82261 23.5745 6.9609C23.7128 7.1914 15.9221 11.2481 15.8299 10.5105Z" fill="#FBED21"/>
<path fill-rule="evenodd" clip-rule="evenodd" d="M30.5362 41.4425C33.8553 43.6091 35.9297 43.4708 40.1708 41.3503C40.1708 41.3503 38.2808 40.2439 37.1283 39.1376C36.2063 38.2156 35.9759 37.2014 35.8837 37.1092C35.7915 36.8787 30.0752 41.1198 30.5362 41.4425Z" fill="#FBED21"/>
<path fill-rule="evenodd" clip-rule="evenodd" d="M54.6916 18.1627C36.8053 -1.15261 18.7808 4.7941 5.27391 19.1308C-0.211822 24.9853 -2.51676 37.0631 3.79875 42.9637C4.02924 43.1481 4.85901 42.5488 5.0895 42.7332C5.2278 42.8254 4.76682 43.7013 4.90511 43.7935C11.3128 48.1729 24.497 45.9601 33.9933 38.9531C45.1031 30.7476 51.603 17.1024 55.6596 25.1236C57.3653 28.5349 61.6064 24.9392 59.2553 22.3116C57.4575 20.3754 55.4753 19.0386 54.6916 18.1627Z" fill="#34A5CF"/>
<path fill-rule="evenodd" clip-rule="evenodd" d="M5.27391 19.1311C-0.211822 24.9856 -2.51676 37.0635 3.79875 42.9641C3.98314 43.1024 4.90511 42.6414 5.0895 42.7797C5.2739 42.9641 4.76682 43.7478 4.95121 43.886C9.14618 46.652 16.1071 46.6981 23.1141 44.4853C18.8269 33.6061 13.1107 25.2622 5.27391 19.1311Z" fill="#FBED21"/>
<path fill-rule="evenodd" clip-rule="evenodd" d="M12.2806 38.4C13.387 37.6624 14.1246 36.3255 13.9402 35.0347C13.6636 32.822 12.2346 30.8398 10.114 30.471C6.38003 29.8717 5.36586 33.5135 5.96515 36.1872C6.56443 38.5382 9.60693 40.1978 12.2806 38.4Z" fill="#FF3612"/>
<path fill-rule="evenodd" clip-rule="evenodd" d="M11.4976 37.2941C12.0047 36.787 12.2352 35.6806 12.0047 34.9891C11.6359 33.8367 10.1146 32.8225 8.91608 32.8225C6.84164 32.8686 6.70335 34.943 7.30263 36.2799C7.53312 36.8331 8.17851 37.3863 8.96218 37.6629C9.83805 38.0316 10.8522 37.9395 11.4976 37.2941Z" fill="#001C4A"/>
<path fill-rule="evenodd" clip-rule="evenodd" d="M9.37742 36.9707C9.60792 36.7402 9.74621 36.187 9.60792 35.9104C9.42352 35.3572 8.91643 34.6197 8.36325 34.6658C6.98029 34.758 7.07249 35.8643 7.39518 36.5097C7.67177 37.0629 8.82424 37.5239 9.37742 36.9707Z" fill="#FDF6F9"/>
<path fill-rule="evenodd" clip-rule="evenodd" d="M55.3837 24.5707C54.7844 25.2161 54.7844 28.3969 57.1816 33.1451C60.7772 31.8082 65.2027 28.8118 67.0006 25.3083C63.3588 22.5885 60.9155 21.8509 58.5645 21.6665C58.8411 22.7268 56.9511 24.2941 55.3837 24.5707Z" fill="#FBED21"/>
</svg>
