<svg width="147" height="141" viewBox="0 0 147 141" fill="none" xmlns="http://www.w3.org/2000/svg">
<path d="M49.29 126.945C49.29 126.945 67.247 116.171 97.3723 125.306C97.3723 125.306 91.1109 133.269 72.327 133.269C53.543 133.269 49.29 126.945 49.29 126.945Z" fill="#FFC346"/>
<path d="M49.29 126.945C49.29 126.945 67.247 116.171 97.3723 125.306C97.3723 125.306 91.1109 133.269 72.327 133.269C53.543 133.269 49.29 126.945 49.29 126.945Z" fill="#FFC346"/>
<path opacity="0.42" d="M61.5764 124.134C62.049 123.666 62.5215 123.08 62.9941 122.495C54.1337 124.017 49.29 126.828 49.29 126.828C49.29 126.828 50.7077 128.936 55.4332 130.692C57.4416 128.467 59.6862 126.359 61.5764 124.134Z" fill="#FFC465"/>
<path opacity="0.42" d="M92.7641 124.017C91.5823 126.125 90.2824 128.35 89.1006 130.458C95.1276 128.115 97.4911 125.188 97.4911 125.188C95.8366 124.836 94.3004 124.368 92.7641 124.017Z" fill="#FFC465"/>
<path d="M49.2879 126.945L48.5791 133.269C48.5791 133.269 58.3846 140.529 73.5062 140.529C88.6279 140.529 98.079 132.917 98.079 132.917L97.6064 125.305C97.6064 125.305 86.3833 132.917 73.5062 132.917C60.6292 132.917 49.2879 126.945 49.2879 126.945Z" fill="#FFC346"/>
<path opacity="0.42" d="M89.8081 129.287C86.8546 130.575 83.1924 131.746 79.1757 132.331C78.9394 134.908 78.8212 137.484 78.585 140.178C83.6649 139.592 87.9179 138.187 91.1076 136.782C90.7532 134.322 90.2806 131.863 89.8081 129.287Z" fill="#FFD188"/>
<path opacity="0.55" d="M65.2375 132.098C60.7482 131.278 56.7315 129.99 53.8962 128.819C53.5418 131.044 53.1874 133.386 52.7148 135.611C55.432 137.016 59.5669 138.656 64.6468 139.593C64.7649 137.133 65.0012 134.674 65.2375 132.098Z" fill="#CC8600"/>
<path d="M69.844 111.37C69.844 111.37 67.5994 121.09 62.0469 126.594C62.0469 126.594 71.8523 134.557 84.7294 126.594C84.7294 126.594 77.7593 120.27 76.696 111.37H69.844Z" fill="#F4AB08"/>
<path opacity="0.35" d="M73.2711 119.333C75.0432 119.099 76.8153 118.513 78.5873 117.928C77.7604 115.937 77.0515 113.829 76.6971 111.37H69.727C69.727 111.37 68.9 114.766 67.1279 118.631C69.3726 119.216 71.499 119.567 73.2711 119.333Z" fill="#C2AB08"/>
<path opacity="0.55" d="M72.2104 111.37H71.8559C70.6741 122.612 67.7197 129.404 67.7197 129.404C69.3742 129.873 71.3832 130.224 73.6285 130.107C73.7467 130.107 71.9741 126.125 72.2104 111.37Z" fill="#C47E00"/>
<path d="M73.3888 114.766C77.8908 114.766 81.5404 112.983 81.5404 110.784C81.5404 108.585 77.8908 106.802 73.3888 106.802C68.8869 106.802 65.2373 108.585 65.2373 110.784C65.2373 112.983 68.8869 114.766 73.3888 114.766Z" fill="#F4AB08"/>
<path d="M78.3506 107.622C79.4139 108.559 79.4139 110.432 72.9163 110.55C72.3256 110.55 65.828 110.198 68.0726 107.739C66.3005 108.442 65.2373 109.496 65.2373 110.784C65.2373 113.009 68.8996 114.765 73.3888 114.765C77.8781 114.765 81.5404 113.009 81.5404 110.784C81.5404 109.496 80.2409 108.324 78.3506 107.622Z" fill="#FFC346"/>
<path d="M82.367 72.8415C79.2954 74.481 75.6332 74.7152 72.2072 74.5981C69.1356 74.481 66.6547 74.0126 63.9375 73.0757C65.7096 77.9942 70.4351 93.5696 70.4351 108.911C73.6248 111.019 76.2239 108.911 76.2239 108.911C76.2239 108.911 75.6332 89.5879 82.9577 72.7244C82.8396 72.8415 82.7215 72.8415 82.367 72.8415Z" fill="#F4AB08"/>
<path opacity="0.55" d="M72.2104 74.5978C70.7923 74.5978 69.4923 74.3636 68.1924 74.1294C68.9014 77.0571 72.3285 106.92 71.974 109.613C72.2104 109.73 72.4467 109.73 72.6831 109.73C72.6831 109.847 73.3921 74.5978 72.2104 74.5978Z" fill="#C47E00"/>
<path d="M108.475 21.3139C108.475 21.3139 127.141 1.99111 138.482 8.66625C153.368 17.4493 147.343 39.8169 127.377 51.2935C110.956 60.7792 104.458 59.8423 103.75 64.7609C103.041 69.7965 109.184 67.5715 108.003 65.4635C108.003 65.4635 105.285 66.4004 105.64 63.9411C105.994 61.3647 114.146 59.9595 113.201 69.3281C112.846 72.9584 107.176 76.9401 101.505 73.6611C98.0789 71.6702 97.2519 66.2833 99.2603 61.9503C105.758 48.4829 118.162 52.933 128.559 37.5919C139.782 21.0797 129.622 16.7467 125.133 18.3862C120.407 20.1428 114.5 24.5929 107.648 31.6194L108.475 21.3139Z" fill="#FFC346"/>
<path opacity="0.55" d="M119.7 12.1792C113.32 16.278 108.476 21.3136 108.476 21.3136L107.649 31.6191C110.721 28.4572 113.674 25.8808 116.274 23.7729C116.982 19.7912 118.164 15.9266 119.7 12.1792Z" fill="#CC8600"/>
<path opacity="0.55" d="M101.861 65.3469C102.097 58.906 107.177 54.2217 108.004 52.8164C104.578 54.8072 101.625 57.2665 99.3799 62.0679C97.2535 66.4009 98.1986 71.7879 101.625 73.7787C103.16 74.7156 104.696 75.0669 106.114 74.9498C104.105 72.2563 101.743 69.0944 101.861 65.3469Z" fill="#CC8600"/>
<path opacity="0.55" d="M129.504 38.763C140.018 23.3048 133.639 17.3323 128.441 16.981C127.85 16.981 127.26 17.0981 126.669 17.3323C125.842 17.5665 125.133 18.0349 124.188 18.3862C124.188 18.3862 124.188 18.3862 124.306 18.3862C125.015 18.152 125.842 18.0349 126.787 18.0349C131.631 17.6836 138.837 22.7192 128.677 37.5919C118.399 52.8159 106.113 48.6 99.6152 61.599C107.176 51.762 119.108 53.8699 129.504 38.763Z" fill="#A04F00"/>
<path opacity="0.42" d="M134.82 22.8368C137.655 20.7289 140.49 18.5038 143.089 16.1617C142.026 14.288 140.608 12.6485 138.718 11.2432C136.355 13.3511 134.111 15.6933 131.866 18.0354C133.284 19.3236 134.229 20.9631 134.82 22.8368Z" fill="#FFC465"/>
<path opacity="0.42" d="M142.262 29.1605C139.309 30.8 136.237 32.3224 133.165 33.9619C131.275 37.1238 128.913 40.1686 126.313 42.8621C131.748 42.1595 136.237 39.9344 141.081 37.0067C142.971 33.9619 144.152 30.9171 144.743 27.8723C143.916 28.2236 143.089 28.6921 142.262 29.1605Z" fill="#FFC465"/>
<path opacity="0.42" d="M118.398 49.3031C114.854 51.5282 111.31 53.0506 107.884 55.0414C110.483 54.9243 112.846 55.3927 115.445 55.9783C118.516 54.6901 122.297 52.8164 127.022 50.1229C127.495 49.8887 127.967 49.5374 128.44 49.186C127.731 49.3031 127.14 49.4203 126.431 49.4203C123.832 49.6545 121.115 49.5374 118.398 49.3031Z" fill="#FFC465"/>
<path d="M38.3005 21.3139C38.3005 21.3139 19.6347 1.99111 8.29342 8.66625C-6.59198 17.4493 -0.566938 39.8169 19.3984 51.4106C35.8196 60.8963 42.3172 59.9594 43.026 64.878C43.7348 69.9136 37.5917 67.6886 38.773 65.5806C38.773 65.5806 41.4902 66.5175 41.1358 64.0582C40.7814 61.4818 32.6299 60.0766 33.575 69.4452C33.9294 73.0755 39.6 77.0572 45.2706 73.7782C48.6966 71.7873 49.5236 66.4004 47.5153 62.0674C41.0177 48.6 28.6132 53.0501 18.217 37.709C6.87576 21.0797 17.0356 16.7467 21.5249 18.3862C26.2504 20.1428 32.1573 24.5929 39.0093 31.6194L38.3005 21.3139Z" fill="#FFC346"/>
<path opacity="0.55" d="M30.9776 19.5571C30.9776 21.1966 31.0958 22.8361 31.214 24.4756C33.6957 26.4665 36.2955 28.8086 39.0136 31.6192L38.3045 21.3137C38.3045 21.3137 34.9956 17.9176 30.3867 14.5215C30.8594 16.0439 31.0958 17.8005 30.9776 19.5571Z" fill="#CC8600"/>
<path opacity="0.55" d="M47.4001 61.9506C45.6275 58.0861 43.2639 55.7439 40.6641 53.9873C41.8458 55.7439 42.7912 57.7348 43.3821 59.8427C44.8002 65.3468 43.973 70.4995 40.6641 74.9496C42.0822 74.9496 43.7366 74.5983 45.2729 73.7785C48.5819 71.7877 49.5273 66.2836 47.4001 61.9506Z" fill="#CC8600"/>
<path opacity="0.55" d="M17.2733 38.763C6.759 23.3048 13.1385 17.3323 18.3365 16.981C18.9272 16.981 19.5179 17.0981 20.1086 17.3323C20.9356 17.5665 21.6444 18.0349 22.5895 18.3862C22.5895 18.3862 22.5895 18.3862 22.4714 18.3862C21.7625 18.152 20.9356 18.0349 19.9905 18.0349C15.1468 17.6836 7.94038 22.7192 18.1003 37.5919C28.3783 52.8159 40.6647 48.6 47.1623 61.599C39.6014 51.762 27.5513 53.8699 17.2733 38.763Z" fill="#A04F00"/>
<path opacity="0.42" d="M11.9552 22.8371C9.1199 20.7291 6.28459 18.5041 3.68555 16.1619C4.74879 14.2882 6.16645 12.6487 8.05666 11.2434C10.4194 13.3513 12.664 15.6935 14.9087 18.0357C13.3729 19.3238 12.4278 20.9634 11.9552 22.8371Z" fill="#FFC465"/>
<path opacity="0.42" d="M4.51313 29.1607C7.46658 30.8003 10.5382 32.3227 13.6098 33.9622C15.5 37.1241 17.8627 40.1689 20.4618 42.8624C15.0274 42.1597 10.5382 39.9347 5.69451 37.007C3.8043 33.9622 2.62292 30.9174 2.03223 27.8726C2.85919 28.2239 3.68616 28.6923 4.51313 29.1607Z" fill="#FFC465"/>
<path opacity="0.42" d="M28.2585 49.3031C31.8027 51.5282 35.3468 53.0506 38.7728 55.0414C36.1738 54.9243 33.811 55.3927 31.212 55.9783C28.1404 54.6901 24.36 52.8164 19.6345 50.1229C19.1619 49.8887 18.6893 49.5374 18.2168 49.186C18.9256 49.3031 19.5163 49.4203 20.2251 49.4203C22.9423 49.6545 25.6595 49.5374 28.2585 49.3031Z" fill="#FFC465"/>
<path opacity="0.35" d="M79.1773 83.7325C80.1224 80.1022 81.3038 76.3547 82.8396 72.7244C82.8396 72.7244 82.6033 72.7244 82.2489 72.7244C79.1773 74.3639 75.515 74.5981 72.089 74.481C69.0174 74.3639 66.5365 73.8954 63.8193 72.9586C64.5282 74.8323 65.7095 78.4627 66.7728 82.9128C70.5532 85.0207 75.0425 85.0207 79.1773 83.7325Z" fill="#C2AB08"/>
<path d="M73.3893 15.3412L36.4121 12.2964C36.4121 12.2964 38.893 46.4919 46.9264 60.5448C52.7152 70.6161 62.2844 77.9938 73.5075 77.9938C84.7306 77.9938 94.2998 70.6161 100.089 60.5448C108.122 46.4919 110.603 12.2964 110.603 12.2964L73.3893 15.3412Z" fill="#FFC346"/>
<path opacity="0.42" d="M84.1397 29.9792C84.0215 38.411 83.3127 46.9598 82.2494 54.8061C81.1862 62.5352 77.7602 72.0209 75.2793 77.9934C84.2578 71.9038 88.2745 61.5983 91.4642 53.1665C94.654 44.8519 96.1897 36.1859 97.3711 27.4028C93 28.9252 88.1563 29.745 84.1397 29.9792Z" fill="#FFD188"/>
<path opacity="0.55" d="M69.3725 29.5111C62.6386 28.9256 55.4322 27.9887 49.1709 26.115C49.9979 32.4388 50.7067 38.8797 52.0062 44.9693C54.9597 57.9683 61.1028 68.9764 69.9632 77.7595C71.0265 77.8766 72.2078 77.9937 73.3892 77.9937C73.3892 77.9937 68.4274 68.2738 68.4274 48.8339C68.4274 42.1588 68.6637 35.7178 69.3725 29.5111Z" fill="#CC8600"/>
<path opacity="0.55" d="M109.421 21.7822C110.13 16.161 110.367 12.4136 110.367 12.4136L73.3893 15.4584L36.4121 12.4136C36.4121 12.4136 36.6484 16.3952 37.3572 22.1335C37.3572 22.0164 74.4526 35.2496 109.421 21.7822Z" fill="#CC8600"/>
<path d="M73.3905 0C51.1805 0 32.6328 8.43176 32.6328 8.43176V18.8543C32.6328 18.8543 55.1972 24.7097 74.4537 24.7097C93.8284 24.7097 114.03 18.8543 114.03 18.8543V8.43176C114.03 8.43176 95.6004 0 73.3905 0Z" fill="#FFC346"/>
<path d="M72.3272 15.2239C50.4717 15.2239 37.1221 10.1883 32.6328 8.66586C32.6328 10.1883 32.6328 18.8542 32.6328 18.8542C32.6328 18.8542 55.1972 24.7096 74.4537 24.7096C93.8284 24.7096 114.03 18.8542 114.03 18.8542C114.03 18.8542 114.03 8.90007 114.03 8.43164C107.178 11.3593 92.5289 15.2239 72.3272 15.2239Z" fill="#FFC346"/>
<path opacity="0.55" d="M53.8959 13.936C49.5248 13.3504 45.7443 12.5307 42.5546 11.7109C42.5546 14.7557 42.4365 17.9176 42.2002 20.9625C45.5081 21.6651 49.4066 22.3677 53.6596 22.9533C53.8959 19.9085 53.8959 16.9808 53.8959 13.936Z" fill="#CC8600"/>
<path opacity="0.42" d="M94.1815 13.585C91.818 13.9363 89.3363 14.2876 86.7364 14.5218C86.8546 17.6837 86.6182 20.8456 86.2637 24.0076C89.3363 23.6562 92.2907 23.3049 95.0087 22.8365C94.8905 19.7917 94.536 16.7469 94.1815 13.585Z" fill="#FFD188"/>
<path opacity="0.42" d="M112.023 9.25122C110.841 9.71965 109.423 10.1881 107.887 10.6565C108.241 13.8184 108.478 16.9803 108.832 20.2594C110.132 19.908 111.196 19.6738 112.023 19.4396C111.787 16.0435 111.787 12.6473 112.023 9.25122Z" fill="#FFC465"/>
<path opacity="0.55" d="M62.5195 24.007C64.174 24.1241 65.7103 24.2412 67.3648 24.3583C67.4829 21.3135 67.6011 18.1516 67.6011 15.1068C65.8285 14.9897 64.174 14.9897 62.6377 14.8726C62.6377 17.9174 62.6377 20.9622 62.5195 24.007Z" fill="#CC8600"/>
<path d="M73.3905 0C51.1805 0 32.6328 8.43176 32.6328 8.43176C32.6328 8.43176 32.6328 8.54887 32.6328 8.66597C37.0039 10.1884 50.3535 14.0529 72.3272 14.0529C92.5289 14.0529 107.178 11.3595 114.03 8.43176C114.03 8.43176 95.6004 0 73.3905 0Z" fill="#FFC346"/>
<path opacity="0.42" d="M73.3905 0C51.1805 0 32.6328 8.43176 32.6328 8.43176C32.6328 8.43176 32.6328 8.54887 32.6328 8.66598C37.0039 10.1884 50.5898 16.0438 72.4454 16.0438C92.647 16.0438 107.06 11.4766 113.912 8.54887C113.912 8.54887 95.6004 0 73.3905 0Z" fill="#FFC465"/>
<path opacity="0.42" d="M47.7516 3.39575C38.655 5.73791 32.748 8.43139 32.748 8.43139C32.748 8.43139 32.748 8.54849 32.748 8.6656C34.402 9.25114 37.2373 10.4222 41.3721 11.5933C43.3805 8.89982 45.507 6.08923 47.7516 3.39575Z" fill="#FFD188"/>
<path opacity="0.42" d="M70.3173 0.117432C69.4903 0.117432 68.6633 0.117432 67.8364 0.234539C64.0559 5.15307 60.1574 10.0716 56.377 14.873C58.0309 15.1072 59.803 15.3414 61.575 15.4585C64.1741 10.3058 67.3638 5.27017 70.3173 0.117432Z" fill="#FFD188"/>
<path opacity="0.42" d="M103.634 4.68433C102.689 7.3778 101.744 10.0713 100.681 12.7648C106.469 11.3595 110.959 9.71996 114.03 8.43177C114.03 8.43177 110.132 6.55805 103.634 4.68433Z" fill="#FFD188"/>
<path opacity="0.42" d="M89.9299 1.52279C88.5123 1.28858 87.2128 1.05436 85.677 0.937256C83.7867 5.15314 81.6603 9.25191 79.2975 13.2336C78.7068 14.1704 78.1161 15.1073 77.6436 16.0442C79.8882 15.927 82.1328 15.8099 84.2593 15.5757C86.3858 10.8914 88.276 6.20711 89.9299 1.52279Z" fill="#FFD188"/>
<path d="M73.3889 3.74731C56.9677 3.74731 43.2637 8.0803 43.2637 8.0803C43.2637 8.0803 43.2637 8.19741 43.2637 8.31452C46.4534 9.4856 56.377 12.2962 72.6801 12.2962C87.6836 12.2962 98.5523 10.3053 103.632 8.0803C103.632 8.0803 89.8101 3.74731 73.3889 3.74731Z" fill="#A04F00"/>
<path d="M32.6328 8.43164C32.6328 8.43164 43.2652 16.6292 73.9812 16.6292C104.697 16.6292 114.03 8.54875 114.03 8.54875C114.03 8.54875 101.035 15.4581 73.863 15.4581C46.6913 15.4581 32.6328 8.43164 32.6328 8.43164Z" fill="#FFE18C"/>
<path d="M32.6338 18.2693C32.6338 18.6206 32.6338 18.8548 32.6338 18.8548C32.6338 18.8548 55.1982 24.7102 74.4547 24.7102C93.8294 24.7102 114.031 18.8548 114.031 18.8548C114.031 18.8548 114.031 18.6206 114.031 18.2693C114.031 18.2693 93.8294 24.1247 74.4547 24.1247C55.1982 24.1247 32.6338 18.2693 32.6338 18.2693Z" fill="#FFE18C"/>
<path d="M49.4062 126.945C49.4062 126.945 61.4563 132.449 73.6246 132.449C85.9109 132.449 97.4885 125.423 97.4885 125.423C97.4885 125.423 87.3286 133.386 73.6246 133.386C59.9205 133.386 49.4062 126.945 49.4062 126.945Z" fill="#FFE18C"/>
<path d="M74.9889 42.858C74.839 47.1675 74.6891 51.4396 74.5766 55.7492C74.5392 57.6979 74.6141 59.6465 74.6516 61.5577C74.6891 62.9068 75.5135 63.8437 76.7127 63.9186C77.9119 63.9561 78.8862 63.0192 78.9986 61.7451C79.0736 60.6958 79.0736 59.684 79.0736 58.6347C79.1111 55.6742 79.1485 52.7137 79.2235 49.7533C79.261 46.1557 79.3734 42.5582 79.3734 38.9606C79.4109 37.3867 78.0618 36.1875 76.4878 36.225C74.6516 36.2624 71.841 38.2861 71.2039 40.0474C70.9416 40.8343 71.1665 41.6588 71.7661 42.1834C72.4031 42.6706 73.2276 42.7455 73.9771 42.2958C74.2769 42.071 74.5766 41.8087 74.9889 41.4339C74.9889 41.996 75.0263 42.4457 74.9889 42.858Z" fill="white"/>
</svg>
