<svg width="430" height="149" viewBox="0 0 430 149" fill="none" xmlns="http://www.w3.org/2000/svg">
<path d="M213.638 71.637L220.702 103.081L67.815 116.844L65.0903 104.789L213.638 71.637Z" fill="#363636"/>
<path d="M213.638 71.637L220.702 103.081L365.011 50.6407L362.286 38.5854L213.638 71.637Z" fill="#363636"/>
<path d="M72.659 87.0076H60.2465V116.945H72.659V87.0076Z" fill="#363636"/>
<path d="M70.2412 119.9C75.3955 117.789 77.8552 111.919 75.7351 106.788C73.6149 101.657 67.7179 99.208 62.5636 101.319C57.4093 103.429 54.9497 109.3 57.0698 114.431C59.1899 119.562 65.087 122.01 70.2412 119.9Z" fill="#D9DADB"/>
<path d="M72.3562 110.616C72.3562 113.83 69.7324 116.543 66.4022 116.543C63.173 116.543 60.4482 113.931 60.4482 110.616C60.4482 107.401 63.072 104.688 66.4022 104.688C69.6315 104.688 72.3562 107.401 72.3562 110.616Z" fill="#4B4B4B"/>
<path d="M69.3288 110.616C69.3288 112.223 68.0169 113.529 66.4023 113.529C64.7876 113.529 63.4757 112.223 63.4757 110.616C63.4757 109.008 64.7876 107.702 66.4023 107.702C68.0169 107.702 69.3288 109.008 69.3288 110.616Z" fill="#363636"/>
<path d="M104.548 93.2361H28.2562C15.6418 93.2361 5.44934 83.0896 5.44934 70.532H127.456C127.355 83.0896 117.163 93.2361 104.548 93.2361Z" fill="#F8C600"/>
<path d="M129.878 72.2398H2.92654C1.3119 72.2398 0 70.9338 0 69.3264C0 67.7191 1.3119 66.4131 2.92654 66.4131H129.878C131.493 66.4131 132.805 67.7191 132.805 69.3264C132.805 70.9338 131.493 72.2398 129.878 72.2398Z" fill="#F0AC00"/>
<path d="M369.855 20.9043H357.442V50.8416H369.855V20.9043Z" fill="#363636"/>
<path d="M373.574 46.095C374.464 40.6177 370.725 35.4592 365.223 34.5731C359.721 33.6871 354.539 37.409 353.649 42.8862C352.759 48.3635 356.498 53.522 362 54.4081C367.502 55.2941 372.684 51.5722 373.574 46.095Z" fill="#D9DADB"/>
<path d="M363.598 50.4398C366.886 50.4398 369.552 47.7861 369.552 44.5126C369.552 41.2391 366.886 38.5854 363.598 38.5854C360.309 38.5854 357.644 41.2391 357.644 44.5126C357.644 47.7861 360.309 50.4398 363.598 50.4398Z" fill="#4B4B4B"/>
<path d="M363.598 47.4258C365.214 47.4258 366.524 46.1215 366.524 44.5125C366.524 42.9035 365.214 41.5991 363.598 41.5991C361.982 41.5991 360.671 42.9035 360.671 44.5125C360.671 46.1215 361.982 47.4258 363.598 47.4258Z" fill="#363636"/>
<path d="M401.744 27.1328H325.351C312.737 27.1328 302.544 16.9863 302.544 4.42871H424.551C424.551 16.9863 414.358 27.1328 401.744 27.1328Z" fill="#F8C600"/>
<path d="M427.074 6.13653H300.122C298.507 6.13653 297.196 4.83054 297.196 3.22317C297.196 1.6158 298.507 0.309814 300.122 0.309814H427.074C428.688 0.309814 430 1.6158 430 3.22317C430 4.83054 428.688 6.13653 427.074 6.13653Z" fill="#F0AC00"/>
<path d="M234.945 138.591H195.454V69.2312C195.454 58.3218 204.252 49.5142 215.15 49.5142C226.047 49.5142 234.845 58.3218 234.845 69.2312V138.591H234.945Z" fill="#4C4C4C"/>
<path d="M257.64 149H172.76C174.959 142.695 180.958 138.591 187.556 138.591H242.843C249.442 138.591 255.341 142.795 257.64 149Z" fill="#4C4C4C"/>
<path d="M215.15 94.9538C220.672 94.9538 225.148 90.4728 225.148 84.9451C225.148 79.4175 220.672 74.9365 215.15 74.9365C209.628 74.9365 205.152 79.4175 205.152 84.9451C205.152 90.4728 209.628 94.9538 215.15 94.9538Z" fill="#D9DADB"/>
<path d="M215.15 90.85C218.407 90.85 221.048 88.2062 221.048 84.9449C221.048 81.6836 218.407 79.0398 215.15 79.0398C211.892 79.0398 209.251 81.6836 209.251 84.9449C209.251 88.2062 211.892 90.85 215.15 90.85Z" fill="#4C4C4C"/>
<path d="M215.149 87.8473C216.751 87.8473 218.049 86.5478 218.049 84.9448C218.049 83.3418 216.751 82.0422 215.149 82.0422C213.548 82.0422 212.25 83.3418 212.25 84.9448C212.25 86.5478 213.548 87.8473 215.149 87.8473Z" fill="#373636"/>
</svg>
