<svg width="90" height="90" viewBox="0 0 90 90" fill="none" xmlns="http://www.w3.org/2000/svg">
<rect x="0.5" y="0.5" width="88.7561" height="88.7561" fill="white" stroke="#BBDEEB"/>
<path d="M18.3607 23.1141C8.87633 31.318 10.2826 60.8116 7.89349 58.8526C7.2951 47.4835 5.53119 21.6186 11.4837 14.872C19.2583 6.06037 44.6935 6.794 66.2349 7.69156C87.7764 8.58912 80.5959 18.4624 70.7227 17.5648C60.8496 16.6672 30.6229 12.5073 18.3607 23.1141Z" fill="#DEDEDE"/>
<path d="M61.0339 58.3415C70.8161 49.5221 79.3761 24.921 81.8403 27.0271C82.4575 39.2492 84.2768 67.0546 78.1374 74.3074C70.1187 83.7802 43.8849 82.9915 21.6671 82.0266C-0.550751 81.0617 6.85519 70.4477 17.0384 71.4126C27.2215 72.3775 48.3867 69.7441 61.0339 58.3415Z" fill="#DEDEDE"/>
<path d="M73.6683 68.9874C71.514 71.0294 65.9034 75.1227 60.6951 75.1599C54.1848 75.2064 61.4436 86.1808 73.6683 68.9874Z" fill="white"/>
</svg>
