<svg width="717" height="90" viewBox="0 0 717 90" fill="none" xmlns="http://www.w3.org/2000/svg">
<path d="M350.369 88.5603C350.103 88.3236 349.866 88.0574 349.599 87.8208" stroke="#3F2732" stroke-width="1.5859" stroke-linecap="round" stroke-linejoin="round"/>
<path d="M348.237 86.5489C324.217 65.2524 292.377 72.0259 262.966 75.0429C248.009 76.581 232.459 77.2613 218.124 71.9076C201.094 65.5482 196.177 48.8364 212.704 37.6262C215.073 36.0289 221.204 32.5978 222.063 37.9515C223.396 46.3222 207.491 54.1309 201.745 56.9113C191.527 61.8805 180.183 64.158 168.869 62.7678C140.554 59.3072 96.7783 8.52097 70.0923 20.5002" stroke="#3F2732" stroke-width="1.5859" stroke-linecap="round" stroke-linejoin="round" stroke-dasharray="7.11 7.11"/>
<path d="M69.2334 20.9146C68.9076 21.0624 68.6114 21.2399 68.3152 21.4174" stroke="#3F2732" stroke-width="1.5859" stroke-linecap="round" stroke-linejoin="round"/>
<path d="M44.9464 23.5766C44.9464 25.2626 43.5543 26.6528 41.8661 26.6528C40.1778 26.6528 38.7858 25.2626 38.7858 23.5766C38.7858 21.8907 40.1778 20.5005 41.8661 20.5005C43.5543 20.5005 44.9464 21.8907 44.9464 23.5766Z" fill="#65E2CB"/>
<path d="M63.3393 4.32104L2 29.936L47.9378 55.2847L67.7524 47.476L81.8211 49.9606C85.4937 50.6113 87.2708 45.6421 84.0128 43.8378L52.6471 26.1795L67.0712 9.46769C69.3222 6.83521 66.5084 2.99001 63.3393 4.32104Z" fill="#D93E4F"/>
<path d="M2 29.9359L52.6767 26.1499" stroke="#B72A3E" stroke-width="3.1718" stroke-miterlimit="10" stroke-linecap="round" stroke-linejoin="round"/>
<path d="M70.0922 46.973L2.44421 31.0894" stroke="#B72A3E" stroke-width="3.1718" stroke-miterlimit="10" stroke-linecap="round" stroke-linejoin="round"/>
<path d="M649.869 0.0911276L714.673 14.8803L673.741 47.7124L652.89 43.394L639.443 48.2448C635.948 49.5167 633.342 44.932 636.215 42.5658L664.085 19.7904L647.055 5.79977C644.389 3.61096 646.492 -0.677912 649.869 0.0911276Z" fill="#78A941"/>
<path d="M714.644 14.8804L664.085 19.7904" stroke="#668E32" stroke-width="3.1718" stroke-miterlimit="10" stroke-linecap="round" stroke-linejoin="round"/>
<path d="M674.718 32.9528C688.046 27.8061 701.197 21.2397 714.407 16.0635" stroke="#668E32" stroke-width="3.1718" stroke-miterlimit="10" stroke-linecap="round" stroke-linejoin="round"/>
<path d="M650.491 43.2758C654.371 41.6194 658.28 39.963 662.16 38.3066" stroke="#668E32" stroke-width="3.1718" stroke-miterlimit="10" stroke-linecap="round" stroke-linejoin="round"/>
<path d="M561.221 28.6933C550.914 35.5851 539.778 41.4712 527.782 44.8136C517.12 47.801 499.852 51.587 490.671 43.2459C486.88 39.7852 485.961 33.9583 488.597 29.4919C491.322 24.8777 500.83 24.227 499.171 31.4145C497.542 38.543 485.843 37.981 480.452 37.3302C472.959 36.4133 465.88 33.6625 458.683 31.6216C442.126 26.889 425.096 29.2553 410.938 39.3416" stroke="#3F2732" stroke-width="1.5859" stroke-miterlimit="10" stroke-linecap="round" stroke-linejoin="round" stroke-dasharray="7.14 7.14"/>
<path d="M650.105 21.2101C630.38 10.3844 604.079 5.47442 566.316 24.73" stroke="#3F2732" stroke-width="1.5859" stroke-miterlimit="10" stroke-linecap="round" stroke-linejoin="round" stroke-dasharray="7.14 7.14"/>
</svg>
