<svg width="896" height="414" viewBox="0 0 896 414" fill="none" xmlns="http://www.w3.org/2000/svg">
<g clip-path="url(#clip0_1044_799)">
<rect width="896" height="414" fill="white"/>
<path d="M788.64 55.565L789.71 52.708L791.095 55.7741L793.801 55.9831L791.472 57.7252L792.228 60.6519L789.773 59.0492L787.067 60.5822L788.137 57.5162L785.871 56.0528L788.64 55.565Z" fill="#49BACA"/>
<path d="M815.92 73.9277L812.522 72.9521L812.018 74.9033L816.298 75.5305L815.92 73.9277Z" fill="#F9B818"/>
<path d="M745.365 11.4898L742.47 13.5803L741.463 11.9776L745.302 9.81738L745.365 11.4898Z" fill="#C9B8C3"/>
<path d="M775.365 112.49L772.47 114.58L771.463 112.978L775.302 110.817L775.365 112.49Z" fill="#C9B8C3"/>
<path d="M647.357 410.299L646 414.179L647.857 415L649 410L647.357 410.299Z" fill="#CFC1CB"/>
<path d="M677.408 22.85L676.212 19.2265L677.848 18.46L678.855 23.1288L677.408 22.85Z" fill="#E68888"/>
<path d="M747.357 399.299L746 403.179L747.857 404L749 399L747.357 399.299Z" fill="#E68888"/>
<path d="M685.003 82.4838L686.072 79.5571L687.457 82.6929L690.1 82.8323L687.835 84.644L688.527 87.5707L686.072 85.968L683.429 87.4314L684.436 84.3653L682.17 82.9716L685.003 82.4838Z" fill="#F9B818"/>
<path d="M748.794 381.123L749.873 384L751.27 380.912L754 380.702L751.651 378.947L752.413 376L749.937 377.614L747.206 376.07L748.286 379.158L746 380.632L748.794 381.123Z" fill="#C9B8C3"/>
<path d="M870.563 62.9967L871.633 60.1396L873.017 63.2057L875.723 63.4148L873.395 65.1569L874.15 68.0836L871.696 66.4809L868.989 68.0139L870.059 64.9478L867.793 63.4845L870.563 62.9967Z" fill="#49BACA"/>
<path d="M868.794 170.877L869.873 168L871.27 171.088L874 171.298L871.651 173.053L872.413 176L869.937 174.386L867.206 175.93L868.286 172.842L866 171.368L868.794 170.877Z" fill="#C9B8C3"/>
<path d="M875.794 264.877L876.873 262L878.27 265.088L881 265.298L878.651 267.053L879.413 270L876.937 268.386L874.206 269.93L875.286 266.842L873 265.368L875.794 264.877Z" fill="#E68888"/>
<path d="M864.563 133.997L865.633 131.14L867.017 134.206L869.723 134.415L867.395 136.157L868.15 139.084L865.696 137.481L862.989 139.014L864.059 135.948L861.793 134.484L864.563 133.997Z" fill="#49BACA"/>
<path d="M716.647 385.243L713.471 386L713 384.486L717 384L716.647 385.243Z" fill="#F9B818"/>
<path d="M881.833 37.2666L878.435 36.291L877.931 38.2422L882.211 38.8693L881.833 37.2666Z" fill="#F9B818"/>
<path d="M881.647 385.243L878.471 386L878 384.486L882 384L881.647 385.243Z" fill="#F9B818"/>
<path d="M861.833 108.267L858.435 107.291L857.931 109.242L862.211 109.869L861.833 108.267Z" fill="#F9B818"/>
<path d="M853.647 248.135L850.471 247L850 249.27L854 250L853.647 248.135Z" fill="#F9B818"/>
<path d="M782.647 331.757L779.471 331L779 332.514L783 333L782.647 331.757Z" fill="#F9B818"/>
<path d="M808.559 248.757L804.588 248L804 249.514L809 250L808.559 248.757Z" fill="#F9B818"/>
<path d="M715.488 75.5377L716.558 72.6807L717.942 75.7467L720.649 75.9558L718.32 77.6979L719.075 80.6246L716.621 79.0219L713.915 80.5549L714.984 77.4888L712.719 76.0255L715.488 75.5377Z" fill="#A8C93A"/>
<path d="M715.794 407.123L716.873 410L718.27 406.912L721 406.702L718.651 404.947L719.413 402L716.937 403.614L714.206 402.07L715.286 405.158L713 406.632L715.794 407.123Z" fill="#A8C93A"/>
<path d="M850.488 15.5377L851.558 12.6807L852.942 15.7467L855.649 15.9558L853.32 17.6979L854.075 20.6246L851.621 19.0219L848.915 20.5549L849.984 17.4888L847.719 16.0255L850.488 15.5377Z" fill="#A8C93A"/>
<path d="M850.794 407.123L851.873 410L853.27 406.912L856 406.702L853.651 404.947L854.413 402L851.937 403.614L849.206 402.07L850.286 405.158L848 406.632L850.794 407.123Z" fill="#A8C93A"/>
<path d="M881.488 96.5377L882.558 93.6807L883.942 96.7467L886.649 96.9558L884.32 98.6979L885.075 101.625L882.621 100.022L879.915 101.555L880.984 98.4888L878.719 97.0255L881.488 96.5377Z" fill="#A8C93A"/>
<path d="M862.794 226.877L863.873 224L865.27 227.088L868 227.298L865.651 229.053L866.413 232L863.937 230.386L861.206 231.93L862.286 228.842L860 227.368L862.794 226.877Z" fill="#A8C93A"/>
<path d="M840.486 53.937L840.738 50.8013L842.878 53.3099L845.458 52.6827L843.759 55.1216L845.206 57.6999L842.437 56.9334L840.234 59.233L840.486 55.9579L837.906 55.261L840.486 53.937Z" fill="#E74C4E"/>
<path d="M826.392 170.975L826.625 168L828.608 170.38L831 169.785L829.425 172.099L830.767 174.545L828.2 173.818L826.158 176L826.392 172.893L824 172.231L826.392 170.975Z" fill="#E68888"/>
<path d="M840.486 124.937L840.738 121.801L842.878 124.31L845.458 123.683L843.759 126.122L845.206 128.7L842.437 127.933L840.234 130.233L840.486 126.958L837.906 126.261L840.486 124.937Z" fill="#E74C4E"/>
<path d="M876.733 321.975L877 319L879.267 321.38L882 320.785L880.2 323.099L881.733 325.545L878.8 324.818L876.467 327L876.733 323.893L874 323.231L876.733 321.975Z" fill="#E74C4E"/>
<path d="M632.82 17.6094L633.072 14.4736L635.211 16.9822L637.792 16.3551L636.093 18.794L637.54 21.3723L634.771 20.6058L632.568 22.9053L632.82 19.6302L630.24 18.9334L632.82 17.6094Z" fill="#7F48C3"/>
<path d="M776.82 17.6094L777.072 14.4736L779.211 16.9822L781.792 16.3551L780.093 18.794L781.54 21.3723L778.771 20.6058L776.568 22.9053L776.82 19.6302L774.24 18.9334L776.82 17.6094Z" fill="#7F48C3"/>
<path d="M776.733 405.025L777 408L779.267 405.62L782 406.215L780.2 403.901L781.733 401.455L778.8 402.182L776.467 400L776.733 403.107L774 403.769L776.733 405.025Z" fill="#7F48C3"/>
<path d="M236 378.222L233.032 376L232 377.704L235.935 380L236 378.222Z" fill="#C9B8C3"/>
<path d="M670.903 50.6636L668.008 52.7541L667.001 51.1514L670.841 48.9912L670.903 50.6636Z" fill="#49BACA"/>
<path d="M814.903 40.6636L812.008 42.7541L811.001 41.1514L814.84 38.9912L814.903 40.6636Z" fill="#C9B8C3"/>
<path d="M815 382.111L812.032 381L811 381.852L814.935 383L815 382.111Z" fill="#C9B8C3"/>
<path d="M824.903 111.664L822.008 113.754L821.001 112.151L824.84 109.991L824.903 111.664Z" fill="#C9B8C3"/>
<path d="M868 301.778L865.032 304L864 302.296L867.935 300L868 301.778Z" fill="#C9B8C3"/>
<path d="M685.357 401.299L684 405.179L685.857 406L687 401L685.357 401.299Z" fill="#E68888"/>
<path d="M808.458 22.0248L807.263 18.4013L808.899 17.6348L809.906 22.3036L808.458 22.0248Z" fill="#E68888"/>
<path d="M808.357 400.299L807 404.179L808.857 405L810 400L808.357 400.299Z" fill="#E68888"/>
<path d="M839.458 83.0248L838.263 79.4013L839.899 78.6348L840.906 83.3036L839.458 83.0248Z" fill="#E68888"/>
<path d="M844.357 200.701L843 196.821L844.857 196L846 201L844.357 200.701Z" fill="#E68888"/>
<path d="M870.357 202.761L869 199.657L870.857 199L872 203L870.357 202.761Z" fill="#E68888"/>
<path d="M880.357 222.761L879 219.657L880.857 219L882 223L880.357 222.761Z" fill="#E74C4E"/>
<path d="M619.37 263.597L618.149 257.894L621.811 262.214L625.93 258.585L624.252 263.942L629.286 264.634L625.015 266.362L627.15 271.2L623.336 268.954L621.353 272.755L620.438 268.781L616.166 271.027L618.759 267.226L615.25 264.979L619.37 263.597Z" fill="white"/>
<path d="M299.479 140.165L298.259 134.462L301.92 138.782L306.04 135.153L304.361 140.51L309.396 141.201L305.124 142.929L307.26 147.768L303.446 145.522L301.463 149.323L300.547 145.349L296.275 147.595L298.869 143.794L295.36 141.547L299.479 140.165Z" fill="white"/>
<path d="M570.535 289.547L569.853 286.378L571.899 288.779L574.201 286.762L573.263 289.739L576.076 290.123L573.689 291.083L574.883 293.771L572.751 292.523L571.643 294.635L571.131 292.427L568.744 293.675L570.194 291.563L568.233 290.315L570.535 289.547Z" fill="white"/>
<path d="M279.085 135.566L278.403 132.397L280.449 134.798L282.751 132.781L281.813 135.758L284.627 136.142L282.24 137.102L283.433 139.79L281.302 138.542L280.194 140.654L279.682 138.446L277.295 139.694L278.744 137.582L276.783 136.334L279.085 135.566Z" fill="white"/>
<path d="M229.441 15.1352L233.412 14L234 16.2703L229 17L229.441 15.1352Z" fill="#E74C4E"/>
<path d="M79.4412 75.1352L83.4118 74L84 76.2703L79 77L79.4412 75.1352Z" fill="#F9B818"/>
<path d="M278.267 8.97521L278 6L275.733 8.38015L273 7.78512L274.8 10.0992L273.267 12.5455L276.2 11.8182L278.533 14L278.267 10.8926L281 10.2314L278.267 8.97521Z" fill="#49BACA"/>
<path d="M190 52.7778L192.968 55L194 53.2963L190.065 51L190 52.7778Z" fill="#C9B8C3"/>
<path d="M248.643 411.299L250 415.179L248.143 416L247 411L248.643 411.299Z" fill="#CFC1CB"/>
<path d="M148.643 13.7015L150 9.8209L148.143 9L147 14L148.643 13.7015Z" fill="#E68888"/>
<path d="M148.643 400.299L150 404.179L148.143 405L147 400L148.643 400.299Z" fill="#E68888"/>
<path d="M165.143 77.9217L164.063 75L162.667 78.1304L160 78.2696L162.286 80.0783L161.587 83L164.063 81.4L166.73 82.8609L165.714 79.8L168 78.4087L165.143 77.9217Z" fill="#F9B818"/>
<path d="M155.143 107.922L154.063 105L152.667 108.13L150 108.27L152.286 110.078L151.587 113L154.063 111.4L156.73 112.861L155.714 109.8L158 108.409L155.143 107.922Z" fill="#C9B8C3"/>
<path d="M147.206 382.123L146.127 385L144.73 381.912L142 381.702L144.349 379.947L143.587 377L146.063 378.614L148.794 377.07L147.714 380.158L150 381.632L147.206 382.123Z" fill="#C9B8C3"/>
<path d="M25.2063 63.8772L24.127 61L22.7302 64.0877L20 64.2982L22.3492 66.0526L21.5873 69L24.0635 67.386L26.7936 68.9298L25.7143 65.8421L28 64.3684L25.2063 63.8772Z" fill="#49BACA"/>
<path d="M14.2063 361.123L13.127 364L11.7302 360.912L9 360.702L11.3492 358.947L10.5873 356L13.0635 357.614L15.7936 356.07L14.7143 359.158L17 360.632L14.2063 361.123Z" fill="#49BACA"/>
<path d="M27.2063 171.877L26.127 169L24.7302 172.088L22 172.298L24.3492 174.053L23.5873 177L26.0635 175.386L28.7936 176.93L27.7143 173.842L30 172.368L27.2063 171.877Z" fill="#C9B8C3"/>
<path d="M20.2063 265.877L19.127 263L17.7302 266.088L15 266.298L17.3492 268.053L16.5873 271L19.0635 269.386L21.7936 270.93L20.7143 267.842L23 266.368L20.2063 265.877Z" fill="#E68888"/>
<path d="M31.2063 134.877L30.127 132L28.7302 135.088L26 135.298L28.3492 137.053L27.5873 140L30.0635 138.386L32.7936 139.93L31.7143 136.842L34 135.368L31.2063 134.877Z" fill="#49BACA"/>
<path d="M53.2063 330.877L52.127 328L50.7302 331.088L48 331.298L50.3492 333.053L49.5873 336L52.0635 334.386L54.7936 335.93L53.7143 332.842L56 331.368L53.2063 330.877Z" fill="#F9B818"/>
<path d="M214.206 61.8772L213.127 59L211.73 62.0877L209 62.2982L211.349 64.0526L210.587 67L213.063 65.386L215.794 66.9298L214.714 63.8421L217 62.3684L214.206 61.8772Z" fill="#E68888"/>
<path d="M179.353 386.243L182.529 387L183 385.486L179 385L179.353 386.243Z" fill="#F9B818"/>
<path d="M13.4412 38.1352L17.4118 37L18 39.2703L13 40L13.4412 38.1352Z" fill="#F9B818"/>
<path d="M14.353 386.243L17.5294 387L18 385.486L14 385L14.353 386.243Z" fill="#F9B818"/>
<path d="M33.4412 109.135L37.4118 108L38 110.27L33 111L33.4412 109.135Z" fill="#F9B818"/>
<path d="M42.353 249.135L45.5294 248L46 250.27L42 251L42.353 249.135Z" fill="#F9B818"/>
<path d="M195.206 11.8772L194.127 9L192.73 12.0877L190 12.2982L192.349 14.0526L191.587 17L194.063 15.386L196.794 16.9298L195.714 13.8421L198 12.3684L195.206 11.8772Z" fill="#A8C93A"/>
<path d="M180.206 408.123L179.127 411L177.73 407.912L175 407.702L177.349 405.947L176.587 403L179.063 404.614L181.794 403.07L180.714 406.158L183 407.632L180.206 408.123Z" fill="#A8C93A"/>
<path d="M45.2063 16.8772L44.127 14L42.7302 17.0877L40 17.2982L42.3492 19.0526L41.5873 22L44.0635 20.386L46.7936 21.9298L45.7143 18.8421L48 17.3684L45.2063 16.8772Z" fill="#A8C93A"/>
<path d="M45.2063 408.123L44.127 411L42.7302 407.912L40 407.702L42.3492 405.947L41.5873 403L44.0635 404.614L46.7936 403.07L45.7143 406.158L48 407.632L45.2063 408.123Z" fill="#A8C93A"/>
<path d="M14.2063 97.8772L13.127 95L11.7302 98.0877L9 98.2982L11.3492 100.053L10.5873 103L13.0635 101.386L15.7936 102.93L14.7143 99.8421L17 98.3684L14.2063 97.8772Z" fill="#A8C93A"/>
<path d="M33.2063 227.877L32.127 225L30.7302 228.088L28 228.298L30.3492 230.053L29.5873 233L32.0635 231.386L34.7936 232.93L33.7143 229.842L36 228.368L33.2063 227.877Z" fill="#A8C93A"/>
<path d="M55.2667 54.9752L55 52L52.7334 54.3802L50 53.7851L51.8 56.0992L50.2667 58.5455L53.2 57.8182L55.5333 60L55.2667 56.8926L58 56.2314L55.2667 54.9752Z" fill="#E74C4E"/>
<path d="M55.2667 125.975L55 123L52.7334 125.38L50 124.785L51.8 127.099L50.2667 129.545L53.2 128.818L55.5333 131L55.2667 127.893L58 127.231L55.2667 125.975Z" fill="#E74C4E"/>
<path d="M19.2667 322.975L19 320L16.7334 322.38L14 321.785L15.8 324.099L14.2667 326.545L17.2 325.818L19.5333 328L19.2667 324.893L22 324.231L19.2667 322.975Z" fill="#E74C4E"/>
<path d="M119.267 18.3471L119 15L116.733 17.6777L114 17.0083L115.8 19.6116L114.267 22.3636L117.2 21.5455L119.533 24L119.267 20.5041L122 19.7603L119.267 18.3471Z" fill="#7F48C3"/>
<path d="M119.267 406.025L119 409L116.733 406.62L114 407.215L115.8 404.901L114.267 402.455L117.2 403.182L119.533 401L119.267 404.107L122 404.769L119.267 406.025Z" fill="#7F48C3"/>
<path d="M236 43.7778L238.968 46L240 44.2963L236.065 42L236 43.7778Z" fill="#FCB415"/>
<path d="M81 41.7778L83.9677 44L85 42.2963L81.0645 40L81 41.7778Z" fill="#C9B8C3"/>
<path d="M81 383.111L83.9677 382L85 382.852L81.0645 384L81 383.111Z" fill="#C9B8C3"/>
<path d="M28 302.778L30.9677 305L32 303.296L28.0645 301L28 302.778Z" fill="#C9B8C3"/>
<path d="M210.643 402.299L212 406.179L210.143 407L209 402L210.643 402.299Z" fill="#E68888"/>
<path d="M87.0952 22.7612L88 19.6567L86.7619 19L86 23L87.0952 22.7612Z" fill="#E68888"/>
<path d="M87.6429 401.299L89 405.179L87.1429 406L86 401L87.6429 401.299Z" fill="#E68888"/>
<path d="M56.0952 83.7612L57 80.6567L55.7619 80L55 84L56.0952 83.7612Z" fill="#E68888"/>
<path d="M51.6429 201.701L53 197.821L51.1429 197L50 202L51.6429 201.701Z" fill="#E68888"/>
<path d="M25.6429 203.761L27 200.657L25.1429 200L24 204L25.6429 203.761Z" fill="#F9B818"/>
<path d="M15.6429 223.761L17 220.657L15.1429 220L14 224L15.6429 223.761Z" fill="#E74C4E"/>
</g>
<defs>
<clipPath id="clip0_1044_799">
<rect width="896" height="414" fill="white"/>
</clipPath>
</defs>
</svg>
