<svg xmlns="http://www.w3.org/2000/svg" viewBox="0 0 290 245.61"><defs><style>.cls-1{fill:#f7ad19;}</style></defs><g id="Layer_2" data-name="Layer 2"><g id="Layer_1-2" data-name="Layer 1"><path class="cls-1" d="M53.77,209.55c-5-12.2,1.45-23.35-8.45-37.17C31,152.3,4.92,158.37.54,144.49c-4-12.61,15-19.85,27-49.85,12.52-31.25,1-46.72,14.36-58.3,13.79-11.91,28,2.74,58.3-5.07,35-9,46.75-36.42,61.69-30.42,11.33,4.55,6.25,20.67,17.74,35.49,23.63,30.46,76.67,2.74,98.86,24.5,27.08,26.57,6,124.67-60.84,164.77C156,262.68,67.38,242.88,53.77,209.55Z"/></g></g></svg>