<svg width="896" height="500" viewBox="0 0 896 500" fill="none" xmlns="http://www.w3.org/2000/svg">
<g clip-path="url(#clip0_712_1007)">
<rect width="896" height="500" fill="white"/>
<rect x="-93" width="1081.78" height="500" fill="#FCF9EE"/>
<path d="M171.603 14.0186L175.033 20.9417L182.701 22.0621L177.137 27.4627L178.463 35.0466L171.603 31.4557L164.742 35.0466L166.039 27.4627L160.505 22.0621L168.172 20.9417L171.603 14.0186Z" fill="#F67300"/>
<path d="M197.902 439.252L203.138 448.014L208.402 456.776H197.902H187.374L192.638 448.014L197.902 439.252Z" fill="#F67300"/>
<path d="M39.0091 197.43L44.2661 206.191L49.5232 214.953H39.0091H28.4951L33.7521 206.191L39.0091 197.43Z" fill="#FF3612"/>
<path d="M721.906 203.655L727.163 212.416L732.42 221.178H721.906H711.392L716.649 212.416L721.906 203.655Z" fill="#FF3612"/>
<path d="M871.968 339.953L877.232 348.715L882.467 357.476H871.968H861.439L866.703 348.715L871.968 339.953Z" fill="#4B78C6"/>
<path d="M273.338 462.953L259.72 471.131C259.036 471.544 258.608 472.287 258.637 473.058C258.665 473.857 259.121 474.545 259.834 474.931L273.965 482.227C274.677 482.585 275.561 482.558 276.244 482.145C276.757 481.842 277.128 481.346 277.27 480.768C277.327 480.575 277.327 480.382 277.327 480.19L276.814 464.715C276.786 463.917 276.33 463.228 275.618 462.843C274.905 462.512 274.022 462.54 273.338 462.953Z" fill="#FF3612"/>
<path d="M839.927 446.598L826.308 454.776C825.625 455.189 825.197 455.932 825.226 456.703C825.254 457.502 825.71 458.19 826.422 458.576L840.554 465.872C841.266 466.23 842.149 466.203 842.833 465.79C843.346 465.487 843.716 464.991 843.859 464.413C843.916 464.22 843.916 464.027 843.916 463.835L843.403 448.36C843.375 447.562 842.919 446.873 842.206 446.488C841.466 446.157 840.611 446.185 839.927 446.598Z" fill="#FF3612"/>
<path d="M658.631 477.949L673.952 482.386C674.718 482.61 675.57 482.414 676.165 481.852C676.761 481.291 676.988 480.476 676.79 479.69L673.016 464.332C672.817 463.545 672.221 462.928 671.455 462.703C670.86 462.535 670.264 462.619 669.725 462.9C669.554 462.984 669.384 463.096 669.242 463.237L657.694 474.159C657.099 474.72 656.872 475.535 657.07 476.321C657.269 477.107 657.865 477.725 658.631 477.949Z" fill="#FF9090"/>
<path d="M85.0326 273.504L100.354 277.946C101.12 278.171 101.971 277.975 102.567 277.412C103.163 276.85 103.39 276.034 103.191 275.247L99.4178 259.895C99.2192 259.108 98.6233 258.489 97.8573 258.264C97.2614 258.096 96.6656 258.18 96.1265 258.461C95.9563 258.545 95.786 258.658 95.6442 258.799L84.0963 269.736C83.5005 270.299 83.2735 271.114 83.4721 271.901C83.6707 272.66 84.2666 273.279 85.0326 273.504Z" fill="#78A941"/>
<path d="M767.93 279.729L783.251 284.171C784.017 284.396 784.868 284.199 785.464 283.637C786.06 283.075 786.287 282.259 786.088 281.472L782.315 266.12C782.116 265.332 781.52 264.714 780.754 264.489C780.158 264.32 779.563 264.405 779.023 264.686C778.853 264.77 778.683 264.883 778.541 265.023L766.993 275.961C766.397 276.523 766.17 277.339 766.369 278.126C766.568 278.885 767.164 279.504 767.93 279.729Z" fill="#78A941"/>
<path d="M862.797 238.096L875.418 241.752C876.058 241.924 876.756 241.781 877.221 241.32C877.716 240.859 877.89 240.197 877.745 239.535L874.633 226.87C874.488 226.237 873.993 225.718 873.354 225.546C872.859 225.402 872.365 225.459 871.929 225.69C871.783 225.776 871.667 225.862 871.522 225.978L862.012 234.987C861.518 235.448 861.343 236.11 861.489 236.772C861.663 237.405 862.158 237.923 862.797 238.096Z" fill="#F67300"/>
<path d="M576.333 462.181L580.969 446.867C581.194 446.098 581.025 445.244 580.463 444.647C579.929 444.049 579.086 443.793 578.328 443.992L562.93 447.579C562.143 447.749 561.525 448.347 561.3 449.116C561.132 449.713 561.188 450.311 561.469 450.852C561.553 451.023 561.666 451.194 561.806 451.336L572.568 463.064C573.102 463.662 573.945 463.918 574.703 463.718C575.462 463.548 576.108 462.978 576.333 462.181Z" fill="#65E2CB"/>
<path d="M354.085 35.7876L369.52 37.3711C370.292 37.4545 371.064 37.0933 371.532 36.4543C372.001 35.8154 372.084 34.9819 371.753 34.2596L365.386 20.0076C365.055 19.2852 364.394 18.7852 363.594 18.7018C363.016 18.6463 362.437 18.813 361.968 19.2019C361.83 19.313 361.693 19.4519 361.582 19.6186L352.514 32.2871C352.046 32.9261 351.963 33.7595 352.294 34.4818C352.624 35.2042 353.314 35.7042 354.085 35.7876Z" fill="#65E2CB"/>
<path d="M135.628 200.507L151.063 202.091C151.834 202.174 152.606 201.813 153.075 201.174C153.543 200.535 153.626 199.702 153.295 198.979L146.928 184.727C146.598 184.005 145.936 183.505 145.137 183.422C144.558 183.366 143.979 183.533 143.511 183.922C143.373 184.033 143.235 184.172 143.125 184.338L134.056 197.007C133.588 197.646 133.505 198.479 133.836 199.202C134.167 199.952 134.828 200.452 135.628 200.507Z" fill="#F67300"/>
<path d="M785.992 204.096L801.427 205.68C802.199 205.763 802.97 205.402 803.439 204.763C803.908 204.124 803.99 203.29 803.66 202.568L797.293 188.316C796.962 187.594 796.3 187.094 795.501 187.01C794.922 186.955 794.343 187.122 793.875 187.511C793.737 187.622 793.599 187.761 793.489 187.927L784.421 200.596C783.952 201.235 783.869 202.068 784.2 202.79C784.531 203.541 785.193 204.041 785.992 204.096Z" fill="#F67300"/>
<path d="M654.992 260.096L670.427 261.68C671.199 261.763 671.97 261.402 672.439 260.763C672.908 260.124 672.99 259.29 672.66 258.568L666.293 244.316C665.962 243.594 665.3 243.094 664.501 243.01C663.922 242.955 663.343 243.122 662.875 243.511C662.737 243.622 662.599 243.761 662.489 243.927L653.421 256.596C652.952 257.235 652.869 258.068 653.2 258.79C653.531 259.541 654.193 260.041 654.992 260.096Z" fill="#F67300"/>
<path d="M129.786 142.099L145.221 143.68C145.993 143.763 146.765 143.402 147.233 142.764C147.702 142.126 147.785 141.294 147.454 140.573L141.087 126.314C140.756 125.593 140.095 125.094 139.295 125.01C138.717 124.955 138.138 125.121 137.669 125.51C137.531 125.621 137.394 125.759 137.283 125.926L128.215 138.575C127.747 139.214 127.664 140.046 127.995 140.767C128.325 141.516 129.015 142.015 129.786 142.099Z" fill="#4B78C6"/>
<path d="M812.683 148.323L828.118 149.904C828.89 149.988 829.662 149.627 830.13 148.989C830.599 148.351 830.682 147.519 830.351 146.797L823.984 132.539C823.653 131.818 822.992 131.318 822.192 131.235C821.614 131.18 821.035 131.346 820.566 131.734C820.428 131.845 820.291 131.984 820.18 132.15L811.112 144.8C810.644 145.438 810.561 146.27 810.892 146.992C811.222 147.741 811.911 148.24 812.683 148.323Z" fill="#4B78C6"/>
<path d="M817.992 291.099L833.427 292.68C834.199 292.763 834.97 292.402 835.439 291.764C835.908 291.126 835.99 290.294 835.66 289.573L829.293 275.314C828.962 274.593 828.3 274.094 827.501 274.01C826.922 273.955 826.343 274.121 825.875 274.51C825.737 274.621 825.599 274.759 825.489 274.926L816.421 287.575C815.952 288.214 815.87 289.046 816.2 289.767C816.531 290.516 817.22 291.015 817.992 291.099Z" fill="#4B78C6"/>
<path d="M715.992 403.099L731.427 404.68C732.199 404.763 732.97 404.402 733.439 403.764C733.908 403.126 733.99 402.294 733.66 401.573L727.293 387.314C726.962 386.593 726.3 386.094 725.501 386.01C724.922 385.955 724.343 386.121 723.875 386.51C723.737 386.621 723.599 386.759 723.489 386.926L714.421 399.575C713.952 400.214 713.87 401.046 714.2 401.767C714.531 402.516 715.22 403.015 715.992 403.099Z" fill="#4B78C6"/>
<path d="M625.992 144.099L641.427 145.68C642.199 145.763 642.97 145.402 643.439 144.764C643.908 144.126 643.99 143.294 643.66 142.573L637.293 128.314C636.962 127.593 636.3 127.094 635.501 127.01C634.922 126.955 634.343 127.121 633.875 127.51C633.737 127.621 633.599 127.759 633.489 127.926L624.421 140.575C623.952 141.214 623.87 142.046 624.2 142.767C624.531 143.516 625.22 144.015 625.992 144.099Z" fill="#4B78C6"/>
<path d="M864.249 138.913L876.972 140.179C877.611 140.237 878.25 139.978 878.628 139.431C879.005 138.913 879.064 138.222 878.802 137.646L873.574 126.077C873.312 125.502 872.76 125.099 872.092 125.012C871.598 124.955 871.134 125.099 870.756 125.415C870.64 125.502 870.524 125.617 870.436 125.761L862.942 136.035C862.564 136.553 862.506 137.244 862.768 137.819C863.058 138.452 863.61 138.855 864.249 138.913Z" fill="#7F48C3"/>
<path d="M666.642 349.913L679.365 351.179C680.004 351.237 680.643 350.978 681.02 350.431C681.398 349.913 681.456 349.222 681.195 348.646L675.966 337.077C675.705 336.502 675.153 336.099 674.485 336.012C673.991 335.955 673.526 336.099 673.149 336.415C673.032 336.502 672.916 336.617 672.829 336.761L665.335 347.035C664.957 347.553 664.899 348.244 665.16 348.819C665.451 349.452 666.003 349.855 666.642 349.913Z" fill="#7F48C3"/>
<path d="M-14.2554 189.146L-1.53247 190.412C-0.893426 190.47 -0.254392 190.211 0.123228 189.664C0.500847 189.146 0.558971 188.455 0.297542 187.88L-4.93104 176.311C-5.19246 175.735 -5.7444 175.332 -6.41249 175.246C-6.9063 175.188 -7.37102 175.332 -7.74864 175.649C-7.86483 175.735 -7.98105 175.85 -8.0682 175.994L-15.5625 186.268C-15.9401 186.786 -15.9982 187.477 -15.7367 188.053C-15.4463 188.686 -14.8944 189.089 -14.2554 189.146Z" fill="#7F48C3"/>
<path d="M244.405 30.5126C245.727 29.9758 247.135 31.0776 246.934 32.4619L245.095 45.2316L243.255 58.0013C243.054 59.3856 241.387 60.0636 240.266 59.1878L229.949 51.2492L219.631 43.3105C218.51 42.4347 218.74 40.7114 220.091 40.1746L232.248 35.3718L244.405 30.5126Z" fill="#FF3612"/>
<path d="M465.411 459.112L477.692 465.233L489.944 471.382L478.382 478.682L466.82 485.981L466.101 472.533L465.411 459.112Z" fill="#FFAC39"/>
<path d="M752.794 445.093L765.046 451.214L777.327 457.363L765.765 464.663L754.175 471.962L753.485 458.514L752.794 445.093Z" fill="#EF7807"/>
<path d="M30.8316 270C30.8316 272.576 28.7348 274.673 26.1587 274.673C23.5827 274.673 21.4858 272.576 21.4858 270C21.4858 267.424 23.5827 265.327 26.1587 265.327C28.7648 265.327 30.8316 267.424 30.8316 270Z" fill="#FF3612"/>
<path d="M713.729 276.225C713.729 278.801 711.632 280.898 709.056 280.898C706.48 280.898 704.383 278.801 704.383 276.225C704.383 273.649 706.48 271.552 709.056 271.552C711.662 271.552 713.729 273.649 713.729 276.225Z" fill="#FF3612"/>
<path d="M881.299 292.056C881.299 294.632 879.202 296.729 876.626 296.729C874.05 296.729 871.953 294.632 871.953 292.056C871.953 289.48 874.05 287.383 876.626 287.383C879.202 287.383 881.299 289.48 881.299 292.056Z" fill="#FF3612"/>
<path d="M547.187 473.131C547.187 475.707 545.09 477.804 542.514 477.804C539.938 477.804 537.841 475.707 537.841 473.131C537.841 470.555 539.938 468.458 542.514 468.458C545.09 468.458 547.187 470.555 547.187 473.131Z" fill="#FF3612"/>
<path d="M597.421 25.701C597.421 27.642 595.857 29.2056 593.916 29.2056C591.975 29.2056 590.411 27.642 590.411 25.701C590.411 23.7599 591.975 22.1963 593.916 22.1963C595.857 22.1963 597.421 23.7599 597.421 25.701Z" fill="#FF3612"/>
<path d="M642.981 35.0467C642.981 36.9877 641.418 38.5513 639.477 38.5513C637.536 38.5513 635.972 36.9877 635.972 35.0467C635.972 33.1056 637.536 31.542 639.477 31.542C641.418 31.542 642.981 33.1056 642.981 35.0467Z" fill="#78A941"/>
<path d="M97.4205 129.673C97.4205 132.249 95.3237 134.346 92.7476 134.346C90.1715 134.346 88.0747 132.249 88.0747 129.673C88.0747 127.097 90.1715 125 92.7476 125C95.3536 125.03 97.4205 127.097 97.4205 129.673Z" fill="#FFAC39"/>
<path d="M780.317 135.898C780.317 138.474 778.221 140.57 775.645 140.57C773.068 140.57 770.972 138.474 770.972 135.898C770.972 133.321 773.068 131.225 775.645 131.225C778.251 131.255 780.317 133.321 780.317 135.898Z" fill="#FFAC39"/>
<path d="M869.617 75.9346C869.617 78.5107 867.52 80.6075 864.944 80.6075C862.368 80.6075 860.271 78.5107 860.271 75.9346C860.271 73.3585 862.368 71.2617 864.944 71.2617C867.52 71.2617 869.617 73.3585 869.617 75.9346Z" fill="#FFAC39"/>
<path d="M120.785 236.566C120.785 238.166 119.493 239.486 117.865 239.486C116.264 239.486 114.944 238.194 114.944 236.566C114.944 234.965 116.236 233.645 117.865 233.645C119.465 233.645 120.785 234.937 120.785 236.566Z" fill="#7F48C3"/>
<path d="M690.878 16.3553C690.878 18.2963 689.315 19.8599 687.374 19.8599C685.433 19.8599 683.869 18.2963 683.869 16.3553C683.869 14.4142 685.433 12.8506 687.374 12.8506C689.315 12.8506 690.878 14.4142 690.878 16.3553Z" fill="#FFAC39"/>
<path d="M221.252 477.804C221.252 479.092 220.204 480.14 218.916 480.14C217.628 480.14 216.579 479.092 216.579 477.804C216.579 476.516 217.628 475.467 218.916 475.467C220.204 475.467 221.252 476.516 221.252 477.804Z" fill="#65E2CB"/>
<path d="M610.271 477.219C610.271 480.108 607.931 482.476 605.014 482.476C602.126 482.476 599.757 480.137 599.757 477.219C599.757 474.331 602.097 471.962 605.014 471.962C607.931 471.962 610.271 474.302 610.271 477.219Z" fill="#34A5CF"/>
<path d="M100.925 192.757C100.925 194.698 99.3617 196.262 97.4207 196.262C95.4796 196.262 93.916 194.698 93.916 192.757C93.916 190.816 95.4796 189.252 97.4207 189.252C99.3617 189.252 100.925 190.843 100.925 192.757Z" fill="#65E2CB"/>
<path d="M820.009 240.505C820.009 242.446 818.446 244.009 816.505 244.009C814.564 244.009 813 242.446 813 240.505C813 238.564 814.564 237 816.505 237C818.446 237 820.009 238.591 820.009 240.505Z" fill="#65E2CB"/>
<path d="M880.131 408.879C880.131 410.82 878.567 412.383 876.626 412.383C874.685 412.383 873.122 410.82 873.122 408.879C873.122 406.938 874.685 405.374 876.626 405.374C878.567 405.374 880.131 406.938 880.131 408.879Z" fill="#65E2CB"/>
<path d="M782.528 338L787.793 346.762L793.028 355.523H782.528H772L777.264 346.762L782.528 338Z" fill="#FFAC39"/>
<path d="M36.691 450.925C36.691 452.866 35.1274 454.43 33.1863 454.43C31.2453 454.43 29.6816 452.866 29.6816 450.925C29.6816 448.984 31.2453 447.42 33.1863 447.42C35.1274 447.42 36.691 448.984 36.691 450.925Z" fill="#65E2CB"/>
<path d="M880.131 184.579C880.131 186.52 878.567 188.084 876.626 188.084C874.685 188.084 873.122 186.52 873.122 184.579C873.122 182.638 874.685 181.075 876.626 181.075C878.567 181.075 880.131 182.638 880.131 184.579Z" fill="#65E2CB"/>
<path d="M326.393 479.556C326.393 481.157 325.101 482.477 323.472 482.477C321.871 482.477 320.551 481.185 320.551 479.556C320.551 477.956 321.843 476.636 323.472 476.636C325.101 476.636 326.393 477.928 326.393 479.556Z" fill="#65E2CB"/>
<path d="M288.425 438.084C290.038 438.084 291.346 436.777 291.346 435.164C291.346 433.551 290.038 432.243 288.425 432.243C286.812 432.243 285.505 433.551 285.505 435.164C285.505 436.777 286.812 438.084 288.425 438.084Z" fill="#FF9090"/>
<path d="M27.327 167.64C27.327 170.529 24.9874 172.897 22.07 172.897C19.1526 172.897 16.813 170.558 16.813 167.64C16.813 164.723 19.1526 162.383 22.07 162.383C24.9874 162.383 27.327 164.723 27.327 167.64Z" fill="#FF3612"/>
<path d="M710.224 173.865C710.224 176.753 707.884 179.122 704.967 179.122C702.05 179.122 699.71 176.782 699.71 173.865C699.71 170.948 702.05 168.608 704.967 168.608C707.884 168.608 710.224 170.948 710.224 173.865Z" fill="#FF3612"/>
<path d="M44.8507 115.654C44.8507 117.595 43.287 119.159 41.346 119.159C39.4049 119.159 37.8413 117.595 37.8413 115.654C37.8413 113.713 39.4049 112.149 41.346 112.149C43.287 112.149 44.8507 113.713 44.8507 115.654Z" fill="#65E2CB"/>
<path d="M727.748 121.879C727.748 123.82 726.184 125.384 724.243 125.384C722.302 125.384 720.738 123.82 720.738 121.879C720.738 119.938 722.302 118.375 724.243 118.375C726.184 118.375 727.748 119.938 727.748 121.879Z" fill="#65E2CB"/>
<path d="M69.3831 166.472C69.3831 168.073 68.0913 169.392 66.4626 169.392C64.8619 169.392 63.542 168.101 63.542 166.472C63.542 164.871 64.8338 163.551 66.4626 163.551C68.0913 163.551 69.3831 164.871 69.3831 166.472Z" fill="#FF9090"/>
<path d="M832.841 385.921C832.841 387.521 831.549 388.841 829.921 388.841C828.32 388.841 827 387.549 827 385.921C827 384.32 828.292 383 829.921 383C831.549 383 832.841 384.32 832.841 385.921Z" fill="#FF9090"/>
<path d="M679.841 406.921C679.841 408.521 678.549 409.841 676.921 409.841C675.32 409.841 674 408.549 674 406.921C674 405.32 675.292 404 676.921 404C678.549 404 679.841 405.32 679.841 406.921Z" fill="#FF9090"/>
<path d="M69.3831 236.566C69.3831 238.166 68.0913 239.486 66.4626 239.486C64.8619 239.486 63.542 238.194 63.542 236.566C63.542 234.965 64.8338 233.645 66.4626 233.645C68.0632 233.645 69.3831 234.937 69.3831 236.566Z" fill="#FF9090"/>
<path d="M808.841 439.014C808.841 440.615 807.549 441.934 805.921 441.934C804.32 441.934 803 440.643 803 439.014C803 437.413 804.292 436.093 805.921 436.093C807.521 436.093 808.841 437.385 808.841 439.014Z" fill="#FF9090"/>
<path d="M752.28 242.79C752.28 244.391 750.988 245.711 749.36 245.711C747.759 245.711 746.439 244.419 746.439 242.79C746.439 241.189 747.731 239.87 749.36 239.87C750.96 239.87 752.28 241.161 752.28 242.79Z" fill="#FF9090"/>
<path d="M512.14 450.35C512.14 451.951 510.848 453.271 509.22 453.271C507.619 453.271 506.299 451.979 506.299 450.35C506.299 448.75 507.591 447.43 509.22 447.43C510.82 447.43 512.14 448.721 512.14 450.35Z" fill="#FF3612"/>
<path d="M433.869 454.439C433.869 456.38 432.306 457.944 430.364 457.944C428.423 457.944 426.86 456.38 426.86 454.439C426.86 452.498 428.423 450.935 430.364 450.935C432.306 450.935 433.869 452.498 433.869 454.439Z" fill="#65E2CB"/>
<path d="M398.822 480.724C398.822 482.325 397.531 483.645 395.902 483.645C394.301 483.645 392.981 482.353 392.981 480.724C392.981 479.124 394.273 477.804 395.902 477.804C397.531 477.804 398.822 479.124 398.822 480.724Z" fill="#FF9090"/>
<path d="M729.43 477.219C729.43 478.82 728.138 480.14 726.509 480.14C724.909 480.14 723.589 478.848 723.589 477.219C723.589 475.619 724.881 474.299 726.509 474.299C728.138 474.327 729.43 475.619 729.43 477.219Z" fill="#65E2CB"/>
<path d="M706.065 450.35C706.065 451.951 704.774 453.271 703.145 453.271C701.544 453.271 700.224 451.979 700.224 450.35C700.224 448.75 701.516 447.43 703.145 447.43C704.746 447.43 706.065 448.721 706.065 450.35Z" fill="#FF3612"/>
<path d="M642.981 449.766C642.981 451.707 641.418 453.271 639.477 453.271C637.536 453.271 635.972 451.707 635.972 449.766C635.972 447.825 637.536 446.262 639.477 446.262C641.418 446.262 642.981 447.825 642.981 449.766Z" fill="#65E2CB"/>
<path d="M327.561 52.5701C327.561 54.5112 325.997 56.0748 324.056 56.0748C322.115 56.0748 320.551 54.5112 320.551 52.5701C320.551 50.6291 322.115 49.0654 324.056 49.0654C325.997 49.0654 327.561 50.6291 327.561 52.5701Z" fill="#FF3612"/>
<path d="M407 52.5701C407 54.5112 405.436 56.0748 403.495 56.0748C401.554 56.0748 399.991 54.5112 399.991 52.5701C399.991 50.6291 401.554 49.0654 403.495 49.0654C405.436 49.0654 407 50.6291 407 52.5701Z" fill="#FF3612"/>
<path d="M479.43 43.2244C479.43 45.1654 477.866 46.7291 475.925 46.7291C473.984 46.7291 472.421 45.1654 472.421 43.2244C472.421 41.2833 473.984 39.7197 475.925 39.7197C477.866 39.7197 479.43 41.2833 479.43 43.2244Z" fill="#EF7807"/>
<path d="M298.355 21.612C298.355 23.2127 297.063 24.5325 295.435 24.5325C293.834 24.5325 292.514 23.2407 292.514 21.612C292.514 20.0113 293.806 18.6914 295.435 18.6914C297.063 18.6914 298.355 19.9832 298.355 21.612Z" fill="#FFAC39"/>
<path d="M432.701 22.1961C432.701 24.1371 431.137 25.7008 429.196 25.7008C427.255 25.7008 425.692 24.1371 425.692 22.1961C425.692 20.255 427.255 18.6914 429.196 18.6914C431.137 18.6914 432.701 20.255 432.701 22.1961Z" fill="#65E2CB"/>
<path d="M793.682 477.804C793.682 479.745 792.119 481.308 790.178 481.308C788.237 481.308 786.673 479.745 786.673 477.804C786.673 475.862 788.237 474.299 790.178 474.299C792.119 474.299 793.682 475.862 793.682 477.804Z" fill="#D93E4F"/>
<path d="M531.995 34.9873L530.899 19.5619C530.843 18.792 530.365 18.0771 529.635 17.7471C528.905 17.3897 528.062 17.4722 527.388 17.9121L514.297 26.5735C513.623 27.0134 513.258 27.7558 513.314 28.5532C513.342 29.1306 513.623 29.6805 514.073 30.0655C514.213 30.203 514.382 30.2855 514.55 30.368L528.764 37.1596C529.495 37.517 530.337 37.4345 531.011 36.9946C531.658 36.5271 532.051 35.7847 531.995 34.9873Z" fill="#7F48C3"/>
<path d="M341.579 441.589L357.336 444.189L373.121 446.789L363.038 459.362L352.955 471.963L347.253 456.79L341.579 441.589Z" fill="#D93E4F"/>
<path d="M442.048 119.159C441.718 118.854 441.424 118.511 441.094 118.206" stroke="#3F2732" stroke-width="1.5859" stroke-linecap="round" stroke-linejoin="round"/>
<path d="M440.141 117.252C416.77 96.265 385.656 102.849 356.938 105.798C342.418 107.284 327.321 107.924 313.423 102.781C296.898 96.6536 292.127 80.5362 308.169 69.7227C310.473 68.1682 316.42 64.8761 317.249 70.0428C318.54 78.0901 303.121 85.6344 297.52 88.332C287.61 93.133 276.593 95.3048 265.599 93.9788C237.965 90.641 195.211 41.2372 169.351 53.3767C161.882 62.9088 144.656 81.6869 135.502 80.5427C124.06 79.1124 105.944 46.2172 118.339 43.3567C128.256 41.0683 132.96 50.3489 134.072 55.2753C135.343 51.3024 139.537 43.9863 145.991 43.3567C165.537 41.4497 147.898 82.6852 115.479 88.332C89.5442 92.8495 85.6031 93.9788 86.8744 93.9788" stroke="#3F2732" stroke-width="1.5859" stroke-linecap="round" stroke-linejoin="round" stroke-dasharray="7.11 7.11"/>
<path d="M169.351 53.3682C169.043 53.4833 168.705 53.6215 168.397 53.7597" stroke="#3F2732" stroke-width="1.5859" stroke-linecap="round" stroke-linejoin="round"/>
<path d="M657.093 52.3031C644.812 60.6108 631.599 67.6623 617.342 71.7162C604.637 75.3134 584.141 79.8812 573.215 69.8035C568.698 65.6353 567.625 58.6124 570.73 53.2452C573.949 47.7067 585.27 46.9074 583.294 55.5576C581.346 64.1223 567.455 63.4656 561.018 62.6663C552.125 61.5529 543.712 58.2698 535.13 55.786C515.423 50.0763 495.209 52.9312 478.354 65.0644" stroke="#3F2732" stroke-width="1.5859" stroke-miterlimit="10" stroke-linecap="round" stroke-linejoin="round" stroke-dasharray="7.14 7.14"/>
<path d="M662.934 47.8974C707.717 25.4741 738.857 31.2109 762.233 43.7878C768.269 48.2729 781.158 63.7852 784.429 89.9534" stroke="#3F2732" stroke-width="1.5859" stroke-miterlimit="10" stroke-linecap="round" stroke-linejoin="round" stroke-dasharray="7.14 7.14"/>
<path d="M30.6419 299.156L35.4889 283.96C35.734 283.2 35.5605 282.344 35.0151 281.733C34.4698 281.122 33.662 280.874 32.8707 281.051L17.4163 284.41C16.6251 284.587 15.9915 285.166 15.7464 285.926C15.5619 286.517 15.6301 287.115 15.8963 287.662C15.9759 287.834 16.0836 288.007 16.2201 288.153L26.8276 299.99C27.3729 300.601 28.1808 300.85 28.972 300.673C29.7632 300.495 30.3968 299.916 30.6419 299.156Z" fill="#FF9090"/>
<path d="M14.103 99.2988L20.5519 87.1872L27.0281 75.1052L34.0143 86.8591L41.0004 98.6131L27.5373 98.97L14.103 99.2988Z" fill="#FFAC39"/>
<path d="M697 105.524L703.449 93.4123L709.925 81.3303L716.911 93.0842L723.897 104.838L710.434 105.195L697 105.524Z" fill="#FFAC39"/>
<path d="M5.92529 471.962L12.3742 459.851L18.8504 447.769L25.8365 459.523L32.8226 471.277L19.3596 471.634L5.92529 471.962Z" fill="#FFAC39"/>
<path d="M30.7078 18.8209C33.283 18.8902 35.3226 21.0427 35.2533 23.6179C35.184 26.193 33.0315 28.2327 30.4563 28.1633C27.8812 28.094 25.8416 25.9415 25.9109 23.3664C25.9802 20.7912 28.1327 18.7516 30.7078 18.8209Z" fill="#FF3612"/>
<path d="M27.8183 347.248C30.7057 347.326 33.0104 349.728 32.9319 352.645C32.8542 355.532 30.4517 357.837 27.5354 357.758C24.648 357.68 22.3432 355.278 22.4217 352.362C22.5002 349.445 24.902 347.169 27.8183 347.248Z" fill="#34A5CF"/>
<path d="M812.931 51.8129C813.068 50.3131 811.833 47.9272 811.285 46.4274C808.781 39.3717 801.922 35.3496 794.617 36.7812C788.409 38.0083 781.961 45.9502 786.557 51.9492C789.129 55.2896 792.285 56.619 796.434 56.4826C798.115 56.4144 800.035 56.4485 801.682 56.2099C803.98 55.835 808.575 55.4941 810.153 53.8239L812.931 51.8129Z" fill="#8AC1CE"/>
<path d="M819.241 54.5738C821.162 54.1989 823.7 51.7788 825.38 50.5517C833.268 44.8594 835.806 34.9065 831.313 26.3851C827.507 19.159 815.16 14.0803 809.33 22.0222C806.106 26.4192 805.626 30.8503 807.306 35.895C807.992 37.9401 808.678 40.3261 809.57 42.2689C810.873 44.9958 812.999 50.5176 815.674 51.881L819.241 54.5738Z" fill="#BAD9E2"/>
<path d="M787.792 79.8992C787.895 79.8311 787.929 79.6947 787.998 79.5925C788.1 79.4561 788.238 79.3198 788.375 79.1834C788.684 78.9107 789.095 78.6721 789.438 78.4336C790.193 77.9564 790.947 77.5473 791.702 77.0701C792.49 76.5929 793.279 76.1498 794.068 75.7067C794.891 75.2636 795.954 74.3774 796.915 74.8887C797.326 75.0932 797.395 75.5363 797.36 75.9453C797.292 76.4566 796.846 76.7293 796.4 76.9679C795.989 77.1724 795.577 77.3769 795.2 77.6155C794.411 78.0586 793.588 78.5017 792.799 78.9107C791.976 79.3198 791.153 79.7629 790.295 80.0356C789.884 80.1719 789.507 80.2742 789.095 80.3423C788.889 80.3764 788.684 80.3764 788.478 80.3423C788.306 80.3082 788.1 80.206 787.895 80.206C787.723 80.2401 787.689 80.0015 787.792 79.8992Z" fill="black"/>
<path d="M793.896 76.0816C797.978 84.3303 805.66 88.1479 813.96 88.8637C819.584 89.375 825.483 88.4887 830.799 86.6481C831.176 86.5118 831.554 86.3754 831.931 86.2391C833.611 85.5915 835.189 84.8416 836.698 83.9213C839.099 82.4556 841.191 80.615 842.803 78.4335C843.317 77.6836 843.797 76.9338 844.209 76.1157C844.517 75.5022 844.792 74.8546 845.032 74.1728C845.375 73.2525 845.615 72.2641 845.821 71.2756C846.884 65.2765 844.963 58.3572 839.27 55.3236C834.983 53.0399 831.279 50.9266 826.306 50.4494L826.066 50.4153C825.106 50.313 824.111 50.2789 823.082 50.2108C820.579 50.1426 818.007 50.2108 815.4 50.5516C812.622 50.8925 809.844 51.506 807.272 52.4604C803.191 53.9261 799.555 56.2439 796.983 59.5843C796.332 60.4023 795.783 61.2885 795.268 62.2429C792.97 66.5377 791.599 71.4801 793.896 76.0816Z" fill="#FAC309"/>
<path d="M845.581 75.6728C845.649 75.6045 845.649 75.6045 845.581 75.6728V75.6728Z" fill="black"/>
<path d="M827.095 80.7174C829.873 82.5921 833.406 83.8532 836.629 83.9214C839.03 82.4557 841.122 80.6151 842.734 78.4336C843.248 77.6837 843.729 76.9339 844.14 76.1158C841.122 76.6953 837.35 75.7068 834.674 74.6501C828.398 72.1278 823.768 67.0832 821.608 60.7774C820.304 56.9257 821.162 53.3467 823.048 50.2449C820.545 50.1768 817.972 50.2449 815.366 50.5858C814.886 51.5743 814.577 52.665 814.371 53.7898C812.656 64.1859 818.521 74.9228 827.095 80.7174Z" fill="black"/>
<path d="M807.032 82.5578C808.987 84.9438 811.319 87.1593 813.925 88.8636C819.55 89.3749 825.449 88.4887 830.765 86.6481C828.398 85.7618 826.1 84.5348 824.077 83.3418C817.561 79.4901 811.422 74.5136 808.61 67.2875C806.758 62.5497 805.763 57.1982 807.238 52.4263C803.156 53.8919 799.521 56.2098 796.949 59.5501C796.572 67.8329 802.128 76.5929 807.032 82.5578Z" fill="black"/>
<path d="M827.609 65.1404C831.176 70.2873 838.653 74.0367 844.998 74.1731C845.341 73.2528 845.581 72.2643 845.786 71.2758C846.85 65.2768 844.929 58.3574 839.236 55.3238C834.949 53.0401 831.245 50.9268 826.272 50.4496L826.032 50.4155C825.14 52.3584 824.797 54.9489 824.763 56.4827C824.729 59.4482 825.895 62.6863 827.609 65.1404Z" fill="#F9A30B"/>
<path d="M846.747 72.264C847.741 72.1277 848.736 71.855 849.662 71.48C854.189 69.5713 858.167 65.9241 859.916 61.3226C866.124 44.6207 843.832 36.4402 831.965 45.6092C825.826 50.3471 823.7 56.2098 828.193 62.9587C831.725 68.3101 839.75 73.2184 846.747 72.264Z" fill="#FAC309"/>
<path d="M839.682 60.3682C843.729 57.2324 842.288 50.8925 838.241 48.3702C833.611 45.4729 827.369 50.4153 827.815 55.4259C828.158 59.2093 831.142 62.0044 835.017 61.868C837.007 61.7998 838.55 61.2204 839.682 60.3682Z" fill="white"/>
<path d="M833.989 50.9947C830.422 49.6313 827.301 53.517 829.427 56.687C831.313 59.5161 836.081 58.6299 836.321 55.085C836.424 53.3125 835.772 51.6764 833.989 50.9947Z" fill="black"/>
<path d="M831.554 53.2101C830.833 52.1876 829.05 52.6988 829.05 53.9941C829.05 55.0167 830.045 55.9029 830.936 55.3234C831.691 54.8803 832.102 54.0282 831.554 53.2101Z" fill="white"/>
<path d="M857.996 59.0048C861.597 56.2097 860.294 50.5856 856.727 48.336C852.611 45.7796 847.09 50.1766 847.467 54.5736C847.776 57.914 850.416 60.4363 853.846 60.3C855.629 60.2659 857.001 59.7546 857.996 59.0048Z" fill="white"/>
<path d="M852.92 50.6878C849.73 49.4948 846.952 52.9374 848.873 55.7324C850.554 58.2548 854.772 57.4367 854.978 54.3009C855.081 52.7329 854.532 51.3013 852.92 50.6878Z" fill="black"/>
<path d="M850.759 52.6647C850.108 51.7444 848.53 52.2216 848.53 53.3805C848.53 54.3008 849.387 55.0507 850.211 54.5735C850.862 54.1304 851.274 53.3805 850.759 52.6647Z" fill="white"/>
<path d="M850.999 64.6631C850.999 64.6631 844.072 67.424 839.613 64.6631C839.613 64.6631 845.272 72.8436 850.999 64.6631Z" fill="black"/>
<path d="M838.687 44.3481C838.104 44.1776 837.761 43.4277 837.452 42.9505C837.109 42.337 836.732 41.7576 836.321 41.1781C835.498 39.9851 834.572 38.8603 833.543 37.8718C832.548 36.9174 831.416 36.1335 830.182 35.554C829.599 35.2813 828.947 35.0768 828.33 34.9405C827.644 34.8041 826.992 34.736 826.375 34.4292C826.135 34.2928 826.032 33.8838 826.272 33.6793C827.472 32.7249 829.359 33.2021 830.696 33.7475C832.205 34.3269 833.508 35.2813 834.709 36.3721C835.875 37.4628 836.904 38.7239 837.761 40.0533C838.173 40.6668 838.55 41.3144 838.859 41.9962C839.133 42.6097 839.579 43.4618 839.27 44.1095C839.167 44.314 838.893 44.4162 838.687 44.3481Z" fill="black"/>
<path d="M846.987 43.2576C846.61 42.0306 847.09 40.8035 847.57 39.6787C848.119 38.3834 848.942 37.2245 849.833 36.1338C850.691 35.0771 851.685 34.1227 852.783 33.3047C853.332 32.8957 853.915 32.4525 854.532 32.1117C854.841 31.9413 855.184 31.8049 855.526 31.7027C855.904 31.5663 856.212 31.6004 856.487 31.6345C857.07 31.6345 857.481 32.4185 857.001 32.8275C856.795 32.9979 856.658 33.2024 856.384 33.3728C856.144 33.5092 855.938 33.6455 855.698 33.7819C855.184 34.1227 854.669 34.4295 854.155 34.8044C853.16 35.5543 852.234 36.5087 851.411 37.4631C850.622 38.3834 849.971 39.3719 849.387 40.4285C848.873 41.417 848.599 42.3714 848.119 43.3599C847.878 43.9393 847.124 43.7348 846.987 43.2576Z" fill="black"/>
<path d="M855.732 31.3277C859.265 30.1007 859.882 36.2701 857.138 37.2586C853.983 38.4175 852.886 32.2821 855.732 31.3277Z" fill="#FAC309"/>
<path d="M824.66 31.3275C828.193 30.1345 828.81 36.2699 826.032 37.2924C822.911 38.4173 821.813 32.2819 824.66 31.3275Z" fill="#FAC309"/>
<path d="M77.5531 400L78.4042 401.596L79.9999 402.447L78.4042 403.404L77.5531 405L76.5957 403.404L74.9999 402.447L76.5957 401.596L77.5531 400Z" fill="#EEEEEE"/>
<path d="M120.465 443H82.6344C74.5705 443 67.9999 436.413 67.9999 428.329V406.671C67.9999 398.587 74.5705 392 82.6344 392H120.365C128.429 392 135 398.587 135 406.671V428.329C135 436.413 128.429 443 120.465 443Z" fill="#78A941"/>
<path d="M140.64 416C126.276 416 113.992 406.81 113.397 406.31C110.722 404.312 110.227 400.517 112.208 397.819C114.19 395.122 117.954 394.623 120.629 396.621C120.827 396.82 133.012 405.711 144.305 403.513C149.754 402.415 154.113 399.018 157.778 392.925C159.561 390.028 163.227 389.129 166.1 390.927C168.972 392.725 169.864 396.421 168.081 399.318C162.632 408.308 155.401 413.802 146.485 415.501C144.503 415.8 142.522 416 140.64 416Z" fill="#DDEEFD"/>
<path d="M128 405.278V437.623C128 439.919 127.094 442.015 125.484 443.912C121.961 448.105 114.915 451 106.862 451H103.037C94.4813 451 87.0328 447.706 83.8118 443.114C82.6039 441.416 81.9999 439.62 81.9999 437.723V405.378C81.9999 398.091 91.4616 392.001 103.138 392.001H106.963C118.538 391.901 128 397.991 128 405.278Z" fill="#DDEEFD"/>
<path d="M91.5776 467L97.375 451.187C98.8743 451.288 109.469 451.288 110.669 451.187L116.466 467L124.463 465.691C129.66 446.151 125.262 439 125.262 439H82.7816C82.7816 439 78.2837 446.05 83.5812 465.691L91.5776 467Z" fill="#FFC8AF"/>
<path d="M81.9999 460C82.4033 461.742 83.4117 466.871 83.9159 468.806L91.0756 469L93.9999 460H81.9999V460Z" fill="#DDEEFD"/>
<path d="M126 460H114L117 471L123.8 470.694C124.4 468.556 125.6 461.833 126 460Z" fill="#DDEEFD"/>
<path d="M104 387.287V396L94.9999 392.745C94.9999 392.745 99.3953 391.5 98.3488 387L104 387.287Z" fill="#FF9D80"/>
<path d="M104 387.287V396L113 392.745C113 392.745 108.605 391.5 109.651 387L104 387.287Z" fill="#FF9D80"/>
<path d="M75.1896 365.908C75.1896 365.908 67.0423 366.306 61.9751 361.829C49.4562 350.685 62.1738 343.323 62.1738 343.323C62.1738 343.323 55.2189 341.432 54.126 333.772C52.6356 323.126 64.8565 320.141 64.8565 320.141C64.8565 320.141 57.9015 304.62 70.9172 299.148C83.933 293.676 89.9937 302.431 89.9937 302.431C89.9937 302.431 94.4648 289.796 106.288 293.775C118.012 297.755 120.695 304.222 120.695 304.222C120.695 304.222 126.954 295.765 134.406 300.64C147.223 308.998 142.355 321.633 142.355 321.633C142.355 321.633 153.582 319.345 154.874 330.986C156.165 342.626 147.124 345.512 147.124 345.512C147.124 345.512 153.781 351.282 149.012 360.436C144.242 369.589 134.009 368.992 134.009 368.992L75.1896 365.908Z" fill="#E74E1B"/>
<path d="M65.4999 368C70.7466 368 74.9999 363.747 74.9999 358.5C74.9999 353.253 70.7466 349 65.4999 349C60.2532 349 55.9999 353.253 55.9999 358.5C55.9999 363.747 60.2532 368 65.4999 368Z" fill="#FF9D80"/>
<path d="M144.5 368C149.747 368 154 363.747 154 358.5C154 353.253 149.747 349 144.5 349C139.253 349 135 353.253 135 358.5C135 363.747 139.253 368 144.5 368Z" fill="#FF9D80"/>
<path d="M132.849 327V332.374H73.0725C69.7903 337.748 67.9999 344.018 67.9999 350.685V366.509C67.9999 378.849 78.1451 389 90.4784 389H121.511C132.75 389 142 379.745 142 368.499V350.685C141.9 341.629 138.519 333.369 132.849 327Z" fill="#FFC8AF"/>
<path opacity="0.51" d="M81.4999 377C85.0898 377 87.9999 374.09 87.9999 370.5C87.9999 366.91 85.0898 364 81.4999 364C77.9101 364 74.9999 366.91 74.9999 370.5C74.9999 374.09 77.9101 377 81.4999 377Z" fill="#FF9D80"/>
<path opacity="0.51" d="M127.5 377C131.09 377 134 374.09 134 370.5C134 366.91 131.09 364 127.5 364C123.91 364 121 366.91 121 370.5C121 374.09 123.91 377 127.5 377Z" fill="#FF9D80"/>
<path d="M101 369C102.436 372.748 107.894 373.016 110 369.625" stroke="#3F2732" stroke-miterlimit="10" stroke-linecap="round" stroke-linejoin="round"/>
<path d="M70.6839 353.896C70.6839 353.896 83.7813 356.693 90.2308 352.198C96.7795 347.702 92.8106 333.817 103.031 331.42C113.151 328.922 114.838 338.212 114.838 338.212C114.838 338.212 123.173 333.018 127.439 336.314C138.056 344.506 123.371 358.391 135.576 357.992C147.78 357.492 145.895 347.103 145.895 347.103C145.895 347.103 143.613 347.303 141.529 344.606C139.445 341.909 147.582 318.833 119.005 324.926C119.005 324.926 108.786 308.344 88.4448 316.036C68.1041 323.828 64.6313 343.107 70.6839 353.896Z" fill="#E74E1B"/>
<path d="M73.9096 334C72.7079 334 71.6064 333.7 70.7051 333.1C67.3004 330.798 66.9999 325.395 66.9999 325.095C66.9999 324.895 67.1001 324.695 67.3004 324.695C67.5006 324.695 67.7009 324.795 67.7009 324.995C67.7009 325.095 68.0013 330.398 71.1057 332.399C72.6078 333.4 74.6106 333.5 76.9138 332.699C79.6175 331.799 82.5216 329.097 85.6259 326.296C90.5328 321.893 95.6399 317.291 100.847 318.091C103.851 318.592 106.555 320.793 108.958 324.895C109.059 325.095 108.958 325.295 108.858 325.395C108.658 325.495 108.458 325.395 108.358 325.295C106.054 321.393 103.551 319.292 100.747 318.792C95.9403 318.091 90.9333 322.494 86.1266 326.796C82.9221 329.698 79.918 332.399 77.114 333.4C75.9124 333.8 74.911 334 73.9096 334Z" fill="#2D202A"/>
<path d="M113.25 326C112.956 326 112.858 325.8 112.858 325.601C112.858 325.501 114.622 315.514 110.113 311.919C108.25 310.421 105.407 310.72 102.76 311.02C100.113 311.32 97.6617 311.519 96.1911 310.121C95.3088 309.322 94.9166 308.124 95.0146 306.326C95.0146 306.126 95.2107 305.927 95.4068 306.027C95.6029 306.027 95.7989 306.226 95.7009 306.426C95.7009 308.024 95.995 309.023 96.6813 309.722C97.8577 310.92 100.211 310.62 102.662 310.421C105.505 310.121 108.446 309.822 110.603 311.519C115.407 315.414 113.74 325.501 113.642 325.9C113.642 325.9 113.446 326 113.25 326Z" fill="#2D202A"/>
<path d="M116.405 328C116.203 328 116 327.797 116 327.595C116.101 327.189 117.621 316.547 124.611 316.04C127.549 315.838 129.879 316.446 131.703 316.851C134.236 317.459 135.857 317.865 137.376 316.142C137.478 316.04 137.782 315.939 137.883 316.142C137.984 316.243 138.086 316.547 137.883 316.648C136.059 318.675 134.033 318.169 131.5 317.561C129.677 317.155 127.448 316.547 124.611 316.75C118.127 317.155 116.608 327.493 116.608 327.595C116.709 327.899 116.608 328 116.405 328Z" fill="#2D202A"/>
<path d="M141.457 339C138.23 339 137.252 336.93 136.176 334.467C135.1 332.102 133.926 329.441 130.601 327.371C128.058 325.795 125.906 325.302 124.146 325.992C121.701 326.879 120.723 329.638 120.723 329.638C120.625 329.835 120.43 329.934 120.234 329.835C120.038 329.736 119.941 329.539 120.038 329.342C120.038 329.244 121.114 326.287 123.853 325.302C125.906 324.612 128.254 325.105 130.992 326.78C134.513 329.047 135.785 331.905 136.86 334.171C138.132 337.128 139.012 339 143.609 338.113C143.804 338.113 144 338.212 144 338.409C144 338.606 143.902 338.803 143.707 338.803C142.826 339 142.142 339 141.457 339Z" fill="#2D202A"/>
<path d="M78.5189 343C77.8101 343 77.3037 342.903 77.3037 342.903C77.1012 342.903 76.9999 342.708 76.9999 342.514C76.9999 342.319 77.2025 342.222 77.405 342.222C77.5063 342.222 83.3797 342.903 88.1392 338.72C89.962 337.164 91.2784 335.024 92.4936 332.982C94.7215 329.48 96.7468 326.27 100.696 327.146C100.899 327.146 101 327.34 101 327.535C101 327.729 100.797 327.827 100.595 327.827C97.1518 327.048 95.3291 329.966 93.2025 333.371C91.886 335.413 90.5696 337.553 88.7468 339.207C84.7974 342.611 80.5442 343 78.5189 343Z" fill="#2D202A"/>
<path d="M142.196 353C140.389 353 134.061 352.798 133.86 350.075C133.86 349.47 133.961 348.663 134.162 347.554C134.865 343.721 135.969 337.973 129.24 334.746C129.039 334.645 128.939 334.443 129.039 334.241C129.14 334.04 129.341 333.939 129.542 334.04C136.773 337.569 135.568 343.822 134.865 347.655C134.664 348.663 134.563 349.47 134.563 349.974C134.664 351.689 139.585 352.193 142.598 352.193C142.799 352.193 143 352.395 143 352.597C143 352.798 142.799 353 142.598 353C142.498 353 142.397 353 142.196 353Z" fill="#2D202A"/>
<path d="M92.9999 364C94.1045 364 94.9999 363.105 94.9999 362C94.9999 360.895 94.1045 360 92.9999 360C91.8954 360 90.9999 360.895 90.9999 362C90.9999 363.105 91.8954 364 92.9999 364Z" fill="#3F2732"/>
<path d="M119 362C119 363.091 118.091 364 117 364C115.909 364 115 363.091 115 362C115 360.909 115.909 360 117 360C118.091 360 119 360.909 119 362Z" fill="#3F2732"/>
<path d="M104 356V361.637L108 359.659L105.818 365" stroke="#D6402E" stroke-miterlimit="10" stroke-linecap="round" stroke-linejoin="round"/>
<path d="M161.805 380.875C165.446 380.381 163.084 386.605 162.789 389.074C163.871 389.173 164.658 387.988 165.052 386.901C165.839 385.024 166.627 383.246 167.414 381.369C167.906 380.085 168.988 378.603 170.267 379.097C171.251 379.492 171.448 380.678 171.35 381.764C171.251 382.95 171.055 384.135 170.661 385.32C171.547 384.431 172.432 383.542 173.219 382.653C174.105 381.764 175.384 380.777 176.467 381.468C177.155 381.863 177.352 382.851 177.155 383.542C176.959 384.333 176.467 385.024 175.975 385.617C174.991 386.901 174.007 388.185 172.629 388.975C174.007 387.987 175.581 387.197 177.155 386.605C178.041 386.308 179.123 386.111 179.714 386.802C180.501 387.79 179.517 389.173 178.533 389.864C177.155 390.852 175.679 391.741 174.105 392.531C174.991 391.939 176.073 391.642 177.155 391.84C177.451 391.84 177.746 391.939 177.943 392.136C178.73 392.729 177.943 393.914 177.254 394.606C175.286 396.483 173.219 398.359 170.661 399.347C166.233 401.125 161.903 399.15 160.132 394.902C159.246 392.828 158.853 390.556 159.05 388.383C159.542 382.357 161.805 380.875 161.805 380.875Z" fill="#FFC8AF"/>
<path d="M67.3599 415C81.7243 415 94.0083 405.81 94.6026 405.31C97.2774 403.312 97.7727 399.517 95.7914 396.819C93.8101 394.122 90.0457 393.623 87.3709 395.621C87.1728 395.82 74.9879 404.711 63.6945 402.513C58.246 401.415 53.8871 398.018 50.2217 391.925C48.4386 389.028 44.7732 388.129 41.9003 389.927C39.0274 391.725 38.1359 395.421 39.919 398.318C45.3676 407.308 52.5993 412.802 61.5151 414.501C63.4964 414.8 65.4777 415 67.3599 415Z" fill="#DDEEFD"/>
<path d="M47.195 379.875C43.5542 379.381 45.9158 385.605 46.211 388.074C45.1286 388.173 44.3414 386.987 43.9478 385.901C43.1606 384.024 42.3734 382.246 41.5862 380.369C41.0942 379.085 40.0117 377.603 38.7325 378.097C37.7485 378.492 37.5517 379.678 37.6501 380.764C37.7485 381.95 37.9453 383.135 38.3389 384.32C37.4533 383.431 36.5677 382.542 35.7805 381.653C34.8949 380.764 33.6157 379.777 32.5332 380.468C31.8444 380.863 31.6476 381.851 31.8444 382.542C32.0412 383.333 32.5332 384.024 33.0253 384.617C34.0093 385.901 34.9933 387.185 36.3709 387.975C34.9933 386.987 33.4189 386.197 31.8444 385.605C30.9588 385.308 29.8764 385.111 29.286 385.802C28.4988 386.79 29.4828 388.173 30.4668 388.864C31.8444 389.852 33.3205 390.741 34.8949 391.531C34.0093 390.939 32.9269 390.642 31.8444 390.84C31.5492 390.84 31.254 390.939 31.0572 391.136C30.27 391.729 31.0572 392.914 31.746 393.606C33.7141 395.483 35.7805 397.359 38.3389 398.347C42.767 400.125 47.0966 398.15 48.8679 393.902C49.7535 391.828 50.1471 389.556 49.9503 387.383C49.4583 381.357 47.195 379.875 47.195 379.875Z" fill="#FFC8AF"/>
<path d="M116.739 469.198L116.036 475.44C115.735 477.817 117.341 480.096 119.55 479.997L131.497 479.898C132.903 479.898 133.505 477.916 132.501 476.926L124.269 469L116.739 469.198Z" fill="#3F2732"/>
<path d="M125 469H117V471H125V469Z" fill="#3F2732"/>
<path d="M92.2608 469.198L92.9636 475.44C93.2648 477.817 91.6584 480.096 89.4497 479.997L77.5025 479.898C76.0969 479.898 75.4945 477.916 76.4985 476.926L84.731 469L92.2608 469.198Z" fill="#3F2732"/>
<path d="M125.5 421C123 421 121 419.008 121 416.517V399.483C121 396.992 123 395 125.5 395C128 395 130 396.992 130 399.483V416.517C130 419.008 128 421 125.5 421Z" fill="#597C2A"/>
<path d="M82.4999 421C79.9999 421 77.9999 419.008 77.9999 416.517V399.483C77.9999 396.992 79.9999 395 82.4999 395C84.9999 395 86.9999 396.992 86.9999 399.483V416.517C86.9999 418.908 84.9999 421 82.4999 421Z" fill="#597C2A"/>
<path d="M92.9999 391.008H114.797L115 394.746L107.193 400L103.442 396.161L99.7926 399.798L93.2027 394.544C93.2027 394.544 92.9999 390.806 92.9999 391.008Z" fill="#44B0D7"/>
<path d="M104 402C102.406 402 101 400.552 101 398.69V396.31C101 394.552 102.312 393 104 393C105.594 393 107 394.448 107 396.31V398.69C106.906 400.552 105.594 402 104 402Z" fill="#4C2A3B"/>
<path d="M102.641 400.196L95.9999 415.027L104.654 422L112 414.929L104.956 400L102.641 400.196Z" fill="#4C2A3B"/>
<path d="M81.5295 429.499C81.5295 429.499 79.3138 448.137 83.9467 465H93.4139L97.8454 450.8H111.24L115.873 463.619L125.441 463.817C125.441 463.817 131.081 446.362 128.161 429.006C128.161 429.006 80.8245 428.908 81.5295 429.499Z" fill="#4F2F3F"/>
<path d="M93.4999 438C92.1458 438 90.9999 436.881 90.9999 435.559V428.441C90.9999 427.119 92.1458 426 93.4999 426C94.8541 426 95.9999 427.119 95.9999 428.441V435.559C95.9999 436.983 94.8541 438 93.4999 438Z" fill="#725465"/>
<path d="M116.5 438C115.146 438 114 436.881 114 435.559V428.441C114 427.119 115.146 426 116.5 426C117.854 426 119 427.119 119 428.441V435.559C119 436.983 117.854 438 116.5 438Z" fill="#725465"/>
<path d="M86.2631 473H79.7368C79.3157 473 78.9999 472.667 78.9999 472.222V471.778C78.9999 471.333 79.3157 471 79.7368 471H86.2631C86.6841 471 86.9999 471.333 86.9999 471.778V472.222C86.9999 472.667 86.6841 473 86.2631 473Z" fill="#523544"/>
<path d="M130.263 475H123.737C123.316 475 123 474.667 123 474.222V473.778C123 473.333 123.316 473 123.737 473H130.263C130.684 473 131 473.333 131 473.778V474.222C130.895 474.667 130.579 475 130.263 475Z" fill="#523544"/>
<path d="M84.2631 475H77.7368C77.3157 475 76.9999 474.667 76.9999 474.222V473.778C76.9999 473.333 77.3157 473 77.7368 473H84.2631C84.6841 473 84.9999 473.333 84.9999 473.778V474.222C84.8947 474.667 84.5789 475 84.2631 475Z" fill="#523544"/>
<path d="M128.263 473H121.737C121.316 473 121 472.667 121 472.222V471.778C121 471.333 121.316 471 121.737 471H128.263C128.684 471 129 471.333 129 471.778V472.222C128.895 472.667 128.579 473 128.263 473Z" fill="#523544"/>
<path d="M682.861 470H212.139C204.315 470 198 460.718 198 449.219V50.7809C198 39.2821 204.315 30 212.139 30H682.861C690.685 30 697 39.2821 697 50.7809V449.219C697 460.718 690.685 470 682.861 470Z" fill="white" stroke="#BF3037" stroke-width="5" stroke-miterlimit="10"/>
<path d="M357 116C375.225 116 390 101.225 390 83C390 64.7746 375.225 50 357 50C338.775 50 324 64.7746 324 83C324 101.225 338.775 116 357 116Z" fill="#78A941"/>
<path d="M355.02 112.205C346.605 111.05 338.19 106.265 333.405 99.3346C332.745 98.5096 330.105 93.2296 333.735 94.5496C336.705 95.7046 338.52 98.6746 341.325 100.325C349.74 104.78 359.97 106.1 367.89 99.8296C368.55 99.3346 369.045 98.8396 369.87 98.5096C372.015 97.5196 375.15 98.8396 375.645 101.15C376.14 103.295 373.665 106.76 372.18 108.245C370.53 109.73 368.55 110.72 366.405 111.38C362.61 112.535 358.815 112.7 355.02 112.205Z" fill="#8ABF4D"/>
<path d="M353.371 51.3204C351.886 51.4854 350.401 51.8154 348.916 52.1454C345.121 53.3004 340.501 54.9504 337.366 57.4254C335.386 58.9104 333.901 61.0554 332.416 62.8704C331.096 64.8504 329.776 66.6654 328.291 68.4804C327.136 69.9654 325.981 71.4504 325.651 73.4304C324.991 76.7304 327.796 80.1954 331.096 81.0204C336.211 82.3404 340.336 78.7104 344.296 76.0704C348.916 73.1004 354.196 70.2954 359.311 68.4804C364.921 66.5004 370.861 65.6754 376.636 66.9954C378.781 67.4904 380.761 68.1504 382.576 69.3054C385.381 71.1204 387.361 74.0904 388.186 77.2254C386.041 69.1404 381.916 59.9004 373.996 56.1054C367.231 52.8054 360.796 50.4954 353.371 51.3204Z" fill="#8ABF4D"/>
<path opacity="0.8" d="M342.478 59.7353C342.148 59.5703 341.818 59.5703 341.488 59.5703C338.848 59.9003 337.858 62.2103 336.703 64.1903C335.548 66.5003 334.558 68.9753 334.063 71.4503C334.723 69.3053 335.878 67.3253 337.033 65.5103C338.518 63.0353 339.673 63.0353 341.983 61.7153C342.643 61.3853 343.138 60.5603 342.808 59.9003C342.478 59.9003 342.478 59.9003 342.478 59.7353Z" fill="white"/>
<path opacity="0.8" d="M344.131 58.9095C343.636 59.0745 343.306 59.5695 343.306 60.0645C343.636 60.3945 344.131 60.5595 344.626 60.5595C345.121 60.3945 345.286 59.8995 345.121 59.4045C344.956 58.9095 344.461 58.7445 343.966 58.9095H344.131Z" fill="white"/>
<path d="M370.5 73.4C370.8 74.6 370.7 76 370.3 77.6C369.8 79.2 369.2 81 368.3 82.8C367.4 84.6 366.4 86.5 365.2 88.3C364 90.2 362.9 91.9 361.7 93.4C360.5 95 359.5 96.4 358.5 97.6C357.5 98.8 356.8 99.6 356.2 100.2C355.9 100.5 355.7 100.6 355.6 100.8C355.5 100.9 355.3 101 355.1 101C354.6 101 353.8 100.8 352.8 100.4C351.8 100 350.8 99.5 349.7 99C348.6 98.5 347.6 97.9 346.7 97.4C345.8 96.9 345.1 96.5 344.7 96.3C344.3 96.1 344.1 96 344 95.9C343.9 95.8 343.8 95.6 343.7 95.3C343.6 94.9 343.7 94.6 343.9 94.2C344.4 93.3 345.1 92.3 345.9 91.2C346.7 90.1 347.5 88.9 348.4 87.7C349.3 86.4 350.2 85.1 351.1 83.6C352 82.1 352.9 80.6 353.7 78.9C353 79 352.3 79.1 351.4 79.1C350.9 79.1 350.4 79.1 349.9 79C349.4 79 349 78.9 348.7 78.8C346.8 78.4 345.3 77.6 344.4 76.2C343.5 74.8 343 73.3 343 71.7C343 70.5 343.2 69.3 343.7 68.2C344.2 67 344.9 66 345.8 65C346.3 65.4 347 65.8 347.9 66C348.8 66.2 349.7 66.3 350.7 66.4C351.7 66.5 352.6 66.5 353.4 66.5C354.2 66.5 354.8 66.5 355.2 66.5C356.3 66.5 357.2 66.6 358.1 66.6C359 66.6 359.8 66.6 360.5 66.6C361.9 66.6 363 66.6 363.8 66.6C364.6 66.6 365.2 66.6 365.7 66.6C366.3 66.6 366.9 66.9 367.4 67.5C367.9 68.1 368.5 68.8 368.9 69.6C369.4 70.4 369.7 71.2 370.1 71.9C370.2 72.6 370.4 73.1 370.5 73.4Z" fill="white"/>
<path d="M627 116C645.225 116 660 101.225 660 83C660 64.7746 645.225 50 627 50C608.775 50 594 64.7746 594 83C594 101.225 608.775 116 627 116Z" fill="#78A941"/>
<path d="M625.02 112.205C616.605 111.05 608.19 106.265 603.405 99.3346C602.745 98.5096 600.105 93.2296 603.735 94.5496C606.705 95.7046 608.52 98.6746 611.325 100.325C619.74 104.78 629.97 106.1 637.89 99.8296C638.55 99.3346 639.045 98.8396 639.87 98.5096C642.015 97.5196 645.15 98.8396 645.645 101.15C646.14 103.295 643.665 106.76 642.18 108.245C640.53 109.73 638.55 110.72 636.405 111.38C632.61 112.535 628.815 112.7 625.02 112.205Z" fill="#8ABF4D"/>
<path d="M623.371 51.3204C621.886 51.4854 620.401 51.8154 618.916 52.1454C615.121 53.3004 610.501 54.9504 607.366 57.4254C605.386 58.9104 603.901 61.0554 602.416 62.8704C601.096 64.8504 599.776 66.6654 598.291 68.4804C597.136 69.9654 595.981 71.4504 595.651 73.4304C594.991 76.7304 597.796 80.1954 601.096 81.0204C606.211 82.3404 610.336 78.7104 614.296 76.0704C618.916 73.1004 624.196 70.2954 629.311 68.4804C634.921 66.5004 640.861 65.6754 646.636 66.9954C648.781 67.4904 650.761 68.1504 652.576 69.3054C655.381 71.1204 657.361 74.0904 658.186 77.2254C656.041 69.1404 651.916 59.9004 643.996 56.1054C637.231 52.8054 630.796 50.4954 623.371 51.3204Z" fill="#8ABF4D"/>
<path opacity="0.8" d="M612.478 59.7353C612.148 59.5703 611.818 59.5703 611.488 59.5703C608.848 59.9003 607.858 62.2103 606.703 64.1903C605.548 66.5003 604.558 68.9753 604.063 71.4503C604.723 69.3053 605.878 67.3253 607.033 65.5103C608.518 63.0353 609.673 63.0353 611.983 61.7153C612.643 61.3853 613.138 60.5603 612.808 59.9003C612.478 59.9003 612.478 59.9003 612.478 59.7353Z" fill="white"/>
<path opacity="0.8" d="M614.131 58.9095C613.636 59.0745 613.306 59.5695 613.306 60.0645C613.636 60.3945 614.131 60.5595 614.626 60.5595C615.121 60.3945 615.286 59.8995 615.121 59.4045C614.956 58.9095 614.461 58.7445 613.966 58.9095H614.131Z" fill="white"/>
<path d="M640.5 73.4C640.8 74.6 640.7 76 640.3 77.6C639.8 79.2 639.2 81 638.3 82.8C637.4 84.6 636.4 86.5 635.2 88.3C634 90.2 632.9 91.9 631.7 93.4C630.5 95 629.5 96.4 628.5 97.6C627.5 98.8 626.8 99.6 626.2 100.2C625.9 100.5 625.7 100.6 625.6 100.8C625.5 100.9 625.3 101 625.1 101C624.6 101 623.8 100.8 622.8 100.4C621.8 100 620.8 99.5 619.7 99C618.6 98.5 617.6 97.9 616.7 97.4C615.8 96.9 615.1 96.5 614.7 96.3C614.3 96.1 614.1 96 614 95.9C613.9 95.8 613.8 95.6 613.7 95.3C613.6 94.9 613.7 94.6 613.9 94.2C614.4 93.3 615.1 92.3 615.9 91.2C616.7 90.1 617.5 88.9 618.4 87.7C619.3 86.4 620.2 85.1 621.1 83.6C622 82.1 622.9 80.6 623.7 78.9C623 79 622.3 79.1 621.4 79.1C620.9 79.1 620.4 79.1 619.9 79C619.4 79 619 78.9 618.7 78.8C616.8 78.4 615.3 77.6 614.4 76.2C613.5 74.8 613 73.3 613 71.7C613 70.5 613.2 69.3 613.7 68.2C614.2 67 614.9 66 615.8 65C616.3 65.4 617 65.8 617.9 66C618.8 66.2 619.7 66.3 620.7 66.4C621.7 66.5 622.6 66.5 623.4 66.5C624.2 66.5 624.8 66.5 625.2 66.5C626.3 66.5 627.2 66.6 628.1 66.6C629 66.6 629.8 66.6 630.5 66.6C631.9 66.6 633 66.6 633.8 66.6C634.6 66.6 635.2 66.6 635.7 66.6C636.3 66.6 636.9 66.9 637.4 67.5C637.9 68.1 638.5 68.8 638.9 69.6C639.4 70.4 639.7 71.2 640.1 71.9C640.2 72.6 640.4 73.1 640.5 73.4Z" fill="white"/>
<path d="M447 116C465.225 116 480 101.225 480 83C480 64.7746 465.225 50 447 50C428.775 50 414 64.7746 414 83C414 101.225 428.775 116 447 116Z" fill="#34A5CF"/>
<path d="M445.02 112.205C436.605 111.05 428.19 106.265 423.405 99.3346C422.745 98.5096 420.105 93.2296 423.735 94.5496C426.705 95.7046 428.52 98.6746 431.325 100.325C439.74 104.78 449.97 106.1 457.89 99.8296C458.55 99.3346 459.045 98.8396 459.87 98.5096C462.015 97.5196 465.15 98.8396 465.645 101.15C466.14 103.295 463.665 106.76 462.18 108.245C460.53 109.73 458.55 110.72 456.405 111.38C452.61 112.535 448.815 112.7 445.02 112.205Z" fill="#60BBDD"/>
<path d="M443.371 51.3204C441.886 51.4854 440.401 51.8154 438.916 52.1454C435.121 53.3004 430.501 54.9504 427.366 57.4254C425.386 58.9104 423.901 61.0554 422.416 62.8704C421.096 64.8504 419.776 66.6654 418.291 68.4804C417.136 69.9654 415.981 71.4504 415.651 73.4304C414.991 76.7304 417.796 80.1954 421.096 81.0204C426.211 82.3404 430.336 78.7104 434.296 76.0704C438.916 73.1004 444.196 70.2954 449.311 68.4804C454.921 66.5004 460.861 65.6754 466.636 66.9954C468.781 67.4904 470.761 68.1504 472.576 69.3054C475.381 71.1204 477.361 74.0904 478.186 77.2254C476.041 69.1404 471.916 59.9004 463.996 56.1054C457.231 52.8054 450.796 50.4954 443.371 51.3204Z" fill="#60BBDD"/>
<path opacity="0.8" d="M432.478 59.7353C432.148 59.5703 431.818 59.5703 431.488 59.5703C428.848 59.9003 427.858 62.2103 426.703 64.1903C425.548 66.5003 424.558 68.9753 424.063 71.4503C424.723 69.3053 425.878 67.3253 427.033 65.5103C428.518 63.0353 429.673 63.0353 431.983 61.7153C432.643 61.3853 433.138 60.5603 432.808 59.9003C432.478 59.9003 432.478 59.9003 432.478 59.7353Z" fill="white"/>
<path opacity="0.8" d="M434.131 58.9095C433.636 59.0745 433.306 59.5695 433.306 60.0645C433.636 60.3945 434.131 60.5595 434.626 60.5595C435.121 60.3945 435.286 59.8995 435.121 59.4045C434.956 58.9095 434.461 58.7445 433.966 58.9095H434.131Z" fill="white"/>
<path d="M428.5 69.019C429.6 69.119 430.6 69.119 431.4 69.119C432.2 69.119 432.9 69.219 433.4 69.219C434 69.219 434.5 69.319 434.9 69.319C435.3 69.319 435.7 69.419 436.1 69.519C436.6 69.719 437.1 70.019 437.6 70.319C438.1 70.619 438.6 71.019 439.1 71.519C439.6 72.019 440 72.419 440.3 73.019C440.6 73.519 440.8 74.019 440.9 74.519C441 75.219 441 76.019 441 77.019C441 78.019 441 78.919 441 79.919C441 81.319 441 82.819 441 84.319C441 85.919 440.9 87.419 440.9 88.919C440.9 90.419 440.8 91.819 440.8 93.219C440.8 94.619 440.8 95.719 440.8 96.719C440.8 97.119 440.7 97.419 440.6 97.519C440.5 97.619 440.3 97.719 440.1 97.719C439.8 97.719 439.3 97.719 438.8 97.719C438.3 97.719 437.7 97.719 437.1 97.719C436.5 97.719 435.9 97.719 435.2 97.719C434.5 97.719 433.9 97.719 433.2 97.719C432.1 97.719 431.1 97.719 430.3 97.619C429.5 97.519 428.9 97.419 428.6 97.319C428.3 97.119 428.1 97.019 428 96.819C427.9 96.719 427.8 96.519 427.7 96.319C427.7 96.119 427.7 96.019 427.7 95.719C427.7 95.519 427.7 95.319 427.7 95.019C427.7 94.319 427.8 93.519 427.8 92.619C427.8 91.719 427.9 90.719 427.9 89.619C427.9 88.519 428 87.319 428 85.919C428 84.519 428 83.019 428.1 81.319C427.9 81.519 427.7 81.519 427.5 81.619C427.1 81.719 426.7 81.819 426.2 81.819C425.5 81.819 424.8 81.619 424.2 81.219C423.6 80.819 423.1 80.319 422.7 79.619C422.3 79.019 421.9 78.319 421.6 77.519C421.3 76.719 421.1 76.019 421 75.419C421.8 75.319 422.6 75.119 423.3 74.719C424.1 74.319 424.8 73.919 425.5 73.319C426.2 72.719 426.7 72.019 427.2 71.319C427.9 70.719 428.2 69.919 428.5 69.019Z" fill="white"/>
<path d="M458.7 97.9189C456.6 97.9189 454.7 97.619 452.8 97.019C450.9 96.419 449.3 95.5189 447.8 94.3189C446.4 93.1189 445.2 91.6189 444.4 89.8189C443.6 88.0189 443.2 86.019 443.2 83.619C443.2 81.519 443.5 79.6189 444.2 77.9189C444.9 76.1189 445.8 74.6189 447.1 73.3189C448.4 72.0189 449.9 71.0189 451.7 70.2189C453.5 69.4189 455.5 69.019 457.8 69.019C459.9 68.919 461.9 69.2189 463.8 69.8189C465.7 70.4189 467.3 71.319 468.8 72.519C470.2 73.719 471.4 75.2189 472.2 76.9189C473 78.6189 473.5 80.719 473.6 83.019C473.7 84.919 473.4 86.819 472.8 88.619C472.2 90.419 471.3 92.0189 470 93.4189C468.7 94.8189 467.2 95.9189 465.3 96.7189C463.3 97.4189 461.1 97.9189 458.7 97.9189ZM458.1 77.7189C457.8 77.7189 457.5 77.9189 457.2 78.2189C457 78.5189 456.8 79.019 456.6 79.519C456.4 80.019 456.3 80.7189 456.2 81.3189C456.1 82.0189 456.1 82.7189 456.1 83.3189C456.1 83.7189 456.1 84.319 456.1 85.019C456.1 85.719 456.2 86.419 456.3 87.019C456.4 87.719 456.6 88.2189 456.9 88.7189C457.2 89.2189 457.6 89.4189 458.2 89.4189C458.6 89.4189 458.9 89.2189 459.2 88.8189C459.5 88.4189 459.7 87.9189 459.8 87.3189C459.9 86.7189 460.1 86.0189 460.1 85.3189C460.1 84.6189 460.2 83.8189 460.1 83.1189C460.1 82.8189 460.1 82.3189 460 81.7189C459.9 81.1189 459.9 80.5189 459.7 79.9189C459.6 79.3189 459.4 78.8189 459.1 78.4189C458.9 77.9189 458.6 77.7189 458.1 77.7189Z" fill="white"/>
<path d="M299 364C317.225 364 332 349.225 332 331C332 312.775 317.225 298 299 298C280.775 298 266 312.775 266 331C266 349.225 280.775 364 299 364Z" fill="#34A5CF"/>
<path d="M297.02 360.205C288.605 359.05 280.19 354.265 275.405 347.335C274.745 346.51 272.105 341.23 275.735 342.55C278.705 343.705 280.52 346.675 283.325 348.325C291.74 352.78 301.97 354.1 309.89 347.83C310.55 347.335 311.045 346.84 311.87 346.51C314.015 345.52 317.15 346.84 317.645 349.15C318.14 351.295 315.665 354.76 314.18 356.245C312.53 357.73 310.55 358.72 308.405 359.38C304.61 360.535 300.815 360.7 297.02 360.205Z" fill="#60BBDD"/>
<path d="M295.371 299.32C293.886 299.485 292.401 299.815 290.916 300.145C287.121 301.3 282.501 302.95 279.366 305.425C277.386 306.91 275.901 309.055 274.416 310.87C273.096 312.85 271.776 314.665 270.291 316.48C269.136 317.965 267.981 319.45 267.651 321.43C266.991 324.73 269.796 328.195 273.096 329.02C278.211 330.34 282.336 326.71 286.296 324.07C290.916 321.1 296.196 318.295 301.311 316.48C306.921 314.5 312.861 313.675 318.636 314.995C320.781 315.49 322.761 316.15 324.576 317.305C327.381 319.12 329.361 322.09 330.186 325.225C328.041 317.14 323.916 307.9 315.996 304.105C309.231 300.805 302.796 298.495 295.371 299.32Z" fill="#60BBDD"/>
<path opacity="0.8" d="M284.478 307.735C284.148 307.57 283.818 307.57 283.488 307.57C280.848 307.9 279.858 310.21 278.703 312.19C277.548 314.5 276.558 316.975 276.063 319.45C276.723 317.305 277.878 315.325 279.033 313.51C280.518 311.035 281.673 311.035 283.983 309.715C284.643 309.385 285.138 308.56 284.808 307.9C284.478 307.9 284.478 307.9 284.478 307.735Z" fill="white"/>
<path opacity="0.8" d="M286.131 306.91C285.636 307.075 285.306 307.57 285.306 308.065C285.636 308.395 286.131 308.56 286.626 308.56C287.121 308.395 287.286 307.9 287.121 307.405C286.956 306.91 286.461 306.745 285.966 306.91H286.131Z" fill="white"/>
<path d="M280.5 317.019C281.6 317.119 282.6 317.119 283.4 317.119C284.2 317.119 284.9 317.219 285.4 317.219C286 317.219 286.5 317.319 286.9 317.319C287.3 317.319 287.7 317.419 288.1 317.519C288.6 317.719 289.1 318.019 289.6 318.319C290.1 318.619 290.6 319.019 291.1 319.519C291.6 320.019 292 320.419 292.3 321.019C292.6 321.519 292.8 322.019 292.9 322.519C293 323.219 293 324.019 293 325.019C293 326.019 293 326.919 293 327.919C293 329.319 293 330.819 293 332.319C293 333.919 292.9 335.419 292.9 336.919C292.9 338.419 292.8 339.819 292.8 341.219C292.8 342.619 292.8 343.719 292.8 344.719C292.8 345.119 292.7 345.419 292.6 345.519C292.5 345.619 292.3 345.719 292.1 345.719C291.8 345.719 291.3 345.719 290.8 345.719C290.3 345.719 289.7 345.719 289.1 345.719C288.5 345.719 287.9 345.719 287.2 345.719C286.5 345.719 285.9 345.719 285.2 345.719C284.1 345.719 283.1 345.719 282.3 345.619C281.5 345.519 280.9 345.419 280.6 345.319C280.3 345.119 280.1 345.019 280 344.819C279.9 344.719 279.8 344.519 279.7 344.319C279.7 344.119 279.7 344.019 279.7 343.719C279.7 343.519 279.7 343.319 279.7 343.019C279.7 342.319 279.8 341.519 279.8 340.619C279.8 339.719 279.9 338.719 279.9 337.619C279.9 336.519 280 335.319 280 333.919C280 332.519 280 331.019 280.1 329.319C279.9 329.519 279.7 329.519 279.5 329.619C279.1 329.719 278.7 329.819 278.2 329.819C277.5 329.819 276.8 329.619 276.2 329.219C275.6 328.819 275.1 328.319 274.7 327.619C274.3 327.019 273.9 326.319 273.6 325.519C273.3 324.719 273.1 324.019 273 323.419C273.8 323.319 274.6 323.119 275.3 322.719C276.1 322.319 276.8 321.919 277.5 321.319C278.2 320.719 278.7 320.019 279.2 319.319C279.9 318.719 280.2 317.919 280.5 317.019Z" fill="white"/>
<path d="M310.7 345.919C308.6 345.919 306.7 345.619 304.8 345.019C302.9 344.419 301.3 343.519 299.8 342.319C298.4 341.119 297.2 339.619 296.4 337.819C295.6 336.019 295.2 334.019 295.2 331.619C295.2 329.519 295.5 327.619 296.2 325.919C296.9 324.119 297.8 322.619 299.1 321.319C300.4 320.019 301.9 319.019 303.7 318.219C305.5 317.419 307.5 317.019 309.8 317.019C311.9 316.919 313.9 317.219 315.8 317.819C317.7 318.419 319.3 319.319 320.8 320.519C322.2 321.719 323.4 323.219 324.2 324.919C325 326.619 325.5 328.719 325.6 331.019C325.7 332.919 325.4 334.819 324.8 336.619C324.2 338.419 323.3 340.019 322 341.419C320.7 342.819 319.2 343.919 317.3 344.719C315.3 345.419 313.1 345.919 310.7 345.919ZM310.1 325.719C309.8 325.719 309.5 325.919 309.2 326.219C309 326.519 308.8 327.019 308.6 327.519C308.4 328.019 308.3 328.719 308.2 329.319C308.1 330.019 308.1 330.719 308.1 331.319C308.1 331.719 308.1 332.319 308.1 333.019C308.1 333.719 308.2 334.419 308.3 335.019C308.4 335.719 308.6 336.219 308.9 336.719C309.2 337.219 309.6 337.419 310.2 337.419C310.6 337.419 310.9 337.219 311.2 336.819C311.5 336.419 311.7 335.919 311.8 335.319C311.9 334.719 312.1 334.019 312.1 333.319C312.1 332.619 312.2 331.819 312.1 331.119C312.1 330.819 312.1 330.319 312 329.719C311.9 329.119 311.9 328.519 311.7 327.919C311.6 327.319 311.4 326.819 311.1 326.419C310.9 325.919 310.6 325.719 310.1 325.719Z" fill="white"/>
<path d="M537 116C555.225 116 570 101.225 570 83C570 64.7746 555.225 50 537 50C518.775 50 504 64.7746 504 83C504 101.225 518.775 116 537 116Z" fill="#D93E4F"/>
<path d="M535.02 112.205C526.605 111.05 518.19 106.265 513.405 99.3346C512.745 98.5096 510.105 93.2296 513.735 94.5496C516.705 95.7046 518.52 98.6746 521.325 100.325C529.74 104.78 539.97 106.1 547.89 99.8296C548.55 99.3346 549.045 98.8396 549.87 98.5096C552.015 97.5196 555.15 98.8396 555.645 101.15C556.14 103.295 553.665 106.76 552.18 108.245C550.53 109.73 548.55 110.72 546.405 111.38C542.61 112.535 538.815 112.7 535.02 112.205Z" fill="#E65C6B"/>
<path d="M533.371 51.3204C531.886 51.4854 530.401 51.8154 528.916 52.1454C525.121 53.3004 520.501 54.9504 517.366 57.4254C515.386 58.9104 513.901 61.0554 512.416 62.8704C511.096 64.8504 509.776 66.6654 508.291 68.4804C507.136 69.9654 505.981 71.4504 505.651 73.4304C504.991 76.7304 507.796 80.1954 511.096 81.0204C516.211 82.3404 520.336 78.7104 524.296 76.0704C528.916 73.1004 534.196 70.2954 539.311 68.4804C544.921 66.5004 550.861 65.6754 556.636 66.9954C558.781 67.4904 560.761 68.1504 562.576 69.3054C565.381 71.1204 567.361 74.0904 568.186 77.2254C566.041 69.1404 561.916 59.9004 553.996 56.1054C547.231 52.8054 540.796 50.4954 533.371 51.3204Z" fill="#E65C6B"/>
<path opacity="0.8" d="M522.478 59.7353C522.148 59.5703 521.818 59.5703 521.488 59.5703C518.848 59.9003 517.858 62.2103 516.703 64.1903C515.548 66.5003 514.558 68.9753 514.063 71.4503C514.723 69.3053 515.878 67.3253 517.033 65.5103C518.518 63.0353 519.673 63.0353 521.983 61.7153C522.643 61.3853 523.138 60.5603 522.808 59.9003C522.478 59.9003 522.478 59.9003 522.478 59.7353Z" fill="white"/>
<path opacity="0.8" d="M524.131 58.9095C523.636 59.0745 523.306 59.5695 523.306 60.0645C523.636 60.3945 524.131 60.5595 524.626 60.5595C525.121 60.3945 525.286 59.8995 525.121 59.4045C524.956 58.9095 524.461 58.7445 523.966 58.9095H524.131Z" fill="white"/>
<path d="M532.541 86.4C531.941 86.3 531.341 86.3 530.941 86.3C530.441 86.3 530.041 86.2 529.741 86.2C529.441 86.2 529.141 86 528.941 85.9C528.741 85.8 528.641 85.5 528.541 85.2C528.441 84.9 528.441 84.5 528.441 84.1C528.441 83.6 528.541 83.2 528.741 82.7C528.841 82.2 529.041 81.7 529.241 81.3C529.441 80.8 529.741 80.5 530.041 80.2C530.241 80.2 530.441 80.2 530.541 80.2C530.641 80.2 530.841 80.2 531.041 80.2C531.241 80.2 531.541 80.2 531.841 80.2C532.141 80.2 532.741 80.2 533.341 80.2C534.141 80.2 534.941 80 535.741 79.7C536.441 79.4 536.841 78.9 536.941 78.4C536.941 78 536.741 77.7 536.341 77.4C535.941 77.1 535.341 76.9 534.741 76.8C534.141 76.7 533.441 76.6 532.841 76.5C532.241 76.4 531.641 76.4 531.241 76.5C530.541 76.6 529.841 76.7 529.041 76.8C528.241 76.9 527.341 77.2 526.141 77.6C525.441 77.2 524.841 76.6 524.541 75.9C524.141 75.2 524.041 74.5 524.041 73.7C524.041 72.9 524.241 72.1 524.641 71.2C525.041 70.3 525.641 69.5 526.541 68.8C527.441 68.1 528.441 67.5 529.641 67C530.841 66.5 532.341 66.2 534.041 66.1C534.441 66.1 534.841 66 535.241 66C535.641 66 536.041 66 536.441 66C540.241 66 543.341 66.6 545.541 67.9C547.741 69.2 549.141 71 549.541 73.4C549.641 73.9 549.641 74.5 549.641 75.2C549.641 75.9 549.441 76.7 549.141 77.5C548.841 78.3 548.341 79.1 547.741 79.8C547.141 80.6 546.241 81.2 545.141 81.8C547.241 82.8 548.841 84.1 549.941 85.8C551.041 87.5 551.441 89.5 551.141 91.7C550.941 93.2 550.441 94.5 549.641 95.7C548.841 96.9 547.841 97.9 546.541 98.6C545.241 99.4 543.741 100 542.041 100.4C540.341 100.8 538.441 101 536.441 101C534.441 101 532.541 100.9 530.941 100.6C529.241 100.4 527.841 100 526.541 99.5C525.341 99 524.241 98.4 523.541 97.7C522.741 97 522.341 96.1 522.141 95.1C522.041 94.4 521.941 93.7 522.041 93C522.141 92.3 522.341 91.7 522.541 91.2C522.841 90.6 523.041 90.2 523.441 89.7C523.741 89.3 524.141 88.9 524.441 88.6C525.541 89.1 526.841 89.6 528.241 89.9C529.641 90.2 531.041 90.4 532.341 90.4C532.741 90.4 533.241 90.4 533.641 90.4C534.141 90.4 534.541 90.3 534.941 90.2C535.341 90.1 535.741 90 536.041 89.8C536.341 89.6 536.541 89.3 536.641 88.9C536.841 88.4 536.641 87.9 536.041 87.4C535.441 87 534.241 86.7 532.541 86.4Z" fill="white"/>
<path d="M267 116C285.225 116 300 101.225 300 83C300 64.7746 285.225 50 267 50C248.775 50 234 64.7746 234 83C234 101.225 248.775 116 267 116Z" fill="#D93E4F"/>
<path d="M265.02 112.205C256.605 111.05 248.19 106.265 243.405 99.3346C242.745 98.5096 240.105 93.2296 243.735 94.5496C246.705 95.7046 248.52 98.6746 251.325 100.325C259.74 104.78 269.97 106.1 277.89 99.8296C278.55 99.3346 279.045 98.8396 279.87 98.5096C282.015 97.5196 285.15 98.8396 285.645 101.15C286.14 103.295 283.665 106.76 282.18 108.245C280.53 109.73 278.55 110.72 276.405 111.38C272.61 112.535 268.815 112.7 265.02 112.205Z" fill="#E65C6B"/>
<path d="M263.371 51.3204C261.886 51.4854 260.401 51.8154 258.916 52.1454C255.121 53.3004 250.501 54.9504 247.366 57.4254C245.386 58.9104 243.901 61.0554 242.416 62.8704C241.096 64.8504 239.776 66.6654 238.291 68.4804C237.136 69.9654 235.981 71.4504 235.651 73.4304C234.991 76.7304 237.796 80.1954 241.096 81.0204C246.211 82.3404 250.336 78.7104 254.296 76.0704C258.916 73.1004 264.196 70.2954 269.311 68.4804C274.921 66.5004 280.861 65.6754 286.636 66.9954C288.781 67.4904 290.761 68.1504 292.576 69.3054C295.381 71.1204 297.361 74.0904 298.186 77.2254C296.041 69.1404 291.916 59.9004 283.996 56.1054C277.231 52.8054 270.796 50.4954 263.371 51.3204Z" fill="#E65C6B"/>
<path opacity="0.8" d="M252.478 59.7353C252.148 59.5703 251.818 59.5703 251.488 59.5703C248.848 59.9003 247.858 62.2103 246.703 64.1903C245.548 66.5003 244.558 68.9753 244.063 71.4503C244.723 69.3053 245.878 67.3253 247.033 65.5103C248.518 63.0353 249.673 63.0353 251.983 61.7153C252.643 61.3853 253.138 60.5603 252.808 59.9003C252.478 59.9003 252.478 59.9003 252.478 59.7353Z" fill="white"/>
<path opacity="0.8" d="M254.131 58.9095C253.636 59.0745 253.306 59.5695 253.306 60.0645C253.636 60.3945 254.131 60.5595 254.626 60.5595C255.121 60.3945 255.286 59.8995 255.121 59.4045C254.956 58.9095 254.461 58.7445 253.966 58.9095H254.131Z" fill="white"/>
<path d="M262.541 86.4C261.941 86.3 261.341 86.3 260.941 86.3C260.441 86.3 260.041 86.2 259.741 86.2C259.441 86.2 259.141 86 258.941 85.9C258.741 85.8 258.641 85.5 258.541 85.2C258.441 84.9 258.441 84.5 258.441 84.1C258.441 83.6 258.541 83.2 258.741 82.7C258.841 82.2 259.041 81.7 259.241 81.3C259.441 80.8 259.741 80.5 260.041 80.2C260.241 80.2 260.441 80.2 260.541 80.2C260.641 80.2 260.841 80.2 261.041 80.2C261.241 80.2 261.541 80.2 261.841 80.2C262.141 80.2 262.741 80.2 263.341 80.2C264.141 80.2 264.941 80 265.741 79.7C266.441 79.4 266.841 78.9 266.941 78.4C266.941 78 266.741 77.7 266.341 77.4C265.941 77.1 265.341 76.9 264.741 76.8C264.141 76.7 263.441 76.6 262.841 76.5C262.241 76.4 261.641 76.4 261.241 76.5C260.541 76.6 259.841 76.7 259.041 76.8C258.241 76.9 257.341 77.2 256.141 77.6C255.441 77.2 254.841 76.6 254.541 75.9C254.141 75.2 254.041 74.5 254.041 73.7C254.041 72.9 254.241 72.1 254.641 71.2C255.041 70.3 255.641 69.5 256.541 68.8C257.441 68.1 258.441 67.5 259.641 67C260.841 66.5 262.341 66.2 264.041 66.1C264.441 66.1 264.841 66 265.241 66C265.641 66 266.041 66 266.441 66C270.241 66 273.341 66.6 275.541 67.9C277.741 69.2 279.141 71 279.541 73.4C279.641 73.9 279.641 74.5 279.641 75.2C279.641 75.9 279.441 76.7 279.141 77.5C278.841 78.3 278.341 79.1 277.741 79.8C277.141 80.6 276.241 81.2 275.141 81.8C277.241 82.8 278.841 84.1 279.941 85.8C281.041 87.5 281.441 89.5 281.141 91.7C280.941 93.2 280.441 94.5 279.641 95.7C278.841 96.9 277.841 97.9 276.541 98.6C275.241 99.4 273.741 100 272.041 100.4C270.341 100.8 268.441 101 266.441 101C264.441 101 262.541 100.9 260.941 100.6C259.241 100.4 257.841 100 256.541 99.5C255.341 99 254.241 98.4 253.541 97.7C252.741 97 252.341 96.1 252.141 95.1C252.041 94.4 251.941 93.7 252.041 93C252.141 92.3 252.341 91.7 252.541 91.2C252.841 90.6 253.041 90.2 253.441 89.7C253.741 89.3 254.141 88.9 254.441 88.6C255.541 89.1 256.841 89.6 258.241 89.9C259.641 90.2 261.041 90.4 262.341 90.4C262.741 90.4 263.241 90.4 263.641 90.4C264.141 90.4 264.541 90.3 264.941 90.2C265.341 90.1 265.741 90 266.041 89.8C266.341 89.6 266.541 89.3 266.641 88.9C266.841 88.4 266.641 87.9 266.041 87.4C265.441 87 264.241 86.7 262.541 86.4Z" fill="white"/>
<path d="M630.985 330.001C630.965 329.333 630.926 328.669 630.867 328.011L630.369 328.056C630.31 327.401 630.231 326.751 630.134 326.108L630.629 326.033C630.529 325.373 630.41 324.718 630.271 324.071L629.782 324.176C629.645 323.533 629.489 322.897 629.314 322.269L629.796 322.135C629.617 321.492 629.419 320.858 629.203 320.231L628.73 320.395C628.516 319.774 628.284 319.162 628.034 318.56L628.496 318.368C628.241 317.753 627.967 317.147 627.677 316.551L627.227 316.77C626.94 316.18 626.635 315.601 626.313 315.032L626.749 314.786C626.421 314.206 626.077 313.638 625.716 313.081L625.296 313.353C624.94 312.803 624.567 312.264 624.179 311.738L624.582 311.441C624.187 310.906 623.777 310.383 623.351 309.873L622.967 310.193C622.548 309.69 622.113 309.2 621.665 308.724L622.029 308.381C621.573 307.897 621.103 307.427 620.619 306.971L620.276 307.335C619.8 306.887 619.31 306.452 618.807 306.033L619.127 305.649C618.617 305.223 618.094 304.813 617.559 304.418L617.262 304.821C616.736 304.433 616.197 304.06 615.647 303.704L615.919 303.284C615.362 302.923 614.794 302.579 614.214 302.251L613.968 302.687C613.399 302.365 612.82 302.06 612.23 301.773L612.449 301.323C611.853 301.033 611.247 300.759 610.632 300.504L610.44 300.966C609.838 300.716 609.226 300.484 608.605 300.27L608.769 299.797C608.142 299.581 607.508 299.383 606.865 299.204L606.731 299.686C606.103 299.511 605.467 299.355 604.824 299.218L604.929 298.729C604.282 298.59 603.627 298.471 602.967 298.371L602.892 298.866C602.249 298.769 601.599 298.69 600.944 298.631L600.988 298.133C600.331 298.074 599.667 298.035 598.999 298.015L598.984 298.515C598.657 298.505 598.329 298.5 598 298.5C597.671 298.5 597.343 298.505 597.016 298.515L597.001 298.015C596.333 298.035 595.669 298.074 595.011 298.133L595.056 298.631C594.401 298.69 593.751 298.769 593.108 298.866L593.033 298.371C592.373 298.471 591.718 298.59 591.071 298.729L591.176 299.218C590.533 299.355 589.897 299.511 589.269 299.686L589.135 299.204C588.492 299.383 587.858 299.581 587.231 299.797L587.395 300.27C586.774 300.484 586.162 300.716 585.56 300.966L585.368 300.504C584.753 300.759 584.147 301.033 583.551 301.323L583.77 301.773C583.18 302.06 582.601 302.365 582.032 302.687L581.786 302.251C581.206 302.579 580.638 302.923 580.081 303.284L580.353 303.704C579.803 304.06 579.264 304.433 578.738 304.821L578.441 304.418C577.906 304.813 577.383 305.223 576.873 305.649L577.193 306.033C576.69 306.452 576.2 306.887 575.724 307.335L575.381 306.971C574.897 307.427 574.427 307.897 573.971 308.381L574.335 308.724C573.887 309.2 573.452 309.69 573.033 310.193L572.649 309.873C572.223 310.383 571.813 310.906 571.418 311.441L571.821 311.738C571.433 312.264 571.06 312.803 570.704 313.353L570.284 313.081C569.923 313.638 569.579 314.206 569.251 314.786L569.687 315.032C569.365 315.601 569.06 316.18 568.773 316.77L568.323 316.551C568.033 317.147 567.759 317.753 567.504 318.368L567.966 318.56C567.716 319.162 567.484 319.774 567.27 320.395L566.797 320.231C566.581 320.858 566.383 321.492 566.204 322.135L566.686 322.269C566.511 322.897 566.355 323.533 566.218 324.176L565.729 324.071C565.59 324.718 565.471 325.373 565.371 326.033L565.866 326.108C565.769 326.751 565.69 327.401 565.631 328.056L565.133 328.011C565.074 328.669 565.035 329.333 565.015 330.001L565.515 330.016C565.505 330.343 565.5 330.671 565.5 331C565.5 331.329 565.505 331.657 565.515 331.984L565.015 331.999C565.035 332.667 565.074 333.331 565.133 333.989L565.631 333.944C565.69 334.599 565.769 335.249 565.866 335.892L565.371 335.967C565.471 336.627 565.59 337.282 565.729 337.929L566.218 337.824C566.355 338.467 566.511 339.103 566.686 339.731L566.204 339.865C566.383 340.508 566.581 341.142 566.797 341.769L567.27 341.605C567.484 342.226 567.716 342.838 567.966 343.44L567.504 343.632C567.759 344.247 568.033 344.853 568.323 345.449L568.773 345.23C569.06 345.82 569.365 346.399 569.687 346.968L569.251 347.214C569.579 347.794 569.923 348.362 570.284 348.919L570.704 348.647C571.06 349.197 571.433 349.736 571.821 350.262L571.418 350.559C571.813 351.094 572.223 351.617 572.649 352.127L573.033 351.807C573.452 352.31 573.887 352.8 574.335 353.276L573.971 353.619C574.427 354.103 574.897 354.573 575.381 355.029L575.724 354.665C576.2 355.113 576.69 355.548 577.193 355.967L576.873 356.351C577.383 356.777 577.906 357.187 578.441 357.582L578.738 357.179C579.264 357.567 579.803 357.94 580.353 358.296L580.081 358.716C580.638 359.077 581.206 359.421 581.786 359.749L582.032 359.313C582.601 359.635 583.18 359.94 583.77 360.227L583.551 360.677C584.147 360.967 584.753 361.241 585.368 361.496L585.56 361.034C586.162 361.284 586.774 361.516 587.395 361.73L587.231 362.203C587.858 362.419 588.492 362.617 589.135 362.796L589.269 362.314C589.897 362.489 590.533 362.645 591.176 362.782L591.071 363.271C591.718 363.41 592.373 363.529 593.033 363.629L593.108 363.134C593.751 363.231 594.401 363.31 595.056 363.369L595.011 363.867C595.669 363.926 596.333 363.965 597.001 363.985L597.016 363.485C597.343 363.495 597.671 363.5 598 363.5C598.329 363.5 598.657 363.495 598.984 363.485L598.999 363.985C599.667 363.965 600.331 363.926 600.989 363.867L600.944 363.369C601.599 363.31 602.249 363.231 602.892 363.134L602.967 363.629C603.627 363.529 604.282 363.41 604.929 363.271L604.824 362.782C605.467 362.645 606.103 362.489 606.731 362.314L606.865 362.796C607.508 362.617 608.142 362.419 608.769 362.203L608.605 361.73C609.226 361.516 609.838 361.284 610.44 361.034L610.632 361.496C611.247 361.241 611.853 360.967 612.449 360.677L612.23 360.227C612.82 359.94 613.399 359.635 613.968 359.313L614.214 359.749C614.794 359.421 615.362 359.077 615.919 358.716L615.647 358.296C616.197 357.94 616.736 357.567 617.262 357.179L617.559 357.582C618.094 357.187 618.617 356.777 619.127 356.351L618.807 355.967C619.31 355.548 619.8 355.113 620.276 354.665L620.619 355.029C621.103 354.573 621.573 354.103 622.029 353.619L621.665 353.276C622.113 352.8 622.548 352.31 622.967 351.807L623.351 352.127C623.777 351.617 624.187 351.094 624.582 350.559L624.179 350.262C624.567 349.736 624.94 349.197 625.296 348.647L625.716 348.919C626.077 348.362 626.421 347.794 626.749 347.214L626.313 346.968C626.635 346.399 626.94 345.82 627.227 345.23L627.677 345.449C627.967 344.853 628.241 344.247 628.496 343.632L628.034 343.44C628.284 342.838 628.516 342.226 628.73 341.605L629.203 341.769C629.419 341.142 629.617 340.508 629.796 339.865L629.314 339.731C629.489 339.103 629.645 338.467 629.782 337.824L630.271 337.929C630.41 337.282 630.529 336.627 630.629 335.967L630.134 335.892C630.231 335.249 630.31 334.599 630.369 333.944L630.867 333.989C630.926 333.331 630.965 332.667 630.985 331.999L630.485 331.984C630.495 331.657 630.5 331.329 630.5 331C630.5 330.671 630.495 330.343 630.485 330.016L630.985 330.001Z" stroke="#9C9C9C" stroke-dasharray="2 2"/>
<path d="M446.35 391.134V423.162L295.485 403.245V390.934L446.35 391.134Z" fill="#373636"/>
<path d="M446.351 391.133V423.161L597.216 403.644V391.333L446.351 391.133Z" fill="#373636"/>
<path d="M304.984 372.518H292.687V402.343H304.984V372.518Z" fill="#373636"/>
<path d="M302.596 405.276C307.703 403.173 310.139 397.325 308.039 392.213C305.939 387.101 300.096 384.661 294.99 386.764C289.884 388.867 287.447 394.715 289.547 399.827C291.648 404.939 297.49 407.379 302.596 405.276Z" fill="#D9DADB"/>
<path d="M304.583 396.037C304.583 399.24 301.984 401.943 298.685 401.943C295.386 401.943 292.786 399.34 292.786 396.037C292.786 392.835 295.386 390.132 298.685 390.132C301.984 390.132 304.583 392.835 304.583 396.037Z" fill="#4C4C4C"/>
<path d="M301.684 396.038C301.684 397.639 300.385 398.94 298.785 398.94C297.185 398.94 295.886 397.639 295.886 396.038C295.886 394.436 297.185 393.135 298.785 393.135C300.385 393.135 301.684 394.436 301.684 396.038Z" fill="#373636"/>
<path d="M336.576 378.723H260.894C248.396 378.723 238.299 368.614 238.299 356.103H359.171C359.171 368.614 349.073 378.723 336.576 378.723Z" fill="#F7C613"/>
<path d="M361.67 357.805H235.899C234.3 357.805 233 356.504 233 354.903C233 353.301 234.3 352 235.899 352H361.67C363.27 352 364.569 353.301 364.569 354.903C364.569 356.504 363.27 357.805 361.67 357.805Z" fill="#EFAD1E"/>
<path d="M603.314 372.518H591.017V402.343H603.314V372.518Z" fill="#373636"/>
<path d="M607.091 397.624C607.973 392.167 604.269 387.028 598.818 386.145C593.367 385.262 588.233 388.97 587.351 394.427C586.47 399.884 590.174 405.023 595.625 405.906C601.075 406.789 606.209 403.081 607.091 397.624Z" fill="#D9DADB"/>
<path d="M597.216 401.943C600.474 401.943 603.115 399.299 603.115 396.037C603.115 392.776 600.474 390.132 597.216 390.132C593.958 390.132 591.317 392.776 591.317 396.037C591.317 399.299 593.958 401.943 597.216 401.943Z" fill="#4C4C4C"/>
<path d="M597.216 398.94C598.817 398.94 600.115 397.641 600.115 396.038C600.115 394.435 598.817 393.135 597.216 393.135C595.614 393.135 594.316 394.435 594.316 396.038C594.316 397.641 595.614 398.94 597.216 398.94Z" fill="#373636"/>
<path d="M635.007 378.723H559.324C546.827 378.723 536.729 368.614 536.729 356.103H657.601C657.601 368.614 647.504 378.723 635.007 378.723Z" fill="#F7C613"/>
<path d="M660.101 357.805H534.33C532.73 357.805 531.431 356.504 531.431 354.903C531.431 353.301 532.73 352 534.33 352H660.101C661.7 352 663 353.301 663 354.903C663 356.504 661.7 357.805 660.101 357.805Z" fill="#EFAD1E"/>
<path d="M467.945 457.591H428.454V388.231C428.454 377.322 437.252 368.514 448.15 368.514C459.047 368.514 467.845 377.322 467.845 388.231V457.591H467.945Z" fill="#4C4C4C"/>
<path d="M490.64 468H405.76C407.959 461.694 413.958 457.591 420.556 457.591H475.843C482.442 457.591 488.341 461.794 490.64 468Z" fill="#4C4C4C"/>
<path d="M448.15 413.954C453.672 413.954 458.148 409.473 458.148 403.945C458.148 398.418 453.672 393.937 448.15 393.937C442.628 393.937 438.152 398.418 438.152 403.945C438.152 409.473 442.628 413.954 448.15 413.954Z" fill="#D9DADB"/>
<path d="M448.15 409.85C451.407 409.85 454.048 407.206 454.048 403.945C454.048 400.683 451.407 398.04 448.15 398.04C444.892 398.04 442.251 400.683 442.251 403.945C442.251 407.206 444.892 409.85 448.15 409.85Z" fill="#4C4C4C"/>
<path d="M448.149 406.848C449.751 406.848 451.049 405.548 451.049 403.945C451.049 402.342 449.751 401.042 448.149 401.042C446.548 401.042 445.25 402.342 445.25 403.945C445.25 405.548 446.548 406.848 448.149 406.848Z" fill="#373636"/>
<path d="M448 434C466.225 434 481 419.225 481 401C481 382.775 466.225 368 448 368C429.775 368 415 382.775 415 401C415 419.225 429.775 434 448 434Z" fill="#D93E4F"/>
<path d="M446.02 430.205C437.605 429.05 429.19 424.265 424.405 417.335C423.745 416.51 421.105 411.23 424.735 412.55C427.705 413.705 429.52 416.675 432.325 418.325C440.74 422.78 450.97 424.1 458.89 417.83C459.55 417.335 460.045 416.84 460.87 416.51C463.015 415.52 466.15 416.84 466.645 419.15C467.14 421.295 464.665 424.76 463.18 426.245C461.53 427.73 459.55 428.72 457.405 429.38C453.61 430.535 449.815 430.7 446.02 430.205Z" fill="#E65C6B"/>
<path d="M444.371 369.32C442.886 369.485 441.401 369.815 439.916 370.145C436.121 371.3 431.501 372.95 428.366 375.425C426.386 376.91 424.901 379.055 423.416 380.87C422.096 382.85 420.776 384.665 419.291 386.48C418.136 387.965 416.981 389.45 416.651 391.43C415.991 394.73 418.796 398.195 422.096 399.02C427.211 400.34 431.336 396.71 435.296 394.07C439.916 391.1 445.196 388.295 450.311 386.48C455.921 384.5 461.861 383.675 467.636 384.995C469.781 385.49 471.761 386.15 473.576 387.305C476.381 389.12 478.361 392.09 479.186 395.225C477.041 387.14 472.916 377.9 464.996 374.105C458.231 370.805 451.796 368.495 444.371 369.32Z" fill="#E65C6B"/>
<path opacity="0.8" d="M433.478 377.735C433.148 377.57 432.818 377.57 432.488 377.57C429.848 377.9 428.858 380.21 427.703 382.19C426.548 384.5 425.558 386.975 425.063 389.45C425.723 387.305 426.878 385.325 428.033 383.51C429.518 381.035 430.673 381.035 432.983 379.715C433.643 379.385 434.138 378.56 433.808 377.9C433.478 377.9 433.478 377.9 433.478 377.735Z" fill="white"/>
<path opacity="0.8" d="M435.131 376.91C434.636 377.075 434.306 377.57 434.306 378.065C434.636 378.395 435.131 378.56 435.626 378.56C436.121 378.395 436.286 377.9 436.121 377.405C435.956 376.91 435.461 376.745 434.966 376.91H435.131Z" fill="white"/>
<path d="M456.8 413.5C456.8 414.2 455.7 414.5 453.4 414.5C452.4 414.5 451.5 414.3 450.6 414C449.7 413.7 448.4 412.5 446.6 410.6C444.8 408.7 443.2 406.8 441.8 405L439.6 402.3C439.2 401.9 439 401.4 439 400.7C439 400.1 439.3 399.5 439.8 398.8C440.3 398.2 441.1 397.2 442.1 396C443.1 394.8 444.6 393.1 446.6 391C448.6 388.9 449.9 387.7 450.7 387.5C451.3 387.2 452.5 387 454.3 387C456.1 387 457 387.3 457 388C457 388.4 456.6 388.9 455.9 389.5C455.6 389.8 455.3 390.1 454.9 390.5C454.5 390.9 453.7 391.7 452.6 392.8C451.5 393.9 450.5 394.9 449.7 395.8C447.5 398.2 446.3 399.8 446.3 400.5C446.3 401.2 447.1 402.5 448.7 404.4C450.3 406.2 451.9 407.9 453.5 409.4L455.9 411.7C456.4 412.5 456.8 413.1 456.8 413.5Z" fill="white"/>
</g>
<defs>
<clipPath id="clip0_712_1007">
<rect width="896" height="500" fill="white"/>
</clipPath>
</defs>
</svg>
