<svg width="50" height="50" viewBox="0 0 50 50" fill="none" xmlns="http://www.w3.org/2000/svg">
<path d="M25 50C38.8071 50 50 38.8071 50 25C50 11.1929 38.8071 0 25 0C11.1929 0 0 11.1929 0 25C0 38.8071 11.1929 50 25 50Z" fill="#979797"/>
<path d="M23.5002 47.125C17.1252 46.25 10.7502 42.625 7.12517 37.375C6.62517 36.75 4.62517 32.75 7.37517 33.75C9.62517 34.625 11.0002 36.875 13.1252 38.125C19.5002 41.5 27.2502 42.5 33.2502 37.75C33.7502 37.375 34.1252 37 34.7502 36.75C36.3752 36 38.7502 37 39.1252 38.75C39.5002 40.375 37.6252 43 36.5002 44.125C35.2502 45.25 33.7502 46 32.1252 46.5C29.2502 47.375 26.3752 47.5 23.5002 47.125Z" fill="#A7A7A7"/>
<path d="M22.2503 0.999952C21.1253 1.12495 20.0003 1.37495 18.8753 1.62495C16.0003 2.49995 12.5003 3.74995 10.1253 5.62495C8.62526 6.74995 7.50026 8.37495 6.37526 9.74995C5.37526 11.25 4.37526 12.625 3.25026 14C2.37526 15.125 1.50026 16.25 1.25026 17.75C0.75026 20.25 2.87526 22.875 5.37526 23.5C9.25026 24.5 12.3753 21.75 15.3753 19.75C18.8753 17.5 22.8753 15.375 26.7503 14C31.0003 12.5 35.5003 11.875 39.8753 12.875C41.5003 13.25 43.0003 13.75 44.3753 14.625C46.5003 16 48.0003 18.25 48.6253 20.625C47.0003 14.5 43.8753 7.49995 37.8753 4.62495C32.7503 2.12495 27.8753 0.374952 22.2503 0.999952Z" fill="#AAAAAA"/>
<path opacity="0.8" d="M13.9993 7.37502C13.7493 7.25002 13.4993 7.25002 13.2493 7.25002C11.2493 7.50002 10.4993 9.25002 9.62427 10.75C8.74927 12.5 7.99927 14.375 7.62427 16.25C8.12427 14.625 8.99927 13.125 9.87427 11.75C10.9993 9.87501 11.8743 9.87502 13.6243 8.87501C14.1243 8.62501 14.4993 8.00002 14.2493 7.50002C13.9993 7.50002 13.9993 7.50002 13.9993 7.37502Z" fill="white"/>
<path opacity="0.8" d="M15.2505 6.75003C14.8755 6.87503 14.6255 7.25003 14.6255 7.62503C14.8755 7.87503 15.2505 8.00003 15.6255 8.00003C16.0005 7.87503 16.1255 7.50003 16.0005 7.12503C15.8755 6.75003 15.5005 6.62503 15.1255 6.75003H15.2505Z" fill="white"/>
</svg>
