<svg xmlns="http://www.w3.org/2000/svg" viewBox="0 0 24.06 50"><defs><style>.cls-1{fill:#2d202a;}.cls-2{fill:#7f48c3;}.cls-3{fill:#fff;}</style></defs><g id="Layer_2" data-name="Layer 2"><g id="Layer_1-2" data-name="Layer 1"><path class="cls-1" d="M14.1,50A.11.11,0,0,1,14,50a.14.14,0,0,1,0-.2c4.1-4.65,2.54-8.91,1.25-11a10.56,10.56,0,0,0-1.83-2.24,3.93,3.93,0,0,1-3.3.79,1.46,1.46,0,0,1-.92-1.58,1.08,1.08,0,0,1,.8-1.1c.81-.21,2.15.36,3.45,1.52A6,6,0,0,0,14.61,35c.86-1.12,2-3.47-.28-6.63a11.33,11.33,0,0,1-2.27-8.87,8.81,8.81,0,0,1,1.5-3.59.13.13,0,0,1,.2,0,.15.15,0,0,1,0,.21c0,.05-4,5.32.78,12.11,2.36,3.31,1.19,5.79.28,7a6.87,6.87,0,0,1-1.18,1.17,11,11,0,0,1,1.82,2.26C16.56,40.34,18.59,45,14.21,50A.16.16,0,0,1,14.1,50ZM10.36,34.83a1,1,0,0,0-.3,0,.79.79,0,0,0-.58.83,1.17,1.17,0,0,0,.73,1.3,3.72,3.72,0,0,0,3-.72A5,5,0,0,0,10.36,34.83Z"/><ellipse class="cls-2" cx="12.03" cy="13.45" rx="12.03" ry="13.45"/><path class="cls-2" d="M13.05,25.84s-.4,2.89,0,3.18a2.29,2.29,0,0,0,2.43-1.18C15.77,26.9,12.84,24.79,13.05,25.84Z"/><path class="cls-3" d="M15.5,2.42S21,4.25,21.27,8.78c0,.76-3.18-2.53-7.09-4.32C7.4,1.35,12.73,1.36,15.5,2.42Z"/></g></g></svg>