<svg width="56" height="106" viewBox="0 0 56 106" fill="none" xmlns="http://www.w3.org/2000/svg">
<path d="M23.2842 105.676C23.1954 105.676 23.1065 105.647 23.0473 105.588C22.9288 105.469 22.9584 105.262 23.0769 105.174C32.614 96.6551 30.4519 87.5745 28.3193 82.9011C27.4308 80.9785 26.3349 79.2629 25.1206 77.8727C22.6326 79.1742 19.9078 79.5587 18.1603 78.6714C16.9163 78.0502 16.3832 76.8079 16.6794 75.2107C16.8867 74.0275 17.5679 73.2881 18.575 73.1402C20.2928 72.9331 22.8992 74.4121 25.2687 77.1037C26.2165 76.5713 27.1346 75.891 27.9343 75.0332C29.978 72.9627 32.7917 68.4077 28.9709 61.3976C24.5578 53.3227 25.1798 46.7858 26.483 42.704C27.9047 38.2968 30.3038 35.8122 30.4222 35.7235C30.5407 35.6052 30.7184 35.6052 30.8369 35.7235C30.9554 35.8418 30.9554 36.0193 30.8369 36.1376C30.748 36.2263 21.2702 46.0464 29.4745 61.1018C33.4729 68.4372 30.4815 73.2289 28.349 75.4473C27.5493 76.2755 26.6015 76.9854 25.6241 77.5474C26.8088 78.9672 27.9343 80.6827 28.8229 82.6349C30.5999 86.5096 33.621 96.5072 23.4323 105.588C23.4027 105.676 23.3435 105.676 23.2842 105.676ZM18.9304 73.7318C18.8415 73.7318 18.723 73.7318 18.6342 73.7613C17.8641 73.8501 17.4198 74.3825 17.2421 75.329C17.0052 76.66 17.4198 77.6361 18.4269 78.139C19.8189 78.8488 22.3068 78.6122 24.7059 77.3995C22.6623 75.122 20.4409 73.7318 18.9304 73.7318Z" fill="#2D202A"/>
<path d="M52.5722 33.3564C54.3835 18.1732 44.8173 4.55195 31.2055 2.93251C17.5937 1.31306 5.09085 12.3086 3.27959 27.4918C1.46832 42.675 11.0345 56.2962 24.6463 57.9157C38.2581 59.5351 50.7609 48.5395 52.5722 33.3564Z" fill="#78A941"/>
<path d="M26.9865 56.0143C26.9865 56.0143 25.4464 61.8117 26.2165 62.5216C26.9866 63.2019 30.6592 62.5512 31.4885 60.6877C32.2882 58.8539 26.8088 53.796 26.9865 56.0143Z" fill="#78A941"/>
<path d="M37.7082 8.71802C37.7082 8.71802 48.4893 13.7759 47.9561 23.1227C47.8673 24.6903 42.0621 17.1774 34.5095 12.5632C21.359 4.54747 32.2881 5.87849 37.7082 8.71802Z" fill="white"/>
</svg>
