<svg width="53" height="62" viewBox="0 0 53 62" fill="none" xmlns="http://www.w3.org/2000/svg">
<path fill-rule="evenodd" clip-rule="evenodd" d="M11.3183 50.2213C15.1027 50.2213 18.1747 44.9677 18.1747 38.5566C18.1747 32.1454 15.1027 26.8918 11.3183 26.8918C7.53392 26.8918 4.46191 32.1454 4.46191 38.5566C4.46191 44.9677 7.53392 50.2213 11.3183 50.2213Z" fill="#C2451D"/>
<path d="M41.7265 50.2213C45.5132 50.2213 48.5829 44.9988 48.5829 38.5566C48.5829 32.1143 45.5132 26.8918 41.7265 26.8918C37.9398 26.8918 34.8701 32.1143 34.8701 38.5566C34.8701 44.9988 37.9398 50.2213 41.7265 50.2213Z" fill="#C2451D"/>
<path d="M26.4998 61.3064C36.9009 61.3064 45.3326 52.8746 45.3326 42.4736C45.3326 32.0725 36.9009 23.6407 26.4998 23.6407C16.0988 23.6407 7.66699 32.0725 7.66699 42.4736C7.66699 52.8746 16.0988 61.3064 26.4998 61.3064Z" fill="#D0775B"/>
<path fill-rule="evenodd" clip-rule="evenodd" d="M26.501 23.5967C36.9191 23.5967 45.3338 32.0559 45.3338 42.4296C45.3338 52.8477 36.8746 61.2624 26.501 61.2624V23.5967Z" fill="#C86244"/>
<path fill-rule="evenodd" clip-rule="evenodd" d="M9.93709 0.0445213C13.0091 0.0445213 15.5469 2.49323 15.6359 5.56525C18.6634 3.38367 22.4478 2.09253 26.5883 2.09253C30.5953 2.09253 34.3351 3.33915 37.3181 5.38716C37.4962 2.40419 39.9449 0 43.0169 0C46.178 0 48.7158 2.53776 48.7158 5.69882C48.7158 8.85988 46.178 11.3976 43.0169 11.3976C42.9279 11.3976 42.7943 11.3976 42.7053 11.3976C43.8629 13.6237 44.5307 16.117 44.5307 18.7438C44.5307 27.9153 36.4722 35.395 26.5883 35.395C16.6599 35.395 8.64595 27.9598 8.64595 18.7438C8.64595 16.117 9.31378 13.5792 10.5159 11.3976C10.3378 11.3976 10.1597 11.4422 9.98161 11.4422C6.82054 11.4422 4.28279 8.9044 4.28279 5.74334C4.23827 2.58228 6.82055 0.0445213 9.93709 0.0445213Z" fill="#D0775B"/>
<path fill-rule="evenodd" clip-rule="evenodd" d="M26.5889 2.13654C30.5958 2.13654 34.3357 3.38316 37.3187 5.43117C37.4967 2.44819 39.9455 0.0440063 43.0175 0.0440063C46.1786 0.0440063 48.7163 2.58176 48.7163 5.74282C48.7163 8.90389 46.1786 11.4416 43.0175 11.4416C42.9285 11.4416 42.7949 11.4416 42.7059 11.4416C43.8634 13.6677 44.5313 16.161 44.5313 18.7878C44.5313 27.9593 36.4728 35.439 26.5889 35.439V2.13654Z" fill="#C86244"/>
<path fill-rule="evenodd" clip-rule="evenodd" d="M43.0173 7.83638C44.1749 7.83638 45.1098 6.90141 45.1098 5.74384C45.1098 4.58627 44.1749 3.65131 43.0173 3.65131C41.8597 3.65131 40.9248 4.58627 40.9248 5.74384C40.9248 6.90141 41.8597 7.83638 43.0173 7.83638Z" fill="#FFD88D"/>
<path fill-rule="evenodd" clip-rule="evenodd" d="M9.93727 7.83638C11.0948 7.83638 12.0298 6.90141 12.0298 5.74384C12.0298 4.58627 11.0948 3.65131 9.93727 3.65131C8.77969 3.65131 7.84473 4.58627 7.84473 5.74384C7.84473 6.90141 8.77969 7.83638 9.93727 7.83638Z" fill="#FFD88D"/>
<path d="M26.5004 34.5934C31.7624 34.5934 36.0281 31.4639 36.0281 27.6035C36.0281 23.743 31.7624 20.6135 26.5004 20.6135C21.2384 20.6135 16.9727 23.743 16.9727 27.6035C16.9727 31.4639 21.2384 34.5934 26.5004 34.5934Z" fill="#FFD88D"/>
<path fill-rule="evenodd" clip-rule="evenodd" d="M26.5005 29.2515C27.4354 29.2515 28.1923 28.4946 28.1923 27.6042C28.1923 26.7137 27.4354 25.9568 26.5005 25.9568C25.5655 25.9568 24.8086 26.7137 24.8086 27.6042C24.8086 28.4946 25.5655 29.2515 26.5005 29.2515Z" fill="#402C2A"/>
<path d="M26.6786 28.8056H26.2334V34.638H26.6786V28.8056Z" fill="#402C2A"/>
<path fill-rule="evenodd" clip-rule="evenodd" d="M34.6039 20.6137C35.5389 20.6137 36.2958 19.8569 36.2958 18.9664C36.2958 18.076 35.5389 17.3191 34.6039 17.3191C33.669 17.3191 32.9121 18.076 32.9121 18.9664C32.9121 19.8569 33.669 20.6137 34.6039 20.6137Z" fill="#402C2A"/>
<path fill-rule="evenodd" clip-rule="evenodd" d="M18.3979 20.6137C19.3328 20.6137 20.0897 19.8569 20.0897 18.9664C20.0897 18.076 19.3328 17.3191 18.3979 17.3191C17.4629 17.3191 16.7061 18.076 16.7061 18.9664C16.7061 19.8569 17.4629 20.6137 18.3979 20.6137Z" fill="#402C2A"/>
<path fill-rule="evenodd" clip-rule="evenodd" d="M13.9447 45.6797C18.8422 48.5736 20.8902 54.0944 18.575 57.9678C16.2599 61.8412 10.4275 62.6426 5.5746 59.7041C0.721705 56.8102 -1.37084 51.2895 0.944304 47.4161C3.21493 43.5427 9.04731 42.7858 13.9447 45.6797Z" fill="#C35026"/>
<path fill-rule="evenodd" clip-rule="evenodd" d="M39.0551 45.6797C34.2022 48.5736 32.1096 54.0944 34.4248 57.9678C36.7399 61.8412 42.5723 62.6426 47.4252 59.7041C52.2781 56.8102 54.3707 51.2895 52.0555 47.4161C49.7404 43.5427 43.908 42.7858 39.0551 45.6797Z" fill="#C35026"/>
<path fill-rule="evenodd" clip-rule="evenodd" d="M11.7185 49.3746C14.0336 50.7548 15.0131 53.3816 13.9001 55.207C12.787 57.0324 10.0267 57.4331 7.71153 56.0529C5.39638 54.6727 4.4169 52.046 5.48543 50.2206C6.643 48.3506 9.40336 47.9944 11.7185 49.3746Z" fill="#FFD88D"/>
<path fill-rule="evenodd" clip-rule="evenodd" d="M41.2367 49.3746C38.9216 50.7548 37.9421 53.3816 39.0551 55.207C40.1682 57.0324 42.9285 57.4331 45.2437 56.0529C47.5588 54.6727 48.5383 52.046 47.4698 50.2206C46.3122 48.3506 43.5518 47.9944 41.2367 49.3746Z" fill="#FFD88D"/>
</svg>
