<svg xmlns="http://www.w3.org/2000/svg" viewBox="0 0 297.2 277.66"><defs><style>.cls-1{fill:#f9b818;}</style></defs><g id="Layer_2" data-name="Layer 2"><g id="Layer_1-2" data-name="Layer 1"><path class="cls-1" d="M169.9,1.38c11.78,1.54,57.5,7.51,67,34,7.68,21.4-12.75,44-3.28,52.91C244.7,98.73,277,73.66,291.37,86.43c5,4.47,5.43,11.34,5.76,18.49,1.57,33.89-26.3,43-28.23,75.46-1.37,23,12,29.23,5,45-6.35,14.39-25,26.43-41,24-16.52-2.51-23.54-19.52-36.88-16.5-5.77,1.31-9.15,5.56-11.39,8.13-8.79,10.07-44.32,44.65-74.86,34.95-16.52-5.25.67-38.87-17-56.4-24.4-24.22-82.15,7.79-91.72-8.2-8.68-14.5,38.5-41.17,34.83-82-2.66-29.54-25.39-34.66-24-57C14.46,31.23,98.64-7.92,169.9,1.38Z"/></g></g></svg>