<svg width="896" height="500" viewBox="0 0 896 500" fill="none" xmlns="http://www.w3.org/2000/svg">
<g clip-path="url(#clip0_548_2)">
<rect width="896" height="500" fill="#FCF9EE"/>
<path d="M665.2 412.052L660 413.911L659.9 420.955L656.7 418.411L654.7 422.129L645.2 405.791L665.2 412.052Z" fill="white"/>
<path d="M660 414.107H659.9L645.5 406.281C645.4 406.183 645.4 406.085 645.4 405.987C645.5 405.889 645.6 405.889 645.7 405.889L660.1 413.716C660.2 413.813 660.2 413.911 660.2 414.009C660.1 414.107 660 414.107 660 414.107Z" fill="white"/>
<path d="M659.9 421.15C659.8 421.15 659.7 421.15 659.7 421.053L657.2 416.063C657.2 415.966 657.2 415.868 657.3 415.77C657.4 415.77 657.5 415.77 657.6 415.868L660.1 420.857C660.2 420.955 660.1 421.15 659.9 421.15C660 421.15 660 421.15 659.9 421.15Z" fill="white"/>
<path d="M657.5 416.161H657.4L645.5 406.281C645.4 406.183 645.4 406.085 645.5 405.987C645.6 405.889 645.7 405.889 645.8 405.987L657.7 415.868C657.8 415.966 657.8 416.063 657.7 416.161C657.6 416.161 657.5 416.161 657.5 416.161Z" fill="white"/>
<path d="M656.7 418.607C656.7 418.607 656.6 418.607 656.7 418.607C656.5 418.607 656.5 418.411 656.5 418.313L657.3 415.966C657.3 415.868 657.5 415.77 657.6 415.868C657.7 415.868 657.8 416.063 657.7 416.161L656.9 418.509C656.9 418.509 656.8 418.607 656.7 418.607Z" fill="white"/>
<path d="M896 0H0V500H896V0Z" fill="white"/>
<path opacity="0.3" d="M896 0H0V500H896V0Z" fill="#F6EAC6"/>
<path d="M173.8 122.7C173.8 122.7 250.7 -10.7 339.8 1.4C428.9 13.5 410.9 37.4 448.9 51.3C545.4 86.5 561.5 -34.9 658.5 33.9C794.8 130.6 649.8 252.9 710.3 252.6C770.8 252.3 800.9 340.7 738.6 417C676.3 493.3 594.7 482.9 573.4 474.1C545.9 462.8 511.9 414.5 478 437.3C444.1 460.2 406 524 333.3 491.5C223 442.2 334.7 320.2 226.4 338.8C118.2 357.5 85.4999 230.4 173.8 122.7Z" fill="#F8F2DE"/>
<path d="M257.6 85.9C257.6 85.9 333.4 30 384.4 42.4C413.5 49.4 387.1 92.8 460.2 58.7C515.4 32.9 591.2 31.5 626.1 79.2C663 129.7 591.4 176 615.9 178.3C640.5 180.5 729.9 139.6 727.9 201.6C725.9 263.5 661.7 304.8 669.3 305.6C676.8 306.5 718.6 301.6 706.8 337.5C695 373.2 583.1 458.5 562.6 419.1C548 391.1 543.8 385 521.8 405.7C505.7 420.8 440.6 472.7 384.6 458.1C328.6 443.5 376.7 360.5 345.4 374.7C314 388.9 220.1 416.4 185.4 361.2C150.7 306 253.8 198.9 241.3 195.2C228.8 191.5 167.8 206.4 188 152.8C198.2 124.9 257.6 85.9 257.6 85.9Z" fill="#F9B818"/>
<path d="M146.9 421.2C146.8 421.2 146.7 421.1 146.7 421C146.7 420.9 146.8 420.8 146.9 420.8C147.4 420.7 148 420.6 148.5 420.5C148.6 420.5 148.7 420.5 148.7 420.7C148.7 420.8 148.7 420.9 148.5 420.9C148 421 147.5 421.1 146.9 421.2ZM150.1 420.5C150 420.5 149.9 420.4 149.9 420.3C149.9 420.2 149.9 420.1 150.1 420C150.6 419.9 151.2 419.7 151.7 419.6C151.8 419.6 151.9 419.6 152 419.7C152 419.8 152 419.9 151.9 420C151.3 420.2 150.7 420.4 150.1 420.5C150.2 420.5 150.2 420.5 150.1 420.5ZM153.4 419.6C153.3 419.6 153.2 419.5 153.2 419.5C153.2 419.4 153.2 419.3 153.3 419.2C153.8 419 154.4 418.8 154.9 418.6C155 418.6 155.1 418.6 155.2 418.7C155.2 418.8 155.2 418.9 155.1 419C154.5 419.2 153.9 419.4 153.4 419.6ZM156.5 418.4C156.4 418.4 156.3 418.4 156.3 418.3C156.3 418.2 156.3 418.1 156.4 418C156.9 417.8 157.4 417.5 157.9 417.3C158 417.2 158.1 417.3 158.2 417.4C158.3 417.5 158.2 417.6 158.1 417.7C157.6 417.9 157.1 418.1 156.5 418.4ZM159.5 416.9C159.4 416.9 159.4 416.9 159.3 416.8C159.2 416.7 159.3 416.6 159.4 416.5C159.9 416.2 160.4 416 160.8 415.7C160.9 415.6 161 415.7 161.1 415.8C161.2 415.9 161.1 416 161 416.1C160.5 416.4 160 416.7 159.6 416.9C159.5 416.9 159.5 416.9 159.5 416.9ZM162.3 415.1C162.2 415.1 162.2 415.1 162.1 415C162 414.9 162.1 414.8 162.2 414.7C162.7 414.4 163.1 414.1 163.5 413.7C163.6 413.6 163.7 413.6 163.8 413.7C163.9 413.8 163.9 413.9 163.8 414C163.4 414.3 162.9 414.7 162.4 415C162.4 415.1 162.3 415.1 162.3 415.1ZM164.9 413.1C164.8 413.1 164.8 413.1 164.7 413C164.6 412.9 164.6 412.8 164.7 412.7C165.1 412.3 165.5 412 165.9 411.6C166 411.5 166.1 411.5 166.2 411.6C166.3 411.7 166.3 411.8 166.2 411.9C165.8 412.3 165.4 412.7 165 413C165 413.1 165 413.1 164.9 413.1ZM167.4 410.8C167.3 410.8 167.3 410.8 167.3 410.7C167.2 410.6 167.2 410.5 167.3 410.4C167.7 410 168.1 409.6 168.4 409.2C168.5 409.1 168.6 409.1 168.7 409.2C168.8 409.3 168.8 409.4 168.7 409.5C168.3 409.9 168 410.3 167.6 410.7C167.5 410.8 167.4 410.8 167.4 410.8ZM169.5 408.3H169.4C169.3 408.2 169.3 408.1 169.4 408C169.7 407.6 170.1 407.1 170.4 406.7C170.5 406.6 170.6 406.6 170.7 406.6C170.8 406.7 170.8 406.8 170.8 406.9C170.5 407.4 170.1 407.8 169.8 408.3C169.6 408.2 169.6 408.3 169.5 408.3ZM171.4 405.5H171.3C171.2 405.4 171.2 405.3 171.2 405.2C171.5 404.7 171.8 404.3 172 403.8C172.1 403.7 172.2 403.7 172.3 403.7C172.4 403.8 172.4 403.9 172.4 404C172.1 404.5 171.8 405 171.5 405.4C171.6 405.5 171.5 405.5 171.4 405.5ZM173.1 402.6C173 402.6 173 402.6 173.1 402.6C172.9 402.5 172.9 402.4 172.9 402.3C173.1 401.8 173.4 401.3 173.6 400.8C173.6 400.7 173.8 400.6 173.9 400.7C174 400.7 174.1 400.9 174 401C173.8 401.5 173.5 402 173.3 402.5C173.2 402.6 173.1 402.6 173.1 402.6ZM174.4 399.6C174.2 399.5 174.2 399.4 174.2 399.3C174.4 398.8 174.6 398.3 174.8 397.7C174.8 397.6 175 397.5 175.1 397.6C175.2 397.6 175.3 397.8 175.2 397.9C175 398.4 174.8 399 174.6 399.5C174.6 399.5 174.5 399.6 174.4 399.6ZM175.5 396.4C175.3 396.4 175.3 396.2 175.3 396.1C175.5 395.6 175.6 395 175.7 394.5C175.7 394.4 175.8 394.3 176 394.4C176.1 394.4 176.2 394.5 176.2 394.7C176.1 395.2 175.9 395.8 175.7 396.3C175.7 396.4 175.6 396.4 175.5 396.4ZM176.3 393.2C176.1 393.2 176.1 393.1 176.1 392.9C176.2 392.4 176.3 391.8 176.4 391.3C176.4 391.2 176.5 391.1 176.6 391.1C176.7 391.1 176.8 391.2 176.8 391.3C176.7 391.8 176.6 392.4 176.5 392.9C176.5 393.1 176.4 393.2 176.3 393.2ZM176.9 389.9C176.8 389.9 176.7 389.8 176.7 389.7C176.8 389.2 176.8 388.6 176.9 388C176.9 387.9 177 387.8 177.1 387.8C177.2 387.8 177.3 387.9 177.3 388C177.2 388.6 177.2 389.1 177.1 389.7C177.1 389.8 177 389.9 176.9 389.9ZM177.3 386.6C177.3 386.6 177.2 386.6 177.3 386.6C177.2 386.6 177.1 386.5 177.1 386.4C177.1 385.8 177.2 385.3 177.2 384.7C177.2 384.6 177.3 384.5 177.4 384.5C177.5 384.5 177.6 384.6 177.6 384.7C177.6 385.3 177.6 385.8 177.5 386.4C177.5 386.5 177.4 386.6 177.3 386.6ZM177.3 383.2C177.2 383.2 177.1 383.1 177.1 383C177.1 382.4 177.1 381.9 177 381.3C177 381.2 177.1 381.1 177.2 381.1C177.3 381.1 177.4 381.2 177.4 381.3C177.4 381.8 177.5 382.4 177.5 383C177.5 383.1 177.5 383.2 177.3 383.2ZM177.1 379.9C177 379.9 176.9 379.8 176.9 379.7C176.8 379.1 176.8 378.6 176.7 378.1C176.7 378 176.8 377.9 176.9 377.9C177 377.9 177.1 378 177.1 378.1C177.2 378.6 177.2 379.2 177.3 379.8C177.4 379.8 177.3 379.9 177.1 379.9C177.2 379.9 177.2 379.9 177.1 379.9ZM176.7 376.6C176.6 376.6 176.5 376.5 176.5 376.4C176.4 376 176.3 375.6 176.2 375.2C176.2 375.2 176.2 375.2 176.1 375.2C175.6 375.4 175 375.5 174.4 375.6C174.3 375.6 174.2 375.5 174.2 375.4C174.2 375.3 174.3 375.2 174.4 375.2C175 375.1 175.5 375 176 374.8H176.1C176.1 374.7 176.1 374.6 176.2 374.5C176.3 374.5 176.4 374.5 176.5 374.6C176.6 375.1 176.8 375.7 176.9 376.2C176.9 376.5 176.8 376.6 176.7 376.6ZM172.8 375.8C172.2 375.8 171.6 375.7 171.1 375.7C171 375.7 170.9 375.6 170.9 375.5C170.9 375.4 171 375.3 171.1 375.3C171.6 375.4 172.2 375.4 172.7 375.4C172.8 375.4 172.9 375.5 172.9 375.6C173 375.7 172.9 375.8 172.8 375.8ZM169.5 375.2C168.8 375 168.3 374.7 167.9 374.4C167.8 374.3 167.8 374.2 167.9 374.1C168 374 168.1 374 168.2 374.1C168.6 374.4 169.1 374.7 169.6 374.9C169.7 374.9 169.8 375.1 169.7 375.2C169.7 375.2 169.6 375.2 169.5 375.2ZM177.5 374.5C177.4 374.5 177.4 374.5 177.3 374.4C177.2 374.3 177.3 374.2 177.4 374.1C177.8 373.8 178.2 373.5 178.7 373.1C178.8 373 178.9 373 179 373.1C179.1 373.2 179.1 373.3 179 373.4C178.6 373.8 178.1 374.2 177.7 374.5C177.6 374.5 177.6 374.5 177.5 374.5ZM175.8 373.4C175.7 373.4 175.6 373.3 175.6 373.3C175.4 372.7 175.2 372.2 175 371.8C175 371.7 175 371.6 175.1 371.5C175.2 371.5 175.3 371.5 175.4 371.6C175.6 372.1 175.8 372.6 176 373.2C176 373.2 176 373.3 175.8 373.4ZM167 373.2C166.9 373.2 166.9 373.2 166.8 373.1C166.5 372.6 166.4 372.1 166.4 371.6C166.4 371.5 166.4 371.5 166.4 371.4C166.4 371.3 166.5 371.2 166.6 371.2C166.7 371.2 166.8 371.3 166.8 371.4V371.5C166.8 372 166.9 372.4 167.1 372.9C167.2 373 167.2 373.1 167 373.2ZM179.9 372.3H179.8C179.7 372.2 179.7 372.1 179.8 372C180.1 371.6 180.4 371.2 180.8 370.7C180.9 370.6 181 370.6 181.1 370.7C181.2 370.8 181.2 370.9 181.1 371C180.7 371.5 180.4 372 180.1 372.3C180.1 372.2 180 372.3 179.9 372.3ZM174.3 370.4C174.2 370.4 174.2 370.4 174.1 370.3C173.7 369.8 173.4 369.4 173 369.2C172.9 369.1 172.9 369 172.9 368.9C173 368.8 173.1 368.8 173.2 368.8C173.6 369.1 174 369.5 174.4 370C174.5 370.1 174.4 370.2 174.4 370.3C174.4 370.4 174.4 370.4 174.3 370.4ZM167.1 370H167C166.9 369.9 166.9 369.8 166.9 369.7C167.2 369.2 167.7 368.8 168.2 368.5C168.3 368.4 168.4 368.5 168.5 368.6C168.6 368.7 168.5 368.8 168.4 368.9C167.9 369.2 167.5 369.5 167.3 369.9C167.3 370 167.2 370 167.1 370ZM181.9 369.6H181.8C181.7 369.5 181.7 369.4 181.8 369.3C182.1 368.9 182.4 368.4 182.8 367.9C182.9 367.8 183 367.8 183.1 367.9C183.2 368 183.2 368.1 183.1 368.2C182.8 368.7 182.4 369.1 182.1 369.6C182.1 369.6 182 369.6 181.9 369.6ZM171.6 368.6C171 368.5 170.5 368.4 170 368.4C169.9 368.4 169.8 368.3 169.8 368.2C169.8 368.1 169.9 368 170 368C170.5 368 171.1 368 171.7 368.2C171.8 368.2 171.9 368.3 171.8 368.5C171.8 368.6 171.7 368.6 171.6 368.6ZM183.9 366.9H183.8C183.7 366.8 183.7 366.7 183.8 366.6C184.2 366.1 184.5 365.7 184.9 365.3C185 365.2 185.1 365.2 185.2 365.3C185.3 365.4 185.3 365.5 185.2 365.6C184.9 366 184.5 366.4 184.2 366.9C184 366.9 184 366.9 183.9 366.9ZM186.1 364.4C186 364.4 186 364.4 186 364.3C185.9 364.2 185.9 364.1 186 364C186.4 363.6 186.8 363.2 187.2 362.8C187.3 362.7 187.4 362.7 187.5 362.8C187.6 362.9 187.6 363 187.5 363.1C187.1 363.5 186.7 363.9 186.3 364.3C186.2 364.3 186.1 364.4 186.1 364.4ZM246.5 362.8C246.4 362.8 246.4 362.8 246.5 362.8C246.4 362.8 245.9 362.5 244.9 362C244.8 361.9 244.8 361.8 244.8 361.7C244.9 361.6 245 361.6 245.1 361.6C246.1 362.1 246.6 362.4 246.6 362.4C246.7 362.5 246.7 362.6 246.7 362.7C246.6 362.8 246.5 362.8 246.5 362.8ZM188.5 362C188.4 362 188.4 362 188.3 361.9C188.2 361.8 188.2 361.7 188.3 361.6C188.7 361.2 189.2 360.9 189.6 360.5C189.7 360.4 189.8 360.4 189.9 360.5C190 360.6 190 360.7 189.9 360.8C189.5 361.1 189 361.5 188.6 361.9C188.6 362 188.5 362 188.5 362ZM243.5 361.4C243.4 361.4 243.4 361.4 243.5 361.4C243 361.2 242.4 360.9 241.9 360.7C241.8 360.7 241.7 360.5 241.8 360.4C241.8 360.3 242 360.2 242.1 360.3C242.7 360.5 243.2 360.8 243.6 361C243.7 361 243.7 361.2 243.7 361.3C243.6 361.3 243.5 361.4 243.5 361.4ZM240.4 360C239.8 359.8 239.3 359.6 238.8 359.3C238.7 359.3 238.6 359.1 238.7 359C238.7 358.9 238.9 358.8 239 358.9C239.5 359.1 240.1 359.3 240.5 359.5C240.6 359.5 240.7 359.7 240.6 359.8C240.6 359.9 240.5 360 240.4 360ZM191.1 360C191 360 191 360 190.9 359.9C190.8 359.8 190.9 359.7 190.9 359.6C191.4 359.3 191.8 359 192.3 358.7C192.4 358.6 192.5 358.7 192.6 358.8C192.7 358.9 192.6 359 192.5 359.1C192 359.4 191.6 359.7 191.1 360C191.2 359.9 191.1 360 191.1 360ZM237.3 358.7C236.7 358.5 236.2 358.3 235.7 358.1C235.6 358.1 235.5 357.9 235.6 357.8C235.6 357.7 235.8 357.6 235.9 357.7C236.4 357.9 237 358.1 237.5 358.3C237.6 358.3 237.7 358.5 237.6 358.6C237.5 358.7 237.4 358.7 237.3 358.7ZM193.9 358.1C193.8 358.1 193.8 358.1 193.7 358C193.6 357.9 193.7 357.8 193.8 357.7C194.3 357.4 194.8 357.1 195.3 356.9C195.4 356.8 195.5 356.9 195.6 357C195.7 357.1 195.6 357.2 195.5 357.3C195 357.6 194.5 357.8 194.1 358.1C194 358.1 193.9 358.1 193.9 358.1ZM234.2 357.6C234.2 357.6 234.1 357.6 234.2 357.6C233.6 357.4 233.1 357.2 232.6 357C232.5 357 232.4 356.8 232.5 356.7C232.5 356.6 232.7 356.5 232.8 356.6C233.3 356.8 233.9 357 234.4 357.1C234.5 357.1 234.6 357.3 234.5 357.4C234.3 357.5 234.3 357.6 234.2 357.6ZM196.8 356.6C196.7 356.6 196.6 356.6 196.6 356.5C196.5 356.4 196.6 356.3 196.7 356.2C197.2 356 197.7 355.7 198.2 355.5C198.3 355.5 198.4 355.5 198.5 355.6C198.5 355.7 198.5 355.8 198.4 355.9C197.9 356.1 197.4 356.3 196.8 356.6C196.9 356.6 196.9 356.6 196.8 356.6ZM231 356.5C230.4 356.3 229.9 356.2 229.3 356C229.2 356 229.1 355.9 229.2 355.7C229.2 355.6 229.3 355.5 229.5 355.6C230 355.8 230.6 355.9 231.1 356.1C231.2 356.1 231.3 356.3 231.2 356.4C231.2 356.5 231.1 356.5 231 356.5ZM227.8 355.6C227.2 355.4 226.7 355.3 226.1 355.2C226 355.2 225.9 355.1 225.9 354.9C225.9 354.8 226 354.7 226.2 354.7C226.7 354.8 227.3 355 227.8 355.1C227.9 355.1 228 355.2 227.9 355.4C228 355.5 227.9 355.6 227.8 355.6ZM199.9 355.2C199.8 355.2 199.7 355.1 199.7 355.1C199.7 355 199.7 354.9 199.8 354.8C200.3 354.6 200.9 354.4 201.4 354.2C201.5 354.2 201.6 354.2 201.7 354.3C201.7 354.4 201.7 354.5 201.6 354.6C201 354.8 200.5 355 199.9 355.2ZM224.6 354.8C224.5 354.8 224.5 354.8 224.6 354.8C224 354.7 223.5 354.6 222.9 354.4C222.8 354.4 222.7 354.3 222.7 354.2C222.7 354.1 222.8 354 222.9 354C223.4 354.1 224 354.2 224.5 354.4C224.6 354.4 224.7 354.5 224.7 354.6C224.7 354.7 224.7 354.8 224.6 354.8ZM203 354.2C202.9 354.2 202.8 354.1 202.8 354C202.8 353.9 202.8 353.8 203 353.7C203.5 353.6 204.1 353.4 204.6 353.3C204.7 353.3 204.8 353.4 204.8 353.5C204.8 353.6 204.7 353.7 204.6 353.7C204.2 353.9 203.6 354.1 203 354.2C203.1 354.2 203.1 354.2 203 354.2ZM221.3 354.1C220.7 354 220.2 353.9 219.6 353.8C219.5 353.8 219.4 353.7 219.4 353.6C219.4 353.5 219.5 353.4 219.6 353.4C220.2 353.5 220.7 353.6 221.3 353.7C221.4 353.7 221.5 353.8 221.5 353.9C221.5 354 221.4 354.1 221.3 354.1ZM218 353.6C217.4 353.5 216.9 353.5 216.3 353.4C216.2 353.4 216.1 353.3 216.1 353.2C216.1 353.1 216.2 353 216.3 353C216.9 353.1 217.4 353.1 218 353.2C218.1 353.2 218.2 353.3 218.2 353.4C218.2 353.5 218.1 353.6 218 353.6ZM206.3 353.6C206.2 353.6 206.1 353.5 206.1 353.4C206.1 353.3 206.2 353.2 206.3 353.2C206.8 353.1 207.4 353.1 208 353C208.1 353 208.2 353.1 208.2 353.2C208.2 353.3 208.1 353.4 208 353.4C207.4 353.4 206.9 353.5 206.3 353.6ZM214.7 353.3C214.7 353.3 214.6 353.3 214.7 353.3C214.1 353.3 213.6 353.2 213 353.2C212.9 353.2 212.8 353.1 212.8 353C212.8 352.9 212.9 352.8 213 352.8C213.5 352.8 214.1 352.8 214.7 352.9C214.8 352.9 214.9 353 214.9 353.1C214.9 353.2 214.8 353.3 214.7 353.3ZM209.6 353.3C209.5 353.3 209.4 353.2 209.4 353.1C209.4 353 209.5 352.9 209.6 352.9C210.2 352.9 210.7 352.9 211.3 352.8C211.4 352.8 211.5 352.9 211.5 353C211.5 353.1 211.4 353.2 211.3 353.2C210.8 353.2 210.2 353.2 209.6 353.3C209.7 353.3 209.7 353.3 209.6 353.3Z" fill="#2E1F22"/>
<path d="M147.2 412.7L143.4 420.1L150.7 428L144.5 428.4L146.2 434.6L118.9 426.2L147.2 412.7Z" fill="#67BECB"/>
<path d="M119.6 426.5C119.5 426.5 119.3 426.4 119.3 426.3C119.3 426.1 119.4 426 119.5 425.9L143.3 419.9C143.5 419.9 143.6 420 143.7 420.1C143.7 420.3 143.6 420.4 143.5 420.5L119.6 426.5C119.6 426.5 119.7 426.5 119.6 426.5Z" fill="#2E1F22"/>
<path d="M150.7 428.3H150.6L142.7 425.3C142.5 425.2 142.5 425.1 142.5 424.9C142.6 424.7 142.7 424.7 142.9 424.7L150.8 427.7C151 427.8 151 427.9 151 428.1C151 428.2 150.9 428.3 150.7 428.3Z" fill="#2E1F22"/>
<path d="M119.6 426.5C119.4 426.5 119.3 426.4 119.3 426.2C119.3 426 119.4 425.9 119.6 425.9L142.8 424.7C143 424.7 143.1 424.8 143.1 425C143.1 425.2 143 425.3 142.8 425.3L119.6 426.5Z" fill="#2E1F22"/>
<path d="M144.5 428.7C144.4 428.7 144.3 428.6 144.2 428.5L142.5 425.1C142.4 424.9 142.5 424.8 142.6 424.7C142.8 424.6 142.9 424.7 143 424.8L144.7 428.2C144.8 428.4 144.7 428.5 144.6 428.6C144.6 428.7 144.5 428.7 144.5 428.7Z" fill="#2E1F22"/>
<path d="M460.9 30.6H510.9C510.9 30.6 508.8 15.7 498 25.3C498 25.3 498.4 14.5 490.4 13.9C482.4 13.3 481.6 23.8 481.6 23.8C481.6 23.8 479.6 18.9 474.9 19.6C470.2 20.3 470.3 27 470.3 27C470.3 27 469.1 25 466.2 26C461.6 27.4 460.9 30.6 460.9 30.6Z" fill="#49BACA"/>
<path d="M793.5 500H863.5C863.5 500 860.5 479.1 845.4 492.5C845.4 492.5 845.9 477.4 834.7 476.5C823.5 475.6 822.4 490.4 822.4 490.4C822.4 490.4 819.5 483.6 813 484.5C806.4 485.4 806.6 494.8 806.6 494.8C806.6 494.8 804.9 492 800.9 493.3C794.4 495.5 793.5 500 793.5 500Z" fill="#EF8615"/>
<path d="M6.7002 346H60.2002C60.2002 346 57.9002 330 46.4002 340.3C46.4002 340.3 46.8002 328.7 38.2002 328.1C29.6002 327.4 28.8002 338.8 28.8002 338.8C28.8002 338.8 26.6002 333.6 21.6002 334.3C16.6002 335 16.7002 342.2 16.7002 342.2C16.7002 342.2 15.4002 340.1 12.3002 341.1C7.4002 342.6 6.7002 346 6.7002 346Z" fill="#EF8615"/>
<path d="M844.7 321H884.7C884.7 321 883 309.1 874.4 316.7C874.4 316.7 874.7 308.1 868.3 307.5C861.9 307 861.2 315.5 861.2 315.5C861.2 315.5 859.6 311.6 855.8 312.1C852 312.6 852.1 318 852.1 318C852.1 318 851.2 316.4 848.8 317.2C845.2 318.4 844.7 321 844.7 321Z" fill="#C9B8C3"/>
<path d="M74.7002 56H3.7002C3.7002 56 6.7002 34.8 22.1002 48.4C22.1002 48.4 21.6002 33.1 32.9002 32.1C44.2002 31.1 45.4002 46.2 45.4002 46.2C45.4002 46.2 48.3002 39.3 55.0002 40.2C61.7002 41.1 61.5002 50.7 61.5002 50.7C61.5002 50.7 63.2002 47.9 67.3002 49.2C73.8002 51.5 74.7002 56 74.7002 56Z" fill="#C9B8C3"/>
<path d="M820.6 23H752.6C752.6 23 755.5 2.7 770.2 15.8C770.2 15.8 769.7 1.1 780.6 0.2C791.5 -0.7 792.6 13.7 792.6 13.7C792.6 13.7 795.4 7 801.7 7.9C808.1 8.8 807.9 17.9 807.9 17.9C807.9 17.9 809.5 15.2 813.4 16.5C819.7 18.6 820.6 23 820.6 23Z" fill="#F6CDB8"/>
<path d="M444.9 235.7L446.7 231.6L448.8 236L453.1 236.3L449.5 238.8L450.6 243L446.7 240.7L442.4 242.9L444.1 238.5L440.5 236.4L444.9 235.7Z" fill="#F9B818"/>
<path d="M158.3 52.6L156.6 48.4L154.4 52.9L150.1 53.1L153.8 55.7L152.6 59.9L156.5 57.6L160.8 59.7L159.1 55.3L162.7 53.3L158.3 52.6Z" fill="#E68888"/>
<path d="M618.1 375.1L619.9 371L622.1 375.5L626.3 375.7L622.7 378.3L623.8 382.5L619.9 380.2L615.7 382.3L617.3 377.9L613.7 375.9L618.1 375.1Z" fill="white"/>
<path d="M62.7999 234L64.5999 229.8L66.6999 234.3L70.9999 234.5L67.3999 237.1L68.4999 241.3L64.5999 239L60.2999 241.1L61.9999 236.7L58.3999 234.7L62.7999 234Z" fill="#D8B20F"/>
<path d="M18.7999 13L20.5999 8.8L22.6999 13.3L26.9999 13.5L23.3999 16.1L24.4999 20.3L20.5999 18L16.2999 20.1L17.9999 15.7L14.3999 13.7L18.7999 13Z" fill="#D8B20F"/>
<path d="M859.3 450.1L861.1 446L863.3 450.4L867.5 450.7L863.9 453.2L865 457.5L861.1 455.1L856.9 457.3L858.5 452.9L854.9 450.8L859.3 450.1Z" fill="#49BACA"/>
<path d="M820.1 404.8L821.8 400.7L824 405.1L828.3 405.4L824.6 407.9L825.8 412.1L821.9 409.8L817.6 412L819.3 407.6L815.7 405.5L820.1 404.8Z" fill="white"/>
<path d="M766.6 368.4L768.4 364.3L770.6 368.7L774.8 369L771.2 371.6L772.3 375.8L768.4 373.5L764.1 375.6L765.8 371.2L762.2 369.1L766.6 368.4Z" fill="white"/>
<path d="M865.8 160.3L867.5 156.1L869.7 160.6L874 160.8L870.3 163.4L871.5 167.6L867.6 165.3L863.3 167.5L865 163L861.4 161L865.8 160.3Z" fill="#49BACA"/>
<path d="M879.9 428.8L881.6 424.7L883.8 429.1L888 429.4L884.4 431.9L885.5 436.2L881.7 433.8L877.4 436L879.1 431.6L875.5 429.5L879.9 428.8Z" fill="url(#paint0_radial_548_2)"/>
<path d="M779.9 473.8L781.6 469.7L783.8 474.1L788 474.4L784.4 476.9L785.5 481.2L781.7 478.8L777.4 481L779.1 476.6L775.5 474.5L779.9 473.8Z" fill="url(#paint1_radial_548_2)"/>
<path d="M842.1 429.5L843.8 425.4L846 429.9L850.3 430.1L846.6 432.7L847.8 436.9L843.9 434.6L839.6 436.7L841.3 432.3L837.7 430.3L842.1 429.5Z" fill="#F9B818"/>
<path d="M819.7 48.2L821.4 44L823.6 48.5L827.8 48.7L824.2 51.3L825.3 55.5L821.4 53.2L817.2 55.3L818.8 50.9L815.2 48.9L819.7 48.2Z" fill="#6EAF9F"/>
<path d="M774.7 294.2L776.4 290L778.6 294.5L782.8 294.7L779.2 297.3L780.3 301.5L776.4 299.2L772.2 301.3L773.8 296.9L770.2 294.9L774.7 294.2Z" fill="#F9B818"/>
<path d="M31.1002 122.9L32.8002 118.7L35.0002 123.2L39.2002 123.4L35.6002 126L36.8002 130.2L32.9002 127.9L28.6002 130.1L30.3002 125.6L26.7002 123.6L31.1002 122.9Z" fill="#49BACA"/>
<path d="M9.1998 250.5L10.8998 246.4L13.0998 250.8L17.3998 251.1L13.6998 253.6L14.8998 257.8L10.9998 255.5L6.6998 257.7L8.3998 253.3L4.7998 251.2L9.1998 250.5Z" fill="#E68888"/>
<path d="M11.1 281.4L14.8 278.9L14.2 283.8L17.5 286.4L13.1 286.5L11.7 290.7L9.7 286.6L5 286L8.8 283.2L7 279.5L11.1 281.4Z" fill="#F9B818"/>
<path d="M88.2998 441L92.0998 438.5L91.3998 443.4L94.7998 446L90.3998 446.1L88.8998 450.3L86.9998 446.2L82.2998 445.6L86.0998 442.8L84.2998 439.1L88.2998 441Z" fill="#F9B818"/>
<path d="M11.3998 399.1L15.0998 396.7L14.3998 401.6L17.7998 404.2L13.3998 404.3L11.8998 408.4L9.9998 404.3L5.2998 403.7L9.0998 401L7.2998 397.3L11.3998 399.1Z" fill="#49BACA"/>
<path d="M169.3 338.1L173 335.6L172.3 340.5L175.7 343.1L171.3 343.2L169.8 347.3L167.9 343.2L163.2 342.6L167 339.9L165.2 336.2L169.3 338.1Z" fill="#E68888"/>
<path d="M852.9 383.3L853.4 378.8L856.7 382.4L860.8 381.5L858.1 385L860.4 388.7L856 387.6L852.5 390.8L852.9 386.1L848.8 385.2L852.9 383.3Z" fill="#E68888"/>
<path d="M876.9 186.3L877.4 181.8L880.7 185.4L884.8 184.5L882.1 188L884.4 191.7L880 190.6L876.5 193.8L876.9 189.1L872.8 188.2L876.9 186.3Z" fill="#E74C4E"/>
<path d="M712.345 431.076L720.388 432.636L722.162 443.189L726.277 438.486L730.148 443.745L740.176 416.945L712.345 431.076Z" fill="#67BECB"/>
<path d="M720.435 432.933C720.337 432.948 720.222 432.865 720.108 432.782C719.993 432.699 720.061 432.486 720.144 432.371L739.516 417.252C739.599 417.137 739.812 417.205 739.926 417.288C740.041 417.371 739.973 417.584 739.89 417.699L720.518 432.818C720.534 432.917 720.534 432.917 720.435 432.933Z" fill="#2E1F22"/>
<path d="M722.209 443.485L722.111 443.501C721.897 443.433 721.866 443.236 721.949 443.121L724.414 435.036C724.481 434.822 724.679 434.791 724.793 434.874C725.006 434.942 725.038 435.139 724.954 435.254L722.49 443.339C722.391 443.355 722.308 443.469 722.209 443.485Z" fill="#2E1F22"/>
<path d="M724.674 435.399C724.575 435.415 724.476 435.431 724.461 435.332C724.346 435.249 724.315 435.051 724.398 434.937L739.531 417.351C739.614 417.236 739.812 417.205 739.926 417.288C740.041 417.371 740.072 417.569 739.989 417.683L724.856 435.269C724.757 435.285 724.773 435.384 724.674 435.399Z" fill="#2E1F22"/>
<path d="M726.324 438.783C726.225 438.798 726.012 438.731 725.996 438.632L724.346 435.249C724.216 435.067 724.299 434.953 724.481 434.822C724.679 434.791 724.777 434.775 724.908 434.957L726.558 438.341C726.688 438.523 726.62 438.736 726.324 438.783C726.423 438.767 726.423 438.767 726.324 438.783Z" fill="#2E1F22"/>
<path d="M698.968 456.079C698.367 456.174 697.692 456.282 697.085 456.34C696.935 456.363 696.848 456.301 696.842 456.264C696.83 456.19 696.974 456.129 697.05 456.117C697.656 456.059 698.257 455.964 698.858 455.868L698.968 456.079ZM700.84 455.744C700.69 455.768 700.609 455.743 700.597 455.669C700.585 455.594 700.654 455.545 700.805 455.522C701.405 455.426 702 455.294 702.595 455.162C702.746 455.138 702.827 455.163 702.838 455.237C702.85 455.312 702.781 455.361 702.631 455.384C702.036 455.517 701.441 455.649 700.84 455.744ZM695.271 456.551C694.589 456.621 693.976 456.642 693.369 456.7C693.219 456.724 693.132 456.662 693.196 456.576C693.184 456.501 693.328 456.44 693.484 456.454C694.097 456.433 694.704 456.375 695.31 456.316C695.461 456.293 695.547 456.355 695.553 456.392C695.484 456.441 695.346 456.539 695.271 456.551ZM704.41 454.95C704.334 454.962 704.178 454.949 704.167 454.874C704.155 454.8 704.224 454.751 704.368 454.69C704.963 454.558 705.552 454.388 706.141 454.219C706.292 454.195 706.373 454.22 706.454 454.246C706.465 454.32 706.396 454.369 706.327 454.418C705.669 454.636 705.08 454.806 704.41 454.95C704.485 454.938 704.485 454.938 704.41 454.95ZM691.601 456.714C691.601 456.714 691.526 456.726 691.601 456.714C690.913 456.747 690.295 456.731 689.751 456.703C689.595 456.69 689.589 456.653 689.578 456.578C689.641 456.492 689.716 456.48 689.866 456.456C690.485 456.473 691.028 456.501 691.641 456.48C691.791 456.456 691.878 456.518 691.814 456.604C691.745 456.653 691.676 456.702 691.601 456.714ZM707.95 453.97C707.875 453.982 707.719 453.969 707.713 453.932C707.626 453.869 707.695 453.82 707.839 453.759C708.428 453.59 709.012 453.383 709.52 453.189C709.664 453.128 709.745 453.153 709.832 453.215C709.919 453.278 709.85 453.327 709.705 453.388C709.191 453.545 708.608 453.752 707.95 453.97C708.025 453.958 708.025 453.958 707.95 453.97ZM688.046 456.631L687.971 456.643C687.422 456.578 686.797 456.524 686.248 456.459C686.167 456.434 686.08 456.372 686.15 456.322C686.219 456.273 686.363 456.213 686.444 456.238C686.993 456.303 687.543 456.368 688.086 456.396C688.242 456.409 688.254 456.484 688.185 456.533C688.19 456.57 688.121 456.619 688.046 456.631ZM711.293 452.717C711.218 452.729 711.137 452.704 711.056 452.679C710.969 452.616 711.038 452.567 711.107 452.518C711.609 452.286 712.112 452.055 712.614 451.823C712.683 451.774 712.839 451.787 712.92 451.812C713.001 451.838 712.938 451.924 712.868 451.973C712.366 452.205 711.864 452.436 711.287 452.68C711.368 452.705 711.293 452.717 711.293 452.717ZM684.745 456.203C684.67 456.215 684.67 456.215 684.589 456.189C684.033 456.087 683.553 455.973 682.998 455.871C682.917 455.845 682.83 455.783 682.975 455.722C683.044 455.673 683.188 455.612 683.275 455.674C683.755 455.789 684.31 455.891 684.79 456.005C684.871 456.03 684.958 456.093 684.889 456.142C684.889 456.142 684.82 456.191 684.745 456.203ZM714.294 451.252C714.219 451.264 714.144 451.276 714.138 451.239C714.057 451.213 714.045 451.139 714.189 451.078C714.686 450.809 715.107 450.552 715.528 450.295C715.597 450.246 715.748 450.222 715.829 450.248C715.91 450.273 715.921 450.347 715.852 450.396C715.437 450.69 714.94 450.959 714.519 451.216C714.369 451.24 714.294 451.252 714.294 451.252ZM681.708 455.504C681.633 455.516 681.558 455.528 681.552 455.491C681.066 455.34 680.58 455.188 680.17 455.025C680.089 455 680.077 454.926 680.146 454.877C680.215 454.827 680.365 454.804 680.446 454.829C680.932 454.98 681.343 455.143 681.823 455.258C681.904 455.283 681.916 455.357 681.847 455.406C681.778 455.455 681.708 455.504 681.708 455.504ZM716.809 449.635C716.734 449.647 716.659 449.659 716.653 449.622C716.572 449.597 716.561 449.523 716.63 449.474C717.045 449.179 717.385 448.897 717.72 448.578C717.789 448.529 717.933 448.468 718.014 448.493C718.095 448.518 718.182 448.58 718.113 448.63C717.778 448.949 717.438 449.231 717.023 449.525C716.954 449.574 716.884 449.623 716.809 449.635ZM678.943 454.572C678.868 454.584 678.793 454.596 678.787 454.559C678.376 454.396 677.959 454.196 677.543 453.995C677.462 453.97 677.45 453.896 677.594 453.835C677.663 453.786 677.814 453.762 677.9 453.824C678.317 454.025 678.728 454.188 679.139 454.351C679.22 454.376 679.232 454.451 679.162 454.5C679.012 454.523 679.018 454.561 678.943 454.572ZM718.833 447.83C718.758 447.842 718.758 447.842 718.683 447.854C718.602 447.829 718.515 447.767 718.584 447.718C718.843 447.41 719.102 447.103 719.362 446.795C719.425 446.709 719.575 446.685 719.656 446.71C719.812 446.724 719.824 446.798 719.755 446.847C719.496 447.154 719.242 447.499 718.983 447.806C719.052 447.757 718.983 447.806 718.833 447.83ZM676.53 453.433C676.454 453.445 676.379 453.457 676.298 453.431C675.957 453.219 675.54 453.019 675.198 452.806C675.117 452.781 675.181 452.695 675.25 452.646C675.319 452.597 675.475 452.61 675.556 452.636C675.898 452.848 676.315 453.048 676.656 453.26C676.737 453.286 676.749 453.36 676.605 453.421C676.605 453.421 676.605 453.421 676.53 453.433ZM720.301 445.923L720.226 445.935C720.07 445.922 720.064 445.884 720.053 445.81C720.357 445.305 720.455 444.947 720.518 444.861C720.506 444.787 720.65 444.726 720.807 444.739C720.957 444.715 721.044 444.778 720.98 444.864C720.917 444.95 720.82 445.308 720.521 445.85C720.446 445.862 720.376 445.911 720.301 445.923ZM674.399 452.134C674.324 452.146 674.243 452.121 674.162 452.095C673.82 451.883 673.473 451.634 673.206 451.41C673.119 451.347 673.189 451.298 673.258 451.249C673.402 451.188 673.483 451.213 673.564 451.239C673.906 451.451 674.178 451.712 674.52 451.925C674.607 451.987 674.537 452.036 674.468 452.085C674.474 452.122 674.474 452.122 674.399 452.134ZM672.563 450.75C672.488 450.762 672.407 450.737 672.326 450.712C672.053 450.451 671.712 450.238 671.439 449.977C671.353 449.915 671.422 449.866 671.566 449.805C671.71 449.744 671.791 449.769 671.878 449.831C672.151 450.093 672.417 450.317 672.765 450.566C672.851 450.629 672.782 450.678 672.638 450.739C672.563 450.75 672.563 450.75 672.563 450.75ZM670.865 449.269C670.79 449.281 670.709 449.256 670.628 449.23C670.356 448.969 670.083 448.708 669.892 448.472C669.805 448.409 669.874 448.36 670.019 448.299C670.163 448.238 670.244 448.264 670.331 448.326C670.603 448.587 670.795 448.823 671.067 449.085C671.154 449.147 671.085 449.196 670.94 449.257C670.94 449.257 670.94 449.257 670.865 449.269ZM669.387 447.714C669.312 447.726 669.156 447.713 669.15 447.676C668.953 447.403 668.68 447.141 668.483 446.868C668.471 446.794 668.465 446.757 668.61 446.696C668.76 446.672 668.835 446.66 668.922 446.723C669.119 446.996 669.391 447.257 669.589 447.53C669.676 447.593 669.612 447.679 669.387 447.714C669.462 447.703 669.462 447.703 669.387 447.714ZM668.134 446.124C668.059 446.136 667.903 446.123 667.897 446.086C667.7 445.813 667.502 445.539 667.305 445.266C667.293 445.192 667.362 445.143 667.432 445.094C667.582 445.07 667.663 445.095 667.744 445.121C667.941 445.394 668.138 445.667 668.336 445.94C668.348 446.014 668.278 446.063 668.134 446.124ZM666.95 444.485C666.875 444.497 666.719 444.484 666.713 444.447C666.516 444.173 666.319 443.9 666.196 443.615C666.185 443.541 666.254 443.492 666.323 443.443C666.473 443.419 666.554 443.444 666.635 443.469C666.833 443.743 667.03 444.016 667.152 444.301C667.164 444.375 667.095 444.424 666.95 444.485ZM665.842 442.834C665.766 442.846 665.61 442.833 665.605 442.796C665.407 442.522 665.285 442.237 665.088 441.964C665.076 441.89 665.145 441.841 665.214 441.792C665.365 441.768 665.446 441.793 665.527 441.818C665.724 442.092 665.846 442.377 666.043 442.65C666.13 442.712 665.986 442.773 665.842 442.834C665.842 442.834 665.917 442.822 665.842 442.834ZM664.802 441.134C664.727 441.146 664.571 441.133 664.565 441.096C664.362 440.785 664.165 440.512 664.048 440.264C664.037 440.19 664.106 440.141 664.175 440.092C664.325 440.068 664.406 440.093 664.487 440.118C664.679 440.354 664.801 440.639 665.004 440.95C665.091 441.012 664.952 441.11 664.802 441.134C664.802 441.134 664.877 441.122 664.802 441.134ZM654.5 442.196C654.35 442.22 654.269 442.195 654.257 442.121C654.245 442.046 654.314 441.997 654.465 441.974C654.909 441.865 655.336 441.645 655.671 441.326C655.74 441.277 655.884 441.216 655.965 441.241C656.046 441.266 656.133 441.328 656.064 441.378C655.609 441.906 654.951 442.125 654.5 442.196C654.5 442.196 654.575 442.184 654.5 442.196ZM652.864 442.075C652.789 442.087 652.714 442.099 652.708 442.062C652.216 441.873 651.938 441.575 651.891 441.278L652.116 441.242L652.341 441.206C652.382 441.466 652.655 441.728 653.06 441.854C653.141 441.879 653.153 441.953 653.083 442.002C652.939 442.063 652.864 442.075 652.864 442.075ZM663.618 439.495C663.543 439.507 663.462 439.482 663.381 439.456C663.375 439.419 663.295 439.394 663.289 439.357C663.022 439.133 662.692 438.995 662.357 438.82C662.276 438.794 662.264 438.72 662.333 438.671C662.402 438.622 662.552 438.598 662.633 438.623C663.044 438.787 663.38 438.962 663.646 439.186C663.652 439.223 663.733 439.248 663.739 439.285C663.826 439.348 663.757 439.397 663.613 439.458C663.694 439.483 663.618 439.495 663.618 439.495ZM656.541 440.503C656.466 440.515 656.466 440.515 656.541 440.503C656.385 440.489 656.304 440.464 656.292 440.39C656.401 440.106 656.504 439.785 656.527 439.439C656.515 439.365 656.659 439.304 656.734 439.292C656.884 439.268 656.971 439.331 656.977 439.368C656.955 439.714 656.852 440.035 656.749 440.356C656.685 440.442 656.616 440.491 656.541 440.503ZM652.68 440.43C652.605 440.442 652.605 440.442 652.524 440.416C652.443 440.391 652.431 440.317 652.5 440.268C652.841 439.986 653.331 439.679 653.908 439.436C653.978 439.387 654.134 439.4 654.215 439.425C654.296 439.45 654.232 439.537 654.163 439.586C653.661 439.817 653.24 440.075 652.899 440.357C652.824 440.369 652.755 440.418 652.68 440.43ZM661.073 438.49C660.997 438.502 660.997 438.502 660.922 438.514C660.373 438.449 659.83 438.421 659.217 438.442C659.067 438.466 658.98 438.403 659.043 438.317C659.032 438.243 659.176 438.182 659.332 438.195C659.945 438.174 660.569 438.228 661.118 438.293C661.199 438.318 661.286 438.38 661.217 438.429C661.223 438.467 661.148 438.478 661.073 438.49ZM655.687 439.001C655.612 439.013 655.456 439 655.45 438.963C655.438 438.889 655.508 438.84 655.577 438.791C655.871 438.706 656.166 438.621 656.536 438.524C656.506 438.339 656.477 438.153 656.447 437.968C656.43 437.856 656.412 437.745 656.394 437.633C656.383 437.559 656.452 437.51 656.602 437.486C656.752 437.463 656.833 437.488 656.845 437.562C656.863 437.673 656.88 437.785 656.898 437.896C656.927 438.082 656.957 438.267 656.986 438.453C657.136 438.429 657.287 438.405 657.437 438.382C657.587 438.358 657.668 438.383 657.68 438.457C657.692 438.532 657.622 438.581 657.472 438.604C656.871 438.7 656.276 438.832 655.687 439.001ZM656.415 436.793C656.265 436.817 656.184 436.791 656.172 436.717C656.125 436.42 656.003 436.135 655.881 435.85C655.869 435.776 655.938 435.727 656.088 435.703C656.238 435.679 656.319 435.704 656.331 435.779C656.459 436.101 656.581 436.386 656.629 436.683C656.634 436.72 656.49 436.781 656.415 436.793ZM655.751 435.033C655.601 435.057 655.52 435.032 655.508 434.958C655.386 434.673 655.264 434.387 655.142 434.102C655.13 434.028 655.199 433.979 655.343 433.918C655.494 433.894 655.575 433.92 655.586 433.994C655.708 434.279 655.837 434.601 655.953 434.849C655.965 434.923 655.901 435.009 655.751 435.033ZM654.937 433.297C654.862 433.309 654.706 433.296 654.694 433.222C654.601 433.122 654.578 432.974 654.485 432.874C654.38 432.701 654.276 432.527 654.177 432.39C654.165 432.316 654.235 432.267 654.304 432.218C654.454 432.194 654.535 432.219 654.616 432.245C654.721 432.418 654.825 432.592 654.924 432.729C655.017 432.828 655.04 432.977 655.133 433.076C655.156 433.225 655.087 433.274 654.937 433.297ZM653.904 431.634C653.828 431.646 653.672 431.633 653.666 431.596C653.469 431.323 653.272 431.05 652.999 430.788C652.913 430.726 652.982 430.677 653.126 430.616C653.27 430.555 653.351 430.58 653.438 430.643C653.636 430.916 653.908 431.177 654.105 431.45C654.117 431.525 654.054 431.611 653.904 431.634ZM652.5 430.068C652.425 430.08 652.344 430.055 652.263 430.03C651.991 429.768 651.724 429.544 651.458 429.32C651.371 429.258 651.44 429.209 651.585 429.148C651.729 429.087 651.81 429.112 651.897 429.174C652.163 429.399 652.511 429.648 652.783 429.909C652.87 429.972 652.801 430.021 652.656 430.082C652.5 430.068 652.5 430.068 652.5 430.068ZM650.664 428.685C650.589 428.697 650.508 428.671 650.427 428.646C650.086 428.434 649.744 428.222 649.327 428.021C649.246 427.996 649.234 427.922 649.379 427.861C649.448 427.812 649.598 427.788 649.685 427.85C650.027 428.063 650.443 428.263 650.785 428.475C650.866 428.5 650.803 428.587 650.733 428.636C650.739 428.673 650.739 428.673 650.664 428.685ZM648.395 427.484C648.32 427.496 648.245 427.508 648.239 427.471C647.828 427.307 647.412 427.107 646.926 426.956C646.845 426.931 646.833 426.856 646.902 426.807C646.971 426.758 647.121 426.734 647.202 426.76C647.688 426.911 648.099 427.074 648.516 427.275C648.597 427.3 648.609 427.374 648.464 427.435C648.464 427.435 648.47 427.472 648.395 427.484ZM645.699 426.503C645.624 426.515 645.624 426.515 645.543 426.49C645.063 426.376 644.577 426.224 644.022 426.122C643.941 426.097 643.854 426.035 643.923 425.986C643.992 425.936 644.137 425.876 644.218 425.901C644.773 426.003 645.259 426.154 645.739 426.269C645.82 426.294 645.832 426.368 645.762 426.417C645.849 426.479 645.774 426.491 645.699 426.503ZM642.593 425.854C642.518 425.866 642.518 425.866 642.443 425.878C641.894 425.812 641.339 425.71 640.795 425.682C640.714 425.657 640.628 425.595 640.697 425.546C640.76 425.459 640.91 425.436 640.991 425.461C641.541 425.526 642.165 425.579 642.645 425.693C642.726 425.719 642.813 425.781 642.744 425.83C642.744 425.83 642.669 425.842 642.593 425.854ZM639.229 425.512L639.154 425.524C638.61 425.496 637.992 425.48 637.373 425.463C637.217 425.45 637.211 425.413 637.199 425.339C637.263 425.253 637.338 425.241 637.488 425.217C638.107 425.233 638.725 425.249 639.268 425.277C639.425 425.29 639.436 425.365 639.442 425.402C639.373 425.451 639.304 425.5 639.229 425.512ZM635.599 425.44C634.911 425.473 634.299 425.494 633.686 425.515C633.536 425.539 633.449 425.477 633.512 425.39C633.5 425.316 633.645 425.255 633.801 425.269C634.413 425.248 635.026 425.227 635.639 425.206C635.789 425.182 635.876 425.244 635.812 425.33C635.818 425.367 635.749 425.416 635.599 425.44ZM631.935 425.64C631.253 425.711 630.646 425.769 630.04 425.827C629.89 425.851 629.803 425.788 629.797 425.751C629.785 425.677 629.854 425.628 630.004 425.604C630.611 425.546 631.287 425.439 631.9 425.418C632.05 425.394 632.137 425.456 632.143 425.493C632.154 425.568 632.085 425.617 631.935 425.64ZM626.366 426.447C626.215 426.471 626.134 426.446 626.123 426.372C626.111 426.297 626.18 426.248 626.33 426.224C626.33 426.224 627 426.08 628.202 425.89C628.352 425.866 628.433 425.891 628.445 425.965C628.457 426.04 628.388 426.089 628.237 426.112C627.111 426.291 626.441 426.435 626.366 426.447Z" fill="#2E1F22"/>
<path d="M84.5999 248.7L83.6999 245.5L86.1999 247.9L88.7999 245.8L87.6999 248.9L90.9999 249.3L88.1999 250.3L89.6999 253.1L87.0999 251.9L85.8999 254L85.2999 251.7L82.3999 253L84.1999 250.8L81.8999 249.5L84.5999 248.7Z" fill="white"/>
<path d="M643.5 358L642.8 355.4L644.7 357.4L646.8 355.7L646 358.2L648.6 358.5L646.4 359.3L647.5 361.5L645.5 360.5L644.5 362.3L644 360.4L641.7 361.5L643.1 359.7L641.3 358.6L643.5 358Z" fill="white"/>
<path d="M398 414L397.3 411.4L399.3 413.3L401.4 411.7L400.5 414.1L403.2 414.5L400.9 415.3L402.1 417.5L400 416.5L399.1 418.2L398.6 416.4L396.3 417.5L397.7 415.6L395.9 414.6L398 414Z" fill="white"/>
<path d="M258.5 347.7L257.8 345L259.8 347L261.9 345.3L261 347.8L263.6 348.1L261.4 348.9L262.5 351.1L260.5 350.1L259.5 351.9L259 350L256.8 351.1L258.2 349.3L256.3 348.2L258.5 347.7Z" fill="white"/>
<path d="M233 322.5L232.3 319.9L234.3 321.9L236.4 320.2L235.5 322.7L238.2 323L235.9 323.8L237.1 326L235 325L234.1 326.8L233.6 324.9L231.3 326L232.7 324.2L230.8 323.1L233 322.5Z" fill="white"/>
<path d="M158.5 154.3L157.6 151L160.1 153.5L162.7 151.4L161.6 154.5L164.9 154.9L162.1 155.9L163.6 158.6L161 157.4L159.8 159.6L159.2 157.3L156.3 158.6L158.1 156.3L155.8 155L158.5 154.3Z" fill="white"/>
<path d="M208.9 169.1L208 165.8L210.5 168.3L213.1 166.2L212 169.3L215.3 169.7L212.5 170.7L214 173.5L211.4 172.2L210.2 174.4L209.6 172.1L206.7 173.4L208.5 171.2L206.2 169.9L208.9 169.1Z" fill="white"/>
<path d="M693.7 198.3L692.9 195L695.3 197.5L698 195.4L696.9 198.5L700.2 198.9L697.4 199.9L698.8 202.7L696.3 201.4L695 203.6L694.4 201.3L691.6 202.6L693.3 200.4L691 199.1L693.7 198.3Z" fill="#F8F2DE"/>
<path d="M15.9002 148.4L15.0002 145.1L17.5002 147.5L20.1002 145.5L19.1002 148.5L22.4002 148.9L19.5002 149.9L21.0002 152.7L18.4002 151.5L17.2002 153.6L16.6002 151.3L13.8002 152.7L15.5002 150.4L13.2002 149.1L15.9002 148.4Z" fill="#E74E1B"/>
<path d="M38.0999 408.7L37.1999 405.4L39.6999 407.8L42.2999 405.8L41.1999 408.8L44.4999 409.2L41.6999 410.2L43.1999 413L40.5999 411.8L39.3999 413.9L38.7999 411.6L35.8999 413L37.6999 410.7L35.3999 409.4L38.0999 408.7Z" fill="#F8F2DE"/>
<path d="M843.6 405.5L842.7 402.2L845.2 404.6L847.8 402.6L846.7 405.6L850 406L847.2 407L848.6 409.8L846.1 408.6L844.9 410.7L844.2 408.4L841.4 409.8L843.2 407.5L840.9 406.2L843.6 405.5Z" fill="#F8F2DE"/>
<path d="M162 368.2L161.2 364.9L163.6 367.3L166.3 365.3L165.2 368.3L168.5 368.7L165.7 369.7L167.1 372.5L164.6 371.3L163.3 373.4L162.7 371.1L159.9 372.5L161.6 370.2L159.3 368.9L162 368.2Z" fill="white"/>
<path d="M32.9002 289.9L32.0002 286.6L34.5002 289L37.1002 287L36.0002 290L39.3002 290.5L36.5002 291.4L37.9002 294.2L35.4002 293L34.2002 295.1L33.5002 292.8L30.7002 294.2L32.5002 291.9L30.2002 290.6L32.9002 289.9Z" fill="#EFE3BF"/>
<path d="M580.4 72.7L579.5 69.4L582 71.9L584.6 69.8L583.5 72.9L586.8 73.3L584 74.3L585.5 77.1L582.9 75.8L581.7 78L581.1 75.7L578.2 77L580 74.8L577.7 73.5L580.4 72.7Z" fill="white"/>
<path d="M822.5 330.2L821.6 326.9L824.1 329.4L826.7 327.3L825.6 330.3L828.9 330.8L826.1 331.8L827.5 334.5L825 333.3L823.8 335.5L823.1 333.1L820.3 334.5L822.1 332.2L819.8 330.9L822.5 330.2Z" fill="#F8F2DE"/>
<path d="M867.4 145.7C867.3 145.7 867.3 145.7 867.2 145.6C867.1 145.5 867.1 145.3 867.2 145.2C875.9 135.3 872.6 126.2 869.8 121.7C868.7 119.8 867.3 118.2 865.9 116.9C863.5 118.5 860.8 119.3 858.9 118.6C857.5 118.1 856.9 116.9 856.9 115.2C857 113.9 857.6 113.1 858.6 112.9C860.3 112.5 863.2 113.7 865.9 116.1C866.8 115.4 867.7 114.6 868.4 113.7C870.2 111.3 872.6 106.3 867.8 99.6C862.3 91.8 862.1 85 863 80.7C863.9 76 866.1 73.2 866.2 73C866.3 72.9 866.5 72.8 866.6 72.9C866.7 73 866.8 73.2 866.7 73.3C866.6 73.4 858.1 84.6 868.4 99.1C873.4 106.2 870.9 111.4 869 114C868.3 114.9 867.4 115.8 866.5 116.5C867.9 117.8 869.2 119.4 870.4 121.3C872.7 125.1 877 135 867.7 145.5C867.5 145.7 867.4 145.7 867.4 145.7ZM859.4 113.4C859.2 113.4 859 113.4 858.8 113.5C858 113.7 857.6 114.3 857.6 115.3C857.5 116.7 858.1 117.6 859.2 118.1C860.7 118.7 863.2 118.1 865.6 116.6C863.2 114.5 860.9 113.4 859.4 113.4Z" fill="#2D202A"/>
<path d="M862.9 96.4C877.039 96.4 888.5 83.5953 888.5 67.8C888.5 52.0047 877.039 39.2 862.9 39.2C848.762 39.2 837.3 52.0047 837.3 67.8C837.3 83.5953 848.762 96.4 862.9 96.4Z" fill="#E74C4E"/>
<path d="M865.1 94.2C865.1 94.2 864.2 100.4 865.1 101C866 101.6 869.7 100.5 870.3 98.5C870.9 96.5 864.7 92 865.1 94.2Z" fill="#E42D31"/>
<path d="M870.3 44.3C870.3 44.3 882 48.2 882.6 57.9C882.7 59.5 875.8 52.5 867.5 48.7C853.1 42 864.4 42.1 870.3 44.3Z" fill="white"/>
<path d="M32.7003 268.2C32.6003 268.2 32.5003 268.2 32.5003 268.1C32.4003 268 32.4003 267.8 32.5003 267.7C42.3003 258.9 40.1003 249.5 37.9003 244.7C37.0003 242.7 35.8003 240.9 34.6003 239.5C32.0003 240.8 29.2003 241.3 27.4003 240.3C26.1003 239.6 25.6003 238.4 25.9003 236.7C26.1003 235.5 26.8003 234.7 27.9003 234.6C29.7003 234.4 32.4003 235.9 34.8003 238.7C35.8003 238.1 36.7003 237.4 37.6003 236.6C39.7003 234.4 42.6003 229.8 38.7003 222.5C34.0003 214.1 34.7003 207.3 36.0003 203.1C37.5003 198.5 40.0003 196 40.1003 195.9C40.2003 195.8 40.4003 195.8 40.5003 195.9C40.6003 196 40.6003 196.2 40.5003 196.3C40.4003 196.4 30.6003 206.5 39.1003 222.1C43.2003 229.7 40.1003 234.7 37.9003 236.9C37.1003 237.8 36.1003 238.5 35.1003 239.1C36.3003 240.6 37.5003 242.3 38.4003 244.4C40.2003 248.4 43.4003 258.7 32.8003 268.2H32.7003ZM28.2003 235.2C28.1003 235.2 28.0003 235.2 27.9003 235.2C27.1003 235.3 26.6003 235.8 26.5003 236.8C26.3003 238.2 26.7003 239.2 27.7003 239.7C29.1003 240.4 31.7003 240.2 34.2003 238.9C32.0003 236.6 29.8003 235.2 28.2003 235.2Z" fill="#2D202A"/>
<path d="M62.9164 193.367C64.785 177.682 54.9185 163.611 40.879 161.938C26.8395 160.266 13.9434 171.625 12.0748 187.31C10.2062 202.994 20.0727 217.065 34.1122 218.738C48.1517 220.411 61.0478 209.051 62.9164 193.367Z" fill="#6EAF9F"/>
<path d="M36.5001 216.9C36.5001 216.9 34.9001 222.9 35.7001 223.6C36.5001 224.3 40.3001 223.6 41.1001 221.7C42.0001 219.8 36.3001 214.6 36.5001 216.9Z" fill="#6EAF9F"/>
<path d="M47.6005 167.9C47.6005 167.9 58.7005 173.1 58.2005 182.8C58.1005 184.4 52.1005 176.6 44.3005 171.9C30.7005 163.6 42.0005 165 47.6005 167.9Z" fill="white"/>
<path d="M219.9 425.4C192.1 424.8 188.6 443 187.4 465.5L196 465.9C195.4 455.7 196 431.5 215.1 430C237.4 428.2 236.6 455.3 235.5 465.7L241.2 465.2C242.4 455.3 244.2 426 219.9 425.4Z" fill="#F9B818"/>
<path d="M215 430C195.9 431.5 195.3 455.7 195.9 465.9L202 466.2C202 466.2 203.6 434.1 216.7 434.7C229.8 435.2 230.3 466.1 230.3 466.1L235.3 465.7C236.5 455.3 237.3 428.3 215 430Z" fill="#6EAF9F"/>
<path d="M215.9 413.6C168.6 413.5 175 464.9 175 464.9L179.8 465.1C177.3 431.9 194.7 415.9 225 419.1C251.7 421.9 251.2 454.5 250.5 464.4L254 464.1C254 464.2 263.2 413.7 215.9 413.6Z" fill="#E42D31"/>
<path d="M225 419.2C194.8 416 177.3 432 179.8 465.2L187.4 465.6C188.6 443.2 192.2 424.9 219.9 425.5C244.2 426 242.4 455.4 241.1 465.3L250.5 464.5C251.2 454.6 251.6 422 225 419.2Z" fill="#EF8615"/>
<path d="M191.8 81.1L184 83.9L183.9 94.6L179.1 90.6L176.1 96.4L162 71.5L191.8 81.1Z" fill="#EF8615"/>
<path d="M184 84.2C183.9 84.2 183.9 84.2 183.9 84.2L162.4 72.3C162.3 72.2 162.2 72 162.3 71.9C162.4 71.8 162.6 71.7 162.7 71.8L184.2 83.7C184.3 83.8 184.4 84 184.3 84.1C184.2 84.2 184.1 84.2 184 84.2Z" fill="#2E1F22"/>
<path d="M183.9 94.9C183.8 94.9 183.7 94.8 183.6 94.7L179.9 87.1C179.8 86.9 179.9 86.8 180 86.7C180.2 86.6 180.3 86.7 180.4 86.8L184.1 94.4C184.2 94.6 184.1 94.7 184 94.8C184 94.9 183.9 94.9 183.9 94.9Z" fill="#2E1F22"/>
<path d="M180.2 87.3C180.1 87.3 180.1 87.3 180 87.2L162.3 72.2C162.2 72.1 162.2 71.9 162.3 71.8C162.4 71.7 162.6 71.7 162.7 71.8L180.4 86.8C180.5 86.9 180.5 87.1 180.4 87.2C180.4 87.3 180.3 87.3 180.2 87.3Z" fill="#2E1F22"/>
<path d="M179.1 91C179 91 179 90.9 179.1 91C178.8 90.9 178.8 90.8 178.8 90.6L179.9 87C180 86.8 180.1 86.7 180.3 86.8C180.5 86.9 180.6 87 180.5 87.2L179.4 90.8C179.3 90.9 179.2 91 179.1 91Z" fill="#2E1F22"/>
<path d="M157 197.7C156.7 197.7 156 195.9 156 195.9C156 195.8 156 195.6 156.1 195.6C156.2 195.6 156.4 195.6 156.4 195.7C156.8 196.7 157.1 197.3 157.2 197.3V197.4C157.3 197.6 157.1 197.7 157 197.7ZM155.8 194.2C155.7 194.2 155.6 194.1 155.6 194C155.5 193.4 155.4 192.7 155.4 192.1C155.4 192 155.5 191.9 155.6 191.9C155.7 191.9 155.8 192 155.8 192.1C155.8 192.7 155.9 193.4 156 194C156 194.1 155.9 194.2 155.8 194.2ZM155.6 190.4C155.4 190.4 155.4 190.3 155.4 190.1C155.5 189.5 155.6 188.8 155.7 188.2C155.7 188.1 155.9 188 156 188C156.1 188 156.2 188.2 156.2 188.3C156.1 188.9 156 189.5 155.9 190.1C155.8 190.3 155.7 190.4 155.6 190.4ZM156.4 186.7C156.2 186.6 156.1 186.5 156.2 186.4C156.4 185.8 156.6 185.2 156.9 184.6C157 184.5 157.1 184.4 157.2 184.5C157.3 184.6 157.4 184.7 157.3 184.8C157.1 185.4 156.8 186 156.7 186.6C156.6 186.6 156.5 186.7 156.4 186.7ZM157.9 183.2H157.8C157.7 183.1 157.6 183 157.7 182.9C158 182.3 158.3 181.8 158.6 181.2C158.7 181.1 158.8 181 158.9 181.1C159 181.2 159 181.3 159 181.4C158.7 181.9 158.4 182.5 158.1 183C158 183.2 157.9 183.2 157.9 183.2ZM159.8 179.9H159.7C159.6 179.8 159.6 179.7 159.6 179.6C159.9 179.1 160.3 178.6 160.7 178C160.8 177.9 160.9 177.9 161 178C161.1 178.1 161.1 178.2 161 178.3C160.6 178.8 160.2 179.3 159.9 179.8C159.9 179.9 159.9 179.9 159.8 179.9ZM162.1 176.9C162 176.9 162 176.9 161.9 176.8C161.8 176.7 161.8 176.6 161.9 176.5C162.3 176 162.7 175.5 163.1 175.1C163.2 175 163.3 175 163.4 175.1C163.5 175.2 163.5 175.3 163.4 175.4C163 175.9 162.6 176.4 162.2 176.8C162.2 176.9 162.1 176.9 162.1 176.9ZM164.6 174.1C164.5 174.1 164.5 174.1 164.4 174C164.3 173.9 164.3 173.8 164.4 173.7C164.8 173.3 165.3 172.8 165.7 172.3C165.8 172.2 165.9 172.2 166 172.3C166.1 172.4 166.1 172.5 166 172.6C165.5 173.1 165.1 173.5 164.7 173.9C164.7 174 164.7 174.1 164.6 174.1ZM167.3 171.4C167.2 171.4 167.2 171.4 167.1 171.3C167 171.2 167 171.1 167.1 171C167.6 170.6 168 170.2 168.5 169.7C168.6 169.6 168.7 169.6 168.8 169.7C168.9 169.8 168.9 169.9 168.8 170C168.3 170.4 167.8 170.8 167.4 171.3C167.4 171.4 167.4 171.4 167.3 171.4ZM170.2 168.9C170.1 168.9 170.1 168.9 170 168.8C169.9 168.7 169.9 168.5 170 168.5C170.5 168.1 171 167.7 171.5 167.3C171.6 167.2 171.8 167.2 171.8 167.3C171.9 167.4 171.9 167.6 171.8 167.6C171.3 168 170.8 168.4 170.3 168.8C170.3 168.9 170.2 168.9 170.2 168.9ZM173.2 166.5C173.1 166.5 173.1 166.5 173 166.4C172.9 166.3 172.9 166.1 173 166.1C173.5 165.7 174 165.3 174.5 165C174.6 164.9 174.8 164.9 174.8 165.1C174.9 165.2 174.9 165.4 174.7 165.4C174.2 165.8 173.7 166.2 173.2 166.5C173.3 166.5 173.2 166.5 173.2 166.5ZM176.2 164.3C176.1 164.3 176.1 164.3 176 164.2C175.9 164.1 175.9 163.9 176.1 163.9C176.6 163.5 177.1 163.2 177.7 162.8C177.8 162.7 178 162.8 178 162.9C178.1 163 178 163.2 177.9 163.2C177.4 163.6 176.8 163.9 176.3 164.3C176.3 164.3 176.3 164.3 176.2 164.3ZM179.4 162.2C179.3 162.2 179.2 162.2 179.2 162.1C179.1 162 179.2 161.8 179.3 161.8C179.8 161.5 180.4 161.1 180.9 160.8C181 160.7 181.2 160.8 181.2 160.9C181.3 161 181.2 161.2 181.1 161.2C180.6 161.5 180 161.9 179.5 162.2C179.4 162.1 179.4 162.2 179.4 162.2ZM182.6 160.1C182.5 160.1 182.4 160.1 182.4 160C182.3 159.9 182.4 159.7 182.5 159.7C183 159.4 183.6 159 184.1 158.7C184.2 158.6 184.4 158.7 184.4 158.8C184.5 158.9 184.4 159.1 184.3 159.1C183.8 159.4 183.2 159.8 182.7 160.1C182.6 160.1 182.6 160.1 182.6 160.1ZM185.8 158.1C185.7 158.1 185.6 158.1 185.6 158C185.5 157.9 185.6 157.7 185.7 157.7C186.3 157.4 186.8 157 187.3 156.7C187.4 156.6 187.6 156.7 187.6 156.8C187.7 156.9 187.6 157.1 187.5 157.1C187 157.4 186.4 157.8 185.9 158.1C185.9 158.1 185.9 158.1 185.8 158.1ZM189 156.1C188.9 156.1 188.8 156.1 188.8 156C188.7 155.9 188.8 155.7 188.9 155.7C189.4 155.3 190 155 190.5 154.6C190.6 154.5 190.8 154.6 190.8 154.7C190.9 154.8 190.8 155 190.7 155C190.2 155.4 189.7 155.7 189.1 156.1C189.1 156.1 189.1 156.1 189 156.1ZM192.2 154C192.1 154 192.1 154 192 153.9C191.9 153.8 191.9 153.6 192.1 153.6C192.6 153.2 193.1 152.8 193.6 152.5C193.7 152.4 193.9 152.4 193.9 152.5C194 152.6 194 152.8 193.9 152.8C193.4 153.2 192.9 153.6 192.4 153.9C192.2 153.9 192.2 154 192.2 154ZM195.2 151.6C195.1 151.6 195.1 151.6 195 151.5C194.9 151.4 194.9 151.2 195 151.2C195.5 150.8 196 150.4 196.4 150C196.5 149.9 196.6 149.9 196.7 150C196.8 150.1 196.8 150.2 196.7 150.3C196.2 150.7 195.7 151.1 195.2 151.5C195.3 151.6 195.2 151.6 195.2 151.6ZM198 149.1C197.9 149.1 197.9 149.1 197.8 149C197.7 148.9 197.7 148.8 197.8 148.7C198.3 148.3 198.7 147.8 199.1 147.4C199.2 147.3 199.3 147.3 199.4 147.4C199.5 147.5 199.5 147.6 199.4 147.7C199 148.1 198.5 148.6 198 149.1C198.1 149.1 198.1 149.1 198 149.1ZM200.6 146.4C200.5 146.4 200.5 146.4 200.4 146.3C200.3 146.2 200.3 146.1 200.4 146C200.8 145.5 201.2 145 201.6 144.5C201.7 144.4 201.8 144.4 201.9 144.4C202 144.5 202 144.6 202 144.7C201.6 145.2 201.2 145.7 200.8 146.2C200.8 146.3 200.7 146.4 200.6 146.4ZM202.9 143.3H202.8C202.7 143.2 202.7 143.1 202.7 143C203 142.5 203.3 141.9 203.6 141.4C203.7 141.3 203.8 141.2 203.9 141.3C204 141.4 204.1 141.5 204 141.6C203.7 142.2 203.4 142.7 203.1 143.3C203 143.3 202.9 143.3 202.9 143.3ZM204.5 139.9C204.5 139.9 204.4 139.9 204.5 139.9C204.3 139.8 204.2 139.7 204.3 139.6C204.5 139 204.7 138.4 204.7 137.8C204.7 137.7 204.8 137.6 205 137.6C205.1 137.6 205.2 137.7 205.2 137.9C205.1 138.5 204.9 139.1 204.7 139.8C204.7 139.8 204.6 139.9 204.5 139.9ZM205.1 136.1C205 136.1 204.9 136 204.9 135.9C204.9 135.3 204.8 134.7 204.7 134.1C204.7 134 204.8 133.8 204.9 133.8C205 133.8 205.2 133.9 205.2 134C205.3 134.6 205.4 135.3 205.4 135.9C205.3 136 205.2 136.1 205.1 136.1ZM204.3 132.5C204.2 132.5 204.1 132.4 204.1 132.4C203.9 131.8 203.6 131.3 203.2 130.8C203.1 130.7 203.2 130.5 203.3 130.5C203.4 130.4 203.6 130.5 203.6 130.6C204 131.1 204.3 131.7 204.5 132.3C204.5 132.3 204.5 132.4 204.3 132.5ZM202.2 129.3C202.1 129.3 202.1 129.3 202 129.2C201.6 128.8 201.1 128.3 200.6 127.9C200.5 127.8 200.5 127.7 200.6 127.6C200.7 127.5 200.8 127.5 200.9 127.6C201.4 128 201.9 128.5 202.3 128.9C202.4 129 202.4 129.1 202.3 129.2C202.3 129.3 202.2 129.3 202.2 129.3ZM193.7 128.7C193.6 128.7 193.5 128.6 193.5 128.5C193.5 128.4 193.6 128.3 193.7 128.2C194.3 128.2 194.9 128 195.5 127.9C195.6 127.9 195.8 127.9 195.8 128.1C195.8 128.2 195.8 128.4 195.6 128.4C195 128.5 194.4 128.6 193.7 128.7ZM191.8 128.5C191 128.3 190.4 127.9 190 127.4C189.9 127.3 190 127.1 190.1 127.1C190.2 127 190.4 127.1 190.4 127.2C190.7 127.6 191.2 127.9 191.8 128.1C191.9 128.1 192 128.3 192 128.4C192 128.4 191.9 128.5 191.8 128.5ZM197.3 127.5C197.2 127.5 197.1 127.5 197.1 127.4C197 127.3 197.1 127.1 197.2 127.1C197.5 126.9 197.9 126.7 198.2 126.4C198 126.3 197.7 126.1 197.5 126C197.4 125.9 197.3 125.8 197.4 125.7C197.5 125.6 197.6 125.5 197.7 125.6C198 125.7 198.3 125.9 198.6 126.1C198.6 126.1 198.7 126.1 198.7 126C198.8 125.9 198.9 125.9 199 126C199.1 126.1 199.1 126.2 199 126.3C199.1 126.4 199.2 126.4 199.3 126.5C199.4 126.6 199.4 126.7 199.4 126.8C199.3 126.9 199.2 126.9 199.1 126.9C199 126.8 198.8 126.7 198.7 126.6C198.3 126.9 197.9 127.2 197.5 127.5C197.4 127.5 197.3 127.5 197.3 127.5ZM190.4 125.7H190.3C190.2 125.6 190.2 125.5 190.2 125.4C190.3 125.3 190.4 125.1 190.5 125C190.8 124.7 191.3 124.5 191.9 124.4C192 124.4 192.1 124.5 192.2 124.6C192.2 124.7 192.1 124.8 192 124.9C191.5 125 191.1 125.1 190.9 125.4C190.8 125.5 190.7 125.6 190.6 125.7C190.6 125.7 190.5 125.7 190.4 125.7ZM195.8 125.3C195.8 125.3 195.7 125.3 195.8 125.3C195.1 125.1 194.5 124.9 193.9 124.8C193.8 124.8 193.7 124.7 193.7 124.5C193.7 124.4 193.8 124.3 194 124.3C194.6 124.4 195.2 124.6 195.9 124.8C196 124.8 196.1 125 196.1 125.1C196 125.3 195.9 125.3 195.8 125.3ZM200.1 125C200 125 200 125 200 124.9C199.9 124.8 199.9 124.7 200 124.6C200.4 124.1 200.7 123.6 201.1 123.1C201.2 123 201.3 122.9 201.4 123C201.5 123.1 201.6 123.2 201.5 123.3C201.2 123.9 200.8 124.4 200.4 124.9C200.3 125 200.2 125 200.1 125ZM202.1 121.8C202 121.8 202 121.8 202.1 121.8C201.9 121.7 201.8 121.6 201.9 121.5C202 121.2 202.2 120.9 202.3 120.6C202.4 120.3 202.5 120.1 202.6 119.8C202.6 119.7 202.8 119.6 202.9 119.6C203 119.6 203.1 119.8 203.1 119.9C203 120.2 202.9 120.5 202.8 120.8C202.7 121.1 202.5 121.4 202.4 121.7C202.2 121.7 202.2 121.8 202.1 121.8ZM203 118.1C202.9 118.1 202.8 118 202.8 117.9C202.8 117.8 202.8 117.6 202.8 117.5C202.8 117 202.8 116.5 202.7 116C202.7 115.9 202.8 115.7 202.9 115.7C203 115.7 203.2 115.8 203.2 115.9C203.3 116.4 203.3 116.9 203.3 117.4C203.3 117.5 203.3 117.7 203.3 117.8C203.2 118 203.1 118.1 203 118.1ZM202.4 114.4C202.3 114.4 202.2 114.3 202.2 114.2C202 113.6 201.8 113.1 201.5 112.5C201.4 112.4 201.5 112.2 201.6 112.2C201.7 112.1 201.9 112.2 201.9 112.3C202.2 112.9 202.4 113.5 202.6 114.1C202.7 114.2 202.6 114.3 202.4 114.4C202.5 114.4 202.5 114.4 202.4 114.4ZM200.8 111C200.7 111 200.6 111 200.6 110.9C200.3 110.4 199.9 109.9 199.5 109.4C199.4 109.3 199.4 109.1 199.5 109.1C199.6 109 199.8 109 199.8 109.1C200.2 109.6 200.6 110.2 200.9 110.7C201 110.8 200.9 111 200.8 111C200.9 111 200.8 111 200.8 111ZM198.5 107.9C198.4 107.9 198.4 107.9 198.3 107.8C197.9 107.3 197.5 106.9 197 106.4C196.9 106.3 196.9 106.2 197 106.1C197.1 106 197.2 106 197.3 106.1C197.8 106.6 198.2 107 198.6 107.5C198.7 107.6 198.7 107.7 198.6 107.8C198.6 107.9 198.5 107.9 198.5 107.9ZM195.8 105.2C195.7 105.2 195.7 105.2 195.6 105.1C195.2 104.7 194.7 104.3 194.2 103.8C194.1 103.7 194.1 103.6 194.2 103.5C194.3 103.4 194.4 103.4 194.5 103.5C195 103.9 195.5 104.4 195.9 104.8C196 104.9 196 105 195.9 105.1C196 105.2 195.9 105.2 195.8 105.2ZM193 102.7C192.9 102.7 192.9 102.7 192.9 102.6C192.4 102.2 191.9 101.8 191.4 101.4C191.3 101.3 191.3 101.2 191.4 101.1C191.5 101 191.6 101 191.7 101.1C192.2 101.5 192.7 101.9 193.2 102.3C193.3 102.4 193.3 102.5 193.2 102.6C193.1 102.7 193 102.7 193 102.7ZM189.9 100.4H189.8C189.2 100 188.7 99.6 188.2 99.3C188.1 99.2 188.1 99.1 188.1 99C188.2 98.9 188.3 98.9 188.4 98.9C188.9 99.2 189.4 99.6 190 100C190.1 100.1 190.1 100.2 190.1 100.3C190.1 100.4 190 100.4 189.9 100.4ZM186.7 98.3H186.6C185.6 97.7 185 97.3 185 97.3C184.9 97.2 184.8 97.1 184.9 97C185 96.9 185.1 96.8 185.2 96.9C185.2 96.9 185.8 97.3 186.9 97.9C187 98 187 98.1 187 98.2C186.9 98.3 186.8 98.3 186.7 98.3Z" fill="#2E1F22"/>
<path d="M833.3 390.4L838.2 393L836.9 395.5L831.3 391.6L833.3 390.4Z" fill="#C9B8C3"/>
<path d="M876.3 470.4L881.2 473L879.9 475.5L874.3 471.6L876.3 470.4Z" fill="#C9B8C3"/>
<path d="M756.5 380.9L761.4 383.5L760 386.1L754.4 382.2L756.5 380.9Z" fill="#C9B8C3"/>
<path d="M812.5 425.2L817.4 427.8L816.1 430.3L810.5 426.4L812.5 425.2Z" fill="#C9B8C3"/>
<path d="M125 447.4L129.8 450L128.5 452.5L122.9 448.6L125 447.4Z" fill="#C9B8C3"/>
<path d="M129.6 48.3L124.2 46.9L123.4 49.7L130.2 50.6L129.6 48.3Z" fill="#C9B8C3"/>
<path d="M241.6 53.3L236.2 51.9L235.4 54.7L242.2 55.6L241.6 53.3Z" fill="#F9B818"/>
<path d="M172.6 19.3L167.2 17.9L166.4 20.7L173.2 21.6L172.6 19.3Z" fill="#F9B818"/>
<path d="M306.4 335.2L301.7 338.2L300.1 335.9L306.2 332.8L306.4 335.2Z" fill="#F9B818"/>
<path d="M23.5998 423.5L18.9998 426.6L17.2998 424.2L23.3998 421.1L23.5998 423.5Z" fill="#F9B818"/>
<path d="M67.5998 260.5L62.9998 263.6L61.2998 261.2L67.3998 258.1L67.5998 260.5Z" fill="#67BECB"/>
<path d="M14.5998 316.5L9.9998 319.6L8.2998 317.2L14.3998 314.1L14.5998 316.5Z" fill="#67BECB"/>
<path d="M768.1 335.3L763.5 338.4L761.9 336L768 332.9L768.1 335.3Z" fill="#F9B818"/>
<path d="M885.3 395.4L880.7 398.4L879.1 396.1L885.2 393L885.3 395.4Z" fill="#F9B818"/>
<path d="M791.3 453.4L786.7 456.4L785.1 454.1L791.2 451L791.3 453.4Z" fill="#F9B818"/>
<path d="M828.7 351.1L824.1 354.1L822.5 351.8L828.6 348.6L828.7 351.1Z" fill="#F9B818"/>
<path d="M41.8 84.2L37.1 87.2L35.5 84.9L41.6 81.8L41.8 84.2Z" fill="#84C5A7"/>
<path d="M8.8 121.2L4.1 124.2L2.5 121.9L8.6 118.8L8.8 121.2Z" fill="#84C5A7"/>
<path d="M870.2 410.4L865.3 407.8L866.6 405.3L872.2 409.1L870.2 410.4Z" fill="#49BACA"/>
<path d="M43.3001 308.5L38.7001 311.5L37.1001 309.2L43.2001 306L43.3001 308.5Z" fill="#84C5A7"/>
<path d="M17.4 103L15.5 97.8L18.1 96.8L19.8 103.4L17.4 103Z" fill="#E68888"/>
<path d="M59.4 148L57.5 142.8L60.1 141.8L61.8 148.4L59.4 148Z" fill="#E68888"/>
<path d="M116.3 474L120.1 471.5L119.4 476.4L122.8 479L118.4 479.1L116.9 483.3L115 479.2L110.3 478.6L114.1 475.8L112.3 472.1L116.3 474Z" fill="#E74E1B"/>
<path d="M71.8 460.2L67.1 463.2L65.5 460.9L71.6 457.8L71.8 460.2Z" fill="#84C5A7"/>
<path d="M42.3001 449.6L40.6001 445.4L38.4001 449.9L34.1001 450.1L37.8001 452.7L36.6001 456.9L40.5001 454.6L44.8001 456.7L43.1001 452.3L46.7001 450.3L42.3001 449.6Z" fill="#E68888"/>
<path d="M44.7999 478L46.5999 473.8L48.6999 478.3L52.9999 478.5L49.3999 481.1L50.4999 485.3L46.5999 483L42.2999 485.1L43.9999 480.7L40.3999 478.7L44.7999 478Z" fill="url(#paint2_radial_548_2)"/>
<path d="M15.4 468L13.5 462.8L16.1 461.8L17.8 468.4L15.4 468Z" fill="#E68888"/>
<path d="M82.4 484L80.5 478.8L83.1 477.8L84.8 484.4L82.4 484Z" fill="#E68888"/>
<path d="M873.8 369.3L871.9 364.1L874.6 363.1L876.2 369.7L873.8 369.3Z" fill="#E68888"/>
<path d="M802.9 335.1L801 329.9L803.6 328.9L805.3 335.6L802.9 335.1Z" fill="#E68888"/>
<path d="M853.7 182.1L849.1 185.1L847.5 182.8L853.6 179.6L853.7 182.1Z" fill="#C9B8C3"/>
<path d="M830.7 92.1L826.1 95.1L824.5 92.8L830.6 89.6L830.7 92.1Z" fill="#49BACA"/>
<path d="M836.9 167.1L835 161.9L837.6 160.9L839.3 167.6L836.9 167.1Z" fill="#E68888"/>
<path d="M879.9 216.1L878 210.9L880.6 209.9L882.3 216.6L879.9 216.1Z" fill="#E68888"/>
<path d="M53.7999 280.7L51.8999 275.5L54.5999 274.5L56.1999 281.1L53.7999 280.7Z" fill="#E68888"/>
<path d="M20.6001 73.5L24.4001 71L23.7001 75.9L27.1001 78.5L22.7001 78.6L21.2001 82.8L19.3001 78.7L14.6001 78.1L18.4001 75.3L16.6001 71.6L20.6001 73.5Z" fill="#F9B818"/>
<path d="M89.6001 47.5L93.4001 45L92.7001 49.9L96.1001 52.5L91.7001 52.6L90.2001 56.8L88.3001 52.7L83.6001 52.1L87.4001 49.3L85.6001 45.6L89.6001 47.5Z" fill="#F9B818"/>
<path d="M46.6001 103.1L51.5001 105.7L50.2001 108.2L44.6001 104.3L46.6001 103.1Z" fill="#C9B8C3"/>
<path d="M212.7 41.3L214.4 37.2L216.6 41.6L220.9 41.9L217.2 44.4L218.4 48.6L214.5 46.3L210.2 48.5L211.9 44.1L208.3 42L212.7 41.3Z" fill="#49BACA"/>
<path d="M785 50.2L786.8 46.1L789 50.5L793.2 50.8L789.6 53.3L790.7 57.6L786.8 55.2L782.5 57.4L784.2 53L780.6 50.9L785 50.2Z" fill="#F9B818"/>
<path d="M740.7 65.3L742.4 61.2L744.6 65.6L748.9 65.9L745.2 68.4L746.4 72.6L742.5 70.3L738.2 72.5L739.9 68.1L736.3 66L740.7 65.3Z" fill="#49BACA"/>
<path d="M212.8 77.3L213.3 72.8L216.6 76.4L220.7 75.5L218 79L220.3 82.7L215.9 81.6L212.4 84.9L212.8 80.2L208.7 79.2L212.8 77.3Z" fill="#E74C4E"/>
<path d="M812.8 453.3L813.2 448.8L816.6 452.4L820.7 451.5L818 455L820.3 458.7L815.9 457.6L812.4 460.9L812.8 456.2L808.7 455.2L812.8 453.3Z" fill="#E74C4E"/>
<path d="M202.6 64.1L198 67.1L196.4 64.8L202.5 61.7L202.6 64.1Z" fill="#C9B8C3"/>
<path d="M56.5999 20.1L51.9999 23.1L50.3999 20.8L56.4999 17.7L56.5999 20.1Z" fill="#C9B8C3"/>
<path d="M185.8 49.2L183.9 44L186.5 42.9L188.1 49.6L185.8 49.2Z" fill="#E68888"/>
<path d="M661.3 31.6L659.6 27.4L657.4 31.9L653.1 32.1L656.8 34.7L655.6 38.9L659.5 36.6L663.8 38.7L662.1 34.3L665.7 32.3L661.3 31.6Z" fill="#E68888"/>
<path d="M640.6 21.3L635.2 19.9L634.4 22.7L641.2 23.6L640.6 21.3Z" fill="#C9B8C3"/>
<path d="M730.6 25.3L725.2 23.9L724.4 26.7L731.2 27.6L730.6 25.3Z" fill="#F9B818"/>
<path d="M876.6 22.3L871.2 20.9L870.4 23.7L877.2 24.6L876.6 22.3Z" fill="#F9B818"/>
<path d="M705.6 68.3L700.2 66.9L699.4 69.7L706.2 70.6L705.6 68.3Z" fill="#F9B818"/>
<path d="M700.7 19.3L702.4 15.2L704.6 19.6L708.9 19.9L705.2 22.4L706.4 26.6L702.5 24.3L698.2 26.5L699.9 22.1L696.3 20L700.7 19.3Z" fill="#49BACA"/>
<path d="M844.7 22.3L846.4 18.2L848.6 22.6L852.9 22.9L849.2 25.4L850.4 29.6L846.5 27.3L842.2 29.5L843.9 25.1L840.3 23L844.7 22.3Z" fill="#49BACA"/>
<path d="M709.8 43.3L710.2 38.8L713.6 42.4L717.7 41.5L715 45L717.3 48.7L712.9 47.6L709.4 50.9L709.8 46.2L705.7 45.2L709.8 43.3Z" fill="#E74C4E"/>
<path d="M837.8 108.3L838.2 103.8L841.6 107.4L845.7 106.5L843 110L845.3 113.7L840.9 112.6L837.4 115.9L837.8 111.2L833.7 110.2L837.8 108.3Z" fill="#C9B8C3"/>
<path d="M691.6 36.1L687 39.1L685.4 36.8L691.5 33.7L691.6 36.1Z" fill="#C9B8C3"/>
<path d="M674.8 21.2L672.9 16L675.5 14.9L677.1 21.6L674.8 21.2Z" fill="#E68888"/>
<path d="M138.3 21.6L136.6 17.4L134.4 21.9L130.1 22.1L133.8 24.7L132.6 28.9L136.5 26.6L140.8 28.7L139.1 24.3L142.7 22.3L138.3 21.6Z" fill="#E74C4E"/>
<path d="M205.6 21.3L200.2 19.9L199.4 22.7L206.2 23.6L205.6 21.3Z" fill="#C9B8C3"/>
<path d="M93.6998 20.3L95.3998 16.2L97.5998 20.6L101.9 20.9L98.1998 23.4L99.3998 27.6L95.4998 25.3L91.1998 27.5L92.8998 23.1L89.2998 21L93.6998 20.3Z" fill="#49BACA"/>
<path d="M256.6 32.1L252 35.1L250.4 32.8L256.5 29.7L256.6 32.1Z" fill="#C9B8C3"/>
<path d="M232.8 21.2L230.9 16L233.5 14.9L235.1 21.6L232.8 21.2Z" fill="#E68888"/>
<path d="M755.8 50.2L753.9 45L756.5 43.9L758.1 50.6L755.8 50.2Z" fill="#E68888"/>
<path d="M841.7 292.3L843.4 288.2L845.6 292.6L849.9 292.9L846.2 295.4L847.4 299.6L843.5 297.3L839.2 299.5L840.9 295.1L837.3 293L841.7 292.3Z" fill="#49BACA"/>
<path d="M761.3 267.6L759.6 263.4L757.4 267.9L753.1 268.1L756.8 270.7L755.6 274.9L759.5 272.6L763.8 274.7L762.1 270.3L765.7 268.3L761.3 267.6Z" fill="#E68888"/>
<path d="M867.3 249.6L865.6 245.4L863.4 249.9L859.1 250.1L862.8 252.7L861.6 256.9L865.5 254.6L869.8 256.7L868.1 252.3L871.7 250.3L867.3 249.6Z" fill="#E68888"/>
<path d="M830.6 261.3L825.2 259.9L824.4 262.7L831.2 263.6L830.6 261.3Z" fill="#F9B818"/>
<path d="M882.6 236.3L877.2 234.9L876.4 237.7L883.2 238.6L882.6 236.3Z" fill="#F9B818"/>
<path d="M805.6 304.3L800.2 302.9L799.4 305.7L806.2 306.6L805.6 304.3Z" fill="#F9B818"/>
<path d="M882.6 290.3L877.2 288.9L876.4 291.7L883.2 292.6L882.6 290.3Z" fill="#F9B818"/>
<path d="M800.7 255.3L802.4 251.2L804.6 255.6L808.9 255.9L805.2 258.4L806.4 262.6L802.5 260.3L798.2 262.5L799.9 258.1L796.3 256L800.7 255.3Z" fill="#49BACA"/>
<path d="M809.8 279.3L810.2 274.8L813.6 278.4L817.7 277.5L815 281L817.3 284.7L812.9 283.6L809.4 286.9L809.8 282.2L805.7 281.2L809.8 279.3Z" fill="#E74C4E"/>
<path d="M791.6 272.1L787 275.1L785.4 272.8L791.5 269.7L791.6 272.1Z" fill="#C9B8C3"/>
<path d="M882.6 269.1L878 272.1L876.4 269.8L882.5 266.7L882.6 269.1Z" fill="#C9B8C3"/>
<path d="M774.8 257.2L772.9 252L775.5 250.9L777.1 257.6L774.8 257.2Z" fill="#E68888"/>
<path d="M857.8 275.2L855.9 270L858.5 268.9L860.1 275.6L857.8 275.2Z" fill="#E68888"/>
</g>
<defs>
<radialGradient id="paint0_radial_548_2" cx="0" cy="0" r="1" gradientUnits="userSpaceOnUse" gradientTransform="translate(881.737 430.433) scale(6.0182)">
<stop stop-color="#6EAF9F"/>
<stop offset="0.3479" stop-color="#67AD9B"/>
<stop offset="0.8662" stop-color="#52A790"/>
<stop offset="1" stop-color="#4CA58C"/>
</radialGradient>
<radialGradient id="paint1_radial_548_2" cx="0" cy="0" r="1" gradientUnits="userSpaceOnUse" gradientTransform="translate(781.737 475.433) scale(6.0182)">
<stop stop-color="#6EAF9F"/>
<stop offset="0.3479" stop-color="#67AD9B"/>
<stop offset="0.8662" stop-color="#52A790"/>
<stop offset="1" stop-color="#4CA58C"/>
</radialGradient>
<radialGradient id="paint2_radial_548_2" cx="0" cy="0" r="1" gradientUnits="userSpaceOnUse" gradientTransform="translate(46.6861 479.57) scale(6.0182)">
<stop stop-color="#5E359E"/>
<stop offset="0.183" stop-color="#663AA7"/>
<stop offset="0.6718" stop-color="#7844BC"/>
<stop offset="1" stop-color="#7F48C3"/>
</radialGradient>
<clipPath id="clip0_548_2">
<rect width="896" height="500" fill="white"/>
</clipPath>
</defs>
</svg>
