<svg width="60" height="60" viewBox="0 0 60 60" fill="none" xmlns="http://www.w3.org/2000/svg">
<path d="M52.5 10.2413C53.85 13.4887 54.6 17.0857 54.6 20.8326C54.6 22.4313 54.45 23.98 54.2 25.5287C54.1 26.0283 54 26.5279 53.9 27.0774C56 29.2756 57.9 31.9235 59.55 35.1209C59.85 33.4722 60 31.7736 60 30.075C60 22.4313 57.15 15.537 52.5 10.2413Z" fill="#34A5CF"/>
<path d="M16.9999 54.5545C16.8999 54.1049 16.8499 53.6553 16.7999 53.1557C16.7499 52.9059 16.7499 52.6561 16.6999 52.4063C16.6499 52.0066 16.5999 51.557 16.5499 51.1573C16.4999 50.9075 16.4999 50.6078 16.4999 50.358C16.4499 49.9583 16.4499 49.5587 16.3999 49.159C16.3999 48.9092 16.3499 48.6095 16.3499 48.3597C16.3499 47.96 16.2999 47.6103 16.2999 47.2106C16.2999 46.9608 16.2999 46.711 16.2999 46.4612C15.9499 46.3113 15.5999 46.1614 15.2499 46.0116C8.84991 43.064 3.6999 37.7684 1.0499 31.2238C0.749902 31.7233 0.399902 32.2729 0.149902 32.8224C1.1999 43.6635 8.04991 52.8559 17.5499 57.1524C17.3999 56.453 17.2499 55.7536 17.1499 55.1041C17.0999 55.0042 17.0499 54.8043 16.9999 54.5545Z" fill="#F9D023"/>
<path d="M39.4991 45.512C35.6991 47.4604 31.3491 48.5595 26.7991 48.5595C23.0991 48.5595 19.5491 47.8101 16.2991 46.5112C16.2991 46.761 16.2991 47.0108 16.2991 47.2606C16.2991 47.6602 16.3491 48.01 16.3491 48.4096C16.3491 48.6594 16.3491 48.9092 16.3991 49.209C16.4491 49.6086 16.4491 50.0083 16.4991 50.408C16.4991 50.6578 16.5491 50.9575 16.5491 51.2073C16.5991 51.607 16.6491 52.0067 16.6991 52.4563C16.7491 52.7061 16.7491 52.9559 16.7991 53.2057C16.8491 53.6553 16.9491 54.1049 16.9991 54.6045C17.0491 54.8044 17.0491 55.0541 17.0991 55.254C17.1991 55.9534 17.3491 56.6028 17.4991 57.3023C21.2991 59.0508 25.4991 60.0001 29.9491 60.0001C34.8991 60.0001 39.5491 58.8011 43.6491 56.7028C43.3991 52.4063 42.5491 48.3097 41.2991 44.5128C40.7491 44.8625 40.0991 45.2122 39.4991 45.512Z" fill="#78A941"/>
<path d="M16.5493 51.2085C16.5993 51.6082 16.6493 52.0078 16.6993 52.4575C16.6493 52.0078 16.5993 51.6082 16.5493 51.2085Z" fill="#9FB600"/>
<path d="M16.7996 53.2065C16.8496 53.6562 16.9496 54.1058 16.9996 54.6054C16.9496 54.1058 16.8496 53.6562 16.7996 53.2065Z" fill="#9FB600"/>
<path d="M16.2991 47.26C16.2991 47.6597 16.3491 48.0094 16.3491 48.4091C16.3491 48.0594 16.2991 47.6597 16.2991 47.26Z" fill="#9FB600"/>
<path d="M17.5504 57.3022C17.4004 56.6028 17.2504 55.9034 17.1504 55.2539C17.2504 55.9034 17.4004 56.6028 17.5504 57.3022Z" fill="#9FB600"/>
<path d="M16.4004 49.2096C16.4504 49.6093 16.4504 50.0089 16.5004 50.4086C16.4504 50.0089 16.4004 49.6093 16.4004 49.2096Z" fill="#9FB600"/>
<path d="M41.2993 44.5127C42.5493 48.3095 43.3993 52.4062 43.6493 56.7026C51.8993 52.4561 57.8993 44.5627 59.4993 35.1204C57.8493 31.9231 55.9493 29.2752 53.8493 27.077C52.1993 34.421 47.5993 40.6658 41.2993 44.5127Z" fill="#FF3612"/>
<path d="M0.0499993 28.377C-7.63685e-07 28.9265 0 29.476 0 30.0256C0 31.0247 0.0499996 31.974 0.15 32.9232C0.45 32.3736 0.75 31.8241 1.05 31.3245C0.65 30.3753 0.299999 29.3761 0.0499993 28.377Z" fill="#3DB7B7"/>
<path d="M24.3507 0.548218C17.6507 1.79719 11.8007 5.29433 7.45068 10.1903C15.5507 10.2902 23.7507 16.635 23.7507 16.635C23.7507 16.635 21.9007 6.19357 24.3507 0.548218Z" fill="#FF6532"/>
<path d="M46.15 4.74609C41.5 1.74856 35.95 0 30 0C28.1 0 26.2 0.199823 24.4 0.549535C21.95 6.14492 23.8 16.6363 23.8 16.6363C23.8 16.6363 31 5.79522 46.15 4.74609Z" fill="#8BBF47"/>
<path d="M46.1491 4.74609C31.0491 5.74527 23.7991 16.6363 23.7991 16.6363C23.7991 16.6363 41.6991 14.0884 53.8991 27.0277C53.9991 26.5281 54.0991 26.0286 54.1991 25.479C54.4491 23.9303 54.5991 22.3815 54.5991 20.7829C54.5991 17.036 53.8491 13.4889 52.4991 10.1916C50.6491 8.14331 48.4991 6.29482 46.1491 4.74609Z" fill="#3EB6DB"/>
<path opacity="0.9" d="M16.2503 45.3625C16.2503 45.1127 16.2503 44.8629 16.2503 44.6131C16.2503 44.2135 16.2503 43.8637 16.3003 43.514C16.3003 43.2642 16.3003 43.0144 16.3503 42.8146C16.3503 42.4649 16.4003 42.0652 16.4003 41.7155C16.4003 41.4657 16.4503 41.2659 16.4503 41.0161C16.5003 40.6664 16.5003 40.2667 16.5503 39.917C16.5503 39.7172 16.6003 39.4673 16.6003 39.2675C16.6503 38.9178 16.7003 38.5181 16.7503 38.1684C16.8003 37.9686 16.8003 37.7687 16.8503 37.5689C16.9003 37.2192 16.9503 36.8195 17.0003 36.4698C17.0503 36.27 17.0503 36.1201 17.1003 35.9203C17.1502 35.5206 17.2503 35.1709 17.3003 34.8212C17.3503 34.6713 17.3503 34.4714 17.4003 34.3216C17.4503 33.9219 17.5503 33.5722 17.6503 33.1726C17.7003 33.0227 17.7003 32.8728 17.7503 32.7729C17.8503 32.3732 17.9503 32.0235 18.0003 31.6238C18.0503 31.5239 18.0503 31.374 18.1003 31.2741C18.2003 30.8744 18.3003 30.4747 18.4003 30.0751C18.4003 29.9751 18.4503 29.9252 18.4503 29.8253C18.5503 29.4256 18.7003 28.976 18.8003 28.5763C18.8003 28.5263 18.8503 28.4764 18.8503 28.4265C19.9503 24.7795 21.2003 21.8319 22.1503 19.7836C22.1503 19.7836 22.1503 19.7836 22.1503 19.7336C22.2503 19.4838 22.3503 19.284 22.5003 19.0841C22.5003 19.0342 22.5503 19.0342 22.5503 18.9842C22.6503 18.7844 22.7503 18.6345 22.8003 18.4347C22.8003 18.3847 22.8503 18.3847 22.8503 18.3347C22.9503 18.1849 23.0003 18.035 23.0503 17.8852C23.0503 17.8352 23.1003 17.7852 23.1003 17.7852C23.1503 17.6853 23.2003 17.5854 23.2503 17.4855C23.3003 17.4355 23.3003 17.3855 23.3503 17.3356C23.4003 17.2356 23.4503 17.1857 23.4503 17.1358C23.5003 17.0858 23.5003 17.0358 23.5503 16.9859C23.5503 16.9359 23.6003 16.9359 23.6003 16.886C23.7003 16.6861 23.7503 16.5862 23.7503 16.5862C23.7503 16.5862 9.20025 17.8851 1.00024 31.2741C3.70025 37.8187 8.80025 43.1143 15.2003 46.0619C15.5503 46.2118 15.9003 46.3617 16.2503 46.5115V46.4616C16.3003 46.1119 16.2503 45.7122 16.2503 45.3625Z" fill="#F9D023"/>
<path d="M23.7998 17.5363L23.6998 16.7369C23.6998 16.7869 23.6498 16.8369 23.5998 16.8868C23.5998 16.9368 23.5498 16.9368 23.5498 16.9867C23.5498 17.0367 23.4998 17.0867 23.4498 17.1366C23.3998 17.1866 23.3498 17.2865 23.3498 17.3364C23.3498 17.3864 23.2998 17.4364 23.2498 17.4863C23.1998 17.5862 23.1498 17.6861 23.0998 17.7861C23.0998 17.836 23.0498 17.886 23.0498 17.886C22.9998 18.0359 22.8998 18.1857 22.8498 18.3356C22.8498 18.3856 22.7998 18.3856 22.7998 18.4356C22.6998 18.5854 22.5998 18.7853 22.5498 18.9851C22.5498 19.035 22.4998 19.035 22.4998 19.085C22.3998 19.2848 22.2998 19.5346 22.1498 19.7345C22.1498 19.7345 22.1498 19.7345 22.1498 19.7844C21.1998 21.8327 19.9498 24.7803 18.8498 28.4273C18.8498 28.4773 18.7998 28.5272 18.7998 28.5772C18.6998 28.9768 18.5498 29.3765 18.4498 29.8261C18.4498 29.926 18.3998 29.976 18.3998 30.0759C18.2998 30.4756 18.1998 30.8753 18.0998 31.2749C18.0498 31.3749 18.0498 31.5248 17.9998 31.6247C17.8998 32.0244 17.7998 32.374 17.7498 32.7737C17.6998 32.9236 17.6998 33.0735 17.6498 33.1734C17.5498 33.5231 17.4998 33.9228 17.3998 34.3224C17.3498 34.4723 17.3498 34.6222 17.2998 34.822C17.2498 35.1717 17.1498 35.5714 17.0998 35.9211C17.0498 36.121 17.0498 36.2708 16.9998 36.4707C16.9498 36.8204 16.8998 37.22 16.8498 37.5697C16.7998 37.7696 16.7998 37.9695 16.7498 38.1693C16.6998 38.519 16.6498 38.9186 16.5998 39.2684C16.5998 39.4682 16.5498 39.718 16.5498 39.9178C16.4998 40.2676 16.4998 40.6672 16.4498 41.0169C16.4498 41.2667 16.3998 41.4666 16.3998 41.7164C16.3998 42.0661 16.3498 42.4657 16.3498 42.8154C16.3498 43.0652 16.3498 43.315 16.2998 43.5149C16.2998 43.8646 16.2998 44.2643 16.2498 44.614C16.2498 44.8638 16.2498 45.1136 16.2498 45.3634C16.2498 45.7131 16.2498 46.1127 16.2498 46.5124V46.5623C19.4998 47.9112 23.0498 48.6107 26.7498 48.6107C31.3498 48.6107 35.6498 47.5116 39.4498 45.5632C40.0498 45.2634 40.6998 44.9137 41.2998 44.514C35.9998 28.3773 23.7998 17.5363 23.7998 17.5363Z" fill="#8BBF47"/>
<path d="M23.8004 16.6365C23.8004 16.6365 23.7504 16.6864 23.7004 16.7864L23.8004 17.5857C23.8004 17.5857 36.0004 28.4268 41.3504 44.5135C47.6005 40.6667 52.2505 34.4218 53.9005 27.0279C41.6505 14.0886 23.8004 16.6365 23.8004 16.6365Z" fill="#FF6532"/>
<path d="M23.7993 16.6367C23.7993 16.6367 15.5993 10.2919 7.49932 10.192C3.19932 15.088 0.449317 21.4328 0.0493164 28.377C0.349317 29.3762 0.699317 30.3753 1.04932 31.3246C9.19932 17.9356 23.7993 16.6367 23.7993 16.6367Z" fill="#3EB6DB"/>
<path d="M32.1002 10.0914C31.9502 9.84156 31.7502 9.64176 31.6002 9.44193C28.3502 5.44522 22.7002 5.39524 18.0502 8.54264C13.8502 11.3903 11.7502 15.8866 13.1502 20.0332C13.4002 20.7326 13.7502 21.482 14.2002 22.1315C17.3002 26.7777 23.8502 27.8268 28.8002 24.4795C33.7502 21.1822 35.2502 14.7375 32.1002 10.0914Z" fill="#FFF3DE"/>
<path d="M22.8999 14.639C22.8499 14.5391 22.7999 14.4892 22.7499 14.3892C21.6499 13.0403 19.7499 12.9903 18.1499 14.0894C16.6999 15.0387 15.9999 16.5874 16.4999 17.9862C16.5999 18.236 16.6999 18.4858 16.8499 18.6857C17.8999 20.2844 20.1499 20.6341 21.7999 19.485C23.4499 18.4359 23.9499 16.2377 22.8999 14.639Z" fill="#F4D4AB"/>
</svg>
