<svg xmlns="http://www.w3.org/2000/svg" viewBox="0 0 150 83.71"><defs><style>.cls-1{fill:#ffc8af;}.cls-2{fill:#ffac39;}.cls-3{fill:#ff3612;}.cls-4{fill:#65e2cb;}.cls-5{fill:#fff;}.cls-6{opacity:0.3;}.cls-7{fill:#f6eac6;}.cls-8{fill:#f67300;}.cls-9{fill:#4b78c6;}.cls-10{fill:#ff9090;}.cls-11{fill:#78a941;}.cls-12{fill:#7f48c3;}.cls-13{fill:#ef7807;}.cls-14{fill:#34a5cf;}.cls-15{fill:#d93e4f;}.cls-16{fill:#3f2732;}.cls-17{fill:#b72a3e;}.cls-18{fill:#2b93b2;}.cls-19{fill:#bf3037;}.cls-20{fill:#44b0d7;}.cls-21{fill:#ddeefd;}.cls-22{fill:#a03b07;}.cls-23{fill:#70220a;}.cls-24{fill:#d15d42;}.cls-25{opacity:0.51;}.cls-26{fill:#512c3f;}.cls-27{fill:#b1dbfc;}.cls-28{fill:#5b394a;}.cls-29{fill:#84446a;}.cls-30{fill:#ea6e86;}.cls-31{fill:#ffb43b;}</style></defs><g id="Layer_2" data-name="Layer 2"><g id="Layer_1-2" data-name="Layer 1"><polygon class="cls-1" points="135.96 37.95 135.74 39.35 135.51 40.76 134.41 39.86 133.3 38.96 134.63 38.46 135.96 37.95"/><circle class="cls-2" cx="56.21" cy="16.29" r="0.61"/><path class="cls-2" d="M134.47,60.5a.37.37,0,0,1-.37.37.37.37,0,1,1,0-.73A.37.37,0,0,1,134.47,60.5Z"/><path class="cls-3" d="M131,56.44a.61.61,0,1,1-.61-.61A.61.61,0,0,1,131,56.44Z"/><path class="cls-2" d="M130.26,45.66a.37.37,0,1,1-.37-.37A.38.38,0,0,1,130.26,45.66Z"/><path class="cls-4" d="M134.45,48.18a.62.62,0,1,1-.62-.61A.61.61,0,0,1,134.45,48.18Z"/><path class="cls-4" d="M132.11,25.86a.62.62,0,0,1-1.23,0,.62.62,0,1,1,1.23,0Z"/><path class="cls-4" d="M118.67,39.5a.37.37,0,0,1-.37.36.37.37,0,1,1,0-.73A.37.37,0,0,1,118.67,39.5Z"/><circle class="cls-4" cx="117.91" cy="57.92" r="0.37"/><path class="cls-4" d="M30.33,60.66a.62.62,0,0,1-1.23,0,.62.62,0,1,1,1.23,0Z"/><rect class="cls-5" width="150" height="83.71"/><g class="cls-6"><rect class="cls-7" width="150" height="83.71"/></g><polygon class="cls-8" points="28.53 2.65 29.09 3.79 30.34 3.97 29.43 4.85 29.65 6.11 28.53 5.51 27.4 6.11 27.62 4.85 26.71 3.97 27.96 3.79 28.53 2.65"/><polygon class="cls-8" points="33.05 73.7 33.91 75.2 34.78 76.69 33.05 76.69 31.32 76.69 32.19 75.2 33.05 73.7"/><polygon class="cls-3" points="6.46 33.38 7.33 34.87 8.19 36.37 6.46 36.37 4.73 36.37 5.6 34.87 6.46 33.38"/><polygon class="cls-9" points="145.83 57.08 146.69 58.58 147.56 60.08 145.83 60.08 144.1 60.08 144.97 58.58 145.83 57.08"/><path class="cls-3" d="M45.69,77.76l-2.26,1.4a.4.4,0,0,0-.18.33.38.38,0,0,0,.2.32l2.34,1.26a.39.39,0,0,0,.38,0,.33.33,0,0,0,.17-.23.34.34,0,0,0,0-.1l-.09-2.65a.36.36,0,0,0-.2-.32A.35.35,0,0,0,45.69,77.76Z"/><path class="cls-3" d="M140.52,75.1l-2.26,1.4a.37.37,0,0,0-.17.33.36.36,0,0,0,.2.32l2.34,1.26a.37.37,0,0,0,.54-.25.31.31,0,0,0,0-.1l-.08-2.65a.38.38,0,0,0-.2-.32A.37.37,0,0,0,140.52,75.1Z"/><path class="cls-10" d="M110.2,80.35l2.55.75a.36.36,0,0,0,.36-.09.37.37,0,0,0,.11-.36l-.63-2.58a.39.39,0,0,0-.26-.28.42.42,0,0,0-.29,0l-.08,0L110,79.72a.35.35,0,0,0-.1.36A.36.36,0,0,0,110.2,80.35Z"/><path class="cls-11" d="M14.09,46l2.55.74a.38.38,0,0,0,.37-.08.37.37,0,0,0,.1-.37l-.62-2.58a.41.41,0,0,0-.27-.27.34.34,0,0,0-.28,0l-.08.06-1.92,1.83a.4.4,0,0,0-.11.37A.37.37,0,0,0,14.09,46Z"/><path class="cls-8" d="M144.32,40.13l2.06.6a.27.27,0,0,0,.29-.07.31.31,0,0,0,.09-.29l-.51-2.08a.32.32,0,0,0-.21-.21.26.26,0,0,0-.23,0,.15.15,0,0,0-.06,0l-1.55,1.47a.33.33,0,0,0-.09.3A.32.32,0,0,0,144.32,40.13Z"/><path class="cls-4" d="M96.45,77.62l.78-2.54a.37.37,0,0,0-.44-.48l-2.59.59a.37.37,0,0,0-.28.26.37.37,0,0,0,0,.29.35.35,0,0,0,0,.08l1.81,1.94a.38.38,0,0,0,.36.11A.36.36,0,0,0,96.45,77.62Z"/><path class="cls-4" d="M59.13,6.31l2.64.27a.39.39,0,0,0,.35-.16.38.38,0,0,0,0-.37L61.06,3.62a.38.38,0,0,0-.3-.22.4.4,0,0,0-.28.08.24.24,0,0,0-.06.08L58.86,5.71a.4.4,0,0,0,0,.38A.4.4,0,0,0,59.13,6.31Z"/><path class="cls-8" d="M22.57,33.78l2.64.27a.39.39,0,0,0,.35-.15.37.37,0,0,0,0-.38L24.51,31.1a.37.37,0,0,0-.31-.22.4.4,0,0,0-.28.08l-.06.07L22.3,33.19a.37.37,0,0,0,.27.59Z"/><path class="cls-9" d="M21.68,24l2.65.27a.38.38,0,0,0,.34-.15.4.4,0,0,0,0-.38l-1.09-2.42a.38.38,0,0,0-.31-.22.36.36,0,0,0-.27.08.23.23,0,0,0-.07.07l-1.56,2.16a.38.38,0,0,0,0,.37A.35.35,0,0,0,21.68,24Z"/><path class="cls-12" d="M144.58,23.43l2.07.21a.3.3,0,0,0,.27-.12.32.32,0,0,0,0-.3l-.85-1.89a.31.31,0,0,0-.24-.18.34.34,0,0,0-.22.07.12.12,0,0,0,0,.05L144.37,23a.3.3,0,0,0,0,.29A.31.31,0,0,0,144.58,23.43Z"/><path class="cls-3" d="M40.75,5.37a.31.31,0,0,1,.42.33l-.31,2.13L40.56,10a.31.31,0,0,1-.49.2l-1.7-1.33L36.68,7.51A.31.31,0,0,1,36.75,7l2-.8Z"/><polygon class="cls-2" points="77.88 77.1 79.9 78.13 81.91 79.16 80.01 80.39 78.11 81.62 78 79.36 77.88 77.1"/><polygon class="cls-13" points="125.96 74.66 127.98 75.69 129.99 76.72 128.09 77.95 126.19 79.18 126.08 76.92 125.96 74.66"/><path class="cls-3" d="M5.08,42a.74.74,0,1,1-.74-.74A.74.74,0,0,1,5.08,42Z"/><path class="cls-3" d="M147.33,49.12a.74.74,0,1,1-.74-.74A.74.74,0,0,1,147.33,49.12Z"/><path class="cls-3" d="M91.49,79.49a.74.74,0,1,1-.74-.74A.74.74,0,0,1,91.49,79.49Z"/><path class="cls-3" d="M99.92,4.58A.61.61,0,1,1,99.31,4,.61.61,0,0,1,99.92,4.58Z"/><path class="cls-11" d="M107.68,6.13a.62.62,0,1,1-.62-.61A.61.61,0,0,1,107.68,6.13Z"/><path class="cls-2" d="M16.23,21.92a.74.74,0,1,1-.74-.74A.74.74,0,0,1,16.23,21.92Z"/><path class="cls-2" d="M145.41,12.83a.74.74,0,1,1-.74-.73A.74.74,0,0,1,145.41,12.83Z"/><path class="cls-12" d="M20.14,39.77a.49.49,0,1,1-.49-.49A.49.49,0,0,1,20.14,39.77Z"/><path class="cls-2" d="M115.55,3a.61.61,0,1,1-1.22,0,.61.61,0,0,1,1.22,0Z"/><path class="cls-4" d="M36.9,80.26a.37.37,0,1,1-.36-.36A.36.36,0,0,1,36.9,80.26Z"/><path class="cls-14" d="M102.12,80.2a.86.86,0,1,1-.85-.85A.85.85,0,0,1,102.12,80.2Z"/><path class="cls-4" d="M17,32.44a.62.62,0,1,1-.61-.61A.61.61,0,0,1,17,32.44Z"/><path class="cls-4" d="M147.24,68.78a.61.61,0,1,1-.61-.61A.61.61,0,0,1,147.24,68.78Z"/><path class="cls-4" d="M147.24,31.11a.61.61,0,1,1-.61-.61A.61.61,0,0,1,147.24,31.11Z"/><path class="cls-4" d="M54.64,80.59a.5.5,0,1,1-.49-.49A.49.49,0,0,1,54.64,80.59Z"/><circle class="cls-10" cx="48.25" cy="73.11" r="0.49"/><path class="cls-3" d="M4.43,28.27a.86.86,0,1,1-.86-.86A.86.86,0,0,1,4.43,28.27Z"/><path class="cls-4" d="M7.43,19.59a.61.61,0,0,1-.61.61.61.61,0,1,1,0-1.22A.61.61,0,0,1,7.43,19.59Z"/><path class="cls-10" d="M11.5,28.17a.49.49,0,1,1-.49-.49A.49.49,0,0,1,11.5,28.17Z"/><path class="cls-10" d="M11.57,39.75a.49.49,0,1,1-.49-.49A.49.49,0,0,1,11.57,39.75Z"/><path class="cls-3" d="M85.73,75.67a.5.5,0,1,1-.49-.49A.49.49,0,0,1,85.73,75.67Z"/><path class="cls-4" d="M72.57,76.31A.61.61,0,1,1,72,75.7.61.61,0,0,1,72.57,76.31Z"/><path class="cls-10" d="M66.74,80.74a.49.49,0,0,1-1,0,.49.49,0,0,1,1,0Z"/><path class="cls-4" d="M122.08,80.14a.49.49,0,1,1-1,0,.49.49,0,1,1,1,0Z"/><path class="cls-3" d="M118.08,75.67a.5.5,0,1,1-.5-.49A.49.49,0,0,1,118.08,75.67Z"/><path class="cls-4" d="M107.58,75.65a.61.61,0,0,1-1.22,0,.61.61,0,1,1,1.22,0Z"/><path class="cls-3" d="M54.72,9a.61.61,0,0,1-.61.62A.62.62,0,0,1,53.49,9a.61.61,0,0,1,.62-.61A.61.61,0,0,1,54.72,9Z"/><path class="cls-3" d="M68,9a.61.61,0,1,1-1.22,0A.61.61,0,0,1,68,9Z"/><path class="cls-13" d="M80.32,7.43a.61.61,0,1,1-.61-.61A.61.61,0,0,1,80.32,7.43Z"/><path class="cls-2" d="M49.85,3.91a.48.48,0,0,1-.49.49.48.48,0,0,1-.49-.49.48.48,0,0,1,.49-.49A.49.49,0,0,1,49.85,3.91Z"/><path class="cls-4" d="M72.34,3.89a.61.61,0,0,1-.62.61.61.61,0,1,1,0-1.22A.61.61,0,0,1,72.34,3.89Z"/><path class="cls-15" d="M132.9,80.31a.61.61,0,0,1-.62.61.61.61,0,0,1-.61-.61.61.61,0,0,1,.61-.62A.62.62,0,0,1,132.9,80.31Z"/><path class="cls-12" d="M89,6.26l-.18-2.65a.38.38,0,0,0-.21-.32.37.37,0,0,0-.38,0L86,4.8a.4.4,0,0,0-.17.34A.41.41,0,0,0,86,5.4l.08.06,2.39,1.16a.37.37,0,0,0,.38,0A.36.36,0,0,0,89,6.26Z"/><polygon class="cls-15" points="57.14 74.25 59.79 74.68 62.44 75.11 60.75 77.19 59.05 79.27 58.09 76.76 57.14 74.25"/><path class="cls-16" d="M73.91,20.35a.18.18,0,0,1-.09,0c-.14-.14-.29-.28-.43-.4a.13.13,0,0,1,0-.19.12.12,0,0,1,.18,0l.45.41a.14.14,0,0,1,0,.19A.18.18,0,0,1,73.91,20.35Z"/><path class="cls-16" d="M72.66,19.28a.11.11,0,0,1-.08,0c-.31-.22-.64-.44-1-.63a.13.13,0,0,1,0-.18.12.12,0,0,1,.18-.05c.34.2.68.42,1,.65a.14.14,0,0,1,0,.19A.16.16,0,0,1,72.66,19.28Zm-1.92-1.13h0c-.35-.16-.72-.3-1.09-.43a.13.13,0,0,1,.09-.25c.38.13.75.28,1.11.44a.14.14,0,0,1,.06.18A.12.12,0,0,1,70.74,18.15Zm-17.86-.27-.94,0a.14.14,0,0,1,0-.27c.37,0,.77,0,1.17,0a.13.13,0,0,1,.13.13.12.12,0,0,1-.13.14Zm1.29,0a.13.13,0,0,1-.13-.13.13.13,0,0,1,.12-.14c.38,0,.76,0,1.18-.08a.14.14,0,0,1,.14.12.14.14,0,0,1-.12.15l-1.18.08Zm-3.27-.07h0c-.4,0-.8-.1-1.17-.17a.13.13,0,0,1-.11-.15.13.13,0,0,1,.15-.11c.37.07.76.13,1.16.17a.13.13,0,0,1,.12.14A.14.14,0,0,1,50.9,17.78Zm5.49-.11a.13.13,0,0,1-.13-.12.12.12,0,0,1,.12-.14l.13,0,1-.11a.13.13,0,1,1,0,.26l-1,.12h-.14Zm2.22-.25a.14.14,0,0,1-.14-.11.14.14,0,0,1,.12-.15L59.76,17a.13.13,0,0,1,.15.11.14.14,0,0,1-.12.15l-1.17.13Zm10,0h0c-.37-.09-.75-.17-1.15-.23a.14.14,0,0,1-.11-.16.13.13,0,0,1,.16-.1c.39.06.79.14,1.16.23a.13.13,0,0,1,.1.16A.14.14,0,0,1,68.64,17.42Zm-19.93,0h0c-.38-.1-.76-.22-1.12-.35h0a.13.13,0,0,1-.08-.17.14.14,0,0,1,.17-.08q.55.21,1.11.36a.13.13,0,0,1,.09.16A.12.12,0,0,1,48.71,17.39Zm12.11-.21a.12.12,0,0,1-.13-.12.13.13,0,0,1,.12-.15l1.17-.1a.14.14,0,0,1,.15.12.13.13,0,0,1-.12.14l-1.18.11Zm5.63-.12h0c-.37,0-.77-.06-1.17-.08a.12.12,0,0,1-.12-.14.12.12,0,0,1,.13-.12c.41,0,.81,0,1.19.07a.14.14,0,0,1,.12.15A.14.14,0,0,1,66.45,17.06ZM63,17a.14.14,0,0,1,0-.27l1.19,0a.13.13,0,0,1,.13.14.13.13,0,0,1-.13.13c-.37,0-.77,0-1.17,0Zm-16.4-.43h-.07a6,6,0,0,1-1-.71.14.14,0,0,1,0-.19.13.13,0,0,1,.19,0,5,5,0,0,0,.92.68.12.12,0,0,1,0,.18A.13.13,0,0,1,46.64,16.58Zm-7.26-1.29a.13.13,0,1,1,0-.26,11.32,11.32,0,0,0,1.16-.09.13.13,0,1,1,0,.26c-.4.05-.8.08-1.19.09Zm-1,0h0c-.18,0-.37,0-.55-.06a5.37,5.37,0,0,1-.64-.11.13.13,0,0,1-.1-.16.14.14,0,0,1,.16-.1,4.93,4.93,0,0,0,.61.11l.54.05a.14.14,0,0,1,0,.27ZM45,15.09A.14.14,0,0,1,44.9,15a3.25,3.25,0,0,1-.44-1l-.06,0c-.21.11-.42.2-.64.29a.12.12,0,0,1-.17-.07.13.13,0,0,1,.07-.17l.62-.28.44-.22a.14.14,0,0,1,.18.06.15.15,0,0,1-.06.18.61.61,0,0,0-.14.07,3.33,3.33,0,0,0,.42,1,.13.13,0,0,1,0,.18ZM41.59,15a.15.15,0,0,1-.13-.11.14.14,0,0,1,.1-.16,9,9,0,0,0,1.13-.31.14.14,0,0,1,.08.26c-.38.12-.77.23-1.15.31Zm-5.42-.22h-.05c-.34-.12-.71-.28-1.1-.46a.13.13,0,0,1-.06-.17.14.14,0,0,1,.18-.07,10.28,10.28,0,0,0,1.07.45.14.14,0,0,1,.08.18A.13.13,0,0,1,36.17,14.8Zm-2-.93a.07.07,0,0,1-.06,0c-.32-.17-.67-.37-1-.58a.14.14,0,0,1,0-.18.13.13,0,0,1,.19-.05c.35.21.7.41,1,.58a.13.13,0,0,1,0,.18A.12.12,0,0,1,34.14,13.87Zm11.56-.53a.14.14,0,0,1-.11-.07.12.12,0,0,1,0-.18c.36-.21.69-.42,1-.62a.12.12,0,0,1,.18,0,.13.13,0,0,1,0,.18c-.3.21-.64.43-1,.64ZM44.53,13h0a.13.13,0,0,1-.11-.15,3.36,3.36,0,0,1,.4-1.15.13.13,0,0,1,.18-.05.13.13,0,0,1,.05.18,3.27,3.27,0,0,0-.37,1.06A.13.13,0,0,1,44.53,13Zm-12.31-.23-.07,0-1-.64a.13.13,0,0,1,0-.19.13.13,0,0,1,.18,0l1,.63a.13.13,0,0,1,0,.19A.11.11,0,0,1,32.22,12.74Zm15.3-.69a.13.13,0,0,1-.1,0,.13.13,0,0,1,0-.19,3.11,3.11,0,0,0,.69-.89.13.13,0,0,1,.17-.06.14.14,0,0,1,.07.18,3.27,3.27,0,0,1-.75,1A.12.12,0,0,1,47.52,12.05Zm-17.17-.53-.07,0L29.51,11l-.21-.14a.13.13,0,0,1,0-.18.14.14,0,0,1,.19,0l.2.14.78.52a.13.13,0,0,1,0,.18A.11.11,0,0,1,30.35,11.52Zm15.2-.5a.17.17,0,0,1-.1,0,.14.14,0,0,1,0-.19,5.48,5.48,0,0,1,.92-.78.13.13,0,0,1,.15.21,6.65,6.65,0,0,0-.88.75A.11.11,0,0,1,45.55,11Zm-17-.74-.07,0-1-.65a.13.13,0,0,1,.14-.22l1,.65a.13.13,0,0,1,0,.18A.14.14,0,0,1,28.5,10.28Zm19.84-.17a.14.14,0,0,1-.12-.1c-.11-.32-.37-.39-.81-.25a.13.13,0,0,1-.17-.08.14.14,0,0,1,.08-.17c.6-.19,1,0,1.15.42a.14.14,0,0,1-.09.17Zm-21.71-1-.07,0-1-.61a.12.12,0,0,1-.05-.18.14.14,0,0,1,.18,0l1,.61a.14.14,0,0,1,0,.19A.14.14,0,0,1,26.63,9.07ZM24.7,8l-.06,0c-.37-.19-.72-.37-1.05-.52a.14.14,0,0,1-.07-.18.14.14,0,0,1,.18-.06c.34.15.69.33,1.06.53a.13.13,0,0,1,.06.18A.15.15,0,0,1,24.7,8Zm-2-.94h-.05c-.38-.14-.76-.26-1.11-.35a.13.13,0,0,1-.09-.16.13.13,0,0,1,.16-.1,9.88,9.88,0,0,1,1.13.37.13.13,0,0,1,.08.17A.13.13,0,0,1,22.68,7Zm-3.33-.55a.12.12,0,0,1-.13-.11.13.13,0,0,1,.11-.15,4.9,4.9,0,0,1,1.21,0,.14.14,0,0,1,.12.15.13.13,0,0,1-.15.11,5.52,5.52,0,0,0-1.15,0Z"/><path class="cls-16" d="M17.79,7a.13.13,0,0,1-.11-.06.12.12,0,0,1,.05-.18,2.81,2.81,0,0,1,.55-.27.13.13,0,0,1,.17.08.13.13,0,0,1-.07.17,3.54,3.54,0,0,0-.52.25Z"/><path class="cls-4" d="M13.15,7.27a.61.61,0,0,1-.62.61.61.61,0,1,1,0-1.22A.61.61,0,0,1,13.15,7.27Z"/><path class="cls-15" d="M16.8,3.43,4.6,8.54l9.15,5.05L17.69,12l2.8.5a.66.66,0,0,0,.43-1.23L14.68,7.78l2.87-3.32A.66.66,0,0,0,16.8,3.43Z"/><path class="cls-17" d="M4.6,8.8a.26.26,0,0,1-.26-.24.27.27,0,0,1,.25-.29l10.07-.75a.27.27,0,1,1,0,.53L4.62,8.8Z"/><path class="cls-17" d="M18.15,12.19h-.06L4.63,9a.27.27,0,0,1-.2-.32.26.26,0,0,1,.32-.19l13.46,3.16a.27.27,0,0,1,.2.32A.27.27,0,0,1,18.15,12.19Z"/><path class="cls-14" d="M129.59,3.46l12.89,3L134.34,13l-4.15-.87-2.67,1a.66.66,0,0,1-.64-1.13l5.54-4.53L129,4.6A.65.65,0,0,1,129.59,3.46Z"/><path class="cls-18" d="M132.42,7.65a.26.26,0,0,1-.26-.24.27.27,0,0,1,.24-.29l10.06-1a.27.27,0,0,1,.29.24.27.27,0,0,1-.24.29l-10.06,1Z"/><path class="cls-18" d="M134.54,10.27a.26.26,0,0,1-.25-.17.27.27,0,0,1,.15-.34c1.35-.52,2.71-1.13,4-1.71s2.58-1.15,3.87-1.65a.25.25,0,0,1,.34.15.25.25,0,0,1-.15.34c-1.28.5-2.58,1.08-3.84,1.64s-2.69,1.2-4.05,1.73Z"/><path class="cls-18" d="M129.72,12.33a.27.27,0,0,1-.25-.16.28.28,0,0,1,.14-.35l2.33-1a.25.25,0,0,1,.34.14.26.26,0,0,1-.14.35l-2.32,1Z"/><path class="cls-16" d="M101.13,13.2a7.33,7.33,0,0,1-.83,0,.14.14,0,0,1-.12-.15.14.14,0,0,1,.15-.12,8.9,8.9,0,0,0,1.17,0,.12.12,0,0,1,.14.12.13.13,0,0,1-.13.14Zm1.43-.1a.14.14,0,0,1-.13-.12.13.13,0,0,1,.12-.15c.36-.05.76-.11,1.16-.2a.13.13,0,0,1,.16.1.13.13,0,0,1-.1.16c-.41.09-.81.16-1.19.21ZM99.27,13h0a3.89,3.89,0,0,1-1.1-.54.14.14,0,0,1,0-.19.13.13,0,0,1,.18,0,3.54,3.54,0,0,0,1,.51.13.13,0,0,1,.09.16A.14.14,0,0,1,99.27,13Zm5.5-.3a.13.13,0,0,1-.12-.1.14.14,0,0,1,.09-.17l.53-.14.61-.18a.13.13,0,0,1,.17.08.14.14,0,0,1-.09.17l-.62.19-.53.14Zm2.15-.69a.13.13,0,0,1-.12-.08.13.13,0,0,1,.08-.17c.36-.14.73-.3,1.09-.46a.14.14,0,0,1,.18.07.13.13,0,0,1-.07.17c-.37.17-.74.32-1.11.46Zm-9.43-.31a.11.11,0,0,1-.11-.07,2.34,2.34,0,0,1-.31-1.16v-.05a.14.14,0,0,1,.27,0v0a2.06,2.06,0,0,0,.27,1,.14.14,0,0,1,0,.18A.1.1,0,0,1,97.49,11.65Zm-15.13-.46a.14.14,0,0,1-.11-.06.13.13,0,0,1,0-.18,9.76,9.76,0,0,1,1-.61.13.13,0,0,1,.18.05.13.13,0,0,1-.06.18,10.47,10.47,0,0,0-1,.6Zm14.18-.13h0L95.87,11a5,5,0,0,1-.54-.08.13.13,0,0,1-.11-.15.14.14,0,0,1,.16-.11l.52.08c.22,0,.43,0,.65.06a.13.13,0,0,1,.12.14A.12.12,0,0,1,96.54,11.06Zm1.06,0a.12.12,0,0,1-.13-.12.13.13,0,0,1,.12-.14,3.55,3.55,0,0,0,1.11-.26.14.14,0,0,1,.18.07.13.13,0,0,1-.07.17,3.53,3.53,0,0,1-1.2.28ZM109,11a.12.12,0,0,1-.11-.07.13.13,0,0,1,0-.18c.35-.17.7-.36,1-.56a.13.13,0,0,1,.18,0,.13.13,0,0,1-.05.18c-.35.2-.71.39-1.06.57Zm-14.66-.35h0c-.42-.11-.84-.24-1.15-.34a.13.13,0,0,1-.09-.16.14.14,0,0,1,.17-.09c.31.1.72.22,1.14.33a.13.13,0,0,1,.09.16A.12.12,0,0,1,94.32,10.69Zm-10-.54a.14.14,0,0,1-.12-.09.13.13,0,0,1,.08-.17,9.52,9.52,0,0,1,1.14-.38.14.14,0,0,1,.17.09.14.14,0,0,1-.1.16,11.35,11.35,0,0,0-1.12.38Zm15.17-.07h0a.14.14,0,0,1-.07-.18,1.43,1.43,0,0,0,.08-.22,1.49,1.49,0,0,0,0-.28.62.62,0,0,0-.17-.46.13.13,0,0,1,0-.19.14.14,0,0,1,.19,0,.84.84,0,0,1,.26.65,2.23,2.23,0,0,1,0,.34,1.57,1.57,0,0,1-.1.28A.14.14,0,0,1,99.52,10.08Zm-7.37,0h0l-.6-.18L91,9.72a.13.13,0,0,1-.09-.16.13.13,0,0,1,.16-.1l.55.14.6.19a.13.13,0,0,1,0,.25Zm18.8-.1a.14.14,0,0,1-.11-.07.13.13,0,0,1,0-.18c.33-.2.66-.42,1-.64a.13.13,0,0,1,.18,0,.13.13,0,0,1,0,.19l-1,.65Zm-24.43-.4a.13.13,0,0,1-.13-.11.13.13,0,0,1,.11-.15,9.78,9.78,0,0,1,1.2-.13.13.13,0,0,1,0,.26,11.31,11.31,0,0,0-1.17.13Zm3.44,0h0a9.26,9.26,0,0,0-1.17-.11.14.14,0,1,1,0-.27q.6,0,1.2.12a.13.13,0,0,1,.11.15A.13.13,0,0,1,90,9.52Zm7.52,0-.07,0a.14.14,0,0,1,0-.18l0,0a1.63,1.63,0,0,1,1-.71.14.14,0,0,1,.16.1.13.13,0,0,1-.1.16,1.35,1.35,0,0,0-.83.58l0,0A.13.13,0,0,1,97.48,9.49Z"/><path class="cls-16" d="M113.37,8.3a.13.13,0,0,1-.12-.07.14.14,0,0,1,.06-.18l1.09-.51a.12.12,0,0,1,.17.07.13.13,0,0,1-.06.17l-1.08.51Zm16.27-.5h-.06c-.36-.2-.71-.38-1.06-.54a.13.13,0,0,1-.07-.17.14.14,0,0,1,.18-.07c.36.16.72.35,1.07.54a.14.14,0,0,1,.06.18A.13.13,0,0,1,129.64,7.8Zm-14.21-.42a.13.13,0,0,1-.12-.08.12.12,0,0,1,.07-.17l1.13-.42a.13.13,0,0,1,.17.08.14.14,0,0,1-.09.17c-.36.13-.74.26-1.11.41Zm12.17-.53h0c-.37-.14-.75-.27-1.12-.37a.14.14,0,0,1-.09-.17.13.13,0,0,1,.16-.09c.38.11.77.24,1.14.38a.14.14,0,0,1,.08.18A.13.13,0,0,1,127.6,6.85Zm-10-.2a.13.13,0,0,1-.12-.1.13.13,0,0,1,.09-.16c.39-.12.78-.22,1.16-.31a.14.14,0,0,1,.16.1.13.13,0,0,1-.1.16c-.38.09-.77.19-1.15.3Zm7.87-.44h0c-.39-.08-.78-.15-1.17-.2a.14.14,0,0,1-.12-.14.13.13,0,0,1,.15-.12c.4,0,.8.12,1.19.2a.13.13,0,0,1,.1.16A.12.12,0,0,1,125.43,6.21Zm-5.67-.07a.14.14,0,0,1-.13-.11.14.14,0,0,1,.11-.16c.4-.06.8-.12,1.19-.16a.15.15,0,0,1,.15.12A.14.14,0,0,1,121,6c-.39,0-.78.09-1.18.16Zm3.44-.22h0c-.39,0-.78,0-1.18,0a.13.13,0,0,1-.14-.13.13.13,0,0,1,.13-.13c.41,0,.81,0,1.21,0a.13.13,0,0,1,.12.14A.12.12,0,0,1,123.2,5.92Z"/><rect class="cls-5" x="29.46" y="16.32" width="88.63" height="53.18" rx="2.51"/><path class="cls-19" d="M115.58,69.91H32A2.93,2.93,0,0,1,29,67V18.83A2.93,2.93,0,0,1,32,15.9h83.61a2.93,2.93,0,0,1,2.93,2.93V67A2.93,2.93,0,0,1,115.58,69.91ZM32,16.73a2.1,2.1,0,0,0-2.09,2.1V67A2.09,2.09,0,0,0,32,69.07h83.61A2.09,2.09,0,0,0,117.67,67V18.83a2.1,2.1,0,0,0-2.09-2.1Z"/><rect class="cls-5" x="125.18" y="16.32" width="17.73" height="53.18" rx="2.51"/><path class="cls-19" d="M140.4,69.91H127.69A2.93,2.93,0,0,1,124.76,67V18.83a2.93,2.93,0,0,1,2.93-2.93H140.4a2.93,2.93,0,0,1,2.93,2.93V67A2.93,2.93,0,0,1,140.4,69.91ZM127.69,16.73a2.1,2.1,0,0,0-2.09,2.1V67a2.09,2.09,0,0,0,2.09,2.09H140.4A2.09,2.09,0,0,0,142.49,67V18.83a2.1,2.1,0,0,0-2.09-2.1Z"/><rect class="cls-20" x="7.08" y="80.28" width="14.89" height="0.55" rx="0.21"/><path class="cls-16" d="M25.88,61.54A2,2,0,0,0,24.69,58h-.18a1.9,1.9,0,0,0-1-3.55,1.88,1.88,0,0,0-1,.27l-.08-.09a2,2,0,0,0-1.84-2.82,2,2,0,0,0-1,.29,2,2,0,0,0-3.57-.69,1.22,1.22,0,0,1-.17-.15,3.16,3.16,0,0,0-2.77-1,2.23,2.23,0,0,0-1.93,1.77,2.73,2.73,0,0,0-3.41,2.37,2.27,2.27,0,0,1-.09.59A2.22,2.22,0,0,0,5.2,58.58a2,2,0,0,0-.85-.18,2.06,2.06,0,0,0-1.47,3.52A1.47,1.47,0,0,0,2.65,63a1.37,1.37,0,0,0,.33.55H26.32a1.51,1.51,0,0,0,.22-.79A1.47,1.47,0,0,0,25.88,61.54Z"/><path class="cls-21" d="M8.22,68.94a7.76,7.76,0,0,1,3.53-2.65.91.91,0,0,1,1.17.56A.92.92,0,0,1,12.36,68a5.42,5.42,0,0,0-2.88,2.44,3.13,3.13,0,0,0,.19,2.6.92.92,0,0,1-.44,1.23A.93.93,0,0,1,8,73.85a4.93,4.93,0,0,1-.21-4.11A4.73,4.73,0,0,1,8.22,68.94Z"/><path class="cls-21" d="M10.88,67.9v5.4a1.61,1.61,0,0,0,.42,1,4.09,4.09,0,0,0,3.07,1.17H15a3.93,3.93,0,0,0,3.19-1.32,1.57,1.57,0,0,0,.3-.9V67.9c0-1.22-1.57-2.22-3.49-2.22h-.63C12.45,65.68,10.88,66.68,10.88,67.9Z"/><path class="cls-22" d="M16.87,78.2l-1-2.62c-.25,0-2,0-2.23,0l-1,2.62L11.39,78c-.88-3.23-.13-4.4-.13-4.4h7.07s.74,1.17-.13,4.4Z"/><path class="cls-21" d="M18.43,77c-.06.3-.23,1.18-.32,1.52l-1.19,0L16.43,77Z"/><path class="cls-21" d="M11.16,77h2l-.5,1.8-1.13,0C11.43,78.41,11.22,77.31,11.16,77Z"/><path class="cls-23" d="M14.79,65v1.51l1.44-.56a.82.82,0,0,1-.54-1Z"/><path class="cls-23" d="M14.84,65v1.51l-1.43-.56a.81.81,0,0,0,.53-1Z"/><circle class="cls-23" cx="21.3" cy="60.15" r="1.56"/><circle class="cls-23" cx="8.08" cy="60.15" r="1.56"/><path class="cls-24" d="M10.3,55.73h8.83a1.4,1.4,0,0,1,1.3.86,6,6,0,0,1,.42,2.21v2.64A3.77,3.77,0,0,1,17.1,65.2H11.9a3.43,3.43,0,0,1-3.42-3.42v-3A3,3,0,0,1,9.57,56,1.26,1.26,0,0,1,10.3,55.73Z"/><g class="cls-25"><circle class="cls-23" cx="18.68" cy="62.13" r="1.05"/></g><g class="cls-25"><circle class="cls-23" cx="10.92" cy="62.13" r="1.05"/></g><path class="cls-16" d="M14.5,62.6a.94.94,0,0,1-.83-.49.08.08,0,0,1,0-.11.1.1,0,0,1,.12,0,.78.78,0,0,0,.76.4.74.74,0,0,0,.64-.51.1.1,0,0,1,.11-.05.09.09,0,0,1,.05.11.92.92,0,0,1-.79.62Z"/><path class="cls-23" d="M14.45,61.29a.08.08,0,0,1-.08,0l-.39-.9a.08.08,0,0,1,.11-.11l.61.28v-.83a.09.09,0,0,1,.08-.08.09.09,0,0,1,.09.08v1a.08.08,0,0,1,0,.07.08.08,0,0,1-.08,0l-.53-.25.3.7a.08.08,0,0,1,0,.11Z"/><polygon class="cls-26" points="10.85 71.28 18.5 71.28 19.51 76.51 9.27 76.45 10.85 71.28"/><path class="cls-21" d="M21,73.26a1,1,0,0,0,1-.81,5.22,5.22,0,0,0-.81-4.33,6.63,6.63,0,0,0-4.39-2.21,1,1,0,0,0-.15,2,4.61,4.61,0,0,1,2.93,1.43A3.17,3.17,0,0,1,20,72.05a1,1,0,0,0,.8,1.19A.68.68,0,0,0,21,73.26Z"/><path class="cls-24" d="M21.65,73l-1.67-1s-1.48,1.1-.43,2.23a1.36,1.36,0,0,0,1.42.9A1.25,1.25,0,0,0,21.65,73Z"/><path class="cls-27" d="M17,65.8a1.24,1.24,0,0,1-2.47,0Z"/><path class="cls-27" d="M15.08,65.8a1.24,1.24,0,0,1-2.47,0Z"/><path class="cls-16" d="M15.24,66.46l1.65,1.94a.22.22,0,0,1,0,.32l-1.06.91a.23.23,0,0,1-.38-.13l-.59-2.85A.23.23,0,0,1,15,66.4h0A.23.23,0,0,1,15.24,66.46Z"/><path class="cls-16" d="M14.43,66.46,12.78,68.4a.22.22,0,0,0,0,.32l1.06.91a.23.23,0,0,0,.38-.13l.59-2.85a.23.23,0,0,0-.14-.25h0A.22.22,0,0,0,14.43,66.46Z"/><path class="cls-16" d="M14.82,70.45h0a.3.3,0,0,0,.3-.3V67.86a.3.3,0,0,0-.3-.3h0a.31.31,0,0,0-.3.3v2.29A.31.31,0,0,0,14.82,70.45Z"/><path class="cls-28" d="M14.84,67.9h0a.43.43,0,0,0,.43-.43v-.94a.43.43,0,0,0-.43-.43h0a.43.43,0,0,0-.43.43v.94A.44.44,0,0,0,14.84,67.9Z"/><path class="cls-16" d="M12.74,78.57l.1,1.05a.65.65,0,0,1-.58.78l-2,0a.29.29,0,0,1-.16-.5l1.36-1.32Z"/><path class="cls-21" d="M11.86,79.66h0a.28.28,0,0,0,.28-.28v-.81a.28.28,0,0,0-.28-.28h0a.29.29,0,0,0-.28.28v.81A.29.29,0,0,0,11.86,79.66Z"/><rect class="cls-16" x="11.42" y="78.55" width="1.27" height="0.42"/><path class="cls-16" d="M16.8,78.57l-.11,1.05a.65.65,0,0,0,.58.78l2,0a.29.29,0,0,0,.15-.5l-1.36-1.32Z"/><path class="cls-21" d="M17.67,79.66h0a.29.29,0,0,1-.28-.28v-.81a.29.29,0,0,1,.28-.28h0a.29.29,0,0,1,.29.28v.81A.29.29,0,0,1,17.67,79.66Z"/><rect class="cls-16" x="16.84" y="78.55" width="1.27" height="0.42"/><path class="cls-29" d="M15.87,75.29a.27.27,0,0,1-.12,0,5.7,5.7,0,0,1-2.87-2,.34.34,0,0,1,.13-.46.33.33,0,0,1,.45.13A5.32,5.32,0,0,0,16,74.64a.34.34,0,0,1-.13.65Z"/><rect class="cls-15" x="6.45" y="75.78" width="5.59" height="3.49" rx="0.69"/><path class="cls-10" d="M9.2,78a1.32,1.32,0,0,1-1.26-1.37v-1A1.33,1.33,0,0,1,9.2,74.26a1.33,1.33,0,0,1,1.27,1.38v1A1.32,1.32,0,0,1,9.2,78Zm0-3.09a.66.66,0,0,0-.59.71v1a.66.66,0,0,0,.59.7.66.66,0,0,0,.59-.7v-1A.66.66,0,0,0,9.2,74.93Z"/><path class="cls-24" d="M8.21,73.59l1.41-.79s1.25.92.37,1.87a1.15,1.15,0,0,1-1.21.76A1.06,1.06,0,0,1,8.21,73.59Z"/><path class="cls-30" d="M9.22,77.19a.72.72,0,1,1-.72-.71A.71.71,0,0,1,9.22,77.19Z"/><path class="cls-30" d="M10.57,77.19a.72.72,0,1,1-.72-.71A.71.71,0,0,1,10.57,77.19Z"/><polygon class="cls-30" points="8.05 77.72 9.14 78.73 10.38 77.68 9.14 76.85 8.05 77.72"/><path class="cls-10" d="M11.46,78.89a.13.13,0,0,1-.14-.13V76.09a.14.14,0,0,1,.14-.14.13.13,0,0,1,.13.14v2.67A.13.13,0,0,1,11.46,78.89Z"/><path class="cls-16" d="M10.36,57.2h0a.35.35,0,0,1-.35-.35V55.6a.35.35,0,0,1,.35-.36h0a.36.36,0,0,1,.35.36v1.25A.35.35,0,0,1,10.36,57.2Z"/><path class="cls-16" d="M9.38,57.23h0A.36.36,0,0,1,9,56.87V55.62a.35.35,0,0,1,.35-.35h0a.35.35,0,0,1,.35.35v1.25A.36.36,0,0,1,9.38,57.23Z"/><path class="cls-16" d="M11.64,57.15h0a.36.36,0,0,1-.36-.36V55.54a.36.36,0,0,1,.36-.35h0a.35.35,0,0,1,.35.35v1.25A.36.36,0,0,1,11.64,57.15Z"/><path class="cls-16" d="M12.83,57.09h0a.35.35,0,0,1-.35-.35V55.49a.36.36,0,0,1,.35-.36h0a.36.36,0,0,1,.36.36v1.25A.36.36,0,0,1,12.83,57.09Z"/><path class="cls-16" d="M14,57h0a.36.36,0,0,1-.35-.36V55.43a.35.35,0,0,1,.35-.35h0a.36.36,0,0,1,.36.35v1.25A.36.36,0,0,1,14,57Z"/><path class="cls-16" d="M15.23,57h0a.36.36,0,0,1-.36-.35V55.38a.36.36,0,0,1,.36-.36h0a.36.36,0,0,1,.35.36v1.25A.35.35,0,0,1,15.23,57Z"/><path class="cls-16" d="M16.43,56.93h0a.36.36,0,0,1-.36-.35V55.32a.36.36,0,0,1,.36-.35h0a.35.35,0,0,1,.35.35v1.26A.35.35,0,0,1,16.43,56.93Z"/><rect class="cls-16" x="17.27" y="54.92" width="0.71" height="1.96" rx="0.27"/><path class="cls-16" d="M18.82,56.82h0a.35.35,0,0,1-.35-.35V55.21a.35.35,0,0,1,.35-.35h0a.35.35,0,0,1,.35.35v1.26A.35.35,0,0,1,18.82,56.82Z"/><path class="cls-16" d="M20,57.36h0a.35.35,0,0,1-.35-.35V55.76a.35.35,0,0,1,.35-.35h0a.35.35,0,0,1,.36.35V57A.36.36,0,0,1,20,57.36Z"/><path class="cls-16" d="M13,60.66a.38.38,0,1,1-.75,0,.38.38,0,0,1,.75,0Z"/><path class="cls-16" d="M16.86,60.66a.38.38,0,1,1-.37-.37A.38.38,0,0,1,16.86,60.66Z"/><path class="cls-16" d="M9.05,58.51H8.24a.36.36,0,0,1-.36-.36h0a.36.36,0,0,1,.36-.35h.81a.36.36,0,0,1,.36.35h0A.36.36,0,0,1,9.05,58.51Z"/><path class="cls-16" d="M20.67,58.72h-.82a.35.35,0,0,1-.35-.35h0a.35.35,0,0,1,.35-.35h.82a.35.35,0,0,1,.35.35h0A.35.35,0,0,1,20.67,58.72Z"/><path class="cls-20" d="M5,58.35v-1A.71.71,0,0,1,6,56.7l.89.51.9.52a.71.71,0,0,1,0,1.23l-.9.52L6,60A.71.71,0,0,1,5,59.38Z"/><path class="cls-20" d="M10.73,58.29v-1a.71.71,0,0,0-1.06-.62l-.9.52-.89.52a.71.71,0,0,0,0,1.23l.89.52.9.51a.7.7,0,0,0,1.06-.61Z"/><path class="cls-21" d="M7.77,59.38h0a.5.5,0,0,1-.5-.5V57.71a.5.5,0,0,1,.5-.5h0a.5.5,0,0,1,.5.5v1.17A.5.5,0,0,1,7.77,59.38Z"/><path class="cls-21" d="M9.89,58.44H6a.18.18,0,0,1-.19-.18A.18.18,0,0,1,6,58.07H9.89a.18.18,0,0,1,.18.19A.18.18,0,0,1,9.89,58.44Z"/><path class="cls-20" d="M17.85,58.35v-1a.71.71,0,0,1,1.07-.61l.9.51.89.52a.71.71,0,0,1,0,1.23l-.89.52-.9.51a.71.71,0,0,1-1.07-.61Z"/><path class="cls-20" d="M23.63,58.29v-1a.72.72,0,0,0-1.07-.62l-.89.52-.9.52a.71.71,0,0,0,0,1.23l.9.52.89.51a.71.71,0,0,0,1.07-.61Z"/><path class="cls-21" d="M20.66,59.38h0a.49.49,0,0,1-.49-.5V57.71a.49.49,0,0,1,.49-.5h0a.5.5,0,0,1,.5.5v1.17A.5.5,0,0,1,20.66,59.38Z"/><path class="cls-21" d="M22.78,58.44H18.91a.19.19,0,1,1,0-.37h3.87a.19.19,0,1,1,0,.37Z"/><circle class="cls-12" cx="102.3" cy="26.85" r="5.6"/><circle class="cls-12" cx="102.3" cy="42.77" r="5.6"/><polygon class="cls-31" points="44.93 21.25 38.46 32.45 51.4 32.45 44.93 21.25"/><polygon class="cls-31" points="44.93 37.05 38.46 48.26 51.4 48.26 44.93 37.05"/><polygon class="cls-31" points="102.3 53.08 95.83 64.29 108.77 64.29 102.3 53.08"/><rect class="cls-11" x="67.45" y="21.25" width="11.21" height="11.21"/><rect class="cls-11" x="67.45" y="37.16" width="11.21" height="11.21"/><rect class="cls-11" x="67.66" y="53.08" width="11.21" height="11.21"/><circle class="cls-12" cx="133.88" cy="42.96" r="5.58"/><polygon class="cls-31" points="133.88 54.13 127.43 65.29 140.32 65.29 133.88 54.13"/><rect class="cls-11" x="128.3" y="20.64" width="11.16" height="11.16"/></g></g></svg>