<svg width="102" height="169" viewBox="0 0 102 169" fill="none" xmlns="http://www.w3.org/2000/svg">
<path d="M37.9003 52.04C37.9003 52.04 32.1003 52.34 28.4003 49.14C19.4003 41.24 28.6003 35.94 28.6003 35.94C28.6003 35.94 23.6003 34.54 22.9003 29.14C21.8003 21.54 30.6003 19.44 30.6003 19.44C30.6003 19.44 25.6003 8.34001 34.9003 4.44001C44.2003 0.540009 48.5003 6.74001 48.5003 6.74001C48.5003 6.74001 51.7003 -2.25998 60.1003 0.540015C68.5003 3.34001 70.4003 8.04002 70.4003 8.04002C70.4003 8.04002 74.9003 1.94001 80.2003 5.44001C89.3003 11.34 85.8003 20.44 85.8003 20.44C85.8003 20.44 93.9003 18.84 94.8003 27.14C95.7003 35.44 89.2003 37.54 89.2003 37.54C89.2003 37.54 94.0003 41.64 90.5003 48.24C87.1003 54.74 79.8003 54.34 79.8003 54.34L37.9003 52.04Z" fill="#E74E1B"/>
<path d="M28.8003 119.64C28.8003 119.64 38.6003 124.24 46.1003 135.44C53.6003 146.74 54.7003 164.14 54.7003 164.14C54.7003 164.14 62.7003 161.64 61.0003 162.74C59.3003 163.94 51.3003 167.34 51.3003 167.34C51.3003 167.34 35.1003 140.54 26.3003 136.34L28.8003 119.64Z" fill="#F2AF8D"/>
<path d="M47.6001 162.54L54.9001 159.64L55.5001 161.24C55.5001 161.24 61.3001 160.24 63.0001 162.54L50.2001 168.04L47.6001 162.54Z" fill="#E42D31"/>
<path d="M53.6002 162.34C53.5002 162.34 53.5002 162.34 53.4002 162.24C53.3002 162.14 53.3002 161.94 53.4002 161.84L55.1002 160.04C55.2002 159.94 55.4002 159.94 55.5002 160.04C55.6002 160.14 55.6002 160.34 55.5002 160.44L53.8002 162.24C53.8002 162.24 53.7002 162.34 53.6002 162.34Z" fill="#2D202A"/>
<path d="M54.9001 163.34H54.8001C54.7001 163.24 54.6001 163.14 54.7001 162.94L56.0001 160.64C56.1001 160.54 56.2001 160.44 56.4001 160.54C56.5001 160.64 56.6001 160.74 56.5001 160.94L55.2001 163.24C55.1001 163.34 55.0001 163.34 54.9001 163.34Z" fill="#2D202A"/>
<path d="M57.0002 163.34C56.9002 163.34 56.9002 163.34 57.0002 163.34C56.8002 163.34 56.7002 163.14 56.7002 163.04L57.2002 160.94C57.2002 160.84 57.4002 160.74 57.5002 160.74C57.6002 160.74 57.7002 160.94 57.7002 161.04L57.2002 163.14C57.2002 163.34 57.1002 163.34 57.0002 163.34Z" fill="#2D202A"/>
<path d="M46.3003 112.84C46.3003 112.84 56.9003 115.04 66.8003 124.24C76.7003 133.44 81.9003 150.14 81.9003 150.14C81.9003 150.14 89.0003 145.84 87.7003 147.34C86.4003 148.84 79.3003 154.04 79.3003 154.04C79.3003 154.04 57.3003 131.74 47.8003 129.64L46.3003 112.84Z" fill="#F2AF8D"/>
<path d="M74.6001 150.24L81.0001 145.74L81.9001 147.14C81.9001 147.14 87.3001 144.84 89.5001 146.74L78.4001 155.14L74.6001 150.24Z" fill="#E42D31"/>
<path d="M80.3 148.64H80.2C80.1 148.54 80 148.44 80.1 148.24L81.3 146.14C81.4 146.04 81.5 145.94 81.7 146.04C81.8 146.14 81.9 146.24 81.8 146.44L80.6 148.54C80.5 148.54 80.4 148.64 80.3 148.64Z" fill="#2D202A"/>
<path d="M12.0002 119.64C12.0002 119.64 38.0002 119.64 54.5002 114.74C54.5002 114.74 56.5002 87.0401 56.5002 77.6401C56.5002 77.6401 33.3002 64.3401 27.9002 60.4401C27.9002 60.4401 0.400187 75.1401 12.0002 119.64Z" fill="#D8B20F"/>
<path d="M89.8003 65.34C89.8003 65.34 88.8003 59.84 89.5003 59.64C90.2003 59.34 91.7003 63.74 91.7003 63.74C91.7003 63.74 92.7003 56.24 93.8003 56.54C94.9003 56.84 94.5003 62.24 94.5003 62.24C94.5003 62.24 97.5003 55.44 98.0003 56.44C98.5003 57.34 96.8003 63.14 96.8003 63.14C96.8003 63.14 99.8003 58.44 100.9 59.64C102 60.84 97.0003 65.34 97.0003 65.34C97.0003 65.34 100 63.24 100.6 64.44C101.3 65.64 95.3003 68.34 95.3003 68.34C95.3003 68.34 91.9003 91.54 60.6003 89.94L59.3003 75.04C59.3003 74.84 84.8003 76.64 89.8003 65.34Z" fill="#F6B87E"/>
<path d="M92.8003 66.34C92.8003 66.34 92.7003 66.34 92.8003 66.34C92.6003 66.24 92.5003 66.14 92.5003 65.94C92.5003 65.94 92.9003 64.84 91.4003 63.84C91.3003 63.74 91.3003 63.54 91.3003 63.44C91.4003 63.34 91.6003 63.34 91.7003 63.34C93.5003 64.64 93.0003 66.04 93.0003 66.14C93.0003 66.34 92.9003 66.34 92.8003 66.34Z" fill="#2D202A"/>
<path d="M13.8001 31.54C13.8001 31.54 18.9001 29.34 18.7001 28.54C18.5001 27.84 14.1001 29.04 14.1001 29.04C14.1001 29.04 19.7001 23.94 18.9001 23.24C18.1001 22.54 13.7001 25.84 13.7001 25.84C13.7001 25.84 17.6001 19.54 16.5001 19.64C15.5001 19.74 11.7001 24.44 11.7001 24.44C11.7001 24.44 13.9001 19.34 12.3001 19.14C10.7001 18.94 9.80011 25.64 9.80011 25.64C9.80011 25.64 9.90011 22.04 8.50011 22.14C7.10011 22.24 8.20011 28.64 8.20011 28.64C8.20011 28.64 -9.09989 44.44 9.90011 69.44L22.9001 62.14C22.9001 62.04 7.10011 42.04 13.8001 31.54Z" fill="#F6B87E"/>
<path d="M11.4 29.74C11.3 29.74 11.3 29.74 11.2 29.74C11.1 29.64 11 29.4399 11.1 29.3399C11.1 29.2399 12 28.1399 14.1 28.8399C14.2 28.8399 14.3 29.04 14.3 29.14C14.3 29.24 14.1 29.3399 14 29.3399C12.3 28.7399 11.6 29.64 11.6 29.64C11.6 29.64 11.5 29.74 11.4 29.74Z" fill="#2D202A"/>
<path d="M53.6 114.74C53.6 114.74 60.5 117.84 65.6 123.14L51.1 133.44C51.1 133.44 46 127.54 41.7 124.74C41.7 124.74 47.7 130.64 49.2 134.74C49.2 134.74 35.5 141.34 31.7 143.44C31.7 143.44 18.5 127.84 12 119.54C12 119.64 43.8 118.14 53.6 114.74Z" fill="#6EAF9F"/>
<path d="M33.6003 141.04C33.5003 141.04 33.4003 140.94 33.3003 140.84C30.3003 133.24 15.6003 121.34 15.5003 121.24C15.4003 121.14 15.4003 120.94 15.5003 120.84C15.6003 120.74 15.8003 120.74 15.9003 120.84C16.5003 121.34 30.8003 132.94 33.9003 140.64C34.0003 140.74 33.9003 140.94 33.6003 141.04C33.7003 141.04 33.7003 141.04 33.6003 141.04Z" fill="#2D202A"/>
<path d="M41.7001 123.44C41.6001 123.44 41.6001 123.44 41.5001 123.34L35.8001 118.24C35.7001 118.14 35.7001 117.94 35.8001 117.84C35.9001 117.74 36.1001 117.74 36.2001 117.84L41.4001 122.44C41.2001 121.44 40.7001 119.44 39.6001 117.64C39.5001 117.54 39.6001 117.34 39.7001 117.24C39.8001 117.14 40.0001 117.24 40.1001 117.34C41.7001 119.94 42.0001 122.94 42.1001 123.04C42.1001 123.14 42.1001 123.24 42.0001 123.34C41.8001 123.44 41.7001 123.44 41.7001 123.44Z" fill="#2D202A"/>
<path d="M23.7003 126.94C23.6003 126.94 23.6003 126.94 23.5003 126.84C23.4003 126.74 23.4003 126.54 23.5003 126.44C23.5003 126.44 26.4003 123.74 25.2003 118.84C25.2003 118.74 25.3003 118.54 25.4003 118.54C25.5003 118.54 25.7003 118.64 25.7003 118.74C27.0003 123.94 23.9003 126.74 23.8003 126.94C23.8003 126.84 23.8003 126.94 23.7003 126.94Z" fill="#2D202A"/>
<path d="M56.7002 119.44C53.1002 119.44 49.5002 116.34 49.4002 116.24C49.3002 116.14 49.3002 115.94 49.4002 115.84C49.5002 115.74 49.7002 115.74 49.8002 115.84C49.8002 115.84 54.8002 120.14 58.7002 118.54C58.8002 118.44 59.0002 118.54 59.1002 118.64C59.2002 118.74 59.1002 118.94 59.0002 119.04C58.2002 119.24 57.5002 119.44 56.7002 119.44Z" fill="#2D202A"/>
<path d="M64.1999 124.44C64.0999 124.44 64.0999 124.44 63.9999 124.34C63.8999 124.24 57.6999 118.14 53.4999 114.94C53.3999 114.84 53.3999 114.64 53.3999 114.54C53.4999 114.44 53.6999 114.44 53.7999 114.44C57.9999 117.64 64.2999 123.84 64.3999 123.94C64.4999 124.04 64.4999 124.24 64.3999 124.34C64.2999 124.44 64.1999 124.44 64.1999 124.44Z" fill="#2D202A"/>
<path d="M3.20006 57.5401C3.20006 57.5401 16.2001 49.0401 18.1001 50.5401C20.0001 52.0401 31.7001 62.94 31.7001 62.94C31.7001 62.94 19.1001 79.54 14.3001 81.14C9.50006 82.74 -0.799943 60.0401 3.20006 57.5401Z" fill="#D8B20F"/>
<path d="M48.6003 73.04C48.6003 73.04 64.0003 74.44 68.0003 74.34C71.9003 74.24 71.7003 91.44 70.4003 92.84C69.1003 94.24 48.8003 96.04 47.5003 94.24C46.0003 92.54 48.6003 73.04 48.6003 73.04Z" fill="#D8B20F"/>
<path d="M40.2 29.34C40.2 29.34 57.7 13.04 75.1 29.34C86.4 39.84 83.1 67.64 59.4 69.44C40.8 70.84 26.6 44.04 40.2 29.34Z" fill="#F6B87E"/>
<path d="M42.8999 55.64L35.5999 65.34L32.3999 63.24C32.3999 63.24 30.6999 72.84 39.0999 75.14C45.7999 76.94 47.4999 72.44 47.4999 72.44L44.7999 70.84L48.4999 61.64L42.8999 55.64Z" fill="#F6B87E"/>
<path d="M59.1002 61.0401C58.9002 61.0401 58.7002 61.0401 58.6002 61.0401C57.8002 60.9401 57.2002 60.6401 56.7002 59.9401C55.2002 58.0401 55.7002 54.4401 55.8002 54.2401C55.8002 54.1401 56.0002 53.9401 56.1002 54.0401C56.2002 54.0401 56.4002 54.2401 56.3002 54.3401C56.3002 54.3401 55.8002 57.9401 57.1002 59.6401C57.5002 60.1401 58.0002 60.4401 58.6002 60.4401C61.8002 60.8401 63.9002 57.4401 63.9002 57.4401C64.0002 57.3401 64.1002 57.2401 64.3002 57.3401C64.4002 57.4401 64.5002 57.5401 64.4002 57.7401C64.3002 57.8401 62.4002 61.0401 59.1002 61.0401Z" fill="#2D202A"/>
<path d="M51.4999 51.54C51.4999 54.24 49.2999 56.34 46.6999 56.34C44.0999 56.34 41.8999 54.14 41.8999 51.54C41.8999 48.84 44.0999 46.74 46.6999 46.74C49.2999 46.74 51.4999 48.84 51.4999 51.54Z" fill="#EE9A79"/>
<path d="M75.2001 58.84C75.2001 61.54 73.0001 63.64 70.4001 63.64C67.7001 63.64 65.6001 61.44 65.6001 58.84C65.6001 56.24 67.8001 54.04 70.4001 54.04C73.0001 53.94 75.2001 56.14 75.2001 58.84Z" fill="#EE9A79"/>
<path d="M56.3 45.84C56.3 47.14 55.2 48.24 53.9 48.24C52.6 48.24 51.5 47.14 51.5 45.84C51.5 44.54 52.6 43.44 53.9 43.44C55.3 43.34 56.3 44.44 56.3 45.84Z" fill="#2E1F22"/>
<path d="M72.8 50.44C72.8 51.74 71.7 52.84 70.4 52.84C69.1 52.84 68 51.74 68 50.44C68 49.14 69.1 48.04 70.4 48.04C71.7 47.94 72.8 49.04 72.8 50.44Z" fill="#2E1F22"/>
<path d="M41.2002 78.14C39.6002 78.14 37.7002 77.74 35.4002 76.74C27.4002 73.24 29.2002 62.34 29.2002 62.24C29.2002 62.14 29.4002 62.04 29.5002 62.04C29.6002 62.04 29.7002 62.24 29.7002 62.34C29.7002 62.34 29.3002 65.04 29.8002 68.04C30.5002 72.04 32.4002 74.84 35.6002 76.24C44.7002 80.24 48.0002 73.94 48.2002 73.74C48.3002 73.64 48.4002 73.54 48.6002 73.64C48.7002 73.74 48.8002 73.84 48.7002 74.04C48.7002 74.04 46.5002 78.14 41.2002 78.14Z" fill="#2D202A"/>
<path d="M15.7001 94.9401C15.7001 94.9401 14.7001 96.7401 23.7001 102.04C32.7001 107.24 53.5001 105.84 53.5001 105.84C53.5001 105.84 54.4001 113.24 53.5001 112.74C52.6001 112.24 19.8001 117.24 15.7001 115.84C11.7001 114.64 12.1001 96.9401 15.7001 94.9401Z" fill="#C89929"/>
<path d="M55.3001 93.54C55.2001 93.54 55.0001 93.44 55.0001 93.24C54.9001 86.74 56.1001 77.64 56.1001 77.54C56.1001 77.44 56.3001 77.24 56.4001 77.34C56.5001 77.34 56.7001 77.54 56.6001 77.64C56.6001 77.74 55.3001 86.84 55.5001 93.24C55.6001 93.44 55.5001 93.54 55.3001 93.54Z" fill="#2D202A"/>
<path d="M46.6999 65.84C46.6999 65.84 42.5999 63.94 39.9999 59.14L37.8999 62.34L45.6999 68.24L46.6999 65.84Z" fill="#E57E66"/>
<path d="M31.7001 42.74C31.7001 42.74 41.7001 44.94 46.7001 41.44C51.7001 37.94 48.7001 27.54 56.5001 25.64C64.2001 23.74 65.6001 30.84 65.6001 30.84C65.6001 30.84 71.9001 26.94 75.2001 29.44C83.3001 35.74 72.1001 46.24 81.4001 45.84C90.7001 45.44 89.3001 37.54 89.3001 37.54C89.3001 37.54 87.6001 37.64 86.0001 35.64C84.4001 33.64 90.6001 16.04 68.7001 20.64C68.7001 20.64 60.8001 8.03996 45.3001 13.94C29.7001 19.84 27.1001 34.54 31.7001 42.74Z" fill="#E74E1B"/>
<path d="M39 46.14C39 46.14 39 35.14 32.5 39.24C24.4 44.44 30.9 50.94 34.8 51.94C38.6 53.14 39 46.14 39 46.14Z" fill="#F6B87E"/>
<path d="M34.8 49.44C34.6 49.44 34.5 49.24 34.5 49.14C35.3 44.54 34.6 42.74 33.9 41.94C33.4 41.44 32.8 41.44 32.8 41.44C32.7 41.44 32.5 41.34 32.5 41.24C32.5 41.14 32.6 40.94 32.7 40.94C32.7 40.94 33.5 40.84 34.3 41.54C35.5 42.74 35.7 45.24 35.1 49.24C35.1 49.34 34.9 49.44 34.8 49.44Z" fill="#2D202A"/>
<path d="M60.9001 56.44C60.8001 56.44 60.7001 56.44 60.7001 56.34C60.6001 56.24 60.7001 56.04 60.8001 55.94L64.6001 53.64L61.3001 53.24C61.2001 53.24 61.2001 53.24 61.1001 53.14C61.1001 53.04 61.0001 53.04 61.1001 52.94L62.0001 48.34C62.0001 48.24 62.2001 48.14 62.3001 48.14C62.4001 48.14 62.5001 48.34 62.5001 48.44L61.7001 52.74L65.5001 53.14C65.6001 53.14 65.7001 53.24 65.7001 53.34C65.7001 53.44 65.7001 53.54 65.6001 53.64L61.1001 56.34C61.0001 56.44 60.9001 56.44 60.9001 56.44Z" fill="#2D202A"/>
<path d="M14.1003 78.14C14.1003 78.14 14.0003 78.14 14.1003 78.14C13.9003 78.14 13.8003 77.94 13.8003 77.84C13.8003 77.74 16.0003 68.34 22.7003 61.84C22.8003 61.74 23.0003 61.74 23.1003 61.84C23.2003 61.94 23.2003 62.14 23.1003 62.24C16.5003 68.64 14.4003 77.84 14.3003 77.94C14.3003 78.14 14.2003 78.14 14.1003 78.14Z" fill="#2D202A"/>
<path d="M35.5002 29.54C34.6002 29.54 33.8002 29.34 33.0002 28.84C30.4002 27.14 30.2002 22.94 30.2002 22.84C30.2002 22.74 30.3002 22.54 30.5002 22.54C30.6002 22.54 30.8002 22.64 30.8002 22.84C30.8002 22.84 31.0002 26.94 33.4002 28.44C34.5002 29.24 36.0002 29.24 37.8002 28.64C39.8002 27.94 42.0002 25.94 44.4002 23.74C48.1002 20.34 52.0002 16.94 55.9002 17.54C58.2002 17.84 60.2002 19.54 62.0002 22.74C62.1002 22.84 62.0002 23.04 61.9002 23.14C61.8002 23.24 61.6002 23.14 61.5002 23.04C59.7002 20.04 57.9002 18.44 55.7002 18.14C52.0002 17.54 48.3002 20.94 44.7002 24.24C42.3002 26.44 40.0002 28.44 37.9002 29.24C37.1002 29.34 36.3002 29.54 35.5002 29.54Z" fill="#2D202A"/>
<path d="M65.4002 23.54C65.4002 23.54 65.3002 23.54 65.4002 23.54C65.2002 23.54 65.1002 23.34 65.1002 23.24C65.1002 23.14 66.4002 15.54 62.9002 12.84C61.5002 11.74 59.3002 11.94 57.2002 12.14C55.2002 12.34 53.2002 12.54 52.1002 11.44C51.4002 10.84 51.2002 9.83999 51.2002 8.53999C51.2002 8.33999 51.3002 8.23999 51.5002 8.23999C51.6002 8.23999 51.8002 8.33999 51.8002 8.53999C51.8002 9.73999 52.0002 10.54 52.5002 11.04C53.4002 11.94 55.2002 11.74 57.2002 11.54C59.4002 11.34 61.7002 11.14 63.3002 12.34C67.1002 15.24 65.7002 22.94 65.7002 23.24C65.6002 23.44 65.5002 23.54 65.4002 23.54Z" fill="#2D202A"/>
<path d="M67.9001 24.64C67.7001 24.64 67.6001 24.44 67.6001 24.34C67.6001 24.04 68.8001 16.04 74.1001 15.74C76.3001 15.64 78.0001 16.04 79.4001 16.34C81.3001 16.84 82.5001 17.14 83.7001 15.84C83.8001 15.74 84.0001 15.74 84.1001 15.84C84.2001 15.94 84.2001 16.14 84.1001 16.24C82.7001 17.74 81.2001 17.34 79.3001 16.94C77.9001 16.64 76.2001 16.24 74.1001 16.34C69.2001 16.64 68.1001 24.44 68.1001 24.54C68.2001 24.54 68.0001 24.64 67.9001 24.64Z" fill="#2D202A"/>
<path d="M87.6 33.54C85.1 33.54 84.4 31.94 83.5 30.04C82.7 28.24 81.8 26.14 79.2 24.54C77.3 23.34 75.6 22.94 74.2 23.44C72.3 24.14 71.6 26.24 71.5 26.24C71.5 26.34 71.3 26.44 71.2 26.44C71.1 26.44 71 26.24 71 26.14C71 26.04 71.8 23.74 74 23.04C75.6 22.44 77.4 22.84 79.5 24.14C82.3 25.84 83.3 28.04 84 29.84C85 32.14 85.7 33.64 89.3 32.84C89.4 32.84 89.6 32.94 89.6 33.04C89.6 33.14 89.5 33.34 89.4 33.34C88.7 33.54 88.1 33.54 87.6 33.54Z" fill="#2D202A"/>
<path d="M38.8001 36.4401C38.3001 36.4401 37.9001 36.4401 37.9001 36.3401C37.8001 36.3401 37.6001 36.1401 37.7001 36.0401C37.7001 35.9401 37.9001 35.7401 38.0001 35.8401C38.0001 35.8401 42.5001 36.4401 46.1001 33.0401C47.4001 31.8401 48.4001 30.1401 49.4001 28.6401C51.0001 25.9401 52.6001 23.3401 55.5001 24.0401C55.6001 24.0401 55.7001 24.2401 55.7001 24.3401C55.7001 24.4401 55.5001 24.5401 55.4001 24.5401C52.8001 23.9401 51.4001 26.2401 49.9001 28.8401C48.9001 30.4401 47.9001 32.1401 46.5001 33.4401C43.5001 36.1401 40.3001 36.4401 38.8001 36.4401Z" fill="#2D202A"/>
<path d="M87.6001 43.3401C86.3001 43.3401 81.4001 43.2401 81.3001 41.1401C81.3001 40.6401 81.4001 40.0401 81.5001 39.2401C82.0001 36.3401 82.9001 32.0401 77.8001 29.6401C77.7001 29.5401 77.6001 29.4401 77.7001 29.2401C77.8001 29.1401 77.9001 29.0401 78.1001 29.1401C83.6001 31.7401 82.7001 36.5401 82.1001 39.3401C82.0001 40.0401 81.8001 40.7401 81.9001 41.1401C82.0001 42.4401 85.7001 42.8401 87.9001 42.8401C88.1001 42.8401 88.2001 42.9401 88.2001 43.1401C88.2001 43.2401 88.1001 43.4401 87.9001 43.4401C87.8001 43.34 87.7001 43.3401 87.6001 43.3401Z" fill="#2D202A"/>
<path d="M81.6999 149.34C81.4999 149.24 81.3999 149.14 81.3999 149.04L82.0999 146.54C82.0999 146.44 82.2999 146.34 82.3999 146.34C82.4999 146.34 82.5999 146.54 82.5999 146.64L81.8999 149.14C81.8999 149.34 81.7999 149.34 81.6999 149.34Z" fill="#2D202A"/>
<path d="M83.8 148.84C83.7 148.84 83.5 148.74 83.5 148.54V146.44C83.5 146.34 83.6 146.14 83.8 146.14C83.9 146.14 84.1 146.24 84.1 146.44V148.54C84 148.74 83.9 148.84 83.8 148.84Z" fill="#2D202A"/>
</svg>
