<svg width="34" height="72" viewBox="0 0 34 72" fill="none" xmlns="http://www.w3.org/2000/svg">
<path d="M17.3986 29.4273C19.3261 43.1666 21.303 56.9058 23.2304 70.6451C23.4281 72.0784 25.7015 71.9795 25.5038 70.4969C23.5764 56.7576 21.5995 43.0183 19.672 29.279C19.4249 27.8458 17.1515 27.994 17.3986 29.4273Z" fill="#F9B818"/>
<path d="M16.6078 16.7746C15.817 16.824 4.99365 17.6642 2.12718 8.57056C0.397414 11.6347 -0.343915 15.2919 0.150304 19.048C0.29857 20.0859 0.545677 21.0743 0.842208 22.0133C9.44162 25.9177 16.0147 17.6148 16.6078 16.7746Z" fill="#E42D31"/>
<path d="M16.6085 16.7746C16.6085 16.7746 16.658 16.7746 16.6085 16.7746C16.1143 16.2309 8.40451 8.32341 13.7421 0.267639C8.65162 1.20666 4.50018 4.32023 2.12793 8.57051C4.9944 17.7136 15.8672 16.8734 16.6085 16.7746Z" fill="#4CA58C"/>
<path d="M16.7084 16.8746C16.7084 16.8233 16.657 16.8746 16.7084 16.8746C16.657 16.8746 16.7084 16.8746 16.7084 16.8746Z" fill="#DDFF63"/>
<path d="M16.7051 16.7252C16.7051 16.7252 24.8103 8.37286 33.1626 13.7599C32.273 8.71882 29.1594 4.56738 24.9585 2.19513C15.4695 5.11102 16.7051 16.7252 16.7051 16.7252Z" fill="#4CA58C"/>
<path d="M16.7066 16.874C16.7066 16.874 16.6572 16.874 16.7066 16.874C16.6572 16.874 16.7066 16.8246 16.7066 16.874C16.7066 16.7751 16.6572 16.7257 16.6572 16.7257C16.6572 16.7257 16.6572 16.7257 16.6078 16.7751L16.6572 16.8246C16.6572 16.8246 16.6572 16.8246 16.6078 16.8246C15.9653 17.6647 9.44159 25.9676 0.891602 22.0633C2.4731 26.8078 6.13032 30.5144 10.6277 32.2936C18.98 28.2904 17.0031 18.159 16.7066 16.874Z" fill="#4CA58C"/>
<path d="M16.707 16.8249C16.707 16.8743 16.707 16.8743 16.707 16.8249C17.2507 17.2203 25.9489 23.8428 22.0446 32.5411C26.7891 30.9596 30.4957 27.3518 32.2749 22.9038C28.0741 14.1067 17.1024 16.7261 16.707 16.8249Z" fill="#4CA58C"/>
<path d="M33.1648 13.7602C24.8619 8.32377 16.7073 16.7255 16.7073 16.7255C16.7073 16.7255 15.4718 5.11135 24.9608 2.19546C21.8472 0.416271 18.19 -0.374482 14.3845 0.169159C14.1868 0.218581 13.9397 0.218587 13.742 0.268009C8.40445 8.3732 16.1637 16.2807 16.6579 16.7749L16.7073 16.7255C16.7073 16.7255 16.7073 16.7749 16.7567 16.8243C17.1521 16.7255 28.1238 14.1061 32.2752 22.9032C33.3131 20.2839 33.7085 17.368 33.3131 14.3533C33.2637 14.205 33.2142 13.9579 33.1648 13.7602Z" fill="#E42D31"/>
<path d="M16.7058 16.8735C17.0024 18.1584 18.9793 28.2899 10.627 32.2931C13.1969 33.331 16.1128 33.6769 19.0781 33.2815C20.116 33.1333 21.1044 32.8862 22.0434 32.5896C25.8983 23.8914 17.2495 17.2688 16.7058 16.8735Z" fill="#E42D31"/>
<g opacity="0.5">
<path opacity="0.5" d="M14.1861 3.18379C14.3838 3.13437 14.5815 3.08494 14.8286 3.08494C18.6341 2.5413 22.2913 3.33205 25.4049 5.11124C29.3587 7.33523 32.324 11.1901 33.4112 15.8358C33.3618 15.3416 33.3618 14.8474 33.263 14.4026C33.2136 14.2049 33.2136 14.0072 33.1641 13.8095C32.2745 8.76847 29.161 4.61703 24.9601 2.24478C21.8465 0.465588 18.1893 -0.325166 14.3838 0.218475C14.1861 0.267897 13.939 0.267903 13.7413 0.317325C8.65087 1.25634 4.49943 4.36992 2.12718 8.6202C0.397414 11.6844 -0.343915 15.3416 0.150304 19.0977C0.199726 19.5919 0.29857 20.0367 0.397414 20.5309C0.249148 17.3185 0.990474 14.2049 2.52255 11.5361C4.94423 7.23638 9.09567 4.12281 14.1861 3.18379Z" fill="#FB4B4E"/>
</g>
</svg>
