<svg width="146" height="196" viewBox="0 0 146 196" fill="none" xmlns="http://www.w3.org/2000/svg">
<path d="M140.2 195.532H1.2C0.5 195.532 0 194.932 0 194.332V193.332C0 192.632 0.6 192.132 1.2 192.132H140.2C140.9 192.132 141.4 192.732 141.4 193.332V194.332C141.4 194.932 140.9 195.532 140.2 195.532Z" fill="#44B0D7"/>
<path d="M65.4 109.032L66.3 110.632L67.9 111.432L66.3 112.332L65.4 113.932L64.6 112.332L63 111.432L64.6 110.632L65.4 109.032Z" fill="#EEEEEE"/>
<path d="M113.9 155.432H73.7998C65.4998 155.432 58.7998 148.632 58.7998 140.432V114.632C58.7998 106.332 65.5998 99.6321 73.7998 99.6321H113.9C122.2 99.6321 128.9 106.432 128.9 114.632V140.432C128.9 148.732 122.2 155.432 113.9 155.432Z" fill="#E43513"/>
<path d="M118.2 114.132V147.932C118.2 150.332 117.3 152.532 115.6 154.532C111.9 158.932 104.6 161.932 96.3004 161.932H92.3004C83.4004 161.932 75.8004 158.532 72.3004 153.632C71.1004 151.932 70.4004 150.032 70.4004 147.932V114.132C70.4004 106.432 80.2004 100.232 92.3004 100.232H96.3004C108.4 100.232 118.2 106.432 118.2 114.132Z" fill="#DDEEFD"/>
<path d="M80.7 178.632L86.7 162.232C88.3 162.332 99.3 162.332 100.6 162.232L106.6 178.632L114.9 177.232C120.4 156.932 115.7 149.632 115.7 149.632H71.6C71.6 149.632 67 156.932 72.4 177.232L80.7 178.632Z" fill="#FFC8AF"/>
<path d="M71 171.232C71.4 173.132 72.4 178.632 73 180.732L80.4 180.932L83.5 171.232H71Z" fill="#DDEEFD"/>
<path d="M116.5 171.232H104L107.2 182.532L114.2 182.132C114.8 180.032 116.1 173.032 116.5 171.232Z" fill="#DDEEFD"/>
<path d="M93.7002 95.7321V105.232L84.7002 101.732C84.7002 101.732 89.1002 100.432 88.1002 95.4321L93.7002 95.7321Z" fill="#FF9D80"/>
<path d="M93.4004 95.7321V105.232L102.4 101.732C102.4 101.732 98.0004 100.432 99.0004 95.4321L93.4004 95.7321Z" fill="#FF9D80"/>
<path d="M53.0002 75.432C58.4126 75.432 62.8002 71.0444 62.8002 65.632C62.8002 60.2196 58.4126 55.832 53.0002 55.832C47.5878 55.832 43.2002 60.2196 43.2002 65.632C43.2002 71.0444 47.5878 75.432 53.0002 75.432Z" fill="#FF9D80"/>
<path d="M135.8 75.432C141.212 75.432 145.6 71.0444 145.6 65.632C145.6 60.2196 141.212 55.832 135.8 55.832C130.388 55.832 126 60.2196 126 65.632C126 71.0444 130.388 75.432 135.8 75.432Z" fill="#FF9D80"/>
<path d="M123.8 32.332V37.932H61.1002C57.7002 43.532 55.7002 50.132 55.7002 57.132V73.732C55.7002 86.632 66.3002 97.232 79.2002 97.232H111.7C123.5 97.232 133.1 87.632 133.1 75.832V57.132C133.3 47.632 129.7 38.932 123.8 32.332Z" fill="#FFC8AF"/>
<path opacity="0.51" d="M69.3998 84.6321C73.0449 84.6321 75.9998 81.6772 75.9998 78.0321C75.9998 74.3871 73.0449 71.4321 69.3998 71.4321C65.7547 71.4321 62.7998 74.3871 62.7998 78.0321C62.7998 81.6772 65.7547 84.6321 69.3998 84.6321Z" fill="#FF9D80"/>
<path opacity="0.51" d="M118 84.6321C121.645 84.6321 124.6 81.6772 124.6 78.0321C124.6 74.3871 121.645 71.4321 118 71.4321C114.355 71.4321 111.4 74.3871 111.4 78.0321C111.4 81.6772 114.355 84.6321 118 84.6321Z" fill="#FF9D80"/>
<path d="M89.2002 77.532C90.7002 81.932 96.7002 82.232 99.0002 78.332" stroke="#3F2732" stroke-miterlimit="10" stroke-linecap="round" stroke-linejoin="round"/>
<path d="M84.0002 69.5321C84.0002 70.8321 82.9002 71.9321 81.6002 71.9321C80.3002 71.9321 79.2002 70.8321 79.2002 69.5321C79.2002 68.2321 80.3002 67.1321 81.6002 67.1321C83.0002 67.1321 84.0002 68.2321 84.0002 69.5321Z" fill="#3F2732"/>
<path d="M110.6 69.5321C110.6 70.8321 109.5 71.9321 108.2 71.9321C106.9 71.9321 105.8 70.8321 105.8 69.5321C105.8 68.2321 106.9 67.1321 108.2 67.1321C109.5 67.1321 110.6 68.2321 110.6 69.5321Z" fill="#3F2732"/>
<path d="M94 62.7319V68.6319L98.6 66.532L96.1 72.2319" stroke="#D6402E" stroke-miterlimit="10" stroke-linecap="round" stroke-linejoin="round"/>
<path d="M106.6 181.032L105.9 187.632C105.5 190.232 107.3 192.532 109.5 192.432L121.9 192.332C123.3 192.332 124 190.232 122.9 189.232L114.4 180.932L106.6 181.032Z" fill="#3F2732"/>
<path d="M114.799 180.832H106.899V183.432H114.799V180.832Z" fill="#3F2732"/>
<path d="M81.2004 181.032L81.9004 187.632C82.3004 190.232 80.5004 192.532 78.3004 192.432L65.9004 192.332C64.5004 192.332 63.8004 190.232 64.9004 189.232L73.4004 180.932L81.2004 181.032Z" fill="#3F2732"/>
<path d="M116.1 131.032C113.5 131.032 111.4 128.932 111.4 126.332V108.432C111.4 105.832 113.5 103.732 116.1 103.732C118.7 103.732 120.8 105.832 120.8 108.432V126.332C120.8 128.932 118.7 131.032 116.1 131.032Z" fill="#FF4A16"/>
<path d="M82.6006 99.932H105.001L105.201 103.832L97.2006 109.232L93.3006 105.232L89.6006 109.032L82.8006 103.632C82.9006 103.532 82.6006 99.632 82.6006 99.932Z" fill="#B1DBFC"/>
<path d="M93.7004 110.832C91.9004 110.832 90.4004 109.332 90.4004 107.532V105.232C90.4004 103.432 91.9004 101.932 93.7004 101.932C95.5004 101.932 97.0004 103.432 97.0004 105.232V107.532C97.0004 109.332 95.5004 110.832 93.7004 110.832Z" fill="#3F2732"/>
<path d="M92.6002 108.832L85.7002 124.532L94.6002 131.932L102.3 124.432L95.0002 108.632L92.6002 108.832Z" fill="#3F2732"/>
<path d="M69.7998 139.732C69.7998 139.732 67.4998 159.432 72.2998 177.232H82.1998L86.7998 162.232H100.7L105.5 175.832L115.4 176.032C115.4 176.032 121.2 157.532 118.2 139.232C118.1 139.232 69.0998 139.032 69.7998 139.732Z" fill="#3F2732"/>
<path d="M82.7998 148.332C81.3998 148.332 80.2998 147.232 80.2998 145.832V138.532C80.2998 137.132 81.3998 136.032 82.7998 136.032C84.1998 136.032 85.2998 137.132 85.2998 138.532V145.832C85.2998 147.232 84.1998 148.332 82.7998 148.332Z" fill="#523544"/>
<path d="M106.8 147.832C105.4 147.832 104.3 146.732 104.3 145.332V138.032C104.3 136.632 105.4 135.532 106.8 135.532C108.2 135.532 109.3 136.632 109.3 138.032V145.332C109.2 146.732 108.1 147.832 106.8 147.832Z" fill="#523544"/>
<path d="M74.5004 184.532H68.0004C67.6004 184.532 67.4004 184.232 67.4004 183.932V183.432C67.4004 183.032 67.7004 182.832 68.0004 182.832H74.5004C74.9004 182.832 75.1004 183.132 75.1004 183.432V183.932C75.1004 184.232 74.8004 184.532 74.5004 184.532Z" fill="#523544"/>
<path d="M120.801 187.332H114.201C113.801 187.332 113.601 187.032 113.601 186.732V186.232C113.601 185.832 113.901 185.632 114.201 185.632H120.701C121.101 185.632 121.301 185.932 121.301 186.232V186.732C121.401 187.032 121.101 187.332 120.801 187.332Z" fill="#523544"/>
<path d="M72.8998 187.332H66.3998C65.9998 187.332 65.7998 187.032 65.7998 186.732V186.232C65.7998 185.832 66.0998 185.632 66.3998 185.632H72.8998C73.2998 185.632 73.4998 185.932 73.4998 186.232V186.732C73.4998 187.032 73.2998 187.332 72.8998 187.332Z" fill="#523544"/>
<path d="M118.5 184.332H112C111.6 184.332 111.4 184.032 111.4 183.732V183.232C111.4 182.832 111.7 182.632 112 182.632H118.5C118.9 182.632 119.1 182.932 119.1 183.232V183.732C119.1 184.032 118.8 184.332 118.5 184.332Z" fill="#523544"/>
<path d="M135.5 45.8321H82.8C85.7 42.8321 88.5 37.4321 89.4 33.3321C86 39.7321 79.2 43.7321 72.1 45.4321C65.1 47.1321 57.7 46.8321 50.5 46.5321C51.4 40.5321 52 32.7321 55.1 27.5321C58.2 22.2321 63.3 17.9321 69.3 16.8321C70.9 11.3321 74.4 5.63205 79.5 3.13205C84.6 0.532051 90.5 -0.167924 96.2 0.0320756C107.6 0.532076 118.9 5.33208 126.8 13.5321C134.8 21.8321 136.8 34.5321 135.5 45.8321Z" fill="#A03B07"/>
<path opacity="0.51" d="M65.4998 58.3321C65.4998 59.2321 64.7998 59.9321 63.8998 59.9321C62.9998 59.9321 62.2998 59.2321 62.2998 58.3321C62.2998 57.4321 62.9998 56.7321 63.8998 56.7321C64.6998 56.6321 65.4998 57.4321 65.4998 58.3321Z" fill="#FF9D80"/>
<path opacity="0.51" d="M61.7 65.1321C61.7 66.0321 61 66.7321 60.1 66.7321C59.2 66.7321 58.5 66.0321 58.5 65.1321C58.5 64.2321 59.2 63.5322 60.1 63.5322C61 63.4322 61.7 64.2321 61.7 65.1321Z" fill="#FF9D80"/>
<path opacity="0.51" d="M61.4998 54.0321C61.4998 54.9321 60.7998 55.6321 59.8998 55.6321C58.9998 55.6321 58.2998 54.9321 58.2998 54.0321C58.2998 53.1321 58.9998 52.4321 59.8998 52.4321C60.6998 52.4321 61.4998 53.1321 61.4998 54.0321Z" fill="#FF9D80"/>
<path opacity="0.51" d="M124.9 55.932C124.9 56.832 124.2 57.532 123.3 57.532C122.4 57.532 121.7 56.832 121.7 55.932C121.7 55.032 122.4 54.332 123.3 54.332C124.2 54.332 124.9 55.032 124.9 55.932Z" fill="#FF9D80"/>
<path opacity="0.51" d="M131 63.732C131 64.632 130.3 65.332 129.4 65.332C128.5 65.332 127.8 64.632 127.8 63.732C127.8 62.832 128.5 62.132 129.4 62.132C130.3 62.032 131 62.832 131 63.732Z" fill="#FF9D80"/>
<path opacity="0.51" d="M130.5 55.0321C130.5 55.9321 129.8 56.632 128.9 56.632C128 56.632 127.3 55.9321 127.3 55.0321C127.3 54.1321 128 53.4321 128.9 53.4321C129.8 53.3321 130.5 54.1321 130.5 55.0321Z" fill="#FF9D80"/>
<path d="M117.599 161.432C119.999 163.232 123.399 163.032 125.599 161.032C133.699 153.632 137.699 145.232 137.499 136.232C137.199 120.632 124.099 109.332 123.499 108.832C120.799 106.532 116.799 106.932 114.599 109.532C112.299 112.232 112.699 116.232 115.299 118.432C115.499 118.632 124.699 126.732 124.799 136.532C124.899 141.832 122.299 146.832 116.999 151.732C114.399 154.132 114.199 158.132 116.599 160.732C116.899 160.832 117.199 161.132 117.599 161.432Z" fill="#DDEEFD"/>
<path d="M75.0995 161.432C72.6995 163.232 69.2995 163.032 67.0995 161.032C58.9995 153.632 54.9995 145.232 55.1995 136.232C55.4995 120.632 68.5995 109.332 69.1995 108.832C71.8995 106.532 75.8995 106.932 78.0995 109.532C80.3995 112.232 79.9995 116.232 77.3995 118.432C77.1995 118.632 67.9995 126.732 67.8995 136.532C67.7995 141.832 70.3995 146.832 75.6995 151.732C78.2995 154.132 78.4995 158.132 76.0995 160.732C75.6995 160.832 75.3995 161.132 75.0995 161.432Z" fill="#DDEEFD"/>
<path d="M70.9998 130.532C68.3998 130.532 66.2998 128.432 66.2998 125.832V107.932C66.2998 105.332 68.3998 103.232 70.9998 103.232C73.5998 103.232 75.6998 105.332 75.6998 107.932V125.832C75.6998 128.432 73.5998 130.532 70.9998 130.532Z" fill="#FF4A16"/>
<path d="M121.9 162.532L117 151.532C117 151.532 105.5 151.532 106.6 161.132C106.6 161.132 104.5 167.132 110.5 170.932C116.4 174.832 123.2 168.732 121.9 162.532Z" fill="#FFC8AF"/>
<path d="M68.4994 161.332L73.3994 150.332C73.3994 150.332 84.8994 150.332 83.7994 159.932C83.7994 159.932 85.8994 165.932 79.8994 169.732C73.9994 173.632 67.1994 167.532 68.4994 161.332Z" fill="#FFC8AF"/>
<path d="M116.099 131.032C113.499 131.032 111.399 128.932 111.399 126.332V108.432C111.399 105.832 113.499 103.732 116.099 103.732C118.699 103.732 120.799 105.832 120.799 108.432V126.332C120.799 128.932 118.699 131.032 116.099 131.032Z" fill="#FF4A16"/>
<path d="M50.5998 170.932C50.5998 177.432 47.6998 183.232 43.1998 187.232C40.1998 189.932 36.3998 191.732 32.1998 192.432C30.9998 192.632 29.7998 192.732 28.5998 192.732C25.1998 192.732 21.9998 191.932 19.1998 190.532C15.7998 188.932 12.8998 186.332 10.6998 183.332C8.1998 179.732 6.7998 175.432 6.7998 170.832C6.7998 165.932 8.4998 161.332 11.1998 157.732C13.6998 154.432 17.0998 151.932 20.9998 150.432C23.3998 149.532 25.9998 149.032 28.6998 149.032C33.5998 149.032 38.0998 150.632 41.6998 153.332C45.1998 155.932 47.8998 159.532 49.2998 163.832C50.1998 166.032 50.5998 168.432 50.5998 170.932Z" fill="#DDEEFD"/>
<path d="M29.2002 164.532H22.2002L18.7002 170.532L22.2002 176.632H29.2002L32.7002 170.532L29.2002 164.532Z" fill="#5B394A"/>
<path d="M43.3 187.132C40.3 189.832 36.5 191.632 32.4 192.332L31.5 190.732L35 184.732H42L43.3 187.132Z" fill="#5B394A"/>
<path d="M19.9998 189.332L19.2998 190.532C15.8998 188.932 12.9998 186.432 10.7998 183.332H16.4998L19.9998 189.332Z" fill="#5B394A"/>
<path d="M49.3994 163.732L48.3994 165.432H41.3994L37.8994 159.332L41.3994 153.332H41.6994C45.2994 155.832 47.9994 159.432 49.3994 163.732Z" fill="#5B394A"/>
<path d="M21.8998 151.832L18.3998 157.832H11.3998L11.2998 157.632C13.7998 154.332 17.0998 151.832 21.0998 150.332L21.8998 151.832Z" fill="#5B394A"/>
<path d="M19.5996 159.932C20.0996 160.832 20.5996 161.632 21.0996 162.532" stroke="#B1DBFC" stroke-width="2.3789" stroke-miterlimit="10" stroke-linecap="round" stroke-linejoin="round"/>
<path d="M35.9994 160.832C34.7994 161.532 33.5994 162.232 32.3994 162.832" stroke="#B1DBFC" stroke-width="2.3789" stroke-miterlimit="10" stroke-linecap="round" stroke-linejoin="round"/>
<path d="M20.4998 179.032C19.7998 180.232 18.9998 181.332 18.2998 182.532" stroke="#B1DBFC" stroke-width="2.3789" stroke-miterlimit="10" stroke-linecap="round" stroke-linejoin="round"/>
<path d="M34.2002 182.532C33.4002 181.432 32.6002 180.332 31.7002 179.232" stroke="#B1DBFC" stroke-width="2.3789" stroke-miterlimit="10" stroke-linecap="round" stroke-linejoin="round"/>
<path d="M40.5 172.332C41.9 172.832 43.2 173.232 44.6 173.732" stroke="#B1DBFC" stroke-width="2.2266" stroke-miterlimit="10" stroke-linecap="round" stroke-linejoin="round"/>
<path d="M11.0996 171.532C12.3996 170.932 13.6996 170.332 14.8996 169.732" stroke="#B1DBFC" stroke-width="2.3789" stroke-miterlimit="10" stroke-linecap="round" stroke-linejoin="round"/>
<path d="M107.8 156.732C107.2 157.332 101.2 145.032 98.2997 138.932C97.3997 136.932 97.7997 134.632 99.3997 133.232L118.4 116.132C120.1 114.632 122.8 115.332 123.5 117.532L127.9 130.732C127.9 130.732 129.3 149.532 118.5 153.532C118.6 153.432 113.2 151.332 107.8 156.732Z" fill="#00CBD4"/>
<path d="M119.6 123.332L103.5 138.432C102.7 139.132 101.5 139.132 100.8 138.332C100.1 137.532 100.1 136.332 100.9 135.632L117 120.532C117.8 119.832 119 119.832 119.7 120.632C120.4 121.432 120.3 122.632 119.6 123.332Z" fill="#FCF8ED"/>
<path d="M107.3 139.832L113.2 151.332" stroke="#009EA1" stroke-width="2.3789" stroke-miterlimit="10" stroke-linecap="round" stroke-linejoin="round"/>
<path d="M116.2 134.632L118.2 147.332L116.2 134.632Z" stroke="#009EA1" stroke-width="2.3789" stroke-miterlimit="10" stroke-linecap="round" stroke-linejoin="round"/>
<path d="M124.3 140.332L116.2 134.632" stroke="#009EA1" stroke-width="2.3789" stroke-miterlimit="10" stroke-linecap="round" stroke-linejoin="round"/>
<path d="M122 139.432L118 143.232" stroke="#009EA1" stroke-width="2.3789" stroke-miterlimit="10" stroke-linecap="round" stroke-linejoin="round"/>
</svg>
