<svg width="430" height="116" viewBox="0 0 430 116" fill="none" xmlns="http://www.w3.org/2000/svg">
<path d="M213.35 39.134V71.1616L62.4854 51.2444V38.9338L213.35 39.134Z" fill="#373636"/>
<path d="M213.351 39.1333V71.1609L364.216 51.6441V39.3335L213.351 39.1333Z" fill="#373636"/>
<path d="M71.9837 20.5176H59.6865V50.3433H71.9837V20.5176Z" fill="#373636"/>
<path d="M69.5962 53.276C74.7026 51.1733 77.1394 45.3246 75.039 40.2127C72.9386 35.1008 67.0963 32.6613 61.99 34.764C56.8836 36.8667 54.4469 42.7153 56.5473 47.8273C58.6477 52.9392 64.4899 55.3787 69.5962 53.276Z" fill="#D9DADB"/>
<path d="M71.5834 44.0377C71.5834 47.2404 68.984 49.9428 65.6848 49.9428C62.3855 49.9428 59.7861 47.3405 59.7861 44.0377C59.7861 40.8349 62.3855 38.1326 65.6848 38.1326C68.984 38.1326 71.5834 40.8349 71.5834 44.0377Z" fill="#4C4C4C"/>
<path d="M68.6844 44.0375C68.6844 45.6389 67.3847 46.94 65.7851 46.94C64.1854 46.94 62.8857 45.6389 62.8857 44.0375C62.8857 42.4361 64.1854 41.135 65.7851 41.135C67.3847 41.135 68.6844 42.4361 68.6844 44.0375Z" fill="#373636"/>
<path d="M103.576 26.7225H27.8936C15.3965 26.7225 5.29883 16.6138 5.29883 4.10303H126.171C126.171 16.6138 116.073 26.7225 103.576 26.7225Z" fill="#F7C613"/>
<path d="M128.67 5.80502H2.89933C1.2997 5.80502 0 4.50391 0 2.90253C0 1.30115 1.2997 0 2.89933 0H128.67C130.27 0 131.569 1.30115 131.569 2.90253C131.569 4.50391 130.27 5.80502 128.67 5.80502Z" fill="#EFAD1E"/>
<path d="M370.314 20.5176H358.017V50.3433H370.314V20.5176Z" fill="#373636"/>
<path d="M374.091 45.6241C374.973 40.1672 371.269 35.028 365.818 34.1452C360.367 33.2624 355.233 36.9705 354.352 42.4273C353.47 47.8842 357.174 53.0235 362.625 53.9062C368.075 54.789 373.209 51.081 374.091 45.6241Z" fill="#D9DADB"/>
<path d="M364.216 49.9428C367.474 49.9428 370.115 47.2989 370.115 44.0377C370.115 40.7764 367.474 38.1326 364.216 38.1326C360.958 38.1326 358.317 40.7764 358.317 44.0377C358.317 47.2989 360.958 49.9428 364.216 49.9428Z" fill="#4C4C4C"/>
<path d="M364.216 46.94C365.817 46.94 367.115 45.6405 367.115 44.0375C367.115 42.4345 365.817 41.135 364.216 41.135C362.614 41.135 361.316 42.4345 361.316 44.0375C361.316 45.6405 362.614 46.94 364.216 46.94Z" fill="#373636"/>
<path d="M402.007 26.7225H326.324C313.827 26.7225 303.729 16.6138 303.729 4.10303H424.601C424.601 16.6138 414.504 26.7225 402.007 26.7225Z" fill="#F7C613"/>
<path d="M427.101 5.80502H301.33C299.73 5.80502 298.431 4.50391 298.431 2.90253C298.431 1.30115 299.73 0 301.33 0H427.101C428.7 0 430 1.30115 430 2.90253C430 4.50391 428.7 5.80502 427.101 5.80502Z" fill="#EFAD1E"/>
<path d="M234.945 105.591H195.454V36.2312C195.454 25.3218 204.252 16.5142 215.15 16.5142C226.047 16.5142 234.845 25.3218 234.845 36.2312V105.591H234.945Z" fill="#4C4C4C"/>
<path d="M257.64 116H172.76C174.959 109.695 180.958 105.591 187.556 105.591H242.843C249.442 105.591 255.341 109.795 257.64 116Z" fill="#4C4C4C"/>
<path d="M215.15 61.9538C220.672 61.9538 225.148 57.4728 225.148 51.9451C225.148 46.4175 220.672 41.9365 215.15 41.9365C209.628 41.9365 205.152 46.4175 205.152 51.9451C205.152 57.4728 209.628 61.9538 215.15 61.9538Z" fill="#D9DADB"/>
<path d="M215.15 57.85C218.407 57.85 221.048 55.2062 221.048 51.9449C221.048 48.6836 218.407 46.0398 215.15 46.0398C211.892 46.0398 209.251 48.6836 209.251 51.9449C209.251 55.2062 211.892 57.85 215.15 57.85Z" fill="#4C4C4C"/>
<path d="M215.149 54.8473C216.751 54.8473 218.049 53.5478 218.049 51.9448C218.049 50.3418 216.751 49.0422 215.149 49.0422C213.548 49.0422 212.25 50.3418 212.25 51.9448C212.25 53.5478 213.548 54.8473 215.149 54.8473Z" fill="#373636"/>
</svg>
