<svg width="146" height="183" viewBox="0 0 146 183" fill="none" xmlns="http://www.w3.org/2000/svg">
<path d="M116.4 182.4H29.9002C29.2002 182.4 28.7002 181.8 28.7002 181.2V180.4C28.7002 179.7 29.3002 179.2 29.9002 179.2H116.4C117.1 179.2 117.6 179.8 117.6 180.4V181.2C117.7 181.9 117.1 182.4 116.4 182.4Z" fill="#44B0D7"/>
<path d="M140.9 67.2001C143.7 65.1001 145.5 61.7001 145.5 57.9001C145.5 51.4001 140.3 46.2001 133.8 46.2001C133.4 46.2001 133.1 46.2001 132.7 46.3001C136.1 44.3001 138.3 40.7001 138.3 36.5001C138.3 30.2001 133.2 25.1001 126.9 25.1001C124.8 25.1001 122.8 25.7001 121.1 26.7001C120.9 26.5001 120.8 26.3001 120.6 26.1001C121.2 24.6001 121.6 23.0001 121.6 21.3001C121.6 14.7001 116.2 9.30011 109.6 9.30011C107.3 9.30011 105.2 9.90011 103.4 11.0001C102.1 5.80011 97.4 2.00011 91.8 2.00011C87.8 2.00011 84.3 3.90011 82.1 6.90011C81.7 6.70011 81.4 6.30011 81.1 6.00011C77 1.60011 70.7 -0.79989 64.7 0.20011C58.7 1.20011 54.5 4.90011 53.1 10.8001C48.6 9.60011 43.5 10.5001 39.6 13.2001C35.7 15.9001 33.1 20.3001 32.7 25.0001C32.6 26.2001 32.6 27.4001 32.2 28.5001C30.7 28.0001 29.2 27.6001 27.5 27.6001C20.1 27.6001 14.2 33.6001 14.2 40.9001C14.2 44.2001 15.4 47.2001 17.3 49.5001C15.7 48.8001 14 48.4001 12.2 48.4001C5.5 48.4001 0 54.0001 0 60.8001C0 64.2001 1.4 67.3001 3.6 69.5001C2.3 71.4001 1.8 73.7001 2.2 76.1001C2.4 77.3001 3.4 78.4001 4.2 79.4001H143.6C144.5 78.0001 145 76.4001 145 74.7001C144.9 71.5001 143.3 68.8001 140.9 67.2001Z" fill="#3F2732"/>
<path d="M35.5001 111.4C42.7001 100.5 55.9001 95.8001 56.6001 95.5001C59.5001 94.5001 62.6001 96.0001 63.6001 98.9001C64.6001 101.8 63.1001 104.9 60.3001 105.9C60.0001 106 47.1001 110.8 43.0001 120.5C41.1001 125.2 41.4001 130.2 44.1001 136.1C45.4001 138.9 44.2001 142.1 41.4001 143.4C38.6001 144.7 35.4001 143.5 34.1001 140.7C30.1001 132 29.6001 123.8 32.8001 116.2C33.6001 114.5 34.5001 112.9 35.5001 111.4Z" fill="#DDEEFD"/>
<path d="M51.4004 105.2V137.4C51.4004 139.7 52.3004 141.8 53.9004 143.7C57.4004 147.9 64.3004 150.7 72.3004 150.7H76.0004C84.5004 150.7 91.8004 147.4 95.0004 142.8C96.2004 141.1 96.8004 139.3 96.8004 137.4V105.2C96.8004 97.8999 87.4004 91.8999 76.0004 91.8999H72.2004C60.7004 91.8999 51.4004 97.8999 51.4004 105.2Z" fill="#DDEEFD"/>
<path d="M87.0996 166.7L81.2996 151.1C79.7996 151.2 69.2996 151.2 67.9996 151.1L62.1996 166.7L54.1996 165.4C48.9996 146.1 53.3996 139.1 53.3996 139.1H95.6996C95.6996 139.1 100.1 146.1 94.8996 165.4L87.0996 166.7Z" fill="#A03B07"/>
<path d="M96.4 159.6C96 161.4 95 166.6 94.5 168.7L87.4 168.9L84.5 159.7H96.4V159.6Z" fill="#DDEEFD"/>
<path d="M53.0996 159.6H64.9996L61.9996 170.4L55.2996 170.1C54.6996 168 53.3996 161.4 53.0996 159.6Z" fill="#DDEEFD"/>
<path d="M74.7002 87.6V96.6L83.3002 93.3C83.3002 93.3 79.1002 92 80.1002 87.3L74.7002 87.6Z" fill="#70220A"/>
<path d="M75.0004 87.6V96.6L66.4004 93.3C66.4004 93.3 70.6004 92 69.6004 87.3L75.0004 87.6Z" fill="#70220A"/>
<path d="M113.6 68.2001C118.736 68.2001 122.9 64.0363 122.9 58.9001C122.9 53.7639 118.736 49.6001 113.6 49.6001C108.464 49.6001 104.3 53.7639 104.3 58.9001C104.3 64.0363 108.464 68.2001 113.6 68.2001Z" fill="#70220A"/>
<path d="M34.5998 68.2001C39.7361 68.2001 43.8998 64.0363 43.8998 58.9001C43.8998 53.7639 39.7361 49.6001 34.5998 49.6001C29.4636 49.6001 25.2998 53.7639 25.2998 58.9001C25.2998 64.0363 29.4636 68.2001 34.5998 68.2001Z" fill="#70220A"/>
<path d="M47.8997 32.5H100.6C104 32.5 107.1 34.5 108.4 37.7C110 41.8 110.9 46.2 110.9 50.9V66.7C110.9 79 100.8 89.2 88.3997 89.2H57.3997C46.1997 89.1 36.9997 79.9 36.9997 68.6V50.8C36.2997 40.8 40.5997 36 43.4997 33.9C44.7997 33 46.2997 32.5 47.8997 32.5Z" fill="#D15D42"/>
<path opacity="0.51" d="M103.786 73.1113C105.117 69.8967 103.591 66.2113 100.376 64.8797C97.1614 63.5482 93.476 65.0747 92.1444 68.2893C90.8128 71.5039 92.3394 75.1893 95.554 76.5209C98.7686 77.8524 102.454 76.3259 103.786 73.1113Z" fill="#70220A"/>
<path opacity="0.51" d="M57.4066 73.1445C58.7382 69.9299 57.2117 66.2445 53.9971 64.9129C50.7825 63.5814 47.0971 65.1079 45.7655 68.3225C44.4339 71.5371 45.9604 75.2225 49.1751 76.5541C52.3897 77.8856 56.0751 76.3591 57.4066 73.1445Z" fill="#70220A"/>
<path d="M77.8 69.7C76.3 73.9 70.6 74.2 68.5 70.4" stroke="#3F2732" stroke-miterlimit="10" stroke-linecap="round" stroke-linejoin="round"/>
<path d="M74.6998 56.1001V61.8001L70.2998 59.8001L72.6998 65.2001" stroke="#70220A" stroke-miterlimit="10" stroke-linecap="round" stroke-linejoin="round"/>
<path d="M51.1998 125.4H96.8998L102.9 156.6L41.7998 156.3L51.1998 125.4Z" fill="#512C3F"/>
<path d="M111.7 137.2C114.5 137.2 117.1 135.2 117.6 132.3C119.6 122 118 113.3 112.8 106.5C103.8 94.7 87.3001 93.4 86.6001 93.3C83.3001 93.1 80.4001 95.6 80.1001 98.9C79.9001 102.2 82.4001 105.1 85.7001 105.4C85.9001 105.4 97.6001 106.5 103.2 113.9C106.3 117.9 107.1 123.2 105.8 130C105.2 133.3 107.3 136.5 110.6 137.1C110.9 137.2 111.3 137.2 111.7 137.2Z" fill="#DDEEFD"/>
<path d="M115.7 135.7L105.7 130.1C105.7 130.1 96.7998 136.6 103.1 143.4C103.1 143.4 104.9 149.2 111.6 148.8C118.4 148.2 120.2 139.7 115.7 135.7Z" fill="#D15D42"/>
<path d="M88.0998 92.7C87.9998 96.7 84.6998 99.9 80.6998 99.9C76.6998 99.9 73.3998 96.7 73.2998 92.7H88.0998Z" fill="#B1DBFC"/>
<path d="M76.5002 92.7C76.4002 96.7 73.1002 99.9 69.1002 99.9C65.1002 99.9 61.8002 96.7 61.7002 92.7H76.5002Z" fill="#B1DBFC"/>
<path d="M77.4004 96.6001L87.3004 108.2C87.8004 108.8 87.7004 109.7 87.1004 110.2L80.8004 115.6C80.0004 116.3 78.8004 115.9 78.5004 114.8L75.0004 97.8001C74.9004 97.2001 75.2004 96.5001 75.8004 96.3001C76.3004 96.0001 77.0004 96.1001 77.4004 96.6001Z" fill="#3F2732"/>
<path d="M72.6 96.6001L62.7 108.2C62.2 108.8 62.3 109.7 62.9 110.2L69.2 115.6C70 116.3 71.2 115.9 71.5 114.8L75 97.8001C75.1 97.2001 74.8 96.5001 74.2 96.3001C73.6 96.0001 73 96.1001 72.6 96.6001Z" fill="#3F2732"/>
<path d="M74.8996 120.4C75.8996 120.4 76.6996 119.6 76.6996 118.6V105C76.6996 104 75.8996 103.2 74.8996 103.2C73.8996 103.2 73.0996 104 73.0996 105V118.7C73.0996 119.6 73.8996 120.4 74.8996 120.4Z" fill="#3F2732"/>
<path d="M75.0004 105.2C76.4004 105.2 77.6004 104 77.6004 102.6V96.9999C77.6004 95.5999 76.4004 94.3999 75.0004 94.3999C73.6004 94.3999 72.4004 95.5999 72.4004 96.9999V102.6C72.5004 104 73.6004 105.2 75.0004 105.2Z" fill="#5B394A"/>
<path d="M62.5001 169L63.1001 175.3C63.4001 177.7 61.8001 179.9 59.6001 179.9L47.8001 179.8C46.4001 179.8 45.8001 177.8 46.9001 176.8L55.0001 168.9L62.5001 169Z" fill="#3F2732"/>
<path d="M57.2 175.4C58.1 175.4 58.9 174.6 58.9 173.7V169C58.9 168.1 58.1 167.3 57.2 167.3C56.3 167.3 55.5 168.1 55.5 169V173.8C55.5 174.7 56.3 175.4 57.2 175.4Z" fill="#DDEEFD"/>
<path d="M62.2006 168.8H54.6006V171.3H62.2006V168.8Z" fill="#3F2732"/>
<path d="M86.6997 169L86.0997 175.3C85.7997 177.7 87.3997 179.9 89.5997 179.9L101.4 179.8C102.8 179.8 103.4 177.8 102.3 176.8L94.1997 168.9L86.6997 169Z" fill="#3F2732"/>
<path d="M91.9998 175.4C91.0998 175.4 90.2998 174.6 90.2998 173.7V169C90.2998 168.1 91.0998 167.3 91.9998 167.3C92.8998 167.3 93.6998 168.1 93.6998 169V173.8C93.5998 174.7 92.8998 175.4 91.9998 175.4Z" fill="#DDEEFD"/>
<path d="M94.6 168.8H87V171.3H94.6V168.8Z" fill="#3F2732"/>
<path d="M65.0996 136.1C65.0996 136.1 68.6996 142.4 81.1996 147.3" stroke="#84446A" stroke-width="4.0087" stroke-miterlimit="10" stroke-linecap="round" stroke-linejoin="round"/>
<path d="M54.2 173.1H29.1C26.8 173.1 25 171.2 25 169V156.4C25 154.1 26.9 152.3 29.1 152.3H54.3C56.6 152.3 58.4 154.2 58.4 156.4V169C58.3 171.2 56.5 173.1 54.2 173.1Z" fill="#D93E4F"/>
<path d="M41.4004 163.7C38.4004 163.7 35.9004 160.9 35.9004 157.5V151.5C35.9004 148.1 38.4004 145.3 41.4004 145.3C44.4004 145.3 46.9004 148.1 46.9004 151.5V157.5C46.9004 160.9 44.4004 163.7 41.4004 163.7Z" stroke="#FF9090" stroke-width="4.0087" stroke-miterlimit="10" stroke-linecap="round" stroke-linejoin="round"/>
<path d="M35.3999 139.2L43.7999 134.4C43.7999 134.4 51.2999 139.9 45.9999 145.6C45.9999 145.6 44.4999 150.5 38.7999 150.1C33.0999 149.8 31.5999 142.6 35.3999 139.2Z" fill="#D15D42"/>
<path d="M41.3998 160.7C41.3998 163.1 39.4998 165 37.0998 165C34.6998 165 32.7998 163.1 32.7998 160.7C32.7998 158.3 34.6998 156.4 37.0998 156.4C39.4998 156.4 41.3998 158.4 41.3998 160.7Z" fill="#EA6E86"/>
<path d="M49.4994 160.7C49.4994 163.1 47.5994 165 45.1994 165C42.7994 165 40.8994 163.1 40.8994 160.7C40.8994 158.3 42.7994 156.4 45.1994 156.4C47.5994 156.4 49.4994 158.4 49.4994 160.7Z" fill="#EA6E86"/>
<path d="M34.5 163.8L41 169.9L48.4 163.6L41 158.7L34.5 163.8Z" fill="#EA6E86"/>
<path d="M54.7998 154.1V170.1" stroke="#FF9090" stroke-width="1.6035" stroke-miterlimit="10" stroke-linecap="round" stroke-linejoin="round"/>
<path d="M48.3002 41.3001C47.1002 41.3001 46.2002 40.3001 46.2002 39.2001V31.7001C46.2002 30.5001 47.2002 29.6001 48.3002 29.6001C49.5002 29.6001 50.4002 30.6001 50.4002 31.7001V39.2001C50.4002 40.3001 49.4002 41.3001 48.3002 41.3001Z" fill="#3F2732"/>
<path d="M42.3998 41.5C41.1998 41.5 40.2998 40.5001 40.2998 39.4001V31.9C40.2998 30.7 41.2998 29.8 42.3998 29.8C43.5998 29.8 44.4998 30.8 44.4998 31.9V39.4001C44.4998 40.5001 43.5998 41.5 42.3998 41.5Z" fill="#3F2732"/>
<path d="M55.8998 41C54.6998 41 53.7998 40.0001 53.7998 38.9001V31.4C53.7998 30.2 54.7998 29.3 55.8998 29.3C57.0998 29.3 57.9998 30.3 57.9998 31.4V38.9001C57.9998 40.0001 57.0998 41 55.8998 41Z" fill="#3F2732"/>
<path d="M63.0004 40.6001C61.8004 40.6001 60.9004 39.6001 60.9004 38.5001V31.0001C60.9004 29.8001 61.9004 28.9001 63.0004 28.9001C64.2004 28.9001 65.1004 29.9001 65.1004 31.0001V38.5001C65.2004 39.7001 64.2004 40.6001 63.0004 40.6001Z" fill="#3F2732"/>
<path d="M70.1996 40.3001C68.9996 40.3001 68.0996 39.3001 68.0996 38.2001V30.7001C68.0996 29.5001 69.0996 28.6001 70.1996 28.6001C71.3996 28.6001 72.2996 29.6001 72.2996 30.7001V38.2001C72.2996 39.4001 71.3996 40.3001 70.1996 40.3001Z" fill="#3F2732"/>
<path d="M77.3002 40C76.1002 40 75.2002 39.0001 75.2002 37.9001V30.4C75.2002 29.2 76.2002 28.3 77.3002 28.3C78.5002 28.3 79.4002 29.3 79.4002 30.4V37.9001C79.5002 39.0001 78.5002 40 77.3002 40Z" fill="#3F2732"/>
<path d="M84.5004 39.7C83.3004 39.7 82.4004 38.7 82.4004 37.6V30.1C82.4004 28.9 83.4004 28 84.5004 28C85.7004 28 86.6004 29 86.6004 30.1V37.6C86.6004 38.7 85.7004 39.7 84.5004 39.7Z" fill="#3F2732"/>
<path d="M92.2 39.3001H91.1C90.2 39.3001 89.5 38.6001 89.5 37.7001V29.2001C89.5 28.3001 90.2 27.6001 91.1 27.6001H92.2C93.1 27.6001 93.8 28.3001 93.8 29.2001V37.7001C93.8 38.6001 93 39.3001 92.2 39.3001Z" fill="#3F2732"/>
<path d="M98.8002 39C97.6002 39 96.7002 38.0001 96.7002 36.9001V29.4C96.7002 28.2 97.7002 27.3 98.8002 27.3C100 27.3 100.9 28.3 100.9 29.4V36.9001C100.9 38.1001 100 39 98.8002 39Z" fill="#3F2732"/>
<path d="M105.6 42.3001C104.4 42.3001 103.5 41.3001 103.5 40.2001V32.7001C103.5 31.5001 104.5 30.6001 105.6 30.6001C106.8 30.6001 107.7 31.6001 107.7 32.7001V40.2001C107.7 41.3001 106.8 42.3001 105.6 42.3001Z" fill="#3F2732"/>
<path d="M64.1998 62C64.1998 63.2 63.1998 64.2 61.9998 64.2C60.7998 64.2 59.7998 63.2 59.7998 62C59.7998 60.8 60.7998 59.8 61.9998 59.8C63.1998 59.8 64.1998 60.7 64.1998 62Z" fill="#3F2732"/>
<path d="M87.1002 62C87.1002 63.2 86.1002 64.2 84.9002 64.2C83.7002 64.2 82.7002 63.2 82.7002 62C82.7002 60.8 83.7002 59.8 84.9002 59.8C86.1002 59.8 87.1002 60.7 87.1002 62Z" fill="#3F2732"/>
<path d="M40.5 49.1001H35.6C34.4 49.1001 33.5 48.1001 33.5 47.0001C33.5 45.8001 34.5 44.9001 35.6 44.9001H40.5C41.7 44.9001 42.6 45.9001 42.6 47.0001C42.6 48.1001 41.6 49.1001 40.5 49.1001Z" fill="#3F2732"/>
<path d="M109.8 50.4002H105C103.8 50.4002 102.9 49.4002 102.9 48.3002C102.9 47.1002 103.9 46.2002 105 46.2002H109.9C111.1 46.2002 112 47.2002 112 48.3002C112 49.4002 111 50.4002 109.8 50.4002Z" fill="#3F2732"/>
<path d="M16 48.1V42C16 38.7 19.5 36.7 22.4 38.3L27.7 41.4L33 44.5C35.8 46.1 35.8 50.2 33 51.9L27.7 55L22.4 58C19.6 59.6 16 57.6 16 54.3V48.1Z" fill="#44B0D7"/>
<path d="M50.5004 47.8001V41.6001C50.5004 38.3001 47.0004 36.3001 44.1004 37.9001L38.8004 41.0001L33.5004 44.1001C30.7004 45.7001 30.7004 49.8001 33.5004 51.5001L38.8004 54.6001L44.1004 57.7001C46.9004 59.3001 50.5004 57.3001 50.5004 54.0001V47.8001Z" fill="#44B0D7"/>
<path d="M32.7998 54.3C31.1998 54.3 29.7998 53 29.7998 51.3V44.3C29.7998 42.7 31.0998 41.3 32.7998 41.3C34.3998 41.3 35.7998 42.6 35.7998 44.3V51.3C35.7998 53 34.3998 54.3 32.7998 54.3Z" fill="#DDEEFD"/>
<path d="M22.2998 47.6001H45.3998" stroke="#DDEEFD" stroke-width="2.2362" stroke-miterlimit="10" stroke-linecap="round" stroke-linejoin="round"/>
<path d="M93 48.1V42C93 38.7 96.5 36.7 99.4 38.3L104.7 41.4L110 44.5C112.8 46.1 112.8 50.2 110 51.9L104.7 55L99.4 58C96.6 59.6 93 57.6 93 54.3V48.1Z" fill="#44B0D7"/>
<path d="M127.5 47.8001V41.6001C127.5 38.3001 124 36.3001 121.1 37.9001L115.8 41.0001L110.5 44.1001C107.7 45.7001 107.7 49.8001 110.5 51.5001L115.8 54.6001L121.1 57.7001C123.9 59.3001 127.5 57.3001 127.5 54.0001V47.8001Z" fill="#44B0D7"/>
<path d="M109.8 54.3C108.2 54.3 106.8 53 106.8 51.3V44.3C106.8 42.7 108.1 41.3 109.8 41.3C111.4 41.3 112.8 42.6 112.8 44.3V51.3C112.8 53 111.4 54.3 109.8 54.3Z" fill="#DDEEFD"/>
<path d="M99.2998 47.6001H122.5" stroke="#DDEEFD" stroke-width="2.2362" stroke-miterlimit="10" stroke-linecap="round" stroke-linejoin="round"/>
</svg>
