<svg width="50" height="104" viewBox="0 0 50 104" fill="none" xmlns="http://www.w3.org/2000/svg">
<path d="M29.1443 103.169C29.0851 103.169 28.9962 103.14 28.937 103.081C28.8185 102.962 28.7889 102.785 28.9073 102.667C37.378 93.0536 34.1497 84.2688 31.4841 79.8912C30.3882 78.0869 29.0554 76.5192 27.7226 75.2474C25.3828 76.8446 22.7173 77.5545 20.881 76.8742C19.5778 76.4009 18.8965 75.2474 18.9854 73.6206C19.0446 72.4078 19.637 71.6092 20.644 71.343C22.3026 70.9289 25.0866 72.0824 27.7818 74.4783C28.6704 73.8276 29.4997 73.029 30.2106 72.112C31.9876 69.8049 34.2682 64.9541 29.6182 58.4172C24.287 50.9043 24.1093 44.3083 24.9386 40.1082C25.8271 35.5531 27.93 32.8023 28.0188 32.684C28.1077 32.5657 28.315 32.5361 28.4335 32.6248C28.552 32.7136 28.5816 32.9206 28.4927 33.0389C28.4039 33.1572 20.1405 44.0125 30.1217 58.0327C34.979 64.8653 32.5799 69.9824 30.6844 72.4374C29.9736 73.3543 29.1443 74.1825 28.2261 74.8628C29.5885 76.1347 30.8917 77.7024 32.0172 79.5362C34.2385 83.1744 38.4443 92.7578 29.3813 103.021C29.2924 103.14 29.2035 103.169 29.1443 103.169ZM21.3844 71.8754C21.1771 71.8754 20.9698 71.905 20.7624 71.9346C20.022 72.112 19.6074 72.7036 19.5482 73.6501C19.4593 75.0107 19.9924 75.9277 21.0586 76.3122C22.5395 76.8446 24.9682 76.3122 27.2191 74.8333C25.0867 72.9698 22.895 71.8754 21.3844 71.8754Z" fill="#2D202A"/>
<path d="M24.8497 55.489C38.5739 55.489 49.6995 43.0674 49.6995 27.7445C49.6995 12.4216 38.5739 0 24.8497 0C11.1256 0 0 12.4216 0 27.7445C0 43.0674 11.1256 55.489 24.8497 55.489Z" fill="#E74C4E"/>
<path d="M26.9527 53.3301C26.9527 53.3301 26.1234 59.3049 26.9527 59.8965C27.782 60.488 31.3657 59.3936 31.9877 57.471C32.5801 55.5189 26.5084 51.1414 26.9527 53.3301Z" fill="#E42D31"/>
<path d="M32.0173 4.96923C32.0173 4.96923 43.3611 8.7257 43.9239 18.1021C44.0127 19.6697 37.3486 12.8667 29.2925 9.19897C15.283 2.78044 26.301 2.78043 32.0173 4.96923Z" fill="white"/>
</svg>
