<svg xmlns="http://www.w3.org/2000/svg" xmlns:xlink="http://www.w3.org/1999/xlink" viewBox="0 0 20 20"><defs><style>.cls-1{isolation:isolate;}.cls-2{fill:#78a941;}.cls-3,.cls-4{mix-blend-mode:color-dodge;opacity:0.3;}.cls-3{fill:url(#linear-gradient);}.cls-4{fill:url(#radial-gradient);}.cls-5,.cls-6{fill:#fff;}.cls-5{opacity:0.8;}.cls-6{font-size:15.23px;font-family:Chicle-Regular, Chicle;}</style><linearGradient id="linear-gradient" x1="8.68" y1="21.85" x2="8.68" y2="14.96" gradientUnits="userSpaceOnUse"><stop offset="0" stop-color="#fff"/><stop offset="0.08" stop-color="#e5e5e5"/><stop offset="0.26" stop-color="#aba9aa"/><stop offset="0.44" stop-color="#7a7878"/><stop offset="0.61" stop-color="#545152"/><stop offset="0.76" stop-color="#393637"/><stop offset="0.9" stop-color="#292526"/><stop offset="1" stop-color="#231f20"/></linearGradient><radialGradient id="radial-gradient" cx="14.74" cy="13.78" r="15.46" xlink:href="#linear-gradient"/></defs><g class="cls-1"><g id="Layer_2" data-name="Layer 2"><g id="Layer_1-2" data-name="Layer 1"><path class="cls-2" d="M10,20A10,10,0,1,1,20,10,10,10,0,0,1,10,20Z"/><path class="cls-3" d="M9.12,18.78a10,10,0,0,1-6.7-4c-.19-.27-1-1.89.09-1.47.92.35,1.47,1.29,2.34,1.76C7.44,16.5,10.59,16.92,13,15a3.08,3.08,0,0,1,.6-.42,1.34,1.34,0,0,1,1.77.83c.15.68-.62,1.74-1.09,2.17a5,5,0,0,1-1.79.95A8,8,0,0,1,9.12,18.78Z"/><path class="cls-4" d="M9,.33A9.71,9.71,0,0,0,7.65.59,10.18,10.18,0,0,0,4.11,2.17,9.08,9.08,0,0,0,2.63,3.84L1.38,5.5A3.48,3.48,0,0,0,.6,7a2.15,2.15,0,0,0,1.64,2.3c1.53.38,2.83-.72,4-1.49a21.28,21.28,0,0,1,4.58-2.28,9.74,9.74,0,0,1,5.26-.45,5.26,5.26,0,0,1,1.79.72,4.15,4.15,0,0,1,1.71,2.41C19,5.71,17.68,3,15.26,1.78A11.25,11.25,0,0,0,9,.33Z"/><path class="cls-5" d="M5.64,2.88a.37.37,0,0,0-.29,0c-.8.08-1.09.79-1.42,1.4a9,9,0,0,0-.84,2.2A10.52,10.52,0,0,1,4,4.61c.44-.77.81-.75,1.48-1.15.19-.12.38-.36.24-.53A.12.12,0,0,0,5.64,2.88Z"/><path class="cls-5" d="M6.17,2.61A.3.3,0,0,0,5.92,3a.52.52,0,0,0,.38.17.26.26,0,1,0-.21-.47Z"/><text class="cls-6" transform="translate(6.92 13.43)">x</text></g></g></g></svg>