<svg width="64" height="64" viewBox="0 0 64 64" fill="none" xmlns="http://www.w3.org/2000/svg">
<path d="M13.345 22.4251C12.4651 22.6219 11.4874 22.7695 10.6075 22.4743C9.8743 22.2283 9.23882 21.6379 8.65223 21.1459C7.72346 20.3586 6.7947 19.5714 5.81705 18.8826C5.62152 18.735 5.42598 18.6366 5.23045 18.5874C4.98604 18.5382 4.74162 18.6366 4.64385 18.8826C4.59497 19.0794 4.69274 19.2762 4.74162 19.473C5.52374 20.9491 6.35475 22.4251 7.28352 23.8028C5.13269 24.2948 3.03074 24.9344 0.928782 25.7217C0.488838 25.8693 0 26.1645 0 26.6073C0 27.0501 0.391067 27.2961 0.831011 27.4437C1.80866 27.7881 2.88408 27.6405 3.91061 27.4437C5.13268 27.2469 6.35474 27.0501 7.57681 26.8533C6.59916 28.0834 5.71927 29.3626 4.88826 30.6418C4.54609 31.1831 4.20392 31.7735 4.20392 32.4131C4.20392 32.6099 4.25279 32.8559 4.39944 33.0035C4.54609 33.1019 4.69273 33.1019 4.88826 33.1019C5.67039 33.0527 6.25699 32.4131 6.7947 31.8719C8.11453 30.4942 9.43434 29.1166 11.1452 28.3786C13.6871 27.2469 16.5712 27.5913 19.3086 27.3453C20.6285 27.1977 22.0461 26.8533 22.926 25.8693C23.3659 25.3772 23.6103 24.7868 23.8059 24.1964C24.0014 23.5568 24.148 22.8187 24.0503 22.1299C23.9525 21.4411 23.6103 20.7523 23.0237 20.4079C21.8506 19.6698 20.1396 20.3095 18.9665 20.7523C17.2067 21.4411 15.3003 22.0315 13.345 22.4251Z" fill="#78A941"/>
<path d="M7.47913 22.768C8.21237 24.1456 7.52802 23.7028 7.33249 23.752C6.59925 22.6204 5.37718 20.6523 4.79059 19.4222C4.69282 19.2254 4.59508 19.0286 4.69284 18.8318C4.74173 18.6842 4.88835 18.5858 5.035 18.5366C5.71936 20.0127 6.55036 21.4395 7.47913 22.768Z" fill="#49703E"/>
<path d="M4.44847 31.6239C4.44847 31.7715 4.54622 31.9191 4.64398 32.0175C4.79063 32.1159 4.93728 32.1159 5.13281 32.1159C5.91493 32.0667 6.50154 31.4271 7.03925 30.8859C8.35908 29.5082 9.67889 28.1306 11.3898 27.3926C13.9317 26.2609 16.8158 26.6053 19.5532 26.3593C20.873 26.2117 22.2906 25.8673 23.1705 24.8833C23.6105 24.3912 23.8549 23.8008 24.0504 23.2104C24.0993 23.112 24.1482 22.9644 24.1482 22.8168C24.0993 23.2596 24.0015 23.7516 23.8549 24.1944C23.6593 24.7849 23.4149 25.4245 22.975 25.8673C22.0951 26.9005 20.6775 27.245 19.3577 27.3434C16.6202 27.6386 13.7362 27.245 11.1943 28.3766C9.48338 29.1638 8.11465 30.5415 6.8437 31.8699C6.30599 32.4111 5.71942 33.0508 4.9373 33.1C4.79065 33.1 4.59512 33.1 4.44847 33.0016C4.30182 32.854 4.25293 32.608 4.25293 32.4111C4.25293 32.1651 4.30182 31.8699 4.44847 31.6239Z" fill="#648E2E"/>
<path d="M0 26.5573C0 26.3113 0.146654 26.1145 0.342184 25.9669C0.488832 26.1637 0.73324 26.3113 0.977653 26.3605C1.95531 26.7049 3.03072 26.5573 4.05725 26.3605C5.27932 26.1637 6.50139 25.9669 7.72345 25.7701C9.09216 25.3273 7.82122 26.4097 7.57681 26.7541C6.55027 26.9017 4.88826 27.1477 3.91061 27.3445C2.88408 27.4921 1.80866 27.6397 0.831011 27.3445C0.43995 27.2953 0 27.0001 0 26.5573Z" fill="#49703E"/>
<g opacity="0.16">
<path opacity="0.16" d="M9.72725 22.8678C10.3627 23.409 11.2915 23.409 12.1225 23.2614C12.9535 23.1138 13.7356 22.8186 14.5666 22.8678C14.7621 22.8678 15.0554 22.9662 15.0554 23.2122C15.0554 23.3106 14.9577 23.409 14.9088 23.5074C14.5177 23.8518 13.98 23.9995 13.4423 24.0979C12.0247 24.2947 10.5583 23.9995 9.23843 23.3598C8.99401 23.2122 8.74959 23.1138 8.55406 22.8678C8.30964 22.5726 8.45631 22.179 8.84737 22.2282C9.23843 22.2774 9.48284 22.671 9.72725 22.8678Z" fill="white"/>
</g>
<g opacity="0.16">
<path opacity="0.16" d="M7.08827 20.2103C7.38157 20.5547 7.72376 20.8991 8.01705 21.2435C8.06594 21.2927 8.11481 21.3912 8.16369 21.4896C8.16369 21.588 8.16369 21.6864 8.06592 21.7356C8.01704 21.7848 7.96818 21.7356 7.87041 21.7356C7.72376 21.6864 7.57709 21.5388 7.47933 21.4404C7.18603 21.0959 6.84387 20.7515 6.55057 20.4071C6.45281 20.2595 6.25727 19.9151 6.4528 19.8659C6.69722 19.7675 6.99051 20.1119 7.08827 20.2103Z" fill="white"/>
</g>
<path d="M50.4461 18.4876C51.326 18.1432 52.2059 17.7496 52.7925 17.0607C53.2813 16.4211 53.4769 15.6339 53.7213 14.8467C54.0635 13.6658 54.4545 12.5342 54.8945 11.4025C54.9922 11.2057 55.09 10.9597 55.2366 10.8121C55.4322 10.6645 55.6766 10.6153 55.8721 10.7629C56.0188 10.9105 56.0676 11.1073 56.0676 11.3041C56.2143 12.977 56.2632 14.6498 56.2632 16.3227C58.3651 15.5847 60.4671 14.9451 62.6179 14.5022C63.0579 14.4038 63.6445 14.3546 63.8889 14.7482C64.1333 15.0927 63.9378 15.5847 63.6445 15.8799C63.009 16.7163 61.9825 17.1591 61.0537 17.5528C59.9294 18.0448 58.8051 18.586 57.6319 19.078C59.0984 19.57 60.516 20.1605 61.9336 20.8001C62.5202 21.0953 63.1067 21.3905 63.4489 21.9317C63.5467 22.1285 63.6445 22.3253 63.5956 22.5221C63.5467 22.6697 63.4 22.8174 63.2534 22.8666C62.569 23.211 61.738 23.0634 61.0048 22.8666C59.1961 22.4237 57.2897 21.9809 55.4322 22.2761C52.6948 22.719 50.4461 24.5886 48.002 25.8187C46.8288 26.4091 45.4601 26.9011 44.1403 26.5075C43.5048 26.3107 42.9671 25.9663 42.4783 25.5727C41.9406 25.1299 41.4517 24.6378 41.1584 23.9982C40.8651 23.3586 40.7674 22.6206 41.1096 21.9809C41.6962 20.7017 43.4559 20.3081 44.7269 20.062C46.6333 19.7668 48.5886 19.2256 50.4461 18.4876Z" fill="#78A941"/>
<path d="M55.5314 15.585C55.6781 17.1594 55.9714 16.4214 56.2158 16.323C56.2158 14.9945 56.1669 12.6328 56.0203 11.3044C56.0203 11.1076 55.9714 10.8616 55.8247 10.7632C55.6781 10.6648 55.5314 10.6648 55.3848 10.714C55.5314 12.3376 55.5803 13.9613 55.5314 15.585Z" fill="#49703E"/>
<path d="M62.8646 21.3909C62.9135 21.5385 62.9624 21.6861 62.9135 21.8337C62.8646 21.9813 62.718 22.1289 62.5713 22.1781C61.887 22.5225 61.056 22.3749 60.3227 22.1781C58.5141 21.7353 56.6077 21.2925 54.7501 21.5877C52.0127 22.0305 49.7641 23.9002 47.3199 25.1302C46.1468 25.7206 44.7781 26.2127 43.4582 25.819C42.8228 25.6222 42.285 25.2778 41.7962 24.8842C41.6984 24.7858 41.6007 24.7366 41.5029 24.6382C41.7962 25.0318 42.1384 25.327 42.4806 25.6222C42.9694 26.0159 43.5071 26.4095 44.1426 26.5571C45.4135 26.9507 46.7822 26.4587 48.0043 25.8682C50.4484 24.6382 52.6971 22.7193 55.4345 22.3257C57.292 22.0305 59.1984 22.4733 61.0071 22.9161C61.7403 23.1129 62.5713 23.2605 63.2557 22.9161C63.4024 22.8177 63.549 22.7193 63.5979 22.5717C63.6468 22.3749 63.5979 22.1289 63.4512 21.9813C63.3046 21.7353 63.1091 21.5385 62.8646 21.3909Z" fill="#648E2E"/>
<path d="M63.8406 14.699C63.6939 14.5022 63.4984 14.4037 63.254 14.4037C63.2051 14.6498 63.1073 14.8958 62.9118 15.0926C62.2763 15.929 61.2498 16.3718 60.321 16.7654C59.1967 17.2575 58.0724 17.7987 56.8992 18.2907C55.5305 18.6351 57.1436 18.8811 57.5836 19.0287C58.5123 18.6351 60.0766 17.9463 61.0054 17.5035C61.9341 17.0607 62.9607 16.6178 63.5962 15.8306C63.8895 15.5354 64.085 15.0926 63.8406 14.699Z" fill="#49703E"/>
<path d="M16.3752 9.18843C15.7886 7.85998 15.4464 6.33471 15.7397 4.85865C16.033 3.3826 17.1573 2.30015 18.4283 1.61133C21.9478 -0.159943 24.4897 3.1366 25.0274 3.77622C25.614 4.46505 26.1517 5.20307 26.6406 5.9411C26.9827 6.48232 27.3249 7.07274 27.3249 7.76156C27.3249 8.20438 27.1294 8.6472 26.9339 9.04082C25.8096 11.3041 23.6098 13.0262 21.1657 13.5674C18.966 14.0594 17.1573 10.9105 16.3752 9.18843Z" fill="#78A941"/>
<path d="M22.4859 5.45082C22.828 6.87768 21.9482 8.25533 20.5795 8.59974C19.1619 8.94415 17.7931 8.05852 17.451 6.68087C17.1088 5.25401 17.9887 3.87636 19.3574 3.53195C20.7261 3.18754 22.1437 4.07317 22.4859 5.45082Z" fill="#49703E"/>
<path d="M22.2905 4.95936C22.6327 6.38622 21.7528 7.81307 20.3352 8.15749C18.9176 8.5019 17.5 7.61627 17.1578 6.18941C16.8157 4.76256 17.6955 3.3357 19.1131 2.99129C20.5307 2.69607 21.9483 3.58171 22.2905 4.95936Z" fill="white"/>
<path d="M21.0683 3.33521C21.2639 3.63042 21.4105 3.92564 21.5083 4.27005C21.8504 5.69691 20.9706 7.12376 19.553 7.46818C18.8686 7.61578 18.1354 7.51738 17.5977 7.17296C18.1842 8.0094 19.2597 8.40301 20.3351 8.157C21.7527 7.81259 22.6326 6.38573 22.2904 4.95888C22.0949 4.27005 21.6549 3.67962 21.0683 3.33521Z" fill="#EAEAEA"/>
<path d="M21.5085 5.35261C21.704 6.23824 21.1663 7.17308 20.2865 7.36989C19.4066 7.5667 18.4778 7.02548 18.2823 6.13984C18.0867 5.25421 18.6245 4.31937 19.5043 4.12256C20.3842 3.92575 21.2641 4.46698 21.5085 5.35261Z" fill="#303030"/>
<path d="M18.624 5.45268C18.5262 5.64949 18.5262 5.8463 18.5751 5.9939C18.624 6.09231 18.6728 6.19071 18.7706 6.23991C18.8684 6.28911 19.015 6.23991 19.0639 6.1415C19.1128 6.0923 19.0639 5.9939 19.0639 5.9447C19.0639 5.74789 19.0639 5.55108 19.1617 5.35427C19.2594 5.20666 19.3572 5.10827 19.3572 4.96066C19.3572 4.91146 19.3572 4.91145 19.3083 4.91145C19.2594 4.86225 19.1617 4.91145 19.1128 4.91145C18.8684 5.00986 18.7217 5.20667 18.624 5.45268Z" fill="white"/>
<path d="M19.7 4.56516C19.6511 4.56516 19.6023 4.61437 19.6023 4.61437C19.5534 4.71277 19.6023 4.76197 19.6512 4.81117C19.7 4.86037 19.7978 4.86037 19.8956 4.86037C20.0422 4.81117 20.14 4.71277 20.14 4.61437C20.14 4.56516 20.14 4.56517 20.14 4.51597L20.0911 4.46677C19.9445 4.41756 19.7489 4.41757 19.6512 4.51597L19.7 4.56516Z" fill="white"/>
<path d="M26.6403 5.99138C26.1515 5.25335 25.6138 4.51531 25.0272 3.82648C24.5383 3.23606 22.2408 0.283945 19.0635 1.41559C19.3079 1.46479 19.6501 1.41559 19.7478 1.41559C20.3344 1.46479 20.921 1.56319 21.4587 1.8584C22.2409 2.25202 22.8763 2.84245 23.4629 3.53128C24.5383 4.85973 25.2227 6.48339 25.4182 8.15626C25.8582 7.56583 26.5425 7.22141 27.1291 6.77859C26.9336 6.48338 26.7869 6.23739 26.6403 5.99138Z" fill="#648E2E"/>
<path d="M36.7591 3.383C37.4924 2.10375 38.5189 0.922911 39.8876 0.332488C41.2563 -0.257935 42.7717 -0.0119348 44.0915 0.676892C47.5622 2.54656 46.389 6.53192 46.1446 7.36836C45.9002 8.25399 45.6558 9.09043 45.3136 9.92686C45.0692 10.5173 44.7759 11.1569 44.2382 11.5505C43.896 11.7965 43.4072 11.8949 42.9672 11.9933C40.5231 12.3869 37.7857 11.5997 35.977 9.87766C34.3639 8.3524 35.8303 5.00666 36.7591 3.383Z" fill="#78A941"/>
<path d="M41.3545 7.12123C42.7853 7.12123 43.9452 5.95373 43.9452 4.51353C43.9452 3.07334 42.7853 1.90582 41.3545 1.90582C39.9236 1.90582 38.7637 3.07334 38.7637 4.51353C38.7637 5.95373 39.9236 7.12123 41.3545 7.12123Z" fill="#49703E"/>
<path d="M43.6024 5.79384C42.6248 6.87628 41.0117 7.02388 39.8874 6.03984C38.8119 5.05581 38.6653 3.43216 39.6429 2.30051C40.6206 1.21807 42.2337 1.07046 43.358 2.0545C44.4823 3.03854 44.5801 4.71139 43.6024 5.79384Z" fill="white"/>
<path d="M44.2377 3.87448C44.1399 4.2189 43.9444 4.5141 43.7 4.80932C42.7223 5.89176 41.1092 6.03936 39.9849 5.05533C39.4472 4.56331 39.1539 3.92369 39.105 3.23486C38.7628 4.2189 39.0561 5.35054 39.8871 6.03936C40.9626 7.0234 42.6246 6.8758 43.6022 5.79335C44.091 5.25213 44.2866 4.56331 44.2377 3.87448Z" fill="#EAEAEA"/>
<path d="M41.5985 5.94144C42.5164 5.94144 43.2605 5.19248 43.2605 4.26858C43.2605 3.34468 42.5164 2.5957 41.5985 2.5957C40.6806 2.5957 39.9365 3.34468 39.9365 4.26858C39.9365 5.19248 40.6806 5.94144 41.5985 5.94144Z" fill="#303030"/>
<path d="M41.1091 3.08806C40.9135 3.13726 40.718 3.23567 40.6202 3.38328C40.5713 3.48168 40.5225 3.58009 40.5225 3.7277C40.5713 3.8261 40.6691 3.9245 40.7669 3.9245C40.8158 3.9245 40.8646 3.87529 40.9624 3.82609C41.109 3.67849 41.3046 3.58008 41.5001 3.58008C41.6468 3.58008 41.8423 3.58009 41.94 3.48169C41.94 3.48169 41.9889 3.43248 41.9889 3.38328C41.9889 3.33407 41.9401 3.28488 41.8912 3.23568C41.6468 3.03887 41.4024 3.03886 41.1091 3.08806Z" fill="white"/>
<path d="M42.429 3.43251C42.429 3.3833 42.3312 3.3833 42.3312 3.3833C42.2335 3.3833 42.1846 3.4817 42.1846 3.58011C42.1846 3.67851 42.2335 3.72772 42.2823 3.77693C42.3801 3.87533 42.5268 3.92452 42.6245 3.82611C42.6734 3.82611 42.6734 3.77693 42.6734 3.77693V3.72772C42.6245 3.58011 42.5268 3.4325 42.3801 3.3833L42.429 3.43251Z" fill="white"/>
<path d="M45.3132 9.97732C45.6554 9.14088 45.8998 8.25526 46.1442 7.41883C46.3398 6.63159 47.4152 3.08905 44.6778 1.12097C44.7755 1.36698 45.0199 1.61299 45.0688 1.6622C45.3621 2.15421 45.6065 2.69544 45.7043 3.28587C45.8509 4.1715 45.7532 5.05713 45.5088 5.89356C45.0688 7.51723 44.14 8.99329 42.918 10.1741C43.6512 10.1741 43.5046 12.339 44.2378 12.585C44.2867 12.2898 45.2155 10.2233 45.3132 9.97732Z" fill="#648E2E"/>
<path d="M21.6059 59.1294C21.6059 59.523 21.6059 59.9658 21.8014 60.3102C21.9481 60.7038 22.2902 60.999 22.5835 61.2942C24.4411 62.9179 26.8852 64.0003 29.3782 64.0003C41.3056 64.0003 43.6031 59.8674 43.7008 59.523C43.7986 59.2278 43.7986 58.9326 43.7497 58.6373C43.5053 56.0296 43.2609 53.3727 43.0654 50.765C42.9187 49.3874 42.821 47.9605 42.0877 46.7305C40.6212 44.172 37.2972 43.5324 34.3642 43.3847C31.4313 43.2371 28.4006 43.3355 25.7609 44.6148C19.9439 47.4685 21.4592 53.7664 21.6059 59.1294Z" fill="#EDAC80"/>
<path d="M43.7017 59.326C43.7995 59.0307 43.7995 58.7355 43.7506 58.4403C43.6039 56.7182 43.4573 55.0454 43.3107 53.3233C42.9196 53.0773 42.4796 52.8805 42.0397 52.6837C39.4489 51.6997 36.7115 51.3061 33.9252 51.0108C31.5788 50.814 29.1836 50.7156 26.8372 51.1584C25.0286 51.5029 22.6822 52.2901 21.3135 53.6677C21.3624 54.7502 21.4112 55.8326 21.509 56.9151C22.0467 57.3087 22.7311 57.4563 23.4643 57.5547C28.6947 58.1943 33.8763 58.7847 39.1067 59.4244C40.1822 59.572 41.3065 59.6704 42.333 60.1132C42.5285 60.2116 42.724 60.31 42.9196 60.4084C43.4573 59.818 43.6528 59.4244 43.7017 59.326Z" fill="#C9936F"/>
<path d="M18.0373 13.6658C19.5527 8.0568 24.6854 5.64592 26.4451 5.2031C30.8935 4.02225 39.2524 4.80948 42.6742 8.54882C49.9088 16.4211 49.6155 47.5167 49.42 48.4024C48.7845 51.4529 45.9493 53.2734 43.2607 54.3066C37.3948 56.5699 30.8935 56.8651 24.8809 55.2906C22.2901 54.6018 18.3795 53.6178 16.3753 51.6005C15.4465 50.7149 15.7398 48.8452 15.691 47.6151C15.6421 45.6471 15.6421 43.679 15.691 41.7601C15.8376 37.2335 16.3264 20.0129 18.0373 13.6658Z" fill="#78A941"/>
<path d="M42.7242 8.54951C41.2577 6.92585 38.8625 5.89261 36.2717 5.30219C37.3471 5.84341 38.2759 6.48303 38.9602 7.27026C46.1949 15.1426 45.9016 46.2382 45.706 47.1238C45.0706 50.1743 42.2354 51.9948 39.5468 53.028C33.6809 55.2913 27.1795 55.5865 21.1669 54.0121C20.6292 53.8645 20.0915 53.7169 19.4561 53.5693C21.2647 54.3565 23.3178 54.8977 24.882 55.3405C30.9435 56.915 37.396 56.6198 43.2619 54.3565C45.9505 53.3233 48.8345 51.5028 49.4211 48.4523C49.6167 47.5174 49.9588 16.4218 42.7242 8.54951Z" fill="#648E2E"/>
<path d="M23.3167 14.2081C23.2678 14.2081 23.219 14.2081 23.1701 14.1589C22.9746 13.9129 22.9257 13.8145 22.9257 13.8145C22.8768 13.7161 22.8768 13.6177 22.9745 13.5685C23.0723 13.5193 23.1701 13.5193 23.219 13.6177C23.219 13.6177 23.3167 13.7653 23.4634 13.9621C23.5122 14.0605 23.5123 14.1589 23.4145 14.2081C23.3656 14.1589 23.3656 14.2081 23.3167 14.2081Z" fill="#303030"/>
<path d="M32.0674 18.1933H31.9207C31.823 18.1933 31.7252 18.0949 31.7252 17.9965C31.7252 17.8981 31.823 17.7997 31.9207 17.7997H32.0185C32.2629 17.7997 32.5074 17.7997 32.8007 17.7997C32.8984 17.7997 32.9962 17.8489 32.9962 17.9965C32.9962 18.0949 32.9473 18.1933 32.8007 18.1933C32.6051 18.1933 32.3607 18.1933 32.0674 18.1933ZM31.0409 18.1441C30.7476 18.1441 30.4054 18.0949 30.1121 18.0457C30.0143 18.0457 29.9654 17.9473 29.9654 17.8489C29.9654 17.7505 30.0632 17.7013 30.161 17.7013C30.4543 17.7505 30.7476 17.7997 31.0409 17.7997C31.1386 17.7997 31.2364 17.8981 31.1875 17.9965C31.2364 18.0457 31.1386 18.1441 31.0409 18.1441ZM33.7294 18.0949C33.6316 18.0949 33.5828 18.0457 33.5339 17.9473C33.5339 17.8489 33.5828 17.7505 33.6805 17.7505C33.9738 17.7013 34.2671 17.6521 34.5604 17.6029C34.6582 17.6029 34.756 17.6521 34.756 17.7505C34.756 17.8489 34.7071 17.9473 34.6093 17.9473C34.3649 17.9965 34.0716 18.0457 33.7294 18.0949C33.7783 18.0949 33.7294 18.0949 33.7294 18.0949ZM29.2811 17.8981C28.9389 17.8489 28.6456 17.7505 28.3523 17.6521C28.2545 17.6029 28.2057 17.5045 28.2545 17.4061C28.3034 17.3077 28.4012 17.2585 28.499 17.3077C28.7923 17.4061 29.0856 17.4553 29.33 17.5537C29.4277 17.5537 29.4766 17.6521 29.4766 17.7505C29.4766 17.7997 29.3789 17.8981 29.2811 17.8981ZM35.4892 17.7505C35.3914 17.7505 35.3425 17.7013 35.2937 17.6029C35.2448 17.5045 35.3425 17.4061 35.4403 17.3569C35.7336 17.2585 36.0269 17.2093 36.2713 17.0617C36.3691 17.0125 36.4668 17.0617 36.5157 17.1601C36.5646 17.2585 36.5157 17.3569 36.418 17.4061C36.1247 17.5045 35.8314 17.6029 35.5381 17.7013C35.5381 17.7505 35.4892 17.7505 35.4892 17.7505ZM27.5702 17.3569H27.5213C27.228 17.2585 26.9836 17.1109 26.6903 16.9633C26.5926 16.9141 26.5437 16.8157 26.5926 16.7173C26.6414 16.6189 26.7392 16.5697 26.837 16.6189C27.0814 16.7665 27.3747 16.8649 27.6191 16.9633C27.7168 17.0125 27.7657 17.1109 27.7168 17.2093C27.7168 17.3077 27.668 17.3569 27.5702 17.3569ZM37.1512 17.1109C37.1023 17.1109 37.0045 17.0617 37.0045 17.0125C36.9557 16.9141 37.0046 16.8157 37.1023 16.7665C37.3467 16.6189 37.64 16.5205 37.8844 16.3237C37.9822 16.2745 38.08 16.3236 38.1288 16.3728C38.1777 16.4712 38.1289 16.5697 38.08 16.6189C37.8356 16.7665 37.5422 16.9141 37.2978 17.0617C37.2001 17.1109 37.2001 17.1109 37.1512 17.1109ZM26.006 16.5697C25.9571 16.5697 25.9571 16.5697 25.9082 16.5205C25.6638 16.3729 25.3705 16.176 25.1749 16.0284C25.0772 15.9792 25.0772 15.8316 25.1261 15.7824C25.175 15.684 25.3216 15.684 25.3705 15.7332C25.6149 15.93 25.8593 16.0776 26.1037 16.2252C26.2015 16.2744 26.2015 16.3729 26.1526 16.4713C26.1037 16.5205 26.0548 16.5697 26.006 16.5697ZM38.7154 16.176C38.6666 16.176 38.6177 16.1268 38.5688 16.0776C38.5199 15.9792 38.5199 15.8808 38.6177 15.8316C38.8621 15.6348 39.0576 15.4872 39.302 15.2904C39.3998 15.2412 39.4976 15.2412 39.5465 15.2904C39.5953 15.3888 39.5953 15.4872 39.5465 15.5364C39.302 15.7332 39.1065 15.93 38.8621 16.1268C38.7643 16.176 38.7154 16.176 38.7154 16.176ZM24.5395 15.4872C24.4906 15.4872 24.4417 15.4872 24.4417 15.438C24.1973 15.2412 24.0018 15.0444 23.7574 14.7984C23.7085 14.7492 23.7085 14.6016 23.7574 14.5524C23.8062 14.5032 23.9529 14.5032 24.0018 14.5524C24.1973 14.7492 24.3928 14.946 24.6372 15.1428C24.735 15.192 24.735 15.3396 24.6372 15.3888C24.6372 15.4872 24.5884 15.4872 24.5395 15.4872ZM40.0353 14.946C39.9864 14.946 39.9375 14.946 39.9375 14.8968C39.8397 14.8476 39.8397 14.7 39.9375 14.6508C40.133 14.454 40.3286 14.208 40.4752 13.962C40.5241 13.8636 40.6707 13.8635 40.7196 13.9127C40.8174 13.962 40.8174 14.1096 40.7685 14.1588C40.573 14.4048 40.3775 14.6508 40.1819 14.8968C40.133 14.946 40.0842 14.946 40.0353 14.946Z" fill="#303030"/>
<path d="M41.0616 13.52C41.0127 13.52 41.0127 13.52 40.9638 13.52C40.866 13.4708 40.866 13.3724 40.9149 13.274C41.0616 13.028 41.1105 12.9296 41.1105 12.9296C41.1594 12.8312 41.2571 12.782 41.3549 12.8312C41.4526 12.8804 41.5015 12.9788 41.4526 13.0772C41.4526 13.0772 41.4038 13.2248 41.2571 13.4708C41.2082 13.4708 41.1105 13.52 41.0616 13.52Z" fill="#303030"/>
<path d="M29.0356 9.38624C29.0356 9.87826 29.1822 10.4195 29.4755 10.8131C29.6222 10.3211 29.7199 9.77985 29.7199 9.23863C29.7199 8.74661 29.6711 8.10699 29.3778 7.71338C29.0356 7.91019 28.9867 9.04183 29.0356 9.38624Z" fill="#49703E"/>
<path d="M32.8486 9.38624C32.8486 9.87826 32.9953 10.4195 33.2886 10.8131C33.4352 10.3211 33.533 9.77985 33.533 9.23863C33.533 8.74661 33.4841 8.10699 33.1908 7.71338C32.8486 7.91019 32.8486 9.04183 32.8486 9.38624Z" fill="#49703E"/>
<g opacity="0.16">
<path opacity="0.16" d="M53.6736 16.8644C53.4292 17.6517 52.6471 18.1437 51.865 18.4881C51.0828 18.7833 50.2518 19.0293 49.6164 19.5213C49.4208 19.669 49.2742 19.8657 49.3719 20.0626C49.4208 20.161 49.5675 20.2102 49.6653 20.2102C50.203 20.3086 50.7407 20.1118 51.1806 19.915C52.4516 19.2753 53.5759 18.2421 54.3091 17.012C54.4558 16.766 54.6024 16.52 54.6024 16.2248C54.6513 15.8804 54.3091 15.5852 54.0158 15.8312C53.7714 16.1264 53.7714 16.5692 53.6736 16.8644Z" fill="white"/>
</g>
<g opacity="0.16">
<path opacity="0.16" d="M54.5044 13.2238C54.4067 13.6666 54.3578 14.1587 54.26 14.6015C54.26 14.6999 54.2111 14.7983 54.26 14.8475C54.3089 14.9459 54.3578 14.9951 54.4555 14.9951C54.5044 14.9951 54.5533 14.9459 54.6022 14.8967C54.7 14.7491 54.7488 14.6015 54.7488 14.4047C54.8466 13.9618 54.8955 13.4698 54.9932 13.027C55.0421 12.8794 54.9932 12.4858 54.7488 12.535C54.5533 12.6334 54.5044 13.0762 54.5044 13.2238Z" fill="white"/>
</g>
<path d="M26.6411 31.7725C26.2012 32.5597 25.9567 33.4453 25.7612 34.331C25.4679 35.7086 25.2724 37.1355 25.3702 38.5131C25.4679 40.4812 26.1523 42.4001 27.1788 44.1222C27.7165 45.1062 28.4009 45.9918 29.3296 46.6315C30.3562 47.3203 31.6271 47.6155 32.8492 47.8123C33.8757 47.9599 35 48.0091 35.9777 47.6647C37.1509 47.2711 38.0308 46.3855 38.7151 45.3522C40.3771 42.8921 40.8171 39.7924 41.0126 36.8403C41.1104 35.4134 41.1104 33.9866 40.7193 32.6089C40.5726 32.0185 40.3282 31.4773 39.9372 31.0345C39.595 30.5916 39.1062 30.2472 38.6173 29.952C35.1956 27.8855 28.8897 27.9347 26.6411 31.7725Z" fill="#49703E"/>
<path d="M25.4673 30.5426C25.0274 31.3298 24.7829 32.2154 24.5874 33.1011C24.2941 34.4787 24.0986 35.9056 24.1963 37.2832C24.2941 39.2513 24.9785 41.1702 26.005 42.8923C26.5427 43.8763 27.2271 44.7619 28.1558 45.4016C29.1824 46.0904 30.4533 46.3856 31.6754 46.5824C32.7019 46.73 33.8262 46.7792 34.8039 46.4348C35.9771 46.0412 36.8569 45.1556 37.5413 44.1223C39.2033 41.6622 39.6432 38.5625 39.8388 35.6104C39.9365 34.1835 39.9366 32.7567 39.5455 31.379C39.3988 30.7886 39.1544 30.2474 38.7634 29.8046C38.4212 29.3617 37.9324 29.0173 37.4435 28.7221C33.9729 26.6556 27.7159 26.754 25.4673 30.5426Z" fill="#82BC37"/>
<path d="M33.631 45.9917C33.5332 45.9917 33.4843 45.9425 33.4843 45.8441C33.4843 45.7457 33.5332 45.6473 33.631 45.6473C33.9732 45.5981 34.2665 45.5489 34.5109 45.4505C34.6576 45.4013 34.8042 45.3521 34.9508 45.2537C35.0486 45.2045 35.1464 45.2537 35.1952 45.3521C35.2441 45.4505 35.1952 45.5489 35.0975 45.5981C34.9508 45.6473 34.8042 45.7457 34.6575 45.7949C34.3154 45.8933 33.9732 45.9425 33.631 45.9917ZM32.2134 45.9917C32.1645 45.9917 32.1645 45.9917 32.2134 45.9917C32.0179 45.9917 31.8712 45.9425 31.6757 45.9425C31.3335 45.8933 31.0402 45.8441 30.7469 45.7949C30.6492 45.7949 30.6003 45.6965 30.6003 45.5981C30.6003 45.4997 30.698 45.4505 30.7958 45.4505C31.0891 45.4997 31.3824 45.5489 31.7246 45.5981C31.9201 45.5981 32.0668 45.6473 32.2134 45.6473C32.3112 45.6473 32.3601 45.7457 32.3601 45.8441C32.3601 45.8933 32.2623 45.9917 32.2134 45.9917ZM29.3782 45.3521H29.3293C28.9871 45.2045 28.645 45.0569 28.4006 44.8601C28.3028 44.7617 28.1562 44.7125 28.0584 44.6141C28.0095 44.5649 27.9606 44.4665 28.0095 44.368C28.0584 44.3188 28.1561 44.2696 28.2539 44.3188C28.3517 44.4172 28.4494 44.4665 28.5472 44.5649C28.7916 44.7617 29.1338 44.9093 29.4271 45.0569C29.5249 45.1061 29.5738 45.2045 29.5249 45.2537C29.5249 45.3029 29.476 45.3521 29.3782 45.3521ZM36.1729 44.7617C36.124 44.7617 36.0751 44.7617 36.0751 44.7125C36.0262 44.6633 36.0262 44.5648 36.0751 44.4664C36.3684 44.1712 36.6617 43.8268 36.955 43.4332C37.0039 43.3348 37.1017 43.3348 37.1994 43.384C37.2972 43.4332 37.2972 43.5316 37.2483 43.63C36.955 44.0728 36.6617 44.4172 36.3195 44.7617C36.2218 44.7617 36.2218 44.7617 36.1729 44.7617ZM27.1785 43.5808C27.1296 43.5808 27.0807 43.5808 27.0318 43.5316C26.7874 43.2364 26.5919 42.892 26.3475 42.4984C26.2986 42.4492 26.2497 42.3508 26.2497 42.3016C26.2008 42.2032 26.2497 42.1048 26.2986 42.0556C26.3964 42.0064 26.4941 42.0556 26.543 42.1048C26.5919 42.154 26.5919 42.2524 26.6408 42.3016C26.8852 42.6952 27.0807 42.9904 27.3251 43.2856C27.374 43.3348 27.374 43.4824 27.2762 43.5316C27.2274 43.5808 27.2274 43.5808 27.1785 43.5808ZM37.786 42.4H37.7371C37.6394 42.3508 37.6394 42.2524 37.6394 42.154C37.8349 41.7603 38.0305 41.3175 38.1771 40.8255C38.226 40.7271 38.2748 40.6779 38.3726 40.7271C38.4704 40.7763 38.5193 40.8255 38.4704 40.9239C38.3237 41.4159 38.1282 41.8587 37.9327 42.3016C37.9327 42.4 37.8349 42.4 37.786 42.4ZM25.7609 41.0715C25.712 41.0715 25.6143 41.0223 25.6143 40.9731C25.4187 40.5303 25.2721 40.0383 25.1254 39.5955C25.0765 39.4971 25.1743 39.3987 25.2232 39.3987C25.321 39.3495 25.4187 39.4478 25.4187 39.497C25.5654 39.9399 25.712 40.3827 25.9075 40.8255C25.9564 40.9239 25.9075 41.0223 25.8098 41.0223C25.8098 41.0715 25.7609 41.0715 25.7609 41.0715ZM38.7148 39.6939C38.6659 39.6939 38.6659 39.6939 38.7148 39.6939C38.5681 39.6939 38.5193 39.5955 38.5682 39.497C38.6659 39.0542 38.7637 38.5622 38.8126 38.0702C38.8126 37.9718 38.9103 37.9226 39.0081 37.9226C39.1058 37.9226 39.1548 38.021 39.1548 38.1194C39.1059 38.6114 39.0081 39.1034 38.9103 39.5463C38.8615 39.6447 38.7637 39.6939 38.7148 39.6939ZM24.9788 38.3162C24.881 38.3162 24.8321 38.267 24.8321 38.1686C24.7832 37.8734 24.7344 37.5782 24.7344 37.283C24.7344 37.0862 24.7344 36.8894 24.7344 36.6925C24.7344 36.5941 24.7833 36.5449 24.881 36.5449C24.9788 36.5449 25.0277 36.6433 25.0277 36.6925C25.0277 36.8894 25.0277 37.0862 25.0277 37.2338C25.0277 37.529 25.0765 37.8242 25.1254 38.0702C25.1254 38.2178 25.0766 38.3162 24.9788 38.3162ZM39.1059 36.8401C39.1059 36.8401 39.057 36.8401 39.1059 36.8401C39.0081 36.8401 38.9103 36.7417 38.9592 36.6433C38.9592 36.3481 39.0081 36.0529 39.0081 35.7085C39.0081 35.5117 39.0081 35.3641 39.0081 35.1673C39.0081 35.0689 39.1059 35.0197 39.2036 35.0197C39.3014 35.0197 39.3503 35.1181 39.3503 35.2165C39.3503 35.4133 39.3503 35.5609 39.3503 35.7577C39.3503 36.1021 39.3014 36.3973 39.3014 36.6925C39.2525 36.7418 39.1547 36.8401 39.1059 36.8401ZM24.9299 35.4625C24.8321 35.4625 24.7344 35.3641 24.7832 35.2657C24.8321 34.8229 24.9299 34.3308 25.0277 33.8388C25.0277 33.7404 25.1254 33.6912 25.2232 33.6912C25.321 33.6912 25.3698 33.7896 25.3698 33.888C25.2721 34.3801 25.2232 34.8721 25.1743 35.3149C25.0765 35.3641 25.0277 35.4625 24.9299 35.4625ZM39.1548 33.9372C39.057 33.9372 39.0081 33.888 39.0081 33.7896C38.9592 33.2976 38.9103 32.8056 38.8126 32.3628C38.8126 32.2644 38.8614 32.166 38.9592 32.166C39.057 32.166 39.1548 32.2152 39.1548 32.3136C39.2525 32.7564 39.3014 33.2484 39.3503 33.7896C39.3503 33.8388 39.2525 33.9372 39.1548 33.9372ZM25.4676 32.6088C25.321 32.5596 25.2721 32.4612 25.3209 32.412C25.4676 31.8708 25.6631 31.4279 25.9075 31.0343C25.9564 30.9359 26.0542 30.9359 26.152 30.9851C26.2497 31.0343 26.2497 31.1327 26.2009 31.2311C26.0053 31.5755 25.8098 32.0184 25.6631 32.5104C25.6142 32.5596 25.5654 32.6088 25.4676 32.6088ZM38.5193 31.1819C38.4704 31.1819 38.4215 31.1327 38.3726 31.0835C38.2748 30.8867 38.1771 30.6899 38.0304 30.5423C37.8838 30.3455 37.6883 30.1979 37.4927 30.0011C37.4438 29.9519 37.395 29.8535 37.4439 29.7551C37.4927 29.7059 37.5905 29.6567 37.6883 29.7059C37.9327 29.9027 38.1282 30.0503 38.2748 30.2963C38.4215 30.4931 38.5193 30.6899 38.6659 30.8867C38.7148 30.9851 38.6659 31.0835 38.617 31.1327C38.5681 31.1327 38.5193 31.1819 38.5193 31.1819ZM26.9341 30.1979C26.8852 30.1979 26.8363 30.1979 26.8363 30.1487C26.7874 30.0995 26.7874 29.9519 26.8363 29.9027C27.1785 29.5583 27.5695 29.2631 28.0095 29.017C28.1073 28.9678 28.205 29.0171 28.2539 29.0663C28.3028 29.1647 28.2539 29.2631 28.205 29.3123C27.7651 29.5583 27.4229 29.8043 27.0807 30.1487C26.983 30.1979 26.9341 30.1979 26.9341 30.1979ZM36.3684 29.3123H36.3195C35.9285 29.1155 35.4886 28.9678 34.9997 28.8202C34.902 28.771 34.8531 28.7218 34.902 28.6234C34.9508 28.525 34.9997 28.4758 35.0975 28.525C35.5863 28.6726 36.0263 28.8202 36.4662 29.0663C36.564 29.1155 36.5639 29.2139 36.5639 29.3123C36.5151 29.2631 36.4662 29.3123 36.3684 29.3123ZM29.3782 28.771C29.3293 28.771 29.2316 28.7218 29.2316 28.6726C29.1827 28.5742 29.2316 28.4758 29.3293 28.4758C29.7693 28.3282 30.2581 28.2298 30.7469 28.1806C30.8447 28.1806 30.9424 28.2298 30.9424 28.3282C30.9424 28.4266 30.8936 28.525 30.7958 28.525C30.307 28.5742 29.867 28.6726 29.4271 28.8202C29.4271 28.771 29.4271 28.771 29.3782 28.771ZM33.631 28.4758C33.1422 28.4266 32.6534 28.3774 32.2134 28.3774C32.1156 28.3774 32.0668 28.279 32.0668 28.2298C32.0668 28.1314 32.1156 28.0822 32.2134 28.0822C32.7022 28.0822 33.1911 28.1314 33.6799 28.1806C33.7777 28.1806 33.8265 28.279 33.8265 28.3774C33.7777 28.4266 33.7288 28.4758 33.631 28.4758Z" fill="#303030"/>
<g opacity="0.16">
<path opacity="0.16" d="M19.5039 14.5018C19.5039 14.9446 19.5039 15.4366 19.7483 15.8302C19.9927 16.2239 20.5304 16.4207 20.9215 16.2238C21.0681 16.1254 21.2148 15.9778 21.3126 15.8302C21.7525 15.0922 21.7525 14.2066 21.9969 13.3701C22.4369 11.7465 23.6589 10.4672 24.8321 9.23717C25.1254 8.94196 25.4187 8.44995 25.1254 8.20394C25.0276 8.10554 24.9299 8.10553 24.8321 8.05633C23.2679 7.61351 22.0458 8.84356 21.1659 9.9752C20.1882 11.2545 19.5528 12.8781 19.5039 14.5018Z" fill="white"/>
</g>
<g opacity="0.16">
<path opacity="0.16" d="M25.5167 7.02415C25.8588 7.27016 26.3477 7.41778 26.7387 7.22097C26.9343 7.12257 27.0809 7.02416 27.2275 6.92576C27.5697 6.72895 27.9608 6.67974 28.3518 6.58134C28.7429 6.48293 29.134 6.28613 29.2806 5.89251C29.3295 5.74491 29.3295 5.5481 29.2317 5.4497C29.1828 5.4005 29.0851 5.4005 28.9873 5.4005C28.1074 5.35129 27.2764 5.59731 26.4943 5.94172C26.2499 6.08932 25.0278 6.67974 25.5167 7.02415Z" fill="white"/>
</g>
</svg>
