<svg width="60" height="60" viewBox="0 0 60 60" fill="none" xmlns="http://www.w3.org/2000/svg">
<path d="M52.5 10.2413C53.85 13.4887 54.6 17.0857 54.6 20.8326C54.6 22.4313 54.45 23.98 54.2 25.5287C54.1 26.0283 54 26.5279 53.9 27.0774C56 29.2756 57.9 31.9235 59.55 35.1209C59.85 33.4722 60 31.7736 60 30.075C60 22.4313 57.15 15.537 52.5 10.2413Z" fill="#34A5CF"/>
<path d="M16.9994 54.5546C16.8994 54.1049 16.8494 53.6553 16.7994 53.1558C16.7494 52.906 16.7494 52.6562 16.6994 52.4064C16.6494 52.0067 16.5994 51.5571 16.5494 51.1574C16.4994 50.9076 16.4994 50.6079 16.4994 50.3581C16.4494 49.9584 16.4494 49.5587 16.3994 49.159C16.3994 48.9093 16.3494 48.6095 16.3494 48.3597C16.3494 47.96 16.2994 47.6103 16.2994 47.2106C16.2994 46.9608 16.2994 46.7111 16.2994 46.4613C15.9494 46.3114 15.5994 46.1615 15.2494 46.0116C8.84942 43.064 3.69942 37.7684 1.04941 31.2238C0.749414 31.7234 0.399414 32.2729 0.149414 32.8225C1.19941 43.6635 8.04942 52.856 17.5494 57.1525C17.3994 56.453 17.2494 55.7536 17.1494 55.1042C17.0994 55.0042 17.0494 54.8044 16.9994 54.5546Z" fill="#F9D023"/>
<path d="M39.4988 45.5121C35.6988 47.4604 31.3488 48.5595 26.7988 48.5595C23.0988 48.5595 19.5488 47.8102 16.2988 46.5112C16.2988 46.761 16.2988 47.0108 16.2988 47.2606C16.2988 47.6603 16.3488 48.01 16.3488 48.4097C16.3488 48.6595 16.3488 48.9093 16.3988 49.209C16.4488 49.6087 16.4488 50.0084 16.4988 50.408C16.4988 50.6578 16.5488 50.9576 16.5488 51.2074C16.5988 51.607 16.6488 52.0067 16.6988 52.4563C16.7488 52.7061 16.7488 52.9559 16.7988 53.2057C16.8488 53.6554 16.9488 54.105 16.9988 54.6046C17.0488 54.8044 17.0488 55.0542 17.0988 55.254C17.1988 55.9535 17.3488 56.6029 17.4988 57.3023C21.2988 59.0509 25.4988 60.0001 29.9488 60.0001C34.8988 60.0001 39.5488 58.8011 43.6488 56.7028C43.3988 52.4064 42.5488 48.3097 41.2988 44.5129C40.7488 44.8626 40.0988 45.2123 39.4988 45.5121Z" fill="#78A941"/>
<path d="M16.5498 51.2084C16.5998 51.6081 16.6498 52.0078 16.6998 52.4574C16.6498 52.0078 16.5998 51.6081 16.5498 51.2084Z" fill="#9FB600"/>
<path d="M16.7998 53.2065C16.8498 53.6561 16.9498 54.1058 16.9998 54.6054C16.9498 54.1058 16.8498 53.6561 16.7998 53.2065Z" fill="#9FB600"/>
<path d="M16.2988 47.2601C16.2988 47.6597 16.3488 48.0095 16.3488 48.4091C16.3488 48.0594 16.2988 47.6597 16.2988 47.2601Z" fill="#9FB600"/>
<path d="M17.5504 57.3022C17.4004 56.6028 17.2504 55.9034 17.1504 55.2539C17.2504 55.9034 17.4004 56.6028 17.5504 57.3022Z" fill="#9FB600"/>
<path d="M16.4004 49.2096C16.4504 49.6093 16.4504 50.0089 16.5004 50.4086C16.4504 50.0089 16.4004 49.6093 16.4004 49.2096Z" fill="#9FB600"/>
<path d="M41.2998 44.5127C42.5498 48.3095 43.3998 52.4062 43.6498 56.7026C51.8998 52.4561 57.8998 44.5627 59.4998 35.1204C57.8498 31.9231 55.9498 29.2752 53.8498 27.077C52.1998 34.421 47.5998 40.6658 41.2998 44.5127Z" fill="#FF3612"/>
<path d="M0.0499993 28.377C-7.63685e-07 28.9265 0 29.476 0 30.0256C0 31.0247 0.0499996 31.974 0.15 32.9232C0.45 32.3736 0.75 31.8241 1.05 31.3245C0.65 30.3753 0.299999 29.3761 0.0499993 28.377Z" fill="#3DB7B7"/>
<path d="M24.3502 0.548279C17.6502 1.79725 11.8002 5.29439 7.4502 10.1904C15.5502 10.2903 23.7502 16.6351 23.7502 16.6351C23.7502 16.6351 21.9002 6.19363 24.3502 0.548279Z" fill="#FF6532"/>
<path d="M46.1495 4.74609C41.4995 1.74856 35.9495 0 29.9995 0C28.0995 0 26.1995 0.199823 24.3995 0.549535C21.9495 6.14492 23.7995 16.6363 23.7995 16.6363C23.7995 16.6363 30.9995 5.79522 46.1495 4.74609Z" fill="#8BBF47"/>
<path d="M46.1488 4.74609C31.0488 5.74527 23.7988 16.6363 23.7988 16.6363C23.7988 16.6363 41.6988 14.0884 53.8988 27.0277C53.9988 26.5281 54.0988 26.0286 54.1988 25.479C54.4488 23.9303 54.5988 22.3815 54.5988 20.7829C54.5988 17.036 53.8488 13.4889 52.4988 10.1916C50.6488 8.14331 48.4988 6.29482 46.1488 4.74609Z" fill="#3EB6DB"/>
<path opacity="0.9" d="M16.25 45.3626C16.25 45.1128 16.25 44.863 16.25 44.6132C16.25 44.2135 16.25 43.8638 16.3 43.5141C16.3 43.2643 16.3 43.0145 16.35 42.8146C16.35 42.4649 16.4 42.0653 16.4 41.7156C16.4 41.4658 16.45 41.2659 16.45 41.0161C16.5 40.6664 16.5 40.2668 16.55 39.9171C16.55 39.7172 16.6 39.4674 16.6 39.2676C16.65 38.9179 16.7 38.5182 16.75 38.1685C16.8 37.9687 16.8 37.7688 16.85 37.569C16.9 37.2192 16.95 36.8196 17 36.4699C17.05 36.27 17.05 36.1202 17.1 35.9203C17.15 35.5207 17.25 35.1709 17.3 34.8212C17.35 34.6713 17.35 34.4715 17.4 34.3216C17.45 33.922 17.55 33.5723 17.65 33.1726C17.7 33.0227 17.7 32.8728 17.75 32.7729C17.85 32.3732 17.95 32.0236 18 31.6239C18.05 31.524 18.05 31.3741 18.1 31.2742C18.2 30.8745 18.3 30.4748 18.4 30.0751C18.4 29.9752 18.45 29.9253 18.45 29.8253C18.55 29.4257 18.7 28.976 18.8 28.5764C18.8 28.5264 18.85 28.4765 18.85 28.4265C19.95 24.7795 21.2 21.8319 22.15 19.7836C22.15 19.7836 22.15 19.7836 22.15 19.7337C22.25 19.4839 22.35 19.284 22.5 19.0842C22.5 19.0342 22.55 19.0342 22.55 18.9843C22.65 18.7845 22.75 18.6346 22.8 18.4348C22.8 18.3848 22.85 18.3848 22.85 18.3348C22.95 18.1849 23 18.0351 23.05 17.8852C23.05 17.8353 23.1 17.7853 23.1 17.7853C23.15 17.6853 23.2 17.5854 23.25 17.4855C23.3 17.4356 23.3 17.3856 23.35 17.3356C23.4 17.2357 23.45 17.1858 23.45 17.1358C23.5 17.0859 23.5 17.0359 23.55 16.9859C23.55 16.936 23.6 16.936 23.6 16.886C23.7 16.6862 23.75 16.5862 23.75 16.5862C23.75 16.5862 9.2 17.8852 1 31.2742C3.7 37.8188 8.8 43.1144 15.2 46.062C15.55 46.2118 15.9 46.3617 16.25 46.5116V46.4616C16.3 46.1119 16.25 45.7123 16.25 45.3626Z" fill="#F9D023"/>
<path d="M23.8 17.5362L23.7 16.7369C23.7 16.7868 23.65 16.8368 23.6 16.8868C23.6 16.9367 23.55 16.9367 23.55 16.9867C23.55 17.0366 23.5 17.0866 23.45 17.1366C23.4 17.1865 23.35 17.2864 23.35 17.3364C23.35 17.3863 23.3 17.4363 23.25 17.4863C23.2 17.5862 23.15 17.6861 23.1 17.786C23.1 17.836 23.05 17.886 23.05 17.886C23 18.0358 22.9 18.1857 22.85 18.3355C22.85 18.3855 22.8 18.3855 22.8 18.4355C22.7 18.5854 22.6 18.7852 22.55 18.985C22.55 19.035 22.5 19.035 22.5 19.0849C22.4 19.2848 22.3 19.5346 22.15 19.7344C22.15 19.7344 22.15 19.7344 22.15 19.7844C21.2 21.8327 19.95 24.7803 18.85 28.4273C18.85 28.4772 18.8 28.5271 18.8 28.5771C18.7 28.9768 18.55 29.3764 18.45 29.8261C18.45 29.926 18.4 29.9759 18.4 30.0759C18.3 30.4755 18.2 30.8752 18.1 31.2749C18.05 31.3748 18.05 31.5247 18 31.6246C17.9 32.0243 17.8 32.374 17.75 32.7736C17.7 32.9235 17.7 33.0734 17.65 33.1733C17.55 33.5231 17.5 33.9227 17.4 34.3224C17.35 34.4722 17.35 34.6221 17.3 34.8219C17.25 35.1717 17.15 35.5714 17.1 35.9211C17.05 36.1209 17.05 36.2708 17 36.4706C16.95 36.8203 16.9 37.22 16.85 37.5697C16.8 37.7695 16.8 37.9694 16.75 38.1692C16.7 38.5189 16.65 38.9186 16.6 39.2683C16.6 39.4681 16.55 39.7179 16.55 39.9178C16.5 40.2675 16.5 40.6671 16.45 41.0169C16.45 41.2666 16.4 41.4665 16.4 41.7163C16.4 42.066 16.35 42.4656 16.35 42.8154C16.35 43.0652 16.35 43.315 16.3 43.5148C16.3 43.8645 16.3 44.2642 16.25 44.6139C16.25 44.8637 16.25 45.1135 16.25 45.3633C16.25 45.713 16.25 46.1127 16.25 46.5123V46.5623C19.5 47.9112 23.05 48.6106 26.75 48.6106C31.35 48.6106 35.65 47.5115 39.45 45.5631C40.05 45.2633 40.7 44.9136 41.3 44.514C36 28.3773 23.8 17.5362 23.8 17.5362Z" fill="#8BBF47"/>
<path d="M23.8002 16.6365C23.8002 16.6365 23.7502 16.6864 23.7002 16.7863L23.8002 17.5856C23.8002 17.5856 36.0002 28.4267 41.3502 44.5135C47.6002 40.6666 52.2502 34.4218 53.9002 27.0279C41.6502 14.0885 23.8002 16.6365 23.8002 16.6365Z" fill="#FF6532"/>
<path d="M23.7998 16.6367C23.7998 16.6367 15.5998 10.2919 7.49981 10.192C3.19981 15.0879 0.449805 21.4327 0.0498047 28.377C0.349805 29.3762 0.699805 30.3753 1.04981 31.3245C9.19981 17.9355 23.7998 16.6367 23.7998 16.6367Z" fill="#3EB6DB"/>
<path d="M32.0997 10.0913C31.9497 9.8415 31.7497 9.6417 31.5997 9.44187C28.3497 5.44516 22.6997 5.39518 18.0497 8.54258C13.8497 11.3902 11.7497 15.8865 13.1497 20.0331C13.3997 20.7325 13.7497 21.482 14.1997 22.1314C17.2997 26.7776 23.8497 27.8267 28.7997 24.4795C33.7497 21.1822 35.2497 14.7375 32.0997 10.0913Z" fill="#FFF3DE"/>
<path d="M22.8995 14.6391C22.8495 14.5392 22.7994 14.4892 22.7494 14.3893C21.6494 13.0404 19.7494 12.9904 18.1494 14.0895C16.6994 15.0387 15.9994 16.5875 16.4994 17.9863C16.5994 18.2361 16.6994 18.4859 16.8494 18.6857C17.8994 20.2844 20.1494 20.6341 21.7994 19.4851C23.4494 18.4359 23.9495 16.2378 22.8995 14.6391Z" fill="#F4D4AB"/>
</svg>
