<svg width="896" height="414" viewBox="0 0 896 414" fill="none" xmlns="http://www.w3.org/2000/svg">
<g clip-path="url(#clip0_1100_151)">
<rect width="896" height="414" fill="#FCF8EE"/>
<path d="M560.196 14.3901L559 10.7665L560.636 10L561.643 14.6688L560.196 14.3901Z" fill="#E68888"/>
<path d="M758.202 377.933H811.219C811.219 377.933 808.947 360.406 797.511 371.643C797.511 371.643 797.889 358.98 789.406 358.225C780.924 357.471 780.09 369.882 780.09 369.882C780.09 369.882 777.894 364.18 772.971 364.934C767.972 365.689 768.124 373.572 768.124 373.572C768.124 373.572 766.836 371.224 763.806 372.314C758.883 374.159 758.202 377.933 758.202 377.933Z" fill="#BED72D"/>
<path d="M161.744 199.989H110.24C110.24 199.989 112.437 182.965 123.571 193.951C123.571 193.951 123.192 181.624 131.448 180.869C139.703 180.114 140.536 192.19 140.536 192.19C140.536 192.19 142.657 186.571 147.429 187.326C152.276 188.081 152.125 195.712 152.125 195.712C152.125 195.712 153.336 193.448 156.29 194.538C161.062 196.299 161.744 199.989 161.744 199.989Z" fill="#F6CDB8"/>
<path d="M791.867 88.4174H860.496C860.496 88.4174 857.614 65.7732 842.79 80.3628C842.79 80.3628 843.339 63.9495 832.358 63.0376C821.377 62.1258 820.279 78.0832 820.279 78.0832C820.279 78.0832 817.534 70.6364 811.083 71.7002C804.632 72.764 804.769 82.9464 804.769 82.9464C804.769 82.9464 803.122 79.9069 799.141 81.4266C792.828 83.5543 791.867 88.4174 791.867 88.4174Z" fill="#49BACA"/>
<path d="M261.764 52.6605H293.063C293.063 52.6605 291.748 42.0382 284.988 48.8821C284.988 48.8821 285.238 41.1827 280.23 40.755C275.223 40.3272 274.722 47.8127 274.722 47.8127C274.722 47.8127 273.47 44.3195 270.528 44.8185C267.586 45.3176 267.648 50.094 267.648 50.094C267.648 50.094 266.897 48.6682 265.082 49.3811C262.203 50.3792 261.764 52.6605 261.764 52.6605Z" fill="#C9B8C3"/>
<path d="M63 380.923H94.2984C94.2984 380.923 92.9838 370.301 86.2234 377.145C86.2234 377.145 86.4738 369.445 81.466 369.018C76.4583 368.59 75.9575 376.075 75.9575 376.075C75.9575 376.075 74.7056 372.582 71.7635 373.081C68.8215 373.58 68.8841 378.357 68.8841 378.357C68.8841 378.357 68.1329 376.931 66.3176 377.644C63.4382 378.642 63 380.923 63 380.923Z" fill="#49BACA"/>
<path d="M443.096 402.408H474.395C474.395 402.408 473.08 391.785 466.32 398.629C466.32 398.629 466.57 390.93 461.562 390.502C456.554 390.074 456.054 397.56 456.054 397.56C456.054 397.56 454.802 394.067 451.86 394.566C448.918 395.065 448.98 399.841 448.98 399.841C448.98 399.841 448.229 398.415 446.414 399.128C443.534 400.126 443.096 402.408 443.096 402.408Z" fill="#C9B8C3"/>
<path d="M128.477 97.8303L129.765 94.3921L131.431 98.0819L134.688 98.3335L131.885 100.43L132.794 103.952L129.84 102.023L126.584 103.868L127.871 100.178L125.145 98.4173L128.477 97.8303Z" fill="#7F48C3"/>
<path d="M38.4771 97.8303L39.7647 94.3921L41.4309 98.0819L44.6878 98.3335L41.8854 100.43L42.7943 103.952L39.8404 102.023L36.5836 103.868L37.8712 100.178L35.1445 98.4173L38.4771 97.8303Z" fill="#7F48C3"/>
<path d="M218.895 55.1052L220.182 51.667L221.848 55.3568L225.105 55.6084L222.303 57.7049L223.212 61.227L220.258 59.2982L217.001 61.1431L218.289 57.4533L215.562 55.6923L218.895 55.1052Z" fill="#7F48C3"/>
<path d="M659.385 60.0301L658.112 56.6353L656.464 60.2784L653.242 60.5268L656.014 62.5968L655.115 66.0744L658.037 64.1701L661.258 65.9916L659.985 62.3484L662.682 60.6096L659.385 60.0301Z" fill="#7F48C3"/>
<path d="M153.942 8.96703L149.852 7.79297L149.246 10.1411L154.397 10.8958L153.942 8.96703Z" fill="#F9B818"/>
<path d="M724.27 14.0444L728.61 12.9165L729.253 15.1723L723.788 15.8973L724.27 14.0444Z" fill="#F9B818"/>
<path d="M814.27 14.0444L818.61 12.9165L819.253 15.1723L813.788 15.8973L814.27 14.0444Z" fill="#F9B818"/>
<path d="M110.096 76.9646L111.383 73.5264L113.049 77.2162L116.306 77.4678L113.504 79.5643L114.413 83.0864L111.459 81.1576L108.202 83.0025L109.49 79.3127L106.763 77.5516L110.096 76.9646Z" fill="#49BACA"/>
<path d="M20.0955 76.9646L21.3831 73.5264L23.0493 77.2162L26.3062 77.4678L23.5038 79.5643L24.4127 83.0864L21.4588 81.1576L18.202 83.0025L19.4896 79.3127L16.7629 77.5516L20.0955 76.9646Z" fill="#49BACA"/>
<path d="M343.095 12.3806L344.382 8.94238L346.048 12.6322L349.305 12.8838L346.503 14.9803L347.412 18.5024L344.458 16.5736L341.201 18.4185L342.489 14.7287L339.762 12.9676L343.095 12.3806Z" fill="#49BACA"/>
<path d="M446.429 3.43826L447.716 0L449.383 3.68982L452.639 3.94139L449.837 6.03789L450.746 9.56001L447.792 7.63124L444.535 9.47614L445.823 5.78632L443.096 4.02526L446.429 3.43826Z" fill="#F6CDB8"/>
<path d="M133.218 33.8269L133.521 30.0532L136.096 33.0722L139.201 32.3174L137.156 35.2525L138.898 38.3553L135.566 37.4329L132.915 40.2002L133.218 36.2588L130.113 35.4202L133.218 33.8269Z" fill="#F9B818"/>
<path d="M43.2179 33.8269L43.5208 30.0532L46.096 33.0722L49.2013 32.3174L47.1563 35.2525L48.8983 38.3553L45.5658 37.4329L42.9149 40.2002L43.2179 36.2588L40.1125 35.4202L43.2179 33.8269Z" fill="#F9B818"/>
<path d="M745.076 38.6559L744.778 34.7759L742.244 37.8798L739.189 37.1038L741.201 40.1216L739.487 43.3118L742.766 42.3634L745.374 45.2087L745.076 41.1563L748.131 40.2941L745.076 38.6559Z" fill="#F9B818"/>
<path d="M835.076 38.6559L834.778 34.7759L832.244 37.8798L829.189 37.1038L831.201 40.1216L829.487 43.3118L832.766 42.3634L835.374 45.2087L835.076 41.1563L838.131 40.2941L835.076 38.6559Z" fill="#F9B818"/>
<path d="M133.218 33.8274L133.521 30.0537L136.096 33.0726L139.201 32.3179L137.156 35.253L138.898 38.3558L135.566 37.4334L132.915 40.2007L133.218 36.2593L130.113 35.4207L133.218 33.8274Z" fill="#F9B818"/>
<path d="M43.2179 33.8274L43.5208 30.0537L46.096 33.0726L49.2013 32.3179L47.1563 35.253L48.8983 38.3558L45.5658 37.4334L42.9149 40.2007L43.2179 36.2593L40.1125 35.4207L43.2179 33.8274Z" fill="#F9B818"/>
<path d="M745.076 38.6559L744.778 34.7759L742.244 37.8798L739.189 37.1038L741.201 40.1216L739.487 43.3118L742.766 42.3634L745.374 45.2087L745.076 41.1563L748.131 40.2941L745.076 38.6559Z" fill="#F9B818"/>
<path d="M874.076 108.656L873.778 104.776L871.244 107.88L868.189 107.104L870.201 110.122L868.487 113.312L871.766 112.363L874.374 115.209L874.076 111.156L877.131 110.294L874.076 108.656Z" fill="#49BACA"/>
<path d="M551.821 6.36386L551.523 2.48389L548.989 5.58784L545.934 4.81185L547.946 7.82961L546.232 11.0198L549.511 10.0714L552.119 12.9167L551.821 8.86428L554.876 8.00206L551.821 6.36386Z" fill="#F9B818"/>
<path d="M271.825 13.2127L272.128 9.43896L274.703 12.4579L277.808 11.7032L275.763 14.6383L277.505 17.7411L274.173 16.8186L271.522 19.586L271.825 15.6446L268.72 14.806L271.825 13.2127Z" fill="#F9B818"/>
<path d="M606.796 18.1024L606.481 14.4072L603.807 17.3634L600.582 16.6243L602.706 19.4984L600.896 22.5367L604.357 21.6334L607.111 24.3432L606.796 20.4838L610.021 19.6626L606.796 18.1024Z" fill="#49BACA"/>
<path d="M117.917 42.9955L114.433 45.5113L113.221 43.5826L117.841 40.9829L117.917 42.9955Z" fill="#C9B8C3"/>
<path d="M27.9171 42.9955L24.4331 45.5113L23.2213 43.5826L27.8414 40.9829L27.9171 42.9955Z" fill="#C9B8C3"/>
<path d="M776.551 53.9136L779.869 56.6736L781.022 54.5576L776.623 51.7056L776.551 53.9136Z" fill="#C9B8C3"/>
<path d="M879.551 82.9136L882.869 85.6736L884.022 83.5576L879.623 80.7056L879.551 82.9136Z" fill="#C9B8C3"/>
<path d="M111.68 18.9419L110.24 14.5812L112.21 13.6587L113.422 19.2773L111.68 18.9419Z" fill="#E68888"/>
<path d="M21.6795 18.9419L20.2405 14.5812L22.2097 13.6587L23.4215 19.2773L21.6795 18.9419Z" fill="#E68888"/>
<path d="M766.655 23.987L768.003 19.3601L766.158 18.3813L765.022 24.3429L766.655 23.987Z" fill="#E68888"/>
<path d="M872.655 23.987L874.003 19.3601L872.158 18.3813L871.022 24.3429L872.655 23.987Z" fill="#E68888"/>
<path d="M114.146 136.665L115.433 133.143L117.099 136.916L120.28 137.084L117.554 139.264L118.387 142.786L115.433 140.858L112.252 142.619L113.464 138.929L110.737 137.252L114.146 136.665Z" fill="#F9B818"/>
<path d="M24.1456 136.665L25.4332 133.143L27.0994 136.916L30.2805 137.084L27.5539 139.264L28.387 142.786L25.4332 140.858L22.2521 142.619L23.4639 138.929L20.7373 137.252L24.1456 136.665Z" fill="#F9B818"/>
<path d="M705.337 131.696L706.625 128.174L708.291 131.948L711.472 132.116L708.746 134.296L709.579 137.818L706.625 135.889L703.444 137.65L704.656 133.961L701.929 132.283L705.337 131.696Z" fill="#F9B818"/>
<path d="M795.337 131.696L796.625 128.174L798.291 131.948L801.472 132.116L798.746 134.296L799.579 137.818L796.625 135.889L793.444 137.65L794.656 133.961L791.929 132.283L795.337 131.696Z" fill="#F9B818"/>
<path d="M219.888 9.64529L221.176 6.20703L222.842 9.89686L226.099 10.1484L223.297 12.2449L224.205 15.767L221.252 13.8383L217.995 15.6832L219.282 11.9934L216.556 10.2323L219.888 9.64529Z" fill="#A8C93A"/>
<path d="M658.392 14.5032L657.118 10.9297L655.47 14.7646L652.249 15.0261L655.021 17.205L654.122 20.8657L657.044 18.8611L660.265 20.7785L658.991 16.9436L661.688 15.1133L658.392 14.5032Z" fill="#A8C93A"/>
<path d="M160.542 59.4153L160.845 55.6416L163.42 58.6605L166.525 57.9058L164.48 60.8409L166.222 63.9437L162.89 63.0213L160.239 65.7886L160.542 61.8472L157.437 61.0086L160.542 59.4153Z" fill="#E74C4E"/>
<path d="M70.5418 59.4153L70.8448 55.6416L73.4199 58.6605L76.5253 57.9058L74.4803 60.8409L76.2223 63.9437L72.8898 63.0213L70.2389 65.7886L70.5418 61.8472L67.4365 61.0086L70.5418 59.4153Z" fill="#E74C4E"/>
<path d="M717.752 64.3046L717.454 60.6094L714.92 63.5655L711.865 62.8265L713.877 65.7005L712.163 68.7388L715.442 67.8356L718.05 70.5454L717.752 66.6859L720.807 65.8648L717.752 64.3046Z" fill="#E74C4E"/>
<path d="M756.752 95.3046L756.454 91.6094L753.92 94.5655L750.865 93.8265L752.877 96.7005L751.163 99.7388L754.442 98.8356L757.05 101.545L756.752 97.6859L759.807 96.8648L756.752 95.3046Z" fill="#C9B8C3"/>
<path d="M169.484 164.24L169.787 160.466L172.362 163.485L175.468 162.731L173.423 165.666L175.165 168.768L171.832 167.846L169.181 170.613L169.484 166.672L166.379 165.833L169.484 164.24Z" fill="#E74C4E"/>
<path d="M79.4842 164.24L79.7872 160.466L82.3623 163.485L85.4677 162.731L83.4227 165.666L85.1647 168.768L81.8322 167.846L79.1813 170.613L79.4842 166.672L76.3789 165.833L79.4842 164.24Z" fill="#E74C4E"/>
<path d="M760.676 159.272L760.979 155.498L763.554 158.517L766.659 157.762L764.614 160.697L766.356 163.8L763.024 162.878L760.373 165.645L760.676 161.704L757.571 160.865L760.676 159.272Z" fill="#E74C4E"/>
<path d="M850.676 159.272L850.979 155.498L853.554 158.517L856.659 157.762L854.614 160.697L856.356 163.8L853.024 162.878L850.373 165.645L850.676 161.704L847.571 160.865L850.676 159.272Z" fill="#E74C4E"/>
<path d="M198.924 26.9662L195.44 29.482L194.228 27.5533L198.848 24.9536L198.924 26.9662Z" fill="#C9B8C3"/>
<path d="M679.573 31.7948L682.89 34.2788L684.044 32.3744L679.645 29.8076L679.573 31.7948Z" fill="#C9B8C3"/>
<path d="M610.021 41.7313L613.338 44.2153L614.492 42.3109L610.093 39.7441L610.021 41.7313Z" fill="#C9B8C3"/>
<path d="M575.245 31.7948L578.562 34.2788L579.716 32.3744L575.317 29.8076L575.245 31.7948Z" fill="#BED72D"/>
<path d="M510.661 6.95546L513.978 9.43946L515.132 7.53507L510.733 4.96826L510.661 6.95546Z" fill="#E74C4E"/>
<path d="M391.429 6.95546L394.746 9.43946L395.9 7.53507L391.501 4.96826L391.429 6.95546Z" fill="#7F48C3"/>
<path d="M302.005 26.8275L305.322 29.3115L306.476 27.4071L302.077 24.8403L302.005 26.8275Z" fill="#7F48C3"/>
<path d="M186.2 14.4707L184.76 10.11L186.73 9.1875L187.942 14.8061L186.2 14.4707Z" fill="#E68888"/>
<path d="M692.135 19.5163L693.483 14.8894L691.638 13.9106L690.503 19.8722L692.135 19.5163Z" fill="#E68888"/>
<path d="M115.283 378.159L115.581 382.039L118.115 378.935L121.17 379.711L119.158 376.693L120.872 373.503L117.593 374.451L114.985 371.606L115.283 375.658L112.228 376.52L115.283 378.159Z" fill="#A8C93A"/>
<path d="M25.2831 378.159L25.5812 382.039L28.1148 378.935L31.1702 379.711L29.1581 376.693L30.8721 373.503L27.5932 374.451L24.985 371.606L25.2831 375.658L22.2278 376.52L25.2831 378.159Z" fill="#7F48C3"/>
<path d="M706.475 373.191L706.773 377.071L709.306 373.967L712.362 374.743L710.35 371.726L712.064 368.535L708.785 369.484L706.177 366.638L706.475 370.691L703.419 371.553L706.475 373.191Z" fill="#7F48C3"/>
<path d="M868.475 393.191L868.773 397.071L871.306 393.967L874.362 394.743L872.35 391.726L874.064 388.535L870.785 389.484L868.177 386.638L868.475 390.691L865.419 391.553L868.475 393.191Z" fill="#7F48C3"/>
<path d="M111.805 321.027L112.104 324.907L114.637 321.803L117.693 322.579L115.68 319.562L117.394 316.371L114.116 317.32L111.507 314.474L111.805 318.527L108.75 319.389L111.805 321.027Z" fill="#C9B8C3"/>
<path d="M21.8054 321.027L22.1035 324.907L24.6372 321.803L27.6925 322.579L25.6805 319.562L27.3944 316.371L24.1156 317.32L21.5074 314.474L21.8054 318.527L18.7501 319.389L21.8054 321.027Z" fill="#E74C4E"/>
<path d="M710.997 312.059L711.295 315.939L713.829 312.835L716.884 313.611L714.872 310.593L716.586 307.403L713.307 308.351L710.699 305.506L710.997 309.559L707.942 310.421L710.997 312.059Z" fill="#E74C4E"/>
<path d="M792.997 298.059L793.295 301.939L795.829 298.835L798.884 299.611L796.872 296.593L798.586 293.403L795.307 294.351L792.699 291.506L792.997 295.559L789.942 296.421L792.997 298.059Z" fill="#E74C4E"/>
<path d="M673.686 401.509L673.984 405.389L676.517 402.285L679.573 403.061L677.561 400.043L679.275 396.853L675.996 397.801L673.388 394.956L673.686 399.008L670.63 399.87L673.686 401.509Z" fill="#E74C4E"/>
<path d="M245.7 408.962L245.17 412.817L248.303 410.32L251.125 411.725L249.797 408.35L252.148 405.595L248.742 405.828L246.796 402.495L246.229 406.518L243.061 406.714L245.7 408.962Z" fill="#E74C4E"/>
<path d="M188.057 401.815L189.33 405.389L190.978 401.554L194.2 401.292L191.428 399.113L192.327 395.453L189.405 397.457L186.184 395.54L187.457 399.375L184.76 401.205L188.057 401.815Z" fill="#49BACA"/>
<path d="M138.416 340.167L137.068 344.794L138.913 345.772L140.048 339.811L138.416 340.167Z" fill="#E68888"/>
<path d="M48.4161 340.167L47.0676 344.794L48.9129 345.772L50.0484 339.811L48.4161 340.167Z" fill="#E68888"/>
<path d="M729.608 335.199L728.259 339.826L730.105 340.805L731.24 334.843L729.608 335.199Z" fill="#E68888"/>
<path d="M819.608 335.199L818.259 339.826L820.105 340.805L821.24 334.843L819.608 335.199Z" fill="#E68888"/>
<path d="M145.572 398.608L141.627 399.924L141.042 397.292L146.01 396.446L145.572 398.608Z" fill="#F9B818"/>
<path d="M55.5717 398.608L51.6266 399.924L51.0421 397.292L56.0101 396.446L55.5717 398.608Z" fill="#F9B818"/>
<path d="M736.763 393.64L732.818 394.956L732.234 392.324L737.202 391.478L736.763 393.64Z" fill="#F9B818"/>
<path d="M826.763 393.64L822.818 394.956L822.234 392.324L827.202 391.478L826.763 393.64Z" fill="#F9B818"/>
<path d="M166.876 364.651L163.19 362.167L161.908 364.071L166.796 366.638L166.876 364.651Z" fill="#C9B8C3"/>
<path d="M717.826 208.656L714.14 206.172L712.858 208.076L717.746 210.643L717.826 208.656Z" fill="#7F48C3"/>
<path d="M807.826 208.656L804.14 206.172L802.858 208.076L807.746 210.643L807.826 208.656Z" fill="#7F48C3"/>
<path d="M110.099 404.254L108.75 408.881L110.595 409.859L111.731 403.898L110.099 404.254Z" fill="#E68888"/>
<path d="M20.0986 404.254L18.7501 408.881L20.5954 409.859L21.7309 403.898L20.0986 404.254Z" fill="#E68888"/>
<path d="M701.29 399.286L699.942 403.913L701.787 404.892L702.922 398.93L701.29 399.286Z" fill="#E68888"/>
<path d="M791.29 399.286L789.942 403.913L791.787 404.892L792.922 398.93L791.29 399.286Z" fill="#E68888"/>
<path d="M520.455 392.331L519.106 396.958L520.952 397.937L522.087 391.975L520.455 392.331Z" fill="#BED72D"/>
<path d="M393.274 399.286L391.926 403.913L393.771 404.892L394.907 398.93L393.274 399.286Z" fill="#E68888"/>
<path d="M333.658 389.35L332.31 393.977L334.155 394.956L335.291 388.994L333.658 389.35Z" fill="#F9B818"/>
<path d="M151.79 283.934L153.064 287.15L154.712 283.698L157.933 283.463L155.162 281.502L156.06 278.208L153.139 280.012L149.918 278.286L151.191 281.737L148.494 283.385L151.79 283.934Z" fill="#49BACA"/>
<path d="M61.7904 283.934L63.0639 287.15L64.712 283.698L67.9333 283.463L65.1615 281.502L66.0605 278.208L63.1388 280.012L59.9175 278.286L61.1911 281.737L58.4941 283.385L61.7904 283.934Z" fill="#49BACA"/>
<path d="M45.7904 187.934L47.0639 191.15L48.712 187.698L51.9333 187.463L49.1615 185.502L50.0605 182.208L47.1388 184.012L43.9175 182.286L45.1911 185.737L42.4941 187.385L45.7904 187.934Z" fill="#49BACA"/>
<path d="M742.982 278.966L744.255 282.183L745.903 278.731L749.125 278.496L746.353 276.535L747.252 273.24L744.33 275.044L741.109 273.319L742.382 276.77L739.686 278.417L742.982 278.966Z" fill="#49BACA"/>
<path d="M852.982 288.966L854.255 292.183L855.903 288.731L859.125 288.496L856.353 286.535L857.252 283.24L854.33 285.044L851.109 283.319L852.382 286.77L849.686 288.417L852.982 288.966Z" fill="#F6CDB8"/>
<path d="M116.699 268.769L113.013 266.285L111.731 268.189L116.619 270.756L116.699 268.769Z" fill="#C9B8C3"/>
<path d="M26.699 268.769L23.013 266.285L21.731 268.189L26.6188 270.756L26.699 268.769Z" fill="#C9B8C3"/>
<path d="M707.89 263.801L704.204 261.317L702.922 263.221L707.81 265.788L707.89 263.801Z" fill="#C9B8C3"/>
<path d="M806.89 252.801L803.204 250.317L801.922 252.221L806.81 254.788L806.89 252.801Z" fill="#C9B8C3"/>
<path d="M294.553 404.892L290.867 402.408L289.585 404.312L294.473 406.879L294.553 404.892Z" fill="#C9B8C3"/>
<path d="M575.742 406.382L572.056 403.898L570.774 405.803L575.662 408.37L575.742 406.382Z" fill="#C9B8C3"/>
<path d="M610.518 391.478L606.832 388.994L605.55 390.899L610.438 393.465L610.518 391.478Z" fill="#49BACA"/>
<path d="M220.53 405.885L216.844 403.401L215.562 405.305L220.45 407.872L220.53 405.885Z" fill="#C9B8C3"/>
<path d="M161.908 128.174L158.222 125.69L156.94 127.594L161.828 130.161L161.908 128.174Z" fill="#C9B8C3"/>
<path d="M71.9077 128.174L68.2218 125.69L66.9397 127.594L71.8276 130.161L71.9077 128.174Z" fill="#C9B8C3"/>
<path d="M753.099 123.207L749.413 120.723L748.131 122.627L753.019 125.194L753.099 123.207Z" fill="#C9B8C3"/>
<path d="M843.099 123.207L839.413 120.723L838.131 122.627L843.019 125.194L843.099 123.207Z" fill="#C9B8C3"/>
<path d="M171.347 238.961L167.661 236.477L166.379 238.381L171.267 240.948L171.347 238.961Z" fill="#F9B818"/>
<path d="M81.3469 238.961L77.661 236.477L76.3789 238.381L81.2668 240.948L81.3469 238.961Z" fill="#F9B818"/>
<path d="M762.539 233.992L758.853 231.508L757.571 233.413L762.458 235.979L762.539 233.992Z" fill="#F9B818"/>
<path d="M862.539 247.992L858.853 245.508L857.571 247.413L862.458 249.979L862.539 247.992Z" fill="#F9B818"/>
<path d="M113.537 229.426L114.81 232.999L116.458 229.164L119.68 228.903L116.908 226.724L117.807 223.063L114.885 225.068L111.664 223.15L112.937 226.985L110.24 228.815L113.537 229.426Z" fill="#A8C93A"/>
<path d="M23.5367 229.426L24.8103 232.999L26.4583 229.164L29.6797 228.903L26.9078 226.724L27.8068 223.063L24.8852 225.068L21.6639 223.15L22.9374 226.985L20.2405 228.815L23.5367 229.426Z" fill="#A8C93A"/>
<path d="M749.44 204.586L750.714 208.159L752.362 204.324L755.583 204.063L752.811 201.884L753.71 198.223L750.789 200.228L747.567 198.31L748.841 202.145L746.144 203.976L749.44 204.586Z" fill="#A8C93A"/>
<path d="M839.44 204.586L840.714 208.159L842.362 204.324L845.583 204.063L842.811 201.884L843.71 198.223L840.789 200.228L837.567 198.31L838.841 202.145L836.144 203.976L839.44 204.586Z" fill="#A8C93A"/>
<path d="M169.434 336.925L169.732 340.805L172.266 337.701L175.321 338.477L173.309 335.459L175.023 332.269L171.744 333.217L169.136 330.372L169.434 334.424L166.379 335.287L169.434 336.925Z" fill="#F9B818"/>
<path d="M79.4342 336.925L79.7323 340.805L82.266 337.701L85.3213 338.477L83.3093 335.459L85.0232 332.269L81.7444 333.217L79.1362 330.372L79.4342 334.424L76.3789 335.287L79.4342 336.925Z" fill="#F9B818"/>
<path d="M760.626 331.956L760.924 335.836L763.458 332.732L766.513 333.508L764.501 330.491L766.215 327.3L762.936 328.249L760.328 325.404L760.626 329.456L757.571 330.318L760.626 331.956Z" fill="#F9B818"/>
<path d="M870.626 331.956L870.924 335.836L873.458 332.732L876.513 333.508L874.501 330.491L876.215 327.3L872.936 328.249L870.328 325.404L870.626 329.456L867.571 330.318L870.626 331.956Z" fill="#F9B818"/>
<path d="M631.811 406.427L633.098 402.905L634.765 406.678L637.946 406.846L635.219 409.027L636.052 412.549L633.098 410.62L629.917 412.381L631.129 408.691L628.403 407.014L631.811 406.427Z" fill="#F9B818"/>
</g>
<defs>
<clipPath id="clip0_1100_151">
<rect width="896" height="414" fill="white"/>
</clipPath>
</defs>
</svg>
