<svg width="27" height="27" viewBox="0 0 27 27" fill="none" xmlns="http://www.w3.org/2000/svg">
<path d="M26.2283 26.5717C26.3939 26.5326 26.5232 26.4058 26.5636 26.2432C27.8178 21.4864 26.3537 15.0506 22.3652 11.5199C23.195 5.50231 18.5677 1.34739 14.6839 0.438786V0.438586C14.4944 0.395045 14.2975 0.474138 14.1932 0.635922C14.0889 0.797706 14.1001 1.00662 14.221 1.15685C15.4053 2.43093 16.5468 5.36597 15.9534 7.8443L15.9536 7.8445C15.3158 7.64976 14.6663 7.49457 14.009 7.38013C13.8353 7.35436 13.661 7.42307 13.5537 7.55988L12.5929 6.61416C12.3372 6.3627 11.9904 6.22169 11.6288 6.22169C11.2674 6.22169 10.9206 6.3627 10.6647 6.61416L6.33875 10.8722C6.08327 11.1243 5.94002 11.4654 5.94002 11.8213C5.94002 12.177 6.08327 12.5184 6.33875 12.7703L7.29955 13.716H7.29935C7.13417 13.827 7.04449 14.0184 7.06579 14.2143C7.18206 14.8614 7.33973 15.5008 7.53757 16.1284C5.01655 16.7138 2.03436 15.5855 0.743484 14.4229V14.4231C0.606922 14.3158 0.420237 14.2944 0.262371 14.368C0.1045 14.4413 0.00263977 14.5968 0 14.7688C0.830315 18.6534 5.18489 23.2704 11.2714 22.4395C14.8997 26.3511 21.2321 27.8073 26.2283 26.5717L26.2283 26.5717ZM26.0755 22.4309C26.0841 23.5502 25.9727 24.6673 25.7428 25.7635C24.6602 25.986 23.557 26.096 22.4513 26.0922C22.5079 25.1445 22.9019 24.2467 23.5645 23.5566C24.2268 22.8668 25.1152 22.4286 26.0731 22.3193C26.0735 22.356 26.0754 22.3946 26.0756 22.4309L26.0755 22.4309ZM26.038 21.4247C24.8501 21.5443 23.745 22.078 22.9218 22.9293C22.0986 23.7805 21.6116 24.8932 21.5487 26.0668C21.2433 26.0564 20.945 26.0233 20.6362 25.9935C20.7255 24.6122 21.3083 23.3063 22.2814 22.3073C23.2544 21.3082 24.5553 20.6801 25.9536 20.534C25.9954 20.8406 26.0179 21.1434 26.038 21.4246V21.4247ZM16.9505 5.23805C16.7977 4.00431 16.3872 2.8149 15.7449 1.74477C19.0981 3.04504 21.871 6.67316 21.5198 10.7756C20.1161 9.64051 18.5273 8.74729 16.8205 8.13433C17.0204 7.18181 17.0642 6.20413 16.9506 5.238L16.9505 5.23805ZM6.98141 12.1372V12.137C6.89619 12.0531 6.8483 11.9395 6.8483 11.8208C6.8483 11.7022 6.89619 11.5883 6.98141 11.5044L11.3074 7.24639C11.4851 7.07202 11.7724 7.07202 11.9502 7.24639L12.911 8.19191L7.94222 13.0827L6.98141 12.1372ZM5.79355 20.6853C3.78327 19.6669 2.2054 17.9789 1.34095 15.9225C3.30074 17.0443 5.60992 17.4207 7.83219 16.9813C8.45493 18.6611 9.36238 20.2248 10.5155 21.6065C8.88634 21.7155 7.25694 21.3978 5.79329 20.6853H5.79355ZM13.5648 23.2564C10.6618 21.0344 8.68422 17.8447 8.00388 14.2875C8.05339 14.2394 13.9814 8.40436 14.0842 8.3026C18.7046 9.04263 24.6616 12.9799 25.8054 19.6537C24.2119 19.8141 22.7278 20.5258 21.6172 21.662C20.5067 22.7985 19.8417 24.2857 19.7407 25.8594C17.5003 25.4895 15.3826 24.5969 13.5648 23.2561V23.2564Z" fill="white"/>
<path d="M21.9902 17.8202C21.9819 16.5274 21.3459 15.3162 20.2788 14.562C19.2119 13.8078 17.8428 13.6015 16.5955 14.007L15.5482 12.9762C15.089 12.5244 14.42 12.3478 13.7928 12.5132C13.1656 12.6786 12.6758 13.1607 12.5078 13.7781C12.3397 14.3954 12.5191 15.0539 12.9781 15.5059L14.0254 16.5367C13.6423 17.6564 13.7782 18.8852 14.3973 19.8974C15.0162 20.9095 16.0558 21.6029 17.2402 21.7939C18.4246 21.9848 19.6346 21.6539 20.5491 20.8887C21.4637 20.1235 21.9906 19.0017 21.9902 17.8202L21.9902 17.8202ZM13.6211 14.8732C13.3971 14.6463 13.3116 14.3197 13.3965 14.0145C13.4811 13.7095 13.7234 13.4711 14.0334 13.3878C14.3435 13.3043 14.6751 13.3884 14.9056 13.6089L15.7251 14.4156H15.7253C15.2067 14.7375 14.7677 15.1695 14.4407 15.68L13.6211 14.8732ZM14.7178 17.8202C14.7188 16.99 15.0545 16.194 15.6508 15.6068C16.2474 15.0198 17.056 14.6895 17.8996 14.6884C22.1148 14.8462 22.1135 20.795 17.8996 20.952C17.056 20.951 16.2472 20.6207 15.6508 20.0336C15.0545 19.4465 14.7189 18.6505 14.7178 17.8202Z" fill="white"/>
<path d="M20.1719 17.8201C20.1719 17.2269 19.9324 16.6579 19.5063 16.2382C19.08 15.8188 18.5019 15.5831 17.8992 15.5831C17.2965 15.5831 16.7185 15.8188 16.2921 16.2382C15.866 16.6579 15.6266 17.2269 15.6266 17.8201C15.6266 18.4135 15.866 18.9823 16.2923 19.402C16.7184 19.8215 17.2965 20.0571 17.8992 20.0571C18.5019 20.0563 19.0794 19.8204 19.5055 19.4012C19.9314 18.9818 20.1713 18.4131 20.1719 17.8201ZM16.5356 17.8201C16.5411 17.3442 16.8022 16.9068 17.2219 16.6703C17.6415 16.4338 18.1569 16.4338 18.5765 16.6703C18.9964 16.9068 19.2573 17.3442 19.2628 17.8201C19.2573 18.2961 18.9962 18.7335 18.5765 18.97C18.1569 19.2064 17.6415 19.2064 17.2219 18.97C16.8021 18.7335 16.5411 18.2961 16.5356 17.8201Z" fill="white"/>
<path d="M8.19823 2.41636C6.4627 0.542859 2.86332 -0.303773 0.395345 0.0978633C-0.687014 0.221299 0.848866 3.24024 1.25916 3.70001L0.760191 3.51086C0.605162 3.45434 0.431065 3.4847 0.304851 3.59016C0.178839 3.69542 0.120195 3.85959 0.151649 4.01958C2.61869 13.939 12.9165 7.96947 8.19817 2.41636H8.19823ZM5.60028 7.16476C4.11129 5.60505 5.6011 4.14122 7.18445 5.60587C8.62373 7.06812 7.28408 8.67574 5.60028 7.16476ZM3.00254 7.53007C2.23633 6.6996 1.64871 5.72509 1.27511 4.66534L2.87673 5.27314L2.87653 5.27294C3.08756 5.34904 3.32335 5.26215 3.43188 5.06861C3.54065 4.87507 3.48972 4.6324 3.31196 4.49696C2.12613 3.62492 1.30065 2.36024 0.987356 0.936134C3.57658 0.637134 9.00374 2.03244 8.44532 5.84673C7.85645 4.39087 5.60467 3.51785 4.58647 4.60817C3.43554 5.79396 4.43043 7.80746 5.84456 8.40569L5.84477 8.40549C4.8089 8.58884 3.74763 8.26188 3.00272 7.53007L3.00254 7.53007Z" fill="white"/>
</svg>
