<svg width="900" height="600" viewBox="0 0 900 600" fill="none" xmlns="http://www.w3.org/2000/svg">
<g clip-path="url(#clip0_637_2055)">
<rect width="900" height="600" fill="white"/>
<path d="M667.2 461.052L662 462.911L661.9 469.955L658.7 467.411L656.7 471.129L647.2 454.791L667.2 461.052Z" fill="white"/>
<path d="M662 463.107H661.9L647.5 455.281C647.4 455.183 647.4 455.085 647.4 454.987C647.5 454.889 647.6 454.889 647.7 454.889L662.1 462.716C662.2 462.813 662.2 462.911 662.2 463.009C662.1 463.107 662 463.107 662 463.107Z" fill="white"/>
<path d="M661.9 470.15C661.8 470.15 661.7 470.15 661.7 470.053L659.2 465.063C659.2 464.966 659.2 464.868 659.3 464.77C659.4 464.77 659.5 464.77 659.6 464.868L662.1 469.857C662.2 469.955 662.1 470.15 661.9 470.15C662 470.15 662 470.15 661.9 470.15Z" fill="white"/>
<path d="M659.5 465.161H659.4L647.5 455.281C647.4 455.183 647.4 455.085 647.5 454.987C647.6 454.889 647.7 454.889 647.8 454.987L659.7 464.868C659.8 464.966 659.8 465.063 659.7 465.161C659.6 465.161 659.5 465.161 659.5 465.161Z" fill="white"/>
<path d="M658.7 467.607C658.7 467.607 658.6 467.607 658.7 467.607C658.5 467.607 658.5 467.411 658.5 467.313L659.3 464.966C659.3 464.868 659.5 464.77 659.6 464.868C659.7 464.868 659.8 465.063 659.7 465.161L658.9 467.509C658.9 467.509 658.8 467.607 658.7 467.607Z" fill="white"/>
<path d="M898 49H2V549H898V49Z" fill="white"/>
<path opacity="0.3" d="M930 0H-30V600H930V0Z" fill="#F6EAC6"/>
<path d="M191.91 179.014C191.91 179.014 264.432 53.3311 348.458 64.7312C432.485 76.1312 415.51 98.6485 451.346 111.744C542.352 144.908 557.535 30.5311 649.012 95.351C777.551 186.457 640.807 301.682 697.863 301.399C754.918 301.116 783.304 384.402 724.551 456.288C665.799 528.174 588.845 518.376 568.758 510.085C542.823 499.439 510.759 453.933 478.789 475.414C446.82 496.989 410.889 557.098 342.328 526.479C238.309 480.031 343.649 365.088 241.515 382.612C139.476 400.231 108.638 280.483 191.91 179.014Z" fill="#F8F2DE"/>
<path d="M271.652 143.809C271.652 143.809 342.942 90.9773 390.908 102.697C418.276 109.312 393.447 150.33 462.197 118.102C514.113 93.7181 585.403 92.395 618.226 137.477C652.931 185.205 585.591 228.963 608.633 231.137C631.769 233.216 715.85 194.561 713.969 253.158C712.088 311.66 651.708 350.693 658.856 351.45C665.909 352.3 705.222 347.669 694.124 381.598C683.026 415.339 577.785 495.957 558.504 458.719C544.773 432.256 540.823 426.491 520.132 446.055C504.99 460.326 443.764 509.377 391.096 495.579C338.428 481.78 383.666 403.336 354.228 416.757C324.697 430.177 236.384 456.168 203.748 403.998C171.113 351.828 268.078 250.606 256.322 247.109C244.566 243.613 187.196 257.695 206.194 207.037C215.787 180.668 271.652 143.809 271.652 143.809Z" fill="#F9B818"/>
<path d="M265.64 474.935C265.567 474.959 265.511 475.036 265.529 475.089C265.546 475.143 265.636 475.172 265.709 475.148C266.091 475.082 266.546 474.992 266.928 474.926C267.001 474.902 267.074 474.878 267.039 474.772C267.021 474.718 267.004 474.665 266.858 474.713C266.476 474.779 266.094 474.845 265.64 474.935ZM268.094 474.544C268.021 474.568 267.966 474.645 267.983 474.698C268.001 474.751 268.018 474.804 268.181 474.81C268.563 474.743 269.035 474.706 269.417 474.64C269.49 474.616 269.563 474.593 269.618 474.516C269.601 474.462 269.584 474.409 269.493 474.38C269.021 474.417 268.549 474.454 268.094 474.544C268.167 474.52 268.167 474.52 268.094 474.544ZM270.656 474.235C270.583 474.258 270.528 474.335 270.528 474.335C270.545 474.389 270.563 474.442 270.653 474.471C271.052 474.458 271.524 474.421 271.924 474.408C271.997 474.384 272.07 474.36 272.125 474.283C272.108 474.23 272.09 474.177 272 474.148C271.528 474.185 271.056 474.222 270.656 474.235ZM273.125 474.133C273.052 474.156 272.979 474.18 272.997 474.233C273.014 474.287 273.031 474.34 273.122 474.369C273.521 474.356 273.938 474.396 274.337 474.383C274.427 474.412 274.483 474.335 274.538 474.258C274.594 474.181 274.503 474.152 274.413 474.123C274.014 474.136 273.615 474.149 273.125 474.133ZM275.573 474.214C275.5 474.238 275.5 474.238 275.444 474.315C275.389 474.392 275.479 474.421 275.57 474.45C275.986 474.491 276.386 474.478 276.729 474.542C276.82 474.571 276.875 474.494 276.931 474.417C276.986 474.34 276.896 474.31 276.806 474.281C276.389 474.241 275.972 474.201 275.646 474.19C275.573 474.214 275.573 474.214 275.573 474.214ZM277.927 474.503C277.854 474.526 277.854 474.526 277.799 474.603C277.743 474.68 277.834 474.71 277.924 474.739C278.341 474.779 278.685 474.843 279.046 474.96C279.136 474.99 279.209 474.966 279.264 474.889C279.32 474.812 279.302 474.759 279.212 474.729C278.868 474.665 278.434 474.572 278.018 474.532C278 474.479 277.927 474.503 277.927 474.503ZM280.171 474.945C280.098 474.969 280.098 474.969 280.042 475.046C279.987 475.123 280.004 475.176 280.095 475.206C280.456 475.323 280.8 475.387 281.161 475.504C281.251 475.533 281.324 475.509 281.379 475.432C281.435 475.355 281.418 475.302 281.327 475.273C280.966 475.156 280.605 475.039 280.261 474.975C280.244 474.921 280.244 474.921 280.171 474.945ZM282.393 475.571C282.321 475.595 282.321 475.595 282.338 475.648C282.282 475.725 282.3 475.779 282.39 475.808C282.751 475.925 283.113 476.042 283.401 476.183C283.491 476.213 283.564 476.189 283.62 476.112C283.675 476.035 283.658 475.981 283.567 475.952C283.206 475.835 282.918 475.694 282.557 475.577C282.466 475.547 282.393 475.571 282.393 475.571ZM284.359 476.399L284.287 476.423C284.231 476.5 284.248 476.553 284.339 476.583C284.627 476.724 285.006 476.894 285.294 477.035C285.384 477.064 285.457 477.04 285.53 477.017C285.586 476.939 285.568 476.886 285.551 476.833C285.245 476.639 284.884 476.522 284.578 476.328C284.45 476.428 284.432 476.375 284.359 476.399ZM286.232 477.434L286.159 477.458C286.104 477.535 286.121 477.588 286.138 477.641C286.444 477.836 286.732 477.977 286.965 478.195C287.056 478.224 287.128 478.2 287.201 478.176C287.257 478.099 287.239 478.046 287.222 477.993C286.916 477.799 286.611 477.605 286.322 477.464C286.378 477.387 286.305 477.41 286.232 477.434ZM287.976 478.57C287.903 478.594 287.903 478.594 287.976 478.57C287.848 478.671 287.865 478.724 287.882 478.777C288.115 478.996 288.421 479.19 288.654 479.408C288.671 479.461 288.834 479.466 288.89 479.389C288.963 479.366 289.001 479.235 288.911 479.206C288.678 478.988 288.372 478.794 288.139 478.576C288.049 478.546 287.976 478.57 287.976 478.57ZM289.446 479.855C289.318 479.956 289.335 480.009 289.352 480.062C289.585 480.28 289.818 480.498 290.068 480.77C290.086 480.823 290.249 480.828 290.304 480.751C290.377 480.727 290.415 480.597 290.325 480.568C290.092 480.35 289.842 480.078 289.609 479.86C289.609 479.86 289.519 479.831 289.446 479.855ZM290.805 481.294C290.659 481.341 290.694 481.448 290.711 481.501C290.944 481.719 291.121 482.014 291.281 482.256C291.299 482.309 291.389 482.338 291.517 482.238C291.59 482.214 291.646 482.137 291.611 482.03C291.451 481.788 291.201 481.517 290.968 481.299C290.951 481.246 290.878 481.27 290.805 481.294ZM291.945 482.804C291.799 482.852 291.817 482.905 291.852 483.011C292.011 483.253 292.189 483.548 292.349 483.79C292.366 483.843 292.456 483.873 292.529 483.849C292.602 483.825 292.658 483.748 292.64 483.695C292.48 483.453 292.303 483.158 292.143 482.916C292.108 482.809 292.018 482.78 291.945 482.804ZM292.957 484.415C292.884 484.439 292.829 484.516 292.846 484.569C293.006 484.811 293.11 485.13 293.288 485.425C293.305 485.478 293.395 485.508 293.468 485.484C293.541 485.46 293.597 485.383 293.579 485.33C293.402 485.035 293.315 484.769 293.138 484.474C293.12 484.421 293.03 484.391 292.957 484.415ZM293.823 486.074C293.75 486.098 293.695 486.175 293.712 486.228C293.817 486.547 293.976 486.789 294.081 487.108C294.098 487.161 294.189 487.191 294.262 487.167C294.334 487.143 294.39 487.066 294.372 487.013C294.268 486.694 294.181 486.428 294.004 486.133C293.986 486.08 293.896 486.05 293.823 486.074ZM294.415 487.882C294.342 487.906 294.287 487.983 294.304 488.036C294.408 488.355 294.495 488.621 294.527 488.963C294.544 489.017 294.635 489.046 294.708 489.022C294.781 488.998 294.836 488.921 294.819 488.868C294.732 488.602 294.7 488.259 294.596 487.94C294.578 487.887 294.561 487.834 294.415 487.882ZM294.844 489.684C294.771 489.708 294.715 489.785 294.733 489.838C294.764 490.181 294.851 490.447 294.865 490.736C294.883 490.79 294.973 490.819 295.046 490.795C295.119 490.771 295.174 490.694 295.157 490.641C295.143 490.351 295.038 490.032 295.007 489.689C295.08 489.665 294.989 489.636 294.844 489.684C294.917 489.66 294.917 489.66 294.844 489.684ZM295.127 491.534C295.054 491.558 294.998 491.635 295.016 491.688C295.012 491.924 295.009 492.161 295.006 492.397C295.006 492.397 295.006 492.397 294.933 492.421C294.534 492.434 294.079 492.524 293.624 492.614C293.551 492.638 293.496 492.715 293.513 492.769C293.531 492.822 293.621 492.851 293.694 492.827C294.149 492.737 294.53 492.671 294.93 492.658L295.003 492.634C295.02 492.687 295.037 492.74 295.128 492.77C295.201 492.746 295.274 492.722 295.329 492.645C295.315 492.355 295.356 491.988 295.342 491.699C295.29 491.539 295.2 491.51 295.127 491.534ZM292.423 492.89C291.986 493.033 291.566 493.23 291.201 493.349C291.128 493.373 291.073 493.45 291.09 493.503C291.108 493.556 291.198 493.586 291.271 493.562C291.618 493.389 292.055 493.246 292.42 493.127C292.493 493.103 292.548 493.026 292.531 492.973C292.586 492.896 292.496 492.866 292.423 492.89ZM290.122 493.997C289.647 494.27 289.334 494.549 289.095 494.804C289.039 494.881 289.057 494.934 289.147 494.964C289.237 494.993 289.31 494.969 289.366 494.892C289.605 494.637 289.917 494.358 290.247 494.132C290.32 494.109 290.358 493.978 290.268 493.949C290.268 493.949 290.195 493.973 290.122 493.997ZM296.075 492.459C296.002 492.483 296.002 492.483 295.947 492.56C295.891 492.637 295.982 492.667 296.072 492.696C296.416 492.76 296.76 492.824 297.194 492.917C297.284 492.947 297.357 492.923 297.412 492.846C297.468 492.769 297.451 492.715 297.36 492.686C296.999 492.569 296.565 492.476 296.221 492.412C296.148 492.435 296.148 492.435 296.075 492.459ZM295.028 493.45C294.955 493.474 294.899 493.551 294.899 493.551C294.858 493.918 294.799 494.231 294.723 494.492C294.74 494.545 294.758 494.598 294.848 494.627C294.921 494.603 294.994 494.579 295.049 494.502C295.108 494.189 295.167 493.875 295.208 493.509C295.208 493.509 295.191 493.455 295.028 493.45ZM288.648 495.657C288.575 495.681 288.575 495.681 288.519 495.758C288.388 496.095 288.402 496.385 288.489 496.651C288.506 496.704 288.506 496.704 288.524 496.757C288.541 496.81 288.632 496.839 288.704 496.816C288.777 496.792 288.833 496.715 288.815 496.662L288.798 496.608C288.711 496.343 288.714 496.106 288.773 495.792C288.828 495.715 288.811 495.662 288.648 495.657ZM298.208 493.056L298.135 493.08C298.079 493.157 298.097 493.21 298.187 493.239C298.475 493.381 298.764 493.522 299.142 493.692C299.233 493.721 299.306 493.697 299.361 493.62C299.417 493.543 299.399 493.49 299.309 493.461C298.93 493.29 298.625 493.096 298.354 493.008C298.371 493.062 298.281 493.032 298.208 493.056ZM294.457 495.403C294.384 495.427 294.384 495.427 294.328 495.504C294.124 495.865 293.975 496.149 293.718 496.351C293.662 496.428 293.68 496.481 293.697 496.535C293.787 496.564 293.86 496.54 293.933 496.516C294.173 496.261 294.395 495.953 294.599 495.592C294.655 495.515 294.564 495.485 294.547 495.432C294.529 495.379 294.529 495.379 294.457 495.403ZM289.278 497.334L289.205 497.358C289.149 497.435 289.167 497.488 289.184 497.541C289.49 497.736 289.924 497.829 290.341 497.869C290.431 497.898 290.487 497.821 290.542 497.744C290.598 497.667 290.507 497.638 290.417 497.609C290 497.569 289.656 497.505 289.441 497.34C289.424 497.287 289.351 497.31 289.278 497.334ZM300.136 494.014L300.063 494.038C300.007 494.115 300.025 494.168 300.115 494.198C300.403 494.339 300.709 494.533 301.088 494.703C301.178 494.732 301.251 494.709 301.306 494.632C301.362 494.555 301.345 494.501 301.254 494.472C300.948 494.278 300.587 494.161 300.282 493.966C300.282 493.966 300.209 493.99 300.136 494.014ZM292.802 497.004C292.382 497.201 292.035 497.373 291.67 497.493C291.597 497.517 291.542 497.594 291.559 497.647C291.577 497.7 291.667 497.729 291.74 497.705C292.104 497.586 292.542 497.443 292.944 497.193C293.017 497.169 293.073 497.092 292.965 497.01C292.948 496.957 292.875 496.981 292.802 497.004ZM302.064 494.972L301.991 494.996C301.935 495.073 301.953 495.126 302.043 495.156C302.422 495.326 302.71 495.467 303.071 495.584C303.161 495.613 303.234 495.59 303.29 495.513C303.345 495.436 303.328 495.382 303.238 495.353C302.949 495.212 302.588 495.095 302.282 494.901C302.137 494.948 302.137 494.948 302.064 494.972ZM304.103 495.776C304.03 495.8 304.03 495.8 304.047 495.853C303.992 495.93 304.009 495.983 304.099 496.013C304.461 496.13 304.822 496.247 305.183 496.364C305.273 496.394 305.346 496.37 305.402 496.293C305.457 496.216 305.44 496.162 305.349 496.133C304.988 496.016 304.627 495.899 304.266 495.782C304.193 495.806 304.103 495.776 304.103 495.776ZM348.409 482.209C348.336 482.233 348.336 482.233 348.409 482.209C348.336 482.233 348.024 482.512 347.382 483.017C347.327 483.094 347.344 483.147 347.361 483.2C347.452 483.229 347.525 483.206 347.597 483.182C348.239 482.677 348.552 482.398 348.552 482.398C348.607 482.321 348.59 482.268 348.572 482.215C348.482 482.186 348.409 482.209 348.409 482.209ZM306.27 496.479C306.197 496.503 306.197 496.503 306.141 496.58C306.086 496.657 306.103 496.71 306.194 496.74C306.555 496.857 306.972 496.897 307.333 497.014C307.423 497.044 307.496 497.02 307.552 496.943C307.607 496.866 307.59 496.812 307.499 496.783C307.155 496.719 306.721 496.626 306.36 496.509C306.343 496.455 306.27 496.479 306.27 496.479ZM346.466 483.67C346.393 483.694 346.393 483.694 346.466 483.67C346.136 483.896 345.751 484.198 345.422 484.424C345.349 484.448 345.311 484.578 345.401 484.607C345.418 484.661 345.581 484.666 345.637 484.589C346.04 484.339 346.352 484.061 346.609 483.859C346.681 483.835 346.647 483.728 346.629 483.675C346.556 483.699 346.466 483.67 346.466 483.67ZM344.45 485.154C344.047 485.404 343.718 485.629 343.406 485.908C343.333 485.932 343.295 486.062 343.385 486.092C343.402 486.145 343.566 486.15 343.621 486.073C343.951 485.848 344.353 485.598 344.61 485.396C344.683 485.372 344.721 485.242 344.631 485.213C344.613 485.16 344.523 485.13 344.45 485.154ZM308.513 496.922C308.44 496.946 308.44 496.946 308.385 497.023C308.329 497.1 308.42 497.129 308.437 497.182C308.854 497.223 309.198 497.287 309.614 497.327C309.705 497.356 309.76 497.279 309.816 497.202C309.871 497.125 309.781 497.096 309.69 497.066C309.274 497.026 308.93 496.962 308.513 496.922ZM342.417 486.585C342.014 486.835 341.684 487.061 341.355 487.286C341.282 487.31 341.244 487.44 341.334 487.47C341.352 487.523 341.515 487.528 341.57 487.451C341.9 487.225 342.302 486.976 342.632 486.75C342.705 486.726 342.743 486.596 342.653 486.567C342.562 486.538 342.49 486.561 342.417 486.585ZM310.885 497.264C310.812 497.288 310.812 497.288 310.757 497.365C310.701 497.442 310.792 497.471 310.882 497.5C311.299 497.54 311.715 497.581 312.115 497.568C312.205 497.597 312.26 497.52 312.316 497.443C312.371 497.366 312.281 497.336 312.191 497.307C311.774 497.267 311.375 497.28 311.031 497.216C310.958 497.24 310.885 497.264 310.885 497.264ZM340.348 487.91C339.946 488.16 339.616 488.385 339.287 488.611C339.214 488.635 339.176 488.765 339.266 488.794C339.283 488.848 339.447 488.853 339.502 488.776C339.832 488.55 340.234 488.301 340.581 488.128C340.654 488.104 340.692 487.974 340.602 487.945C340.439 487.939 340.421 487.886 340.348 487.91ZM313.26 497.369C313.187 497.393 313.114 497.417 313.132 497.47C313.076 497.547 313.167 497.576 313.257 497.606C313.656 497.593 314.073 497.633 314.472 497.62C314.545 497.596 314.618 497.572 314.673 497.495C314.656 497.442 314.639 497.389 314.548 497.359C314.149 497.372 313.75 497.385 313.26 497.369C313.333 497.345 313.333 497.345 313.26 497.369ZM338.207 489.259C337.805 489.508 337.458 489.681 337.055 489.93C336.982 489.954 336.927 490.031 337.034 490.114C337.052 490.167 337.142 490.196 337.271 490.095C337.6 489.87 338.02 489.673 338.35 489.448C338.423 489.424 338.461 489.293 338.371 489.264C338.353 489.211 338.28 489.235 338.207 489.259ZM336.031 490.501C335.629 490.751 335.282 490.923 334.862 491.119C334.789 491.143 334.733 491.22 334.768 491.327C334.786 491.38 334.876 491.409 335.022 491.361C335.369 491.189 335.771 490.939 336.118 490.767C336.191 490.743 336.247 490.666 336.139 490.584C336.195 490.506 336.104 490.477 336.031 490.501ZM315.764 497.373C315.691 497.397 315.635 497.474 315.635 497.474C315.653 497.527 315.67 497.581 315.76 497.61C316.16 497.597 316.632 497.56 317.031 497.547C317.104 497.523 317.177 497.499 317.232 497.422C317.215 497.369 317.198 497.316 317.107 497.287C316.635 497.323 316.236 497.336 315.764 497.373ZM333.838 491.69C333.765 491.714 333.765 491.714 333.838 491.69C333.418 491.887 333.071 492.059 332.668 492.309C332.596 492.333 332.54 492.41 332.558 492.463C332.575 492.516 332.665 492.545 332.738 492.521C333.085 492.349 333.505 492.152 333.835 491.927C333.908 491.903 333.963 491.826 333.946 491.773C333.928 491.719 333.911 491.666 333.838 491.69ZM318.197 497.165C318.125 497.189 318.069 497.266 318.086 497.319C318.104 497.372 318.121 497.425 318.284 497.431C318.666 497.365 319.139 497.328 319.52 497.262C319.593 497.238 319.649 497.161 319.631 497.108C319.614 497.054 319.524 497.025 319.451 497.049C319.124 497.038 318.652 497.075 318.197 497.165C318.27 497.141 318.27 497.141 318.197 497.165ZM331.554 492.85C331.134 493.046 330.787 493.219 330.367 493.415C330.295 493.439 330.239 493.516 330.256 493.569C330.274 493.623 330.364 493.652 330.437 493.628C330.857 493.432 331.204 493.259 331.624 493.063C331.697 493.039 331.752 492.962 331.735 492.909C331.718 492.855 331.627 492.826 331.554 492.85ZM329.236 493.904C328.816 494.1 328.452 494.219 328.032 494.416C327.959 494.44 327.903 494.517 327.921 494.57C327.938 494.623 328.028 494.652 328.101 494.628C328.521 494.432 328.886 494.313 329.306 494.116C329.379 494.092 329.434 494.015 329.417 493.962C329.399 493.909 329.309 493.88 329.236 493.904ZM320.707 496.696C320.634 496.72 320.579 496.797 320.596 496.85C320.614 496.904 320.704 496.933 320.777 496.909C321.159 496.843 321.596 496.7 322.051 496.61C322.124 496.586 322.179 496.509 322.162 496.455C322.145 496.402 322.054 496.373 321.981 496.397C321.544 496.54 321.162 496.606 320.707 496.696ZM326.883 494.851C326.445 494.994 326.098 495.167 325.661 495.31C325.588 495.334 325.533 495.411 325.55 495.464C325.567 495.517 325.658 495.546 325.731 495.522C326.095 495.403 326.532 495.26 326.952 495.063C327.025 495.04 327.081 494.963 327.063 494.909C327.046 494.856 326.956 494.827 326.883 494.851ZM323.165 496.068C323.092 496.092 323.037 496.169 323.054 496.222C323.072 496.275 323.162 496.305 323.235 496.281C323.672 496.138 324.037 496.018 324.491 495.928C324.564 495.904 324.62 495.827 324.602 495.774C324.585 495.721 324.495 495.692 324.422 495.716C324.057 495.835 323.62 495.978 323.165 496.068C323.238 496.044 323.238 496.044 323.165 496.068Z" fill="#2E1F22"/>
<path d="M261.554 487.641L257.941 481.477L264.853 474.879L258.973 474.555L260.577 469.384L234.701 476.428L261.554 487.641Z" fill="#67BECB"/>
<path d="M235.364 476.177C235.269 476.178 235.08 476.261 235.08 476.345C235.08 476.511 235.175 476.595 235.27 476.678L257.846 481.644C258.036 481.644 258.131 481.56 258.225 481.477C258.225 481.31 258.13 481.227 258.035 481.143L235.364 476.177C235.459 476.177 235.364 476.177 235.364 476.177Z" fill="#2E1F22"/>
<path d="M264.852 474.629L264.758 474.63L257.27 477.143C257.081 477.226 257.081 477.31 257.081 477.477C257.176 477.643 257.271 477.643 257.461 477.643L264.948 475.13C265.138 475.046 265.137 474.962 265.137 474.796C265.137 474.712 265.042 474.629 264.852 474.629Z" fill="#2E1F22"/>
<path d="M235.364 476.178C235.174 476.178 235.08 476.261 235.08 476.428C235.08 476.595 235.175 476.678 235.365 476.678L257.366 477.643C257.556 477.643 257.65 477.559 257.65 477.392C257.65 477.226 257.555 477.142 257.365 477.143L235.364 476.178Z" fill="#2E1F22"/>
<path d="M258.973 474.305C258.878 474.306 258.783 474.389 258.689 474.473L257.081 477.31C256.987 477.477 257.082 477.56 257.177 477.643C257.366 477.726 257.461 477.643 257.556 477.559L259.163 474.722C259.258 474.555 259.163 474.472 259.068 474.389C259.068 474.305 258.973 474.305 258.973 474.305Z" fill="#2E1F22"/>
<path d="M454 74H522C522 74 519.144 53.5094 504.456 66.7114C504.456 66.7114 505 51.8592 494.12 51.0341C483.24 50.2089 482.152 64.6486 482.152 64.6486C482.152 64.6486 479.432 57.9101 473.04 58.8727C466.648 59.8354 466.784 69.0493 466.784 69.0493C466.784 69.0493 465.152 66.2988 461.208 67.6741C454.952 69.5993 454 74 454 74Z" fill="#49BACA"/>
<path d="M795.5 579H865.5C865.5 579 862.5 558.1 847.4 571.5C847.4 571.5 847.9 556.4 836.7 555.5C825.5 554.6 824.4 569.4 824.4 569.4C824.4 569.4 821.5 562.6 815 563.5C808.4 564.4 808.6 573.8 808.6 573.8C808.6 573.8 806.9 571 802.9 572.3C796.4 574.5 795.5 579 795.5 579Z" fill="#EF8615"/>
<path d="M10.7002 415H64.2002C64.2002 415 61.9002 399 50.4002 409.3C50.4002 409.3 50.8002 397.7 42.2002 397.1C33.6002 396.4 32.8002 407.8 32.8002 407.8C32.8002 407.8 30.6002 402.6 25.6002 403.3C20.6002 404 20.7002 411.2 20.7002 411.2C20.7002 411.2 19.4002 409.1 16.3002 410.1C11.4002 411.6 10.7002 415 10.7002 415Z" fill="#EF8615"/>
<path d="M849 383.521H889C889 383.521 887.3 371.621 878.7 379.221C878.7 379.221 879 370.621 872.6 370.021C866.2 369.521 865.5 378.021 865.5 378.021C865.5 378.021 863.9 374.121 860.1 374.621C856.3 375.121 856.4 380.521 856.4 380.521C856.4 380.521 855.5 378.921 853.1 379.721C849.5 380.921 849 383.521 849 383.521Z" fill="#C9B8C3"/>
<path d="M58 50.9476H-13C-13 50.9476 -10 29.7476 5.4 43.3476C5.4 43.3476 4.9 28.0476 16.2 27.0476C27.5 26.0476 28.7 41.1476 28.7 41.1476C28.7 41.1476 31.6 34.2476 38.3 35.1476C45 36.0476 44.8 45.6476 44.8 45.6476C44.8 45.6476 46.5 42.8476 50.6 44.1476C57.1 46.4476 58 50.9476 58 50.9476Z" fill="#C9B8C3"/>
<path d="M762.6 33H694.6C694.6 33 697.5 12.7 712.2 25.8C712.2 25.8 711.7 11.1 722.6 10.2C733.5 9.29998 734.6 23.7 734.6 23.7C734.6 23.7 737.4 17 743.7 17.9C750.1 18.8 749.9 27.9 749.9 27.9C749.9 27.9 751.5 25.2 755.4 26.5C761.7 28.6 762.6 33 762.6 33Z" fill="#F6CDB8"/>
<path d="M446.9 284.7L448.7 280.6L450.8 285L455.1 285.3L451.5 287.8L452.6 292L448.7 289.7L444.4 291.9L446.1 287.5L442.5 285.4L446.9 284.7Z" fill="#F9B818"/>
<path d="M160.3 61.6L158.6 57.4L156.4 61.9L152.1 62.1L155.8 64.7L154.6 68.9L158.5 66.6L162.8 68.7L161.1 64.3L164.7 62.3L160.3 61.6Z" fill="#E68888"/>
<path d="M620.1 424.1L621.9 420L624.1 424.5L628.3 424.7L624.7 427.3L625.8 431.5L621.9 429.2L617.7 431.3L619.3 426.9L615.7 424.9L620.1 424.1Z" fill="white"/>
<path d="M22.4 248.2L24.2 244L26.3 248.5L30.6 248.7L27 251.3L28.1 255.5L24.2 253.2L19.9 255.3L21.6 250.9L18 248.9L22.4 248.2Z" fill="#D8B20F"/>
<path d="M861.3 539.1L863.1 535L865.3 539.4L869.5 539.7L865.9 542.2L867 546.5L863.1 544.1L858.9 546.3L860.5 541.9L856.9 539.8L861.3 539.1Z" fill="#49BACA"/>
<path d="M822.1 473.8L823.8 469.7L826 474.1L830.3 474.4L826.6 476.9L827.8 481.1L823.9 478.8L819.6 481L821.3 476.6L817.7 474.5L822.1 473.8Z" fill="white"/>
<path d="M768.6 417.4L770.4 413.3L772.6 417.7L776.8 418L773.2 420.6L774.3 424.8L770.4 422.5L766.1 424.6L767.8 420.2L764.2 418.1L768.6 417.4Z" fill="white"/>
<path d="M897.8 209.3L899.5 205.1L901.7 209.6L906 209.8L902.3 212.4L903.5 216.6L899.6 214.3L895.3 216.5L897 212L893.4 210L897.8 209.3Z" fill="#49BACA"/>
<path d="M901.9 517.8L903.6 513.7L905.8 518.1L910 518.4L906.4 520.9L907.5 525.2L903.7 522.8L899.4 525L901.1 520.6L897.5 518.5L901.9 517.8Z" fill="url(#paint0_radial_637_2055)"/>
<path d="M771.9 572.8L773.6 568.7L775.8 573.1L780 573.4L776.4 575.9L777.5 580.2L773.7 577.8L769.4 580L771.1 575.6L767.5 573.5L771.9 572.8Z" fill="url(#paint1_radial_637_2055)"/>
<path d="M844.1 518.5L845.8 514.4L848 518.9L852.3 519.1L848.6 521.7L849.8 525.9L845.9 523.6L841.6 525.7L843.3 521.3L839.7 519.3L844.1 518.5Z" fill="#F9B818"/>
<path d="M884.1 588.5L885.8 584.4L888 588.9L892.3 589.1L888.6 591.7L889.8 595.9L885.9 593.6L881.6 595.7L883.3 591.3L879.7 589.3L884.1 588.5Z" fill="#F9B818"/>
<path d="M821.7 90.2L823.4 86L825.6 90.5L829.8 90.7L826.2 93.3L827.3 97.5L823.4 95.2L819.2 97.3L820.8 92.9L817.2 90.9L821.7 90.2Z" fill="#6EAF9F"/>
<path d="M901.7 27.2L903.4 23L905.6 27.5L909.8 27.7L906.2 30.3L907.3 34.5L903.4 32.2L899.2 34.3L900.8 29.9L897.2 27.9L901.7 27.2Z" fill="#6EAF9F"/>
<path d="M776.7 343.2L778.4 339L780.6 343.5L784.8 343.7L781.2 346.3L782.3 350.5L778.4 348.2L774.2 350.3L775.8 345.9L772.2 343.9L776.7 343.2Z" fill="#F9B818"/>
<path d="M13.1002 171.9L14.8002 167.7L17.0002 172.2L21.2002 172.4L17.6002 175L18.8002 179.2L14.9002 176.9L10.6002 179.1L12.3002 174.6L8.7002 172.6L13.1002 171.9Z" fill="#49BACA"/>
<path d="M21.1 312.5L24.8 310L24.2 314.9L27.5 317.5L23.1 317.6L21.7 321.8L19.7 317.7L15 317.1L18.8 314.3L17 310.6L21.1 312.5Z" fill="#F9B818"/>
<path d="M17 581.5L20.8 579L20.1 583.9L23.5 586.5L19.1 586.6L17.6 590.8L15.7 586.7L11 586.1L14.8 583.3L13 579.6L17 581.5Z" fill="#F9B818"/>
<path d="M13.3998 448.1L17.0998 445.7L16.3998 450.6L19.7998 453.2L15.3998 453.3L13.8998 457.4L11.9998 453.3L7.2998 452.7L11.0998 450L9.2998 446.3L13.3998 448.1Z" fill="#49BACA"/>
<path d="M61.3002 457.1L65.0002 454.6L64.3002 459.5L67.7002 462.1L63.3002 462.2L61.8002 466.3L59.9002 462.2L55.2002 461.6L59.0002 458.9L57.2002 455.2L61.3002 457.1Z" fill="#E68888"/>
<path d="M650.128 536.451L658.051 537.362L659.333 545.205L663.637 541.553L667.245 545.366L678.436 524.982L650.128 536.451Z" fill="#67BECB"/>
<path d="M658.084 537.582C657.985 537.597 657.876 537.538 657.766 537.48C657.656 537.421 657.732 537.26 657.82 537.171L677.766 525.233C677.854 525.145 678.063 525.188 678.173 525.247C678.282 525.306 678.206 525.467 678.118 525.556L658.172 537.494C658.183 537.567 658.183 537.567 658.084 537.582Z" fill="#2E1F22"/>
<path d="M659.366 545.425L659.267 545.44C659.058 545.396 659.036 545.249 659.124 545.161L661.943 539.029C662.02 538.868 662.217 538.838 662.327 538.896C662.536 538.94 662.558 539.087 662.47 539.175L659.651 545.307C659.552 545.322 659.465 545.41 659.366 545.425Z" fill="#2E1F22"/>
<path d="M662.185 539.293C662.086 539.308 661.987 539.323 661.976 539.25C661.866 539.191 661.844 539.044 661.932 538.956L677.777 525.306C677.865 525.218 678.063 525.188 678.173 525.247C678.283 525.305 678.305 525.452 678.217 525.541L662.372 539.19C662.273 539.205 662.284 539.278 662.185 539.293Z" fill="#2E1F22"/>
<path d="M663.67 541.773C663.571 541.788 663.362 541.745 663.351 541.671L661.866 539.191C661.745 539.059 661.833 538.971 662.019 538.868C662.217 538.838 662.316 538.823 662.437 538.955L663.923 541.435C664.043 541.567 663.967 541.729 663.67 541.773C663.769 541.759 663.769 541.759 663.67 541.773Z" fill="#2E1F22"/>
<path d="M636.344 568.082C635.662 568.184 634.896 568.3 634.201 568.319C634.031 568.345 633.921 568.19 633.908 568.107C633.883 567.94 634.041 567.831 634.126 567.818C634.82 567.799 635.502 567.697 636.183 567.594L636.344 568.082ZM638.461 567.678C638.291 567.704 638.193 567.633 638.168 567.466C638.143 567.299 638.216 567.203 638.386 567.177C639.068 567.075 639.737 566.889 640.406 566.703C640.576 566.677 640.674 566.748 640.699 566.915C640.724 567.081 640.651 567.178 640.481 567.203C639.812 567.389 639.143 567.575 638.461 567.678ZM632.132 568.46C631.352 568.492 630.646 568.427 629.951 568.446C629.781 568.472 629.671 568.318 629.731 568.138C629.706 567.971 629.864 567.862 630.046 567.92C630.753 567.984 631.447 567.965 632.141 567.946C632.312 567.921 632.422 568.075 632.435 568.158C632.362 568.254 632.217 568.447 632.132 568.46ZM642.476 566.562C642.39 566.575 642.208 566.517 642.182 566.35C642.157 566.183 642.23 566.087 642.388 565.978C643.057 565.792 643.713 565.522 644.37 565.253C644.54 565.227 644.638 565.298 644.736 565.368C644.761 565.535 644.688 565.632 644.615 565.728C643.886 566.094 643.23 566.363 642.476 566.562C642.561 566.549 642.561 566.549 642.476 566.562ZM627.904 568.157C627.904 568.157 627.819 568.17 627.904 568.157C627.112 568.106 626.393 567.958 625.759 567.797C625.576 567.739 625.563 567.656 625.538 567.489C625.598 567.309 625.683 567.297 625.854 567.271C626.573 567.419 627.207 567.579 627.914 567.644C628.084 567.618 628.194 567.772 628.134 567.952C628.062 568.048 627.989 568.144 627.904 568.157ZM646.427 565.029C646.342 565.041 646.159 564.984 646.146 564.9C646.036 564.746 646.109 564.65 646.267 564.541C646.923 564.271 647.567 563.918 648.126 563.578C648.284 563.469 648.381 563.54 648.492 563.694C648.602 563.848 648.529 563.944 648.371 564.053C647.8 564.31 647.156 564.663 646.427 565.029C646.512 565.016 646.512 565.016 646.427 565.029ZM623.771 567.328L623.686 567.341C623.039 567.097 622.308 566.866 621.661 566.622C621.563 566.551 621.453 566.397 621.526 566.301C621.598 566.205 621.756 566.096 621.854 566.166C622.5 566.41 623.147 566.654 623.781 566.815C623.964 566.873 623.989 567.04 623.917 567.136C623.929 567.219 623.856 567.316 623.771 567.328ZM650.108 562.853C650.022 562.866 649.925 562.796 649.827 562.725C649.717 562.571 649.789 562.475 649.862 562.378C650.408 561.955 650.954 561.531 651.5 561.108C651.573 561.012 651.756 561.069 651.854 561.14C651.952 561.211 651.891 561.39 651.819 561.487C651.273 561.91 650.726 562.334 650.095 562.77C650.193 562.841 650.108 562.853 650.108 562.853ZM619.879 565.781C619.794 565.794 619.794 565.794 619.696 565.723C619.037 565.395 618.463 565.055 617.804 564.728C617.706 564.657 617.596 564.503 617.754 564.394C617.826 564.298 617.984 564.189 618.094 564.343C618.668 564.683 619.328 565.01 619.901 565.351C619.999 565.421 620.11 565.575 620.037 565.672C620.037 565.672 619.964 565.768 619.879 565.781ZM653.36 560.146C653.274 560.158 653.189 560.171 653.177 560.088C653.079 560.017 653.054 559.85 653.212 559.741C653.745 559.234 654.194 558.74 654.642 558.246C654.715 558.15 654.885 558.124 654.983 558.195C655.081 558.265 655.106 558.432 655.033 558.528C654.597 559.106 654.064 559.613 653.615 560.107C653.445 560.133 653.36 560.146 653.36 560.146ZM616.252 563.681C616.167 563.694 616.082 563.707 616.069 563.623C615.483 563.2 614.896 562.776 614.395 562.339C614.297 562.269 614.272 562.102 614.345 562.005C614.417 561.909 614.588 561.884 614.685 561.954C615.272 562.378 615.773 562.815 616.347 563.155C616.445 563.225 616.47 563.392 616.398 563.489C616.325 563.585 616.252 563.681 616.252 563.681ZM656.025 557.014C655.94 557.027 655.855 557.039 655.842 556.956C655.744 556.885 655.719 556.718 655.792 556.622C656.228 556.045 656.578 555.48 656.916 554.832C656.989 554.735 657.147 554.626 657.245 554.697C657.342 554.768 657.453 554.922 657.38 555.018C657.042 555.666 656.691 556.231 656.255 556.808C656.183 556.905 656.11 557.001 656.025 557.014ZM612.904 561.113C612.818 561.126 612.733 561.139 612.721 561.055C612.219 560.619 611.705 560.099 611.191 559.579C611.094 559.508 611.069 559.341 611.226 559.232C611.299 559.136 611.469 559.11 611.58 559.264C612.094 559.784 612.595 560.221 613.096 560.657C613.194 560.728 613.219 560.895 613.147 560.991C612.976 561.017 612.989 561.1 612.904 561.113ZM658.091 553.375C658.006 553.388 658.006 553.388 657.921 553.401C657.823 553.33 657.713 553.176 657.785 553.08C658.038 552.444 658.291 551.809 658.544 551.173C658.604 550.994 658.775 550.968 658.872 551.039C659.055 551.097 659.08 551.263 659.008 551.36C658.755 551.995 658.515 552.714 658.262 553.349C658.334 553.253 658.262 553.349 658.091 553.375ZM609.93 558.147C609.845 558.16 609.76 558.173 609.662 558.102C609.234 557.569 608.72 557.049 608.291 556.516C608.193 556.446 608.253 556.266 608.326 556.17C608.399 556.074 608.582 556.131 608.679 556.202C609.108 556.735 609.622 557.255 610.051 557.788C610.148 557.858 610.174 558.025 610.016 558.134C610.016 558.134 610.016 558.134 609.93 558.147ZM659.498 549.409L659.413 549.421C659.23 549.364 659.218 549.28 659.193 549.113C659.468 548.048 659.525 547.271 659.585 547.091C659.56 546.925 659.718 546.816 659.901 546.873C660.071 546.848 660.182 547.002 660.122 547.181C660.062 547.361 660.004 548.138 659.741 549.287C659.656 549.299 659.584 549.396 659.498 549.409ZM607.261 554.88C607.175 554.892 607.078 554.822 606.98 554.751C606.551 554.218 606.11 553.602 605.767 553.056C605.656 552.902 605.729 552.806 605.801 552.71C605.959 552.601 606.057 552.671 606.155 552.742C606.584 553.275 606.94 553.904 607.368 554.437C607.479 554.591 607.406 554.687 607.333 554.783C607.346 554.867 607.346 554.867 607.261 554.88ZM604.919 551.477C604.834 551.49 604.736 551.419 604.638 551.349C604.282 550.72 603.854 550.187 603.498 549.558C603.387 549.404 603.46 549.308 603.618 549.198C603.776 549.089 603.873 549.16 603.984 549.314C604.34 549.943 604.683 550.489 605.124 551.105C605.235 551.259 605.162 551.355 605.004 551.464C604.919 551.477 604.919 551.477 604.919 551.477ZM602.723 547.882C602.637 547.895 602.54 547.825 602.442 547.754C602.086 547.125 601.73 546.496 601.472 545.937C601.361 545.783 601.434 545.687 601.592 545.578C601.75 545.469 601.847 545.54 601.958 545.694C602.314 546.323 602.572 546.881 602.928 547.51C603.038 547.664 602.966 547.761 602.808 547.87C602.808 547.87 602.808 547.87 602.723 547.882ZM600.769 544.166C600.684 544.179 600.501 544.121 600.489 544.037C600.218 543.395 599.862 542.766 599.591 542.124C599.566 541.958 599.553 541.874 599.711 541.765C599.881 541.739 599.967 541.727 600.077 541.881C600.348 542.523 600.704 543.152 600.975 543.794C601.085 543.948 601.025 544.127 600.769 544.166C600.855 544.153 600.855 544.153 600.769 544.166ZM599.072 540.411C598.986 540.423 598.803 540.366 598.791 540.282C598.52 539.64 598.249 538.998 597.978 538.356C597.953 538.19 598.026 538.093 598.099 537.997C598.269 537.971 598.367 538.042 598.464 538.113C598.735 538.755 599.006 539.396 599.277 540.038C599.302 540.205 599.229 540.301 599.072 540.411ZM597.447 536.559C597.361 536.572 597.178 536.514 597.166 536.431C596.895 535.789 596.624 535.147 596.439 534.492C596.413 534.325 596.486 534.229 596.559 534.133C596.729 534.107 596.827 534.178 596.925 534.248C597.195 534.89 597.466 535.532 597.652 536.187C597.677 536.354 597.604 536.45 597.447 536.559ZM595.907 532.695C595.821 532.708 595.639 532.65 595.626 532.566C595.355 531.925 595.169 531.27 594.899 530.628C594.874 530.461 594.946 530.365 595.019 530.269C595.189 530.243 595.287 530.313 595.385 530.384C595.656 531.026 595.841 531.681 596.112 532.323C596.222 532.477 596.065 532.586 595.907 532.695C595.992 532.682 595.907 532.695 595.907 532.695ZM594.439 528.734C594.354 528.747 594.171 528.689 594.159 528.606C593.875 527.881 593.605 527.239 593.431 526.667C593.406 526.501 593.479 526.404 593.552 526.308C593.722 526.282 593.82 526.353 593.918 526.424C594.176 526.982 594.361 527.637 594.645 528.362C594.755 528.516 594.61 528.709 594.439 528.734C594.525 528.722 594.439 528.734 594.439 528.734ZM582.664 529.226C582.494 529.252 582.396 529.181 582.371 529.014C582.346 528.847 582.418 528.751 582.589 528.726C583.087 528.565 583.548 528.155 583.886 527.506C583.959 527.41 584.117 527.301 584.215 527.372C584.312 527.442 584.423 527.596 584.35 527.693C583.904 528.784 583.175 529.149 582.664 529.226C582.749 529.213 582.664 529.226 582.664 529.226ZM580.749 528.661C580.664 528.674 580.579 528.687 580.566 528.603C579.967 528.096 579.599 527.384 579.498 526.716L579.754 526.678L580.009 526.639C580.097 527.223 580.453 527.852 580.942 528.205C581.04 528.276 581.065 528.443 580.992 528.539C580.835 528.648 580.749 528.661 580.749 528.661ZM592.814 524.883C592.729 524.896 592.631 524.825 592.534 524.755C592.521 524.671 592.423 524.6 592.411 524.517C592.067 523.971 591.664 523.605 591.248 523.156C591.15 523.085 591.125 522.919 591.197 522.822C591.27 522.726 591.44 522.7 591.538 522.771C592.04 523.208 592.456 523.657 592.799 524.203C592.812 524.286 592.909 524.357 592.922 524.44C593.032 524.594 592.96 524.69 592.802 524.799C592.9 524.87 592.814 524.883 592.814 524.883ZM584.768 525.838C584.683 525.851 584.683 525.851 584.768 525.838C584.585 525.78 584.487 525.709 584.462 525.542C584.545 524.933 584.615 524.239 584.587 523.476C584.562 523.309 584.72 523.2 584.805 523.187C584.975 523.161 585.085 523.315 585.098 523.399C585.126 524.163 585.056 524.856 584.986 525.549C584.926 525.729 584.853 525.825 584.768 525.838ZM580.282 524.977C580.197 524.99 580.197 524.99 580.099 524.919C580.001 524.848 579.976 524.681 580.049 524.585C580.4 524.02 580.921 523.43 581.552 522.994C581.625 522.897 581.808 522.955 581.905 523.026C582.003 523.096 581.943 523.276 581.87 523.372C581.324 523.796 580.876 524.29 580.525 524.855C580.44 524.868 580.367 524.964 580.282 524.977ZM589.709 522.193C589.623 522.206 589.623 522.206 589.538 522.219C588.892 521.975 588.258 521.814 587.551 521.75C587.381 521.775 587.27 521.621 587.33 521.442C587.305 521.275 587.463 521.166 587.646 521.223C588.353 521.288 589.084 521.519 589.731 521.763C589.829 521.834 589.939 521.988 589.867 522.084C589.879 522.167 589.794 522.18 589.709 522.193ZM583.547 522.352C583.461 522.365 583.278 522.307 583.266 522.224C583.241 522.057 583.313 521.961 583.386 521.864C583.714 521.73 584.043 521.595 584.456 521.447C584.393 521.03 584.33 520.613 584.268 520.196C584.23 519.945 584.192 519.695 584.155 519.445C584.13 519.278 584.202 519.182 584.373 519.156C584.543 519.13 584.641 519.201 584.666 519.368C584.703 519.618 584.741 519.868 584.779 520.119C584.842 520.536 584.904 520.953 584.967 521.37C585.138 521.345 585.308 521.319 585.478 521.294C585.649 521.268 585.746 521.338 585.772 521.505C585.797 521.672 585.724 521.769 585.554 521.794C584.872 521.897 584.203 522.083 583.547 522.352ZM584.049 517.583C583.878 517.609 583.781 517.538 583.755 517.371C583.655 516.704 583.469 516.049 583.284 515.394C583.259 515.228 583.331 515.131 583.502 515.106C583.672 515.08 583.77 515.151 583.795 515.318C583.993 516.056 584.179 516.71 584.279 517.378C584.292 517.461 584.134 517.571 584.049 517.583ZM583.008 513.559C582.837 513.584 582.739 513.514 582.714 513.347C582.529 512.692 582.343 512.037 582.157 511.383C582.132 511.216 582.205 511.12 582.363 511.01C582.533 510.985 582.631 511.055 582.656 511.222C582.842 511.877 583.04 512.615 583.213 513.186C583.238 513.353 583.178 513.533 583.008 513.559ZM581.796 509.56C581.711 509.573 581.528 509.515 581.503 509.348C581.38 509.11 581.33 508.777 581.207 508.539C581.059 508.135 580.911 507.73 580.775 507.409C580.75 507.242 580.823 507.146 580.895 507.05C581.066 507.024 581.164 507.095 581.261 507.166C581.409 507.57 581.557 507.974 581.693 508.295C581.816 508.533 581.866 508.867 581.989 509.104C582.039 509.438 581.966 509.534 581.796 509.56ZM580.341 505.683C580.256 505.695 580.073 505.638 580.061 505.554C579.79 504.912 579.519 504.27 579.163 503.641C579.053 503.487 579.125 503.391 579.283 503.282C579.441 503.173 579.539 503.243 579.649 503.398C579.92 504.039 580.276 504.669 580.547 505.31C580.572 505.477 580.512 505.657 580.341 505.683ZM578.473 501.953C578.388 501.966 578.29 501.895 578.192 501.825C577.836 501.196 577.493 500.65 577.149 500.104C577.039 499.95 577.112 499.854 577.27 499.745C577.427 499.636 577.525 499.706 577.635 499.861C577.979 500.406 578.42 501.022 578.776 501.652C578.887 501.806 578.814 501.902 578.656 502.011C578.473 501.953 578.473 501.953 578.473 501.953ZM576.131 498.551C576.046 498.564 575.949 498.493 575.851 498.422C575.422 497.89 574.993 497.357 574.48 496.837C574.382 496.766 574.357 496.599 574.515 496.49C574.587 496.394 574.758 496.368 574.868 496.522C575.297 497.055 575.81 497.575 576.239 498.108C576.337 498.179 576.277 498.358 576.204 498.455C576.217 498.538 576.217 498.538 576.131 498.551ZM573.316 495.476C573.231 495.489 573.146 495.501 573.133 495.418C572.632 494.981 572.118 494.461 571.532 494.038C571.434 493.967 571.409 493.8 571.481 493.704C571.554 493.608 571.724 493.582 571.822 493.653C572.409 494.076 572.91 494.513 573.424 495.033C573.522 495.104 573.547 495.27 573.389 495.38C573.389 495.38 573.402 495.463 573.316 495.476ZM570.04 492.811C569.955 492.824 569.955 492.824 569.857 492.754C569.283 492.413 568.697 491.99 568.038 491.662C567.94 491.592 567.829 491.437 567.902 491.341C567.975 491.245 568.133 491.136 568.23 491.207C568.89 491.534 569.476 491.958 570.05 492.298C570.148 492.369 570.173 492.536 570.1 492.632C570.211 492.786 570.125 492.799 570.04 492.811ZM566.341 490.808C566.256 490.821 566.256 490.821 566.17 490.834C565.524 490.59 564.865 490.262 564.231 490.102C564.133 490.031 564.022 489.877 564.095 489.781C564.155 489.601 564.326 489.575 564.423 489.646C565.07 489.89 565.802 490.121 566.376 490.462C566.474 490.532 566.584 490.686 566.511 490.783C566.511 490.783 566.426 490.795 566.341 490.808ZM562.388 489.44L562.303 489.453C561.669 489.292 560.95 489.145 560.231 488.997C560.048 488.939 560.035 488.856 560.01 488.689C560.07 488.509 560.155 488.496 560.326 488.471C561.045 488.618 561.764 488.766 562.398 488.927C562.581 488.985 562.606 489.151 562.619 489.235C562.546 489.331 562.474 489.427 562.388 489.44ZM558.171 488.624C557.379 488.573 556.672 488.508 555.965 488.444C555.795 488.47 555.685 488.316 555.745 488.136C555.72 487.969 555.877 487.86 556.06 487.918C556.767 487.982 557.474 488.046 558.181 488.111C558.351 488.085 558.461 488.239 558.401 488.419C558.414 488.502 558.341 488.599 558.171 488.624ZM553.956 488.405C553.176 488.437 552.482 488.456 551.788 488.475C551.617 488.501 551.507 488.347 551.495 488.263C551.469 488.097 551.542 488 551.713 487.975C552.407 487.956 553.173 487.84 553.88 487.905C554.051 487.879 554.161 488.033 554.173 488.116C554.199 488.283 554.126 488.38 553.956 488.405ZM547.626 489.187C547.455 489.213 547.358 489.142 547.332 488.975C547.307 488.808 547.38 488.712 547.55 488.686C547.55 488.686 548.305 488.487 549.668 488.282C549.838 488.257 549.936 488.327 549.961 488.494C549.986 488.661 549.914 488.757 549.743 488.783C548.465 488.975 547.711 489.174 547.626 489.187Z" fill="#2E1F22"/>
<path d="M645.5 407L644.8 404.4L646.7 406.4L648.8 404.7L648 407.2L650.6 407.5L648.4 408.3L649.5 410.5L647.5 409.5L646.5 411.3L646 409.4L643.7 410.5L645.1 408.7L643.3 407.6L645.5 407Z" fill="white"/>
<path d="M400 463L399.3 460.4L401.3 462.3L403.4 460.7L402.5 463.1L405.2 463.5L402.9 464.3L404.1 466.5L402 465.5L401.1 467.2L400.6 465.4L398.3 466.5L399.7 464.6L397.9 463.6L400 463Z" fill="white"/>
<path d="M260.5 396.7L259.8 394L261.8 396L263.9 394.3L263 396.8L265.6 397.1L263.4 397.9L264.5 400.1L262.5 399.1L261.5 400.9L261 399L258.8 400.1L260.2 398.3L258.3 397.2L260.5 396.7Z" fill="white"/>
<path d="M235 371.5L234.3 368.9L236.3 370.9L238.4 369.2L237.5 371.7L240.2 372L237.9 372.8L239.1 375L237 374L236.1 375.8L235.6 373.9L233.3 375L234.7 373.2L232.8 372.1L235 371.5Z" fill="white"/>
<path d="M210.9 218.1L210 214.8L212.5 217.3L215.1 215.2L214 218.3L217.3 218.7L214.5 219.7L216 222.5L213.4 221.2L212.2 223.4L211.6 221.1L208.7 222.4L210.5 220.2L208.2 218.9L210.9 218.1Z" fill="white"/>
<path d="M695.7 247.3L694.9 244L697.3 246.5L700 244.4L698.9 247.5L702.2 247.9L699.4 248.9L700.8 251.7L698.3 250.4L697 252.6L696.4 250.3L693.6 251.6L695.3 249.4L693 248.1L695.7 247.3Z" fill="#F8F2DE"/>
<path d="M8.7 210.3L7.8 207L10.3 209.4L12.9 207.4L11.9 210.4L15.2 210.8L12.3 211.8L13.8 214.6L11.2 213.4L10 215.5L9.4 213.2L6.6 214.6L8.3 212.3L6 211L8.7 210.3Z" fill="#E74E1B"/>
<path d="M40.0999 457.7L39.1999 454.4L41.6999 456.8L44.2999 454.8L43.1999 457.8L46.4999 458.2L43.6999 459.2L45.1999 462L42.5999 460.8L41.3999 462.9L40.7999 460.6L37.8999 462L39.6999 459.7L37.3999 458.4L40.0999 457.7Z" fill="#F8F2DE"/>
<path d="M845.6 474.5L844.7 471.2L847.2 473.6L849.8 471.6L848.7 474.6L852 475L849.2 476L850.6 478.8L848.1 477.6L846.9 479.7L846.2 477.4L843.4 478.8L845.2 476.5L842.9 475.2L845.6 474.5Z" fill="#F8F2DE"/>
<path d="M164 417.2L163.2 413.9L165.6 416.3L168.3 414.3L167.2 417.3L170.5 417.7L167.7 418.7L169.1 421.5L166.6 420.3L165.3 422.4L164.7 420.1L161.9 421.5L163.6 419.2L161.3 417.9L164 417.2Z" fill="white"/>
<path d="M22.7 350.3L21.8 347L24.3 349.4L26.9 347.4L25.8 350.4L29.1 350.9L26.3 351.8L27.7 354.6L25.2 353.4L24 355.5L23.3 353.2L20.5 354.6L22.3 352.3L20 351L22.7 350.3Z" fill="#EFE3BF"/>
<path d="M582.4 121.7L581.5 118.4L584 120.9L586.6 118.8L585.5 121.9L588.8 122.3L586 123.3L587.5 126.1L584.9 124.8L583.7 127L583.1 124.7L580.2 126L582 123.8L579.7 122.5L582.4 121.7Z" fill="white"/>
<path d="M824.5 379.2L823.6 375.9L826.1 378.4L828.7 376.3L827.6 379.3L830.9 379.8L828.1 380.8L829.5 383.5L827 382.3L825.8 384.5L825.1 382.1L822.3 383.5L824.1 381.2L821.8 379.9L824.5 379.2Z" fill="#F8F2DE"/>
<path d="M825.225 98.4824C825.164 98.4824 825.164 98.4824 825.104 98.4219C825.043 98.3613 825.043 98.2402 825.104 98.1797C830.371 92.1855 828.373 86.6758 826.678 83.9512C826.012 82.8008 825.164 81.832 824.316 81.0449C822.863 82.0137 821.229 82.498 820.078 82.0742C819.23 81.7715 818.867 81.0449 818.867 80.0156C818.928 79.2285 819.291 78.7441 819.896 78.623C820.926 78.3808 822.682 79.1074 824.316 80.5605C824.861 80.1367 825.406 79.6523 825.83 79.1074C826.92 77.6543 828.373 74.6269 825.467 70.5703C822.137 65.8476 822.016 61.7305 822.561 59.1269C823.105 56.2812 824.437 54.5859 824.498 54.4648C824.559 54.4043 824.68 54.3437 824.74 54.4043C824.801 54.4648 824.861 54.5859 824.801 54.6465C824.74 54.707 819.594 61.4883 825.83 70.2676C828.857 74.5664 827.344 77.7148 826.193 79.289C825.77 79.834 825.225 80.3789 824.68 80.8027C825.527 81.5898 826.314 82.5586 827.041 83.709C828.434 86.0097 831.037 92.0039 825.406 98.3613C825.285 98.4824 825.225 98.4824 825.225 98.4824ZM820.381 78.9258C820.26 78.9258 820.139 78.9258 820.018 78.9863C819.533 79.1074 819.291 79.4707 819.291 80.0762C819.23 80.9238 819.594 81.4687 820.26 81.7715C821.168 82.1348 822.682 81.7715 824.135 80.8633C822.682 79.5918 821.289 78.9258 820.381 78.9258Z" fill="#2D202A"/>
<path d="M822.5 68.6328C831.06 68.6328 838 60.88 838 51.3164C838 41.7528 831.06 34 822.5 34C813.94 34 807 41.7528 807 51.3164C807 60.88 813.94 68.6328 822.5 68.6328Z" fill="#E74C4E"/>
<path d="M823.832 67.3008C823.832 67.3008 823.287 71.0547 823.832 71.418C824.377 71.7812 826.617 71.1152 826.98 69.9043C827.344 68.6934 823.59 65.9687 823.832 67.3008Z" fill="#E42D31"/>
<path d="M826.98 37.0879C826.98 37.0879 834.064 39.4492 834.428 45.3223C834.488 46.291 830.31 42.0528 825.285 39.752C816.566 35.6953 823.408 35.7559 826.98 37.0879Z" fill="white"/>
<path d="M91.171 358.268C91.0911 358.268 91.0113 358.268 91.0113 358.188C90.9314 358.108 90.9314 357.948 91.0113 357.868C98.8365 350.842 97.0798 343.336 95.3231 339.503C94.6045 337.906 93.6463 336.469 92.6881 335.351C90.612 336.389 88.3762 336.788 86.9389 335.99C85.9009 335.431 85.5017 334.472 85.7412 333.115C85.9009 332.157 86.4598 331.518 87.3382 331.438C88.7755 331.278 90.9314 332.476 92.8478 334.712C93.6463 334.233 94.3649 333.674 95.0836 333.035C96.7604 331.278 99.0761 327.605 95.9619 321.776C92.209 315.069 92.768 309.639 93.806 306.286C95.0037 302.613 97 300.616 97.0798 300.536C97.1597 300.457 97.3194 300.457 97.3992 300.536C97.4791 300.616 97.4791 300.776 97.3992 300.856C97.3194 300.936 89.4941 309 96.2813 321.457C99.5552 327.526 97.0798 331.518 95.3231 333.275C94.6844 333.993 93.8859 334.552 93.0874 335.031C94.0456 336.229 95.0037 337.587 95.7224 339.263C97.1597 342.457 99.7149 350.682 91.2508 358.268H91.171ZM87.5777 331.917C87.4979 331.917 87.418 331.917 87.3382 331.917C86.6994 331.997 86.3001 332.396 86.2203 333.195C86.0606 334.313 86.38 335.111 87.1785 335.511C88.2964 336.069 90.3725 335.91 92.3687 334.872C90.612 333.035 88.8553 331.917 87.5777 331.917Z" fill="#2D202A"/>
<path d="M115.298 298.514C116.79 285.989 108.912 274.754 97.7016 273.418C86.4911 272.083 76.1937 281.153 74.7016 293.677C73.2096 306.201 81.0879 317.437 92.2984 318.772C103.509 320.108 113.806 311.038 115.298 298.514Z" fill="#6EAF9F"/>
<path d="M94.2049 317.305C94.2049 317.305 92.9273 322.096 93.5661 322.655C94.2049 323.214 97.2391 322.655 97.8779 321.138C98.5966 319.62 94.0452 315.468 94.2049 317.305Z" fill="#6EAF9F"/>
<path d="M103.069 278.179C103.069 278.179 111.932 282.331 111.533 290.076C111.453 291.354 106.662 285.125 100.434 281.373C89.5741 274.745 98.5971 275.863 103.069 278.179Z" fill="white"/>
<path d="M298.19 532.8C270.39 532.2 266.89 550.4 265.69 572.9L274.29 573.3C273.69 563.1 274.29 538.9 293.39 537.4C315.69 535.6 314.89 562.7 313.79 573.1L319.49 572.6C320.69 562.7 322.49 533.4 298.19 532.8Z" fill="#F9B818"/>
<path d="M293.29 537.4C274.19 538.9 273.59 563.1 274.19 573.3L280.29 573.6C280.29 573.6 281.89 541.5 294.99 542.1C308.09 542.6 308.59 573.5 308.59 573.5L313.59 573.1C314.79 562.7 315.59 535.7 293.29 537.4Z" fill="#6EAF9F"/>
<path d="M294.19 521C246.89 520.9 253.29 572.3 253.29 572.3L258.09 572.5C255.59 539.3 272.99 523.3 303.29 526.5C329.99 529.3 329.49 561.9 328.79 571.8L332.29 571.5C332.29 571.6 341.49 521.1 294.19 521Z" fill="#E42D31"/>
<path d="M303.29 526.6C273.09 523.4 255.59 539.4 258.09 572.6L265.69 573C266.89 550.6 270.49 532.3 298.19 532.9C322.49 533.4 320.69 562.8 319.39 572.7L328.79 571.9C329.49 562 329.89 529.4 303.29 526.6Z" fill="#EF8615"/>
<path d="M89.2875 210.484L97.3568 209.069L102.682 218.209L104.845 212.424L110.261 215.936L110.178 187.649L89.2875 210.484Z" fill="#EF8615"/>
<path d="M97.5039 209.327C97.5898 209.278 97.5898 209.278 97.5898 209.278L110.227 188.532C110.264 188.397 110.252 188.177 110.117 188.14C109.982 188.103 109.761 188.115 109.724 188.25L97.0873 208.995C97.0504 209.13 97.0625 209.351 97.1973 209.388C97.3321 209.425 97.418 209.376 97.5039 209.327Z" fill="#2E1F22"/>
<path d="M102.829 218.467C102.915 218.418 102.951 218.283 102.988 218.148L102.445 209.81C102.433 209.589 102.298 209.552 102.163 209.515C101.942 209.527 101.905 209.662 101.868 209.797L102.412 218.135C102.424 218.356 102.559 218.393 102.694 218.43C102.743 218.516 102.829 218.467 102.829 218.467Z" fill="#2E1F22"/>
<path d="M102.285 210.128C102.371 210.08 102.371 210.08 102.408 209.945L110.263 188.397C110.3 188.262 110.202 188.091 110.068 188.054C109.933 188.017 109.761 188.115 109.724 188.25L101.868 209.797C101.831 209.932 101.929 210.104 102.064 210.141C102.113 210.226 102.199 210.177 102.285 210.128Z" fill="#2E1F22"/>
<path d="M105.041 212.767C105.127 212.718 105.078 212.632 105.041 212.767C105.25 212.534 105.201 212.449 105.103 212.277L102.396 209.724C102.212 209.601 102.077 209.564 101.954 209.748C101.831 209.932 101.795 210.067 101.978 210.189L104.686 212.742C104.82 212.779 104.955 212.816 105.041 212.767Z" fill="#2E1F22"/>
<path d="M193.135 269.364C193.343 269.153 192.558 267.412 192.558 267.412C192.488 267.343 192.347 267.205 192.277 267.275C192.208 267.346 192.07 267.487 192.14 267.556C192.568 268.531 192.784 269.158 192.715 269.228L192.785 269.298C192.857 269.507 193.066 269.435 193.135 269.364ZM191.498 266.094C191.567 266.023 191.566 265.883 191.495 265.814C191.141 265.328 190.717 264.773 190.294 264.357C190.223 264.288 190.084 264.289 190.014 264.36C189.945 264.43 189.946 264.57 190.017 264.639C190.44 265.055 190.864 265.61 191.218 266.096C191.289 266.166 191.429 266.164 191.498 266.094ZM188.956 263.321C189.095 263.18 189.024 263.11 188.883 262.972C188.391 262.627 187.828 262.212 187.335 261.867C187.265 261.798 187.056 261.87 186.987 261.94C186.917 262.011 186.989 262.22 187.06 262.289C187.552 262.634 188.045 262.979 188.537 263.324C188.747 263.392 188.887 263.391 188.956 263.321ZM185.793 261.322C185.861 261.112 185.859 260.972 185.72 260.973C185.158 260.699 184.596 260.424 183.965 260.22C183.826 260.221 183.686 260.223 183.687 260.362C183.688 260.502 183.69 260.642 183.829 260.641C184.391 260.915 185.022 261.119 185.514 261.464C185.584 261.394 185.723 261.393 185.793 261.322ZM182.285 259.956L182.355 259.885C182.353 259.745 182.352 259.606 182.212 259.607C181.581 259.403 181.021 259.268 180.39 259.064C180.25 259.065 180.11 259.067 180.112 259.206C180.113 259.346 180.183 259.415 180.254 259.485C180.814 259.619 181.445 259.823 182.006 259.958C182.216 260.026 182.285 259.956 182.285 259.956ZM178.642 259.01L178.711 258.939C178.71 258.8 178.639 258.73 178.569 258.661C178.008 258.526 177.379 258.462 176.678 258.329C176.539 258.33 176.469 258.4 176.471 258.54C176.472 258.68 176.542 258.749 176.682 258.748C177.312 258.812 177.942 258.876 178.502 259.011C178.573 259.081 178.573 259.081 178.642 259.01ZM174.933 258.554C175.002 258.484 175.002 258.484 175.001 258.344C175 258.204 174.929 258.135 174.789 258.136C174.16 258.072 173.53 258.008 172.971 258.013C172.831 258.014 172.762 258.084 172.763 258.224C172.764 258.364 172.835 258.433 172.975 258.432C173.604 258.496 174.234 258.56 174.793 258.555C174.864 258.625 174.933 258.554 174.933 258.554ZM171.226 258.378C171.296 258.307 171.296 258.307 171.294 258.168C171.293 258.028 171.223 257.959 171.083 257.96C170.524 257.965 169.825 257.971 169.195 257.907C169.055 257.908 168.986 257.979 168.987 258.119C168.989 258.258 169.059 258.328 169.199 258.326C169.898 258.32 170.457 258.315 171.016 258.31C171.087 258.379 171.157 258.448 171.226 258.378ZM167.452 258.412C167.521 258.342 167.521 258.342 167.52 258.202C167.519 258.062 167.448 257.993 167.308 257.994C166.68 258.07 166.121 258.075 165.422 258.081C165.282 258.082 165.213 258.153 165.214 258.292C165.215 258.432 165.286 258.502 165.426 258.5C166.054 258.425 166.683 258.349 167.312 258.413C167.383 258.483 167.383 258.483 167.452 258.412ZM163.68 258.726C163.749 258.655 163.749 258.655 163.748 258.515C163.747 258.376 163.606 258.237 163.537 258.308C162.908 258.383 162.28 258.459 161.651 258.534C161.511 258.536 161.373 258.677 161.443 258.746C161.445 258.886 161.586 259.024 161.655 258.954C162.283 258.878 162.912 258.803 163.54 258.727C163.611 258.796 163.68 258.726 163.68 258.726ZM159.91 259.179C159.979 259.109 159.979 259.109 159.978 258.969C159.976 258.829 159.835 258.691 159.766 258.761C159.138 258.837 158.509 258.912 157.951 259.057C157.811 259.058 157.673 259.199 157.814 259.338C157.815 259.478 157.956 259.616 158.095 259.475C158.723 259.4 159.352 259.324 159.91 259.179C159.91 259.179 159.84 259.25 159.91 259.179ZM156.28 259.771C156.349 259.701 156.349 259.701 156.348 259.561C156.347 259.421 156.206 259.283 156.067 259.424C155.439 259.499 154.881 259.644 154.183 259.79C154.043 259.791 153.975 260.002 154.046 260.071C154.047 260.211 154.257 260.279 154.327 260.208C154.955 260.133 155.582 259.917 156.211 259.842C156.211 259.842 156.211 259.842 156.28 259.771ZM152.582 260.574C152.652 260.503 152.721 260.432 152.65 260.363C152.649 260.223 152.439 260.155 152.37 260.226C151.812 260.371 151.114 260.517 150.556 260.662C150.416 260.663 150.348 260.873 150.419 260.943C150.42 261.082 150.63 261.15 150.7 261.08C151.258 260.935 151.955 260.789 152.513 260.644C152.512 260.504 152.582 260.574 152.582 260.574ZM148.885 261.376C148.954 261.305 149.023 261.235 148.953 261.166C148.952 261.026 148.741 260.958 148.672 261.028C148.114 261.173 147.416 261.319 146.858 261.464C146.719 261.465 146.651 261.676 146.721 261.745C146.722 261.885 146.933 261.953 147.002 261.882C147.56 261.737 148.258 261.591 148.816 261.446C148.885 261.376 148.885 261.376 148.885 261.376ZM145.258 262.247C145.327 262.177 145.396 262.106 145.326 262.037C145.325 261.897 145.114 261.829 145.045 261.9C144.418 262.115 143.789 262.191 143.231 262.336C143.092 262.337 143.024 262.547 143.094 262.617C143.095 262.756 143.306 262.824 143.375 262.754C143.933 262.609 144.631 262.463 145.189 262.318C145.189 262.318 145.189 262.318 145.258 262.247ZM141.631 263.119C141.7 263.049 141.769 262.978 141.699 262.909C141.697 262.769 141.487 262.701 141.418 262.771C140.789 262.847 140.162 263.062 139.534 263.138C139.394 263.139 139.326 263.35 139.397 263.419C139.398 263.559 139.608 263.627 139.677 263.556C140.306 263.481 140.864 263.336 141.561 263.19C141.561 263.19 141.561 263.19 141.631 263.119ZM137.933 263.921C138.002 263.851 138.002 263.851 138.001 263.711C138 263.571 137.859 263.433 137.72 263.574C137.092 263.649 136.463 263.725 135.906 263.87C135.766 263.871 135.627 264.012 135.698 264.081C135.699 264.221 135.84 264.36 135.909 264.289C136.538 264.214 137.166 264.138 137.724 263.993C137.863 263.852 137.933 263.921 137.933 263.921ZM134.163 264.375C134.232 264.304 134.232 264.304 134.231 264.165C134.229 264.025 134.088 263.886 134.019 263.957C133.391 264.032 132.762 264.108 132.203 264.113C132.063 264.114 131.994 264.185 131.995 264.325C131.996 264.464 132.067 264.534 132.207 264.532C132.835 264.457 133.464 264.381 134.092 264.306C134.093 264.445 134.163 264.375 134.163 264.375ZM130.46 264.618C130.529 264.547 130.529 264.547 130.528 264.408C130.527 264.268 130.456 264.199 130.316 264.2C129.688 264.275 129.058 264.211 128.499 264.216C128.359 264.218 128.29 264.288 128.291 264.428C128.293 264.568 128.363 264.637 128.503 264.636C129.062 264.631 129.761 264.624 130.46 264.618C130.391 264.689 130.391 264.689 130.46 264.618ZM126.755 264.582C126.824 264.511 126.824 264.511 126.823 264.371C126.822 264.231 126.751 264.162 126.611 264.163C125.982 264.099 125.352 264.035 124.722 263.971C124.582 263.972 124.513 264.043 124.444 264.113C124.445 264.253 124.516 264.322 124.586 264.391C125.216 264.456 125.846 264.52 126.475 264.584C126.546 264.653 126.686 264.652 126.755 264.582ZM122.975 264.057L123.045 263.986C123.043 263.846 122.973 263.777 122.902 263.708C122.342 263.573 121.711 263.369 121.15 263.234C121.011 263.235 120.871 263.237 120.872 263.376C120.873 263.516 120.875 263.656 121.014 263.655C121.645 263.859 122.206 263.994 122.837 264.198C122.906 264.127 122.975 264.057 122.975 264.057ZM119.469 262.83C119.469 262.83 119.538 262.759 119.469 262.83C119.537 262.62 119.536 262.48 119.396 262.481C118.834 262.207 118.273 261.932 117.85 261.516C117.779 261.447 117.639 261.448 117.501 261.589C117.431 261.66 117.433 261.8 117.574 261.938C118.066 262.283 118.628 262.558 119.26 262.902C119.26 262.902 119.4 262.9 119.469 262.83ZM116.373 260.621C116.443 260.551 116.442 260.411 116.371 260.341C115.948 259.926 115.594 259.44 115.24 258.954C115.169 258.884 114.959 258.816 114.89 258.887C114.821 258.957 114.753 259.168 114.823 259.237C115.177 259.723 115.601 260.279 116.025 260.694C116.164 260.693 116.304 260.692 116.373 260.621ZM114.389 257.563C114.458 257.493 114.457 257.353 114.457 257.353C114.172 256.796 114.027 256.238 113.952 255.61C113.95 255.47 113.74 255.402 113.671 255.473C113.531 255.474 113.463 255.684 113.533 255.754C113.609 256.382 113.824 257.009 114.109 257.566C114.109 257.566 114.18 257.635 114.389 257.563ZM113.586 253.866C113.656 253.795 113.656 253.795 113.654 253.655C113.649 253.096 113.643 252.397 113.707 251.768C113.706 251.628 113.635 251.558 113.496 251.56C113.356 251.561 113.286 251.632 113.288 251.771C113.224 252.401 113.23 253.1 113.235 253.659C113.236 253.799 113.307 253.868 113.446 253.867C113.517 253.936 113.586 253.866 113.586 253.866ZM119.051 247.455C119.12 247.385 119.119 247.245 119.048 247.176C118.978 247.106 118.838 247.108 118.698 247.109C118.282 247.532 117.726 247.817 117.24 248.171C117.17 248.241 117.032 248.382 117.173 248.521C117.243 248.59 117.384 248.729 117.523 248.587C118.009 248.234 118.495 247.88 119.051 247.455ZM120.226 245.977C120.639 245.274 120.772 244.574 120.697 243.945C120.695 243.805 120.485 243.737 120.416 243.808C120.276 243.809 120.208 244.02 120.278 244.089C120.353 244.577 120.218 245.138 119.944 245.7C119.874 245.77 119.946 245.979 120.017 246.048C120.017 246.048 120.156 246.047 120.226 245.977ZM115.711 249.163C115.78 249.093 115.849 249.022 115.779 248.953C115.778 248.813 115.567 248.745 115.498 248.815C115.149 248.889 114.731 249.032 114.312 249.036C114.38 248.826 114.446 248.475 114.514 248.265C114.513 248.125 114.512 247.986 114.372 247.987C114.232 247.988 114.092 247.989 114.094 248.129C113.956 248.41 113.89 248.76 113.823 249.11C113.823 249.11 113.754 249.181 113.683 249.111C113.543 249.113 113.474 249.183 113.475 249.323C113.477 249.463 113.547 249.532 113.687 249.531C113.688 249.671 113.619 249.741 113.62 249.881C113.621 250.021 113.692 250.09 113.763 250.159C113.902 250.158 113.972 250.088 114.041 250.017C114.04 249.877 114.108 249.667 114.106 249.527C114.595 249.453 115.084 249.378 115.572 249.304C115.641 249.234 115.711 249.163 115.711 249.163ZM119.221 243.05L119.29 242.979C119.289 242.84 119.218 242.77 119.148 242.701C119.008 242.702 118.797 242.634 118.658 242.636C118.238 242.639 117.751 242.853 117.265 243.207C117.195 243.278 117.197 243.418 117.198 243.557C117.269 243.627 117.408 243.625 117.548 243.624C117.965 243.341 118.313 243.128 118.663 243.195C118.802 243.193 118.942 243.192 119.082 243.191C119.082 243.191 119.151 243.12 119.221 243.05ZM115.198 246.581C115.198 246.581 115.267 246.511 115.198 246.581C115.542 245.949 115.816 245.387 116.162 244.895C116.231 244.824 116.23 244.685 116.088 244.546C116.018 244.477 115.878 244.478 115.74 244.619C115.395 245.112 115.12 245.673 114.776 246.306C114.707 246.376 114.779 246.585 114.849 246.654C115.06 246.722 115.129 246.652 115.198 246.581ZM112.008 249.406C112.077 249.336 112.077 249.336 112.007 249.266C112.006 249.127 111.935 249.057 111.795 249.059C111.166 248.994 110.605 248.86 109.975 248.795C109.836 248.797 109.696 248.798 109.697 248.938C109.698 249.078 109.7 249.217 109.839 249.216C110.47 249.42 111.1 249.484 111.73 249.549C111.87 249.547 111.939 249.477 112.008 249.406ZM108.366 248.6C108.435 248.53 108.435 248.53 108.366 248.6C108.434 248.39 108.433 248.25 108.293 248.251C108.012 248.114 107.662 248.047 107.381 247.91C107.1 247.773 106.89 247.705 106.609 247.568C106.539 247.498 106.329 247.57 106.26 247.641C106.191 247.711 106.263 247.92 106.333 247.99C106.614 248.127 106.895 248.264 107.176 248.401C107.457 248.539 107.807 248.605 108.088 248.743C108.226 248.602 108.297 248.671 108.366 248.6ZM105.133 246.672C105.202 246.602 105.201 246.462 105.131 246.393C105.06 246.323 104.919 246.185 104.848 246.116C104.496 245.769 104.143 245.423 103.86 245.006C103.789 244.937 103.579 244.869 103.51 244.939C103.44 245.01 103.372 245.22 103.443 245.289C103.726 245.706 104.079 246.053 104.432 246.399C104.502 246.468 104.643 246.607 104.714 246.676C104.924 246.744 105.064 246.743 105.133 246.672ZM102.939 243.686C103.008 243.616 103.007 243.476 102.937 243.407C102.652 242.85 102.438 242.363 102.222 241.735C102.221 241.596 102.011 241.528 101.942 241.598C101.802 241.599 101.734 241.81 101.804 241.879C102.02 242.506 102.304 243.063 102.589 243.62C102.59 243.759 102.73 243.758 102.939 243.686C102.87 243.757 102.87 243.757 102.939 243.686ZM101.649 240.203C101.719 240.132 101.788 240.062 101.717 239.993C101.573 239.435 101.497 238.806 101.421 238.178C101.42 238.038 101.279 237.899 101.21 237.97C101.07 237.971 100.931 238.112 101.002 238.182C101.078 238.81 101.224 239.508 101.369 240.066C101.37 240.205 101.58 240.273 101.649 240.203C101.649 240.203 101.58 240.273 101.649 240.203ZM101.056 236.433C101.125 236.363 101.125 236.363 101.124 236.223C101.049 235.595 101.043 235.036 101.037 234.337C101.036 234.197 100.965 234.128 100.826 234.129C100.686 234.13 100.617 234.201 100.618 234.34C100.624 235.039 100.629 235.598 100.705 236.227C100.706 236.367 100.777 236.436 100.916 236.435C100.987 236.504 101.056 236.433 101.056 236.433ZM101.022 232.659C101.091 232.589 101.091 232.589 101.09 232.449C101.085 231.89 101.149 231.26 101.143 230.561C101.142 230.421 101.071 230.352 100.931 230.353C100.791 230.354 100.722 230.425 100.723 230.565C100.659 231.194 100.666 231.893 100.671 232.453C100.672 232.592 100.742 232.662 100.882 232.66C100.883 232.8 100.953 232.73 101.022 232.659ZM101.198 228.953C101.268 228.882 101.268 228.882 101.197 228.813C101.261 228.183 101.325 227.553 101.39 226.924C101.388 226.784 101.318 226.715 101.178 226.716C101.038 226.717 100.969 226.788 100.97 226.928C100.906 227.557 100.842 228.187 100.778 228.817C100.779 228.956 100.849 229.026 100.989 229.024C101.129 229.023 101.198 228.953 101.198 228.953ZM101.723 225.173L101.793 225.103C101.926 224.402 101.99 223.773 102.125 223.212C102.124 223.072 102.053 223.003 101.983 222.934C101.843 222.935 101.774 223.006 101.704 223.076C101.57 223.637 101.505 224.266 101.372 224.967C101.373 225.106 101.444 225.176 101.514 225.245C101.585 225.314 101.654 225.244 101.723 225.173ZM102.459 221.462L102.528 221.391C102.797 220.27 102.931 219.57 102.931 219.57C102.93 219.43 102.928 219.29 102.789 219.292C102.649 219.293 102.509 219.294 102.51 219.434C102.51 219.434 102.377 220.134 102.038 221.326C102.039 221.465 102.11 221.535 102.18 221.604C102.32 221.603 102.389 221.532 102.459 221.462Z" fill="#2E1F22"/>
<path d="M835.3 459.4L840.2 462L838.9 464.5L833.3 460.6L835.3 459.4Z" fill="#C9B8C3"/>
<path d="M898.3 570.4L903.2 573L901.9 575.5L896.3 571.6L898.3 570.4Z" fill="#C9B8C3"/>
<path d="M758.5 429.9L763.4 432.5L762 435.1L756.4 431.2L758.5 429.9Z" fill="#C9B8C3"/>
<path d="M814.5 494.2L819.4 496.8L818.1 499.3L812.5 495.4L814.5 494.2Z" fill="#C9B8C3"/>
<path d="M814.5 584.2L819.4 586.8L818.1 589.3L812.5 585.4L814.5 584.2Z" fill="#C9B8C3"/>
<path d="M127 496.4L131.8 499L130.5 501.5L124.9 497.6L127 496.4Z" fill="#C9B8C3"/>
<path d="M131.6 87.3L126.2 85.9L125.4 88.7L132.2 89.6L131.6 87.3Z" fill="#C9B8C3"/>
<path d="M243.6 102.3L238.2 100.9L237.4 103.7L244.2 104.6L243.6 102.3Z" fill="#F9B818"/>
<path d="M174.6 28.3L169.2 26.9L168.4 29.7L175.2 30.6L174.6 28.3Z" fill="#F9B818"/>
<path d="M34.5999 88.3L29.1999 86.9L28.3999 89.7L35.1999 90.6L34.5999 88.3Z" fill="#F9B818"/>
<path d="M308.4 384.2L303.7 387.2L302.1 384.9L308.2 381.8L308.4 384.2Z" fill="#F9B818"/>
<path d="M25.5998 472.5L20.9998 475.6L19.2998 473.2L25.3998 470.1L25.5998 472.5Z" fill="#F9B818"/>
<path d="M69.5998 309.5L64.9998 312.6L63.2998 310.2L69.3998 307.1L69.5998 309.5Z" fill="#67BECB"/>
<path d="M770.1 384.3L765.5 387.4L763.9 385L770 381.9L770.1 384.3Z" fill="#F9B818"/>
<path d="M793.3 522.4L788.7 525.4L787.1 523.1L793.2 520L793.3 522.4Z" fill="#F9B818"/>
<path d="M830.7 400.1L826.1 403.1L824.5 400.8L830.6 397.6L830.7 400.1Z" fill="#F9B818"/>
<path d="M23.8 133.2L19.1 136.2L17.5 133.9L23.6 130.8L23.8 133.2Z" fill="#84C5A7"/>
<path d="M883.2 499.4L878.3 496.8L879.6 494.3L885.2 498.1L883.2 499.4Z" fill="#49BACA"/>
<path d="M52.2 381.5L47.6 384.5L46 382.2L52.1 379L52.2 381.5Z" fill="#84C5A7"/>
<path d="M-0.6 152L-2.5 146.8L0.1 145.8L1.8 152.4L-0.6 152Z" fill="#E68888"/>
<path d="M41.4 197L39.5 191.8L42.1 190.8L43.8 197.4L41.4 197Z" fill="#E68888"/>
<path d="M118.3 523L122.1 520.5L121.4 525.4L124.8 528L120.4 528.1L118.9 532.3L117 528.2L112.3 527.6L116.1 524.8L114.3 521.1L118.3 523Z" fill="#E74E1B"/>
<path d="M23.8 549.2L19.1 552.2L17.5 549.9L23.6 546.8L23.8 549.2Z" fill="#84C5A7"/>
<path d="M46.7999 577L48.5999 572.8L50.6999 577.3L54.9999 577.5L51.3999 580.1L52.4999 584.3L48.5999 582L44.2999 584.1L45.9999 579.7L42.3999 577.7L46.7999 577Z" fill="url(#paint2_radial_637_2055)"/>
<path d="M104.4 573L102.5 567.8L105.1 566.8L106.8 573.4L104.4 573Z" fill="#E68888"/>
<path d="M875.8 418.3L873.9 413.1L876.6 412.1L878.2 418.7L875.8 418.3Z" fill="#E68888"/>
<path d="M804.9 384.1L803 378.9L805.6 377.9L807.3 384.6L804.9 384.1Z" fill="#E68888"/>
<path d="M885.7 231.1L881.1 234.1L879.5 231.8L885.6 228.6L885.7 231.1Z" fill="#C9B8C3"/>
<path d="M852.7 151.1L848.1 154.1L846.5 151.8L852.6 148.6L852.7 151.1Z" fill="#49BACA"/>
<path d="M868.9 216.1L867 210.9L869.6 209.9L871.3 216.6L868.9 216.1Z" fill="#E68888"/>
<path d="M55.7999 329.7L53.8999 324.5L56.5999 323.5L58.1999 330.1L55.7999 329.7Z" fill="#E68888"/>
<path d="M91.6001 86.5L95.4001 84L94.7001 88.9L98.1001 91.5L93.7001 91.6L92.2001 95.8L90.3001 91.7L85.6001 91.1L89.4001 88.3L87.6001 84.6L91.6001 86.5Z" fill="#F9B818"/>
<path d="M28.6001 152.1L33.5001 154.7L32.2001 157.2L26.6001 153.3L28.6001 152.1Z" fill="#C9B8C3"/>
<path d="M214.7 50.3L216.4 46.2L218.6 50.6L222.9 50.9L219.2 53.4L220.4 57.6L216.5 55.3L212.2 57.5L213.9 53.1L210.3 51L214.7 50.3Z" fill="#49BACA"/>
<path d="M787 99.2L788.8 95.1L791 99.5L795.2 99.8L791.6 102.3L792.7 106.6L788.8 104.2L784.5 106.4L786.2 102L782.6 99.9L787 99.2Z" fill="#F9B818"/>
<path d="M201.6 591.1L203.3 587L205.5 591.4L209.8 591.7L206.1 594.2L207.3 598.4L203.4 596.1L199.1 598.3L200.8 593.9L197.2 591.8L201.6 591.1Z" fill="#49BACA"/>
<path d="M214.8 86.3L215.3 81.8L218.6 85.4L222.7 84.5L220 88L222.3 91.7L217.9 90.6L214.4 93.9L214.8 89.2L210.7 88.2L214.8 86.3Z" fill="#E74C4E"/>
<path d="M814.8 542.3L815.2 537.8L818.6 541.4L822.7 540.5L820 544L822.3 547.7L817.9 546.6L814.4 549.9L814.8 545.2L810.7 544.2L814.8 542.3Z" fill="#E74C4E"/>
<path d="M204.6 73.1L200 76.1L198.4 73.8L204.5 70.7L204.6 73.1Z" fill="#C9B8C3"/>
<path d="M187.8 58.2L185.9 53L188.5 51.9L190.1 58.6L187.8 58.2Z" fill="#E68888"/>
<path d="M122.2 557.4L120.5 553.2L118.3 557.7L114 557.9L117.7 560.5L116.5 564.7L120.4 562.4L124.7 564.5L123 560.1L126.6 558.1L122.2 557.4Z" fill="#E68888"/>
<path d="M642.6 70.3L637.2 68.9L636.4 71.7L643.2 72.6L642.6 70.3Z" fill="#C9B8C3"/>
<path d="M732.6 54.3L727.2 52.9L726.4 55.7L733.2 56.6L732.6 54.3Z" fill="#F9B818"/>
<path d="M878.6 71.3L873.2 69.9L872.4 72.7L879.2 73.6L878.6 71.3Z" fill="#F9B818"/>
<path d="M166.5 594.1L161.1 592.7L160.3 595.5L167.1 596.4L166.5 594.1Z" fill="#F9B818"/>
<path d="M161.6 545.1L163.3 541L165.5 545.4L169.8 545.7L166.1 548.2L167.3 552.4L163.4 550.1L159.1 552.3L160.8 547.9L157.2 545.8L161.6 545.1Z" fill="#49BACA"/>
<path d="M782.7 68.3L784.4 64.2L786.6 68.6L790.9 68.9L787.2 71.4L788.4 75.6L784.5 73.3L780.2 75.5L781.9 71.1L778.3 69L782.7 68.3Z" fill="#49BACA"/>
<path d="M170.7 569.1L171.1 564.6L174.5 568.2L178.6 567.3L175.9 570.8L178.2 574.5L173.8 573.4L170.3 576.7L170.7 572L166.6 571L170.7 569.1Z" fill="#E74C4E"/>
<path d="M861.8 22.3L862.2 17.8L865.6 21.4L869.7 20.5L867 24L869.3 27.7L864.9 26.6L861.4 29.9L861.8 25.2L857.7 24.2L861.8 22.3Z" fill="#E74C4E"/>
<path d="M880.8 167.3L881.2 162.8L884.6 166.4L888.7 165.5L886 169L888.3 172.7L883.9 171.6L880.4 174.9L880.8 170.2L876.7 169.2L880.8 167.3Z" fill="#C9B8C3"/>
<path d="M152.5 561.9L147.9 564.9L146.3 562.6L152.4 559.5L152.5 561.9Z" fill="#C9B8C3"/>
<path d="M683.6 25.1L679 28.1L677.4 25.8L683.5 22.7L683.6 25.1Z" fill="#C9B8C3"/>
<path d="M676.8 70.2L674.9 65L677.5 63.9L679.1 70.6L676.8 70.2Z" fill="#E68888"/>
<path d="M846.8 50.2L844.9 45L847.5 43.9L849.1 50.6L846.8 50.2Z" fill="#E68888"/>
<path d="M124.2 21.2L122.5 17L120.3 21.5L116 21.7L119.7 24.3L118.5 28.5L122.4 26.2L126.7 28.3L125 23.9L128.6 21.9L124.2 21.2Z" fill="#E74C4E"/>
<path d="M206.2 18.4L200.8 17L200 19.8L206.8 20.7L206.2 18.4Z" fill="#C9B8C3"/>
<path d="M55.6998 9.30001L57.3998 5.20001L59.5998 9.60001L63.8998 9.90001L60.1998 12.4L61.3998 16.6L57.4998 14.3L53.1998 16.5L54.8998 12.1L51.2998 10L55.6998 9.30001Z" fill="#49BACA"/>
<path d="M258.6 41.1L254 44.1L252.4 41.8L258.5 38.7L258.6 41.1Z" fill="#C9B8C3"/>
<path d="M234.8 30.2L232.9 25L235.5 23.9L237.1 30.6L234.8 30.2Z" fill="#E68888"/>
<path d="M216.7 576L214.8 570.8L217.4 569.7L219 576.4L216.7 576Z" fill="#E68888"/>
<path d="M797.8 20.2L795.9 15L798.5 13.9L800.1 20.6L797.8 20.2Z" fill="#E68888"/>
<path d="M843.7 341.3L845.4 337.2L847.6 341.6L851.9 341.9L848.2 344.4L849.4 348.6L845.5 346.3L841.2 348.5L842.9 344.1L839.3 342L843.7 341.3Z" fill="#49BACA"/>
<path d="M848.2 296.2L846.5 292L844.3 296.5L840 296.7L843.7 299.3L842.5 303.5L846.4 301.2L850.7 303.3L849 298.9L852.6 296.9L848.2 296.2Z" fill="#E68888"/>
<path d="M899.3 298.6L897.6 294.4L895.4 298.9L891.1 299.1L894.8 301.7L893.6 305.9L897.5 303.6L901.8 305.7L900.1 301.3L903.7 299.3L899.3 298.6Z" fill="#E68888"/>
<path d="M832.6 310.3L827.2 308.9L826.4 311.7L833.2 312.6L832.6 310.3Z" fill="#F9B818"/>
<path d="M884.6 285.3L879.2 283.9L878.4 286.7L885.2 287.6L884.6 285.3Z" fill="#F9B818"/>
<path d="M807.6 353.3L802.2 351.9L801.4 354.7L808.2 355.6L807.6 353.3Z" fill="#F9B818"/>
<path d="M884.6 339.3L879.2 337.9L878.4 340.7L885.2 341.6L884.6 339.3Z" fill="#F9B818"/>
<path d="M728.1 588.5L728.5 584L731.9 587.6L736 586.7L733.3 590.2L735.6 593.9L731.2 592.8L727.7 596.1L728.1 591.4L724 590.4L728.1 588.5Z" fill="#E74C4E"/>
<path d="M793.6 321.1L789 324.1L787.4 321.8L793.5 318.7L793.6 321.1Z" fill="#C9B8C3"/>
<path d="M776.8 306.2L774.9 301L777.5 299.9L779.1 306.6L776.8 306.2Z" fill="#E68888"/>
<path d="M859.8 324.2L857.9 319L860.5 317.9L862.1 324.6L859.8 324.2Z" fill="#E68888"/>
</g>
<defs>
<radialGradient id="paint0_radial_637_2055" cx="0" cy="0" r="1" gradientUnits="userSpaceOnUse" gradientTransform="translate(903.737 519.433) scale(6.0182)">
<stop stop-color="#6EAF9F"/>
<stop offset="0.3479" stop-color="#67AD9B"/>
<stop offset="0.8662" stop-color="#52A790"/>
<stop offset="1" stop-color="#4CA58C"/>
</radialGradient>
<radialGradient id="paint1_radial_637_2055" cx="0" cy="0" r="1" gradientUnits="userSpaceOnUse" gradientTransform="translate(773.737 574.433) scale(6.0182)">
<stop stop-color="#6EAF9F"/>
<stop offset="0.3479" stop-color="#67AD9B"/>
<stop offset="0.8662" stop-color="#52A790"/>
<stop offset="1" stop-color="#4CA58C"/>
</radialGradient>
<radialGradient id="paint2_radial_637_2055" cx="0" cy="0" r="1" gradientUnits="userSpaceOnUse" gradientTransform="translate(48.6861 578.57) scale(6.0182)">
<stop stop-color="#5E359E"/>
<stop offset="0.183" stop-color="#663AA7"/>
<stop offset="0.6718" stop-color="#7844BC"/>
<stop offset="1" stop-color="#7F48C3"/>
</radialGradient>
<clipPath id="clip0_637_2055">
<rect width="900" height="600" fill="white"/>
</clipPath>
</defs>
</svg>
