<svg width="62" height="62" viewBox="0 0 62 62" fill="none" xmlns="http://www.w3.org/2000/svg">
<path d="M27.7705 15.7934C28.6178 12.4401 33.3822 12.4401 34.2295 15.7934C34.9635 18.6981 38.1468 20.2311 40.8754 18.9939C44.0254 17.5656 46.996 21.2906 44.9026 24.0438C43.0892 26.4287 43.8754 29.8733 46.544 31.2352C49.6246 32.8075 48.5645 37.4524 45.1067 37.5323C42.1115 37.6016 39.9086 40.3639 40.5076 43.2994C41.1991 46.6883 36.9066 48.7555 34.6882 46.1019C32.7666 43.8033 29.2334 43.8033 27.3118 46.1019C25.0934 48.7555 20.8009 46.6883 21.4924 43.2994C22.0914 40.3639 19.8885 37.6016 16.8933 37.5323C13.4355 37.4524 12.3754 32.8075 15.456 31.2352C18.1246 29.8733 18.9108 26.4287 17.0974 24.0438C15.004 21.2906 17.9746 17.5656 21.1246 18.9939C23.8532 20.2311 27.0365 18.6981 27.7705 15.7934Z" fill="white" stroke="#FFBD1C" stroke-width="1.47619"/>
<path d="M29.5843 22.6776C30.001 21.2669 31.999 21.2669 32.4157 22.6776L33.3644 25.8893C33.5497 26.5167 34.1259 26.9473 34.7801 26.9473H38.1279C39.5237 26.9473 40.1398 28.7052 39.0495 29.5766L36.1065 31.9286C35.6378 32.3033 35.4424 32.9244 35.6124 33.5L36.6783 37.1086C37.0875 38.4938 35.4693 39.5816 34.341 38.6799L31.9216 36.7463C31.3827 36.3156 30.6173 36.3156 30.0784 36.7463L27.6589 38.6799C26.5307 39.5816 24.9125 38.4938 25.3216 37.1086L26.3875 33.5C26.5575 32.9244 26.3622 32.3033 25.8934 31.9286L22.9505 29.5766C21.8601 28.7052 22.4763 26.9473 23.8721 26.9473H27.2199C27.8741 26.9473 28.4503 26.5167 28.6356 25.8893L29.5843 22.6776Z" fill="#FFBD1C"/>
</svg>
