<svg xmlns="http://www.w3.org/2000/svg" viewBox="0 0 16 21.31"><defs><style>.cls-1{isolation:isolate;}.cls-2{fill:#fff;}.cls-3{mix-blend-mode:multiply;opacity:0.27;}.cls-4{opacity:0.4;}.cls-5{opacity:0.35;}.cls-6,.cls-7{mix-blend-mode:soft-light;}.cls-6{opacity:0.57;}</style></defs><g class="cls-1"><g id="Layer_2" data-name="Layer 2"><g id="Layer_1-2" data-name="Layer 1"><path class="cls-2" d="M2.63,12.19c-.25.46-1.82,8.8-.72,9s1.94-4.59,1.94-4.59-.5,4.68.33,4.68S5.47,16.8,5.47,16.8s.29,4.51.91,4.51.53-4.73.53-4.73.61,4.49,1.38,4.31S7.73,12.74,7.48,12,2.86,11.77,2.63,12.19Z"/><g class="cls-3"><path class="cls-2" d="M7.66,15A.75.75,0,0,1,8,15c-.22-1.47-.46-2.71-.55-3-.26-.74-4.62-.23-4.85.19A20,20,0,0,0,2,15a1.31,1.31,0,0,1,.28-.09,1,1,0,0,1,1,.75,2.62,2.62,0,0,1,.13.48c.31-.54.76-1.09,1.3-.67a1.74,1.74,0,0,1,.46,1.18c.16-.49.51-1.18.84-1.18s.53.68.62,1.05C6.71,16.43,7.08,15.08,7.66,15Z"/></g><path class="cls-2" d="M9.52,2.73C9.26.8,7.15-.56,4.56.23S1.49,5,1.31,7.79s-.15,3.93.37,4.45A5.85,5.85,0,0,0,5.6,13.45a5,5,0,0,0,4.25-1.83C10.56,10.55,9.91,5.57,9.52,2.73Z"/><g class="cls-3"><path class="cls-2" d="M.87,11.44c.39.14,1.82-1.27,2.33-2.54C3.85,7.31,2.21,6,1,7.22-.07,8.29.61,11.35.87,11.44Z"/></g><path class="cls-2" d="M7.68,1.06a3,3,0,0,0-2.8.53c-1.14,1-1.28,2.74-1.36,4.15s-.08,3.4,1,4.55c1.87,2,4.53-1.27,5.51-3A29.54,29.54,0,0,0,9.56,3,3.35,3.35,0,0,0,7.68,1.06Z"/><path class="cls-2" d="M.45,11.37c.4.14,1.83-1.27,2.34-2.53C3.44,7.25,1.8,5.9.56,7.16-.48,8.22.2,11.28.45,11.37Z"/><path class="cls-2" d="M3.24,13c-.36,0-.44,1.24,0,1.24S3.68,13,3.24,13Z"/><path class="cls-2" d="M3.85,13c-.36,0-.44,1.24,0,1.24S4.3,13,3.85,13Z"/><path class="cls-2" d="M4.47,13c-.36,0-.44,1.24,0,1.24S4.91,13,4.47,13Z"/><path class="cls-2" d="M6.55,13c-.36,0-.44,1.24,0,1.24S7,13,6.55,13Z"/><path class="cls-2" d="M7.16,13c-.36,0-.44,1.24,0,1.24S7.61,13,7.16,13Z"/><path class="cls-2" d="M7.78,13c-.36,0-.44,1.24,0,1.24S8.23,13,7.78,13Z"/><path class="cls-2" d="M9.47,2.46a2.25,2.25,0,0,0-.56,2,2.86,2.86,0,0,0,.73,1.93c.08,0,.59-.88,2.68-.46s2.91,1.33,3.39,1.15.54-2.68-1.28-4.18A4.73,4.73,0,0,0,9.47,2.46Z"/><path class="cls-2" d="M13.85,5.88a2.94,2.94,0,0,0,.18.55c.89.38,1.36.74,1.68.62s.39-.81.21-1.68C15,5,13.55,4.55,13.85,5.88Z"/><g class="cls-4"><path class="cls-2" d="M11.63,4.67A4.46,4.46,0,0,1,8.91,3.8a3.3,3.3,0,0,0,0,.63,2.86,2.86,0,0,0,.73,1.93c.08,0,.59-.88,2.68-.46s2.91,1.33,3.39,1.15h0A5.53,5.53,0,0,0,11.63,4.67Z"/></g><g class="cls-5"><path class="cls-2" d="M4.72,4.09c0,.64,1.71.56,1.71-.14S4.72,3.34,4.72,4.09Z"/></g><path class="cls-2" d="M6.07,3.73a.62.62,0,0,1,.37-.56c.33-.1.46.23.54.47s.24.08.2-.05c-.11-.34-.31-.72-.73-.64a.81.81,0,0,0-.59.78c0,.13.19.13.21,0Z"/><g class="cls-6"><path class="cls-2" d="M13.53,3A4.14,4.14,0,0,1,15,4.38c.07.11.25,0,.18-.11a4.55,4.55,0,0,0-1.54-1.42c-.12-.06-.23.12-.11.18Z"/></g><g class="cls-6"><path class="cls-2" d="M15.24,4.81a1.87,1.87,0,0,1,.21.6c0,.13.23.08.21-.06a2.54,2.54,0,0,0-.24-.65.11.11,0,0,0-.18.11Z"/></g><g class="cls-7"><path class="cls-2" d="M5.88,1.69a2.27,2.27,0,0,1,1-.18.11.11,0,0,0,0-.21,2.54,2.54,0,0,0-1.09.19c-.12.05-.07.25.06.2Z"/></g><g class="cls-7"><path class="cls-2" d="M7.36,1.6a.86.86,0,0,1,.29.14c.1.09.25-.06.15-.15a1,1,0,0,0-.39-.19.1.1,0,0,0,0,.2Z"/></g><path class="cls-2" d="M6.56,13.56c0,.09,0,.17,0,.26s.2.13.21,0,0-.17,0-.26a.11.11,0,0,0-.11-.1s-.11,0-.1.1Z"/><path class="cls-2" d="M7.14,13.39a1.64,1.64,0,0,1,0,.23.11.11,0,0,0,.21,0,1.43,1.43,0,0,0,0-.29.1.1,0,0,0-.13-.07c-.06,0-.08.07-.07.13Z"/><path class="cls-2" d="M7.76,13.47a.36.36,0,0,1,0,.25c0,.13.17.19.2.06a.61.61,0,0,0,0-.42.1.1,0,0,0-.14,0,.11.11,0,0,0,0,.14Z"/><path class="cls-2" d="M3.21,13.6a1.94,1.94,0,0,1,0,.24.11.11,0,0,0,.21,0,1.53,1.53,0,0,0,0-.3.09.09,0,0,0-.12-.07c-.07,0-.09.07-.08.13Z"/><path class="cls-2" d="M3.78,13.38a1,1,0,0,1,0,.14.1.1,0,0,0,.1.11A.12.12,0,0,0,4,13.52,2.17,2.17,0,0,0,4,13.28a.11.11,0,0,0-.14,0,.09.09,0,0,0,0,.14Z"/><path class="cls-2" d="M4.48,13.42a1.93,1.93,0,0,1,0,.24.11.11,0,0,0,.21,0,1.93,1.93,0,0,0,0-.24.12.12,0,0,0-.11-.1s-.11,0-.1.1Z"/></g></g></g></svg>