<svg width="62" height="67" viewBox="0 0 62 67" fill="none" xmlns="http://www.w3.org/2000/svg">
<path fill-rule="evenodd" clip-rule="evenodd" d="M8.59318 24.6912C0.816123 -9.53749 51.9431 -8.00128 43.782 28.1957C40.8536 41.3014 48.7267 57.1436 61.4004 48.8865C61.0163 51.2388 56.9358 56.0875 50.5989 54.8393C45.8463 53.9272 38.6453 51.4788 37.1571 32.4682C37.0611 30.98 35.7649 32.9963 35.4289 41.4935C34.7568 57.8637 46.1343 58.1517 46.2303 58.1998C45.7023 60.6481 34.6607 63.2884 31.4923 50.9988C31.0123 49.2225 29.476 38.9971 28.948 34.8686C28.2759 29.4918 26.9797 53.7832 26.7397 55.8954C25.6355 64.9687 18.2425 67.609 15.7462 65.7848C15.6982 64.7766 21.3149 63.1924 21.6029 56.9996C21.795 52.583 22.6111 26.6114 19.2506 39.1411C15.5061 53.2071 11.3295 63.5765 0 61.4162C12.1937 55.7034 11.9536 41.9255 11.5696 34.2445C11.5216 32.6123 8.59318 24.6912 8.59318 24.6912Z" fill="#39C5F3"/>
<path fill-rule="evenodd" clip-rule="evenodd" d="M24.5795 25.315C24.8675 25.315 24.9635 25.8911 25.2516 26.1311C25.8277 26.6592 26.5958 27.1393 27.3159 27.2353C28.084 27.3313 28.8521 26.9952 29.5722 26.5152C30.0522 26.1791 30.3883 25.603 30.5323 25.8431C30.8684 26.4671 29.0441 27.9073 27.3639 27.7633C26.5958 27.7153 25.7796 27.2353 25.2036 26.8512C24.3875 26.2751 24.0514 25.315 24.5795 25.315Z" fill="#0080A6"/>
<path fill-rule="evenodd" clip-rule="evenodd" d="M16.562 19.8907C16.0819 22.579 19.0583 23.3951 19.5384 20.8988C20.1145 18.2584 17.09 18.0184 16.562 19.8907Z" fill="#001C4A"/>
<path fill-rule="evenodd" clip-rule="evenodd" d="M33.8452 19.6023C33.3651 22.2907 36.3415 23.1068 36.8216 20.6105C37.3977 17.9701 34.3732 17.7301 33.8452 19.6023Z" fill="#001C4A"/>
<path fill-rule="evenodd" clip-rule="evenodd" d="M34.8047 20.8025C34.6127 21.8586 35.7648 22.1946 36.0048 21.1865C36.1969 20.1784 34.9967 20.0824 34.8047 20.8025Z" fill="#49C1C2"/>
<path fill-rule="evenodd" clip-rule="evenodd" d="M17.7627 20.9466C17.5707 22.0027 18.7228 22.3388 18.9629 21.3306C19.1549 20.2745 17.9547 20.1785 17.7627 20.9466Z" fill="#49C1C2"/>
<path fill-rule="evenodd" clip-rule="evenodd" d="M19.6346 36.0209C18.5784 36.0209 19.7786 37.173 19.8266 36.2129C19.8266 36.1169 19.5866 36.0209 19.6346 36.0209Z" fill="#0080A6"/>
<path fill-rule="evenodd" clip-rule="evenodd" d="M19.3465 37.1249C18.2904 37.1249 19.4905 38.277 19.5385 37.3169C19.5385 37.2209 19.2985 37.1249 19.3465 37.1249Z" fill="#0080A6"/>
<path fill-rule="evenodd" clip-rule="evenodd" d="M18.9631 38.0367C19.9232 38.5648 18.243 38.9489 18.6751 38.1328C18.7711 38.0367 19.0111 38.0367 18.9631 38.0367Z" fill="#0080A6"/>
<path fill-rule="evenodd" clip-rule="evenodd" d="M18.6262 39.141C19.5863 39.6691 17.9061 40.0531 18.3381 39.237C18.4342 39.093 18.6742 39.141 18.6262 39.141Z" fill="#0080A6"/>
<path fill-rule="evenodd" clip-rule="evenodd" d="M18.4344 40.0531C17.3782 40.0531 18.5784 41.2052 18.6264 40.2451C18.6264 40.1491 18.3864 40.0531 18.4344 40.0531Z" fill="#0080A6"/>
<path fill-rule="evenodd" clip-rule="evenodd" d="M18.1941 41.1572C17.138 41.1572 18.3382 42.3093 18.3862 41.3492C18.3862 41.2532 18.1461 41.1572 18.1941 41.1572Z" fill="#0080A6"/>
<path fill-rule="evenodd" clip-rule="evenodd" d="M17.8108 42.0695C18.7709 42.5976 17.0907 42.9816 17.5227 42.1655C17.5707 42.0695 17.8108 42.1175 17.8108 42.0695Z" fill="#0080A6"/>
<path fill-rule="evenodd" clip-rule="evenodd" d="M17.4748 43.1735C18.4349 43.7016 16.7547 44.0856 17.1868 43.2695C17.2348 43.1735 17.4748 43.1735 17.4748 43.1735Z" fill="#0080A6"/>
<path fill-rule="evenodd" clip-rule="evenodd" d="M17.0906 44.0859C16.0345 44.0859 17.2346 45.238 17.2826 44.2779C17.2826 44.1819 17.0426 44.0859 17.0906 44.0859Z" fill="#0080A6"/>
<path fill-rule="evenodd" clip-rule="evenodd" d="M16.8504 45.1899C15.7943 45.1899 16.9944 46.3421 17.0424 45.382C17.0424 45.286 16.8024 45.1899 16.8504 45.1899Z" fill="#0080A6"/>
<path fill-rule="evenodd" clip-rule="evenodd" d="M16.466 46.1019C17.4262 46.63 15.7459 47.014 16.178 46.1979C16.226 46.0539 16.466 46.1019 16.466 46.1019Z" fill="#0080A6"/>
<path fill-rule="evenodd" clip-rule="evenodd" d="M16.1301 47.158C17.0902 47.6861 15.41 48.0702 15.8421 47.254C15.8901 47.158 16.1781 47.206 16.1301 47.158Z" fill="#0080A6"/>
<path fill-rule="evenodd" clip-rule="evenodd" d="M15.7938 48.2142C14.7376 48.2142 15.9378 49.3664 15.9858 48.4062C15.9858 48.3102 15.7457 48.2142 15.7938 48.2142Z" fill="#0080A6"/>
<path fill-rule="evenodd" clip-rule="evenodd" d="M15.5545 49.3183C14.4984 49.3183 15.6985 50.4704 15.7465 49.5103C15.7465 49.4143 15.5065 49.3183 15.5545 49.3183Z" fill="#0080A6"/>
<path fill-rule="evenodd" clip-rule="evenodd" d="M15.1701 50.1828C16.1303 50.7109 14.45 51.0949 14.8821 50.2788C14.9301 50.1828 15.1701 50.2308 15.1701 50.1828Z" fill="#0080A6"/>
<path fill-rule="evenodd" clip-rule="evenodd" d="M14.8344 51.1429C15.6025 51.863 13.9223 51.863 14.5464 51.1909C14.6424 51.0949 14.8344 51.191 14.8344 51.1429Z" fill="#0080A6"/>
<path fill-rule="evenodd" clip-rule="evenodd" d="M14.402 52.0068C13.3459 51.7188 14.258 53.159 14.5461 52.2469C14.5461 52.1508 14.354 52.0068 14.402 52.0068Z" fill="#0080A6"/>
<path fill-rule="evenodd" clip-rule="evenodd" d="M13.8737 53.0152C12.8176 52.7272 13.7297 54.1674 14.0177 53.2553C14.0177 53.1593 13.8257 53.0152 13.8737 53.0152Z" fill="#0080A6"/>
<path fill-rule="evenodd" clip-rule="evenodd" d="M13.2495 53.7833C14.0176 54.5034 12.3373 54.5034 12.9614 53.8313C13.0574 53.7352 13.2975 53.8313 13.2495 53.7833Z" fill="#0080A6"/>
<path fill-rule="evenodd" clip-rule="evenodd" d="M12.6733 54.7434C13.4414 55.4635 11.7612 55.4635 12.3853 54.7914C12.4333 54.6954 12.6733 54.7914 12.6733 54.7434Z" fill="#0080A6"/>
<path fill-rule="evenodd" clip-rule="evenodd" d="M12.0495 55.5595C10.9934 55.2715 11.9055 56.7117 12.1935 55.7995C12.2415 55.7035 12.0495 55.5595 12.0495 55.5595Z" fill="#0080A6"/>
<path fill-rule="evenodd" clip-rule="evenodd" d="M11.5212 56.5674C10.465 56.2794 11.3772 57.7196 11.6652 56.8075C11.7132 56.7114 11.5212 56.5674 11.5212 56.5674Z" fill="#0080A6"/>
<path fill-rule="evenodd" clip-rule="evenodd" d="M10.9458 57.3357C11.7139 58.0558 10.0336 58.0558 10.6577 57.3837C10.7057 57.2877 10.9458 57.3357 10.9458 57.3357Z" fill="#0080A6"/>
<path fill-rule="evenodd" clip-rule="evenodd" d="M10.1772 58.0556C10.9453 58.7757 9.26508 58.7757 9.88916 58.1036C9.93717 58.0076 10.1772 58.1036 10.1772 58.0556Z" fill="#0080A6"/>
<path fill-rule="evenodd" clip-rule="evenodd" d="M9.45695 58.9677C9.84101 59.3517 9.0249 59.3037 9.31294 58.9677C9.36095 58.9197 9.45695 58.9677 9.45695 58.9677Z" fill="#0080A6"/>
<path fill-rule="evenodd" clip-rule="evenodd" d="M8.78511 59.4477C9.16916 59.7838 8.35302 59.7838 8.64106 59.4477C8.68907 59.3997 8.78511 59.4477 8.78511 59.4477Z" fill="#0080A6"/>
<path fill-rule="evenodd" clip-rule="evenodd" d="M7.63273 60.0722C8.01679 60.4082 7.20068 60.4082 7.48872 60.0722C7.53673 60.0242 7.63273 60.0722 7.63273 60.0722Z" fill="#0080A6"/>
<path fill-rule="evenodd" clip-rule="evenodd" d="M27.3156 40.197C26.2595 40.4371 27.6997 41.3012 27.5557 40.341C27.5557 40.245 27.3156 40.197 27.3156 40.197Z" fill="#0080A6"/>
<path fill-rule="evenodd" clip-rule="evenodd" d="M27.3635 41.3016C26.3074 41.5416 27.7475 42.4057 27.6035 41.4456C27.5555 41.3496 27.3155 41.3016 27.3635 41.3016Z" fill="#0080A6"/>
<path fill-rule="evenodd" clip-rule="evenodd" d="M27.1719 42.2617C28.1801 42.5498 26.6919 43.3179 26.9319 42.4057C26.9319 42.3097 27.2199 42.3097 27.1719 42.2617Z" fill="#0080A6"/>
<path fill-rule="evenodd" clip-rule="evenodd" d="M27.0762 43.4136C28.0844 43.7016 26.5962 44.4697 26.8362 43.5576C26.8842 43.4616 27.1242 43.4136 27.0762 43.4136Z" fill="#0080A6"/>
<path fill-rule="evenodd" clip-rule="evenodd" d="M27.1233 44.3737C26.0671 44.6138 27.5073 45.4779 27.3633 44.5177C27.3153 44.4217 27.0753 44.3737 27.1233 44.3737Z" fill="#0080A6"/>
<path fill-rule="evenodd" clip-rule="evenodd" d="M27.1233 45.5261C26.0671 45.7661 27.5073 46.6302 27.3633 45.6701C27.3153 45.5741 27.0753 45.5261 27.1233 45.5261Z" fill="#0080A6"/>
<path fill-rule="evenodd" clip-rule="evenodd" d="M26.9317 46.4862C27.9398 46.7742 26.4516 47.5423 26.6917 46.6302C26.7397 46.5342 26.9797 46.4862 26.9317 46.4862Z" fill="#0080A6"/>
<path fill-rule="evenodd" clip-rule="evenodd" d="M26.836 47.6381C27.8441 47.9261 26.3559 48.6942 26.596 47.7821C26.644 47.6381 26.884 47.6381 26.836 47.6381Z" fill="#0080A6"/>
<path fill-rule="evenodd" clip-rule="evenodd" d="M26.6916 48.5982C25.6355 48.8382 27.0757 49.7024 26.9317 48.7422C26.9317 48.6462 26.6916 48.5982 26.6916 48.5982Z" fill="#0080A6"/>
<path fill-rule="evenodd" clip-rule="evenodd" d="M26.6916 49.7027C25.6355 49.9427 27.0757 50.8068 26.9317 49.8467C26.9317 49.7507 26.6916 49.7507 26.6916 49.7027Z" fill="#0080A6"/>
<path fill-rule="evenodd" clip-rule="evenodd" d="M26.4036 50.7585C27.4598 51.0465 25.9235 51.8146 26.1636 50.9025C26.1636 50.8065 26.4036 50.8065 26.4036 50.7585Z" fill="#0080A6"/>
<path fill-rule="evenodd" clip-rule="evenodd" d="M26.3079 51.9108C27.364 52.1989 25.8278 52.967 26.0679 52.0549C26.1159 51.9589 26.3559 51.9108 26.3079 51.9108Z" fill="#0080A6"/>
<path fill-rule="evenodd" clip-rule="evenodd" d="M26.2602 52.967C25.204 53.2071 26.6922 54.0712 26.5002 53.1111C26.4522 53.015 26.2122 52.967 26.2602 52.967Z" fill="#0080A6"/>
<path fill-rule="evenodd" clip-rule="evenodd" d="M26.2602 54.119C25.204 54.359 26.6922 55.2231 26.5002 54.263C26.5002 54.167 26.2602 54.119 26.2602 54.119Z" fill="#0080A6"/>
<path fill-rule="evenodd" clip-rule="evenodd" d="M26.1155 55.0791C27.1717 55.3671 25.6355 56.1352 25.8755 55.2231C25.9235 55.1271 26.1635 55.0791 26.1155 55.0791Z" fill="#0080A6"/>
<path fill-rule="evenodd" clip-rule="evenodd" d="M26.0196 56.0872C26.9317 56.6153 25.2995 56.9993 25.7316 56.1832C25.8276 56.0392 26.0676 56.0872 26.0196 56.0872Z" fill="#0080A6"/>
<path fill-rule="evenodd" clip-rule="evenodd" d="M25.8279 56.9993C24.7718 56.9993 25.9719 58.1515 26.0199 57.2394C26.0199 57.0953 25.7799 56.9993 25.8279 56.9993Z" fill="#0080A6"/>
<path fill-rule="evenodd" clip-rule="evenodd" d="M25.5389 58.1039C24.4827 58.1039 25.6829 59.256 25.7309 58.3439C25.7309 58.1999 25.4909 58.1039 25.5389 58.1039Z" fill="#0080A6"/>
<path fill-rule="evenodd" clip-rule="evenodd" d="M25.1553 59.0157C26.0675 59.5438 24.4352 59.9278 24.8673 59.1117C24.9153 59.0157 25.1553 59.0157 25.1553 59.0157Z" fill="#0080A6"/>
<path fill-rule="evenodd" clip-rule="evenodd" d="M24.7716 60.1199C25.6837 60.648 24.0515 61.0321 24.4835 60.2159C24.5795 60.0719 24.8196 60.1199 24.7716 60.1199Z" fill="#0080A6"/>
<path fill-rule="evenodd" clip-rule="evenodd" d="M24.3875 60.9843C23.3314 60.9843 24.5315 62.1364 24.5795 61.2243C24.5795 61.0803 24.3875 60.9843 24.3875 60.9843Z" fill="#0080A6"/>
<path fill-rule="evenodd" clip-rule="evenodd" d="M23.8112 61.7521C22.7551 61.464 23.6672 62.9042 23.9552 61.9921C24.0032 61.8961 23.8112 61.7521 23.8112 61.7521Z" fill="#0080A6"/>
<path fill-rule="evenodd" clip-rule="evenodd" d="M23.2348 62.5201C24.0029 63.2402 22.3227 63.2402 22.9468 62.5681C23.0428 62.4721 23.2348 62.5681 23.2348 62.5201Z" fill="#0080A6"/>
<path fill-rule="evenodd" clip-rule="evenodd" d="M22.4673 63.2884C23.2354 64.0085 21.5551 64.0085 22.1792 63.3364C22.2272 63.1924 22.4673 63.2884 22.4673 63.2884Z" fill="#0080A6"/>
<path fill-rule="evenodd" clip-rule="evenodd" d="M21.747 64.1525C22.1311 64.4886 21.3149 64.4886 21.603 64.1525C21.651 64.1525 21.747 64.2005 21.747 64.1525Z" fill="#0080A6"/>
<path fill-rule="evenodd" clip-rule="evenodd" d="M21.0751 64.6326C21.4592 64.9686 20.6431 64.9686 20.9311 64.6326C20.9791 64.6326 21.0751 64.6326 21.0751 64.6326Z" fill="#0080A6"/>
<path fill-rule="evenodd" clip-rule="evenodd" d="M19.9228 65.3046C20.3068 65.6887 19.4907 65.6406 19.7788 65.3046C19.8268 65.2566 19.9228 65.3046 19.9228 65.3046Z" fill="#0080A6"/>
<path fill-rule="evenodd" clip-rule="evenodd" d="M30.0044 36.8366C29.0443 37.2687 30.6285 37.8448 30.2445 36.9326C30.1965 36.8846 29.9564 36.8846 30.0044 36.8366Z" fill="#0080A6"/>
<path fill-rule="evenodd" clip-rule="evenodd" d="M30.2437 37.989C29.2836 38.421 30.8678 38.9971 30.4837 38.085C30.4357 37.989 30.1957 37.989 30.2437 37.989Z" fill="#0080A6"/>
<path fill-rule="evenodd" clip-rule="evenodd" d="M30.2441 38.9491C31.3002 39.0451 30.0041 40.1013 30.0521 39.1411C30.0521 39.0451 30.2921 38.9491 30.2441 38.9491Z" fill="#0080A6"/>
<path fill-rule="evenodd" clip-rule="evenodd" d="M30.4365 40.1014C31.4927 40.1975 30.1965 41.2536 30.2445 40.2935C30.2445 40.1495 30.4365 40.1014 30.4365 40.1014Z" fill="#0080A6"/>
<path fill-rule="evenodd" clip-rule="evenodd" d="M30.6285 41.0132C29.6683 41.4453 31.2526 42.0214 30.8685 41.1092C30.8685 41.0132 30.5805 41.0613 30.6285 41.0132Z" fill="#0080A6"/>
<path fill-rule="evenodd" clip-rule="evenodd" d="M30.8677 42.1173C29.9076 42.5494 31.4918 43.1255 31.1078 42.2133C31.0598 42.1653 30.8197 42.1653 30.8677 42.1173Z" fill="#0080A6"/>
<path fill-rule="evenodd" clip-rule="evenodd" d="M30.9162 43.1257C31.9723 43.2217 30.6761 44.2779 30.7241 43.3178C30.6761 43.1738 30.9162 43.1257 30.9162 43.1257Z" fill="#0080A6"/>
<path fill-rule="evenodd" clip-rule="evenodd" d="M31.0605 44.2298C32.1166 44.3258 30.8205 45.382 30.8685 44.4218C30.8685 44.3258 31.1085 44.2298 31.0605 44.2298Z" fill="#0080A6"/>
<path fill-rule="evenodd" clip-rule="evenodd" d="M31.108 45.2377C30.1478 45.6698 31.732 46.2459 31.348 45.3338C31.3 45.2377 31.06 45.2377 31.108 45.2377Z" fill="#0080A6"/>
<path fill-rule="evenodd" clip-rule="evenodd" d="M31.3482 46.3423C30.3881 46.7743 31.9723 47.3504 31.5882 46.4383C31.5402 46.3423 31.3002 46.3423 31.3482 46.3423Z" fill="#0080A6"/>
<path fill-rule="evenodd" clip-rule="evenodd" d="M31.2519 47.4463C32.3081 47.5423 31.0119 48.5985 31.0599 47.6383C31.0599 47.4943 31.2519 47.4463 31.2519 47.4463Z" fill="#0080A6"/>
<path fill-rule="evenodd" clip-rule="evenodd" d="M31.5408 48.3583C30.6287 48.9344 32.309 49.2224 31.8289 48.4543C31.7329 48.3103 31.4928 48.3583 31.5408 48.3583Z" fill="#0080A6"/>
<path fill-rule="evenodd" clip-rule="evenodd" d="M31.9246 49.4144C31.0125 49.9905 32.6928 50.2785 32.2127 49.5104C32.1647 49.4144 31.8766 49.4144 31.9246 49.4144Z" fill="#0080A6"/>
<path fill-rule="evenodd" clip-rule="evenodd" d="M32.1168 50.3745C33.173 50.3265 32.0208 51.5267 31.9248 50.6146C31.9248 50.4705 32.1168 50.3745 32.1168 50.3745Z" fill="#0080A6"/>
<path fill-rule="evenodd" clip-rule="evenodd" d="M32.4039 51.4791C33.4601 51.4311 32.3079 52.6312 32.2119 51.7191C32.2119 51.5751 32.4519 51.4791 32.4039 51.4791Z" fill="#0080A6"/>
<path fill-rule="evenodd" clip-rule="evenodd" d="M32.7889 52.3911C31.8768 52.9672 33.557 53.2552 33.0769 52.4871C32.9809 52.3431 32.7409 52.3911 32.7889 52.3911Z" fill="#0080A6"/>
<path fill-rule="evenodd" clip-rule="evenodd" d="M33.1726 53.4472C32.4525 54.2153 34.1327 54.1193 33.4606 53.4472C33.3646 53.3512 33.1726 53.4952 33.1726 53.4472Z" fill="#0080A6"/>
<path fill-rule="evenodd" clip-rule="evenodd" d="M33.6043 54.3592C34.6125 54.0232 33.7964 55.5114 33.5083 54.5993C33.4123 54.5033 33.6043 54.3112 33.6043 54.3592Z" fill="#0080A6"/>
<path fill-rule="evenodd" clip-rule="evenodd" d="M34.181 55.3193C35.1891 54.9833 34.373 56.4715 34.085 55.5594C34.037 55.4633 34.181 55.3193 34.181 55.3193Z" fill="#0080A6"/>
<path fill-rule="evenodd" clip-rule="evenodd" d="M34.613 56.1834C33.8929 56.9515 35.5731 56.8555 34.901 56.1834C34.805 56.1354 34.565 56.2314 34.613 56.1834Z" fill="#0080A6"/>
<path fill-rule="evenodd" clip-rule="evenodd" d="M35.237 57.1435C34.5169 57.9116 36.1971 57.8156 35.525 57.1435C35.429 57.0955 35.237 57.1915 35.237 57.1435Z" fill="#0080A6"/>
<path fill-rule="evenodd" clip-rule="evenodd" d="M36.1971 57.8158C37.2053 57.4797 36.4371 58.9679 36.1011 58.0558C36.0051 58.0078 36.1971 57.8158 36.1971 57.8158Z" fill="#0080A6"/>
<path fill-rule="evenodd" clip-rule="evenodd" d="M37.1093 58.4876C36.5332 59.3997 38.1654 59.0157 37.3973 58.4396C37.3013 58.3916 37.1093 58.5356 37.1093 58.4876Z" fill="#0080A6"/>
<path fill-rule="evenodd" clip-rule="evenodd" d="M38.0209 59.2077C37.7329 59.6398 38.549 59.4477 38.165 59.2077C38.117 59.1597 38.0209 59.2557 38.0209 59.2077Z" fill="#0080A6"/>
<path fill-rule="evenodd" clip-rule="evenodd" d="M38.7895 59.5439C38.5015 59.9759 39.3176 59.7839 38.9335 59.5439C38.8855 59.4959 38.7895 59.5439 38.7895 59.5439Z" fill="#0080A6"/>
<path fill-rule="evenodd" clip-rule="evenodd" d="M40.0375 59.9278C39.7495 60.3598 40.5656 60.1678 40.1816 59.9278C40.1336 59.8798 40.0375 59.9278 40.0375 59.9278Z" fill="#0080A6"/>
<path fill-rule="evenodd" clip-rule="evenodd" d="M38.1656 35.1085C37.2054 35.5406 38.7897 36.1167 38.4056 35.2045C38.4056 35.1085 38.1656 35.1565 38.1656 35.1085Z" fill="#0080A6"/>
<path fill-rule="evenodd" clip-rule="evenodd" d="M38.4048 36.2609C37.4447 36.6929 39.0289 37.269 38.6449 36.3569C38.6449 36.2609 38.4048 36.2609 38.4048 36.2609Z" fill="#0080A6"/>
<path fill-rule="evenodd" clip-rule="evenodd" d="M38.4531 37.221C39.5093 37.317 38.2131 38.3732 38.2611 37.413C38.2611 37.317 38.5011 37.221 38.4531 37.221Z" fill="#0080A6"/>
<path fill-rule="evenodd" clip-rule="evenodd" d="M38.5976 38.3251C39.6538 38.4211 38.3576 39.4772 38.4056 38.5171C38.4056 38.4211 38.6456 38.3251 38.5976 38.3251Z" fill="#0080A6"/>
<path fill-rule="evenodd" clip-rule="evenodd" d="M38.8375 39.2852C37.8773 39.7173 39.4615 40.2934 39.0775 39.3812C39.0295 39.2852 38.7894 39.2852 38.8375 39.2852Z" fill="#0080A6"/>
<path fill-rule="evenodd" clip-rule="evenodd" d="M39.0289 40.3893C38.0687 40.8213 39.6529 41.3974 39.2689 40.4853C39.2689 40.3893 39.0289 40.4373 39.0289 40.3893Z" fill="#0080A6"/>
<path fill-rule="evenodd" clip-rule="evenodd" d="M39.0771 41.3972C40.1333 41.4932 38.8371 42.5494 38.8851 41.5892C38.8851 41.4452 39.1251 41.3972 39.0771 41.3972Z" fill="#0080A6"/>
<path fill-rule="evenodd" clip-rule="evenodd" d="M39.5571 42.5494C40.6132 42.3574 39.6051 43.7015 39.4131 42.7894C39.4131 42.6454 39.6051 42.5494 39.5571 42.5494Z" fill="#0080A6"/>
<path fill-rule="evenodd" clip-rule="evenodd" d="M39.8453 43.4619C39.0292 44.1339 40.7095 44.278 40.1334 43.5098C40.0854 43.4138 39.8453 43.5099 39.8453 43.4619Z" fill="#0080A6"/>
<path fill-rule="evenodd" clip-rule="evenodd" d="M40.3737 44.4698C39.5576 45.1419 41.2378 45.286 40.6617 44.5179C40.5657 44.4219 40.3257 44.5179 40.3737 44.4698Z" fill="#0080A6"/>
<path fill-rule="evenodd" clip-rule="evenodd" d="M40.5654 45.5742C41.6216 45.3821 40.6134 46.7263 40.4214 45.8142C40.3734 45.7182 40.6134 45.5742 40.5654 45.5742Z" fill="#0080A6"/>
<path fill-rule="evenodd" clip-rule="evenodd" d="M41.0935 46.3901C40.3734 47.1582 42.0536 47.0622 41.3815 46.3901C41.2855 46.2941 41.0455 46.4381 41.0935 46.3901Z" fill="#0080A6"/>
<path fill-rule="evenodd" clip-rule="evenodd" d="M41.7175 47.3502C40.9974 48.1183 42.6776 48.0223 42.0055 47.3502C41.9095 47.2542 41.7175 47.3502 41.7175 47.3502Z" fill="#0080A6"/>
<path fill-rule="evenodd" clip-rule="evenodd" d="M42.1498 48.2145C43.1579 47.8784 42.3898 49.3666 42.0537 48.4545C42.0057 48.3585 42.1498 48.2145 42.1498 48.2145Z" fill="#0080A6"/>
<path fill-rule="evenodd" clip-rule="evenodd" d="M42.7258 49.1746C43.734 48.8386 42.9659 50.3268 42.6298 49.4146C42.5818 49.3666 42.7738 49.1746 42.7258 49.1746Z" fill="#0080A6"/>
<path fill-rule="evenodd" clip-rule="evenodd" d="M43.3024 49.9906C42.5823 50.7587 44.2626 50.6627 43.5905 49.9906C43.4945 49.8946 43.2544 49.9906 43.3024 49.9906Z" fill="#0080A6"/>
<path fill-rule="evenodd" clip-rule="evenodd" d="M43.9737 50.9027C43.4456 51.8628 45.0779 51.3347 44.2617 50.8547C44.1657 50.8067 43.9737 50.9507 43.9737 50.9027Z" fill="#0080A6"/>
<path fill-rule="evenodd" clip-rule="evenodd" d="M44.5986 51.671C45.5107 51.095 45.0787 52.7272 44.5506 51.9591C44.4546 51.8631 44.5986 51.671 44.5986 51.671Z" fill="#0080A6"/>
<path fill-rule="evenodd" clip-rule="evenodd" d="M45.4625 52.1992C46.2786 51.4791 46.1346 53.1593 45.4625 52.4872C45.3665 52.3912 45.5105 52.1512 45.4625 52.1992Z" fill="#0080A6"/>
<path fill-rule="evenodd" clip-rule="evenodd" d="M46.23 52.8228C45.894 53.831 47.3822 53.0629 46.5181 52.7268C46.374 52.6788 46.23 52.8709 46.23 52.8228Z" fill="#0080A6"/>
<path fill-rule="evenodd" clip-rule="evenodd" d="M47.191 53.399C46.8549 54.4072 48.3431 53.639 47.479 53.303C47.335 53.255 47.191 53.447 47.191 53.399Z" fill="#0080A6"/>
<path fill-rule="evenodd" clip-rule="evenodd" d="M48.343 53.6394C49.1111 52.9193 49.0151 54.5995 48.343 53.9274C48.295 53.8314 48.391 53.6394 48.343 53.6394Z" fill="#0080A6"/>
<path fill-rule="evenodd" clip-rule="evenodd" d="M49.4947 53.8792C49.3507 54.9353 50.6469 53.9272 49.7347 53.7352C49.5907 53.6872 49.4947 53.8792 49.4947 53.8792Z" fill="#0080A6"/>
<path fill-rule="evenodd" clip-rule="evenodd" d="M50.5984 54.1671C50.5024 54.6952 51.1745 54.1671 50.6944 54.0711C50.6464 54.0711 50.5984 54.1671 50.5984 54.1671Z" fill="#0080A6"/>
<path fill-rule="evenodd" clip-rule="evenodd" d="M51.4148 54.1193C51.3188 54.6474 51.9909 54.1193 51.5108 54.0233C51.4628 54.0233 51.4148 54.1673 51.4148 54.1193Z" fill="#0080A6"/>
<path fill-rule="evenodd" clip-rule="evenodd" d="M52.8552 54.5033C52.7592 55.0314 53.4313 54.5033 52.9513 54.4073C52.9033 54.4073 52.8552 54.5033 52.8552 54.5033Z" fill="#0080A6"/>
<path fill-rule="evenodd" clip-rule="evenodd" d="M53.7676 54.167C53.8156 55.2232 54.9197 53.975 53.9596 53.975C53.8156 53.975 53.7676 54.2151 53.7676 54.167Z" fill="#0080A6"/>
<path fill-rule="evenodd" clip-rule="evenodd" d="M54.9199 54.2633C54.9199 54.7913 55.496 54.1672 55.0159 54.1672C54.9199 54.1672 54.9199 54.2633 54.9199 54.2633Z" fill="#0080A6"/>
<path fill-rule="evenodd" clip-rule="evenodd" d="M55.6875 54.071C55.6875 54.5991 56.2636 53.975 55.7835 53.975C55.7355 53.975 55.6875 54.071 55.6875 54.071Z" fill="#0080A6"/>
<path fill-rule="evenodd" clip-rule="evenodd" d="M56.9834 53.6392C56.9834 54.1673 57.5595 53.5432 57.0794 53.5432C56.9834 53.5432 56.9834 53.6392 56.9834 53.6392Z" fill="#0080A6"/>
</svg>
