<svg width="82" height="131" viewBox="0 0 82 131" fill="none" xmlns="http://www.w3.org/2000/svg">
<path d="M54.5651 130.474C54.5129 130.487 54.4552 130.494 54.3966 130.494C54.338 130.494 54.2803 130.487 54.2281 130.474C54.1833 130.452 54.1477 130.426 54.1234 130.397C54.0991 130.369 54.0865 130.338 54.0865 130.307C54.0865 130.276 54.0991 130.245 54.1234 130.216C54.1477 130.188 54.1833 130.162 54.2281 130.14C61.131 126.262 63.2723 122.546 63.1448 119.363C63.0172 116.177 60.6147 113.525 58.44 111.779C56.7405 110.399 54.6657 109.14 52.2738 108.04C50.737 108.658 48.9405 109.096 47.0163 109.325C45.0921 109.553 43.0891 109.564 41.1546 109.359C40.1089 109.16 39.2318 108.79 38.6681 108.31C38.1044 107.831 37.888 107.27 38.0547 106.722C38.011 106.309 38.255 105.901 38.7457 105.567C39.2364 105.233 39.9441 104.992 40.7502 104.885C43.4795 104.535 47.9946 105.486 52.3749 107.423C53.8575 106.854 55.1729 106.185 56.2835 105.436C59.1812 103.567 63.0224 99.6443 55.34 94.3698C52.0559 92.3014 49.6793 89.9162 48.3622 87.3668C47.0452 84.8175 46.8167 82.16 47.6913 79.5643C48.4535 77.4053 50.1804 75.3579 52.7456 73.5721C52.7867 73.5475 52.8382 73.5278 52.8964 73.5143C52.9546 73.5007 53.0182 73.4937 53.0825 73.4937C53.1468 73.4937 53.2104 73.5007 53.2686 73.5143C53.3268 73.5278 53.3783 73.5475 53.4194 73.5721C53.5121 73.6189 53.5639 73.6818 53.5639 73.7473C53.5639 73.8129 53.5121 73.8758 53.4194 73.9226C53.4194 74.006 39.9416 82.8025 56.0476 94.1361C63.9996 99.661 60.0573 103.801 56.9911 105.82C55.8302 106.548 54.4951 107.204 53.0151 107.773C55.3866 108.891 57.4486 110.159 59.1475 111.545C61.08 113.007 63.8643 115.822 63.9951 119.363C64.1153 122.615 61.9993 126.479 54.9357 130.474C54.816 130.495 54.6847 130.495 54.5651 130.474ZM41.9632 105.153C41.6282 105.127 41.2874 105.127 40.9524 105.153C40.3507 105.234 39.8254 105.417 39.4683 105.67C39.1111 105.923 38.9447 106.23 38.9981 106.538C38.8347 106.985 38.991 107.446 39.4399 107.842C39.8888 108.238 40.6024 108.544 41.4578 108.708C43.2182 108.877 45.0316 108.858 46.7754 108.651C48.5192 108.443 50.153 108.053 51.5662 107.506C48.9675 106.225 45.5959 105.399 41.9632 105.153Z" fill="white"/>
<path d="M41 81.1743C63.2985 81.1743 81.3749 63.1133 81.3749 40.834C81.3749 18.5546 63.2985 0.493652 41 0.493652C18.7016 0.493652 0.625122 18.5546 0.625122 40.834C0.625122 63.1133 18.7016 81.1743 41 81.1743Z" fill="white"/>
<path d="M44.4233 77.9949C44.4233 77.9949 43.0808 86.6629 44.4233 87.5327C46.027 87.7916 47.6813 87.5883 49.1472 86.9522C50.6132 86.316 51.8149 85.2799 52.5788 83.9935C53.5521 81.1742 43.7185 74.8457 44.4233 77.9949Z" fill="white"/>
<path d="M52.646 7.75164C52.646 7.75164 71.105 13.2403 72.0112 26.8271C72.0112 29.1065 61.3385 19.2389 48.2158 13.8702C25.4609 4.54242 43.3494 4.57241 52.646 7.75164Z" fill="white"/>
</svg>
