<svg width="40" height="40" viewBox="0 0 40 40" fill="none" xmlns="http://www.w3.org/2000/svg">
<path d="M20 40C31.0457 40 40 31.0457 40 20C40 8.9543 31.0457 0 20 0C8.9543 0 0 8.9543 0 20C0 31.0457 8.9543 40 20 40Z" fill="#78A941"/>
<path d="M18.8003 37.7C13.7003 37 8.60033 34.1 5.70033 29.9C5.30033 29.4 3.70033 26.2 5.90033 27C7.70033 27.7 8.80033 29.5 10.5003 30.5C15.6003 33.2 21.8003 34 26.6003 30.2C27.0003 29.9 27.3003 29.6 27.8003 29.4C29.1003 28.8 31.0003 29.6 31.3003 31C31.6003 32.3 30.1003 34.4 29.2003 35.3C28.2003 36.2 27.0003 36.8 25.7003 37.2C23.4003 37.9 21.1003 38 18.8003 37.7Z" fill="#96C658"/>
<path d="M17.8002 0.799986C16.9002 0.899986 16.0002 1.09999 15.1002 1.29999C12.8002 1.99999 10.0002 2.99999 8.10021 4.49999C6.90021 5.39999 6.00021 6.69999 5.10021 7.79999C4.30021 8.99999 3.50021 10.1 2.60021 11.2C1.90021 12.1 1.20021 13 1.00021 14.2C0.600208 16.2 2.30021 18.3 4.30021 18.8C7.40021 19.6 9.90021 17.4 12.3002 15.8C15.1002 14 18.3002 12.3 21.4002 11.2C24.8002 9.99999 28.4002 9.49999 31.9002 10.3C33.2002 10.6 34.4002 11 35.5002 11.7C37.2002 12.8 38.4002 14.6 38.9002 16.5C37.6002 11.6 35.1002 5.99999 30.3002 3.69999C26.2002 1.69999 22.3002 0.299986 17.8002 0.799986Z" fill="#8DBC50"/>
<path d="M33.5726 7.77167C33.5335 7.60609 33.4067 7.47683 33.2441 7.43645C28.4873 6.1822 22.0514 7.64627 18.5208 11.6348C12.5031 10.805 8.34819 15.4323 7.43958 19.3161C7.39604 19.5056 7.47493 19.7025 7.63672 19.8068C7.7985 19.9111 8.00742 19.8999 8.15764 19.779C9.43174 18.5947 12.3668 17.4532 14.8451 18.0466C14.6504 18.6844 14.4954 19.3337 14.3809 19.991C14.3552 20.1647 14.4239 20.339 14.5607 20.4463L13.615 21.4071C13.3635 21.6628 13.2225 22.0096 13.2225 22.3712C13.2225 22.7326 13.3635 23.0794 13.615 23.3353L17.8731 27.6613C18.1251 27.9167 18.4663 28.06 18.8222 28.06C19.1779 28.06 19.5192 27.9167 19.7711 27.6613L20.7168 26.7004C20.8279 26.8656 21.0192 26.9555 21.2152 26.9342C21.8623 26.8179 22.5016 26.6603 23.1292 26.4624C23.7146 28.9834 22.5864 31.9656 21.4237 33.2565C21.3165 33.3931 21.2953 33.5798 21.3688 33.7376C21.4421 33.8955 21.5977 33.9974 21.7697 34C25.6543 33.1697 30.2713 28.8151 29.4404 22.7286C33.352 19.1003 34.8082 12.7679 33.5726 7.77167ZM29.4318 7.92446C30.5511 7.91594 31.6682 8.02734 32.7644 8.25724C32.9869 9.33981 33.0969 10.443 33.0931 11.5487C32.1454 11.4921 31.2476 11.0981 30.5575 10.4355C29.8677 9.7732 29.4295 8.88481 29.3202 7.92686C29.3569 7.92646 29.3955 7.92466 29.4318 7.92446ZM28.4256 7.962C28.5452 9.14986 29.0789 10.255 29.9301 11.0782C30.7814 11.9014 31.8941 12.3884 33.0677 12.4513C33.0573 12.7567 33.0242 13.055 32.9944 13.3638C31.6131 13.2745 30.3072 12.6917 29.3082 11.7186C28.3091 10.7456 27.6809 9.44471 27.5349 8.04641C27.8415 8.00461 28.1443 7.98209 28.4256 7.962ZM12.2389 17.0495C11.0051 17.2023 9.8157 17.6128 8.74557 18.2551C10.0458 14.9019 13.674 12.129 17.7764 12.4802C16.6413 13.8839 15.7481 15.4727 15.1352 17.1795C14.1826 16.9796 13.205 16.9359 12.2389 17.0495ZM19.138 27.0186C19.0541 27.1038 18.9403 27.1517 18.8217 27.1517C18.703 27.1517 18.5892 27.1038 18.5053 27.0186L14.2472 22.6926C14.0728 22.5149 14.0728 22.2276 14.2472 22.0498L15.1927 21.089L20.0836 26.0578L19.138 27.0186ZM27.6862 28.2064C26.6678 30.2167 24.9798 31.7946 22.9234 32.659C24.0451 30.6993 24.4216 28.3901 23.9822 26.1678C25.6619 25.5451 27.2257 24.6376 28.6074 23.4845C28.7164 25.1137 28.3987 26.7428 27.6862 28.2064ZM30.2573 20.4352C28.0353 23.3382 24.8456 25.3158 21.2884 25.9961C21.2402 25.9466 15.4052 20.0186 15.3034 19.9158C16.0435 15.2954 19.9808 9.33843 26.6546 8.19457C26.815 9.78808 27.5267 11.2722 28.6629 12.3828C29.7994 13.4933 31.2866 14.1583 32.8603 14.2593C32.4904 16.4997 31.5982 18.6174 30.2573 20.4352Z" fill="white"/>
<path d="M24.8202 12.0097C23.5273 12.018 22.3161 12.6539 21.5619 13.7211C20.8077 14.788 20.6014 16.1571 21.0069 17.4044L19.9761 18.4516C19.5243 18.9108 19.3477 19.5799 19.5131 20.2071C19.6785 20.8343 20.1606 21.3241 20.778 21.4921C21.3954 21.6601 22.0539 21.4808 22.5059 21.0218L23.5367 19.9745C24.6564 20.3576 25.8852 20.2217 26.8974 19.6026C27.9095 18.9837 28.6029 17.9441 28.7939 16.7597C28.9848 15.5753 28.6539 14.3653 27.8887 13.4507C27.1235 12.5362 26.0016 12.0092 24.8202 12.0096L24.8202 12.0097ZM21.8731 20.3788C21.6462 20.6028 21.3197 20.6882 21.0145 20.6034C20.7095 20.5188 20.471 20.2765 20.3877 19.9665C20.3042 19.6564 20.3883 19.3248 20.6088 19.0943L21.4155 18.2748V18.2746C21.7375 18.7932 22.1695 19.2321 22.68 19.5592L21.8731 20.3788ZM24.8202 19.282C23.9899 19.281 23.1939 18.9454 22.6068 18.349C22.0198 17.7525 21.6894 16.9438 21.6884 16.1003C21.8462 11.8851 27.795 11.8864 27.952 16.1003C27.951 16.9438 27.6206 17.7527 27.0336 18.349C26.4464 18.9454 25.6505 19.281 24.8202 19.282Z" fill="white"/>
<path d="M24.82 13.8278C24.2268 13.8278 23.6578 14.0673 23.2381 14.4934C22.8187 14.9197 22.583 15.4978 22.583 16.1005C22.583 16.7032 22.8187 17.2812 23.2381 17.7076C23.6577 18.1337 24.2268 18.3731 24.82 18.3731C25.4134 18.3731 25.9822 18.1337 26.4019 17.7074C26.8213 17.2813 27.057 16.7032 27.057 16.1005C27.0562 15.4978 26.8203 14.9203 26.4011 14.4942C25.9817 14.0683 25.413 13.8284 24.82 13.8278ZM24.82 17.4641C24.344 17.4586 23.9066 17.1974 23.6702 16.7778C23.4337 16.3582 23.4337 15.8428 23.6702 15.4231C23.9066 15.0033 24.3441 14.7424 24.82 14.7369C25.296 14.7424 25.7334 15.0035 25.9699 15.4231C26.2063 15.8428 26.2063 16.3582 25.9699 16.7778C25.7334 17.1976 25.2959 17.4586 24.82 17.4641Z" fill="white"/>
<path d="M9.41637 25.8015C7.54286 27.5371 6.69623 31.1364 7.09786 33.6044C7.2213 34.6868 10.2402 33.1509 10.7 32.7406L10.5109 33.2396C10.4544 33.3946 10.4847 33.5687 10.5902 33.6949C10.6954 33.8209 10.8596 33.8796 11.0196 33.8481C20.9391 31.3811 14.9695 21.0833 9.41637 25.8016V25.8015ZM14.1648 28.3995C12.6051 29.8885 11.1412 28.3987 12.6059 26.8153C14.0682 25.376 15.6758 26.7157 14.1648 28.3995ZM14.5301 30.9972C13.6996 31.7634 12.7251 32.351 11.6654 32.7246L12.2732 31.123L12.273 31.1232C12.3491 30.9122 12.2622 30.6764 12.0686 30.5679C11.8751 30.4591 11.6324 30.51 11.497 30.6878C10.6249 31.8736 9.36025 32.6991 7.93614 33.0124C7.63714 30.4232 9.03245 24.996 12.8468 25.5544C11.3909 26.1433 10.5179 28.3951 11.6082 29.4133C12.794 30.5642 14.8075 29.5693 15.4057 28.1552L15.4055 28.155C15.5889 29.1909 15.2619 30.2521 14.5301 30.997L14.5301 30.9972Z" fill="white"/>
</svg>
