<svg width="1436" height="1436" viewBox="0 0 1436 1436" fill="none" xmlns="http://www.w3.org/2000/svg">
<g opacity="0.25" clip-path="url(#clip0_7_3352)">
<path d="M717.6 717.6C548.4 548.4 309.2 309.2 0 0H110.4C367.7 290.1 570 529.3 717.6 717.6Z" fill="#F4DB71"/>
<path d="M717.6 717.6C593.8 512.9 428.2 273.7 220.8 0H331.2C490.6 260.3 619.4 499.4 717.6 717.6Z" fill="#F4DB71"/>
<path d="M717.6 717.6C646.4 489.2 554.4 250 441.6 0H552C619.2 243.1 674.4 482.3 717.6 717.6Z" fill="#F4DB71"/>
<path d="M717.6 717.6C703.1 478.8 684.7 239.6 662.4 0H772.8C750.4 239.6 732 478.8 717.6 717.6Z" fill="#F4DB71"/>
<path d="M717.6 717.6C760.7 482.3 815.9 243.1 883.1 0H993.5C880.7 250 788.7 489.2 717.6 717.6Z" fill="#F4DB71"/>
<path d="M717.6 717.6C815.8 499.5 944.6 260.3 1104 0H1214.4C1006.9 273.7 841.3 512.9 717.6 717.6Z" fill="#F4DB71"/>
<path d="M717.6 717.6C865.1 529.3 1067.5 290.1 1324.7 0H1435.1C1125.9 309.2 886.7 548.4 717.6 717.6Z" fill="#F4DB71"/>
<path d="M717.6 717.6C905.8 570 1145 367.7 1435.1 110.4V220.8C1161.4 428.2 922.2 593.8 717.6 717.6Z" fill="#F4DB71"/>
<path d="M717.6 717.6C935.7 619.4 1174.9 490.6 1435.2 331.2V441.6C1185.1 554.4 945.9 646.4 717.6 717.6Z" fill="#F4DB71"/>
<path d="M717.6 717.6C952.9 674.5 1192.1 619.3 1435.2 552V662.4C1195.5 684.7 956.3 703.1 717.6 717.6Z" fill="#F4DB71"/>
<path d="M717.6 717.6C956.3 732 1195.5 750.4 1435.2 772.8V883.2C1192 815.9 952.8 760.7 717.6 717.6Z" fill="#F4DB71"/>
<path d="M717.6 717.6C946 788.8 1185.1 880.8 1435.2 993.6V1104C1174.9 944.5 935.7 815.7 717.6 717.6Z" fill="#F4DB71"/>
<path d="M717.6 717.6C922.3 841.3 1161.5 1006.9 1435.2 1214.4V1324.8C1145 1067.5 905.8 865.1 717.6 717.6Z" fill="#F4DB71"/>
<path d="M717.6 717.6C886.7 886.7 1125.9 1125.9 1435.2 1435.2H1324.8C1067.5 1145 865.1 905.8 717.6 717.6Z" fill="#F4DB71"/>
<path d="M717.6 717.6C841.3 922.3 1006.9 1161.5 1214.4 1435.2H1104C944.5 1174.9 815.7 935.7 717.6 717.6Z" fill="#F4DB71"/>
<path d="M717.6 717.6C788.8 946 880.8 1185.1 993.6 1435.2H883.1C815.9 1192 760.7 952.8 717.6 717.6Z" fill="#F4DB71"/>
<path d="M717.6 717.6C732 956.3 750.4 1195.5 772.8 1435.2H662.4C684.7 1195.5 703.1 956.3 717.6 717.6Z" fill="#F4DB71"/>
<path d="M717.6 717.6C674.4 952.8 619.2 1192 552 1435.1H441.6C554.4 1185.1 646.4 945.9 717.6 717.6Z" fill="#F4DB71"/>
<path d="M717.6 717.6C619.4 935.7 490.6 1174.9 331.2 1435.2H220.8C428.2 1161.4 593.8 922.2 717.6 717.6Z" fill="#F4DB71"/>
<path d="M717.6 717.6C570 905.8 367.7 1145 110.4 1435.1H0C309.2 1125.9 548.4 886.7 717.6 717.6Z" fill="#F4DB71"/>
<path d="M717.6 717.6C529.3 865.1 290.1 1067.5 0 1324.7V1214.3C273.7 1006.9 512.9 841.3 717.6 717.6Z" fill="#F4DB71"/>
<path d="M717.6 717.6C499.4 815.7 260.3 944.5 0 1103.9V993.5C250 880.7 489.2 788.7 717.6 717.6Z" fill="#F4DB71"/>
<path d="M717.6 717.6C482.3 760.7 243.1 815.9 0 883.1V772.8C239.6 750.4 478.8 732 717.6 717.6Z" fill="#F4DB71"/>
<path d="M717.6 717.6C478.8 703.1 239.6 684.7 0 662.4V552C243.1 619.2 482.3 674.4 717.6 717.6Z" fill="#F4DB71"/>
<path d="M717.6 717.6C489.2 646.4 250 554.4 0 441.6V331.2C260.3 490.6 499.4 619.4 717.6 717.6Z" fill="#F4DB71"/>
<path d="M717.6 717.6C512.9 593.8 273.7 428.2 0 220.8V110.4C290.1 367.7 529.3 570 717.6 717.6Z" fill="#F4DB71"/>
<path d="M717.6 717.6C570 529.3 367.7 290.1 110.4 0H220.8C428.2 273.7 593.8 512.9 717.6 717.6Z" fill="white"/>
<path d="M717.6 717.6C619.4 499.4 490.6 260.3 331.2 0H441.6C554.4 250 646.4 489.2 717.6 717.6Z" fill="white"/>
<path d="M717.6 717.6C674.4 482.3 619.2 243.1 552 0H662.4C684.7 239.6 703.1 478.8 717.6 717.6Z" fill="white"/>
<path d="M717.6 717.6C732 478.8 750.4 239.6 772.8 0H883.2C815.9 243.1 760.7 482.3 717.6 717.6Z" fill="white"/>
<path d="M717.6 717.6C788.7 489.2 880.7 250 993.5 0H1103.9C944.5 260.3 815.7 499.4 717.6 717.6Z" fill="white"/>
<path d="M717.6 717.6C841.3 512.9 1006.9 273.7 1214.3 0H1324.7C1067.5 290.1 865.1 529.3 717.6 717.6Z" fill="white"/>
<path d="M717.6 717.6C886.7 548.4 1125.9 309.2 1435.1 0V110.4C1145 367.7 905.8 570 717.6 717.6Z" fill="white"/>
<path d="M717.6 717.6C922.3 593.9 1161.5 428.3 1435.2 220.8V331.2C1174.9 490.6 935.7 619.4 717.6 717.6Z" fill="white"/>
<path d="M717.6 717.6C946 646.4 1185.1 554.4 1435.2 441.6V552C1192 619.2 952.8 674.4 717.6 717.6Z" fill="white"/>
<path d="M717.6 717.6C956.3 703.2 1195.5 684.8 1435.2 662.4V772.8C1195.5 750.4 956.3 732 717.6 717.6Z" fill="white"/>
<path d="M717.6 717.6C952.9 760.7 1192.1 815.9 1435.2 883.2V993.6C1185.1 880.7 945.9 788.7 717.6 717.6Z" fill="white"/>
<path d="M717.6 717.6C935.7 815.8 1174.9 944.6 1435.2 1104V1214.4C1161.4 1006.9 922.2 841.3 717.6 717.6Z" fill="white"/>
<path d="M717.6 717.6C905.9 865.1 1145.1 1067.5 1435.2 1324.8V1435.2C1125.9 1125.9 886.7 886.7 717.6 717.6Z" fill="white"/>
<path d="M717.6 717.6C865.1 905.9 1067.5 1145.1 1324.8 1435.2H1214.4C1006.9 1161.4 841.3 922.2 717.6 717.6Z" fill="white"/>
<path d="M717.6 717.6C815.8 935.7 944.6 1174.9 1104 1435.2H993.5C880.7 1185.1 788.7 945.9 717.6 717.6Z" fill="white"/>
<path d="M717.6 717.6C760.7 952.9 815.9 1192.1 883.2 1435.2H772.8C750.4 1195.5 732 956.3 717.6 717.6Z" fill="white"/>
<path d="M717.6 717.6C703.2 956.3 684.8 1195.5 662.4 1435.2H552C619.2 1192 674.4 952.8 717.6 717.6Z" fill="white"/>
<path d="M717.6 717.6C646.4 946 554.4 1185.1 441.6 1435.2H331.2C490.6 1174.9 619.4 935.7 717.6 717.6Z" fill="white"/>
<path d="M717.6 717.6C593.9 922.3 428.3 1161.5 220.8 1435.2H110.4C367.7 1145 570 905.8 717.6 717.6Z" fill="white"/>
<path d="M717.6 717.6C548.4 886.7 309.2 1125.9 0 1435.1V1324.7C290.1 1067.5 529.3 865.1 717.6 717.6Z" fill="white"/>
<path d="M717.6 717.6C512.9 841.3 273.7 1006.9 0 1214.3V1103.9C260.3 944.5 499.4 815.7 717.6 717.6Z" fill="white"/>
<path d="M717.6 717.6C489.2 788.7 250 880.7 0 993.5V883.1C243.1 815.9 482.3 760.7 717.6 717.6Z" fill="white"/>
<path d="M717.6 717.6C478.8 732 239.6 750.4 0 772.8V662.4C239.6 684.7 478.8 703.1 717.6 717.6Z" fill="white"/>
<path d="M717.6 717.6C482.3 674.4 243.1 619.2 0 552V441.6C250 554.4 489.2 646.4 717.6 717.6Z" fill="white"/>
<path d="M717.6 717.6C499.4 619.4 260.3 490.6 0 331.2V220.8C273.7 428.2 512.9 593.8 717.6 717.6Z" fill="white"/>
<path d="M717.6 717.6C529.3 570 290.1 367.7 0 110.4V0C309.2 309.2 548.4 548.4 717.6 717.6Z" fill="white"/>
</g>
<defs>
<clipPath id="clip0_7_3352">
<rect width="1435.1" height="1435.1" fill="white"/>
</clipPath>
</defs>
</svg>
