<svg xmlns="http://www.w3.org/2000/svg" viewBox="0 0 150 83.71"><defs><style>.cls-1,.cls-30{fill:#fff;}.cls-2{fill:#f6eac6;opacity:0.3;}.cls-3{fill:#7f48c3;}.cls-4{fill:#65e2cb;}.cls-5{fill:#ff3612;}.cls-6{fill:#ff9090;}.cls-7{fill:#78a941;}.cls-8{fill:#f67300;}.cls-9{fill:#4b78c6;}.cls-10{fill:#ffac39;}.cls-11{fill:#ef7807;}.cls-12{fill:#34a5cf;}.cls-13{fill:#d93e4f;}.cls-14{fill:#3f2732;}.cls-15{fill:#b72a3e;}.cls-16,.cls-17{fill:none;stroke-linecap:round;stroke-linejoin:round;}.cls-16{stroke:#668e32;stroke-width:0.53px;}.cls-17{stroke:#3f2732;stroke-width:0.27px;stroke-dasharray:1.19 1.06;}.cls-18{fill:#2d202a;}.cls-19{fill:#e74c4e;}.cls-20{fill:#e42d31;}.cls-21{fill:#eee;}.cls-22{fill:#35b2a0;}.cls-23{fill:#ddeefd;}.cls-24{fill:#ffc8af;}.cls-25{fill:#ff9d80;}.cls-26{opacity:0.51;}.cls-27{fill:#d6402e;}.cls-28{fill:#b1dbfc;}.cls-29{fill:#523544;}.cls-30{stroke:#d93e4f;stroke-miterlimit:10;stroke-width:0.79px;}</style></defs><g id="Layer_2" data-name="Layer 2"><g id="Layer_1-2" data-name="Layer 1"><rect class="cls-1" width="150" height="83.71"/><rect class="cls-2" width="150" height="83.71"/><polygon class="cls-3" points="30.45 3.22 31 4.33 32.23 4.51 31.34 5.38 31.55 6.61 30.45 6.03 29.34 6.61 29.55 5.38 28.66 4.51 29.9 4.33 30.45 3.22"/><polygon class="cls-4" points="32.5 72.23 33.34 73.7 34.19 75.17 32.5 75.17 30.8 75.17 31.65 73.7 32.5 72.23"/><polygon class="cls-5" points="8.79 33.38 9.64 34.85 10.48 36.32 8.79 36.32 7.09 36.32 7.94 34.85 8.79 33.38"/><path class="cls-5" d="M43.9,77l-2.22,1.38a.35.35,0,0,0-.17.32.37.37,0,0,0,.19.32L44,80.2a.38.38,0,0,0,.37,0,.38.38,0,0,0,.17-.23.34.34,0,0,0,0-.1l-.09-2.61a.36.36,0,0,0-.19-.31A.38.38,0,0,0,43.9,77Z"/><path class="cls-6" d="M107.23,79.5l2.5.73a.35.35,0,0,0,.36-.09.37.37,0,0,0,.1-.35l-.62-2.54a.35.35,0,0,0-.25-.26.34.34,0,0,0-.28,0l-.08,0-1.89,1.81a.37.37,0,0,0,.16.62Z"/><path class="cls-6" d="M87.3,18.23l2.51.73a.37.37,0,0,0,.46-.44L89.65,16a.38.38,0,0,0-.25-.27.38.38,0,0,0-.28,0L89,15.8l-1.89,1.8a.4.4,0,0,0-.1.36A.38.38,0,0,0,87.3,18.23Z"/><path class="cls-7" d="M16.11,46.41l2.5.74a.39.39,0,0,0,.36-.09.37.37,0,0,0,.11-.36l-.62-2.53a.37.37,0,0,0-.26-.27.39.39,0,0,0-.28,0l-.08.06L16,45.79a.37.37,0,0,0-.11.36A.36.36,0,0,0,16.11,46.41Z"/><path class="cls-4" d="M93.73,76.81l.77-2.49a.37.37,0,0,0-.09-.36.36.36,0,0,0-.35-.11l-2.54.59a.34.34,0,0,0-.27.25.39.39,0,0,0,0,.28l.06.08L93.11,77a.38.38,0,0,0,.35.11A.37.37,0,0,0,93.73,76.81Z"/><path class="cls-4" d="M60.49,6.81l2.6.26a.33.33,0,0,0,.33-.15.38.38,0,0,0,0-.37L62.39,4.17a.35.35,0,0,0-.3-.21.36.36,0,0,0-.27.08.23.23,0,0,0-.07.07L60.23,6.22a.38.38,0,0,0,0,.37A.36.36,0,0,0,60.49,6.81Z"/><path class="cls-8" d="M23.26,33.61l2.6.27a.37.37,0,0,0,.33-.15.38.38,0,0,0,0-.37L25.16,31a.36.36,0,0,0-.3-.22.38.38,0,0,0-.27.08l-.07.07L23,33a.38.38,0,0,0,0,.37A.35.35,0,0,0,23.26,33.61Z"/><path class="cls-9" d="M23.73,24.21l2.59.26a.34.34,0,0,0,.34-.15.38.38,0,0,0,0-.37l-1.07-2.38a.35.35,0,0,0-.3-.21.36.36,0,0,0-.27.08l-.07.07-1.52,2.12a.36.36,0,0,0,0,.36A.36.36,0,0,0,23.73,24.21Z"/><path class="cls-5" d="M42.45,5.89a.3.3,0,0,1,.41.32l-.3,2.1-.3,2.09a.3.3,0,0,1-.48.2L40.12,9.29,38.45,8a.31.31,0,0,1,.07-.52l2-.79Z"/><polygon class="cls-10" points="75.5 76.3 77.48 77.31 79.46 78.33 77.59 79.53 75.73 80.74 75.61 78.52 75.5 76.3"/><polygon class="cls-11" points="126.72 75.42 128.7 76.43 130.68 77.44 128.81 78.65 126.95 79.86 126.83 77.64 126.72 75.42"/><path class="cls-5" d="M5.59,41.71a.73.73,0,0,1-.73.72.72.72,0,0,1-.72-.72A.73.73,0,0,1,4.86,41,.73.73,0,0,1,5.59,41.71Z"/><path class="cls-5" d="M88.86,78.65a.73.73,0,1,1-.73-.72A.73.73,0,0,1,88.86,78.65Z"/><path class="cls-5" d="M100.54,5.11a.61.61,0,1,1-.61-.6A.61.61,0,0,1,100.54,5.11Z"/><path class="cls-7" d="M108.15,6.64a.6.6,0,0,1-.6.6.6.6,0,0,1,0-1.2A.6.6,0,0,1,108.15,6.64Z"/><path class="cls-10" d="M18.38,22.14a.73.73,0,0,1-.73.72.73.73,0,0,1,0-1.45A.73.73,0,0,1,18.38,22.14Z"/><path class="cls-3" d="M22.22,38.16a.49.49,0,1,1-.49-.49A.49.49,0,0,1,22.22,38.16Z"/><circle class="cls-10" cx="61.54" cy="14.44" r="0.6"/><path class="cls-10" d="M115.88,3.57a.6.6,0,1,1-.6-.61A.6.6,0,0,1,115.88,3.57Z"/><path class="cls-4" d="M36.78,79.75a.36.36,0,1,1-.36-.36A.36.36,0,0,1,36.78,79.75Z"/><path class="cls-12" d="M99.3,79.35a.84.84,0,1,1-1.68,0,.84.84,0,1,1,1.68,0Z"/><path class="cls-4" d="M16.41,30.12a.6.6,0,1,1-.6-.6A.6.6,0,0,1,16.41,30.12Z"/><path class="cls-4" d="M145.23,47.17a.6.6,0,0,1-.6.6.6.6,0,1,1,0-1.2A.6.6,0,0,1,145.23,47.17Z"/><path class="cls-4" d="M52.68,79.73a.48.48,0,0,1-1,0,.48.48,0,0,1,1,0Z"/><circle class="cls-6" cx="48.81" cy="72.38" r="0.48"/><path class="cls-5" d="M6.79,28.37A.84.84,0,1,1,6,27.52.85.85,0,0,1,6.79,28.37Z"/><path class="cls-4" d="M9.74,19.85a.6.6,0,0,1-.6.6.6.6,0,1,1,0-1.2A.6.6,0,0,1,9.74,19.85Z"/><path class="cls-6" d="M12.9,24.75a.49.49,0,1,1-.48-.48A.49.49,0,0,1,12.9,24.75Z"/><path class="cls-6" d="M15.48,39.48A.49.49,0,0,1,15,40a.49.49,0,0,1,0-1A.49.49,0,0,1,15.48,39.48Z"/><path class="cls-8" d="M26.11,57.17l2.59.26a.37.37,0,0,0,.38-.52L28,54.53a.37.37,0,0,0-.3-.21.36.36,0,0,0-.27.08.23.23,0,0,0-.07.07l-1.53,2.11a.38.38,0,0,0,0,.37A.37.37,0,0,0,26.11,57.17Z"/><path class="cls-10" d="M28.75,42.68a.72.72,0,1,1-1.44,0,.72.72,0,1,1,1.44,0Z"/><path class="cls-10" d="M27.58,78.84a.72.72,0,1,1-.72-.72A.72.72,0,0,1,27.58,78.84Z"/><path class="cls-3" d="M25.6,72.93a.49.49,0,1,1-.48-.48A.48.48,0,0,1,25.6,72.93Z"/><path class="cls-5" d="M5,51.42a.85.85,0,1,1-.84-.84A.85.85,0,0,1,5,51.42Z"/><path class="cls-4" d="M9.74,46.92a.6.6,0,0,1-.6.6.6.6,0,0,1,0-1.2A.6.6,0,0,1,9.74,46.92Z"/><polygon class="cls-5" points="125.49 31.05 126.34 32.52 127.19 33.98 125.49 33.98 123.8 33.98 124.64 32.52 125.49 31.05"/><polygon class="cls-5" points="75.1 11.96 75.95 13.43 76.8 14.9 75.1 14.9 73.41 14.9 74.25 13.43 75.1 11.96"/><path class="cls-7" d="M132.48,46.53l2.51.73a.35.35,0,0,0,.35-.08.38.38,0,0,0,.11-.36l-.62-2.53a.38.38,0,0,0-.25-.27.37.37,0,0,0-.29,0,.19.19,0,0,0-.07.06l-1.89,1.8a.34.34,0,0,0-.1.35A.36.36,0,0,0,132.48,46.53Z"/><path class="cls-8" d="M141.74,34.1l2.59.26a.35.35,0,0,0,.34-.15.38.38,0,0,0,0-.37l-1.07-2.38a.35.35,0,0,0-.3-.21.36.36,0,0,0-.27.08.23.23,0,0,0-.07.07l-1.52,2.11a.36.36,0,0,0,0,.37A.38.38,0,0,0,141.74,34.1Z"/><path class="cls-9" d="M142.44,24.33l2.6.26a.36.36,0,0,0,.37-.52l-1.06-2.38a.37.37,0,0,0-.3-.21.4.4,0,0,0-.28.08l-.06.07-1.53,2.11a.38.38,0,0,0,0,.37A.4.4,0,0,0,142.44,24.33Z"/><path class="cls-5" d="M125.14,41.32a.73.73,0,1,1-.73-.72A.73.73,0,0,1,125.14,41.32Z"/><path class="cls-10" d="M134.75,21.92a.73.73,0,1,1-.73-.72A.73.73,0,0,1,134.75,21.92Z"/><path class="cls-10" d="M96.74,14.05a.72.72,0,1,1-.72-.72A.72.72,0,0,1,96.74,14.05Z"/><path class="cls-9" d="M141.66,40.55a.72.72,0,1,1-1.44,0,.72.72,0,0,1,1.44,0Z"/><path class="cls-3" d="M140.71,16.93a.49.49,0,0,1-.48.48.49.49,0,0,1,0-1A.49.49,0,0,1,140.71,16.93Z"/><path class="cls-4" d="M134.86,31.65a.6.6,0,1,1-.6-.61A.6.6,0,0,1,134.86,31.65Z"/><path class="cls-3" d="M124,23.13a.85.85,0,1,1-.84-.85A.85.85,0,0,1,124,23.13Z"/><path class="cls-4" d="M128.05,17.19a.6.6,0,1,1-.6-.6A.6.6,0,0,1,128.05,17.19Z"/><path class="cls-4" d="M81.58,17.62A.61.61,0,1,1,81,17,.6.6,0,0,1,81.58,17.62Z"/><path class="cls-6" d="M129.94,26.38a.49.49,0,1,1-.48-.48A.48.48,0,0,1,129.94,26.38Z"/><path class="cls-6" d="M116.88,17a.48.48,0,0,1-.48.48.47.47,0,0,1-.48-.48.48.48,0,0,1,.48-.48A.49.49,0,0,1,116.88,17Z"/><path class="cls-6" d="M131.35,37.42a.49.49,0,1,1-.48-.48A.48.48,0,0,1,131.35,37.42Z"/><polygon class="cls-5" points="124.82 63.36 125.67 64.83 126.52 66.3 124.82 66.3 123.13 66.3 123.97 64.83 124.82 63.36"/><path class="cls-9" d="M140.1,55.75l2.6.26a.33.33,0,0,0,.33-.15.38.38,0,0,0,0-.37L142,53.11a.35.35,0,0,0-.3-.21.36.36,0,0,0-.27.08.46.46,0,0,0-.07.07l-1.52,2.12a.36.36,0,0,0,0,.36A.36.36,0,0,0,140.1,55.75Z"/><path class="cls-9" d="M102.6,17.41l2.6.27a.37.37,0,0,0,.33-.15.38.38,0,0,0,0-.37l-1.07-2.38a.37.37,0,0,0-.57-.14l-.07.07-1.52,2.12a.38.38,0,0,0,0,.37A.35.35,0,0,0,102.6,17.41Z"/><path class="cls-10" d="M134.75,53.68A.73.73,0,1,1,134,53,.73.73,0,0,1,134.75,53.68Z"/><path class="cls-10" d="M122.69,73.93a.72.72,0,1,1-.72-.72A.72.72,0,0,1,122.69,73.93Z"/><path class="cls-5" d="M124.33,55.05a.84.84,0,1,1-1.68,0,.84.84,0,0,1,1.68,0Z"/><path class="cls-5" d="M112.45,14a.85.85,0,1,1-.85-.85A.85.85,0,0,1,112.45,14Z"/><path class="cls-4" d="M127.28,48.71a.6.6,0,1,1-.6-.6A.6.6,0,0,1,127.28,48.71Z"/><path class="cls-6" d="M131.44,59a.47.47,0,0,1-.48.48.48.48,0,0,1-.48-.48.49.49,0,0,1,.48-.48A.48.48,0,0,1,131.44,59Z"/><path class="cls-5" d="M83.2,74.9a.47.47,0,0,1-.48.48.48.48,0,0,1,0-1A.47.47,0,0,1,83.2,74.9Z"/><path class="cls-4" d="M70.29,75.53a.6.6,0,1,1-.6-.6A.6.6,0,0,1,70.29,75.53Z"/><path class="cls-6" d="M64.57,79.88a.49.49,0,0,1-.48.49.49.49,0,1,1,.48-.49Z"/><path class="cls-4" d="M118.89,79.29a.49.49,0,0,1-.48.48.49.49,0,0,1,0-1A.49.49,0,0,1,118.89,79.29Z"/><path class="cls-5" d="M115,74.9a.48.48,0,0,1-.48.48.48.48,0,0,1,0-1A.48.48,0,0,1,115,74.9Z"/><path class="cls-4" d="M104.66,74.88a.61.61,0,1,1-.6-.6A.6.6,0,0,1,104.66,74.88Z"/><path class="cls-5" d="M56.16,9.47a.6.6,0,1,1-.6-.61A.6.6,0,0,1,56.16,9.47Z"/><path class="cls-5" d="M69.21,9.47a.6.6,0,1,1-.6-.61A.6.6,0,0,1,69.21,9.47Z"/><path class="cls-11" d="M81.3,7.92a.61.61,0,1,1-.6-.61A.6.6,0,0,1,81.3,7.92Z"/><path class="cls-10" d="M51.38,4.46A.49.49,0,1,1,50.9,4,.48.48,0,0,1,51.38,4.46Z"/><path class="cls-4" d="M73.46,4.43a.61.61,0,1,1-.61-.6A.61.61,0,0,1,73.46,4.43Z"/><path class="cls-13" d="M137.21,78a.6.6,0,1,1-.6-.6A.6.6,0,0,1,137.21,78Z"/><path class="cls-7" d="M133.64,71a.6.6,0,1,1-.6-.61A.6.6,0,0,1,133.64,71Z"/><path class="cls-8" d="M89.83,6.76l-.19-2.6a.36.36,0,0,0-.57-.28L86.91,5.33a.4.4,0,0,0-.17.34.38.38,0,0,0,.13.25L87,6,89.3,7.12a.34.34,0,0,0,.36,0A.37.37,0,0,0,89.83,6.76Z"/><polygon class="cls-13" points="55.14 73.51 57.74 73.93 60.35 74.35 58.68 76.39 57.02 78.44 56.08 75.97 55.14 73.51"/><path class="cls-10" d="M122.62,10.26a.36.36,0,1,1-.36-.36A.36.36,0,0,1,122.62,10.26Z"/><circle class="cls-4" cx="117.52" cy="69.53" r="0.36"/><path class="cls-14" d="M72.73,20.34a.13.13,0,0,1-.1,0l-.43-.4a.13.13,0,0,1,.18-.2l.44.41a.14.14,0,0,1,0,.19A.11.11,0,0,1,72.73,20.34Z"/><path class="cls-14" d="M71.46,19.27l-.08,0a8,8,0,0,0-1-.64.15.15,0,0,1,0-.19.13.13,0,0,1,.18,0,9.23,9.23,0,0,1,1,.65.14.14,0,0,1,0,.19A.16.16,0,0,1,71.46,19.27Zm-1.95-1.13h-.05a11.3,11.3,0,0,0-1.1-.42.14.14,0,0,1-.09-.17.13.13,0,0,1,.17-.08,11.91,11.91,0,0,1,1.13.43.14.14,0,0,1,.06.18A.14.14,0,0,1,69.51,18.14Zm-17.86-.22h0c-.41,0-.82,0-1.2-.06a.14.14,0,0,1-.12-.15.14.14,0,0,1,.14-.12c.38,0,.78.05,1.19.06a.14.14,0,0,1,0,.27Zm1.07,0a.13.13,0,0,1-.14-.13.13.13,0,0,1,.13-.13l1.19-.06a.13.13,0,0,1,.14.12.12.12,0,0,1-.12.14l-1.2.06ZM55,17.77a.14.14,0,0,1-.14-.12.13.13,0,0,1,.13-.14l.68-.07.5-.05a.13.13,0,0,1,.15.11.14.14,0,0,1-.12.15l-.5.05-.69.07Zm-5.56,0h0c-.41-.06-.81-.14-1.19-.23a.13.13,0,0,1-.09-.16.13.13,0,0,1,.16-.1c.37.09.76.17,1.16.23a.13.13,0,0,1,.11.15A.13.13,0,0,1,49.41,17.73Zm7.8-.2a.13.13,0,0,1-.13-.12.12.12,0,0,1,.12-.14l1.18-.14a.13.13,0,0,1,.15.12.13.13,0,0,1-.12.14l-1.18.14Zm10.17-.1h0c-.37-.09-.76-.16-1.16-.22a.13.13,0,1,1,0-.26,11.37,11.37,0,0,1,1.19.22.13.13,0,0,1,.09.16A.12.12,0,0,1,67.38,17.43Zm-7.93-.15a.14.14,0,0,1-.13-.12.14.14,0,0,1,.12-.15l1.19-.11a.13.13,0,0,1,.14.12.12.12,0,0,1-.12.14l-1.18.12Zm-12.23-.07h0l-.32-.12a5.71,5.71,0,0,1-.79-.35.14.14,0,0,1-.06-.18.13.13,0,0,1,.18-.06,6.56,6.56,0,0,0,.76.35l.32.11a.13.13,0,0,1,.08.17A.14.14,0,0,1,47.22,17.21Zm17.93-.12h0c-.38,0-.78-.05-1.19-.06a.13.13,0,0,1-.13-.13.12.12,0,0,1,.14-.13,11.76,11.76,0,0,1,1.2.06.13.13,0,0,1,.12.14A.13.13,0,0,1,65.15,17.09Zm-3.45,0a.12.12,0,0,1-.13-.12.13.13,0,0,1,.12-.14c.42,0,.82,0,1.2-.05a.13.13,0,1,1,0,.26l-1.19,0Zm-16.47-.92a.11.11,0,0,1-.08,0,4.73,4.73,0,0,1-.84-.9.14.14,0,0,1,0-.19.13.13,0,0,1,.18,0,4.16,4.16,0,0,0,.79.84.15.15,0,0,1,0,.19A.16.16,0,0,1,45.23,16.16Zm-6.73-.78h0a9.82,9.82,0,0,1-1.21-.07.13.13,0,0,1-.11-.15.12.12,0,0,1,.14-.11,11.67,11.67,0,0,0,1.18.07.13.13,0,0,1,0,.26Zm1.06,0a.12.12,0,0,1-.13-.12.14.14,0,0,1,.12-.15,9.43,9.43,0,0,0,1.17-.17.13.13,0,0,1,.15.11.12.12,0,0,1-.1.15q-.6.12-1.2.18Zm-3.29-.24h0a9.23,9.23,0,0,1-1.13-.41.14.14,0,0,1-.08-.17.14.14,0,0,1,.18-.07,10.81,10.81,0,0,0,1.11.4.13.13,0,0,1,.09.16A.14.14,0,0,1,36.27,15.1Zm5.5-.19a.14.14,0,0,1-.13-.1.13.13,0,0,1,.09-.16,11.42,11.42,0,0,0,1.12-.39.12.12,0,0,1,.17.07.12.12,0,0,1-.07.17,10.32,10.32,0,0,1-1.14.4Zm2.2-.58a.13.13,0,0,1-.13-.09c0-.06,0-.12-.05-.19a.1.1,0,0,1,0-.05.11.11,0,0,1,0-.13,2.59,2.59,0,0,1,0-.48c0-.13,0-.26,0-.39a.13.13,0,0,1,.15-.11A.13.13,0,0,1,44,13a2,2,0,0,0,0,.35c0,.11,0,.22,0,.34l.86-.46a.14.14,0,0,1,.18.05.14.14,0,0,1,0,.19l-.94.49,0,.16a.14.14,0,0,1-.09.17Zm-9.79-.08-.06,0-1-.57a.13.13,0,0,1,0-.18.12.12,0,0,1,.18-.05c.36.21.72.4,1,.56a.14.14,0,0,1-.06.26Zm-2-1.12a.1.1,0,0,1-.07,0c-.32-.19-.65-.4-1-.64a.12.12,0,0,1,0-.18.13.13,0,0,1,.18,0c.36.24.69.44,1,.64a.13.13,0,0,1,0,.18A.13.13,0,0,1,32.22,13.13ZM45.83,13a.14.14,0,0,1-.11-.06.13.13,0,0,1,0-.18,10.13,10.13,0,0,0,.93-.72.13.13,0,0,1,.18,0,.14.14,0,0,1,0,.19,9.2,9.2,0,0,1-1,.75Zm-1.64-.83h-.06a.14.14,0,0,1-.06-.18,4.42,4.42,0,0,1,.72-1,.13.13,0,0,1,.19.19,4.12,4.12,0,0,0-.67.93A.12.12,0,0,1,44.19,12.14Zm-13.87-.23a.08.08,0,0,1-.07,0l-1-.66a.14.14,0,0,1,0-.19.14.14,0,0,1,.19,0l1,.66a.13.13,0,0,1,0,.18A.14.14,0,0,1,30.32,11.91Zm17.13-.49a.07.07,0,0,1-.06,0,.12.12,0,0,1,0-.18,1.52,1.52,0,0,0,.21-.71.88.88,0,0,0,0-.17q0-.09,0-.15a.13.13,0,0,1,.08-.17.13.13,0,0,1,.17.08,1.18,1.18,0,0,1,0,.2.75.75,0,0,1,0,.21,1.71,1.71,0,0,1-.24.84A.13.13,0,0,1,47.45,11.42Zm-19-.76-.07,0-1-.66a.14.14,0,0,1,0-.19.13.13,0,0,1,.18,0l1,.66a.13.13,0,0,1,0,.19A.13.13,0,0,1,28.44,10.66Zm17.25-.17a.14.14,0,0,1-.11-.06.13.13,0,0,1,0-.18l.15-.11a3.64,3.64,0,0,1,1-.47.14.14,0,0,1,.16.1.13.13,0,0,1-.09.16,3.48,3.48,0,0,0-.87.43l-.14.1A.11.11,0,0,1,45.69,10.49ZM26.55,9.42a.08.08,0,0,1-.07,0l-1-.62a.14.14,0,0,1-.05-.18.15.15,0,0,1,.19,0l1,.63a.13.13,0,0,1,0,.18A.14.14,0,0,1,26.55,9.42ZM24.6,8.27h-.06c-.37-.2-.72-.38-1.06-.54a.14.14,0,0,1-.06-.18.13.13,0,0,1,.18-.06c.34.16.7.34,1.07.55a.13.13,0,0,1,0,.18A.13.13,0,0,1,24.6,8.27Zm-2-1h-.05a10.6,10.6,0,0,0-1.12-.38.13.13,0,1,1,.07-.25,9.07,9.07,0,0,1,1.15.38.13.13,0,0,1,.07.17A.14.14,0,0,1,22.57,7.31Zm-2.18-.59h0a5,5,0,0,0-1.16,0,.14.14,0,0,1-.15-.12.13.13,0,0,1,.12-.14,5,5,0,0,1,1.22,0,.14.14,0,0,1,.12.15A.14.14,0,0,1,20.39,6.72Z"/><path class="cls-14" d="M17.63,7.22a.14.14,0,0,1-.11-.07A.12.12,0,0,1,17.57,7a4,4,0,0,1,.55-.27.15.15,0,0,1,.18.08.14.14,0,0,1-.08.17,3.54,3.54,0,0,0-.52.25Z"/><path class="cls-4" d="M13.07,7.5a.6.6,0,1,1-.6-.6A.6.6,0,0,1,13.07,7.5Z"/><path class="cls-13" d="M16.66,3.74l-12,5,9,5,3.87-1.53,2.75.48a.65.65,0,0,0,.43-1.2L14.58,8l2.81-3.27A.63.63,0,0,0,16.66,3.74Z"/><path class="cls-15" d="M4.69,9a.26.26,0,0,1-.27-.24.27.27,0,0,1,.25-.29l9.89-.74a.27.27,0,0,1,.29.25.27.27,0,0,1-.25.28L4.71,9Z"/><path class="cls-15" d="M18,12.34h-.07L4.71,9.23a.27.27,0,0,1-.2-.32.28.28,0,0,1,.32-.2l13.22,3.11a.26.26,0,0,1,.19.32A.25.25,0,0,1,18,12.34Z"/><path class="cls-7" d="M131.22,2.91,143.87,5.8l-8,6.42-4.07-.84-2.63.94a.64.64,0,0,1-.63-1.1L134,6.76,130.67,4A.64.64,0,0,1,131.22,2.91Z"/><line class="cls-16" x1="143.87" y1="5.8" x2="134" y2="6.76"/><path class="cls-16" d="M136.08,9.34c2.6-1,5.17-2.29,7.75-3.3"/><path class="cls-16" d="M131.34,11.35l2.28-1"/><path class="cls-17" d="M113.91,8.5a23.14,23.14,0,0,1-6.54,3.16c-2.08.58-5.45,1.32-7.24-.31a2.18,2.18,0,0,1-.41-2.69c.53-.9,2.39-1,2.07.37s-2.61,1.29-3.66,1.16a28.28,28.28,0,0,1-4.25-1.12,10.69,10.69,0,0,0-9.33,1.51"/><path class="cls-17" d="M131.27,7c-3.86-2.11-9-3.08-16.37.69"/><path class="cls-4" d="M25.09,49.45a.61.61,0,1,1-.61-.6A.6.6,0,0,1,25.09,49.45Z"/><path class="cls-18" d="M142.22,80.85h0a.05.05,0,0,1,0-.08,3.53,3.53,0,0,0,.5-4.46,4.16,4.16,0,0,0-.73-.9,1.58,1.58,0,0,1-1.34.31.59.59,0,0,1-.37-.63.45.45,0,0,1,.33-.45,1.86,1.86,0,0,1,1.39.62,2.32,2.32,0,0,0,.47-.47,2.1,2.1,0,0,0-.11-2.67,4.55,4.55,0,0,1-.92-3.58,3.73,3.73,0,0,1,.6-1.45.06.06,0,0,1,.09,0,.06.06,0,0,1,0,.08A4.11,4.11,0,0,0,142.4,72a2.2,2.2,0,0,1,.11,2.81,2.43,2.43,0,0,1-.48.48,4,4,0,0,1,.74.91,3.68,3.68,0,0,1-.51,4.59A0,0,0,0,1,142.22,80.85Zm-1.52-6.12-.12,0a.31.31,0,0,0-.23.33.49.49,0,0,0,.29.53,1.54,1.54,0,0,0,1.21-.29A2,2,0,0,0,140.7,74.73Z"/><ellipse class="cls-19" cx="141.38" cy="66.1" rx="4.85" ry="5.43"/><path class="cls-20" d="M141.79,71.1s-.16,1.17,0,1.29a.93.93,0,0,0,1-.48C142.89,71.53,141.71,70.68,141.79,71.1Z"/><path class="cls-1" d="M142.78,61.65s2.21.74,2.33,2.57c0,.3-1.29-1-2.86-1.75C139.51,61.22,141.66,61.22,142.78,61.65Z"/><polygon class="cls-21" points="9.59 67.31 9.72 67.56 9.97 67.7 9.72 67.83 9.59 68.08 9.45 67.83 9.21 67.7 9.45 67.56 9.59 67.31"/><rect class="cls-22" x="8.23" y="66.04" width="10.85" height="8.24" rx="2.31"/><path class="cls-23" d="M20,69.94a8.26,8.26,0,0,1-4.43-1.56,1,1,0,0,1-.2-1.37,1,1,0,0,1,1.37-.2,5.81,5.81,0,0,0,3.87,1.11,3.29,3.29,0,0,0,2.19-1.71,1,1,0,0,1,1.35-.32,1,1,0,0,1,.33,1.35,5.26,5.26,0,0,1-3.51,2.61A5.39,5.39,0,0,1,20,69.94Z"/><path class="cls-23" d="M17.76,68.11v5.23a1.55,1.55,0,0,1-.41,1,3.93,3.93,0,0,1-3,1.14h-.62a3.79,3.79,0,0,1-3.08-1.28,1.5,1.5,0,0,1-.3-.87V68.11c0-1.19,1.52-2.16,3.38-2.16h.62C16.23,66,17.76,66.92,17.76,68.11Z"/><path class="cls-24" d="M12,78.08l.94-2.53c.24,0,1.94,0,2.15,0L16,78.08l1.29-.21c.85-3.14.13-4.27.13-4.27H10.53s-.71,1.13.13,4.27Z"/><path class="cls-23" d="M10.44,76.94c.06.29.23,1.14.31,1.47l1.15,0,.47-1.5Z"/><path class="cls-23" d="M17.48,76.94H15.55L16,78.68l1.09-.05C17.22,78.29,17.43,77.23,17.48,76.94Z"/><path class="cls-25" d="M14,65.26v1.46l-1.39-.54a.79.79,0,0,0,.52-1Z"/><path class="cls-25" d="M13.92,65.26v1.46l1.39-.54a.8.8,0,0,1-.52-1Z"/><circle class="cls-25" cx="7.66" cy="60.6" r="1.51"/><circle class="cls-25" cx="20.47" cy="60.6" r="1.51"/><path class="cls-24" d="M18.62,55.44v.87H8.92a5.8,5.8,0,0,0-.83,3v2.56a3.65,3.65,0,0,0,3.64,3.64h5a3.32,3.32,0,0,0,3.31-3.31V59.29A5.78,5.78,0,0,0,18.62,55.44Z"/><g class="cls-26"><circle class="cls-25" cx="10.19" cy="62.52" r="1.02"/></g><g class="cls-26"><circle class="cls-25" cx="17.72" cy="62.52" r="1.02"/></g><path class="cls-14" d="M14.25,62.92h-.09a.88.88,0,0,1-.76-.59.07.07,0,0,1,0-.1s.08,0,.1.05a.71.71,0,0,0,.63.49.76.76,0,0,0,.73-.39.08.08,0,0,1,.11,0,.08.08,0,0,1,0,.11A.92.92,0,0,1,14.25,62.92Z"/><circle class="cls-14" cx="11.96" cy="61.22" r="0.36"/><path class="cls-14" d="M16.4,61.22a.36.36,0,1,1-.36-.36A.36.36,0,0,1,16.4,61.22Z"/><path class="cls-27" d="M14.52,61.74h0a.11.11,0,0,1-.07-.16l.25-.57-.41.19a.13.13,0,0,1-.12,0,.14.14,0,0,1-.06-.11v-.92a.13.13,0,0,1,.13-.13.12.12,0,0,1,.12.13v.73l.54-.25a.13.13,0,0,1,.14,0,.14.14,0,0,1,0,.14l-.38.87A.12.12,0,0,1,14.52,61.74Z"/><path class="cls-24" d="M23.28,64.21c.6-.09.21.94.16,1.33.18,0,.3-.18.37-.35l.39-.89c.09-.21.26-.45.47-.37s.19.26.18.43a1.94,1.94,0,0,1-.12.58l.43-.43c.14-.15.35-.31.53-.21a.33.33,0,0,1,.12.35,1,1,0,0,1-.19.34,1.92,1.92,0,0,1-.56.54,2.94,2.94,0,0,1,.75-.38c.14-.05.32-.08.42,0s0,.38-.2.5a4,4,0,0,1-.72.43A.71.71,0,0,1,25.8,66a.4.4,0,0,1,.13,0c.12.11,0,.3-.11.41a3.52,3.52,0,0,1-1.07.77A1.3,1.3,0,0,1,23,66.49a2.33,2.33,0,0,1-.18-1.07C22.91,64.45,23.28,64.21,23.28,64.21Z"/><path class="cls-23" d="M8.15,69.72a8.17,8.17,0,0,0,4.43-1.56,1,1,0,0,0,.2-1.37,1,1,0,0,0-1.37-.2A5.81,5.81,0,0,1,7.54,67.7,3.34,3.34,0,0,1,5.34,66,1,1,0,0,0,4,65.67,1,1,0,0,0,3.67,67a5.2,5.2,0,0,0,3.51,2.61A5.39,5.39,0,0,0,8.15,69.72Z"/><path class="cls-24" d="M4.83,64c-.6-.09-.22.94-.16,1.33-.18,0-.3-.18-.37-.35l-.39-.89c-.09-.2-.27-.45-.47-.37s-.19.27-.18.43a2.21,2.21,0,0,0,.11.58L3,64.29c-.14-.15-.35-.31-.53-.2a.31.31,0,0,0-.12.34.88.88,0,0,0,.19.34,1.8,1.8,0,0,0,.56.54,3.11,3.11,0,0,0-.75-.38c-.14-.05-.33-.08-.42,0s0,.38.2.5a3.52,3.52,0,0,0,.72.43.78.78,0,0,0-.5-.12.26.26,0,0,0-.12,0c-.13.1,0,.29.11.4A3.36,3.36,0,0,0,3.36,67a1.29,1.29,0,0,0,1.73-.72,2.31,2.31,0,0,0,.18-1.07C5.2,64.23,4.83,64,4.83,64Z"/><path class="cls-14" d="M16,78.45l-.11,1a.62.62,0,0,0,.57.74l1.92,0a.28.28,0,0,0,.15-.48l-1.32-1.29Z"/><rect class="cls-14" x="16" y="78.42" width="1.23" height="0.41"/><path class="cls-14" d="M12,78.45l.11,1a.62.62,0,0,1-.57.74l-1.92,0a.28.28,0,0,1-.15-.48l1.32-1.29Z"/><path class="cls-4" d="M17.42,70.72h0A.72.72,0,0,1,16.7,70V67.23a.72.72,0,0,1,.72-.72h0a.73.73,0,0,1,.73.72V70A.73.73,0,0,1,17.42,70.72Z"/><path class="cls-4" d="M10.45,70.65h0a.73.73,0,0,1-.73-.73V67.16a.73.73,0,0,1,.73-.73h0a.73.73,0,0,1,.72.73v2.76A.73.73,0,0,1,10.45,70.65Z"/><path class="cls-28" d="M12.25,65.9h3.47l0,.6-1.24.84-.6-.62-.58.58-1.05-.83S12.25,65.87,12.25,65.9Z"/><path class="cls-14" d="M14,67.59h0a.5.5,0,0,1-.51-.5v-.37a.51.51,0,0,1,.51-.51h0a.51.51,0,0,1,.51.51v.37A.5.5,0,0,1,14,67.59Z"/><polygon class="cls-14" points="13.8 67.29 12.72 69.72 14.11 70.86 15.29 69.7 14.16 67.25 13.8 67.29"/><path class="cls-14" d="M8,61.38a8.58,8.58,0,0,0,1.3-1.78,2.66,2.66,0,0,0,.22-1.71,2,2,0,0,0,.3-.41h9.28a1.84,1.84,0,0,0,1.29-.63A3.13,3.13,0,0,0,21,54.49a4.05,4.05,0,0,0-1.07-2.12,2.31,2.31,0,0,0-1.82-.86v2.87S11.9,52.24,9,55.63a2.08,2.08,0,0,0-.24.34A9.73,9.73,0,0,0,8,61.38Z"/><path class="cls-14" d="M17.83,56.66a3.66,3.66,0,0,0,.06,2.74,2.56,2.56,0,0,0,2.18,1.53V58.76a2.46,2.46,0,0,0-1.35-2.39"/><path class="cls-14" d="M10.27,72.06a17.58,17.58,0,0,0,.39,5.81h1.52l.71-2.32H15l.74,2.1,1.52,0a14.09,14.09,0,0,0,.44-5.7S10.16,72,10.27,72.06Z"/><path class="cls-29" d="M12.28,73.4h0A.38.38,0,0,1,11.9,73V71.9a.38.38,0,0,1,.38-.38h0a.38.38,0,0,1,.38.38V73A.38.38,0,0,1,12.28,73.4Z"/><path class="cls-29" d="M16,73.32h0a.38.38,0,0,1-.38-.38V71.81a.39.39,0,0,1,.38-.38h0a.39.39,0,0,1,.38.38v1.13A.38.38,0,0,1,16,73.32Z"/><rect class="cls-29" x="9.88" y="78.72" width="1.21" height="0.28" rx="0.11"/><rect class="cls-29" x="17.04" y="79.15" width="1.21" height="0.28" rx="0.11"/><rect class="cls-29" x="9.63" y="79.15" width="1.21" height="0.28" rx="0.11"/><rect class="cls-29" x="16.68" y="78.68" width="1.21" height="0.28" rx="0.11"/><path class="cls-27" d="M11.43,63A2.52,2.52,0,1,1,14,60.44,2.52,2.52,0,0,1,11.43,63Zm0-4.65a2.14,2.14,0,1,0,2.14,2.14A2.13,2.13,0,0,0,11.43,58.3Z"/><path class="cls-27" d="M17.21,63a2.52,2.52,0,1,1,2.52-2.51A2.52,2.52,0,0,1,17.21,63Zm0-4.65a2.14,2.14,0,1,0,2.14,2.14A2.14,2.14,0,0,0,17.21,58.37Z"/><rect class="cls-30" x="31.47" y="21.43" width="87.05" height="45.2" rx="2.36"/><rect class="cls-8" x="35.66" y="27.2" width="11.72" height="11.72" rx="2.03"/><path class="cls-1" d="M40.71,30.09l.57,0,.41,0,.3,0a1.9,1.9,0,0,1,.25,0,2.25,2.25,0,0,1,.3.16,1.76,1.76,0,0,1,.3.24,1.37,1.37,0,0,1,.25.29.94.94,0,0,1,.12.3c0,.15,0,.31,0,.49s0,.38,0,.59,0,.58,0,.89,0,.62,0,.92,0,.59,0,.86v.71a.22.22,0,0,1,0,.16.1.1,0,0,1-.09,0H41.7l-.59,0a.86.86,0,0,1-.33-.06c-.07,0-.11-.07-.12-.1a.44.44,0,0,1-.06-.1.37.37,0,0,1,0-.11.66.66,0,0,0,0-.14c0-.14,0-.3,0-.47s0-.38,0-.6,0-.47,0-.74,0-.58,0-.92a.16.16,0,0,1-.11,0,.75.75,0,0,1-.26,0,.7.7,0,0,1-.4-.12,1.32,1.32,0,0,1-.3-.32,2.25,2.25,0,0,1-.21-.41,1.93,1.93,0,0,1-.12-.42,1.62,1.62,0,0,0,.46-.14,2.16,2.16,0,0,0,.43-.29,1.73,1.73,0,0,0,.35-.41A1.48,1.48,0,0,0,40.71,30.09Z"/><rect class="cls-8" x="52.4" y="27.2" width="11.72" height="11.72" rx="2.03"/><path class="cls-1" d="M57.28,32.83a4.64,4.64,0,0,0,.42-.36c.11-.1.14-.2.11-.28s-.09-.12-.19-.13a1.12,1.12,0,0,0-.34,0,2.33,2.33,0,0,0-.39.19,2,2,0,0,0-.35.28,1.71,1.71,0,0,1-.32-.37A1.26,1.26,0,0,1,56,31.7a1.24,1.24,0,0,1,0-.64,1.19,1.19,0,0,1,.37-.5,1.85,1.85,0,0,1,.66-.32,3.28,3.28,0,0,1,.93-.12,4.21,4.21,0,0,1,1.87.35,1.44,1.44,0,0,1,.81,1.09,1.35,1.35,0,0,1,0,.64,1.44,1.44,0,0,1-.29.51,2.3,2.3,0,0,1-.46.42,6.16,6.16,0,0,1-.55.33l-.52.29a2.11,2.11,0,0,0-.41.24l.34-.08.36,0,.32,0h.23a2.15,2.15,0,0,1,.55.06,1,1,0,0,1,.36.19.71.71,0,0,1,.22.27,1.37,1.37,0,0,1,.11.36,1.75,1.75,0,0,1,0,.68,1.52,1.52,0,0,1-.24.59,6.68,6.68,0,0,0-.83-.11c-.3,0-.66,0-1.07,0l-1.29,0H56.36a.45.45,0,0,1-.27-.06.41.41,0,0,1-.11-.23c0-.13,0-.26,0-.38a2.06,2.06,0,0,1,0-.34,1.76,1.76,0,0,1,.06-.46,1.7,1.7,0,0,1,.21-.46,4.29,4.29,0,0,1,.42-.5C56.78,33.25,57,33.05,57.28,32.83Z"/><rect class="cls-8" x="69.14" y="27.2" width="11.72" height="11.72" rx="2.03"/><path class="cls-1" d="M74.26,33.64l-.28,0h-.21a.26.26,0,0,1-.13-.06.15.15,0,0,1-.07-.12.38.38,0,0,1,0-.19,1,1,0,0,1,0-.24,1.86,1.86,0,0,1,.1-.25.7.7,0,0,1,.13-.19h.57a.87.87,0,0,0,.4-.09c.13-.06.2-.13.2-.22a.17.17,0,0,0-.1-.17,1.09,1.09,0,0,0-.27-.11l-.33,0H74l-.37,0a5.28,5.28,0,0,0-.51.14.78.78,0,0,1-.28-.29.75.75,0,0,1-.09-.37A.85.85,0,0,1,72.9,31a1.21,1.21,0,0,1,.32-.41,1.9,1.9,0,0,1,.53-.31,2.62,2.62,0,0,1,.75-.15h.4a3.1,3.1,0,0,1,1.55.33,1.32,1.32,0,0,1,.69.94,1.42,1.42,0,0,1,0,.31,1.39,1.39,0,0,1-.09.38,1.33,1.33,0,0,1-.25.4,1.18,1.18,0,0,1-.44.33,1.81,1.81,0,0,1,.82.69,1.46,1.46,0,0,1,.21,1,1.47,1.47,0,0,1-.25.68,1.81,1.81,0,0,1-.53.5,2.48,2.48,0,0,1-.76.31,3.59,3.59,0,0,1-1,.11,6.91,6.91,0,0,1-1-.06,3.49,3.49,0,0,1-.74-.18,1.75,1.75,0,0,1-.52-.31.83.83,0,0,1-.24-.45,1.1,1.1,0,0,1,0-.36.85.85,0,0,1,.09-.31,1.28,1.28,0,0,1,.15-.25,1.45,1.45,0,0,1,.16-.18,3.2,3.2,0,0,0,.66.23,3.5,3.5,0,0,0,.7.08h.23l.22,0a.64.64,0,0,0,.19-.08.21.21,0,0,0,.1-.14c0-.08,0-.17-.1-.26A1.16,1.16,0,0,0,74.26,33.64Z"/><rect class="cls-8" x="85.88" y="27.2" width="11.72" height="11.72" rx="2.03"/><path class="cls-1" d="M90.57,34.53l-.45,0a1,1,0,0,1-.36-.07.79.79,0,0,1-.26-.2,1.29,1.29,0,0,1-.22-.32,2.1,2.1,0,0,1-.18-.4,3.6,3.6,0,0,1-.12-.44.77.77,0,0,1,.11-.43,5,5,0,0,1,.37-.62,8.16,8.16,0,0,1,.56-.7,7.72,7.72,0,0,1,.64-.64,3.68,3.68,0,0,1,.64-.48,1,1,0,0,1,.54-.19,2.29,2.29,0,0,1,.59.09,3.51,3.51,0,0,1,.64.24,2.3,2.3,0,0,1,.53.34.8.8,0,0,1,.27.42,4.48,4.48,0,0,1,.06.83v.39c0,.13,0,.28,0,.44,0,.57-.06,1-.08,1.44s0,.7,0,.94a3.8,3.8,0,0,1,0,.5q0,.15-.06.15h-.64l-.43,0-.42,0h-.46c-.07,0-.11,0-.13-.07a.18.18,0,0,1,0-.09.37.37,0,0,1,0-.21l0-1Zm1.19-2.38-1.05,1.1h1Z"/><rect class="cls-8" x="102.62" y="27.2" width="11.72" height="11.72" rx="2.03"/><path class="cls-1" d="M106.65,33.45c-.13,0-.2-.05-.22-.16a.28.28,0,0,1,0-.11v-.69c0-.2,0-.41,0-.63s0-.45,0-.68,0-.46,0-.67a.21.21,0,0,1,0-.15s.09,0,.22,0h2.43l.39,0a3.1,3.1,0,0,0,.42-.08.74.74,0,0,0,.32-.16,2.06,2.06,0,0,1,.35.55,1.72,1.72,0,0,1,.13.61.94.94,0,0,1-.07.37.63.63,0,0,1-.21.3,1.21,1.21,0,0,1-.37.22,1.91,1.91,0,0,1-.57.08l-.32,0-.26-.05-.24,0-.25,0v.42a4.15,4.15,0,0,1,1.14.21,2.23,2.23,0,0,1,.74.4,1.49,1.49,0,0,1,.4.52,1.63,1.63,0,0,1,.13.56,1.52,1.52,0,0,1-.21.92,1.81,1.81,0,0,1-.62.61,2.94,2.94,0,0,1-.89.33,5.5,5.5,0,0,1-1,.09,3.16,3.16,0,0,1-1.28-.21,1.09,1.09,0,0,1-.69-1,.87.87,0,0,1,.1-.44.64.64,0,0,1,.24-.29,1.86,1.86,0,0,0,.57.16,3.44,3.44,0,0,0,.51,0,1.32,1.32,0,0,0,.54-.09.24.24,0,0,0,.14-.29.33.33,0,0,0-.1-.15,1.17,1.17,0,0,0-.26-.17,2.92,2.92,0,0,0-.46-.13,4.4,4.4,0,0,0-.68,0Z"/><rect class="cls-8" x="35.66" y="48.96" width="11.72" height="11.72" rx="2.03"/><path class="cls-1" d="M43.75,53.8a2.84,2.84,0,0,0-.48-.11,3.27,3.27,0,0,0-.54,0,3,3,0,0,0-.43,0,1.25,1.25,0,0,0-.4.12,1,1,0,0,0-.32.22.81.81,0,0,0-.21.33,2.43,2.43,0,0,1,.47-.19,2.18,2.18,0,0,1,.61-.07,2.06,2.06,0,0,1,.76.13,1.78,1.78,0,0,1,.61.37,1.56,1.56,0,0,1,.39.58,1.77,1.77,0,0,1,.11.74,1.93,1.93,0,0,1-.2.72,1.55,1.55,0,0,1-.47.58,2.41,2.41,0,0,1-.75.38,3.64,3.64,0,0,1-1,.14,4,4,0,0,1-1.18-.16,2.54,2.54,0,0,1-.91-.47,2.13,2.13,0,0,1-.59-.79A2.76,2.76,0,0,1,39,55.19,3.62,3.62,0,0,1,39.13,54a3.18,3.18,0,0,1,.5-1,2.62,2.62,0,0,1,.75-.66A3.06,3.06,0,0,1,41.3,52a4.11,4.11,0,0,1,1.38,0,1.67,1.67,0,0,1,.52.17,1.3,1.3,0,0,1,.41.32,1.11,1.11,0,0,1,.24.5,1.2,1.2,0,0,1,0,.28A1.45,1.45,0,0,1,43.75,53.8Zm-2.57,1.8s0,.11,0,.19a.8.8,0,0,0,.05.21.56.56,0,0,0,.09.17.18.18,0,0,0,.15.07.28.28,0,0,0,.25-.18.48.48,0,0,0,.05-.39.35.35,0,0,0-.12-.24.29.29,0,0,0-.39,0A.2.2,0,0,0,41.18,55.6Z"/><rect class="cls-8" x="52.4" y="48.96" width="11.72" height="11.72" rx="2.03"/><path class="cls-1" d="M60.88,53.25a1.43,1.43,0,0,1,0,.73,5.09,5.09,0,0,1-.35.89,10,10,0,0,1-.53.94c-.2.32-.39.61-.59.88s-.38.5-.55.7-.3.35-.38.44l-.11.1a.12.12,0,0,1-.09,0,1,1,0,0,1-.39-.11l-.53-.24-.51-.27-.33-.19-.13-.07a.19.19,0,0,1-.05-.1.19.19,0,0,1,0-.19c.09-.16.21-.33.34-.52s.28-.39.43-.6.31-.45.46-.7a6.24,6.24,0,0,0,.44-.81,2.21,2.21,0,0,1-.39,0h-.26a.66.66,0,0,1-.21,0,1,1,0,0,1-.73-.44,1.29,1.29,0,0,1-.23-.76,1.64,1.64,0,0,1,.11-.61,1.6,1.6,0,0,1,.36-.54A.81.81,0,0,0,57,52a3.54,3.54,0,0,0,.47.07,3.62,3.62,0,0,0,.46,0H60a.41.41,0,0,1,.29.16,2.09,2.09,0,0,1,.26.36,2.33,2.33,0,0,1,.19.39A1.39,1.39,0,0,1,60.88,53.25Z"/><rect class="cls-8" x="69.14" y="48.96" width="11.72" height="11.72" rx="2.03"/><path class="cls-1" d="M77.65,53.22a1,1,0,0,1-.15.81,1.41,1.41,0,0,1-.75.52,2,2,0,0,1,.82.59,1.26,1.26,0,0,1,.32.81,2,2,0,0,1-.1.68,1.4,1.4,0,0,1-.44.6,2.58,2.58,0,0,1-.88.45,6.08,6.08,0,0,1-1.45.19,5.69,5.69,0,0,1-.89-.07,3.51,3.51,0,0,1-.87-.26,2.11,2.11,0,0,1-.7-.51,1.44,1.44,0,0,1-.36-.79,1.27,1.27,0,0,1,0-.51,1.87,1.87,0,0,1,.23-.47,1.58,1.58,0,0,1,.36-.37,1.23,1.23,0,0,1,.41-.21,1.66,1.66,0,0,1-.35-.25.94.94,0,0,1-.22-.28.8.8,0,0,1-.12-.27,1.28,1.28,0,0,1,0-.27A1.2,1.2,0,0,1,72.6,53a1.36,1.36,0,0,1,.4-.55,2.38,2.38,0,0,1,.78-.4A4,4,0,0,1,75,51.92a7.19,7.19,0,0,1,.94.06,3.21,3.21,0,0,1,.81.19,1.85,1.85,0,0,1,.61.4A1.34,1.34,0,0,1,77.65,53.22ZM75.22,55.8a.38.38,0,0,0-.16-.27,1.2,1.2,0,0,0-.34-.17,1.19,1.19,0,0,0-.16.34,1,1,0,0,0,0,.42c.06.2.17.29.34.28a.25.25,0,0,0,.18-.07.59.59,0,0,0,.1-.17,1.18,1.18,0,0,0,0-.2A.76.76,0,0,0,75.22,55.8Zm-.37-2.14a.34.34,0,0,0,.12.22,1,1,0,0,0,.33.16.9.9,0,0,0,.12-.24.48.48,0,0,0,0-.27.48.48,0,0,0-.09-.19.22.22,0,0,0-.22-.07.3.3,0,0,0-.25.13A.3.3,0,0,0,74.85,53.66Z"/><rect class="cls-8" x="85.88" y="48.96" width="11.72" height="11.72" rx="2.03"/><path class="cls-1" d="M89.54,55.76c.15,0,.31.08.49.11a4.56,4.56,0,0,0,.54,0,3,3,0,0,0,.43,0,2.22,2.22,0,0,0,.39-.12,1.07,1.07,0,0,0,.32-.22.85.85,0,0,0,.21-.33,1.89,1.89,0,0,1-.46.2,2.69,2.69,0,0,1-.61.07,2.39,2.39,0,0,1-.77-.13,1.84,1.84,0,0,1-.6-.37,1.61,1.61,0,0,1-.39-.57,1.56,1.56,0,0,1-.11-.72,1.82,1.82,0,0,1,.19-.71,1.6,1.6,0,0,1,.48-.56A2.2,2.2,0,0,1,90.4,52a3.59,3.59,0,0,1,1-.14,4.25,4.25,0,0,1,1.17.15,2.52,2.52,0,0,1,.91.46,2.21,2.21,0,0,1,.6.78,2.68,2.68,0,0,1,.22,1.11,3.52,3.52,0,0,1-.17,1.2,3.07,3.07,0,0,1-.5.93,2.59,2.59,0,0,1-.75.65,3.15,3.15,0,0,1-.92.36,3.49,3.49,0,0,1-.83.08,3.64,3.64,0,0,1-.57,0,1.7,1.7,0,0,1-.51-.17,1.39,1.39,0,0,1-.41-.31,1.25,1.25,0,0,1-.26-.76A1.4,1.4,0,0,1,89.54,55.76ZM92.11,54a1.34,1.34,0,0,0,0-.19.65.65,0,0,0,0-.2.39.39,0,0,0-.09-.17.18.18,0,0,0-.15-.07.31.31,0,0,0-.26.17.55.55,0,0,0,0,.38.35.35,0,0,0,.13.24.31.31,0,0,0,.2.07.28.28,0,0,0,.19-.07A.21.21,0,0,0,92.11,54Z"/><rect class="cls-8" x="102.62" y="48.96" width="11.72" height="11.72" rx="2.03"/><path class="cls-1" d="M105.17,52.28l.52,0,.36,0,.27,0,.22,0a1.76,1.76,0,0,1,.27.14,2.61,2.61,0,0,1,.27.22,1.09,1.09,0,0,1,.22.26.6.6,0,0,1,.1.27c0,.13,0,.27,0,.44V55c0,.28,0,.55,0,.82s0,.52,0,.76,0,.46,0,.63a.4.4,0,0,1,0,.15.1.1,0,0,1-.09,0h-1.74a.76.76,0,0,1-.3-.06.59.59,0,0,1-.11-.09l-.05-.09V57c0-.12,0-.27,0-.42s0-.34,0-.53,0-.42,0-.66,0-.52,0-.83a.14.14,0,0,1-.1,0,.85.85,0,0,1-.23,0,.63.63,0,0,1-.36-.1,1.26,1.26,0,0,1-.27-.29,1.82,1.82,0,0,1-.18-.37,2.15,2.15,0,0,1-.11-.37,1.3,1.3,0,0,0,.41-.13,1.66,1.66,0,0,0,.39-.26,1.55,1.55,0,0,0,.31-.36A1.46,1.46,0,0,0,105.17,52.28Z"/><path class="cls-1" d="M110.57,57.44a3.34,3.34,0,0,1-1-.16,2.57,2.57,0,0,1-.89-.49A2.27,2.27,0,0,1,108,56a2.75,2.75,0,0,1-.22-1.11,2.8,2.8,0,0,1,.18-1,2.44,2.44,0,0,1,.52-.83,2.65,2.65,0,0,1,.82-.56,3.11,3.11,0,0,1,1.09-.22,3.48,3.48,0,0,1,1.08.14,2.57,2.57,0,0,1,.89.49,2.37,2.37,0,0,1,.6.79,2.8,2.8,0,0,1,.11,2.09,2.22,2.22,0,0,1-.5.85,2.38,2.38,0,0,1-.84.6A2.89,2.89,0,0,1,110.57,57.44Zm-.1-3.6a.17.17,0,0,0-.15.1,1,1,0,0,0-.11.23,2.79,2.79,0,0,0-.06.33,2.22,2.22,0,0,0,0,.37,2.93,2.93,0,0,0,0,.3,2.19,2.19,0,0,0,0,.36,1,1,0,0,0,.12.3.26.26,0,0,0,.23.12.25.25,0,0,0,.17-.12.84.84,0,0,0,.11-.27,1.8,1.8,0,0,0,.06-.36,2.54,2.54,0,0,0,0-.39c0-.06,0-.15,0-.26s0-.22,0-.33a1,1,0,0,0-.11-.27A.21.21,0,0,0,110.47,53.84Z"/></g></g></svg>