<svg xmlns="http://www.w3.org/2000/svg" viewBox="0 0 70 58.45"><defs><style>.cls-1{fill:#cc473a;}.cls-2{fill:#2e1f22;}</style></defs><g id="Layer_2" data-name="Layer 2"><g id="Layer_1-2" data-name="Layer 1"><g id="Layer_2-2" data-name="Layer 2"><g id="Layer_1-2-2" data-name="Layer 1-2"><polygon class="cls-1" points="70 22.47 51.69 29.14 51.53 54.32 40.17 44.94 33.13 58.45 0 0 70 22.47"/><path class="cls-2" d="M51.69,29.87a.7.7,0,0,1-.35-.09L.87,1.75A.73.73,0,1,1,1.57.46L52,28.51a.73.73,0,0,1,.28,1,.72.72,0,0,1-.63.37Z"/><path class="cls-2" d="M51.53,55.05a.72.72,0,0,1-.65-.41l-8.68-18a.72.72,0,0,1,.33-1,.73.73,0,0,1,1,.34h0l8.68,18a.74.74,0,0,1-.33,1A.88.88,0,0,1,51.53,55.05Z"/><path class="cls-2" d="M42.85,37.09a.73.73,0,0,1-.47-.17L.75,1.64A.72.72,0,0,1,1.69.54L43.32,35.81a.72.72,0,0,1,.08,1A.7.7,0,0,1,42.85,37.09Z"/><path class="cls-2" d="M40.17,45.66l-.21,0a.72.72,0,0,1-.48-.9l2.68-8.58a.73.73,0,0,1,.89-.5h0a.74.74,0,0,1,.47.92l-2.68,8.58A.71.71,0,0,1,40.17,45.66Z"/></g></g></g></g></svg>