<svg width="81" height="53" viewBox="0 0 81 53" fill="none" xmlns="http://www.w3.org/2000/svg">
<path d="M45.1904 11.8001C17.3904 11.2001 13.8904 29.4001 12.6904 51.9001L21.2904 52.3001C20.6904 42.1001 21.2904 17.9001 40.3904 16.4001C62.6904 14.6001 61.8904 41.7001 60.7904 52.1001L66.4904 51.6001C67.6904 41.7001 69.4904 12.4001 45.1904 11.8001Z" fill="#F9B818"/>
<path d="M40.2903 16.4002C21.1903 17.9002 20.5903 42.1002 21.1903 52.3002L27.2903 52.6002C27.2903 52.6002 28.8903 20.5002 41.9903 21.1002C55.0903 21.6002 55.5903 52.5002 55.5903 52.5002L60.5903 52.1002C61.7903 41.7002 62.5903 14.7002 40.2903 16.4002Z" fill="#6EAF9F"/>
<path d="M41.1903 0.000145725C-6.1097 -0.0998543 0.290303 51.3001 0.290303 51.3001L5.09031 51.5001C2.59031 18.3001 19.9903 2.30015 50.2903 5.50015C76.9903 8.30015 76.4903 40.9001 75.7903 50.8001L79.2903 50.5001C79.2903 50.6001 88.4903 0.100146 41.1903 0.000145725Z" fill="#E42D31"/>
<path d="M50.2902 5.60014C20.0902 2.40014 2.59019 18.4001 5.09019 51.6001L12.6902 52.0001C13.8902 29.6001 17.4902 11.3001 45.1902 11.9001C69.4902 12.4001 67.6902 41.8001 66.3902 51.7001L75.7902 50.9001C76.4902 41.0001 76.8902 8.40014 50.2902 5.60014Z" fill="#EF8615"/>
</svg>
