<svg width="47" height="64" viewBox="0 0 47 64" fill="none" xmlns="http://www.w3.org/2000/svg">
<path d="M3.65432 46.5048C2.32956 49.2457 2.46662 52.6261 4.06547 55.2299C4.33956 55.6867 4.70499 56.1436 5.1618 56.3263C5.6643 56.509 6.30384 56.372 6.53225 55.8695C5.52726 54.3163 4.79636 52.5347 4.88773 50.6618C4.97909 48.7889 5.93841 46.9616 7.58294 46.0937C8.81634 45.4541 10.2325 45.4084 11.6029 45.2257C12.2424 45.1344 12.9733 44.9516 13.2931 44.3578C13.9783 43.2157 12.7449 41.8453 11.7399 41.4342C10.6893 40.9774 9.91269 41.5255 8.95338 41.891C6.66931 42.8503 4.75068 44.2664 3.65432 46.5048Z" fill="#D88C39"/>
<path d="M10.5524 27.7743C8.72516 27.957 6.89788 28.3681 5.16199 28.9163C5.3904 28.4595 5.71017 28.0027 6.07562 27.6372C4.56813 27.6372 3.06067 27.9113 1.64455 28.4595C2.42113 26.1754 3.92861 24.1198 5.89291 22.7037C4.2027 21.653 2.37545 20.8764 0.502512 20.3282C1.32478 19.7344 2.28408 19.3232 3.28907 19.1862C2.28408 18.2726 1.18772 17.496 0 16.7651C1.2334 15.349 3.10635 14.481 4.97928 14.3896C3.56316 13.2933 1.9643 12.5167 0.228407 11.9685C1.14203 10.6894 2.55815 9.8215 4.01996 9.36468C5.52744 8.86219 7.08063 8.72514 8.63379 8.58809C8.3597 7.81151 7.94856 7.08061 7.53743 6.39539C8.49674 6.6238 9.45605 6.89789 10.3697 7.26334C10.5524 5.57313 11.2376 3.9286 12.2426 2.60384C12.9278 3.9286 14.1612 4.97927 15.623 5.3904C15.9428 4.56813 16.3539 3.74588 16.8564 3.01497C17.2219 3.60883 17.633 4.15701 18.1812 4.61382C19.1405 2.55816 20.8764 0.867946 22.9777 0C23.2518 1.59885 23.9828 3.10633 25.1248 4.29405C26.2668 3.15201 27.8657 2.51248 29.4645 2.51248C29.3275 2.78656 29.1448 3.06065 29.0077 3.33474C31.6115 2.6952 34.4895 3.06066 36.8192 4.4311C36.2254 4.52246 35.6772 4.75087 35.2204 5.07064C38.4637 5.84722 41.296 8.17697 42.6664 11.1919C41.9355 10.9179 41.2046 10.7351 40.4281 10.6894C41.7528 12.0142 42.8035 13.5674 43.5344 15.3033C42.8035 15.2576 42.1183 15.2119 41.3874 15.2119C43.0776 16.6737 44.1282 18.775 44.2652 20.9678C43.0775 20.648 41.8899 20.5109 40.6565 20.5566C41.6158 21.2418 42.3923 22.1555 42.8491 23.2518C41.3416 23.2518 39.8342 23.3889 38.3724 23.663C38.9206 23.937 39.4687 24.2111 40.0169 24.4852C34.3067 26.5866 28.1854 27.6829 22.0641 27.6829C18.5923 27.6829 15.0292 27.3631 11.6488 28.2311L10.5524 27.7743Z" fill="#D88C39"/>
<path d="M8.13183 11.6485C7.72069 10.6892 7.85774 9.54715 8.4516 8.6792C8.86273 8.08535 9.50228 7.71989 10.1418 7.49149C11.0554 7.2174 12.0604 7.26308 12.9284 7.67421C13.7963 8.08534 14.4359 8.90761 14.6186 9.82124C14.6643 10.141 14.71 10.4608 14.6186 10.7806C14.5272 11.2374 14.2075 11.6485 13.8877 12.0139C13.3395 12.6078 12.6543 13.0646 11.8777 13.3387C11.0554 13.6585 10.4616 13.5214 9.68501 13.156C8.99978 12.8819 8.40592 12.3337 8.13183 11.6485Z" fill="#BF9B4B"/>
<path d="M10.1883 11.7389C9.95993 11.4648 9.77721 11.0537 9.73153 10.6882C9.68585 10.5055 9.68585 10.3685 9.73153 10.1857C9.82289 9.68323 10.234 9.31779 10.6909 9.13506C11.3761 8.86097 12.244 8.99801 12.7922 9.50051C13.3404 10.003 13.5231 10.9166 13.1576 11.5562C12.6095 12.5612 10.9192 12.5612 10.1883 11.7389Z" fill="#F4D8C1"/>
<path d="M12.9289 7.67312C12.4264 7.44472 11.8783 7.30768 11.3301 7.30768C12.2437 7.4904 13.0203 7.90153 13.5228 8.81516C13.8426 9.4547 13.9339 10.2313 14.0253 10.9622C14.2537 10.8251 14.4821 10.6881 14.7105 10.5511C14.7562 10.3227 14.7105 10.0486 14.6648 9.82015C14.4364 8.90653 13.7512 8.12994 12.9289 7.67312Z" fill="#A08040"/>
<g opacity="0.2">
<path opacity="0.2" d="M8.45194 10.9632C8.49762 11.2373 8.58898 11.5114 8.81739 11.6484C8.86307 11.6941 8.95443 11.7398 9.0458 11.7398C9.13716 11.7398 9.22852 11.6484 9.2742 11.557C9.31988 11.4657 9.3199 11.3743 9.3199 11.2373C9.27422 10.9632 9.18285 10.7348 9.13716 10.5064C9.0458 10.278 9.04581 10.0039 9.00013 9.77546C9.00013 9.54705 9.00013 9.31864 9.09149 9.09024C9.13718 8.95319 9.18285 8.86184 9.22853 8.72479V8.67911C9.22853 8.63343 9.18285 8.63342 9.13716 8.63342C8.81739 8.6791 8.68034 9.04456 8.58898 9.31864C8.49762 9.63841 8.45194 10.0039 8.45194 10.3236C8.40626 10.5977 8.45194 10.7805 8.45194 10.9632Z" fill="white"/>
</g>
<path d="M32.9827 9.18221C33.8049 8.63404 34.9013 8.54267 35.8149 8.95381C36.4087 9.2279 36.9113 9.77608 37.231 10.3699C37.6879 11.1922 37.8249 12.1515 37.5508 13.0194C37.3224 13.8874 36.6828 14.664 35.8149 15.0294C35.5408 15.1208 35.2211 15.2121 34.947 15.2121C34.4902 15.2121 34.0333 14.9838 33.6679 14.7097C33.0283 14.2985 32.4802 13.7047 32.069 13.0194C31.6122 12.2885 31.6579 11.6947 31.8406 10.9181C31.9777 10.2329 32.3888 9.59335 32.9827 9.18221Z" fill="#BF9B4B"/>
<path d="M33.3015 11.1914C33.53 10.9174 33.8497 10.689 34.2152 10.5976C34.3522 10.5519 34.5349 10.5062 34.672 10.5062C35.1288 10.5062 35.5856 10.826 35.814 11.2371C36.1795 11.831 36.2252 12.6989 35.8597 13.2928C35.4943 13.8867 34.672 14.2064 33.9868 14.0237C32.9361 13.6126 32.6163 12.0137 33.3015 11.1914Z" fill="#F4D8C1"/>
<path d="M37.5496 13.065C37.6866 12.5625 37.6866 11.9686 37.5953 11.4661C37.5953 12.3341 37.3212 13.202 36.5446 13.7959C35.9965 14.2527 35.3112 14.4354 34.626 14.6638C34.8087 14.8465 34.9457 15.0293 35.1285 15.2577C35.3569 15.2577 35.5853 15.1663 35.8137 15.075C36.6816 14.7095 37.3212 13.9329 37.5496 13.065Z" fill="#A08040"/>
<g opacity="0.2">
<path opacity="0.2" d="M33.6669 9.41094C33.4385 9.5023 33.2101 9.63935 33.073 9.86775C33.0273 9.95912 33.0273 10.0048 33.0273 10.0962C33.073 10.1875 33.1187 10.2789 33.2558 10.2789C33.3471 10.3246 33.4385 10.2789 33.5298 10.2789C33.7582 10.2332 33.9867 10.0962 34.1694 9.95911C34.3978 9.86774 34.6262 9.77639 34.8546 9.68503C35.083 9.63935 35.2657 9.59366 35.4941 9.63935C35.6312 9.63935 35.7226 9.68503 35.8596 9.68503H35.9053C35.951 9.68503 35.951 9.63934 35.9053 9.59366C35.8139 9.27389 35.4028 9.22821 35.1744 9.18253C34.8546 9.13685 34.5348 9.13685 34.215 9.22822C34.0323 9.2739 33.8496 9.31958 33.6669 9.41094Z" fill="white"/>
</g>
<path d="M14.161 56.2333C14.161 56.5531 14.161 56.9186 14.2981 57.1927C14.4351 57.5124 14.7092 57.7865 14.9376 58.0149C16.4908 59.3397 18.5008 60.2533 20.5564 60.2533C30.4236 60.2533 32.3423 56.8272 32.4336 56.5531C32.525 56.3247 32.4793 56.0506 32.4793 55.8222C32.2966 53.6752 32.1138 51.4825 31.8854 49.3355C31.7941 48.1934 31.657 47.0057 31.1089 46.0007C29.8755 43.8994 27.1346 43.3969 24.7135 43.2598C22.2923 43.1228 19.7799 43.2141 17.5871 44.2648C12.7906 46.6402 14.0697 51.8479 14.161 56.2333Z" fill="#EDAC80"/>
<path d="M32.4795 56.4167C32.5708 56.1883 32.5251 55.9142 32.5251 55.6858C32.3881 54.2697 32.251 52.8536 32.1597 51.4831C31.8399 51.2547 31.4745 51.1177 31.109 50.9806C28.962 50.2041 26.6779 49.8386 24.3938 49.6102C22.4295 49.4275 20.4653 49.3361 18.5467 49.7016C17.0392 49.9756 15.1206 50.6152 13.9785 51.7572C13.9785 52.6252 14.0699 53.5388 14.1156 54.4068C14.5267 54.7265 15.1205 54.8636 15.7144 54.9093C20.0541 55.4117 24.3482 55.9142 28.6879 56.4624C29.6015 56.5538 30.5152 56.6908 31.3374 57.0106C31.5202 57.0563 31.6572 57.1476 31.8399 57.239C32.2967 56.8279 32.4795 56.5081 32.4795 56.4167Z" fill="#C9936F"/>
<path d="M42.2096 28.8713C43.8084 29.4194 45.3616 30.3787 45.9555 31.9319C46.0469 32.206 46.1382 32.4801 46.0925 32.7999C46.0468 33.0283 45.9555 33.2567 45.8641 33.4394C45.3616 34.353 44.4023 34.9469 43.443 35.2667C42.438 35.5864 41.3873 35.6321 40.3367 35.6321C37.4587 35.6778 34.5808 35.4037 31.7943 34.7642C31.109 34.6271 30.4238 34.4444 29.8756 34.0789C29.2818 33.7135 28.7793 33.1653 28.6422 32.4801C28.4138 31.4294 29.099 30.3787 29.8756 29.6478C31.1547 28.4144 31.8399 27.0897 33.5301 26.7699C34.3067 26.6329 38.281 27.7749 38.9662 28.0033C40.0169 28.3231 41.1589 28.5058 42.2096 28.8713Z" fill="#FFB43B"/>
<path d="M29.3266 31.0628C29.4637 31.748 29.9662 32.2962 30.56 32.6617C31.1539 33.0271 31.8391 33.2099 32.4787 33.3469C35.2652 33.9864 38.1431 34.2148 41.0211 34.2148C42.0717 34.2148 43.1224 34.1692 44.1274 33.8494C44.8583 33.621 45.5435 33.2555 46.046 32.7074C46.046 32.753 46.046 32.7987 46.046 32.8444C46.0003 33.0728 45.909 33.3012 45.8176 33.4839C45.3151 34.3976 44.3558 34.9914 43.3965 35.3112C42.3915 35.631 41.3409 35.6767 40.2902 35.6767C37.4123 35.7223 34.5343 35.4482 31.7478 34.8087C31.0626 34.6717 30.3773 34.4889 29.8291 34.1235C29.2353 33.758 28.7328 33.2099 28.5958 32.5246C28.413 31.7024 28.8241 30.8344 29.3723 30.1949C29.281 30.469 29.281 30.7431 29.3266 31.0628Z" fill="#CE8236"/>
<path d="M41.6616 33.4851C41.1591 33.6221 40.6567 33.4394 40.1998 33.2566C39.9258 33.1196 39.6516 33.0282 39.4232 32.7998C39.1948 32.6171 39.0578 32.2973 39.1035 32.0233C39.1492 31.7492 39.2862 31.5664 39.5146 31.3837C39.743 31.2467 39.9714 31.1553 40.1998 31.0639C40.7023 30.8812 41.2048 30.7442 41.7073 30.8355C43.1691 31.1096 42.9407 33.1196 41.6616 33.4851Z" fill="#CE8236"/>
<path d="M44.6319 32.8001C44.5405 32.9372 44.4035 33.0285 44.2664 33.1199C44.1751 33.1656 44.1294 33.1656 44.038 33.2113C43.9466 33.2113 43.8553 33.1656 43.8096 33.1656C43.6726 33.1199 43.5812 33.0742 43.4442 32.9828C43.3071 32.8915 43.1701 32.8001 43.1244 32.6174C43.0787 32.4803 43.1244 32.3433 43.1701 32.2519C43.3072 31.9779 43.5812 31.7951 43.8553 31.7951C44.4035 31.6581 44.9973 32.2976 44.6319 32.8001Z" fill="#CE8236"/>
<path d="M44.7216 32.6622C44.6302 32.7993 44.5389 32.8449 44.4018 32.9363C44.3561 32.982 44.2648 32.982 44.2191 32.982C44.1277 32.982 44.082 32.9363 43.9907 32.9363C43.8993 32.8906 43.808 32.8449 43.6709 32.7993C43.5339 32.7079 43.3969 32.6622 43.3969 32.5252C43.3512 32.4338 43.3968 32.2968 43.4425 32.2054C43.5796 31.977 43.8079 31.84 44.0363 31.7943C44.5388 31.7029 45.0413 32.2511 44.7216 32.6622Z" fill="#F4D8C1"/>
<path d="M43.6252 33.8961C43.5795 34.0788 43.4425 34.2616 43.2598 34.3529C43.2141 34.3986 43.1684 34.3986 43.1227 34.3986C42.9856 34.4443 42.8486 34.3986 42.7116 34.3072C42.6202 34.2616 42.5288 34.2159 42.4375 34.1702C42.3004 34.0331 42.2091 33.8047 42.3005 33.5763C42.3461 33.3936 42.5289 33.2109 42.7573 33.1652C43.1227 33.1195 43.7166 33.3936 43.6252 33.8961Z" fill="#CE8236"/>
<path d="M43.809 31.2001C43.672 31.3828 43.4436 31.4285 43.2609 31.4285C43.2152 31.4285 43.1695 31.4285 43.1238 31.3828C43.0324 31.3371 42.9868 31.2914 42.8954 31.2457C42.7584 31.1544 42.667 31.0173 42.667 30.8346C42.667 30.7889 42.7127 30.6976 42.7127 30.6519C42.8041 30.5148 42.9411 30.3778 43.1238 30.3778C43.5349 30.3321 44.1288 30.7889 43.809 31.2001Z" fill="#CE8236"/>
<path d="M41.9819 33.3925C41.4794 33.5296 40.977 33.3469 40.5202 33.1641C40.2461 33.0271 39.972 32.9357 39.7436 32.7073C39.5152 32.5246 39.3781 32.2048 39.4238 31.9307C39.4695 31.6566 39.6065 31.4739 39.8349 31.2912C40.0633 31.1541 40.2917 31.0628 40.5202 30.9714C41.0226 30.7887 41.5252 30.6516 42.0277 30.743C43.5351 31.0171 43.261 33.0271 41.9819 33.3925Z" fill="#F4D8C1"/>
<path d="M43.9455 33.8493C43.8998 34.032 43.7628 34.2147 43.5801 34.3061C43.5344 34.3518 43.4887 34.3518 43.443 34.3518C43.306 34.3975 43.1689 34.3518 43.0319 34.2604C42.9405 34.2147 42.8492 34.1691 42.7578 34.1234C42.6208 33.9863 42.5294 33.7579 42.6208 33.5295C42.6664 33.3468 42.8492 33.1641 43.0776 33.1184C43.4887 33.027 44.0826 33.3011 43.9455 33.8493Z" fill="#F4D8C1"/>
<path d="M44.1743 31.1096C44.0372 31.2923 43.8088 31.338 43.6261 31.338C43.5804 31.338 43.5347 31.338 43.489 31.2923C43.3977 31.2467 43.352 31.201 43.2606 31.1553C43.1236 31.0639 43.0322 30.9269 43.0322 30.7442C43.0322 30.6985 43.0779 30.6071 43.0779 30.5614C43.1693 30.4244 43.3063 30.2873 43.489 30.2873C43.8545 30.2417 44.4483 30.6985 44.1743 31.1096Z" fill="#F4D8C1"/>
<path d="M4.97946 30.3329C3.51765 31.1551 2.14722 32.3885 1.87313 33.9874C1.82745 34.2615 1.82745 34.5812 1.87313 34.8553C1.96449 35.0837 2.05585 35.2664 2.23857 35.4492C2.92379 36.2258 3.92878 36.6826 4.97946 36.8196C6.03013 36.9567 7.08079 36.8196 8.08579 36.6369C10.918 36.1344 13.7046 35.4035 16.3541 34.2615C16.9936 33.9874 17.6332 33.6676 18.1357 33.2108C18.6382 32.754 19.0493 32.1144 19.0493 31.4292C19.095 30.3785 18.227 29.4649 17.3591 28.8711C15.8973 27.9117 14.1614 27.3636 12.3798 27.3636C11.6033 27.3636 11.923 27.0438 11.1921 27.4092C10.5526 27.729 8.67965 28.597 8.04011 28.9167C7.03512 29.3735 5.98445 29.7847 4.97946 30.3329Z" fill="#FFB43B"/>
<path d="M18.0442 30.1499C18.0442 30.8351 17.6331 31.4747 17.1306 31.9315C16.6281 32.3883 15.9886 32.7081 15.3491 32.9821C12.6995 34.1242 9.91295 34.9008 7.08071 35.3576C6.07572 35.5403 5.02505 35.6773 3.97438 35.5403C3.24348 35.4489 2.51259 35.2205 1.87305 34.7637C1.87305 34.8094 1.87304 34.8551 1.91872 34.8551C2.01008 35.0835 2.10144 35.2662 2.28416 35.4489C2.96938 36.2255 3.97437 36.6823 5.02505 36.8194C6.07572 36.9564 7.12638 36.8194 8.13137 36.6367C10.9636 36.1342 13.7502 35.4033 16.3997 34.2612C17.0393 33.9871 17.6788 33.6674 18.1813 33.2106C18.6838 32.7537 19.0949 32.1142 19.0949 31.429C19.0949 30.561 18.5924 29.8301 17.9072 29.2363C17.9986 29.5104 18.0442 29.8301 18.0442 30.1499Z" fill="#CE8236"/>
<path d="M6.35069 34.7183C6.85319 34.764 7.30999 34.4899 7.7668 34.2158C7.99521 34.0331 8.2693 33.8961 8.45202 33.622C8.63475 33.3936 8.72612 33.0738 8.63476 32.7997C8.5434 32.5713 8.36066 32.3429 8.13225 32.2515C7.90384 32.1602 7.62976 32.0688 7.40136 32.0688C6.89886 31.9775 6.35067 31.9318 5.84818 32.1602C4.43206 32.6627 5.07161 34.627 6.35069 34.7183Z" fill="#D88C39"/>
<path d="M3.33543 34.6259C3.47247 34.763 3.60953 34.8087 3.74657 34.8543C3.83793 34.8543 3.88362 34.9 3.97498 34.9C4.06634 34.9 4.11202 34.8544 4.20339 34.8087C4.29475 34.7173 4.4318 34.6716 4.52316 34.5803C4.6602 34.4889 4.79724 34.3518 4.79724 34.1691C4.79724 34.0321 4.75156 33.895 4.6602 33.8037C4.47747 33.5753 4.20338 33.4382 3.88361 33.4382C3.33543 33.4382 2.87861 34.1691 3.33543 34.6259Z" fill="#D88C39"/>
<path d="M4.52328 35.5391C4.61464 35.7218 4.79737 35.8589 4.98009 35.9502C5.02578 35.9502 5.07144 35.9959 5.1628 35.9959C5.29985 35.9959 5.43691 35.9045 5.52828 35.8589C5.61964 35.8132 5.711 35.7218 5.75668 35.6761C5.89373 35.4934 5.89372 35.265 5.80235 35.0823C5.71099 34.8996 5.48259 34.7625 5.29987 34.7625C4.84306 34.6712 4.29487 35.0366 4.52328 35.5391Z" fill="#D88C39"/>
<path d="M3.83767 32.8894C3.97471 33.0265 4.20312 33.0722 4.43152 32.9808C4.4772 32.9808 4.52288 32.9351 4.56856 32.9351C4.65992 32.8894 4.70562 32.7981 4.7513 32.7524C4.84266 32.6154 4.93402 32.4783 4.88834 32.2956C4.88834 32.2499 4.84265 32.2042 4.79697 32.1585C4.70561 32.0215 4.52288 31.9301 4.34015 31.9758C3.92902 31.9758 3.47222 32.524 3.83767 32.8894Z" fill="#D88C39"/>
<path d="M11.2376 18.7748C12.5167 14.1609 16.7194 12.151 18.2269 11.7855C21.9271 10.8262 28.8249 11.4657 31.6572 14.5264C37.6414 21.0131 37.4131 46.6404 37.2303 47.3713C36.7278 49.8838 34.3524 51.3913 32.114 52.2592C27.2261 54.1321 21.8814 54.3606 16.8564 53.0358C14.7094 52.4876 11.466 51.6197 9.82147 49.9751C9.09057 49.2442 9.2733 47.7368 9.22762 46.6861C9.18194 45.0872 9.18194 43.4427 9.22762 41.8439C9.41035 38.235 9.77581 24.0281 11.2376 18.7748Z" fill="#FFB43B"/>
<path d="M31.6572 14.5723C30.4238 13.2475 28.4595 12.3796 26.3125 11.8771C27.1805 12.3339 27.957 12.8364 28.5509 13.4759C34.5352 19.9627 34.3067 45.5899 34.124 46.3208C33.6215 48.8333 31.2461 50.3408 29.0077 51.2088C24.1198 53.0817 18.7751 53.3101 13.7501 51.9853C13.339 51.894 12.8365 51.7569 12.334 51.6199C13.8415 52.2594 15.5317 52.7162 16.8565 53.0817C21.8814 54.4064 27.2261 54.1324 32.114 52.3051C34.3524 51.4372 36.7279 49.9297 37.2304 47.4172C37.4131 46.6863 37.6871 21.1047 31.6572 14.5723Z" fill="#D88C39"/>
<path d="M16.8565 15.76C15.1663 16.7193 12.7452 18.1811 13.8872 23.6629C14.3897 26.0383 17.0849 27.5915 19.3233 28.4594C21.5617 29.3274 24.0741 29.3731 26.3582 28.8249C27.3175 28.5965 28.2768 28.231 29.0534 27.5915C29.4646 27.2717 29.83 26.9063 30.1498 26.4952C31.0634 25.3531 31.84 24.074 32.1597 22.6579C32.4795 21.2418 32.4338 19.6429 31.6116 18.4095C27.7743 12.8821 18.6381 14.7094 16.8565 15.76Z" fill="#A08040"/>
<path d="M16.4462 15.2575C14.756 16.2168 12.2892 17.6786 13.4312 23.1604C13.9337 25.5358 16.6746 27.089 18.913 27.9569C21.1514 28.8249 23.6639 28.8706 26.0393 28.3224C26.9986 28.094 27.9579 27.7285 28.7344 27.089C29.1456 26.7692 29.511 26.4038 29.8308 25.9926C30.7444 24.8506 31.521 23.5715 31.8408 22.1554C32.1606 20.7393 32.1149 19.1404 31.2926 17.907C27.4554 12.3796 18.2734 14.2525 16.4462 15.2575Z" fill="#F4D8C1"/>
<path d="M17.8351 21.7968C18.989 21.5243 19.7036 20.3679 19.4312 19.2139C19.1587 18.0599 18.0023 17.3453 16.8483 17.6178C15.6943 17.8903 14.9797 19.0467 15.2522 20.2007C15.5247 21.3547 16.6811 22.0693 17.8351 21.7968Z" fill="#E2C8B5"/>
<path d="M19.4596 19.3244C19.4596 20.5121 18.5003 21.5171 17.2669 21.5171C16.0792 21.5171 15.0742 20.5578 15.0742 19.3244C15.0742 18.1367 16.0335 17.1317 17.2669 17.1317C18.5003 17.1317 19.4596 18.1367 19.4596 19.3244Z" fill="white"/>
<path d="M18.8212 17.7701C18.9125 18.0442 19.0039 18.3183 19.0039 18.6381C19.0039 19.8258 18.0446 20.8308 16.8112 20.8308C16.2173 20.8308 15.6692 20.6024 15.3037 20.1913C15.6235 20.9678 16.4001 21.516 17.3137 21.516C18.5014 21.516 19.5064 20.5567 19.5064 19.3233C19.4607 18.7294 19.2323 18.1813 18.8212 17.7701Z" fill="#EAEAEA"/>
<path d="M18.7751 19.461C18.7751 20.2375 18.1355 20.8314 17.4046 20.8314C16.628 20.8314 16.0342 20.1919 16.0342 19.461C16.0342 18.7301 16.6737 18.0905 17.4046 18.0905C18.1355 18.0905 18.7751 18.7301 18.7751 19.461Z" fill="#303030"/>
<path d="M16.4447 19.004C16.3533 19.141 16.3076 19.278 16.3076 19.4608C16.3076 19.5521 16.3533 19.6435 16.4447 19.6892C16.536 19.7349 16.6274 19.7349 16.7188 19.6892C16.7644 19.6435 16.7644 19.5978 16.7644 19.5521C16.8101 19.3694 16.8558 19.2324 16.9472 19.0953C17.0385 19.0039 17.1756 18.9126 17.1756 18.8212C17.1756 18.7755 17.1756 18.7755 17.1756 18.7755C17.1299 18.7299 17.0842 18.7299 17.0385 18.7299C16.7187 18.6842 16.5817 18.8212 16.4447 19.004Z" fill="white"/>
<path d="M17.4489 18.5021C17.4032 18.5021 17.3575 18.5021 17.3575 18.5478C17.3118 18.5935 17.3118 18.6848 17.3575 18.7305C17.4032 18.7762 17.4489 18.8219 17.5402 18.8219C17.6316 18.8219 17.7686 18.7762 17.8143 18.6848C17.8143 18.6392 17.8143 18.6392 17.8143 18.5935L17.7686 18.5478C17.6773 18.4564 17.4946 18.4564 17.4032 18.5021H17.4489Z" fill="white"/>
<path d="M29.6935 19.9626C29.6935 21.1504 28.7341 22.1097 27.5464 22.1097C26.3587 22.1097 25.3994 21.1504 25.3994 19.9626C25.3994 18.7749 26.3587 17.8156 27.5464 17.8156C28.6885 17.8156 29.6935 18.7749 29.6935 19.9626Z" fill="#E2C8B5"/>
<path d="M29.6002 19.5506C29.6002 20.7383 28.641 21.7433 27.4076 21.7433C26.1742 21.7433 25.2148 20.784 25.2148 19.5506C25.2148 18.3629 26.1742 17.3579 27.4076 17.3579C28.641 17.3579 29.6002 18.3172 29.6002 19.5506Z" fill="white"/>
<path d="M28.9618 17.9974C29.0531 18.2715 29.1445 18.5456 29.1445 18.8654C29.1445 20.0531 28.1852 21.0581 26.9518 21.0581C26.358 21.0581 25.8098 20.8297 25.4443 20.4186C25.7641 21.1951 26.5407 21.7433 27.4543 21.7433C28.642 21.7433 29.647 20.784 29.647 19.5506C29.6013 18.9111 29.3729 18.3629 28.9618 17.9974Z" fill="#EAEAEA"/>
<path d="M28.9167 19.6892C28.9167 20.4658 28.2771 21.0597 27.5462 21.0597C26.7696 21.0597 26.1758 20.4201 26.1758 19.6892C26.1758 18.9126 26.8153 18.3188 27.5462 18.3188C28.2771 18.3188 28.9167 18.9126 28.9167 19.6892Z" fill="#303030"/>
<path d="M26.5853 19.1855C26.4939 19.3225 26.4482 19.4596 26.4482 19.6423C26.4482 19.7336 26.4939 19.825 26.5853 19.8707C26.6767 19.9164 26.768 19.9164 26.8594 19.8707C26.9051 19.825 26.9051 19.7793 26.9051 19.7337C26.9507 19.5509 26.9964 19.4139 27.0878 19.2768C27.1792 19.1855 27.3162 19.0941 27.3162 19.0027C27.3162 18.9571 27.3162 18.9571 27.3162 18.9571C27.2705 18.9114 27.2249 18.9114 27.1792 18.9114C26.8594 18.9114 26.7224 19.0484 26.5853 19.1855Z" fill="white"/>
<path d="M27.5904 18.6837C27.5448 18.6837 27.4991 18.6837 27.4991 18.7294C27.4534 18.7751 27.4534 18.8664 27.4991 18.9121C27.5448 18.9578 27.5905 19.0035 27.6818 19.0035C27.7732 19.0035 27.9102 18.9578 27.9559 18.8664C27.9559 18.8207 27.9559 18.8207 27.9559 18.7751L27.9102 18.7294C27.8189 18.638 27.6361 18.638 27.5448 18.6837H27.5904Z" fill="white"/>
<path d="M21.973 21.1038C21.7446 21.1495 21.4248 21.3322 21.4248 21.6977C21.4248 21.8804 21.6076 22.1545 21.7446 22.2459C22.0187 22.4743 22.2928 22.7483 22.5212 22.9768C23.0237 22.6113 23.4805 22.2915 23.7089 21.789C23.8002 21.6063 23.5719 21.0581 23.0694 21.1495C22.8867 21.1952 22.7496 21.2409 22.6126 21.3779C22.5669 21.1495 22.2014 21.0581 21.973 21.1038Z" fill="#543733"/>
<path d="M22.5206 22.2918C22.5206 22.6116 22.4749 22.9313 22.4292 23.2511C22.3835 23.5252 22.3378 23.7993 22.2465 24.0734C22.1094 24.5759 21.7897 24.987 21.2872 25.0784C20.9674 25.124 20.6476 25.0327 20.3736 24.9413C20.2365 24.8956 20.1908 25.0784 20.3279 25.124C20.876 25.3068 21.5156 25.3981 22.0181 24.9413C22.4292 24.5759 22.5663 23.982 22.6576 23.4338C22.7033 23.0227 22.7946 22.6572 22.7946 22.2461C22.749 22.1548 22.5662 22.1547 22.5206 22.2918Z" fill="#543733"/>
<path d="M22.5215 22.2455C22.6128 22.5653 22.7042 22.9307 22.7956 23.2505C22.8869 23.5246 22.9783 23.7987 23.1154 24.0728C23.2524 24.3012 23.3895 24.5296 23.5722 24.6666C23.8006 24.8493 24.029 24.9407 24.3031 24.9407C24.6685 24.9407 24.9883 24.8037 25.308 24.6666C25.3994 24.6209 25.3537 24.4382 25.2167 24.4839C24.7142 24.7123 24.1203 24.895 23.6635 24.5296C23.2524 24.2098 23.1154 23.7073 22.9326 23.2505C22.8413 22.885 22.7042 22.5653 22.6586 22.1998C22.7042 22.1085 22.5215 22.1541 22.5215 22.2455Z" fill="#543733"/>
<path d="M6.0291 34.7183C6.53159 34.764 6.98839 34.4899 7.44521 34.2158C7.67361 34.0331 7.9477 33.8961 8.13043 33.622C8.31315 33.3936 8.40453 33.0738 8.31317 32.7997C8.2218 32.5713 8.03909 32.3429 7.81068 32.2515C7.58227 32.1602 7.30817 32.0688 7.07976 32.0688C6.57727 31.9775 6.02911 31.9318 5.52661 32.1602C4.06481 32.6627 4.70434 34.5813 6.0291 34.7183Z" fill="#F4D8C1"/>
<path d="M2.96922 34.5813C3.10626 34.7183 3.24332 34.764 3.38036 34.8097C3.47173 34.8097 3.51741 34.8554 3.60877 34.8554C3.70013 34.8554 3.74581 34.8097 3.83718 34.764C3.92854 34.6726 4.06559 34.627 4.15695 34.5356C4.294 34.4442 4.43103 34.3072 4.43103 34.1245C4.43103 33.9874 4.38535 33.8504 4.29399 33.759C4.11127 33.5306 3.83717 33.3936 3.5174 33.3936C3.01491 33.4392 2.51241 34.1245 2.96922 34.5813Z" fill="#F4D8C1"/>
<path d="M4.15568 35.4944C4.24705 35.6771 4.42977 35.8141 4.6125 35.9055C4.65818 35.9055 4.70384 35.9512 4.79521 35.9512C4.93225 35.9512 5.06929 35.8598 5.16065 35.8141C5.25201 35.7685 5.34338 35.6771 5.38906 35.6314C5.5261 35.4487 5.52612 35.2203 5.43476 35.0376C5.34339 34.8548 5.11497 34.7178 4.93224 34.7178C4.47543 34.6264 3.97296 35.0376 4.15568 35.4944Z" fill="#F4D8C1"/>
<path d="M3.47182 32.8448C3.60886 32.9819 3.83726 33.0276 4.06567 32.9362C4.11135 32.9362 4.15703 32.8905 4.20271 32.8905C4.29407 32.8448 4.33977 32.7535 4.38545 32.7078C4.47681 32.5707 4.56817 32.4337 4.52249 32.251C4.52249 32.2053 4.4768 32.1596 4.43112 32.1139C4.33975 31.9769 4.15703 31.8855 3.9743 31.9312C3.60885 31.9312 3.10637 32.5251 3.47182 32.8448Z" fill="#F4D8C1"/>
<g opacity="0.36">
<path opacity="0.36" d="M11.9224 18.1815C11.9681 18.4556 12.2878 18.7297 12.5162 18.5926C12.6076 18.547 12.699 18.4099 12.7446 18.2729C13.3842 16.9024 14.2978 15.6233 15.5769 14.8924C16.0337 14.6184 16.5362 14.4356 16.9473 14.1159C17.0844 14.0245 17.2214 13.8418 17.1757 13.7047C17.1301 13.5677 16.9473 13.522 16.8103 13.4763C16.3991 13.4306 16.0337 13.5677 15.6682 13.7504C14.7546 14.2072 13.9323 14.8468 13.2471 15.6234C12.7446 16.1715 11.831 17.3136 11.9224 18.1815Z" fill="white"/>
</g>
<g opacity="0.36">
<path opacity="0.36" d="M11.1934 20.9223C11.1934 21.3334 11.2847 21.7446 11.2847 22.2014C11.2847 22.4298 11.239 22.7039 11.2847 22.9323C11.3304 23.1607 11.5588 23.3891 11.7872 23.3891C11.9699 23.3891 12.107 23.2521 12.1984 23.0693C12.2897 22.8866 12.2897 22.7496 12.2897 22.5668C12.3354 21.9273 12.3811 21.2878 12.4268 20.6025C12.4724 20.1457 12.244 19.5519 11.6959 19.7803C11.2847 19.9173 11.1934 20.5568 11.1934 20.9223Z" fill="white"/>
</g>
<path d="M17.3589 35.6771C16.9934 36.3167 16.765 37.0476 16.628 37.7785C16.3996 38.9205 16.2168 40.0626 16.3082 41.2046C16.3996 42.8491 16.9478 44.4023 17.77 45.8184C18.2268 46.595 18.8207 47.3716 19.5516 47.8741C20.4195 48.4679 21.4245 48.6963 22.4752 48.8334C23.3431 48.9704 24.2567 49.0161 25.079 48.6963C26.0383 48.3766 26.8149 47.6457 27.3631 46.8234C28.7792 44.7677 29.1447 42.2553 29.2361 39.7885C29.2817 38.6008 29.3274 37.413 28.9619 36.3167C28.8249 35.8599 28.6422 35.4031 28.3224 34.9919C28.0027 34.6265 27.6372 34.3524 27.2261 34.0783C24.4395 32.4794 19.2318 32.5708 17.3589 35.6771Z" fill="#D88C39"/>
<path d="M34.2153 19.5979C34.9918 22.2474 35.266 24.1661 35.4944 26.4501C36.0882 25.8563 36.6821 25.1711 37.2303 24.5315C36.9562 24.5315 36.6821 24.6229 36.408 24.7142C36.6364 24.5315 36.8191 24.3488 36.9561 24.0747C36.8191 24.029 36.6364 24.029 36.4993 24.1204C37.5043 23.1154 39.0119 22.887 40.428 22.6586C39.1032 22.1561 37.7784 21.745 36.3623 21.4252C37.0932 20.7856 38.1896 20.9227 39.1489 21.0597C38.7377 20.8313 38.3723 20.6029 37.9612 20.3745C39.0575 20.1918 40.1539 20.0547 41.2502 19.872C40.1995 19.5979 39.1489 19.4609 38.0982 19.4152C38.692 18.9584 39.4687 18.9584 40.1996 19.0041C41.5243 19.0498 42.9404 19.1868 44.0368 19.9177C43.2602 18.9584 42.0725 18.4102 40.8391 18.1361C39.6057 17.862 38.3723 17.862 37.1389 17.862C37.55 17.5423 38.0525 17.3139 38.6007 17.2225C38.0525 17.3139 37.3673 17.1768 36.7735 17.2225C36.1339 17.2682 35.4944 17.3139 34.8548 17.4052C34.398 17.4966 33.4844 17.4509 33.4844 17.4509C33.7585 18.0904 34.0782 19.0954 34.2153 19.5979Z" fill="#EF9A1D"/>
<path d="M10.5518 22.3382C10.369 24.2568 10.369 26.0841 10.232 28.0027C9.18131 27.0434 7.76519 26.5409 6.34906 26.5866C6.89724 26.4039 7.44541 26.3582 7.99358 26.4039C7.67381 26.3125 7.30837 26.1754 7.03428 25.9927C7.71951 25.9014 8.35903 25.8557 9.04425 25.7643C8.03926 24.7593 6.62315 24.3025 5.20703 24.4852C6.2577 23.7087 7.44542 23.1605 8.7245 22.8407C7.44542 21.79 5.66385 21.6987 4.15636 21.0135C5.61817 20.648 7.17132 20.5566 8.6788 20.785C8.31335 20.4196 7.85656 20.1455 7.35406 20.0085C7.71951 20.0085 8.08496 20.0085 8.40473 20.0085C8.31336 19.9171 8.26768 19.8714 8.17632 19.7801C8.49609 19.7344 8.81586 19.7344 9.08995 19.6887C8.54177 19.0948 7.62814 18.9121 6.80588 18.9121C5.98361 18.9121 5.16134 19.1405 4.33907 19.1405C5.84656 18.0898 7.76518 17.633 9.59243 17.8158C8.72448 17.0849 7.62813 16.6737 6.53177 16.5367C5.43542 16.3996 4.2934 16.4453 3.15137 16.491C5.25271 16.0799 7.39972 15.9428 9.50106 16.1712C9.27266 15.8515 9.08995 15.5317 8.86154 15.2119C9.40972 15.5774 9.95788 15.9428 10.5061 16.3083C10.8258 16.491 12.1506 16.5367 12.1049 16.5824C11.511 17.3133 11.2827 18.5467 11.1456 18.9121C10.7802 20.0998 10.6888 21.1505 10.5518 22.3382Z" fill="#EF9A1D"/>
<path d="M3.60881 59.4325C3.60881 59.2498 3.65448 59.0671 3.65448 58.8844C4.8422 61.7623 7.76582 63.8636 10.9178 64.0007C9.68444 63.3611 9.09056 61.945 8.58807 60.6203C9.63874 61.1227 10.5067 61.9907 10.9178 63.087C10.8722 62.1734 10.7351 61.2141 10.4153 60.3462C10.6894 60.5289 10.9635 60.7116 11.2376 60.8943C11.2833 58.6559 10.0956 56.4632 8.26832 55.2298C8.81649 55.3669 9.36467 55.5496 9.86717 55.778C8.99922 54.9101 8.08558 54.0421 6.94355 53.5396C5.75583 52.9915 3.47176 52.8087 2.83222 54.2249C2.51245 54.9558 2.51244 56.0064 2.64949 56.783C2.69517 57.2855 2.83223 57.7423 3.01496 58.1991C3.10632 58.4732 3.60881 59.2041 3.60881 59.4325Z" fill="#FFB43B"/>
<path d="M3.42578 55.8217C3.42578 56.3699 3.60852 56.9637 4.06533 57.3748C4.06533 57.0551 4.06534 56.781 4.1567 56.4612C4.11102 56.7353 4.20236 57.0094 4.33941 57.2378C4.33941 57.1464 4.38511 57.0094 4.38511 56.918C4.61351 58.791 5.70985 60.5725 7.3087 61.6232C6.5778 60.9837 6.12099 60.0244 6.02963 59.0651C6.25803 59.6589 6.62349 60.2071 7.03462 60.7096C6.76053 60.07 6.53213 59.3848 6.44077 58.6996C6.76054 59.2478 7.30869 59.6589 7.90255 59.8873C6.53211 58.6996 5.66417 56.9637 5.57281 55.1365C5.29872 56.1415 5.39008 57.2378 5.84689 58.1971C5.25303 57.1464 4.93327 55.9587 4.79622 54.771C4.6135 55.2735 4.56782 55.776 4.65918 56.3242C4.52214 55.4562 4.29374 54.5426 4.1567 53.7203C3.51716 54.0858 3.42578 55.0908 3.42578 55.8217Z" fill="#D88C39"/>
<path d="M11.4667 11.2382C11.1926 11.1468 10.9642 11.0098 10.6901 10.9184C10.9642 10.9184 11.1926 10.9184 11.4667 10.9184C11.4211 10.9641 11.3754 10.8727 11.421 10.827C11.4667 10.7814 11.5124 10.7814 11.5581 10.7814C11.8778 10.7814 12.2433 10.7357 12.5631 10.7357C12.5631 10.2789 12.7001 9.82205 12.9285 9.4566C13.0199 9.59364 13.1569 9.73068 13.294 9.82205C13.3854 9.50228 13.5681 9.18251 13.8421 8.9541C14.436 9.63932 15.0756 10.4159 15.0299 11.3752C15.0299 11.7863 14.8471 12.1975 14.7101 12.6086C14.2533 13.6136 13.6138 14.5272 12.6544 15.0297C11.6951 15.5322 10.416 15.4409 9.73082 14.6186C9.36537 14.2075 8.72584 13.1568 9.13697 12.6543C9.63946 11.8777 10.7358 11.5579 11.4667 11.2382Z" fill="#FFB43B"/>
<path d="M5.66537 12.9738C6.21355 12.9738 6.80741 13.0195 7.35559 13.0195C6.53332 13.2022 5.80241 13.522 5.11719 13.9788C6.48763 13.6134 8.0408 13.8418 9.22851 14.664C8.54329 14.7097 7.90374 14.8011 7.21852 14.9838C7.9951 15.0295 8.81737 15.1208 9.59396 15.2579C8.68033 15.5776 7.81239 16.1258 7.03581 16.7654C8.13216 16.3542 9.36557 16.2172 10.5533 16.3999C10.3706 16.2629 10.1878 16.1258 10.0051 15.9888C10.1878 15.9431 10.3706 15.9431 10.5533 15.8974C10.3706 15.8061 10.1878 15.669 10.0051 15.5777C10.3249 15.4863 10.6446 15.3492 10.9187 15.2579C10.599 14.8011 10.0965 14.4356 9.54829 14.2986C10.1421 13.9788 10.8274 13.8418 11.5126 13.7961C10.736 13.2936 9.77669 13.2022 8.86307 13.1109C10.2792 12.7911 11.741 12.654 13.2028 12.6997C13.0201 12.6997 12.6546 12.38 12.4262 12.3343C12.1521 12.2429 11.8324 12.1972 11.5126 12.1516C10.873 12.1059 10.2335 12.1516 9.63966 12.1972C8.26921 12.1972 6.94445 12.517 5.66537 12.9738Z" fill="#EF9A1D"/>
<path d="M26.1758 37.0934C26.6783 36.5452 27.1351 35.9057 27.5462 35.3118C27.4092 35.6316 27.3635 35.9514 27.3635 36.2711C27.5462 35.9514 27.7289 35.6773 28.003 35.4489C28.0487 36.0884 27.9117 36.728 27.6833 37.3218C28.3228 36.8193 28.871 36.1798 29.3278 35.4946C30.7896 33.4389 31.9773 31.2005 33.1651 28.9621C33.5305 30.7894 33.3021 32.6623 33.0737 34.4896C34.3071 32.9364 35.2664 31.1548 35.9973 29.2819C35.9516 30.4239 35.9973 31.566 36.0887 32.6623C36.6369 31.7944 37.185 30.8807 37.7332 30.0128C38.3271 29.0535 38.9666 27.9571 38.6925 26.8151C38.5554 26.2669 38.1443 25.7187 37.5961 25.6731C37.185 25.6274 36.7739 25.8101 36.4084 26.0385C33.6219 27.5003 30.881 28.9621 28.0944 30.3782C27.0438 30.9264 26.2672 31.6573 26.5413 32.8907C26.861 34.3525 26.6783 35.7686 26.1758 37.0934Z" fill="#EF9A1D"/>
<path d="M9.95855 29.3272C9.22765 30.2865 9.1363 31.5656 9.22766 32.7533C9.27334 33.6669 9.50175 34.6719 10.2327 35.2201C10.187 34.4892 10.2326 33.8039 10.4154 33.073C10.7808 34.946 11.6031 36.7276 12.7908 38.235C12.6994 37.5041 12.7908 36.7275 13.0192 36.0423C13.2019 36.8646 13.5217 37.6869 13.9785 38.4178C15.5317 37.8239 16.7194 36.5448 17.4046 35.083C17.5874 34.6719 17.7701 34.2151 17.8158 33.7583C17.8614 33.2558 17.7244 32.7989 17.5873 32.3421C17.1305 30.9717 16.1712 29.784 14.9378 29.0531C13.7044 28.3222 12.2426 28.0024 10.8265 28.2308C10.187 28.3222 9.54742 28.5506 9.04492 28.916C9.13628 28.9617 9.18197 28.9617 9.27333 29.0074L9.95855 29.3272Z" fill="#EF9A1D"/>
<path d="M17.815 28.9169C22.7029 30.6527 28.1846 30.47 31.8848 26.8155C33.4837 25.2167 34.3516 21.7449 34.2146 19.5979C34.1232 17.7249 35.6307 23.161 35.8592 23.1153C35.9505 23.0696 36.0419 23.1153 36.1332 23.161C38.0975 23.7092 39.7421 25.2623 40.473 27.1353C40.1532 26.6328 39.7421 26.2216 39.2853 25.9476C39.5593 26.3587 39.7877 26.8155 40.0618 27.2266C40.1532 27.181 40.0618 26.9982 39.9248 27.0439C39.8334 27.0896 39.8334 27.2266 39.8334 27.3637C39.9248 28.6884 39.742 30.0132 39.4223 31.2923C38.4173 30.0589 37.0468 29.1453 35.5393 28.6884C35.6764 30.7898 35.311 32.9368 34.5344 34.9011C34.1232 33.8504 33.4837 32.8455 32.6157 32.0689C32.296 33.1195 32.2503 34.2616 32.4787 35.3579C32.1133 34.49 31.7478 33.6677 31.428 32.7998C31.1083 34.2616 30.8798 35.7234 30.7885 37.2309C29.6464 35.8147 28.8242 34.1245 28.4587 32.3886C26.7685 33.9418 25.8549 36.2259 25.0326 38.3729C24.4845 36.9111 24.2104 35.3122 24.2104 33.7591C23.114 34.627 22.2004 35.7234 21.4695 36.9111C21.6066 36.2259 21.7893 35.5407 21.9263 34.8554C21.6979 35.2666 21.4695 35.6777 21.1954 36.0888C21.2867 35.6777 21.3781 35.3122 21.5152 34.9011C19.3682 35.9975 17.8607 38.0075 16.3989 39.9718C16.0334 37.9161 15.9421 35.7691 16.1705 33.7134C15.2568 34.7641 14.7543 36.1802 14.7543 37.5506C14.4802 35.632 13.9777 33.7591 13.2468 31.9775C12.8357 33.3936 12.6987 34.8554 12.8814 36.3172C11.8307 34.7184 11.3282 32.7998 11.4196 30.9268C10.643 31.2923 9.95778 31.7948 9.36392 32.343C9.68369 31.7491 10.0491 31.2009 10.3689 30.6071C8.31326 30.3787 6.16624 30.7898 4.2933 31.7034C5.34397 30.2416 6.85144 29.191 8.58733 28.6428C7.81075 28.0489 4.70443 28.7341 3.74512 28.7341C4.70443 27.5464 6.53169 25.5364 9.08984 24.5314C8.72439 24.5771 8.40463 24.6228 8.03918 24.6228C8.13054 24.6228 8.77008 23.4808 8.95281 23.298C9.27258 22.9326 10.3689 20.8769 10.8257 20.7399C10.8714 21.1967 10.8714 26.4501 17.815 28.9169Z" fill="#D88C39"/>
<path d="M31.612 10.2783C32.3885 10.5067 33.1195 10.8721 33.8504 11.1919C33.3936 11.3746 33.0281 11.6944 32.754 12.1055C33.2565 11.8771 33.8503 11.7858 34.4442 11.7858C34.1701 12.1969 33.896 12.6537 33.622 13.0649C34.3985 12.8364 35.1751 12.5624 35.906 12.1969C35.906 13.613 35.906 15.0748 35.3578 16.3996C35.2665 16.628 35.1294 16.9021 34.901 17.0391C34.5812 17.2218 34.2158 17.0848 33.9417 16.8564C33.6676 16.628 33.5306 16.3082 33.3479 16.0341C32.9367 15.2119 32.4799 14.3896 32.0688 13.613C31.749 12.9735 31.3836 12.2883 30.9267 11.6944C30.4699 11.0549 29.8761 10.5981 29.2822 10.0499C29.9218 9.82147 30.9724 10.0956 31.612 10.2783Z" fill="#FFB43B"/>
<path d="M23.2514 13.6577C23.9823 12.9268 25.4898 12.6527 26.5405 12.607C27.5911 12.5613 28.322 12.6984 29.3727 12.8811C29.1443 12.5613 28.5961 11.7848 28.2307 11.7391C28.4591 11.6477 28.5961 11.4193 28.8702 11.3736C30.6975 10.5057 30.6061 9.77478 31.7938 9.59205C31.0172 9.18092 30.0579 9.18092 29.1899 9.36364C28.322 9.54637 27.4998 9.95751 26.7232 10.3686C27.4998 8.90684 28.5961 7.62775 29.8295 6.57708C28.7331 6.89685 27.7282 7.49071 26.9516 8.31298C27.0886 8.08457 27.2256 7.81048 27.3627 7.58207C26.7232 8.13025 26.175 8.76978 25.8096 9.50068C25.6725 9.08955 25.7639 8.67843 25.8552 8.26729C26.1293 7.30799 26.5404 6.39435 27.1343 5.61777C25.7182 6.7598 24.6675 8.35866 24.165 10.0945C23.9366 8.35866 23.6625 6.62277 23.4341 4.88687C23.3884 4.65847 23.2514 4.3387 23.023 4.43006C22.9316 4.47574 22.886 4.5671 22.8403 4.65847C22.2007 6.12027 21.8353 7.67343 21.7439 9.27228C21.2871 8.03888 21.4698 6.5314 20.6476 5.48073C20.6932 6.0289 20.7846 6.5314 20.9216 7.03389C19.6426 6.30299 18.0894 6.07458 16.6733 6.39435C18.0437 6.66844 19.2771 7.53639 20.008 8.72411C18.5462 8.54138 17.0387 8.40434 15.5769 8.26729C15.1201 8.22161 14.6633 8.17593 14.2522 8.40433C15.4399 8.58706 16.5362 9.27228 17.2671 10.2316C15.8967 9.77477 14.4806 9.36364 13.0645 9.54637C14.7547 10.0489 15.714 11.1909 17.0844 12.2416C17.1758 12.2872 18.0437 11.9675 20.4191 12.3329C21.4241 12.4243 22.4291 13.0638 23.2514 13.6577Z" fill="#FFB43B"/>
</svg>
