<svg width="56" height="68" viewBox="0 0 56 68" fill="none" xmlns="http://www.w3.org/2000/svg">
<path d="M44.8783 62.6342C44.8783 62.6342 39.21 58.9498 32.3514 59.0632C25.4928 59.1765 19.4844 62.3507 19.4844 62.3507C19.4844 62.3507 23.2821 66.3186 31.7279 66.2052C40.1736 66.0352 44.8783 62.6342 44.8783 62.6342Z" fill="#666464"/>
<path opacity="0.55" d="M30.4809 61.2174C31.7847 60.9906 31.5579 61.274 33.0317 61.2174C37.1128 61.1607 40.7405 62.5777 42.7244 63.5413C40.9673 64.4483 37.2829 65.9787 31.9547 66.0921C29.9708 66.1487 23.3956 64.505 21.9785 64.1649C23.5656 62.8045 30.4809 61.2174 30.4809 61.2174Z" fill="#666464"/>
<path d="M44.8787 62.6336L45.7289 64.6742C45.7289 64.6742 33.3154 72.1563 18.9746 64.6742L19.4848 62.2935C19.4848 62.2935 27.9872 66.3747 33.1453 65.8078C38.2468 65.2977 44.8787 62.6336 44.8787 62.6336Z" fill="#3D3D3D"/>
<path d="M30.1418 52.6007C30.1418 52.6007 32.2391 53.2809 34.6765 52.0905L33.8829 55.6048C33.5995 56.7385 33.7695 57.9288 34.2797 59.0058L36.0935 62.8036C36.0935 62.8036 31.6156 64.7308 28.498 62.8036L30.4253 59.0625C30.9921 57.9289 31.1621 56.7385 30.8787 55.4915C30.652 54.3578 30.3686 53.0541 30.1418 52.6007Z" fill="#3D3D3D"/>
<path d="M33.8259 56.0585C32.8623 56.0018 31.8987 55.8318 30.9351 55.605C30.9351 55.5484 30.9351 55.5484 30.9351 55.4917C30.6517 54.358 30.3683 53.0544 30.1982 52.5442C30.1982 52.5442 32.2955 53.2244 34.7329 52.0341L33.9393 55.5484C33.8259 55.7751 33.8259 55.9452 33.8259 56.0585Z" fill="#3D3D3D"/>
<path d="M22.659 0.96365L25.6065 0L27.8171 6.80194L24.3028 8.04901L23.2258 3.51438C19.3714 4.98813 -0.807706 12.3002 5.25736 34.7466C9.56526 50.6745 25.2097 51.5247 39.8906 49.9376L38.8136 45.3463L41.7611 44.156L44.2552 52.0349C30.5379 55.5492 5.88086 56.3995 0.836087 34.7466C-5.11561 9.52275 22.659 0.96365 22.659 0.96365Z" fill="#3D3D3D"/>
<path d="M23.8487 50.2211C20.221 50.0511 21.6381 51.1281 23.9054 52.0917C24.4155 52.3184 31.2741 53.8489 31.7276 54.0189C36.2055 53.7922 40.5701 52.9419 44.2545 52.035L41.7605 44.1561L38.813 45.3464L39.8899 49.9377C34.2216 50.5045 28.7234 50.9013 23.8487 50.2211Z" fill="#3D3D3D"/>
<path d="M41.5344 50.3349C40.9108 50.3349 40.344 50.2215 39.7772 49.8815C25.153 51.4686 9.56521 50.5617 5.25731 34.6905C-0.184241 14.6247 15.7436 6.80248 21.582 4.19507C17.104 5.89555 -1.71469 13.8878 3.67018 35.0872C8.54491 54.3594 29.1208 53.3958 41.591 50.3349C41.591 50.3349 41.591 50.3349 41.5344 50.3349Z" fill="#3D3D3D"/>
<path d="M55.9316 26.9236C54.8546 42.5114 44.8217 49.4267 31.1045 49.4267C17.3872 49.4267 6.2207 38.827 6.2207 26.9236C6.2207 15.0202 13.7029 4.36383 32.1815 4.36383C45.842 4.42051 56.7818 14.4533 55.9316 26.9236Z" fill="#34A5CF"/>
<path d="M9.67906 20.8584C9.33896 22.2755 9.33896 23.3525 8.60209 24.7696C7.92189 26.0166 7.58179 26.6401 7.63847 28.2272C7.63847 30.2111 7.01496 36.1628 10.5293 35.1992C13.4201 34.4623 11.833 30.6079 13.8736 28.9641C14.8372 28.1705 16.0842 28.5106 16.7077 27.2069C17.2746 26.0732 16.5377 24.8262 17.5013 23.7493C19.2018 21.8787 22.7161 22.6723 24.0198 20.405C21.9792 19.2146 19.5986 18.1376 20.7889 15.0768C21.2424 13.9431 22.6027 12.9795 22.6027 11.6191C22.6027 9.80526 21.299 11.109 20.1087 10.1454C19.1451 9.40849 20.1087 7.93474 19.2018 7.31123C18.8617 7.08449 18.4082 7.14118 17.8414 7.31123C13.987 9.18176 11.1528 11.9025 9.2256 15.0768C12.4565 14.6233 9.96247 19.6681 9.67906 20.8584Z" fill="#F67300"/>
<path d="M18.3516 29.2476C18.4082 29.2476 18.5216 29.1909 18.5783 29.1909C18.6917 29.0776 18.805 28.9075 18.9184 28.6808L18.3516 29.2476Z" fill="#FFC346"/>
<path d="M18.5784 29.1906C17.8416 29.8708 16.8213 29.1906 16.0277 29.8141C15.6876 30.0975 15.2908 32.705 15.5742 33.1584C16.5945 34.6889 18.9752 30.2676 19.0319 29.2473C18.8619 29.1339 18.7485 29.1339 18.5784 29.1906Z" fill="#78A941"/>
<path d="M46.9196 42.0577L48.0532 41.7176C46.2394 41.5475 45.7292 42.5679 44.3122 43.1914C43.0084 43.7582 41.4213 43.3614 40.0609 43.9849C37.9637 44.8918 34.506 48.6896 39.0973 47.7827C39.6641 47.6693 40.3443 47.2158 40.8545 47.5559C40.9679 47.6126 41.0245 47.6693 41.0812 47.7827C43.8587 46.8191 46.3527 45.402 48.45 43.5881C48.3366 42.7946 47.9399 42.2278 46.9196 42.0577Z" fill="#FF3612"/>
<path d="M50.207 42.1142C50.5471 42.0009 50.8305 41.6608 50.9439 41.2073C50.7172 41.4908 50.4904 41.8308 50.207 42.1142Z" fill="#FFC346"/>
<path d="M49.9245 38.4862C49.131 39.6199 50.2646 40.8102 50.2646 42.0573C50.548 41.7739 50.7748 41.4904 51.0015 41.1503C51.3983 40.0733 51.0582 38.3162 49.9245 38.4862Z" fill="#78A941"/>
<path d="M47.4302 34.9159C46.6366 35.5394 45.4463 35.1993 44.7094 35.8228C43.9725 36.4464 44.0859 37.6934 45.1629 38.0902C46.8067 38.7703 46.75 37.1265 47.2034 36.2196C47.4302 35.8228 48.2237 35.3693 48.2237 34.9159C48.167 34.1223 47.7703 34.6324 47.4302 34.9159Z" fill="#78A941"/>
<path d="M40.2314 32.9886C40.4015 33.2154 40.5149 32.5919 40.6282 32.7052C40.1748 33.6121 40.9116 34.6324 40.9116 35.596C40.9116 36.1062 40.5149 38.8269 41.8186 37.0698C42.4988 36.1628 41.5352 31.2315 40.2314 32.9886Z" fill="#78A941"/>
<path d="M49.1875 31.4014L49.3009 30.8346C49.2442 30.8346 49.2442 30.8346 49.1875 30.8913C49.1875 31.0613 49.1875 31.2314 49.1875 31.4014Z" fill="#FFC346"/>
<path d="M50.3207 30.7213C49.9806 30.6646 49.6405 30.6646 49.3571 30.8346C49.4704 32.6485 48.11 33.272 49.4137 35.0292C49.9806 34.4623 49.9806 33.8388 50.0939 33.0453C50.1506 32.8185 49.9806 32.3084 49.9806 32.025C49.9806 31.5148 50.434 31.2881 50.3207 30.7213Z" fill="#78A941"/>
<path d="M49.2998 30.8351C49.2998 30.8351 49.3565 30.8351 49.2998 30.8351C49.3565 30.7784 49.3565 30.7217 49.2998 30.7217V30.8351Z" fill="#FFC346"/>
<path d="M28.3849 16.6071C27.8747 15.8702 27.818 16.0402 27.648 15.02C27.478 13.8863 27.8747 12.866 27.2512 11.9591C26.9678 11.5623 26.4577 11.0521 25.8908 10.8254C25.5507 10.6554 25.2106 10.6554 24.9272 10.8254C24.0203 10.8254 23.0567 10.8822 22.6599 11.7324C22.3198 12.4126 22.4898 14.1697 22.3198 15.0766C21.6396 18.5343 23.7936 18.5343 26.6277 18.5343C27.5913 18.5343 29.3485 18.9878 29.2351 17.6841C29.1784 17.2306 28.6116 16.9472 28.3849 16.6071Z" fill="#FFC346"/>
<path d="M44.9365 7.65088C45.56 7.99098 46.1835 8.38774 46.8071 8.84121C46.1835 8.27438 45.56 7.82093 44.9365 7.65088Z" fill="#FFC346"/>
<path d="M43.2913 7.9913C41.6475 9.35169 43.6881 9.74847 43.4047 10.8254C43.2346 11.449 42.4411 11.2789 41.9309 11.3923C42.0443 11.3923 40.1171 11.6191 40.4005 11.7324C40.3438 11.7891 40.3438 11.8458 40.2304 11.8458C40.1171 10.4854 38.8134 9.18168 37.5097 10.0886C36.2626 8.7849 38.3032 7.82127 38.4733 6.51756C37.7364 6.46088 36.8295 6.34751 36.2059 6.80098C35.4124 7.42449 35.8092 8.16136 34.7322 8.50146C34.5622 8.55814 34.052 8.10468 33.7119 8.21805C33.2018 8.44478 33.2018 8.95491 32.8617 9.40837C32.4082 10.0319 32.0114 11.0522 31.3879 11.5624C30.7077 12.1292 30.3109 12.696 29.9142 11.5624C29.4607 10.3153 30.7644 10.372 30.9344 9.40837C31.2179 8.04799 28.2137 7.31115 28.4404 9.52178C27.3634 9.57846 26.5699 8.50149 25.2662 8.67154C23.5657 8.84159 24.0758 9.35173 25.5496 9.8052C28.4971 10.7688 28.2137 11.9592 28.8939 14.5666C29.6307 17.4007 32.6916 16.097 32.7483 18.9311C32.805 20.3482 33.2018 20.745 33.7119 21.992C34.2787 23.3524 33.7686 23.9192 33.4285 25.1662C33.2018 26.0732 32.6349 27.6036 33.7119 27.7736C34.8456 27.2068 35.6958 27.0368 36.3193 25.7331C36.6027 25.1096 36.2059 24.8261 36.8861 24.3727C37.453 23.9759 38.1898 24.486 38.7567 24.4293C39.8336 24.316 40.7973 23.409 41.8176 24.1459C43.2346 25.1662 42.0443 26.3566 42.271 27.4902C42.4977 28.6239 44.0282 28.9073 44.3116 29.9276C44.595 31.0046 42.7245 31.5147 42.9512 32.5917C43.4614 34.6889 44.3116 31.5714 44.5383 31.4014C44.8784 31.0613 45.7854 31.4014 46.0121 31.0613C46.2388 30.7779 46.1821 29.7009 46.1254 29.3041C46.0121 28.1705 45.3886 27.4335 46.8623 26.9801C47.8826 26.6966 49.243 27.7736 50.2066 27.2635C51.7371 26.4699 49.9799 25.9031 49.8098 25.0529C49.5831 23.9759 50.8301 23.1823 50.3767 22.0487C52.0205 21.1418 51.9638 23.8059 51.9638 24.7695C53.4375 24.7695 52.0772 22.5021 51.9071 21.7653C51.6804 20.5182 52.3606 19.6113 52.1905 18.421C51.9071 16.1536 50.6601 12.8094 49.0163 11.2789C48.3928 10.7121 47.5425 9.63511 46.6356 8.84155C46.0121 8.44477 45.3886 8.048 44.7651 7.65122C44.3683 7.53785 43.8014 7.59452 43.2913 7.9913Z" fill="#F2CD30"/>
<path d="M24.247 5.83742C24.6438 6.5743 23.5101 7.65123 24.5871 7.99133C25.2106 8.16138 25.2673 7.42453 25.7774 7.31116C26.2309 7.1978 26.4576 7.25449 26.9111 7.25449C27.7046 7.25449 28.4415 7.82128 28.9517 6.85767C28.8383 6.80099 28.7249 6.63095 28.4982 6.51759C28.5549 5.83739 28.895 5.61066 28.4982 5.10052C28.3848 4.93047 28.2148 4.76046 28.0447 4.64709C26.2876 4.81714 24.5871 5.1005 23.0566 5.4406C23.5668 5.38392 23.9636 5.32728 24.247 5.83742Z" fill="#FFC346"/>
<path opacity="0.55" d="M47.4853 21.7647C44.3111 28.68 38.5294 30.1538 32.2376 27.7731C25.9458 25.3924 22.6582 18.5905 24.7555 13.149C26.7961 7.7074 32.0676 4.13635 40.5133 7.31059C46.7484 9.69127 50.036 16.2098 47.4853 21.7647Z" fill="#80BFEA"/>
<path opacity="0.55" d="M42.1576 16.4374C41.0239 18.8181 38.6999 19.1582 36.0359 18.1379C33.3718 17.1176 31.898 14.6802 32.5782 12.8097C33.2584 10.9391 35.3557 9.80553 38.87 11.1659C41.5908 12.1862 43.0645 14.5669 42.1576 16.4374Z" fill="#CCE5F6"/>
<path opacity="0.35" d="M37.6799 41.3779C24.5861 41.3779 13.9864 31.2884 13.9864 19.9519C13.9864 16.2108 14.78 12.5264 16.4805 9.35211C10.0753 13.3199 7.29785 19.9519 7.29785 27.0372C7.29785 38.3738 17.8976 48.4633 30.9913 48.4633C40.2873 48.4633 47.7694 45.119 51.7372 37.8636C47.8828 40.2443 43.1214 41.3779 37.6799 41.3779Z" fill="url(#paint0_radial_31_5289)"/>
<defs>
<radialGradient id="paint0_radial_31_5289" cx="0" cy="0" r="1" gradientUnits="userSpaceOnUse" gradientTransform="translate(31.8675 23.8412) scale(29.7176)">
<stop stop-color="#81A6B5"/>
<stop offset="0.0923105" stop-color="#769DB2"/>
<stop offset="0.7119" stop-color="#2E66A2"/>
<stop offset="1" stop-color="#12509B"/>
</radialGradient>
</defs>
</svg>
