<svg width="152" height="197" viewBox="0 0 152 197" fill="none" xmlns="http://www.w3.org/2000/svg">
<path d="M59.5907 158.9H98.2906C106.391 158.9 112.991 152.3 112.991 144.2V121.9C112.991 113.8 106.391 107.2 98.2906 107.2H59.5907C51.4907 107.2 44.8906 113.8 44.8906 121.9V144.2C44.8906 152.3 51.4907 158.9 59.5907 158.9Z" fill="#C32F43"/>
<path d="M39.3907 131.7C53.9907 131.7 66.5907 122.4 67.1907 121.9C69.8907 119.9 70.4907 116 68.3907 113.3C66.3907 110.6 62.4907 110 59.7907 112.1C59.5907 112.3 47.1907 121.3 35.5907 119C30.0907 117.9 25.5907 114.4 21.7907 108.3C19.9907 105.4 16.1907 104.5 13.3907 106.3C10.4907 108.1 9.59066 111.9 11.3907 114.7C16.9907 123.8 24.3907 129.3 33.3907 131.1C35.3907 131.5 37.3907 131.7 39.3907 131.7Z" fill="#DDEEFD"/>
<path d="M119.29 64.9001C137.019 64.9001 151.39 51.2896 151.39 34.5001C151.39 17.7106 137.019 4.1001 119.29 4.1001C101.562 4.1001 87.1904 17.7106 87.1904 34.5001C87.1904 51.2896 101.562 64.9001 119.29 64.9001Z" fill="#B12819"/>
<path d="M37.2904 60.8C55.0187 60.8 69.3904 47.1895 69.3904 30.4C69.3904 13.6105 55.0187 0 37.2904 0C19.5621 0 5.19043 13.6105 5.19043 30.4C5.19043 47.1895 19.5621 60.8 37.2904 60.8Z" fill="#B12819"/>
<path d="M53.1904 120.2V153C53.1904 155.3 54.0904 157.5 55.6904 159.4C59.2904 163.6 66.2904 166.5 74.3904 166.5H78.1904C86.7904 166.5 94.1905 163.2 97.4905 158.5C98.6905 156.8 99.2904 155 99.2904 153V120.2C99.2904 112.8 89.7905 106.7 78.0905 106.7H74.2904C62.7904 106.7 53.1904 112.8 53.1904 120.2Z" fill="#DDEEFD"/>
<path d="M89.5909 182.7L83.6909 166.8C82.1909 166.9 71.4909 166.9 70.1909 166.8L64.2909 182.7L56.1909 181.3C50.8909 161.7 55.3908 154.6 55.3908 154.6H98.2909C98.2909 154.6 102.791 161.7 97.4909 181.3L89.5909 182.7Z" fill="#FFC8AF"/>
<path d="M98.9911 175.5C98.5911 177.3 97.5911 182.6 96.9911 184.7L89.791 184.9L86.791 175.5H98.9911Z" fill="#DDEEFD"/>
<path d="M54.9902 175.5H67.0902L63.9902 186.4L57.1902 186.1C56.5902 184 55.2902 177.3 54.9902 175.5Z" fill="#DDEEFD"/>
<path d="M76.9902 102.3V111.5L85.6902 108.1C85.6902 108.1 81.3901 106.8 82.3901 102L76.9902 102.3Z" fill="#FF9D80"/>
<path d="M77.2908 102.3V111.5L68.5908 108.1C68.5908 108.1 72.8907 106.8 71.8907 102L77.2908 102.3Z" fill="#FF9D80"/>
<path d="M116.391 82.6999C121.637 82.6999 125.891 78.4467 125.891 73.1999C125.891 67.9532 121.637 63.7 116.391 63.7C111.144 63.7 106.891 67.9532 106.891 73.1999C106.891 78.4467 111.144 82.6999 116.391 82.6999Z" fill="#FF9D80"/>
<path d="M36.1904 82.6999C41.4371 82.6999 45.6904 78.4467 45.6904 73.1999C45.6904 67.9532 41.4371 63.7 36.1904 63.7C30.9437 63.7 26.6904 67.9532 26.6904 73.1999C26.6904 78.4467 30.9437 82.6999 36.1904 82.6999Z" fill="#FF9D80"/>
<path d="M47.8904 40.8999V46.2999H108.59C111.89 51.7999 113.79 58.0999 113.79 64.8999V80.9999C113.79 93.4999 103.49 103.8 90.9905 103.8H59.4905C48.0905 103.8 38.6904 94.4999 38.6904 82.9999V64.8999C38.6904 55.6999 42.0904 47.2999 47.8904 40.8999Z" fill="#FFC8AF"/>
<path opacity="0.51" d="M100.59 91.5998C104.125 91.5998 106.99 88.7344 106.99 85.1998C106.99 81.6652 104.125 78.7998 100.59 78.7998C97.0558 78.7998 94.1904 81.6652 94.1904 85.1998C94.1904 88.7344 97.0558 91.5998 100.59 91.5998Z" fill="#FF9D80"/>
<path opacity="0.51" d="M53.4908 91.5998C57.0255 91.5998 59.8907 88.7344 59.8907 85.1998C59.8907 81.6652 57.0255 78.7998 53.4908 78.7998C49.9562 78.7998 47.0908 81.6652 47.0908 85.1998C47.0908 88.7344 49.9562 91.5998 53.4908 91.5998Z" fill="#FF9D80"/>
<path d="M80.4902 84.2998C78.9902 88.5998 73.1902 88.8998 70.9902 84.9998" stroke="#3F2732" stroke-miterlimit="10" stroke-linecap="round" stroke-linejoin="round"/>
<path d="M88.7902 79.3C90.3366 79.3 91.5902 78.0464 91.5902 76.5C91.5902 74.9536 90.3366 73.7 88.7902 73.7C87.2438 73.7 85.9902 74.9536 85.9902 76.5C85.9902 78.0464 87.2438 79.3 88.7902 79.3Z" fill="#3F2732"/>
<path d="M61.9905 79.3C63.5369 79.3 64.7904 78.0464 64.7904 76.5C64.7904 74.9536 63.5369 73.7 61.9905 73.7C60.4441 73.7 59.1904 74.9536 59.1904 76.5C59.1904 78.0464 60.4441 79.3 61.9905 79.3Z" fill="#3F2732"/>
<path d="M113.891 47.1999C116.791 51.0999 118.091 55.8999 116.291 60.6999C114.591 64.9999 109.991 67.8999 105.691 66.9999C103.191 66.4999 100.891 64.7999 98.391 64.1999C95.391 63.3999 92.1911 63.9999 89.1911 63.2999C85.5911 62.4999 82.4911 59.5999 81.1911 55.9999C79.8911 58.3999 77.2911 59.7999 74.6911 59.7999C72.0911 59.8999 69.591 58.7999 67.391 57.1999C66.291 60.4999 63.7911 62.9999 61.0911 64.7999C56.9911 67.5999 52.191 69.3999 47.291 69.7999C43.391 70.0999 39.1911 69.4999 36.4911 66.4999C33.0911 62.6999 33.3911 56.6999 34.6911 51.5999C35.9911 46.2999 38.4911 40.7999 43.1911 38.4999C47.2911 36.4999 52.1911 37.5999 56.5911 38.6999C63.1911 40.3999 69.991 42.1999 76.791 41.8999C81.191 41.6999 85.5911 40.5999 89.9911 39.8999C94.3911 39.0999 98.891 38.6999 103.291 39.6999C107.091 40.7999 111.191 43.5999 113.891 47.1999Z" fill="#D6402E"/>
<path d="M76.8904 71L77.1904 76.8L72.6904 75L75.3904 80.4" stroke="#D6402E" stroke-miterlimit="10" stroke-linecap="round" stroke-linejoin="round"/>
<path d="M99.4902 38.5999C99.4902 38.5999 108.59 37.3999 113.89 47.1999" stroke="#F99621" stroke-width="6.3437" stroke-miterlimit="10" stroke-linecap="round" stroke-linejoin="round"/>
<path d="M50.3901 36.2C50.3901 36.2 41.2902 35 35.9902 44.8" stroke="#F99621" stroke-width="6.3437" stroke-miterlimit="10" stroke-linecap="round" stroke-linejoin="round"/>
<path d="M18.6907 95.8C14.9907 95.2 17.3907 101.7 17.6907 104.2C16.5907 104.3 15.7907 103.1 15.3907 102C14.5907 100.1 13.7907 98.3 12.8907 96.4C12.2907 95.1 11.1908 93.6 9.99077 94.1C8.99077 94.5 8.79068 95.7 8.89068 96.8C8.99068 98 9.19075 99.3 9.59075 100.5C8.69075 99.6 7.79068 98.7 6.89068 97.8C5.99068 96.9 4.69075 95.9 3.59075 96.5C2.89075 96.9 2.69068 97.9 2.89068 98.7C3.09068 99.5 3.59075 100.2 4.09075 100.8C5.09075 102.1 6.09075 103.4 7.59075 104.2C6.19075 103.2 4.59068 102.4 2.89068 101.8C1.99068 101.5 0.8907 101.3 0.2907 102C-0.5093 103 0.490773 104.4 1.49077 105.1C2.89077 106.2 4.39077 107.1 5.99077 107.8C5.09077 107.2 3.99068 106.9 2.89068 107.1C2.59068 107.1 2.29075 107.2 2.09075 107.4C1.29075 108 2.0907 109.3 2.7907 110C4.7907 111.9 6.89077 113.8 9.49077 114.8C13.9908 116.6 18.4907 114.6 20.2907 110.3C21.1907 108.2 21.5907 105.9 21.3907 103.6C20.9907 97.3 18.6907 95.8 18.6907 95.8Z" fill="#FFC8AF"/>
<path d="M53.6904 140.7H100.19L106.29 172.4L44.1904 172.1L53.6904 140.7Z" fill="#512C3F"/>
<path d="M82.5906 141.9L85.9906 156.1C87.0906 160.8 91.6905 163.7 96.3905 162.9L126.791 157.4C131.691 156.5 134.991 151.8 134.091 146.8L131.491 132.7C130.591 127.8 125.891 124.6 120.991 125.4L102.091 128.7L92.9906 130.3L89.7905 130.9C84.6905 131.7 81.3906 136.8 82.5906 141.9Z" fill="#F39D22"/>
<path d="M124.09 134.3L116.79 143C114.09 146.3 109.59 147.6 105.59 146.4L90.4902 142" stroke="#F67300" stroke-width="2.3789" stroke-miterlimit="10" stroke-linecap="round" stroke-linejoin="round"/>
<path d="M114.49 152.7C117.39 152.7 119.89 150.7 120.49 147.7C122.59 137.3 120.89 128.4 115.59 121.5C106.39 109.5 89.6902 108.2 88.9902 108.1C85.5902 107.9 82.6901 110.4 82.3901 113.8C82.1901 117.2 84.6902 120.1 88.0902 120.4C88.2902 120.4 100.09 121.5 105.89 129C108.99 133.1 109.89 138.5 108.49 145.4C107.79 148.7 109.99 152 113.29 152.6C113.69 152.7 114.09 152.7 114.49 152.7Z" fill="#DDEEFD"/>
<path d="M118.591 151.1L108.491 145.4C108.491 145.4 99.4906 152.1 105.891 158.9C105.891 158.9 107.691 164.8 114.491 164.4C121.291 163.9 123.191 155.2 118.591 151.1Z" fill="#FFC8AF"/>
<path d="M90.5908 107.4C90.4908 111.4 87.1908 114.7 83.0908 114.7C78.9908 114.7 75.6908 111.5 75.5908 107.4H90.5908Z" fill="#B1DBFC"/>
<path d="M78.6904 107.4C78.5904 111.4 75.2904 114.7 71.1904 114.7C67.0904 114.7 63.7904 111.5 63.6904 107.4H78.6904Z" fill="#B1DBFC"/>
<path d="M79.6908 111.4L89.6908 123.2C90.1908 123.8 90.0909 124.7 89.4909 125.2L83.0908 130.7C82.2908 131.4 80.9908 131 80.7908 129.9L77.1908 112.6C77.0908 112 77.3909 111.3 77.9909 111C78.5909 110.8 79.2908 111 79.6908 111.4Z" fill="#3F2732"/>
<path d="M74.7908 111.4L64.7908 123.2C64.2908 123.8 64.3909 124.7 64.9909 125.2L71.3908 130.7C72.1908 131.4 73.4908 131 73.6908 129.9L77.2908 112.6C77.3908 112 77.0909 111.3 76.4909 111C75.8909 110.8 75.1908 111 74.7908 111.4Z" fill="#3F2732"/>
<path d="M77.1907 135.7C78.1907 135.7 78.9907 134.9 78.9907 133.9V120C78.9907 119 78.1907 118.2 77.1907 118.2C76.1907 118.2 75.3906 119 75.3906 120V133.9C75.3906 134.8 76.1907 135.7 77.1907 135.7Z" fill="#3F2732"/>
<path d="M77.2904 120.2C78.6904 120.2 79.8904 119 79.8904 117.6V111.9C79.8904 110.5 78.6904 109.3 77.2904 109.3C75.8904 109.3 74.6904 110.5 74.6904 111.9V117.6C74.6904 119 75.7904 120.2 77.2904 120.2Z" fill="#5B394A"/>
<path d="M64.491 185L65.1909 191.4C65.4909 193.9 63.8909 196.1 61.6909 196.1L49.6909 196C48.2909 196 47.6909 194 48.6909 193L56.991 185H64.491Z" fill="#3F2732"/>
<path d="M59.1912 191.5C60.0912 191.5 60.8911 190.7 60.8911 189.8V185C60.8911 184.1 60.0912 183.3 59.1912 183.3C58.2912 183.3 57.4912 184.1 57.4912 185V189.9C57.4912 190.8 58.2912 191.5 59.1912 191.5Z" fill="#DDEEFD"/>
<path d="M64.1912 184.8H56.4912V187.4H64.1912V184.8Z" fill="#3F2732"/>
<path d="M89.1912 185L88.4913 191.4C88.1913 193.9 89.7913 196.1 91.9913 196.1L103.991 196C105.391 196 105.991 194 104.991 193L96.6912 185H89.1912Z" fill="#3F2732"/>
<path d="M94.4911 191.5C93.5911 191.5 92.791 190.7 92.791 189.8V185C92.791 184.1 93.5911 183.3 94.4911 183.3C95.3911 183.3 96.191 184.1 96.191 185V189.9C96.191 190.8 95.3911 191.5 94.4911 191.5Z" fill="#DDEEFD"/>
<path d="M97.0907 184.8H89.3906V187.4H97.0907V184.8Z" fill="#3F2732"/>
<path d="M67.1904 151.6C67.1904 151.6 70.7905 158 83.5905 163" stroke="#84446A" stroke-width="3.9648" stroke-miterlimit="10" stroke-linecap="round" stroke-linejoin="round"/>
<path d="M55.2904 136.6C57.7904 136.6 59.8904 134.6 59.8904 132V114.7C59.8904 112.2 57.8904 110.1 55.2904 110.1C52.7904 110.1 50.6904 112.1 50.6904 114.7V132C50.7904 134.5 52.7904 136.6 55.2904 136.6Z" fill="#DD5465"/>
<path d="M93.0908 112.9V130.3L102.191 128.7V112.9C102.191 110.4 100.191 108.4 97.5908 108.4C96.3908 108.4 95.1907 108.9 94.3907 109.7C93.5907 110.5 93.0908 111.6 93.0908 112.9Z" fill="#DD5465"/>
</svg>
