<svg width="147" height="141" viewBox="0 0 147 141" fill="none" xmlns="http://www.w3.org/2000/svg">
<path d="M49.29 127.195C49.29 127.195 67.2471 116.421 97.3725 125.555C97.3725 125.555 91.1111 133.519 72.3271 133.519C53.543 133.519 49.29 127.195 49.29 127.195Z" fill="#CCCCCC"/>
<path d="M49.29 127.195C49.29 127.195 67.2471 116.421 97.3725 125.555C97.3725 125.555 91.1111 133.519 72.3271 133.519C53.543 133.519 49.29 127.195 49.29 127.195Z" fill="#CCCCCC"/>
<path opacity="0.42" d="M61.5765 124.384C62.049 123.916 62.5216 123.33 62.9941 122.745C54.1337 124.267 49.29 127.078 49.29 127.078C49.29 127.078 50.7077 129.186 55.4332 130.942C57.4416 128.717 59.6862 126.609 61.5765 124.384Z" fill="#BEBEBE"/>
<path opacity="0.42" d="M92.7641 124.267C91.5823 126.375 90.2824 128.6 89.1006 130.708C95.1276 128.365 97.4912 125.438 97.4912 125.438C95.8367 125.086 94.3004 124.618 92.7641 124.267Z" fill="#BEBEBE"/>
<path d="M49.2889 127.195L48.5801 133.519C48.5801 133.519 58.3856 140.779 73.5073 140.779C88.6291 140.779 98.0802 133.167 98.0802 133.167L97.6076 125.555C97.6076 125.555 86.3844 133.167 73.5073 133.167C60.6302 133.167 49.2889 127.195 49.2889 127.195Z" fill="#CCCCCC"/>
<path opacity="0.42" d="M89.8091 129.536C86.8556 130.825 83.1933 131.996 79.1766 132.581C78.9404 135.158 78.8222 137.734 78.5859 140.427C83.6659 139.842 87.9189 138.437 91.1086 137.031C90.7542 134.572 90.2817 132.113 89.8091 129.536Z" fill="#E0E0E0"/>
<path opacity="0.55" d="M65.2375 132.347C60.7483 131.528 56.7316 130.239 53.8962 129.068C53.5418 131.293 53.1874 133.636 52.7148 135.861C55.432 137.266 59.5669 138.905 64.6468 139.842C64.765 137.383 65.0013 134.924 65.2375 132.347Z" fill="#757575"/>
<path d="M69.844 111.62C69.844 111.62 67.5994 121.34 62.0469 126.844C62.0469 126.844 71.8524 134.807 84.7295 126.844C84.7295 126.844 77.7593 120.52 76.6961 111.62H69.844Z" fill="#9B9B9B"/>
<path opacity="0.35" d="M73.2711 119.583C75.0432 119.349 76.8153 118.763 78.5874 118.178C77.7604 116.187 77.0516 114.079 76.6972 111.62H69.727C69.727 111.62 68.9 115.016 67.1279 118.88C69.3726 119.466 71.4991 119.817 73.2711 119.583Z" fill="#737373"/>
<path opacity="0.55" d="M72.2104 111.62H71.8559C70.6741 122.862 67.7197 129.654 67.7197 129.654C69.3742 130.123 71.3832 130.474 73.6286 130.357C73.7467 130.357 71.9741 126.375 72.2104 111.62Z" fill="#505050"/>
<path d="M73.3889 115.015C77.8909 115.015 81.5404 113.232 81.5404 111.033C81.5404 108.834 77.8909 107.052 73.3889 107.052C68.8869 107.052 65.2373 108.834 65.2373 111.033C65.2373 113.232 68.8869 115.015 73.3889 115.015Z" fill="#9B9B9B"/>
<path d="M78.3507 107.871C79.4139 108.808 79.4139 110.682 72.9163 110.799C72.3256 110.799 65.828 110.448 68.0726 107.988C66.3005 108.691 65.2373 109.745 65.2373 111.033C65.2373 113.258 68.8996 115.015 73.3889 115.015C77.8781 115.015 81.5404 113.258 81.5404 111.033C81.5404 109.745 80.2409 108.574 78.3507 107.871Z" fill="#CCCCCC"/>
<path d="M82.3681 73.091C79.2965 74.7305 75.6342 74.9647 72.2082 74.8476C69.1366 74.7305 66.6557 74.2621 63.9385 73.3252C65.7106 78.2438 70.4361 93.8192 70.4361 109.16C73.6258 111.268 76.2249 109.16 76.2249 109.16C76.2249 109.16 75.6342 89.8375 82.9588 72.9739C82.8406 73.091 82.7225 73.091 82.3681 73.091Z" fill="#9B9B9B"/>
<path opacity="0.55" d="M72.2104 74.8473C70.7923 74.8473 69.4923 74.6131 68.1924 74.3789C68.9014 77.3066 72.3286 107.169 71.974 109.863C72.2104 109.98 72.4467 109.98 72.6831 109.98C72.6831 110.097 73.3922 74.8473 72.2104 74.8473Z" fill="#505050"/>
<path d="M108.475 21.563C108.475 21.563 127.141 2.24011 138.482 8.91528C153.368 17.6984 147.343 40.0661 127.377 51.5427C110.956 61.0285 104.458 60.0916 103.75 65.0101C103.041 70.0458 109.184 67.8207 108.003 65.7128C108.003 65.7128 105.285 66.6497 105.64 64.1904C105.994 61.614 114.146 60.2087 113.201 69.5774C112.846 73.2077 107.176 77.1894 101.505 73.9104C98.0789 71.9195 97.2519 66.5325 99.2603 62.1995C105.758 48.7321 118.162 53.1822 128.559 37.841C139.782 21.3288 129.622 16.9958 125.133 18.6353C120.407 20.3919 114.5 24.842 107.648 31.8685L108.475 21.563Z" fill="#CCCCCC"/>
<path opacity="0.55" d="M119.699 12.4282C113.319 16.527 108.475 21.5627 108.475 21.5627L107.648 31.8682C110.72 28.7063 113.674 26.1299 116.273 24.0219C116.981 20.0403 118.163 16.1757 119.699 12.4282Z" fill="#757575"/>
<path opacity="0.55" d="M101.861 65.596C102.097 59.1551 107.177 54.4707 108.004 53.0654C104.578 55.0563 101.625 57.5155 99.38 62.317C97.2535 66.65 98.1986 72.037 101.625 74.0278C103.16 74.9647 104.696 75.316 106.114 75.1989C104.106 72.5054 101.743 69.3435 101.861 65.596Z" fill="#757575"/>
<path opacity="0.55" d="M129.505 39.0121C140.02 23.5538 133.64 17.5813 128.442 17.23C127.851 17.23 127.261 17.3471 126.67 17.5813C125.843 17.8155 125.134 18.284 124.189 18.6353C124.189 18.6353 124.189 18.6353 124.307 18.6353C125.016 18.4011 125.843 18.284 126.788 18.284C131.632 17.9326 138.838 22.9683 128.678 37.841C118.4 53.0651 106.114 48.8492 99.6162 61.8482C107.177 52.0111 119.109 54.1191 129.505 39.0121Z" fill="#535353"/>
<path opacity="0.42" d="M134.82 23.0857C137.655 20.9777 140.49 18.7527 143.089 16.4105C142.026 14.5368 140.608 12.8972 138.718 11.4919C136.355 13.5999 134.111 15.9421 131.866 18.2842C133.284 19.5724 134.229 21.2119 134.82 23.0857Z" fill="#BEBEBE"/>
<path opacity="0.42" d="M142.262 29.4093C139.309 31.0488 136.237 32.5712 133.166 34.2107C131.275 37.3726 128.913 40.4175 126.313 43.1109C131.748 42.4083 136.237 40.1832 141.081 37.2555C142.971 34.2107 144.152 31.1659 144.743 28.1211C143.916 28.4724 143.089 28.9409 142.262 29.4093Z" fill="#BEBEBE"/>
<path opacity="0.42" d="M118.398 49.5519C114.854 51.777 111.31 53.2994 107.884 55.2902C110.483 55.1731 112.846 55.6416 115.445 56.2271C118.516 54.9389 122.297 53.0652 127.022 50.3717C127.495 50.1375 127.967 49.7861 128.44 49.4348C127.731 49.5519 127.14 49.669 126.432 49.669C123.832 49.9032 121.115 49.7861 118.398 49.5519Z" fill="#BEBEBE"/>
<path d="M38.3016 21.563C38.3016 21.563 19.6357 2.24011 8.29443 8.91528C-6.59103 17.6984 -0.565964 40.0661 19.3995 51.6598C35.8207 61.1456 42.3183 60.2087 43.0272 65.1272C43.736 70.1629 37.5928 67.9378 38.7742 65.8299C38.7742 65.8299 41.4914 66.7668 41.137 64.3075C40.7825 61.7311 32.631 60.3258 33.5761 69.6945C33.9305 73.3248 39.6012 77.3065 45.2718 74.0275C48.6978 72.0366 49.5248 66.6496 47.5164 62.3166C41.0188 48.8492 28.6143 53.2993 18.2181 37.9581C6.87677 21.3288 17.0367 16.9957 21.526 18.6353C26.2515 20.3919 32.1584 24.842 39.0105 31.8685L38.3016 21.563Z" fill="#CCCCCC"/>
<path opacity="0.55" d="M30.9786 19.8062C30.9786 21.4457 31.0968 23.0852 31.2149 24.7247C33.6966 26.7155 36.2965 29.0577 39.0146 31.8683L38.3055 21.5628C38.3055 21.5628 34.9966 18.1666 30.3877 14.7705C30.8604 16.2929 31.0968 18.0495 30.9786 19.8062Z" fill="#757575"/>
<path opacity="0.55" d="M47.4011 62.1999C45.6285 58.3354 43.2649 55.9932 40.665 54.2366C41.8468 55.9932 42.7922 57.984 43.3831 60.092C44.8012 65.5961 43.974 70.7488 40.665 75.199C42.0832 75.199 43.7376 74.8476 45.2739 74.0279C48.5829 72.037 49.5283 66.5329 47.4011 62.1999Z" fill="#757575"/>
<path opacity="0.55" d="M17.2743 39.0121C6.75996 23.5538 13.1394 17.5813 18.3375 17.23C18.9282 17.23 19.5189 17.3471 20.1096 17.5813C20.9366 17.8155 21.6454 18.284 22.5905 18.6353C22.5905 18.6353 22.5905 18.6353 22.4724 18.6353C21.7636 18.4011 20.9366 18.284 19.9915 18.284C15.1478 17.9326 7.94134 22.9683 18.1013 37.841C28.3793 53.0651 40.6657 48.8492 47.1634 61.8482C39.6025 52.0111 27.5524 54.1191 17.2743 39.0121Z" fill="#535353"/>
<path opacity="0.42" d="M11.9553 23.0857C9.11992 20.9777 6.2846 18.7527 3.68555 16.4105C4.74879 14.5368 6.16646 12.8972 8.05668 11.4919C10.4194 13.5999 12.6641 15.9421 14.9087 18.2842C13.3729 19.5724 12.4278 21.2119 11.9553 23.0857Z" fill="#BEBEBE"/>
<path opacity="0.42" d="M4.51314 29.4093C7.4666 31.0488 10.5382 32.5712 13.6098 34.2107C15.5 37.3726 17.8628 40.4175 20.4619 43.1109C15.0275 42.4083 10.5382 40.1832 5.69452 37.2555C3.80431 34.2107 2.62292 31.1659 2.03223 28.1211C2.8592 28.4724 3.68617 28.9409 4.51314 29.4093Z" fill="#BEBEBE"/>
<path opacity="0.42" d="M28.2586 49.5519C31.8027 51.777 35.3469 53.2994 38.7729 55.2902C36.1739 55.1731 33.8111 55.6416 31.212 56.2271C28.1404 54.9389 24.36 53.0652 19.6345 50.3717C19.1619 50.1375 18.6894 49.7861 18.2168 49.4348C18.9256 49.5519 19.5163 49.669 20.2252 49.669C22.9423 49.9032 25.6595 49.7861 28.2586 49.5519Z" fill="#BEBEBE"/>
<path opacity="0.35" d="M79.1773 83.9821C80.1225 80.3517 81.3038 76.6042 82.8396 72.9739C82.8396 72.9739 82.6034 72.9739 82.2489 72.9739C79.1773 74.6134 75.5151 74.8476 72.089 74.7305C69.0174 74.6134 66.5365 74.145 63.8193 73.2081C64.5282 75.0818 65.7096 78.7122 66.7728 83.1623C70.5532 85.2703 75.0425 85.2703 79.1773 83.9821Z" fill="#737373"/>
<path d="M73.3885 15.5905L36.4111 12.5457C36.4111 12.5457 38.892 46.7413 46.9255 60.7943C52.7143 70.8656 62.2835 78.2434 73.5067 78.2434C84.7298 78.2434 94.299 70.8656 100.088 60.7943C108.121 46.7413 110.602 12.5457 110.602 12.5457L73.3885 15.5905Z" fill="#CCCCCC"/>
<path opacity="0.42" d="M84.1407 30.2287C84.0225 38.6605 83.3137 47.2094 82.2504 55.0557C81.1872 62.7848 77.7612 72.2706 75.2803 78.2431C84.2588 72.1535 88.2755 61.848 91.4653 53.4162C94.655 45.1015 96.1908 36.4355 97.3722 27.6523C93.0011 29.1748 88.1574 29.9945 84.1407 30.2287Z" fill="#E0E0E0"/>
<path opacity="0.55" d="M69.3736 29.7606C62.6397 29.1751 55.4332 28.2382 49.1719 26.3645C49.9988 32.6883 50.7077 39.1293 52.0072 45.2189C54.9607 58.2179 61.1039 69.2261 69.9643 78.0092C71.0275 78.1264 72.2089 78.2435 73.3903 78.2435C73.3903 78.2435 68.4285 68.5235 68.4285 49.0835C68.4285 42.4083 68.6647 35.9674 69.3736 29.7606Z" fill="#757575"/>
<path opacity="0.55" d="M109.421 22.0317C110.13 16.4105 110.366 12.6631 110.366 12.6631L73.3885 15.7079L36.4111 12.6631C36.4111 12.6631 36.6474 16.6448 37.3562 22.3831C37.3562 22.266 74.4518 35.4992 109.421 22.0317Z" fill="#757575"/>
<path d="M73.3906 0.249268C51.1806 0.249268 32.6328 8.68106 32.6328 8.68106V19.1037C32.6328 19.1037 55.1973 24.9591 74.4539 24.9591C93.8286 24.9591 114.03 19.1037 114.03 19.1037V8.68106C114.03 8.68106 95.6007 0.249268 73.3906 0.249268Z" fill="#CCCCCC"/>
<path d="M72.3274 15.4732C50.4717 15.4732 37.1221 10.4375 32.6328 8.91513C32.6328 10.4375 32.6328 19.1035 32.6328 19.1035C32.6328 19.1035 55.1973 24.959 74.4539 24.959C93.8286 24.959 114.03 19.1035 114.03 19.1035C114.03 19.1035 114.03 9.14934 114.03 8.68091C107.178 11.6086 92.5291 15.4732 72.3274 15.4732Z" fill="#CCCCCC"/>
<path opacity="0.55" d="M53.8959 14.1853C49.5248 13.5997 45.7444 12.78 42.5546 11.9602C42.5546 15.005 42.4365 18.1669 42.2002 21.2118C45.5081 21.9144 49.4066 22.6171 53.6596 23.2026C53.8959 20.1578 53.8959 17.2301 53.8959 14.1853Z" fill="#757575"/>
<path opacity="0.42" d="M94.1825 13.8342C91.819 14.1856 89.3372 14.5369 86.7374 14.7711C86.8555 17.933 86.6192 21.0949 86.2646 24.2569C89.3372 23.9055 92.2917 23.5542 95.0097 23.0858C94.8916 20.041 94.537 16.9962 94.1825 13.8342Z" fill="#E0E0E0"/>
<path opacity="0.42" d="M112.023 9.50049C110.841 9.96892 109.423 10.4374 107.887 10.9058C108.241 14.0677 108.478 17.2296 108.832 20.5087C110.132 20.1573 111.196 19.9231 112.023 19.6889C111.787 16.2928 111.787 12.8966 112.023 9.50049Z" fill="#BEBEBE"/>
<path opacity="0.55" d="M62.5195 24.2563C64.174 24.3734 65.7103 24.4905 67.3648 24.6076C67.483 21.5628 67.6011 18.4009 67.6011 15.356C65.8285 15.2389 64.174 15.2389 62.6377 15.1218C62.6377 18.1666 62.6377 21.2115 62.5195 24.2563Z" fill="#757575"/>
<path d="M73.3906 0.249268C51.1806 0.249268 32.6328 8.68106 32.6328 8.68106C32.6328 8.68106 32.6328 8.79817 32.6328 8.91528C37.0039 10.4377 50.3536 14.3023 72.3274 14.3023C92.5291 14.3023 107.178 11.6088 114.03 8.68106C114.03 8.68106 95.6007 0.249268 73.3906 0.249268Z" fill="#CCCCCC"/>
<path opacity="0.42" d="M73.3906 0.249268C51.1806 0.249268 32.6328 8.68106 32.6328 8.68106C32.6328 8.68106 32.6328 8.79817 32.6328 8.91528C37.0039 10.4377 50.5899 16.2931 72.4455 16.2931C92.6472 16.2931 107.06 11.7259 113.912 8.79817C113.912 8.79817 95.6007 0.249268 73.3906 0.249268Z" fill="#BEBEBE"/>
<path opacity="0.42" d="M47.7526 3.64502C38.656 5.98718 32.749 8.68067 32.749 8.68067C32.749 8.68067 32.749 8.79778 32.749 8.91489C34.403 9.50043 37.2383 10.6715 41.3731 11.8426C43.3815 9.14911 45.508 6.33851 47.7526 3.64502Z" fill="#E0E0E0"/>
<path opacity="0.42" d="M70.3183 0.366699C69.4913 0.366699 68.6643 0.366699 67.8374 0.483807C64.0569 5.40235 60.1584 10.3209 56.3779 15.1223C58.0319 15.3566 59.8039 15.5908 61.576 15.7079C64.1751 10.5551 67.3648 5.51946 70.3183 0.366699Z" fill="#E0E0E0"/>
<path opacity="0.42" d="M103.634 4.93359C102.689 7.62708 101.744 10.3206 100.681 13.0141C106.469 11.6088 110.959 9.96925 114.03 8.68106C114.03 8.68106 110.132 6.80733 103.634 4.93359Z" fill="#E0E0E0"/>
<path opacity="0.42" d="M89.93 1.77182C88.5123 1.5376 87.2128 1.30339 85.677 1.18628C83.7868 5.40218 81.6603 9.50097 79.2975 13.4826C78.7068 14.4195 78.1161 15.3564 77.6436 16.2932C79.8882 16.1761 82.1328 16.059 84.2593 15.8248C86.3858 11.1405 88.276 6.45615 89.93 1.77182Z" fill="#E0E0E0"/>
<path d="M73.389 3.99658C56.9678 3.99658 43.2637 8.32959 43.2637 8.32959C43.2637 8.32959 43.2637 8.4467 43.2637 8.5638C46.4534 9.73489 56.3771 12.5455 72.6802 12.5455C87.6838 12.5455 98.5526 10.5546 103.633 8.32959C103.633 8.32959 89.8103 3.99658 73.389 3.99658Z" fill="#535353"/>
<path d="M32.6328 8.68091C32.6328 8.68091 43.2653 16.8785 73.9813 16.8785C104.697 16.8785 114.03 8.79802 114.03 8.79802C114.03 8.79802 101.035 15.7074 73.8632 15.7074C46.6913 15.7074 32.6328 8.68091 32.6328 8.68091Z" fill="white"/>
<path d="M32.6328 18.5186C32.6328 18.8699 32.6328 19.1041 32.6328 19.1041C32.6328 19.1041 55.1973 24.9595 74.4539 24.9595C93.8286 24.9595 114.03 19.1041 114.03 19.1041C114.03 19.1041 114.03 18.8699 114.03 18.5186C114.03 18.5186 93.8286 24.374 74.4539 24.374C55.1973 24.374 32.6328 18.5186 32.6328 18.5186Z" fill="white"/>
<path d="M49.4062 127.195C49.4062 127.195 61.4564 132.699 73.6247 132.699C85.9111 132.699 97.4887 125.673 97.4887 125.673C97.4887 125.673 87.3287 133.636 73.6247 133.636C59.9206 133.636 49.4062 127.195 49.4062 127.195Z" fill="white"/>
<path d="M72.5391 57.9478C73.1011 57.0859 73.663 56.1865 74.3748 55.3996C75.6485 53.9381 77.0346 52.5515 78.3458 51.1275C79.6945 49.7034 80.8183 48.092 81.4552 46.1808C82.2044 43.8199 82.0546 41.5714 80.7059 39.4354C78.121 35.3506 72.8388 35.6879 70.0666 37.749C69.0926 38.4985 68.4182 39.4354 68.1185 40.5971C67.8938 41.4965 68.3433 42.4333 69.1675 42.8081C69.9917 43.2203 70.8533 42.958 71.4152 42.171C71.5276 42.0211 71.6026 41.8712 71.6775 41.7588C72.5017 40.672 74.4122 40.2223 75.7609 40.7845C76.8848 41.1967 77.5216 42.4708 77.3343 43.9323C77.1095 45.5063 76.2479 46.7429 75.199 47.8672C73.7379 49.4411 72.202 50.9776 70.7784 52.589C68.9802 54.6501 67.4442 56.936 67.2944 59.7841C67.182 61.9951 67.8938 63.7939 70.5536 63.7939C72.0146 63.7939 73.5131 63.6815 75.0116 63.6815C76.8098 63.644 78.6455 63.6815 80.4437 63.644C81.4927 63.644 82.3918 62.857 82.5416 61.8077C82.7289 60.8334 82.1295 59.8591 81.193 59.4843C80.8183 59.3344 80.4437 59.222 80.0691 59.222C78.121 59.222 76.173 59.2595 74.2249 59.2969C73.5131 59.2969 72.7639 59.4094 71.9023 59.4468C72.127 58.8847 72.2769 58.3601 72.5391 57.9478Z" fill="white"/>
</svg>
