<svg width="319" height="151" viewBox="0 0 319 151" fill="none" xmlns="http://www.w3.org/2000/svg">
<rect width="319" height="151" rx="10" fill="#7F48C3"/>
<path d="M297.857 116.878L296.571 111.506L300.143 115.576L303.857 112.158L302.286 117.204L307 117.855L303 119.483L305.143 124.041L301.429 121.925L299.714 125.506L298.857 121.762L294.714 123.878L297.286 120.297L294 118.181L297.857 116.878Z" fill="white"/>
<path d="M151.747 15.6459L150.165 9.50635L154.56 14.1575L159.132 10.2505L157.198 16.018L163 16.7622L158.077 18.6226L160.714 23.8319L156.143 21.4133L154.033 25.5063L152.978 21.2273L147.879 23.6459L151.044 19.5528L147 17.1343L151.747 15.6459Z" fill="white"/>
<path d="M169.829 36.3343L168.886 32.5063L171.505 35.4063L174.229 32.9703L173.077 36.5663L176.534 37.0303L173.6 38.1903L175.172 41.4383L172.448 39.9303L171.191 42.4823L170.562 39.8143L167.524 41.3223L169.41 38.7703L167 37.2623L169.829 36.3343Z" fill="white"/>
<path d="M286.829 136.334L285.886 132.506L288.505 135.406L291.229 132.97L290.077 136.566L293.534 137.03L290.6 138.19L292.172 141.438L289.448 139.93L288.191 142.482L287.562 139.814L284.524 141.322L286.41 138.77L284 137.262L286.829 136.334Z" fill="white"/>
</svg>
