<svg xmlns="http://www.w3.org/2000/svg" xmlns:xlink="http://www.w3.org/1999/xlink" viewBox="0 0 26.62 26.62"><defs><style>.cls-1{isolation:isolate;}.cls-2{fill:#78a941;}.cls-3,.cls-4{mix-blend-mode:color-dodge;opacity:0.3;}.cls-3{fill:url(#linear-gradient);}.cls-4{fill:url(#radial-gradient);}.cls-5,.cls-6{fill:#fff;}.cls-5{opacity:0.8;}</style><linearGradient id="linear-gradient" x1="11.55" y1="29.08" x2="11.55" y2="19.92" gradientUnits="userSpaceOnUse"><stop offset="0" stop-color="#fff"/><stop offset="0.08" stop-color="#e5e5e5"/><stop offset="0.26" stop-color="#aba9aa"/><stop offset="0.44" stop-color="#7a7878"/><stop offset="0.61" stop-color="#545152"/><stop offset="0.76" stop-color="#393637"/><stop offset="0.9" stop-color="#292526"/><stop offset="1" stop-color="#231f20"/></linearGradient><radialGradient id="radial-gradient" cx="19.62" cy="18.34" r="20.58" xlink:href="#linear-gradient"/></defs><g class="cls-1"><g id="Layer_2" data-name="Layer 2"><g id="Layer_1-2" data-name="Layer 1"><path class="cls-2" d="M13.31,26.62A13.31,13.31,0,1,1,26.62,13.31,13.32,13.32,0,0,1,13.31,26.62Z"/><path class="cls-3" d="M12.14,25a13.38,13.38,0,0,1-8.92-5.26c-.26-.36-1.37-2.52.12-2,1.23.46,2,1.72,3.11,2.34C9.9,22,14.09,22.51,17.35,20a4.8,4.8,0,0,1,.8-.56A1.78,1.78,0,0,1,20.5,20.5c.21.9-.81,2.32-1.45,2.89a6.36,6.36,0,0,1-2.37,1.25A10.53,10.53,0,0,1,12.14,25Z"/><path class="cls-4" d="M12,.44a11.07,11.07,0,0,0-1.79.35,13.55,13.55,0,0,0-4.7,2.09,11.68,11.68,0,0,0-2,2.23c-.56.73-1.11,1.47-1.66,2.2a4.7,4.7,0,0,0-1,2A2.87,2.87,0,0,0,3,12.35c2,.51,3.77-1,5.34-2a28.88,28.88,0,0,1,6.09-3,13,13,0,0,1,7-.6,7.13,7.13,0,0,1,2.37,1,5.52,5.52,0,0,1,2.28,3.21c-.84-3.3-2.54-7-5.76-8.53C17.54,1,14.93.1,12,.44Z"/><path class="cls-5" d="M7.51,3.83a.65.65,0,0,0-.39-.07c-1.07.11-1.45,1-1.89,1.86A11.9,11.9,0,0,0,4.11,8.56,13.5,13.5,0,0,1,5.28,6.14c.58-1,1.08-1,2-1.54.25-.15.5-.47.32-.7A.23.23,0,0,0,7.51,3.83Z"/><path class="cls-5" d="M8.21,3.47a.41.41,0,0,0-.33.46.73.73,0,0,0,.5.23.35.35,0,1,0-.28-.64Z"/><path class="cls-6" d="M13.09,15.75q-.12-.24-.24-.24a.47.47,0,0,0-.39.26,6.1,6.1,0,0,0-.87,2.28c-.09.76-.66,1.14-1.72,1.14A3.55,3.55,0,0,1,8.5,18.9a1,1,0,0,1-.69-.9.79.79,0,0,1,.24-.56,7.91,7.91,0,0,0,1.16-1.21,14.41,14.41,0,0,0,1.6-2.76L11,13a1.66,1.66,0,0,0,.17-.73l-.07-.39A5.85,5.85,0,0,0,8.9,9.23c-.33-.18-.49-.39-.49-.65,0-.44.32-.86.95-1.26a3.21,3.21,0,0,1,1.7-.61,1.24,1.24,0,0,1,1.16.85c.3.5.69,1.23,1.16,2.18.08.21.18.31.29.31s.22-.08.31-.24A7.66,7.66,0,0,0,15,7.7c.2-.69.86-1,2-1s1.68.27,1.68.8a.78.78,0,0,1-.16.49l-.21.26a1.88,1.88,0,0,1-.24.27l-.27.27a13.71,13.71,0,0,0-2.22,3.51,1.18,1.18,0,0,0-.1.52,1.47,1.47,0,0,0,.26.72,7.6,7.6,0,0,0,.85,1,4.15,4.15,0,0,0,.91.75,3.35,3.35,0,0,0,.62.25,1.75,1.75,0,0,1,.51.26.71.71,0,0,1,.22.58,2.66,2.66,0,0,1-.88,1.72A2.61,2.61,0,0,1,16,19l-.34,0a1.89,1.89,0,0,1-1.11-.87A21.58,21.58,0,0,1,13.09,15.75Z"/></g></g></g></svg>