<svg xmlns="http://www.w3.org/2000/svg" viewBox="0 0 20 13.87"><defs><style>.cls-1,.cls-2{fill:#fff;}.cls-2{opacity:0.4;}.cls-3{opacity:0.14;}</style></defs><g id="Layer_2" data-name="Layer 2"><g id="Layer_1-2" data-name="Layer 1"><rect class="cls-1" x="10.12" y="1.6" width="0.87" height="3.42"/><path class="cls-1" d="M10.12,2.27a.57.57,0,0,1,.43.11,6,6,0,0,1,.33,1.37H11l0-1.81h-.85Z"/><path class="cls-1" d="M.83,9.28a.92.92,0,0,0,0,1.83Z"/><path class="cls-1" d="M1.52,12.29l18.39-.16s.4-3-.47-3.59a10.14,10.14,0,0,0-3.12-1.09s-.3-3.52-3.7-3.78c-3-.22-5.15,0-6.24,1A5.57,5.57,0,0,0,5,7.53S2.53,7.05,1.52,8.78C.77,10.06,1.52,12.29,1.52,12.29Z"/><path class="cls-1" d="M19.82,9.14a12.24,12.24,0,0,1-.08,1.94l-18.39.16a5.28,5.28,0,0,1-.16-.57,7.71,7.71,0,0,0,.32,1.62l18.39-.16A9.24,9.24,0,0,0,19.82,9.14Z"/><path class="cls-1" d="M5.68,7.83l10-.15a5.15,5.15,0,0,0-1-2.74c-1.09-1.45-5.76-1.35-7.28-.48S5.68,7.83,5.68,7.83Z"/><path class="cls-1" d="M6.07,7.57l9.11-.13a4.42,4.42,0,0,0-.93-2.39c-1-1.27-5.25-1.19-6.63-.43S6.07,7.57,6.07,7.57Z"/><path class="cls-1" d="M9.76,3.87a8,8,0,0,1,.59,2,8.14,8.14,0,0,1,0,1.94l1.29,0s-.07-1.27-.17-1.91a3.93,3.93,0,0,0-.68-2Z"/><path class="cls-1" d="M9.86,3.7a4.34,4.34,0,0,1,.58,1.64,15.4,15.4,0,0,1,.15,2.75h.87a13.72,13.72,0,0,0-.16-2.66,6.92,6.92,0,0,0-.71-1.73Z"/><rect class="cls-1" x="0.65" y="9.1" width="0.82" height="2.17" rx="0.24"/><path class="cls-1" d="M1.26,9.11v1.53a.23.23,0,0,1-.24.23H.65V11a.23.23,0,0,0,.23.24h.34A.24.24,0,0,0,1.46,11V9.35A.25.25,0,0,0,1.26,9.11Z"/><path class="cls-2" d="M.14,10.09a.31.31,0,0,0,.06.19.14.14,0,0,0,.19,0c0-.05,0-.14.06-.21s0-.1.07-.16a.39.39,0,0,0,0-.24.2.2,0,0,0,0-.08C.33,9.45.14,10,.14,10.09Z"/><path class="cls-2" d="M6.88,6a1,1,0,0,0,0,.41.44.44,0,0,0,.25.31.45.45,0,0,0,.46-.19,2.62,2.62,0,0,0,.22-.48,2.14,2.14,0,0,1,.83-1c.13-.09.29-.18.31-.33a.15.15,0,0,0,0-.09.14.14,0,0,0-.1-.07c-.36-.13-.84.16-1.12.36A2.13,2.13,0,0,0,6.88,6Z"/><path class="cls-2" d="M11.58,4.93a.62.62,0,0,0,.45.19c.17,0,.34,0,.51,0a7.45,7.45,0,0,1,.94.19.39.39,0,0,0,.24,0,.17.17,0,0,0,.09-.2A.27.27,0,0,0,13.73,5a4.05,4.05,0,0,0-1.55-.51c-.14,0-.36-.14-.51-.07A.34.34,0,0,0,11.58,4.93Z"/><path class="cls-2" d="M2.86,8.05a1.27,1.27,0,0,0-.54.67.55.55,0,0,0,0,.47.46.46,0,0,0,.67,0,1.51,1.51,0,0,0,.22-.28A2.68,2.68,0,0,1,4,8.31c.11-.07.22-.15.23-.27C4.28,7.46,3.05,7.94,2.86,8.05Z"/><circle class="cls-1" cx="5.28" cy="12.13" r="1.73"/><path class="cls-1" d="M6.43,10.84A1.71,1.71,0,0,1,6.8,11.9a1.73,1.73,0,0,1-1.74,1.73,1.7,1.7,0,0,1-1.15-.44,1.73,1.73,0,1,0,2.52-2.35Z"/><circle class="cls-1" cx="5.28" cy="12.13" r="0.92"/><path class="cls-2" d="M4.57,12.15a.45.45,0,0,0,0,.2.4.4,0,0,0,.18.16.15.15,0,0,0,.11,0,.2.2,0,0,0,.15-.17,1.94,1.94,0,0,1,0-.24.37.37,0,0,1,.17-.25c.06,0,.13-.06.18-.1.3-.2-.16-.39-.36-.31A.81.81,0,0,0,4.57,12.15Z"/><path class="cls-2" d="M3.79,11.78a.32.32,0,0,0,0,.14c0,.05.06.09.1.09a.15.15,0,0,0,.14-.09.57.57,0,0,0,0-.18A1.19,1.19,0,0,1,4.65,11s.06,0,.06-.07c0-.2-.48.08-.54.14A1.16,1.16,0,0,0,3.79,11.78Z"/><path class="cls-2" d="M5,10.72a.07.07,0,0,0,0,.09.09.09,0,0,0,.09,0,.15.15,0,0,0,.11,0,.09.09,0,0,0,0-.11.1.1,0,0,0-.1-.06.28.28,0,0,0-.13,0Z"/><circle class="cls-1" cx="15.94" cy="11.99" r="1.73"/><path class="cls-1" d="M17.1,10.69a1.78,1.78,0,0,1,.36,1.06,1.74,1.74,0,0,1-2.89,1.3A1.74,1.74,0,0,0,17.68,12,1.76,1.76,0,0,0,17.1,10.69Z"/><circle class="cls-1" cx="15.94" cy="11.99" r="0.92"/><path class="cls-2" d="M15.24,12a.39.39,0,0,0,0,.21.46.46,0,0,0,.18.16l.11,0c.08,0,.13-.1.15-.17s0-.16,0-.24a.4.4,0,0,1,.18-.26l.17-.09c.3-.21-.16-.4-.35-.31A.77.77,0,0,0,15.24,12Z"/><path class="cls-2" d="M14.46,11.64a.22.22,0,0,0,0,.14.17.17,0,0,0,.11.09.17.17,0,0,0,.13-.1.85.85,0,0,0,0-.17,1.17,1.17,0,0,1,.57-.76s0,0,0-.07c0-.2-.48.08-.54.14A1.1,1.1,0,0,0,14.46,11.64Z"/><path class="cls-2" d="M15.62,10.58a.06.06,0,0,0,0,.08.15.15,0,0,0,.09,0,.22.22,0,0,0,.11,0,.1.1,0,0,0,0-.1.12.12,0,0,0-.11-.07.28.28,0,0,0-.13,0Z"/><path class="cls-1" d="M12.32.13c-.82-.46-.93.47-1.21.52s-.56.07-.56.07S10.27.7,10,.65s-.4-1-1.22-.52,0,1.46.49,1.74a4.61,4.61,0,0,0,1.28.26,4.72,4.72,0,0,0,1.29-.26C12.38,1.59,13.07.55,12.32.13Zm-3.18.94A.33.33,0,0,1,8.81.73.33.33,0,0,1,9.14.4a.34.34,0,0,1,0,.67Zm2.86,0A.34.34,0,0,1,12,.4a.33.33,0,0,1,.33.33A.33.33,0,0,1,12,1.07Z"/><path class="cls-2" d="M10.27,3.25a.25.25,0,0,0,0,.08.1.1,0,0,0,.07,0,.06.06,0,0,0,.06-.05s0,0,0-.08.11-.68-.07-.7S10.26,3.12,10.27,3.25Z"/><g class="cls-3"><path class="cls-1" d="M12.34.73a.37.37,0,0,1-.12.26l-.31.84c.48-.3,1-1.13.58-1.58l-.16.43A.43.43,0,0,0,12.34.73Z"/><path class="cls-1" d="M8.5.94a1.75,1.75,0,0,0,.77.93l.06,0L9.85.54a1.93,1.93,0,0,0-.4-.47L9.08.41h.06a.34.34,0,1,1-.33.33.25.25,0,0,1,0-.08Z"/><path class="cls-1" d="M10.58.72,9.84,2a6,6,0,0,0,.71.09l.22,0L11,.66Z"/></g></g></g></svg>