<svg xmlns="http://www.w3.org/2000/svg" viewBox="0 0 31.07 64.42"><defs><style>.cls-1{fill:#2d202a;}.cls-2{fill:#f67300;}.cls-3{fill:#fff;}</style></defs><g id="Layer_2" data-name="Layer 2"><g id="Layer_1-2" data-name="Layer 1"><path class="cls-1" d="M12.64,64.42a.2.2,0,0,1-.14-.06.18.18,0,0,1,0-.26c5.95-5.33,4.6-11,3.27-13.94a14,14,0,0,0-2-3.15c-1.57.81-3.27,1.06-4.36.5a1.87,1.87,0,0,1-.93-2.16A1.41,1.41,0,0,1,9.7,44.06c1.07-.13,2.7.8,4.19,2.48a7.79,7.79,0,0,0,1.67-1.29c1.27-1.31,3-4.15.65-8.54-2.75-5.05-2.36-9.15-1.55-11.69a11.67,11.67,0,0,1,2.46-4.38.19.19,0,0,1,.26,0,.19.19,0,0,1,0,.27c-.07.06-6,6.2-.85,15.62,2.5,4.6.63,7.6-.71,9a8,8,0,0,1-1.7,1.31,14.1,14.1,0,0,1,2,3.19c1.11,2.42,3,8.67-3.37,14.37A.17.17,0,0,1,12.64,64.42Zm-2.71-20H9.75c-.47.06-.77.39-.87,1a1.5,1.5,0,0,0,.73,1.76,4.77,4.77,0,0,0,3.94-.46C12.26,45.29,10.88,44.42,9.93,44.42Z"/><ellipse class="cls-2" cx="15.54" cy="17.31" rx="17.33" ry="15.51" transform="translate(-3.49 30.69) rotate(-83.21)"/><path class="cls-2" d="M15,33.34s-1,3.64-.49,4.07,2.78,0,3.29-1.14S14.84,32,15,33.34Z"/><path class="cls-3" d="M21.66,3.73s6.75,3.17,6.41,9c-.05,1-3.68-3.73-8.41-6.62C11.45,1.12,18.27,1.94,21.66,3.73Z"/></g></g></svg>