<svg xmlns="http://www.w3.org/2000/svg" viewBox="0 0 38.06 41.1"><defs><style>.cls-1{fill:#39c5f3;}.cls-1,.cls-2,.cls-3,.cls-4{fill-rule:evenodd;}.cls-2{fill:#0080a6;}.cls-3{fill:#001c4a;}.cls-4{fill:#49c1c2;}</style></defs><g id="Layer_2" data-name="Layer 2"><g id="Layer_1-2" data-name="Layer 1"><path class="cls-1" d="M5.32,15.29C.51-5.9,32.18-4.95,27.13,17.45c-1.83,8.11,3.06,17.94,10.93,12.82-.25,1.44-2.76,4.44-6.7,3.69C28.43,33.4,24,31.87,23,20.12c-.08-.93-.86.32-1.07,5.6-.4,10.12,6.64,10.31,6.69,10.35-.33,1.53-7.16,3.15-9.14-4.48-.29-1.11-1.25-7.42-1.57-10-.41-3.32-1.2,11.7-1.36,13-.67,5.63-5.27,7.27-6.82,6.12,0-.63,3.46-1.6,3.62-5.46.11-2.74.61-18.82-1.47-11.06C9.59,32.94,7,39.36,0,38,7.54,34.48,7.4,26,7.17,21.19A48.14,48.14,0,0,0,5.32,15.29Z"/><path class="cls-2" d="M15.21,15.67c.18,0,.23.35.41.52a2.67,2.67,0,0,0,1.28.68,2.07,2.07,0,0,0,1.4-.46c.31-.21.51-.56.58-.42.21.39-.92,1.29-1.95,1.2a3,3,0,0,1-1.33-.58C15.1,16.27,14.89,15.69,15.21,15.67Z"/><path class="cls-3" d="M10.26,12.33C10,14,11.79,14.5,12.11,13S10.59,11.15,10.26,12.33Z"/><path class="cls-3" d="M21,12.15c-.3,1.66,1.54,2.17,1.85.64S21.29,11,21,12.15Z"/><path class="cls-4" d="M21.55,12.9c-.12.65.61.85.73.25S21.68,12.43,21.55,12.9Z"/><path class="cls-4" d="M11,13c-.12.66.61.86.74.25S11.12,12.5,11,13Z"/><path class="cls-2" d="M12.14,22.31c-.66,0,.1.72.12.14C12.26,22.37,12.12,22.31,12.14,22.31Z"/><path class="cls-2" d="M12,23c-.67,0,.09.71.11.13C12.1,23.06,12,23,12,23Z"/><path class="cls-2" d="M11.74,23.56c.58.32-.43.57-.16.06C11.61,23.55,11.76,23.57,11.74,23.56Z"/><path class="cls-2" d="M11.54,24.23c.58.33-.44.58-.17.06C11.41,24.23,11.56,24.25,11.54,24.23Z"/><path class="cls-2" d="M11.41,24.82c-.66,0,.1.71.12.13C11.53,24.88,11.39,24.82,11.41,24.82Z"/><path class="cls-2" d="M11.26,25.51c-.67,0,.09.71.11.13C11.37,25.57,11.23,25.51,11.26,25.51Z"/><path class="cls-2" d="M11,26.06c.58.33-.43.58-.16.06C10.88,26.06,11,26.08,11,26.06Z"/><path class="cls-2" d="M10.81,26.74c.58.33-.44.58-.17.06C10.68,26.73,10.83,26.75,10.81,26.74Z"/><path class="cls-2" d="M10.59,27.3c-.67,0,.09.72.11.13C10.7,27.36,10.56,27.3,10.59,27.3Z"/><path class="cls-2" d="M10.43,28c-.67,0,.09.71.11.13C10.55,28.05,10.4,28,10.43,28Z"/><path class="cls-2" d="M10.19,28.55c.58.32-.44.57-.17.06C10.05,28.54,10.21,28.56,10.19,28.55Z"/><path class="cls-2" d="M10,29.22c.58.33-.43.58-.17.06C9.85,29.21,10,29.23,10,29.22Z"/><path class="cls-2" d="M9.78,29.85c-.67,0,.09.72.12.14C9.9,29.91,9.76,29.85,9.78,29.85Z"/><path class="cls-2" d="M9.62,30.54c-.66,0,.1.71.12.13C9.74,30.6,9.6,30.54,9.62,30.54Z"/><path class="cls-2" d="M9.38,31.1c.58.32-.43.57-.17.06C9.25,31.09,9.4,31.11,9.38,31.1Z"/><path class="cls-2" d="M9.18,31.68c.48.46-.57.45-.18,0C9.05,31.64,9.2,31.7,9.18,31.68Z"/><path class="cls-2" d="M8.91,32.22c-.65-.17-.1.71.08.15C9,32.3,8.88,32.21,8.91,32.22Z"/><path class="cls-2" d="M8.58,32.84c-.65-.16-.1.72.08.16C8.68,32.93,8.55,32.84,8.58,32.84Z"/><path class="cls-2" d="M8.2,33.32c.48.46-.57.45-.18,0C8.08,33.28,8.22,33.34,8.2,33.32Z"/><path class="cls-2" d="M7.83,33.92c.48.46-.57.45-.18,0C7.7,33.88,7.85,33.94,7.83,33.92Z"/><path class="cls-2" d="M7.47,34.41c-.65-.17-.09.71.08.16C7.57,34.5,7.45,34.4,7.47,34.41Z"/><path class="cls-2" d="M7.14,35c-.64-.17-.09.71.08.15C7.24,35.12,7.12,35,7.14,35Z"/><path class="cls-2" d="M6.76,35.51c.48.46-.57.45-.17,0C6.64,35.47,6.78,35.53,6.76,35.51Z"/><path class="cls-2" d="M6.29,36c.47.46-.57.45-.18,0C6.16,35.92,6.3,36,6.29,36Z"/><path class="cls-2" d="M5.85,36.52c.23.23-.28.22-.09,0C5.79,36.5,5.86,36.53,5.85,36.52Z"/><path class="cls-2" d="M5.43,36.81c.23.23-.28.22-.09,0C5.37,36.79,5.44,36.82,5.43,36.81Z"/><path class="cls-2" d="M4.71,37.21c.23.22-.28.22-.09,0C4.65,37.19,4.72,37.22,4.71,37.21Z"/><path class="cls-2" d="M16.93,24.89c-.65.14.25.67.14.1C17.06,24.92,16.91,24.89,16.93,24.89Z"/><path class="cls-2" d="M16.93,25.59c-.65.15.25.67.14.1C17.06,25.62,16.91,25.6,16.93,25.59Z"/><path class="cls-2" d="M16.82,26.19c.64.19-.29.65-.15.09C16.69,26.21,16.84,26.19,16.82,26.19Z"/><path class="cls-2" d="M16.77,26.89c.64.19-.29.66-.15.09C16.64,26.91,16.8,26.9,16.77,26.89Z"/><path class="cls-2" d="M16.78,27.49c-.65.15.26.67.15.1C16.91,27.52,16.76,27.49,16.78,27.49Z"/><path class="cls-2" d="M16.79,28.19c-.65.15.25.68.14.11C16.91,28.22,16.76,28.2,16.79,28.19Z"/><path class="cls-2" d="M16.68,28.79c.63.19-.3.66-.15.1C16.55,28.81,16.7,28.8,16.68,28.79Z"/><path class="cls-2" d="M16.63,29.49c.64.19-.29.66-.15.1C16.5,29.52,16.65,29.5,16.63,29.49Z"/><path class="cls-2" d="M16.54,30.09c-.65.15.25.68.14.11C16.67,30.12,16.52,30.1,16.54,30.09Z"/><path class="cls-2" d="M16.54,30.8c-.65.15.25.67.14.1C16.67,30.83,16.52,30.8,16.54,30.8Z"/><path class="cls-2" d="M16.34,31.45c.64.18-.29.66-.15.1C16.21,31.47,16.36,31.46,16.34,31.45Z"/><path class="cls-2" d="M16.3,32.15c.64.18-.28.67-.15.1C16.17,32.18,16.32,32.16,16.3,32.15Z"/><path class="cls-2" d="M16.26,32.82c-.65.15.26.67.14.1C16.39,32.84,16.24,32.82,16.26,32.82Z"/><path class="cls-2" d="M16.27,33.52c-.65.16.26.67.14.1C16.4,33.55,16.25,33.53,16.27,33.52Z"/><path class="cls-2" d="M16.17,34.12c.64.18-.28.66-.15.1C16,34.14,16.19,34.13,16.17,34.12Z"/><path class="cls-2" d="M16.12,34.73c.57.34-.45.57-.17.06C16,34.72,16.14,34.75,16.12,34.73Z"/><path class="cls-2" d="M16,35.32c-.67,0,.08.71.11.13C16.1,35.38,16,35.32,16,35.32Z"/><path class="cls-2" d="M15.81,36c-.67,0,.08.72.11.14C15.93,36.06,15.79,36,15.81,36Z"/><path class="cls-2" d="M15.56,36.56c.58.33-.44.56-.17,0C15.43,36.55,15.58,36.57,15.56,36.56Z"/><path class="cls-2" d="M15.35,37.23c.57.33-.45.57-.17.05C15.21,37.22,15.37,37.24,15.35,37.23Z"/><path class="cls-2" d="M15.11,37.79c-.66,0,.09.71.12.13C15.23,37.85,15.09,37.79,15.11,37.79Z"/><path class="cls-2" d="M14.75,38.26c-.64-.16-.09.72.08.16C14.85,38.35,14.73,38.26,14.75,38.26Z"/><path class="cls-2" d="M14.38,38.74c.48.46-.57.45-.18,0C14.25,38.7,14.39,38.76,14.38,38.74Z"/><path class="cls-2" d="M13.9,39.19c.48.46-.57.45-.18,0C13.77,39.15,13.92,39.21,13.9,39.19Z"/><path class="cls-2" d="M13.46,39.75c.23.22-.27.22-.08,0C13.4,39.73,13.47,39.76,13.46,39.75Z"/><path class="cls-2" d="M13,40c.23.22-.27.22-.08,0C13,40,13.05,40.05,13,40Z"/><path class="cls-2" d="M12.32,40.44c.24.22-.27.21-.08,0C12.26,40.42,12.33,40.45,12.32,40.44Z"/><path class="cls-2" d="M18.58,22.83c-.61.28.38.61.16.07C18.71,22.83,18.56,22.84,18.58,22.83Z"/><path class="cls-2" d="M18.72,23.52c-.6.28.39.61.16.07C18.86,23.52,18.7,23.53,18.72,23.52Z"/><path class="cls-2" d="M18.74,24.13c.66.05-.16.7-.13.12C18.61,24.18,18.76,24.13,18.74,24.13Z"/><path class="cls-2" d="M18.84,24.83c.66.05-.16.7-.13.12C18.71,24.87,18.86,24.83,18.84,24.83Z"/><path class="cls-2" d="M19,25.41c-.61.28.38.61.16.07C19.1,25.41,19,25.42,19,25.41Z"/><path class="cls-2" d="M19.12,26.1c-.61.28.38.61.16.07C19.25,26.1,19.09,26.11,19.12,26.1Z"/><path class="cls-2" d="M19.13,26.71c.66.05-.15.7-.13.12C19,26.75,19.15,26.71,19.13,26.71Z"/><path class="cls-2" d="M19.23,27.41c.66.05-.15.7-.13.12C19.11,27.45,19.25,27.41,19.23,27.41Z"/><path class="cls-2" d="M19.26,28c-.6.27.39.61.16.07C19.39,28,19.24,28,19.26,28Z"/><path class="cls-2" d="M19.41,28.7c-.61.27.38.61.16.07C19.54,28.7,19.39,28.71,19.41,28.7Z"/><path class="cls-2" d="M19.34,29.38c.67.05-.14.7-.12.12C19.22,29.43,19.36,29.38,19.34,29.38Z"/><path class="cls-2" d="M19.53,30c-.56.36.47.55.17.05C19.66,29.93,19.51,30,19.53,30Z"/><path class="cls-2" d="M19.77,30.61c-.56.36.47.55.17.05C19.9,30.59,19.75,30.62,19.77,30.61Z"/><path class="cls-2" d="M19.87,31.21c.67,0,0,.71-.1.14C19.76,31.27,19.9,31.21,19.87,31.21Z"/><path class="cls-2" d="M20.07,31.88c.67,0,0,.72-.1.14C20,32,20.1,31.88,20.07,31.88Z"/><path class="cls-2" d="M20.29,32.44c-.56.36.47.55.17.05C20.42,32.43,20.27,32.46,20.29,32.44Z"/><path class="cls-2" d="M20.55,33.11c-.45.48.59.42.18,0C20.67,33.06,20.53,33.12,20.55,33.11Z"/><path class="cls-2" d="M20.8,33.66c.63-.2.13.71-.07.16C20.7,33.75,20.82,33.66,20.8,33.66Z"/><path class="cls-2" d="M21.16,34.27c.63-.2.13.71-.07.16C21.06,34.36,21.18,34.26,21.16,34.27Z"/><path class="cls-2" d="M21.42,34.82c-.45.48.59.41.18,0C21.55,34.77,21.41,34.83,21.42,34.82Z"/><path class="cls-2" d="M21.82,35.4c-.45.48.59.42.18,0C22,35.35,21.81,35.42,21.82,35.4Z"/><path class="cls-2" d="M22.4,35.82c.64-.2.14.71-.06.17C22.31,35.92,22.43,35.82,22.4,35.82Z"/><path class="cls-2" d="M23,36.23c-.36.55.66.31.18,0C23.11,36.16,23,36.25,23,36.23Z"/><path class="cls-2" d="M23.54,36.68c-.18.27.32.15.09,0C23.6,36.65,23.54,36.69,23.54,36.68Z"/><path class="cls-2" d="M24,36.88c-.18.26.31.15.08,0C24.07,36.84,24,36.88,24,36.88Z"/><path class="cls-2" d="M24.8,37.11c-.17.27.32.15.09,0C24.86,37.08,24.8,37.12,24.8,37.11Z"/><path class="cls-2" d="M23.64,21.76c-.6.27.39.61.17.07C23.78,21.76,23.62,21.77,23.64,21.76Z"/><path class="cls-2" d="M23.79,22.45c-.61.27.38.61.16.07C23.92,22.45,23.77,22.46,23.79,22.45Z"/><path class="cls-2" d="M23.81,23.05c.66.06-.16.71-.13.13C23.68,23.1,23.83,23.05,23.81,23.05Z"/><path class="cls-2" d="M23.9,23.75c.67.06-.15.7-.12.12C23.78,23.8,23.93,23.75,23.9,23.75Z"/><path class="cls-2" d="M24,24.34c-.61.27.38.61.16.07C24.17,24.34,24,24.35,24,24.34Z"/><path class="cls-2" d="M24.18,25c-.6.27.39.61.16.07C24.31,25,24.16,25,24.18,25Z"/><path class="cls-2" d="M24.2,25.63c.66.06-.16.7-.13.12C24.07,25.68,24.22,25.63,24.2,25.63Z"/><path class="cls-2" d="M24.5,26.35c.66-.11,0,.72-.09.15C24.4,26.43,24.53,26.35,24.5,26.35Z"/><path class="cls-2" d="M24.69,26.93c-.52.41.53.49.17,0C24.82,26.9,24.67,26.94,24.69,26.93Z"/><path class="cls-2" d="M25,27.56c-.52.41.52.49.17,0C25.13,27.53,25,27.57,25,27.56Z"/><path class="cls-2" d="M25.11,28.23c.66-.12,0,.72-.09.15C25,28.31,25.14,28.23,25.11,28.23Z"/><path class="cls-2" d="M25.44,28.74c-.45.48.59.41.17,0C25.56,28.69,25.42,28.75,25.44,28.74Z"/><path class="cls-2" d="M25.84,29.32c-.45.48.6.41.18,0C26,29.27,25.83,29.33,25.84,29.32Z"/><path class="cls-2" d="M26.09,29.87c.64-.2.14.71-.06.16C26,30,26.12,29.86,26.09,29.87Z"/><path class="cls-2" d="M26.46,30.47c.63-.2.13.71-.07.17C26.36,30.57,26.48,30.47,26.46,30.47Z"/><path class="cls-2" d="M26.81,31c-.45.49.6.42.18,0C26.93,30.91,26.8,31,26.81,31Z"/><path class="cls-2" d="M27.23,31.54c-.32.58.68.26.17,0C27.34,31.47,27.22,31.56,27.23,31.54Z"/><path class="cls-2" d="M27.61,32c.57-.35.31.65,0,.17C27.54,32.13,27.63,32,27.61,32Z"/><path class="cls-2" d="M28.16,32.33c.49-.44.41.59,0,.18C28.11,32.45,28.17,32.32,28.16,32.33Z"/><path class="cls-2" d="M28.63,32.72c-.22.63.71.14.16-.07C28.72,32.63,28.62,32.74,28.63,32.72Z"/><path class="cls-2" d="M29.23,33.09c-.21.62.72.13.17-.07C29.33,33,29.23,33.11,29.23,33.09Z"/><path class="cls-2" d="M29.94,33.23c.49-.44.43.59,0,.18C29.9,33.36,30,33.22,29.94,33.23Z"/><path class="cls-2" d="M30.65,33.36c-.1.65.72,0,.15-.09C30.72,33.25,30.64,33.38,30.65,33.36Z"/><path class="cls-2" d="M31.34,33.55c-.05.31.35,0,.07,0C31.37,33.49,31.34,33.56,31.34,33.55Z"/><path class="cls-2" d="M31.85,33.53c-.05.31.35,0,.07-.05C31.89,33.48,31.85,33.54,31.85,33.53Z"/><path class="cls-2" d="M32.73,33.75c0,.32.35,0,.07,0C32.77,33.7,32.73,33.76,32.73,33.75Z"/><path class="cls-2" d="M33.29,33.56c0,.66.71-.12.13-.12C33.34,33.44,33.29,33.58,33.29,33.56Z"/><path class="cls-2" d="M34,33.61c0,.32.35-.06.06-.06C34,33.55,34,33.62,34,33.61Z"/><path class="cls-2" d="M34.5,33.49c0,.32.35-.06.06-.06C34.52,33.43,34.5,33.5,34.5,33.49Z"/><path class="cls-2" d="M35.28,33.23c0,.32.34-.06.06-.06C35.3,33.17,35.28,33.24,35.28,33.23Z"/></g></g></svg>