<svg width="40" height="40" viewBox="0 0 40 40" fill="none" xmlns="http://www.w3.org/2000/svg">
<path d="M20 40C31.0457 40 40 31.0457 40 20C40 8.9543 31.0457 0 20 0C8.9543 0 0 8.9543 0 20C0 31.0457 8.9543 40 20 40Z" fill="#78A941"/>
<path d="M18.8003 37.6998C13.7003 36.9998 8.60033 34.0998 5.70033 29.8998C5.30033 29.3998 3.70033 26.1998 5.90033 26.9998C7.70033 27.6998 8.80033 29.4998 10.5003 30.4998C15.6003 33.1998 21.8003 33.9998 26.6003 30.1998C27.0003 29.8998 27.3003 29.5998 27.8003 29.3998C29.1003 28.7998 31.0003 29.5998 31.3003 30.9998C31.6003 32.2998 30.1003 34.3998 29.2003 35.2998C28.2003 36.1998 27.0003 36.7998 25.7003 37.1998C23.4003 37.8998 21.1003 37.9998 18.8003 37.6998Z" fill="#89B43F"/>
<path d="M17.8002 0.800108C16.9002 0.900108 16.0002 1.10011 15.1002 1.30011C12.8002 2.00011 10.0002 3.00011 8.10021 4.50011C6.90021 5.40011 6.00021 6.70011 5.10021 7.80011C4.30021 9.00011 3.50021 10.1001 2.60021 11.2001C1.90021 12.1001 1.20021 13.0001 1.00021 14.2001C0.600208 16.2001 2.30021 18.3001 4.30021 18.8001C7.40021 19.6001 9.90021 17.4001 12.3002 15.8001C15.1002 14.0001 18.3002 12.3001 21.4002 11.2001C24.8002 10.0001 28.4002 9.50011 31.9002 10.3001C33.2002 10.6001 34.4002 11.0001 35.5002 11.7001C37.2002 12.8001 38.4002 14.6001 38.9002 16.5001C37.6002 11.6001 35.1002 6.00011 30.3002 3.70011C26.2002 1.70011 22.3002 0.300108 17.8002 0.800108Z" fill="#87B43F"/>
<path opacity="0.8" d="M11.1996 5.8998C10.9996 5.7998 10.7996 5.7998 10.5996 5.7998C8.99961 5.9998 8.39961 7.3998 7.69961 8.5998C6.99961 9.9998 6.39961 11.4998 6.09961 12.9998C6.49961 11.6998 7.19961 10.4998 7.89961 9.3998C8.79961 7.8998 9.49961 7.8998 10.8996 7.0998C11.2996 6.8998 11.5996 6.3998 11.3996 5.9998C11.1996 5.9998 11.1996 5.9998 11.1996 5.8998Z" fill="white"/>
<path opacity="0.8" d="M12.2002 5.3998C11.9002 5.4998 11.7002 5.7998 11.7002 6.0998C11.9002 6.2998 12.2002 6.3998 12.5002 6.3998C12.8002 6.2998 12.9002 5.9998 12.8002 5.6998C12.7002 5.3998 12.4002 5.2998 12.1002 5.3998H12.2002Z" fill="white"/>
<path d="M28.2852 20.4686C29.793 18.9134 29.9429 12.6923 28.2852 14.2475C25.3288 17.4994 23.6113 18.987 20.3745 22.0239C19.8512 22.515 18.7451 22.5666 18.1141 22.0239C14.7235 19.1077 16.4391 20.911 12.2375 16.8815C11.3754 16.0547 10.7309 21.5474 12.2375 23.1026L17.3598 27.0786C18.8671 28.2451 19.6206 28.2451 21.1272 27.0786L28.2852 20.4686Z" fill="white"/>
</svg>
