<svg width="1366" height="844" viewBox="0 0 1366 844" fill="none" xmlns="http://www.w3.org/2000/svg">
<g clip-path="url(#clip0_1100_2)">
<rect width="1366" height="844" fill="#FCF8EE"/>
<path d="M1287 779.735H1393.72C1393.72 779.735 1389.15 744.455 1366.12 767.075C1366.12 767.075 1366.89 741.586 1349.81 740.067C1332.74 738.547 1331.06 763.53 1331.06 763.53C1331.06 763.53 1326.64 752.051 1316.73 753.571C1306.67 755.09 1306.97 770.957 1306.97 770.957C1306.97 770.957 1304.38 766.231 1298.28 768.425C1288.37 772.139 1287 779.735 1287 779.735Z" fill="#BED72D"/>
<path d="M128.67 421.555H25C25 421.555 29.4213 387.288 51.8322 409.401C51.8322 409.401 51.0699 384.588 67.6875 383.068C84.3051 381.549 85.9821 405.856 85.9821 405.856C85.9821 405.856 90.2509 394.547 99.8556 396.066C109.613 397.585 109.308 412.946 109.308 412.946C109.308 412.946 111.747 408.388 117.693 410.583C127.298 414.128 128.67 421.555 128.67 421.555Z" fill="#F6CDB8"/>
<path d="M1273 237.231H1349.23C1349.23 237.231 1346.03 212.08 1329.56 228.285C1329.56 228.285 1330.17 210.055 1317.97 209.042C1305.78 208.029 1304.56 225.753 1304.56 225.753C1304.56 225.753 1301.51 217.482 1294.34 218.663C1287.18 219.845 1287.33 231.155 1287.33 231.155C1287.33 231.155 1285.5 227.779 1281.08 229.467C1274.07 231.83 1273 237.231 1273 237.231Z" fill="#49BACA"/>
<path d="M330 125H393C393 125 390.354 103.619 376.746 117.395C376.746 117.395 377.25 101.897 367.17 101.036C357.09 100.175 356.082 115.242 356.082 115.242C356.082 115.242 353.562 108.211 347.64 109.215C341.718 110.22 341.844 119.834 341.844 119.834C341.844 119.834 340.332 116.964 336.678 118.399C330.882 120.408 330 125 330 125Z" fill="#C9B8C3"/>
<path d="M695 829H758C758 829 755.354 807.619 741.746 821.395C741.746 821.395 742.25 805.897 732.17 805.036C722.09 804.175 721.082 819.242 721.082 819.242C721.082 819.242 718.562 812.211 712.64 813.215C706.718 814.22 706.844 823.834 706.844 823.834C706.844 823.834 705.332 820.964 701.678 822.399C695.882 824.408 695 829 695 829Z" fill="#C9B8C3"/>
<path d="M61.7081 215.921L64.2998 209L67.6538 216.427L74.2094 216.934L68.5686 221.154L70.398 228.243L64.4523 224.361L57.8967 228.074L60.4884 220.647L55 217.102L61.7081 215.921Z" fill="#7F48C3"/>
<path d="M243.708 129.921L246.3 123L249.654 130.427L256.209 130.934L250.569 135.154L252.398 142.243L246.452 138.361L239.897 142.074L242.488 134.647L237 131.102L243.708 129.921Z" fill="#7F48C3"/>
<path d="M1130.37 139.833L1127.8 133L1124.48 140.333L1118 140.833L1123.58 145L1121.77 152L1127.65 148.167L1134.13 151.833L1131.57 144.5L1137 141L1130.37 139.833Z" fill="#7F48C3"/>
<path d="M112.967 37.0488L104.734 34.6855L103.514 39.412L113.881 40.9312L112.967 37.0488Z" fill="#F9B818"/>
<path d="M1260.97 47.2703L1269.71 45L1271 49.5406L1260 51L1260.97 47.2703Z" fill="#F9B818"/>
<path d="M24.7081 173.921L27.2998 167L30.6538 174.427L37.2094 174.934L31.5686 179.154L33.398 186.243L27.4523 182.361L20.8967 186.074L23.4884 178.647L18 175.102L24.7081 173.921Z" fill="#49BACA"/>
<path d="M493.708 43.9208L496.3 37L499.654 44.4272L506.209 44.9336L500.569 49.1536L502.398 56.2432L496.452 52.3608L489.897 56.0744L492.488 48.6472L487 45.1024L493.708 43.9208Z" fill="#49BACA"/>
<path d="M701.708 25.9208L704.3 19L707.654 26.4272L714.209 26.9336L708.569 31.1536L710.398 38.2432L704.452 34.3608L697.897 38.0744L700.488 30.6472L695 27.1024L701.708 25.9208Z" fill="#F6CDB8"/>
<path d="M71.2506 87.0897L71.8605 79.4937L77.0439 85.5704L83.2946 84.0512L79.1783 89.9592L82.6848 96.2048L75.9768 94.348L70.6409 99.9184L71.2506 91.9848L65 90.2968L71.2506 87.0897Z" fill="#F9B818"/>
<path d="M1302.85 96.8099L1302.25 89L1297.15 95.2479L1291 93.6859L1295.05 99.7603L1291.6 106.182L1298.2 104.273L1303.45 110L1302.85 101.843L1309 100.107L1302.85 96.8099Z" fill="#F9B818"/>
<path d="M71.2506 87.0901L71.8605 79.4941L77.0439 85.5709L83.2946 84.0517L79.1783 89.9597L82.6848 96.2053L75.9768 94.3485L70.6409 99.9189L71.2506 91.9853L65 90.2973L71.2506 87.0901Z" fill="#F9B818"/>
<path d="M1302.85 96.8099L1302.25 89L1297.15 95.2479L1291 93.6859L1295.05 99.7603L1291.6 106.182L1298.2 104.273L1303.45 110L1302.85 101.843L1309 100.107L1302.85 96.8099Z" fill="#F9B818"/>
<path d="M913.85 31.8099L913.25 24L908.15 30.2479L902 28.6859L906.05 34.7603L902.6 41.1818L909.2 39.2727L914.45 45L913.85 36.843L920 35.1075L913.85 31.8099Z" fill="#F9B818"/>
<path d="M350.251 45.596L350.86 38L356.044 44.0768L362.295 42.5576L358.178 48.4656L361.685 54.7112L354.977 52.8544L349.641 58.4248L350.251 50.4912L344 48.8032L350.251 45.596Z" fill="#F9B818"/>
<path d="M1024.51 55.438L1023.88 48L1018.49 53.9504L1012 52.4628L1016.28 58.2479L1012.63 64.3637L1019.6 62.5455L1025.14 68L1024.51 60.2314L1031 58.5785L1024.51 55.438Z" fill="#49BACA"/>
<path d="M40.4522 105.545L33.4392 110.609L31 106.726L40.2997 101.494L40.4522 105.545Z" fill="#C9B8C3"/>
<path d="M1334 115.444L1340.68 121L1343 116.741L1334.15 111L1334 115.444Z" fill="#C9B8C3"/>
<path d="M27.8966 57.1281L25 48.3505L28.9638 46.4937L31.4031 57.8033L27.8966 57.1281Z" fill="#E68888"/>
<path d="M1346.29 67.2836L1349 57.9702L1345.29 56L1343 68L1346.29 67.2836Z" fill="#E68888"/>
<path d="M32.8605 294.09L35.4523 287L38.8062 294.596L45.2093 294.934L39.721 299.322L41.398 306.412L35.4523 302.53L29.0491 306.074L31.4884 298.647L26 295.271L32.8605 294.09Z" fill="#F9B818"/>
<path d="M1222.86 284.09L1225.45 277L1228.81 284.596L1235.21 284.934L1229.72 289.322L1231.4 296.412L1225.45 292.53L1219.05 296.074L1221.49 288.647L1216 285.271L1222.86 284.09Z" fill="#F9B818"/>
<path d="M245.708 38.4145L248.3 31.4937L251.654 38.9208L258.209 39.4272L252.569 43.6472L254.398 50.7368L248.452 46.8545L241.897 50.568L244.488 43.1408L239 39.596L245.708 38.4145Z" fill="#A8C93A"/>
<path d="M1128.37 48.193L1125.8 41L1122.48 48.7193L1116 49.2456L1121.58 53.6316L1119.77 61L1125.65 56.9649L1132.13 60.8246L1129.57 53.1053L1135 49.421L1128.37 48.193Z" fill="#A8C93A"/>
<path d="M126.251 138.596L126.86 131L132.044 137.077L138.295 135.558L134.178 141.466L137.685 147.711L130.977 145.854L125.641 151.425L126.251 143.491L120 141.803L126.251 138.596Z" fill="#E74C4E"/>
<path d="M1247.85 148.438L1247.25 141L1242.15 146.95L1236 145.463L1240.05 151.248L1236.6 157.364L1243.2 155.545L1248.45 161L1247.85 153.231L1254 151.579L1247.85 148.438Z" fill="#E74C4E"/>
<path d="M144.251 349.596L144.86 342L150.044 348.077L156.295 346.558L152.178 352.466L155.685 358.711L148.977 356.854L143.641 362.425L144.251 354.491L138 352.803L144.251 349.596Z" fill="#E74C4E"/>
<path d="M1334.25 339.596L1334.86 332L1340.04 338.077L1346.29 336.558L1342.18 342.466L1345.68 348.711L1338.98 346.854L1333.64 352.425L1334.25 344.491L1328 342.803L1334.25 339.596Z" fill="#E74C4E"/>
<path d="M203.509 73.2797L196.496 78.3437L194.057 74.4613L203.356 69.2285L203.509 73.2797Z" fill="#C9B8C3"/>
<path d="M1171 83L1177.68 88L1180 84.1667L1171.15 79L1171 83Z" fill="#C9B8C3"/>
<path d="M1031 103L1037.68 108L1040 104.167L1031.15 99L1031 103Z" fill="#C9B8C3"/>
<path d="M961 83L967.677 88L970 84.1667L961.145 79L961 83Z" fill="#BED72D"/>
<path d="M831 33L837.677 38L840 34.1667L831.145 29L831 33Z" fill="#E74C4E"/>
<path d="M591 33L597.677 38L600 34.1667L591.145 29L591 33Z" fill="#7F48C3"/>
<path d="M411 73L417.677 78L420 74.1667L411.145 69L411 73Z" fill="#7F48C3"/>
<path d="M177.897 48.1281L175 39.3505L178.964 37.4937L181.403 48.8033L177.897 48.1281Z" fill="#E68888"/>
<path d="M1196.29 58.2836L1199 48.9702L1195.29 47L1193 59L1196.29 58.2836Z" fill="#E68888"/>
<path d="M35.15 780.19L35.75 788L40.8499 781.752L47 783.314L42.95 777.24L46.4 770.818L39.8 772.727L34.55 767L35.15 775.157L29 776.893L35.15 780.19Z" fill="#7F48C3"/>
<path d="M1225.15 770.19L1225.75 778L1230.85 771.752L1237 773.314L1232.95 767.24L1236.4 760.818L1229.8 762.727L1224.55 757L1225.15 765.157L1219 766.893L1225.15 770.19Z" fill="#7F48C3"/>
<path d="M28.15 665.19L28.75 673L33.8499 666.752L40 668.314L35.95 662.24L39.4 655.818L32.8 657.727L27.55 652L28.15 660.157L22 661.893L28.15 665.19Z" fill="#E74C4E"/>
<path d="M1218.15 655.19L1218.75 663L1223.85 656.752L1230 658.314L1225.95 652.24L1229.4 645.818L1222.8 647.727L1217.55 642L1218.15 650.157L1212 651.893L1218.15 655.19Z" fill="#E74C4E"/>
<path d="M1159.15 827.19L1159.75 835L1164.85 828.752L1171 830.314L1166.95 824.24L1170.4 817.818L1163.8 819.727L1158.55 814L1159.15 822.157L1153 823.893L1159.15 827.19Z" fill="#E74C4E"/>
<path d="M297.664 842.193L296.597 849.953L302.904 844.926L308.584 847.754L305.912 840.96L310.643 835.415L303.788 835.883L299.869 829.175L298.729 837.274L292.351 837.668L297.664 842.193Z" fill="#E74C4E"/>
<path d="M181.635 827.807L184.198 835L187.516 827.281L194 826.754L188.421 822.368L190.23 815L184.349 819.035L177.865 815.175L180.429 822.895L175 826.579L181.635 827.807Z" fill="#49BACA"/>
<path d="M81.7143 703.716L79 713.03L82.7143 715L85 703L81.7143 703.716Z" fill="#E68888"/>
<path d="M1271.71 693.716L1269 703.03L1272.71 705L1275 693L1271.71 693.716Z" fill="#E68888"/>
<path d="M96.1176 821.351L88.1765 824L87 818.703L97 817L96.1176 821.351Z" fill="#F9B818"/>
<path d="M1286.12 811.351L1278.18 814L1277 808.703L1287 807L1286.12 811.351Z" fill="#F9B818"/>
<path d="M139 753L131.581 748L129 751.833L138.839 757L139 753Z" fill="#C9B8C3"/>
<path d="M1248 439L1240.58 434L1238 437.833L1247.84 443L1248 439Z" fill="#7F48C3"/>
<path d="M24.7143 832.716L22 842.03L25.7143 844L28 832L24.7143 832.716Z" fill="#E68888"/>
<path d="M1214.71 822.716L1212 832.03L1215.71 834L1218 822L1214.71 822.716Z" fill="#E68888"/>
<path d="M850.714 808.716L848 818.03L851.714 820L854 808L850.714 808.716Z" fill="#BED72D"/>
<path d="M594.714 822.716L592 832.03L595.714 834L598 822L594.714 822.716Z" fill="#E68888"/>
<path d="M474.714 802.716L472 812.03L475.714 814L478 802L474.714 802.716Z" fill="#F9B818"/>
<path d="M108.635 590.526L111.198 597L114.516 590.053L121 589.579L115.421 585.632L117.23 579L111.349 582.632L104.865 579.158L107.429 586.105L102 589.421L108.635 590.526Z" fill="#49BACA"/>
<path d="M1298.63 580.526L1301.2 587L1304.52 580.053L1311 579.579L1305.42 575.632L1307.23 569L1301.35 572.632L1294.87 569.158L1297.43 576.105L1292 579.421L1298.63 580.526Z" fill="#49BACA"/>
<path d="M38 560L30.5806 555L28 558.833L37.8387 564L38 560Z" fill="#C9B8C3"/>
<path d="M1228 550L1220.58 545L1218 548.833L1227.84 554L1228 550Z" fill="#C9B8C3"/>
<path d="M396 834L388.581 829L386 832.833L395.839 838L396 834Z" fill="#C9B8C3"/>
<path d="M962 837L954.581 832L952 835.833L961.839 841L962 837Z" fill="#C9B8C3"/>
<path d="M1032 807L1024.58 802L1022 805.833L1031.84 811L1032 807Z" fill="#49BACA"/>
<path d="M247 836L239.581 831L237 834.833L246.839 840L247 836Z" fill="#C9B8C3"/>
<path d="M129 277L121.581 272L119 275.833L128.839 281L129 277Z" fill="#C9B8C3"/>
<path d="M1319 267L1311.58 262L1309 265.833L1318.84 271L1319 267Z" fill="#C9B8C3"/>
<path d="M148 500L140.581 495L138 498.833L147.839 504L148 500Z" fill="#F9B818"/>
<path d="M1338 490L1330.58 485L1328 488.833L1337.84 494L1338 490Z" fill="#F9B818"/>
<path d="M31.6349 480.807L34.1984 488L37.5158 480.281L44 479.754L38.4206 475.368L40.2302 468L34.3492 472.035L27.8651 468.175L30.4286 475.895L25 479.579L31.6349 480.807Z" fill="#A8C93A"/>
<path d="M1311.63 430.807L1314.2 438L1317.52 430.281L1324 429.754L1318.42 425.368L1320.23 418L1314.35 422.035L1307.87 418.175L1310.43 425.895L1305 429.579L1311.63 430.807Z" fill="#A8C93A"/>
<path d="M144.15 697.19L144.75 705L149.85 698.752L156 700.314L151.95 694.24L155.4 687.818L148.8 689.727L143.55 684L144.15 692.157L138 693.893L144.15 697.19Z" fill="#F9B818"/>
<path d="M1334.15 687.19L1334.75 695L1339.85 688.752L1346 690.314L1341.95 684.24L1345.4 677.818L1338.8 679.727L1333.55 674L1334.15 682.157L1328 683.893L1334.15 687.19Z" fill="#F9B818"/>
<path d="M1074.86 837.09L1077.45 830L1080.81 837.596L1087.21 837.934L1081.72 842.322L1083.4 849.412L1077.45 845.53L1071.05 849.074L1073.49 841.647L1068 838.271L1074.86 837.09Z" fill="#F9B818"/>
</g>
<defs>
<clipPath id="clip0_1100_2">
<rect width="1366" height="844" fill="white"/>
</clipPath>
</defs>
</svg>
