<svg width="430" height="149" viewBox="0 0 430 149" fill="none" xmlns="http://www.w3.org/2000/svg">
<path d="M216.312 72.1895L209.246 103.634L362.269 117.397L364.894 105.341L216.312 72.1895Z" fill="#373636"/>
<path d="M216.312 72.1892L209.247 103.633L65.005 51.193L67.7304 39.1377L216.312 72.1892Z" fill="#373636"/>
<path d="M357.354 117.455H369.769V87.5181H357.354V117.455Z" fill="#373636"/>
<path d="M373.696 111.236C373.727 105.688 369.232 101.165 363.657 101.135C358.083 101.105 353.539 105.578 353.508 111.127C353.478 116.675 357.973 121.197 363.548 121.227C369.122 121.257 373.666 116.784 373.696 111.236Z" fill="#D9DADB"/>
<path d="M357.728 111.167C357.728 114.382 360.352 117.095 363.683 117.095C366.913 117.095 369.638 114.483 369.638 111.167C369.638 107.852 367.014 105.24 363.683 105.24C360.352 105.341 357.728 107.953 357.728 111.167Z" fill="#4C4C4C"/>
<path d="M360.655 111.168C360.655 112.775 361.968 114.081 363.583 114.081C365.198 114.081 366.51 112.775 366.51 111.168C366.51 109.56 365.198 108.254 363.583 108.254C361.968 108.254 360.655 109.56 360.655 111.168Z" fill="#373636"/>
<path d="M325.428 93.7873H401.839C414.456 93.7873 424.651 83.6408 424.651 71.0833H302.616C302.616 83.6408 312.81 93.7873 325.428 93.7873Z" fill="#F7C613"/>
<path d="M300.092 72.7915H427.073C428.688 72.7915 430 71.4856 430 69.8782C430 68.2709 428.688 66.9648 427.073 66.9648H300.092C298.477 66.9648 297.164 68.2709 297.164 69.8782C297.164 71.4856 298.477 72.7915 300.092 72.7915Z" fill="#EFAD1E"/>
<path d="M60.23 51.3264H72.6455V21.3892H60.23V51.3264Z" fill="#373636"/>
<path d="M66.4728 55.1187C72.0475 55.0892 76.5426 50.5675 76.513 45.0192C76.4833 39.4709 71.9401 34.9971 66.3654 35.0266C60.7907 35.0561 56.2955 39.5778 56.3252 45.1261C56.3548 50.6744 60.8981 55.1482 66.4728 55.1187Z" fill="#D9DADB"/>
<path d="M66.4183 50.9921C69.7074 50.9921 72.3737 48.3384 72.3737 45.0649C72.3737 41.7914 69.7074 39.1377 66.4183 39.1377C63.1292 39.1377 60.4629 41.7914 60.4629 45.0649C60.4629 48.3384 63.1292 50.9921 66.4183 50.9921Z" fill="#4C4C4C"/>
<path d="M66.4182 47.9784C68.0349 47.9784 69.3454 46.674 69.3454 45.065C69.3454 43.456 68.0349 42.1516 66.4182 42.1516C64.8015 42.1516 63.491 43.456 63.491 45.065C63.491 46.674 64.8015 47.9784 66.4182 47.9784Z" fill="#373636"/>
<path d="M28.1623 27.6851H104.573C117.19 27.6851 127.385 17.5385 127.385 4.98096H5.45105C5.45105 17.5385 15.6459 27.6851 28.1623 27.6851Z" fill="#F7C613"/>
<path d="M2.92723 6.68949H129.908C131.523 6.68949 132.836 5.38354 132.836 3.77617C132.836 2.1688 131.523 0.862793 129.908 0.862793H2.92723C1.31221 0.862793 0 2.1688 0 3.77617C0 5.38354 1.31221 6.68949 2.92723 6.68949Z" fill="#EFAD1E"/>
<path d="M215.15 94.9538C220.672 94.9538 225.148 90.4728 225.148 84.9451C225.148 79.4175 220.672 74.9365 215.15 74.9365C209.628 74.9365 205.152 79.4175 205.152 84.9451C205.152 90.4728 209.628 94.9538 215.15 94.9538Z" fill="#D9DADB"/>
<path d="M215.15 90.85C218.407 90.85 221.048 88.2062 221.048 84.9449C221.048 81.6836 218.407 79.0398 215.15 79.0398C211.892 79.0398 209.251 81.6836 209.251 84.9449C209.251 88.2062 211.892 90.85 215.15 90.85Z" fill="#4C4C4C"/>
<path d="M215.149 87.8473C216.751 87.8473 218.049 86.5478 218.049 84.9448C218.049 83.3418 216.751 82.0422 215.149 82.0422C213.548 82.0422 212.25 83.3418 212.25 84.9448C212.25 86.5478 213.548 87.8473 215.149 87.8473Z" fill="#373636"/>
<path d="M234.945 138.591H195.454V69.2312C195.454 58.3218 204.252 49.5142 215.15 49.5142C226.047 49.5142 234.845 58.3218 234.845 69.2312V138.591H234.945Z" fill="#4C4C4C"/>
<path d="M257.64 149H172.76C174.959 142.695 180.958 138.591 187.556 138.591H242.843C249.442 138.591 255.341 142.795 257.64 149Z" fill="#4C4C4C"/>
<path d="M215.15 94.9538C220.672 94.9538 225.148 90.4728 225.148 84.9451C225.148 79.4175 220.672 74.9365 215.15 74.9365C209.628 74.9365 205.152 79.4175 205.152 84.9451C205.152 90.4728 209.628 94.9538 215.15 94.9538Z" fill="#D9DADB"/>
<path d="M215.15 90.85C218.407 90.85 221.048 88.2062 221.048 84.9449C221.048 81.6836 218.407 79.0398 215.15 79.0398C211.892 79.0398 209.251 81.6836 209.251 84.9449C209.251 88.2062 211.892 90.85 215.15 90.85Z" fill="#4C4C4C"/>
<path d="M215.149 87.8473C216.751 87.8473 218.049 86.5478 218.049 84.9448C218.049 83.3418 216.751 82.0422 215.149 82.0422C213.548 82.0422 212.25 83.3418 212.25 84.9448C212.25 86.5478 213.548 87.8473 215.149 87.8473Z" fill="#373636"/>
</svg>
