<svg xmlns="http://www.w3.org/2000/svg" viewBox="0 0 20 16.7"><defs><style>.cls-1{fill:#fff;}</style></defs><g id="Layer_2" data-name="Layer 2"><g id="Layer_1-2" data-name="Layer 1"><polygon class="cls-1" points="20 6.42 14.77 8.33 14.72 15.52 11.48 12.84 9.47 16.7 0 0 20 6.42"/><path class="cls-1" d="M14.77,8.53a.16.16,0,0,1-.1,0L.25.49A.2.2,0,0,1,.17.21.2.2,0,0,1,.45.13l14.42,8a.21.21,0,0,1,.08.28A.2.2,0,0,1,14.77,8.53Z"/><path class="cls-1" d="M14.72,15.73a.21.21,0,0,1-.18-.12l-2.48-5.13a.21.21,0,1,1,.37-.18l2.48,5.13a.22.22,0,0,1-.1.28Z"/><path class="cls-1" d="M12.24,10.6a.21.21,0,0,1-.13,0L.21.47a.22.22,0,0,1,0-.29.21.21,0,0,1,.29,0l11.9,10.08a.22.22,0,0,1,0,.29A.21.21,0,0,1,12.24,10.6Z"/><path class="cls-1" d="M11.48,13.05h-.06a.22.22,0,0,1-.14-.26L12,10.33a.21.21,0,0,1,.4.12l-.76,2.45A.21.21,0,0,1,11.48,13.05Z"/></g></g></svg>