<svg width="67" height="68" viewBox="0 0 67 68" fill="none" xmlns="http://www.w3.org/2000/svg">
<path fill-rule="evenodd" clip-rule="evenodd" d="M19.7005 12.194C22.0281 18.847 27.2167 17.3901 23.6283 21.5664C21.7372 23.8003 23.5798 24.723 17.4699 19.3326C13.6875 16.0304 1.17665 19.0412 4.23163 7.28928C5.05599 3.98708 16.1606 2.14172 19.7005 12.194Z" fill="#78A941"/>
<path fill-rule="evenodd" clip-rule="evenodd" d="M10.2444 8.69777C7.67435 8.84345 9.08061 12.2913 10.9718 11.0773C12.8145 9.8147 10.7293 8.50352 10.2444 8.69777Z" fill="#001C4A"/>
<path fill-rule="evenodd" clip-rule="evenodd" d="M9.90461 9.03759C8.64382 9.08615 9.32272 10.8344 10.2441 10.2031C11.1654 9.57178 10.1471 8.94046 9.90461 9.03759Z" fill="white"/>
<path fill-rule="evenodd" clip-rule="evenodd" d="M32.0651 12.7768C31.0953 5.34686 42.9273 -3.15147 45.7883 1.17053C44.576 4.27849 38.8539 3.69575 39.2904 13.7966C39.3389 14.7193 33.6169 18.847 33.2774 18.0214C32.1136 15.0592 32.3076 14.6707 32.0651 12.7768Z" fill="#78A941"/>
<path fill-rule="evenodd" clip-rule="evenodd" d="M15.0937 30.6481C7.96541 28.1229 -2.94523 37.7382 0.740148 41.4289C4.03759 40.8947 4.71648 35.2615 14.5603 37.8353C15.4817 38.0781 20.7188 33.4162 19.9914 32.9306C17.3243 31.1824 16.9364 31.2794 15.0937 30.6481Z" fill="#78A941"/>
<path fill-rule="evenodd" clip-rule="evenodd" d="M51.7537 28.6562C58.882 26.131 70.2776 32.8811 66.1073 39.4369C64.1676 37.543 60.4822 30.89 50.5899 33.4638C49.6686 33.7066 46.0802 31.4242 46.8561 30.9386C49.4746 29.1904 49.9111 29.336 51.7537 28.6562Z" fill="#78A941"/>
<path fill-rule="evenodd" clip-rule="evenodd" d="M30.6597 55.5602C30.2717 63.0387 40.0186 71.9741 45.2072 66.0981C42.8311 64.7869 35.3149 63.1844 34.9755 53.0836C34.927 52.1609 31.7265 49.3929 31.4355 50.267C30.5142 53.2778 30.7567 53.6177 30.6597 55.5602Z" fill="#78A941"/>
<path fill-rule="evenodd" clip-rule="evenodd" d="M21.0583 53.4706C26.1499 59.0552 45.0617 62.8917 50.7353 56.2387C55.342 50.8483 58.9303 40.4076 56.5057 32.3949C45.8375 -3.10379 -7.93983 21.6141 21.0583 53.4706Z" fill="#FFB43B"/>
<path fill-rule="evenodd" clip-rule="evenodd" d="M4.66797 13.3107C4.81344 13.2621 6.89861 13.4564 7.86844 13.0194C7.96543 12.9708 8.45032 12.6794 8.45032 12.6794C9.03222 13.165 6.60766 14.282 4.71648 13.4564C4.66799 13.505 4.66797 13.3107 4.66797 13.3107Z" fill="#001C4A"/>
<path fill-rule="evenodd" clip-rule="evenodd" d="M18.3428 23.1208C18.7307 23.218 20.8158 20.8384 22.61 20.2071C23.3859 19.9158 30.6112 16.565 30.5627 17.8762C30.4657 20.1586 33.1328 29.0939 31.5811 30.1623C30.4172 30.9878 29.8838 31.6678 29.4959 31.9106C28.1866 32.7847 20.04 25.3547 18.3428 23.1208Z" fill="#FF3612"/>
<path fill-rule="evenodd" clip-rule="evenodd" d="M32.3089 18.4101C31.8724 19.867 32.4543 30.3077 35.4123 30.3077C41.7647 30.2106 38.0793 35.6495 43.4134 22.2465C45.2076 17.7302 43.9469 19.2357 37.449 17.1475C36.0912 16.7105 32.9877 16.1763 32.3089 18.4101Z" fill="#FF3612"/>
<path fill-rule="evenodd" clip-rule="evenodd" d="M21.7852 52.5008C22.1731 52.4036 24.2583 54.7832 26.0525 55.4145C26.8283 55.7058 34.0536 59.0566 34.0051 57.7455C33.9081 55.463 36.5752 46.5277 35.0234 45.4593C33.8596 44.6337 33.3262 43.9539 32.9383 43.7111C31.629 42.7884 23.4824 50.2184 21.7852 52.5008Z" fill="#FF3612"/>
<path fill-rule="evenodd" clip-rule="evenodd" d="M35.7503 57.1628C35.3138 55.7059 35.8957 45.2652 38.8537 45.2652C45.2062 45.3623 41.5208 39.9234 46.8549 53.3264C48.6491 57.8427 47.3883 56.3372 40.8904 58.4254C39.5326 58.911 36.4291 59.3966 35.7503 57.1628Z" fill="#FF3612"/>
<path fill-rule="evenodd" clip-rule="evenodd" d="M14.415 39.5341C14.803 39.6798 15.2394 42.7878 16.3062 44.2932C16.7911 44.9245 20.9129 51.7231 21.5918 50.6062C22.8041 48.6152 29.9809 42.6906 29.302 40.9424C28.8171 39.6312 28.7201 38.7571 28.5746 38.3201C27.9927 36.8632 17.0821 38.6114 14.415 39.5341Z" fill="#FF3612"/>
<path fill-rule="evenodd" clip-rule="evenodd" d="M55.2935 31.7645C55.051 32.1045 56.2148 34.9696 56.0208 36.8635C55.9239 37.6405 55.7299 45.6046 54.5661 44.9248C52.5294 43.8078 43.316 42.1567 43.0251 40.2628C42.8311 38.9031 42.4432 38.0775 42.3947 37.6405C42.1037 36.0865 52.4809 32.2501 55.2935 31.7645Z" fill="#FF3612"/>
<path fill-rule="evenodd" clip-rule="evenodd" d="M46.0315 20.11C46.08 20.4985 48.844 21.9068 49.9593 23.4608C50.4442 24.0921 55.5359 30.2109 54.2266 30.5023C51.9475 30.9879 43.8979 35.7955 42.4431 34.5815C41.3763 33.7074 41.6673 34.0473 41.3278 33.7559C40.164 32.6875 44.2373 22.2953 46.0315 20.11Z" fill="#FF3612"/>
<path fill-rule="evenodd" clip-rule="evenodd" d="M55.0504 45.7511C54.6625 45.7997 54.1291 48.5677 53.0138 50.3645C52.5773 51.0443 49.2314 56.5318 48.795 55.2692C48.0676 53.0839 43.4609 44.6341 43.9458 43.5172C44.4792 42.206 44.3822 42.9345 44.5762 42.546C44.8186 41.9632 52.6743 44.2457 55.0504 45.7511Z" fill="#FF3612"/>
<path fill-rule="evenodd" clip-rule="evenodd" d="M18.0031 24.4796C18.1486 24.8681 16.0634 28.753 15.0936 30.6469C14.7056 31.3754 13.4934 38.0769 14.8026 37.737C17.0818 37.2028 26.7316 36.62 27.459 35.6974C28.2834 34.5805 27.75 35.0175 27.9924 34.6776C28.3319 34.1434 20.5732 25.6937 18.0031 24.4796Z" fill="#FF3612"/>
<path fill-rule="evenodd" clip-rule="evenodd" d="M29.9321 33.5132C29.9806 33.4161 32.6476 30.8423 32.7446 30.8423C34.0054 30.8423 36.7209 32.1049 38.7576 32.2991C38.9516 32.2991 40.5518 34.4845 40.7457 34.8244C41.1822 35.4557 41.1822 35.2614 40.8428 36.087C39.9214 38.3208 42.1035 41.0888 41.6671 41.4773C40.7942 42.2058 39.3395 43.4684 38.2727 43.8569C37.4968 44.1482 38.1757 44.4396 36.7694 43.6626C36.3815 43.4684 32.9871 42.1087 32.5992 42.1087C32.5992 42.1087 31.6293 40.6518 31.4353 40.1662C31.0474 39.2921 30.5625 38.0294 29.9321 37.3496C29.8351 37.301 29.8351 33.7074 29.9321 33.5132Z" fill="#FF3612"/>
<path fill-rule="evenodd" clip-rule="evenodd" d="M32.9875 31.3763C32.0661 31.8127 33.5209 32.5401 33.3754 31.5703C33.3269 31.4248 33.036 31.3763 32.9875 31.3763Z" fill="#EE824F"/>
<path fill-rule="evenodd" clip-rule="evenodd" d="M38.2238 32.6387C37.3025 33.0751 38.7572 33.8025 38.6118 32.8326C38.5633 32.6872 38.2723 32.5902 38.2238 32.6387Z" fill="#EE824F"/>
<path fill-rule="evenodd" clip-rule="evenodd" d="M40.2609 35.2118C39.3396 35.6482 40.7944 36.3756 40.6489 35.4057C40.6004 35.2603 40.3094 35.1633 40.2609 35.2118Z" fill="#EE824F"/>
<path fill-rule="evenodd" clip-rule="evenodd" d="M40.7941 40.7971C39.8728 41.2335 41.3275 41.9609 41.182 40.991C41.1335 40.8456 40.8426 40.7971 40.7941 40.7971Z" fill="#EE824F"/>
<path fill-rule="evenodd" clip-rule="evenodd" d="M37.6916 43.0307C36.7702 43.4671 38.225 44.1945 38.0795 43.2247C38.031 43.0792 37.6916 42.9822 37.6916 43.0307Z" fill="#EE824F"/>
<path fill-rule="evenodd" clip-rule="evenodd" d="M32.9875 41.2342C32.0661 41.6706 33.5209 42.398 33.3754 41.4281C33.3269 41.2827 33.036 41.1857 32.9875 41.2342Z" fill="#EE824F"/>
<path fill-rule="evenodd" clip-rule="evenodd" d="M30.6105 36.8148C29.6892 37.2512 31.1439 37.9786 30.9984 37.0087C30.9499 36.8633 30.659 36.8148 30.6105 36.8148Z" fill="#EE824F"/>
<path fill-rule="evenodd" clip-rule="evenodd" d="M30.6105 33.4633C29.6892 33.8997 31.1439 34.6271 30.9984 33.6572C30.9499 33.5118 30.659 33.4633 30.6105 33.4633Z" fill="#EE824F"/>
<path fill-rule="evenodd" clip-rule="evenodd" d="M35.799 36.67C34.8777 37.1065 36.3324 37.8339 36.187 36.864C36.1385 36.7185 35.8475 36.67 35.799 36.67Z" fill="#EE824F"/>
<path fill-rule="evenodd" clip-rule="evenodd" d="M34.5385 35.9894C34.0051 36.2803 34.8295 36.6683 34.7325 36.1349C34.7325 35.9894 34.5385 35.9894 34.5385 35.9894Z" fill="#EE824F"/>
<path fill-rule="evenodd" clip-rule="evenodd" d="M33.4721 35.2608C32.9387 35.5518 33.7631 35.9397 33.6661 35.4063C33.6661 35.2608 33.4721 35.2608 33.4721 35.2608Z" fill="#EE824F"/>
<path fill-rule="evenodd" clip-rule="evenodd" d="M32.1635 34.3386C31.6301 34.6295 32.4545 35.0174 32.3575 34.484C32.3575 34.387 32.1635 34.3386 32.1635 34.3386Z" fill="#EE824F"/>
<path fill-rule="evenodd" clip-rule="evenodd" d="M36.1878 35.7939C35.6544 35.4544 35.7514 36.4243 36.1878 36.0363C36.2848 35.9878 36.2363 35.8424 36.1878 35.7939Z" fill="#EE824F"/>
<path fill-rule="evenodd" clip-rule="evenodd" d="M36.2845 34.5323C35.7511 34.1928 35.8481 35.1627 36.2845 34.7747C36.3815 34.7262 36.333 34.5323 36.2845 34.5323Z" fill="#EE824F"/>
<path fill-rule="evenodd" clip-rule="evenodd" d="M36.3822 32.9783C35.8488 32.6388 35.9457 33.6087 36.3822 33.2207C36.4792 33.1237 36.4307 32.9783 36.3822 32.9783Z" fill="#EE824F"/>
<path fill-rule="evenodd" clip-rule="evenodd" d="M35.7035 40.894C35.1701 40.5545 35.267 41.5244 35.7035 41.1364C35.8004 41.0879 35.7035 40.894 35.7035 40.894Z" fill="#EE824F"/>
<path fill-rule="evenodd" clip-rule="evenodd" d="M35.7992 39.6314C35.2658 39.292 35.3627 40.2618 35.7992 39.8739C35.8477 39.8254 35.7992 39.6314 35.7992 39.6314Z" fill="#EE824F"/>
<path fill-rule="evenodd" clip-rule="evenodd" d="M35.8968 38.0285C35.3634 37.689 35.4604 38.6589 35.8968 38.2709C35.9453 38.2225 35.8968 38.077 35.8968 38.0285Z" fill="#EE824F"/>
<path fill-rule="evenodd" clip-rule="evenodd" d="M39.5343 38.7081C39.0009 38.9991 39.8737 39.387 39.7767 38.8051C39.7282 38.7081 39.5343 38.7081 39.5343 38.7081Z" fill="#EE824F"/>
<path fill-rule="evenodd" clip-rule="evenodd" d="M38.4181 38.0778C37.8847 38.3688 38.7575 38.7567 38.6605 38.1748C38.612 38.0778 38.4181 38.0293 38.4181 38.0778Z" fill="#EE824F"/>
<path fill-rule="evenodd" clip-rule="evenodd" d="M37.0118 37.252C36.4784 37.5429 37.3513 37.9308 37.2543 37.3489C37.2058 37.3004 37.0603 37.252 37.0118 37.252Z" fill="#EE824F"/>
<path fill-rule="evenodd" clip-rule="evenodd" d="M34.636 37.494C34.5875 38.1244 35.3634 37.591 34.8784 37.397C34.733 37.3 34.636 37.4455 34.636 37.494Z" fill="#EE824F"/>
<path fill-rule="evenodd" clip-rule="evenodd" d="M33.4231 37.9808C33.3746 38.6112 34.1505 38.0778 33.6656 37.8838C33.5686 37.8353 33.4231 37.9808 33.4231 37.9808Z" fill="#EE824F"/>
<path fill-rule="evenodd" clip-rule="evenodd" d="M31.969 38.6597C31.9205 39.2901 32.6964 38.7567 32.2115 38.5628C32.1145 38.4658 31.969 38.6112 31.969 38.6597Z" fill="#EE824F"/>
<path fill-rule="evenodd" clip-rule="evenodd" d="M39.1946 35.3579C39.1461 35.9883 39.922 35.4548 39.437 35.2609C39.3401 35.2124 39.1946 35.3579 39.1946 35.3579Z" fill="#EE824F"/>
<path fill-rule="evenodd" clip-rule="evenodd" d="M38.0295 35.8922C37.981 36.5226 38.7569 35.9892 38.272 35.7953C38.175 35.7468 38.0295 35.8437 38.0295 35.8922Z" fill="#EE824F"/>
<path fill-rule="evenodd" clip-rule="evenodd" d="M36.5754 36.5237C36.5269 37.1541 37.3028 36.6206 36.8179 36.4266C36.7209 36.3782 36.5754 36.5237 36.5754 36.5237Z" fill="#EE824F"/>
<path fill-rule="evenodd" clip-rule="evenodd" d="M32.4543 44.0997C31.5329 44.5361 32.9877 45.2635 32.8422 44.2936C32.7937 44.1482 32.5028 44.0997 32.4543 44.0997Z" fill="#EE824F"/>
<path fill-rule="evenodd" clip-rule="evenodd" d="M34.5871 46.1377C33.6657 46.5741 35.1205 47.3015 34.975 46.3317C34.9266 46.1862 34.6356 46.0892 34.5871 46.1377Z" fill="#EE824F"/>
<path fill-rule="evenodd" clip-rule="evenodd" d="M33.3752 56.9199C32.4538 57.3563 33.9086 58.0837 33.7631 57.1138C33.7146 56.9684 33.3752 56.9199 33.3752 56.9199Z" fill="#EE824F"/>
<path fill-rule="evenodd" clip-rule="evenodd" d="M23.0471 51.8197C22.1257 52.2561 23.5805 52.9834 23.435 52.0136C23.3865 51.8681 23.0471 51.7712 23.0471 51.8197Z" fill="#EE824F"/>
<path fill-rule="evenodd" clip-rule="evenodd" d="M20.9123 49.3924C19.9909 49.8288 21.4457 50.5561 21.3002 49.5863C21.2517 49.4408 20.9123 49.3439 20.9123 49.3924Z" fill="#EE824F"/>
<path fill-rule="evenodd" clip-rule="evenodd" d="M15.7238 39.9228C14.8025 40.3592 16.2572 41.0865 16.1118 40.1167C16.0633 39.9712 15.7723 39.9228 15.7238 39.9228Z" fill="#EE824F"/>
<path fill-rule="evenodd" clip-rule="evenodd" d="M27.7014 38.272C26.78 38.7084 28.2347 39.4358 28.0893 38.466C28.0408 38.3205 27.7498 38.272 27.7014 38.272Z" fill="#EE824F"/>
<path fill-rule="evenodd" clip-rule="evenodd" d="M28.6232 41.2342C27.7019 41.6706 29.1567 42.398 29.0112 41.4281C28.9627 41.2827 28.6232 41.1857 28.6232 41.2342Z" fill="#EE824F"/>
<path fill-rule="evenodd" clip-rule="evenodd" d="M26.925 34.3865C26.0036 34.8229 27.4584 35.5503 27.3129 34.5805C27.2644 34.435 26.9735 34.3865 26.925 34.3865Z" fill="#EE824F"/>
<path fill-rule="evenodd" clip-rule="evenodd" d="M18.3918 25.7432C17.4704 26.1796 18.9252 26.907 18.7797 25.9371C18.7312 25.7917 18.4403 25.7432 18.3918 25.7432Z" fill="#EE824F"/>
<path fill-rule="evenodd" clip-rule="evenodd" d="M15.2873 36.2798C14.3659 36.7163 15.8207 37.4436 15.6752 36.4738C15.6267 36.3768 15.3358 36.2798 15.2873 36.2798Z" fill="#EE824F"/>
<path fill-rule="evenodd" clip-rule="evenodd" d="M42.7346 45.0708C41.8132 45.5072 43.2679 46.2346 43.1225 45.2648C43.074 45.1193 42.7831 45.0708 42.7346 45.0708Z" fill="#EE824F"/>
<path fill-rule="evenodd" clip-rule="evenodd" d="M38.6613 45.7985C37.74 46.2349 39.1947 46.9623 39.0492 45.9924C39.0007 45.847 38.7098 45.7985 38.6613 45.7985Z" fill="#EE824F"/>
<path fill-rule="evenodd" clip-rule="evenodd" d="M37.0607 57.4528C36.1394 57.8892 37.5942 58.6166 37.4487 57.6468C37.4002 57.5013 37.1092 57.4043 37.0607 57.4528Z" fill="#EE824F"/>
<path fill-rule="evenodd" clip-rule="evenodd" d="M46.5646 55.7541C45.6433 56.1905 47.0981 56.9179 46.9526 55.948C46.9041 55.8026 46.5646 55.7056 46.5646 55.7541Z" fill="#EE824F"/>
<path fill-rule="evenodd" clip-rule="evenodd" d="M44.9641 42.9818C44.0427 43.4182 45.4974 44.1456 45.352 43.1758C45.3035 43.0303 45.0125 42.9333 44.9641 42.9818Z" fill="#EE824F"/>
<path fill-rule="evenodd" clip-rule="evenodd" d="M49.0871 53.2769C48.1658 53.7133 49.6205 54.4407 49.475 53.4708C49.4265 53.3253 49.1356 53.2284 49.0871 53.2769Z" fill="#EE824F"/>
<path fill-rule="evenodd" clip-rule="evenodd" d="M53.8869 45.9442C52.9656 46.3806 54.4203 47.108 54.2748 46.1381C54.2263 46.0411 53.9354 45.9442 53.8869 45.9442Z" fill="#EE824F"/>
<path fill-rule="evenodd" clip-rule="evenodd" d="M43.2678 37.2029C42.3464 37.6393 43.8011 38.3667 43.6557 37.3969C43.6072 37.2514 43.3163 37.1544 43.2678 37.2029Z" fill="#EE824F"/>
<path fill-rule="evenodd" clip-rule="evenodd" d="M43.8498 39.8258C42.9284 40.2623 44.3832 40.9897 44.2377 40.0198C44.1893 39.8743 43.8983 39.7774 43.8498 39.8258Z" fill="#EE824F"/>
<path fill-rule="evenodd" clip-rule="evenodd" d="M54.4689 32.2506C53.5476 32.687 55.0024 33.4144 54.8569 32.4446C54.8084 32.2991 54.4689 32.2506 54.4689 32.2506Z" fill="#EE824F"/>
<path fill-rule="evenodd" clip-rule="evenodd" d="M54.2258 43.4679C53.3044 43.9043 54.7592 44.6317 54.6137 43.6619C54.5652 43.5164 54.2743 43.4679 54.2258 43.4679Z" fill="#EE824F"/>
<path fill-rule="evenodd" clip-rule="evenodd" d="M43.4123 33.6588C42.4909 34.0952 43.9457 34.8226 43.8002 33.8528C43.7518 33.7073 43.4123 33.6103 43.4123 33.6588Z" fill="#EE824F"/>
<path fill-rule="evenodd" clip-rule="evenodd" d="M53.1603 29.5308C52.239 29.9672 53.6937 30.6946 53.5482 29.7248C53.4997 29.5793 53.2088 29.5308 53.1603 29.5308Z" fill="#EE824F"/>
<path fill-rule="evenodd" clip-rule="evenodd" d="M46.3703 21.1779C45.449 21.6143 46.9037 22.3417 46.7582 21.3719C46.7097 21.2264 46.3703 21.1294 46.3703 21.1779Z" fill="#EE824F"/>
<path fill-rule="evenodd" clip-rule="evenodd" d="M42.2492 31.9103C41.3279 32.3467 42.7826 33.074 42.6371 32.1042C42.5886 31.9587 42.2977 31.9103 42.2492 31.9103Z" fill="#EE824F"/>
<path fill-rule="evenodd" clip-rule="evenodd" d="M43.1701 19.2347C42.2488 19.6712 43.7035 20.3986 43.5581 19.4287C43.5096 19.2832 43.2186 19.2347 43.1701 19.2347Z" fill="#EE824F"/>
<path fill-rule="evenodd" clip-rule="evenodd" d="M34.0539 17.1947C33.1326 17.6311 34.5873 18.3585 34.4418 17.3887C34.3933 17.2432 34.1024 17.1947 34.0539 17.1947Z" fill="#EE824F"/>
<path fill-rule="evenodd" clip-rule="evenodd" d="M34.7814 28.8501C33.8601 29.2865 35.3148 30.0139 35.1693 29.0441C35.1208 28.8986 34.8299 28.8016 34.7814 28.8501Z" fill="#EE824F"/>
<path fill-rule="evenodd" clip-rule="evenodd" d="M39.2912 29.8222C38.3698 30.2586 39.8246 30.986 39.6792 30.0162C39.6307 29.8707 39.2912 29.7737 39.2912 29.8222Z" fill="#EE824F"/>
<path fill-rule="evenodd" clip-rule="evenodd" d="M29.4963 18.4092C28.5749 18.8456 30.0297 19.573 29.8842 18.6032C29.7872 18.4577 29.4963 18.3607 29.4963 18.4092Z" fill="#EE824F"/>
<path fill-rule="evenodd" clip-rule="evenodd" d="M19.5549 23.0225C18.6335 23.4589 20.0883 24.1863 19.9428 23.2164C19.8943 23.071 19.6034 23.0225 19.5549 23.0225Z" fill="#EE824F"/>
<path fill-rule="evenodd" clip-rule="evenodd" d="M29.2053 30.454C28.2839 30.8904 29.7386 31.6177 29.5932 30.6479C29.5447 30.5024 29.2538 30.4055 29.2053 30.454Z" fill="#EE824F"/>
</svg>
