<svg width="151" height="145" viewBox="0 0 151 145" fill="none" xmlns="http://www.w3.org/2000/svg">
<path d="M50.8857 130.44C50.8857 130.44 69.2086 119.447 99.9476 128.767C99.9476 128.767 93.5587 136.893 74.392 136.893C55.2254 136.893 50.8857 130.44 50.8857 130.44Z" fill="#F7B76B"/>
<path d="M50.8857 130.44C50.8857 130.44 69.2086 119.447 99.9476 128.767C99.9476 128.767 93.5587 136.893 74.392 136.893C55.2254 136.893 50.8857 130.44 50.8857 130.44Z" fill="#F7B76B"/>
<path opacity="0.42" d="M63.4224 127.573C63.9046 127.095 64.3868 126.497 64.869 125.9C55.8281 127.453 50.8857 130.321 50.8857 130.321C50.8857 130.321 52.3323 132.472 57.1541 134.264C59.2034 131.994 61.4937 129.843 63.4224 127.573Z" fill="#D79A3F"/>
<path opacity="0.42" d="M95.2459 127.453C94.0401 129.604 92.7137 131.874 91.5078 134.025C97.6576 131.635 100.069 128.648 100.069 128.648C98.3811 128.289 96.8135 127.811 95.2459 127.453Z" fill="#D79A3F"/>
<path d="M50.8844 130.44L50.1611 136.893C50.1611 136.893 60.1664 144.302 75.5962 144.302C91.0259 144.302 100.67 136.534 100.67 136.534L100.187 128.767C100.187 128.767 88.7356 136.534 75.5962 136.534C62.4567 136.534 50.8844 130.44 50.8844 130.44Z" fill="#F7B76B"/>
<path opacity="0.42" d="M92.2301 132.83C89.2165 134.144 85.4796 135.339 81.381 135.937C81.14 138.566 81.0194 141.194 80.7783 143.943C85.9618 143.345 90.3014 141.911 93.5561 140.477C93.1945 137.968 92.7123 135.459 92.2301 132.83Z" fill="#FFE0BB"/>
<path opacity="0.55" d="M67.1586 135.698C62.5779 134.861 58.4794 133.547 55.5863 132.352C55.2247 134.622 54.863 137.012 54.3809 139.283C57.1534 140.717 61.3725 142.39 66.5559 143.345C66.6765 140.836 66.9176 138.327 67.1586 135.698Z" fill="#D79A3F"/>
<path d="M71.8583 114.548C71.8583 114.548 69.568 124.466 63.9023 130.082C63.9023 130.082 73.9076 138.208 87.047 130.082C87.047 130.082 79.9349 123.629 78.8499 114.548H71.8583Z" fill="#C08638"/>
<path opacity="0.35" d="M75.3553 122.673C77.1634 122.434 78.9716 121.837 80.7798 121.24C79.936 119.208 79.2127 117.057 78.8511 114.548H71.7389C71.7389 114.548 70.8951 118.013 69.0869 121.956C71.3773 122.554 73.5471 122.912 75.3553 122.673Z" fill="#402F16"/>
<path opacity="0.55" d="M74.2726 114.548H73.9109C72.705 126.019 69.6904 132.95 69.6904 132.95C71.3786 133.428 73.4285 133.786 75.7196 133.667C75.8402 133.667 74.0315 129.604 74.2726 114.548Z" fill="#765425"/>
<path d="M75.4758 118.013C80.0695 118.013 83.7934 116.194 83.7934 113.95C83.7934 111.706 80.0695 109.887 75.4758 109.887C70.8821 109.887 67.1582 111.706 67.1582 113.95C67.1582 116.194 70.8821 118.013 75.4758 118.013Z" fill="#C08638"/>
<path d="M80.5387 110.723C81.6236 111.679 81.6236 113.591 74.9936 113.711C74.3909 113.711 67.7609 113.352 70.0513 110.843C68.2431 111.56 67.1582 112.635 67.1582 113.95C67.1582 116.22 70.8951 118.013 75.4758 118.013C80.0565 118.013 83.7934 116.22 83.7934 113.95C83.7934 112.635 82.4674 111.44 80.5387 110.723Z" fill="#F7B76B"/>
<path d="M84.6371 75.2345C81.5029 76.9074 77.766 77.1464 74.2702 77.0269C71.136 76.9074 68.6046 76.4294 65.832 75.4735C67.6402 80.4922 72.462 96.3849 72.462 112.039C75.7167 114.189 78.3687 112.039 78.3687 112.039C78.3687 112.039 77.766 92.3221 85.2398 75.115C85.1192 75.2345 84.9987 75.2345 84.6371 75.2345Z" fill="#C08638"/>
<path opacity="0.55" d="M74.2727 77.0266C72.8257 77.0266 71.4993 76.7876 70.1729 76.5486C70.8964 79.5359 74.3933 110.007 74.0315 112.755C74.2727 112.875 74.5139 112.875 74.755 112.875C74.755 112.994 75.4785 77.0266 74.2727 77.0266Z" fill="#765425"/>
<path d="M111.277 22.6568C111.277 22.6568 130.323 2.94032 141.895 9.75147C157.084 18.7135 150.936 41.5368 130.564 53.2472C113.808 62.9262 107.178 61.9703 106.455 66.989C105.731 72.1272 112 69.8569 110.794 67.706C110.794 67.706 108.022 68.6619 108.383 66.1525C108.745 63.5237 117.063 62.0898 116.098 71.6493C115.737 75.3536 109.951 79.4164 104.164 76.0705C100.669 74.0391 99.8248 68.5424 101.874 64.1212C108.504 50.3794 121.161 54.9201 131.769 39.2664C143.221 22.4178 132.854 17.9965 128.273 19.6695C123.452 21.4619 117.424 26.0026 110.433 33.1723L111.277 22.6568Z" fill="#F7B76B"/>
<path opacity="0.55" d="M122.729 13.3359C116.22 17.5182 111.277 22.6565 111.277 22.6565L110.434 33.1719C113.568 29.9456 116.581 27.3167 119.233 25.1658C119.957 21.103 121.162 17.1597 122.729 13.3359Z" fill="#D79A3F"/>
<path opacity="0.55" d="M104.527 67.5869C104.768 61.0147 109.952 56.235 110.796 54.801C107.3 56.8324 104.286 59.3418 101.996 64.241C99.8259 68.6623 100.79 74.159 104.286 76.1904C105.853 77.1464 107.42 77.5049 108.867 77.3854C106.818 74.637 104.407 71.4107 104.527 67.5869Z" fill="#D79A3F"/>
<path opacity="0.55" d="M132.735 40.4614C143.464 24.6883 136.954 18.5941 131.65 18.2356C131.048 18.2356 130.445 18.3551 129.842 18.5941C128.998 18.8331 128.275 19.311 127.311 19.6695C127.311 19.6695 127.311 19.6695 127.431 19.6695C128.155 19.4305 128.998 19.311 129.963 19.311C134.905 18.9526 142.258 24.0908 131.891 39.2665C121.404 54.8007 108.867 50.4989 102.237 63.7627C109.952 53.7253 122.127 55.8761 132.735 40.4614Z" fill="#956942"/>
<path opacity="0.42" d="M138.158 24.2107C141.051 22.0599 143.944 19.7895 146.596 17.3996C145.511 15.4877 144.065 13.8148 142.136 12.3809C139.725 14.5317 137.435 16.9216 135.145 19.3115C136.591 20.6259 137.555 22.2988 138.158 24.2107Z" fill="#D79A3F"/>
<path opacity="0.42" d="M145.751 30.6633C142.738 32.3362 139.603 33.8896 136.469 35.5626C134.54 38.7889 132.13 41.8957 129.478 44.6441C135.023 43.9271 139.603 41.6567 144.546 38.6694C146.474 35.5626 147.68 32.4557 148.283 29.3489C147.439 29.7074 146.595 30.1853 145.751 30.6633Z" fill="#D79A3F"/>
<path opacity="0.42" d="M121.401 51.2159C117.785 53.4863 114.169 55.0397 110.673 57.0711C113.325 56.9516 115.736 57.4296 118.388 58.0271C121.522 56.7126 125.379 54.8007 130.201 52.0524C130.683 51.8134 131.166 51.4549 131.648 51.0964C130.924 51.2159 130.322 51.3354 129.598 51.3354C126.946 51.5744 124.174 51.4549 121.401 51.2159Z" fill="#D79A3F"/>
<path d="M39.6746 22.6568C39.6746 22.6568 20.6285 2.94032 9.05614 9.75147C-6.13254 18.7135 0.0152603 41.5368 20.3874 53.3667C37.1432 63.0457 43.7731 62.0897 44.4964 67.1085C45.2197 72.2467 38.9513 69.9763 40.1568 67.8254C40.1568 67.8254 42.9293 68.7814 42.5677 66.272C42.2061 63.6432 33.8884 62.2092 34.8528 71.7687C35.2144 75.473 41.0006 79.5358 46.7868 76.19C50.2826 74.1586 51.1264 68.6619 49.0771 64.2406C42.4471 50.4988 29.7899 55.0396 19.1819 39.3859C7.6096 22.4178 17.9765 17.9965 22.5572 19.6694C27.379 21.4619 33.4063 26.0026 40.3979 33.1722L39.6746 22.6568Z" fill="#F7B76B"/>
<path opacity="0.55" d="M32.2025 20.8641C32.2025 22.537 32.3231 24.2099 32.4437 25.8828C34.976 27.9142 37.6288 30.3041 40.4023 33.1719L39.6787 22.6565C39.6787 22.6565 36.3024 19.1912 31.5996 15.7258C32.0819 17.2792 32.3231 19.0717 32.2025 20.8641Z" fill="#D79A3F"/>
<path opacity="0.55" d="M48.9602 64.1214C47.1514 60.1781 44.7398 57.7883 42.0869 55.9958C43.2928 57.7883 44.2574 59.8197 44.8603 61.9705C46.3074 67.5868 45.4633 72.8445 42.0869 77.3852C43.5339 77.3852 45.2221 77.0268 46.7897 76.1903C50.166 74.1589 51.1307 68.5427 48.9602 64.1214Z" fill="#D79A3F"/>
<path opacity="0.55" d="M18.2188 40.4614C7.49029 24.6883 13.9997 18.5941 19.3037 18.2356C19.9064 18.2356 20.5092 18.3551 21.1119 18.5941C21.9557 18.8331 22.679 19.311 23.6433 19.6695C23.6433 19.6695 23.6433 19.6695 23.5228 19.6695C22.7995 19.4305 21.9557 19.311 20.9914 19.311C16.049 18.9526 8.69574 24.0908 19.0626 39.2665C29.5501 54.8007 42.0868 50.4989 48.7167 63.7627C41.0019 53.7253 28.7062 55.8761 18.2188 40.4614Z" fill="#956942"/>
<path opacity="0.42" d="M12.7907 24.2107C9.89762 22.0599 7.00453 19.7895 4.35254 17.3996C5.43745 15.4877 6.88399 13.8148 8.81271 12.3809C11.2236 14.5317 13.514 16.9216 15.8043 19.3115C14.2372 20.6259 13.2729 22.2988 12.7907 24.2107Z" fill="#D79A3F"/>
<path opacity="0.42" d="M5.19746 30.6633C8.21109 32.3362 11.3453 33.8896 14.4794 35.5626C16.4082 38.7889 18.8191 41.8957 21.4711 44.6441C15.926 43.9271 11.3453 41.6567 6.40292 38.6694C4.47419 35.5626 3.26874 32.4557 2.66602 29.3489C3.50983 29.7074 4.35365 30.1853 5.19746 30.6633Z" fill="#D79A3F"/>
<path opacity="0.42" d="M29.427 51.2159C33.0434 53.4863 36.6597 55.0397 40.1555 57.0711C37.5035 56.9516 35.0926 57.4296 32.4406 58.0271C29.3065 56.7126 25.449 54.8007 20.6272 52.0524C20.145 51.8134 19.6628 51.4549 19.1807 51.0964C19.9039 51.2159 20.5067 51.3354 21.2299 51.3354C24.0025 51.5744 26.775 51.4549 29.427 51.2159Z" fill="#D79A3F"/>
<path opacity="0.35" d="M81.3818 86.3474C82.3462 82.6431 83.5516 78.8193 85.1187 75.115C85.1187 75.115 84.8776 75.115 84.516 75.115C81.3818 76.7879 77.6449 77.0269 74.1491 76.9074C71.0149 76.7879 68.4835 76.3099 65.7109 75.354C66.4342 77.2659 67.6397 80.9702 68.7246 85.511C72.582 87.6619 77.1627 87.6619 81.3818 86.3474Z" fill="#402F16"/>
<path d="M75.4757 16.5626L37.7451 13.4558C37.7451 13.4558 40.2766 48.348 48.4736 62.6873C54.3803 72.9637 64.1445 80.4918 75.5963 80.4918C87.0481 80.4918 96.8122 72.9637 102.719 62.6873C110.916 48.348 113.447 13.4558 113.447 13.4558L75.4757 16.5626Z" fill="#F7B76B"/>
<path opacity="0.42" d="M86.4462 31.499C86.3256 40.1025 85.6023 48.8256 84.5174 56.8317C83.4325 64.7183 79.9367 74.3973 77.4053 80.4914C86.5667 74.2778 90.6652 63.7623 93.92 55.1588C97.1747 46.6747 98.7418 37.8322 99.9472 28.8701C95.487 30.4235 90.5447 31.26 86.4462 31.499Z" fill="#FFE0BB"/>
<path opacity="0.55" d="M71.3779 31.0215C64.5068 30.424 57.1535 29.4681 50.7646 27.5562C51.6085 34.0088 52.3317 40.581 53.6577 46.7947C56.6714 60.0585 62.9397 71.2909 71.9806 80.2529C73.0655 80.3724 74.271 80.4919 75.4764 80.4919C75.4764 80.4919 70.4135 70.5739 70.4135 50.738C70.4135 43.9268 70.6546 37.3546 71.3779 31.0215Z" fill="#D79A3F"/>
<path opacity="0.55" d="M112.242 23.1352C112.965 17.3995 113.206 13.5757 113.206 13.5757L75.4757 16.6825L37.7451 13.5757C37.7451 13.5757 37.9862 17.6385 38.7095 23.4937C38.7095 23.3742 76.5607 36.877 112.242 23.1352Z" fill="#D79A3F"/>
<path d="M75.4777 0.908936C52.8152 0.908936 33.8896 9.51249 33.8896 9.51249V20.1474C33.8896 20.1474 56.9138 26.1221 76.5626 26.1221C96.3321 26.1221 116.945 20.1474 116.945 20.1474V9.51249C116.945 9.51249 98.1402 0.908936 75.4777 0.908936Z" fill="#F7B76B"/>
<path d="M74.3928 16.4431C52.092 16.4431 38.4704 11.3049 33.8896 9.75144C33.8896 11.3049 33.8896 20.1474 33.8896 20.1474C33.8896 20.1474 56.9138 26.1221 76.5626 26.1221C96.3321 26.1221 116.945 20.1474 116.945 20.1474C116.945 20.1474 116.945 9.99043 116.945 9.51245C109.954 12.4998 95.0061 16.4431 74.3928 16.4431Z" fill="#F7B76B"/>
<path opacity="0.55" d="M55.5853 15.1288C51.1252 14.5313 47.2677 13.6949 44.013 12.8584C44.013 15.9652 43.8925 19.1916 43.6514 22.2984C47.0266 23.0154 51.0046 23.7323 55.3442 24.3298C55.5853 21.223 55.5853 18.2356 55.5853 15.1288Z" fill="#D79A3F"/>
<path opacity="0.42" d="M96.6934 14.7705C94.2817 15.129 91.7494 15.4875 89.0966 15.7265C89.2172 18.9528 88.976 22.1791 88.6143 25.4055C91.7494 25.047 94.7641 24.6885 97.5375 24.2105C97.4169 21.1037 97.0551 17.9968 96.6934 14.7705Z" fill="#FFE0BB"/>
<path opacity="0.42" d="M114.897 10.3486C113.691 10.8266 112.244 11.3046 110.677 11.7826C111.039 15.0089 111.28 18.2352 111.641 21.5811C112.968 21.2226 114.053 20.9836 114.897 20.7446C114.656 17.2793 114.656 13.814 114.897 10.3486Z" fill="#D79A3F"/>
<path opacity="0.55" d="M64.3848 25.405C66.0729 25.5245 67.6405 25.644 69.3287 25.7635C69.4493 22.6566 69.5699 19.4303 69.5699 16.3235C67.7611 16.204 66.0729 16.204 64.5053 16.0845C64.5053 19.1913 64.5053 22.2982 64.3848 25.405Z" fill="#D79A3F"/>
<path d="M75.4777 0.908936C52.8152 0.908936 33.8896 9.51249 33.8896 9.51249C33.8896 9.51249 33.8896 9.63198 33.8896 9.75148C38.3498 11.3049 51.9714 15.2482 74.3928 15.2482C95.0061 15.2482 109.954 12.4998 116.945 9.51249C116.945 9.51249 98.1402 0.908936 75.4777 0.908936Z" fill="#F7B76B"/>
<path opacity="0.42" d="M75.4777 0.908936C52.8152 0.908936 33.8896 9.51249 33.8896 9.51249C33.8896 9.51249 33.8896 9.63198 33.8896 9.75148C38.3498 11.3049 52.2125 17.2796 74.5134 17.2796C95.1266 17.2796 109.833 12.6193 116.825 9.63198C116.825 9.63198 98.1402 0.908936 75.4777 0.908936Z" fill="#D79A3F"/>
<path opacity="0.42" d="M49.317 4.37402C40.0351 6.7639 34.0078 9.51226 34.0078 9.51226C34.0078 9.51226 34.0078 9.63175 34.0078 9.75124C35.6954 10.3487 38.5885 11.5437 42.8076 12.7386C44.8569 9.99023 47.0267 7.12238 49.317 4.37402Z" fill="#FFE0BB"/>
<path opacity="0.42" d="M72.3425 1.02881C71.4987 1.02881 70.6549 1.02881 69.811 1.1483C65.9536 6.16704 61.9756 11.1858 58.1182 16.085C59.8058 16.324 61.614 16.563 63.4222 16.6825C66.0741 11.4248 69.3289 6.28654 72.3425 1.02881Z" fill="#FFE0BB"/>
<path opacity="0.42" d="M106.337 5.68872C105.373 8.43708 104.408 11.1854 103.323 13.9338C109.23 12.4999 113.811 10.827 116.945 9.51252C116.945 9.51252 112.967 7.60062 106.337 5.68872Z" fill="#FFE0BB"/>
<path opacity="0.42" d="M92.3531 2.46246C90.9066 2.22347 89.5806 1.98448 88.0135 1.86499C86.0848 6.16677 83.9149 10.349 81.504 14.4118C80.9013 15.3678 80.2986 16.3237 79.8164 17.2797C82.1068 17.1602 84.3971 17.0407 86.567 16.8017C88.7368 12.022 90.6655 7.24221 92.3531 2.46246Z" fill="#FFE0BB"/>
<path d="M75.4763 4.73267C58.7205 4.73267 44.7373 9.15394 44.7373 9.15394C44.7373 9.15394 44.7373 9.27343 44.7373 9.39292C47.992 10.5879 58.1178 13.4557 74.7531 13.4557C90.0623 13.4557 101.152 11.4243 106.336 9.15394C106.336 9.15394 92.2321 4.73267 75.4763 4.73267Z" fill="#956942"/>
<path d="M33.8896 9.51245C33.8896 9.51245 44.7387 17.877 76.0805 17.877C107.422 17.877 116.945 9.63195 116.945 9.63195C116.945 9.63195 103.685 16.6821 75.9599 16.6821C48.2345 16.6821 33.8896 9.51245 33.8896 9.51245Z" fill="white"/>
<path d="M33.8896 19.5503C33.8896 19.9088 33.8896 20.1478 33.8896 20.1478C33.8896 20.1478 56.9138 26.1225 76.5626 26.1225C96.3321 26.1225 116.945 20.1478 116.945 20.1478C116.945 20.1478 116.945 19.9088 116.945 19.5503C116.945 19.5503 96.3321 25.525 76.5626 25.525C56.9138 25.525 33.8896 19.5503 33.8896 19.5503Z" fill="white"/>
<path d="M51.0039 130.441C51.0039 130.441 63.2995 136.057 75.7157 136.057C88.2524 136.057 100.066 128.887 100.066 128.887C100.066 128.887 89.6989 137.013 75.7157 137.013C61.7324 137.013 51.0039 130.441 51.0039 130.441Z" fill="white"/>
<path d="M83.2213 48.1587C84.4063 45.0997 83.68 41.0847 80.3544 39.211C77.411 37.5286 74.4294 37.758 71.5625 39.3257C70.3775 39.9758 69.4983 41.0465 69.0013 42.3465C68.6191 43.379 69.0013 44.4496 69.8805 44.9467C70.6833 45.3673 71.6389 45.2144 72.2123 44.4496C73.0915 43.2643 74.2 42.7289 75.6908 42.6142C77.5257 42.4995 78.8636 43.6466 78.8636 45.4821C78.8253 46.7439 78.2519 47.7381 77.1816 48.2352C76.0349 48.7705 74.8116 49.2294 73.5884 49.4971C71.9065 49.8794 70.9126 51.2942 71.5242 52.7473C71.8683 53.665 72.7475 54.2003 73.8178 54.1621C74.5441 54.1621 75.3086 53.8562 75.9584 54.0091C77.1816 54.315 78.3666 54.8121 79.5134 55.3475C79.8957 55.5004 80.2397 56.0358 80.2779 56.4564C80.5837 58.9801 79.0165 60.8155 76.4936 61.0067C75.1939 61.1214 73.6266 60.4331 73.2444 59.0948C73.2062 58.9036 73.0533 58.7124 72.9386 58.5212C72.327 57.6418 71.3713 57.2594 70.4539 57.527C69.4983 57.8329 68.9249 58.7124 69.0013 59.8213C69.0778 61.0449 69.5365 62.1156 70.3392 63.0333C72.5181 65.6335 75.4615 66.0541 78.5195 65.5953C82.9537 64.8687 86.05 59.7066 84.9414 55.271C84.4827 53.3209 83.2977 51.9443 81.6158 51.1031C82.151 50.0706 82.8008 49.1529 83.2213 48.1587Z" fill="white"/>
</svg>
