<svg width="90" height="90" viewBox="0 0 90 90" fill="none" xmlns="http://www.w3.org/2000/svg">
<rect x="0.5" y="0.5" width="89" height="89" fill="white" stroke="#BBDEEB"/>
<path d="M18.1646 23.0056C8.69328 31.2468 10.0976 60.8743 7.71178 58.9064C7.11421 47.4857 5.3527 21.5034 11.2971 14.7262C19.061 5.8745 44.4614 6.61145 65.9734 7.51309C87.4854 8.41472 80.3148 18.3328 70.4551 17.4312C60.5954 16.5295 30.4102 12.3507 18.1646 23.0056Z" fill="#AEE9FF"/>
<path d="M61.2857 58.6248C71.1463 49.754 79.7751 25.0097 82.259 27.128C82.8811 39.4213 84.715 67.3886 78.5263 74.6836C70.4433 84.2115 43.9991 83.4182 21.603 82.4477C-0.793053 81.4772 6.67229 70.8014 16.9372 71.7719C27.202 72.7425 48.537 70.0938 61.2857 58.6248Z" fill="#AEE9FF"/>
<path d="M73.4661 68.9901C71.3023 70.9938 65.6444 74.9867 60.3237 74.9291C53.6728 74.857 61.2891 85.9684 73.4661 68.9901Z" fill="white"/>
</svg>
