<svg width="668" height="87" viewBox="0 0 668 87" fill="none" xmlns="http://www.w3.org/2000/svg">
<path d="M305.162 85.3566C285.052 67.3079 258.278 72.9702 233.567 75.5065C221.072 76.7845 208.082 77.335 196.123 72.9113C181.903 67.6421 177.798 53.7812 191.601 44.4816C193.584 43.1446 198.701 40.3134 199.415 44.7568C200.526 51.6775 187.258 58.1656 182.438 60.4856C173.911 64.6143 164.431 66.4821 154.97 65.3418C131.191 62.4713 94.4019 19.984 72.1498 30.424C65.7228 38.6216 50.8997 54.7707 43.0232 53.7867C33.1776 52.5567 17.5887 24.2668 28.2548 21.8068C36.7877 19.8388 40.8354 27.8201 41.7926 32.0568C42.8866 28.6401 46.4957 22.3482 52.0485 21.8068C68.868 20.1667 53.6894 55.6293 25.7935 60.4856C3.47684 64.3705 0.0855821 65.3418 1.17954 65.3418" stroke="#3F2732" stroke-width="1.5859" stroke-linecap="round" stroke-linejoin="round" stroke-dasharray="7.11 7.11"/>
<path d="M491.847 29.5006C481.28 36.6452 469.91 42.7096 457.642 46.1959C446.71 49.2895 429.073 53.2178 419.671 44.551C415.784 40.9664 414.861 34.9266 417.533 30.3108C420.303 25.5478 430.044 24.8603 428.344 32.2995C426.668 39.6651 414.715 39.1004 409.176 38.413C401.524 37.4555 394.284 34.632 386.899 32.496C369.942 27.5856 352.548 30.0408 338.045 40.4753" stroke="#3F2732" stroke-width="1.5859" stroke-miterlimit="10" stroke-linecap="round" stroke-linejoin="round" stroke-dasharray="7.14 7.14"/>
<path d="M496.874 25.7116C535.409 6.42753 562.205 11.3612 582.319 22.1773C587.513 26.0345 598.604 39.3751 601.419 61.8798" stroke="#3F2732" stroke-width="1.5859" stroke-miterlimit="10" stroke-linecap="round" stroke-linejoin="round" stroke-dasharray="7.14 7.14"/>
<path d="M625.944 29.0791C626.062 27.7893 625 25.7373 624.528 24.4475C622.374 18.3796 616.471 14.9207 610.185 16.1518C604.844 17.2071 599.296 24.0371 603.25 29.1963C605.464 32.069 608.179 33.2123 611.749 33.095C613.196 33.0364 614.848 33.0657 616.265 32.8605C618.242 32.5381 622.196 32.2449 623.554 30.8086L625.944 29.0791Z" fill="#8AC1CE"/>
<path d="M631.375 31.4535C633.027 31.131 635.211 29.0498 636.657 27.9945C643.445 23.0991 645.629 14.5396 641.763 7.21121C638.487 0.996747 627.863 -3.37096 622.846 3.45908C620.072 7.24052 619.659 11.0513 621.105 15.3897C621.695 17.1485 622.285 19.2004 623.052 20.8713C624.174 23.2164 626.003 27.9652 628.305 29.1377L631.375 31.4535Z" fill="#BAD9E2"/>
<path d="M604.313 53.2334C604.401 53.1748 604.431 53.0575 604.49 52.9696C604.578 52.8523 604.696 52.7351 604.814 52.6178C605.08 52.3833 605.434 52.1781 605.729 51.9729C606.378 51.5625 607.028 51.2108 607.677 50.8004C608.356 50.39 609.034 50.0089 609.713 49.6278C610.421 49.2468 611.336 48.4846 612.163 48.9243C612.517 49.1002 612.576 49.4813 612.546 49.833C612.487 50.2727 612.104 50.5072 611.72 50.7124C611.366 50.8883 611.012 51.0642 610.687 51.2694C610.008 51.6505 609.3 52.0315 608.621 52.3833C607.913 52.7351 607.205 53.1161 606.467 53.3507C606.113 53.4679 605.788 53.5558 605.434 53.6145C605.257 53.6438 605.08 53.6438 604.903 53.6145C604.755 53.5852 604.578 53.4972 604.401 53.4972C604.254 53.5265 604.224 53.3213 604.313 53.2334Z" fill="black"/>
<path d="M609.566 49.9503C613.077 57.0441 619.688 60.3272 626.83 60.9428C631.67 61.3825 636.746 60.6204 641.32 59.0375C641.644 58.9202 641.969 58.8029 642.294 58.6857C643.74 58.1287 645.097 57.4838 646.396 56.6924C648.462 55.4319 650.262 53.849 651.649 51.9729C652.091 51.328 652.505 50.6831 652.859 49.9796C653.124 49.4519 653.36 48.895 653.567 48.3087C653.862 47.5173 654.069 46.6672 654.246 45.8171C655.161 40.6579 653.508 34.7073 648.609 32.0984C644.92 30.1344 641.733 28.3169 637.454 27.9065L637.247 27.8772C636.421 27.7893 635.565 27.76 634.68 27.7013C632.525 27.6427 630.312 27.7013 628.069 27.9945C625.679 28.2876 623.288 28.8153 621.075 29.636C617.563 30.8965 614.435 32.8898 612.222 35.7625C611.661 36.4661 611.189 37.2282 610.746 38.049C608.769 41.7425 607.588 45.993 609.566 49.9503Z" fill="#FAC309"/>
<path d="M654.039 49.5984C654.098 49.5399 654.098 49.5399 654.039 49.5984V49.5984Z" fill="black"/>
<path d="M638.133 53.9369C640.523 55.5492 643.563 56.6338 646.337 56.6924C648.403 55.4319 650.203 53.849 651.59 51.9729C652.033 51.328 652.446 50.6831 652.8 49.9796C650.203 50.4779 646.957 49.6278 644.655 48.7191C639.254 46.5499 635.27 42.2115 633.411 36.7885C632.289 33.4761 633.027 30.3982 634.65 27.7306C632.496 27.672 630.283 27.7306 628.04 28.0238C627.627 28.8739 627.361 29.8119 627.184 30.7792C625.708 39.7199 630.755 48.9536 638.133 53.9369Z" fill="black"/>
<path d="M620.868 55.5198C622.551 57.5718 624.557 59.4772 626.8 60.9428C631.64 61.3825 636.716 60.6204 641.29 59.0375C639.254 58.2753 637.277 57.22 635.536 56.1941C629.928 52.8816 624.646 48.6019 622.226 42.3874C620.632 38.3128 619.776 33.7106 621.045 29.6067C617.534 30.8672 614.405 32.8605 612.192 35.7332C611.867 42.8564 616.648 50.39 620.868 55.5198Z" fill="black"/>
<path d="M638.575 40.5407C641.645 44.967 648.078 48.1915 653.538 48.3087C653.833 47.5173 654.039 46.6672 654.216 45.8171C655.131 40.6579 653.479 34.7073 648.58 32.0984C644.891 30.1344 641.704 28.3169 637.424 27.9065L637.218 27.8772C636.451 29.5481 636.155 31.7759 636.126 33.095C636.096 35.6453 637.1 38.4301 638.575 40.5407Z" fill="#F9A30B"/>
<path d="M655.043 46.6672C655.899 46.5499 656.754 46.3154 657.551 45.993C661.447 44.3514 664.87 41.2149 666.375 37.2576C671.717 22.8939 652.534 15.8587 642.323 23.744C637.041 27.8186 635.211 32.8605 639.077 38.6646C642.117 43.2668 649.022 47.488 655.043 46.6672Z" fill="#FAC309"/>
<path d="M648.963 36.4368C652.446 33.7399 651.206 28.2876 647.724 26.1184C643.74 23.6268 638.369 27.8772 638.752 32.1863C639.047 35.4401 641.615 37.8438 644.95 37.7266C646.661 37.6679 647.989 37.1696 648.963 36.4368Z" fill="white"/>
<path d="M644.064 28.3755C640.995 27.203 638.31 30.5447 640.139 33.2709C641.762 35.7039 645.865 34.9418 646.071 31.8932C646.16 30.3689 645.599 28.9618 644.064 28.3755Z" fill="black"/>
<path d="M641.969 30.2809C641.349 29.4015 639.815 29.8412 639.815 30.9552C639.815 31.8346 640.671 32.5967 641.438 32.0984C642.087 31.7173 642.441 30.9845 641.969 30.2809Z" fill="white"/>
<path d="M664.722 35.2642C667.821 32.8605 666.7 28.0238 663.63 26.0891C660.089 23.8906 655.338 27.672 655.662 31.4535C655.928 34.3262 658.2 36.4954 661.151 36.3781C662.686 36.3488 663.867 35.9091 664.722 35.2642Z" fill="white"/>
<path d="M660.355 28.1117C657.61 27.0858 655.22 30.0464 656.872 32.4501C658.318 34.6193 661.948 33.9158 662.125 31.219C662.214 29.8705 661.742 28.6394 660.355 28.1117Z" fill="black"/>
<path d="M658.495 29.8119C657.935 29.0204 656.577 29.4308 656.577 30.4275C656.577 31.219 657.315 31.8639 658.023 31.4535C658.584 31.0724 658.938 30.4275 658.495 29.8119Z" fill="white"/>
<path d="M658.702 40.1302C658.702 40.1302 652.741 42.5047 648.904 40.1302C648.904 40.1302 653.774 47.1655 658.702 40.1302Z" fill="black"/>
<path d="M648.107 22.6594C647.606 22.5129 647.311 21.868 647.045 21.4576C646.75 20.9299 646.425 20.4316 646.071 19.9333C645.363 18.9073 644.566 17.94 643.681 17.0899C642.825 16.2691 641.851 15.5949 640.789 15.0965C640.287 14.862 639.726 14.6862 639.195 14.5689C638.605 14.4516 638.044 14.393 637.513 14.1292C637.306 14.0119 637.218 13.6602 637.424 13.4843C638.457 12.6635 640.08 13.0739 641.231 13.5429C642.53 14.0413 643.651 14.862 644.684 15.8001C645.688 16.7381 646.573 17.8227 647.311 18.9659C647.665 19.4936 647.989 20.0505 648.255 20.6368C648.491 21.1644 648.875 21.8973 648.609 22.4542C648.521 22.6301 648.285 22.7181 648.107 22.6594Z" fill="black"/>
<path d="M655.249 21.7214C654.925 20.6661 655.338 19.6108 655.751 18.6434C656.223 17.5295 656.931 16.5329 657.699 15.5948C658.437 14.6861 659.292 13.8654 660.237 13.1618C660.709 12.8101 661.211 12.429 661.742 12.1359C662.007 11.9893 662.302 11.872 662.598 11.7841C662.922 11.6668 663.188 11.6962 663.424 11.7255C663.926 11.7255 664.28 12.3997 663.867 12.7514C663.69 12.898 663.571 13.0739 663.335 13.2205C663.129 13.3377 662.952 13.455 662.745 13.5722C662.302 13.8654 661.86 14.1292 661.417 14.4516C660.561 15.0965 659.765 15.9173 659.056 16.7381C658.377 17.5295 657.817 18.3796 657.315 19.2883C656.872 20.1384 656.636 20.9592 656.223 21.8093C656.017 22.3076 655.367 22.1318 655.249 21.7214Z" fill="black"/>
<path d="M662.775 11.4617C665.814 10.4064 666.346 15.7121 663.985 16.5622C661.27 17.5589 660.325 12.2824 662.775 11.4617Z" fill="#FAC309"/>
<path d="M636.037 11.4617C639.077 10.4357 639.608 15.7121 637.218 16.5915C634.532 17.5589 633.588 12.2824 636.037 11.4617Z" fill="#FAC309"/>
</svg>
