<svg width="926" height="428" viewBox="0 0 926 428" fill="none" xmlns="http://www.w3.org/2000/svg">
<g clip-path="url(#clip0_286_9)">
<rect width="428" height="926" transform="translate(0 428) rotate(-90)" fill="white"/>
<rect y="-0.800171" width="926" height="428" fill="#FCF9EE"/>
<path d="M234.88 16.6451L237.724 22.3538L244.032 23.2707L239.471 27.7371L240.537 34.0077L234.88 31.0498L229.253 34.0077L230.319 27.7371L225.758 23.2707L232.066 22.3538L234.88 16.6451Z" fill="#7F48C3"/>
<path d="M68.7078 257.2L73.032 264.713L77.3859 272.226H68.7078H60L64.3539 264.713L68.7078 257.2Z" fill="#65E2CB"/>
<path d="M852.985 260.2L848.508 268.2L844 276.2H852.985H862L857.492 268.2L852.985 260.2Z" fill="#65E2CB"/>
<path d="M93.6781 184.2L98.032 191.713L102.356 199.196H93.6781H85L89.3243 191.713L93.6781 184.2Z" fill="#FF3612"/>
<path d="M825.5 181.2L820.734 189.216L816 197.2H825.5H835L830.266 189.216L825.5 181.2Z" fill="#FF3612"/>
<path d="M227.234 359.478L215.89 366.518C215.328 366.873 214.972 367.524 215.002 368.174C215.031 368.855 215.416 369.476 216.009 369.771L227.797 376.072C228.389 376.397 229.13 376.367 229.692 376.013C230.137 375.746 230.433 375.332 230.551 374.829C230.581 374.681 230.611 374.504 230.611 374.327L230.166 360.987C230.137 360.306 229.752 359.685 229.159 359.389C228.537 359.123 227.826 359.123 227.234 359.478Z" fill="#FF3612"/>
<path d="M679.11 371.493L692.916 378.904C693.601 379.277 694.034 379.962 693.998 380.647C693.962 381.364 693.493 382.017 692.772 382.329L678.425 388.961C677.704 389.304 676.802 389.273 676.118 388.899C675.577 388.619 675.216 388.183 675.072 387.653C675.036 387.498 675 387.311 675 387.124L675.541 373.081C675.577 372.365 676.045 371.711 676.766 371.399C677.523 371.119 678.389 371.119 679.11 371.493Z" fill="#FF3612"/>
<path d="M23.6612 177.722L20.0077 190.577C19.8355 191.23 19.9891 191.939 20.4661 192.409C20.9434 192.909 21.6251 193.081 22.2746 192.928L35.2042 189.655C35.8537 189.502 36.382 188.994 36.5543 188.341C36.6981 187.836 36.6349 187.333 36.3948 186.891C36.3048 186.743 36.2152 186.626 36.0959 186.508L26.7903 176.927C26.313 176.427 25.6313 176.255 24.9818 176.408C24.3621 176.591 23.8337 177.099 23.6612 177.722Z" fill="#FF9090"/>
<path d="M901.487 173.85L905.463 187.837C905.65 188.548 905.483 189.32 904.964 189.831C904.445 190.375 903.703 190.563 902.996 190.396L888.927 186.834C888.22 186.668 887.645 186.115 887.457 185.404C887.301 184.855 887.37 184.308 887.631 183.827C887.729 183.666 887.826 183.538 887.956 183.41L898.082 172.984C898.602 172.441 899.343 172.253 900.05 172.42C900.724 172.619 901.299 173.171 901.487 173.85Z" fill="#FF9090"/>
<path d="M162.346 234.106L175.171 237.862C175.822 238.04 176.533 237.892 177.007 237.419C177.51 236.945 177.688 236.265 177.54 235.614L174.371 222.629C174.223 221.979 173.719 221.446 173.068 221.269C172.564 221.121 172.061 221.18 171.616 221.417C171.468 221.505 171.35 221.594 171.231 221.712L161.576 230.911C161.072 231.385 160.895 232.065 161.043 232.716C161.191 233.396 161.694 233.899 162.346 234.106Z" fill="#78A941"/>
<path d="M750.614 235.084L737.479 239.122C736.811 239.313 736.083 239.154 735.598 238.645C735.082 238.136 734.9 237.405 735.052 236.706L738.298 222.749C738.449 222.049 738.965 221.477 739.632 221.286C740.148 221.128 740.664 221.191 741.119 221.445C741.27 221.541 741.392 221.636 741.513 221.763L751.402 231.651C751.918 232.159 752.1 232.891 751.948 233.59C751.797 234.321 751.281 234.862 750.614 235.084Z" fill="#78A941"/>
<path d="M36.831 108.545L49.6102 112.352C50.2626 112.554 50.9711 112.371 51.4408 111.923C51.9398 111.445 52.1414 110.762 51.9882 110.111L48.8966 97.1334C48.7435 96.483 48.2365 95.954 47.5841 95.7519C47.1097 95.6076 46.5777 95.6711 46.136 95.9116C45.9888 96.0016 45.8712 96.0914 45.7242 96.2111L36.0366 105.382C35.5375 105.86 35.3359 106.543 35.4891 107.193C35.6422 107.843 36.1786 108.343 36.831 108.545Z" fill="#65E2CB"/>
<path d="M887.156 98.5738L873.251 102.717C872.541 102.937 871.77 102.737 871.259 102.249C870.716 101.729 870.496 100.986 870.663 100.279L874.027 86.1565C874.194 85.4488 874.745 84.8731 875.455 84.6531C875.972 84.4961 876.55 84.5652 877.031 84.8269C877.191 84.9249 877.319 85.0226 877.479 85.1528L888.021 95.1321C888.564 95.6521 888.783 96.3951 888.617 97.1029C888.45 97.8106 887.866 98.3538 887.156 98.5738Z" fill="#65E2CB"/>
<path d="M388.717 35.0132L402.016 36.3738C402.697 36.433 403.349 36.1372 403.734 35.6048C404.119 35.0428 404.208 34.3329 403.912 33.7118L398.432 21.555C398.166 20.9339 397.573 20.5198 396.892 20.4606C396.389 20.4015 395.885 20.5494 395.5 20.8747C395.382 20.9635 395.263 21.1114 395.174 21.2297L387.355 32.0554C386.97 32.6174 386.881 33.3273 387.177 33.9484C387.444 34.54 388.036 34.9541 388.717 35.0132Z" fill="#65E2CB"/>
<path d="M504.091 19.6543L489.304 21.1914C488.546 21.2582 487.822 20.9241 487.394 20.3226C486.965 19.6877 486.867 18.8858 487.196 18.1841L493.289 4.45059C493.585 3.74888 494.244 3.28108 495.001 3.21425C495.561 3.14742 496.121 3.31449 496.549 3.68206C496.681 3.7823 496.813 3.94937 496.912 4.08303L505.606 16.3128C506.035 16.9477 506.133 17.7497 505.804 18.4514C505.508 19.1197 504.849 19.5875 504.091 19.6543Z" fill="#F67300"/>
<path d="M192.083 177.197L205.381 178.557C206.062 178.617 206.714 178.321 207.099 177.788C207.484 177.226 207.573 176.516 207.277 175.895L201.797 163.739C201.531 163.117 200.939 162.703 200.257 162.644C199.754 162.585 199.25 162.733 198.865 163.058C198.747 163.147 198.628 163.295 198.539 163.413L190.72 174.239C190.335 174.801 190.246 175.511 190.543 176.132C190.839 176.724 191.431 177.138 192.083 177.197Z" fill="#F67300"/>
<path d="M719.091 173.74L704.304 175.192C703.546 175.255 702.822 174.939 702.394 174.371C701.965 173.772 701.867 173.014 702.196 172.352L708.289 159.381C708.585 158.718 709.244 158.277 710.001 158.213C710.561 158.15 711.121 158.308 711.549 158.655C711.681 158.75 711.813 158.908 711.912 159.034L720.606 170.584C721.035 171.184 721.133 171.941 720.804 172.604C720.475 173.235 719.816 173.677 719.091 173.74Z" fill="#F67300"/>
<path d="M200.493 123.986L213.792 125.347C214.473 125.406 215.125 125.11 215.51 124.577C215.895 124.015 215.984 123.306 215.688 122.684L210.238 110.528C209.971 109.907 209.379 109.492 208.698 109.433C208.194 109.374 207.691 109.522 207.306 109.847C207.187 109.936 207.069 110.084 206.98 110.202L199.161 121.028C198.776 121.59 198.687 122.3 198.983 122.921C199.25 123.513 199.812 123.927 200.493 123.986Z" fill="#4B78C6"/>
<path d="M632.121 27.6543L617.308 29.1914C616.549 29.2582 615.823 28.9241 615.394 28.3226C614.965 27.6877 614.866 26.8858 615.196 26.1841L621.267 12.4506C621.564 11.7489 622.224 11.2811 622.982 11.2142C623.543 11.1474 624.104 11.3145 624.533 11.6821C624.665 11.7823 624.797 11.9494 624.896 12.083L633.606 24.3128C634.035 24.9477 634.134 25.7497 633.804 26.4514C633.507 27.1197 632.88 27.5875 632.121 27.6543Z" fill="#4B78C6"/>
<path d="M126.496 42.7652L139.794 44.1258C140.476 44.185 141.127 43.8892 141.512 43.3568C141.897 42.7948 141.986 42.0849 141.69 41.4638L136.24 29.307C135.974 28.6859 135.381 28.2717 134.7 28.2126C134.197 28.1534 133.693 28.3013 133.308 28.6267C133.19 28.7154 133.071 28.8633 132.982 28.9816L125.163 39.8074C124.778 40.3694 124.689 41.0792 124.985 41.7004C125.252 42.292 125.815 42.7061 126.496 42.7652Z" fill="#4B78C6"/>
<path d="M789.22 27.7402L775.186 29.1919C774.468 29.255 773.78 28.9394 773.374 28.3713C772.967 27.7717 772.873 27.0143 773.186 26.3516L778.937 13.3811C779.218 12.7184 779.843 12.2766 780.562 12.2134C781.094 12.1503 781.625 12.3081 782.031 12.6553C782.156 12.7499 782.281 12.9077 782.375 13.034L790.626 24.5843C791.033 25.1839 791.127 25.9413 790.814 26.6041C790.533 27.2352 789.939 27.6771 789.22 27.7402Z" fill="#4B78C6"/>
<path d="M296.339 30.3401C297.435 29.8965 298.59 30.8134 298.442 31.967L296.931 42.6744L295.421 53.3817C295.243 54.5649 293.881 55.0973 292.962 54.3874L284.432 47.7323L275.902 41.0771C274.984 40.3377 275.191 38.8883 276.287 38.4446L286.328 34.3924L296.339 30.3401Z" fill="#FF3612"/>
<path d="M710.287 90.3209C709.102 89.8496 707.854 90.8235 708.014 92.0486L709.646 103.42L711.279 114.792C711.471 116.049 712.944 116.614 713.936 115.86L723.155 108.792L732.374 101.724C733.367 100.939 733.143 99.3995 731.958 98.9283L721.106 94.6245L710.287 90.3209Z" fill="#FF3612"/>
<path d="M38.7158 15.1998L33.621 25.3705L28.5261 35.5411L22.2677 26.0243L16.0093 16.5075L27.3626 15.8536L38.7158 15.1998Z" fill="#FFAC39"/>
<path d="M885.105 -3L890.649 8.06727L896.193 19.1345L903.003 8.77868L909.813 -1.5771L897.459 -2.28855L885.105 -3Z" fill="#FFAC39"/>
<path d="M387.405 386.897C387.405 388.938 385.746 390.594 383.702 390.594C381.659 390.594 380 388.938 380 386.897C380 384.856 381.659 383.2 383.702 383.2C385.746 383.2 387.405 384.856 387.405 386.897Z" fill="#FF3612"/>
<path d="M505 401.2C505 403.408 506.792 405.2 509 405.2C511.208 405.2 513 403.408 513 401.2C513 398.992 511.208 397.2 509 397.2C506.792 397.2 505 398.992 505 401.2Z" fill="#FF3612"/>
<path d="M44.7565 62.6337C42.7156 62.65 41.046 61.0048 41.0296 58.9612C41.0132 56.9177 42.6563 55.2458 44.6971 55.2295C46.738 55.2131 48.4076 56.8584 48.424 58.9019C48.4404 60.9455 46.7973 62.6173 44.7565 62.6337Z" fill="#FF3612"/>
<path d="M878.532 48.6154C880.753 48.6332 882.57 46.8429 882.588 44.6192C882.605 42.3955 880.817 40.5763 878.597 40.5585C876.376 40.5407 874.559 42.331 874.541 44.5547C874.523 46.7784 876.311 48.5976 878.532 48.6154Z" fill="#FF3612"/>
<path d="M149.405 84.8971C149.405 86.938 147.746 88.5944 145.702 88.5944C143.659 88.5944 142 86.938 142 84.8971C142 82.8562 143.659 81.1998 145.702 81.1998C147.776 81.1998 149.405 82.8562 149.405 84.8971Z" fill="#FFAC39"/>
<path d="M765 73.1998C765 75.4078 766.792 77.1998 769 77.1998C771.208 77.1998 773 75.4078 773 73.1998C773 70.9918 771.208 69.1998 769 69.1998C766.76 69.1998 765 70.9918 765 73.1998Z" fill="#FFAC39"/>
<path d="M192.734 202.99C192.734 204.35 191.638 205.445 190.276 205.445C188.913 205.445 187.817 204.35 187.817 202.99C187.817 201.629 188.913 200.535 190.276 200.535C191.638 200.535 192.734 201.629 192.734 202.99Z" fill="#7F48C3"/>
<path d="M718 201.7C718 203.085 719.114 204.2 720.5 204.2C721.886 204.2 723 203.085 723 201.7C723 200.314 721.886 199.2 720.5 199.2C719.114 199.2 718 200.314 718 201.7Z" fill="#7F48C3"/>
<path d="M226.08 77.3522C227.782 77.3522 229.161 75.9749 229.161 74.276C229.161 72.5771 227.782 71.1998 226.08 71.1998C224.379 71.1998 223 72.5771 223 74.276C223 75.9749 224.379 77.3522 226.08 77.3522Z" fill="#FFAC39"/>
<path d="M682.5 65.1998C680.567 65.1998 679 63.6328 679 61.6998C679 59.7668 680.567 58.1998 682.5 58.1998C684.433 58.1998 686 59.7668 686 61.6998C686 63.6328 684.433 65.1998 682.5 65.1998Z" fill="#FFAC39"/>
<path d="M264.765 406.252C264.765 407.258 263.936 408.086 262.929 408.086C261.922 408.086 261.093 407.258 261.093 406.252C261.093 405.247 261.922 404.418 262.929 404.418C263.936 404.418 264.765 405.247 264.765 406.252Z" fill="#65E2CB"/>
<path d="M638 422.2C638 423.296 638.903 424.2 640 424.2C641.097 424.2 642 423.296 642 422.2C642 421.103 641.097 420.2 640 420.2C638.903 420.2 638 421.103 638 422.2Z" fill="#65E2CB"/>
<path d="M24.0752 137.171C21.709 137.19 19.7415 135.28 19.7223 132.881C19.7033 130.512 21.6101 128.542 24.0059 128.523C26.3721 128.504 28.3397 130.413 28.3589 132.812C28.3781 135.211 26.471 137.151 24.0752 137.171Z" fill="#34A5CF"/>
<path d="M901.037 129.723C903.611 129.744 905.752 127.666 905.773 125.056C905.794 122.477 903.719 120.334 901.112 120.313C898.537 120.292 896.396 122.37 896.375 124.98C896.354 127.591 898.43 129.702 901.037 129.723Z" fill="#34A5CF"/>
<path d="M163.886 167.91C163.886 169.596 162.494 170.986 160.806 170.986C159.118 170.986 157.726 169.596 157.726 167.91C157.726 166.224 159.118 164.834 160.806 164.834C162.494 164.834 163.886 166.194 163.886 167.91Z" fill="#65E2CB"/>
<path d="M749 163.7C749 165.618 750.582 167.2 752.5 167.2C754.418 167.2 756 165.618 756 163.7C756 161.782 754.418 160.2 752.5 160.2C750.582 160.2 749 161.748 749 163.7Z" fill="#65E2CB"/>
<path d="M72.0729 359.139C72.0729 360.825 70.6807 362.215 68.9925 362.215C67.3042 362.215 65.9121 360.825 65.9121 359.139C65.9121 357.453 67.3042 356.063 68.9925 356.063C70.6807 356.063 72.0729 357.424 72.0729 359.139Z" fill="#65E2CB"/>
<path d="M849 370.7C849 372.618 850.582 374.2 852.5 374.2C854.418 374.2 856 372.618 856 370.7C856 368.781 854.418 367.2 852.5 367.2C850.582 367.2 849 368.748 849 370.7Z" fill="#65E2CB"/>
<path d="M353.886 407.879C353.886 409.24 352.79 410.334 351.428 410.334C350.066 410.334 348.97 409.24 348.97 407.879C348.97 406.518 350.066 405.424 351.428 405.424C352.761 405.394 353.886 406.518 353.886 407.879Z" fill="#65E2CB"/>
<path d="M542 423.7C542 425.085 543.337 426.2 545 426.2C546.663 426.2 548 425.085 548 423.7C548 422.315 546.663 421.2 545 421.2C543.373 421.17 542 422.315 542 423.7Z" fill="#65E2CB"/>
<path d="M334.042 372.77C335.4 372.77 336.501 371.671 336.501 370.315C336.501 368.959 335.4 367.86 334.042 367.86C332.685 367.86 331.584 368.959 331.584 370.315C331.584 371.671 332.685 372.77 334.042 372.77Z" fill="#FF9090"/>
<path d="M563.5 385.2C562.119 385.2 561 384.08 561 382.7C561 381.319 562.119 380.2 563.5 380.2C564.881 380.2 566 381.319 566 382.7C566 384.08 564.881 385.2 563.5 385.2Z" fill="#FF9090"/>
<path d="M187.649 34.5183C187.649 36.8846 185.723 38.8367 183.324 38.8367C180.925 38.8367 179 36.9141 179 34.5183C179 32.1224 180.925 30.1998 183.324 30.1998C185.723 30.1998 187.649 32.1224 187.649 34.5183Z" fill="#FF3612"/>
<path d="M724 18.6998C724 21.1656 726.003 23.1998 728.5 23.1998C730.997 23.1998 733 21.1964 733 18.6998C733 16.2033 730.997 14.1998 728.5 14.1998C726.003 14.1998 724 16.2033 724 18.6998Z" fill="#FF3612"/>
<path d="M101.161 80.276C101.161 81.962 99.7685 83.3521 98.0803 83.3521C96.3921 83.3521 95 81.962 95 80.276C95 78.59 96.3921 77.1998 98.0803 77.1998C99.7685 77.1998 101.161 78.59 101.161 80.276Z" fill="#65E2CB"/>
<path d="M817 68.1998C817 69.8441 818.582 71.1998 820.5 71.1998C822.418 71.1998 824 69.8441 824 68.1998C824 66.5556 822.418 65.1998 820.5 65.1998C818.582 65.1998 817 66.5556 817 68.1998Z" fill="#65E2CB"/>
<path d="M145.917 119.655C145.917 121.015 144.821 122.11 143.458 122.11C142.096 122.11 141 121.015 141 119.655C141 118.294 142.096 117.2 143.458 117.2C144.821 117.2 145.917 118.294 145.917 119.655Z" fill="#FF9090"/>
<path d="M769 110.7C769 112.085 770.114 113.2 771.5 113.2C772.886 113.2 774 112.085 774 110.7C774 109.314 772.886 108.2 771.5 108.2C770.114 108.2 769 109.314 769 110.7Z" fill="#FF9090"/>
<path d="M149.669 202.901C149.669 204.261 148.573 205.356 147.21 205.356C145.848 205.356 144.752 204.261 144.752 202.901C144.752 201.54 145.848 200.446 147.21 200.446C148.573 200.446 149.669 201.54 149.669 202.901Z" fill="#FF9090"/>
<path d="M765 201.7C765 203.085 766.114 204.2 767.5 204.2C768.886 204.2 770 203.085 770 201.7C770 200.314 768.886 199.2 767.5 199.2C766.114 199.2 765 200.314 765 201.7Z" fill="#FF9090"/>
<path d="M64.7164 426.765L78.015 428.126C78.6962 428.185 79.3478 427.889 79.7329 427.357C80.1179 426.795 80.2068 426.085 79.9106 425.464L74.4312 413.307C74.1647 412.686 73.5723 412.272 72.8911 412.212C72.3876 412.153 71.8841 412.301 71.499 412.627C71.3805 412.715 71.2621 412.863 71.1732 412.982L63.354 423.807C62.969 424.369 62.8801 425.079 63.1763 425.7C63.4429 426.262 64.0352 426.676 64.7164 426.765Z" fill="#F67300"/>
<path d="M857.192 423.74L843.183 425.192C842.465 425.255 841.779 424.939 841.373 424.371C840.967 423.772 840.874 423.014 841.186 422.351L846.958 409.381C847.239 408.718 847.863 408.276 848.58 408.213C849.111 408.15 849.641 408.308 850.047 408.655C850.172 408.75 850.296 408.908 850.39 409.034L858.627 420.584C859.033 421.184 859.126 421.941 858.814 422.604C858.533 423.204 857.909 423.645 857.192 423.74Z" fill="#C3F0E1"/>
<path d="M200.494 286.372L213.792 287.732C214.474 287.791 215.125 287.496 215.51 286.963C215.895 286.401 215.984 285.691 215.688 285.07L210.209 272.913C209.942 272.292 209.35 271.878 208.668 271.819C208.165 271.76 207.661 271.908 207.276 272.233C207.158 272.322 207.039 272.47 206.951 272.588L199.131 283.414C198.746 283.976 198.657 284.686 198.954 285.307C199.25 285.869 199.813 286.312 200.494 286.372Z" fill="#4B78C6"/>
<path d="M710.091 291.74L695.304 293.192C694.546 293.255 693.822 292.939 693.394 292.371C692.965 291.772 692.867 291.014 693.196 290.352L699.289 277.381C699.585 276.718 700.244 276.277 701.001 276.213C701.561 276.15 702.121 276.308 702.549 276.655C702.681 276.75 702.813 276.908 702.912 277.034L711.606 288.584C712.035 289.184 712.133 289.941 711.804 290.604C711.475 291.204 710.849 291.677 710.091 291.74Z" fill="#4B78C6"/>
<path d="M173.068 275.753C173.068 277.794 171.409 279.45 169.365 279.45C167.322 279.45 165.663 277.794 165.663 275.753C165.663 273.712 167.322 272.055 169.365 272.055C171.439 272.085 173.068 273.741 173.068 275.753Z" fill="#FFAC39"/>
<path d="M739 280.2C739 282.408 740.792 284.2 743 284.2C745.208 284.2 747 282.408 747 280.2C747 277.992 745.208 276.2 743 276.2C740.76 276.232 739 278.024 739 280.2Z" fill="#FFAC39"/>
<path d="M147.405 410.897C147.405 412.938 145.746 414.594 143.702 414.594C141.659 414.594 140 412.938 140 410.897C140 408.856 141.659 407.2 143.702 407.2C145.746 407.2 147.405 408.856 147.405 410.897Z" fill="#FFAC39"/>
<path d="M767 427.2C767 429.408 768.792 431.2 771 431.2C773.208 431.2 775 429.408 775 427.2C775 424.992 773.208 423.2 771 423.2C768.792 423.2 767 424.992 767 427.2Z" fill="#FFAC39"/>
<path d="M209.917 410.655C209.917 412.015 208.821 413.11 207.458 413.11C206.096 413.11 205 412.015 205 410.655C205 409.294 206.096 408.2 207.458 408.2C208.791 408.2 209.917 409.294 209.917 410.655Z" fill="#7F48C3"/>
<path d="M700 426.7C700 428.085 701.114 429.2 702.5 429.2C703.886 429.2 705 428.085 705 426.7C705 425.314 703.886 424.2 702.5 424.2C701.145 424.2 700 425.314 700 426.7Z" fill="#7F48C3"/>
<path d="M176.74 328.58C176.74 330.266 175.348 331.656 173.659 331.656C171.971 331.656 170.579 330.266 170.579 328.58C170.579 326.894 171.971 325.504 173.659 325.504C175.348 325.504 176.74 326.864 176.74 328.58Z" fill="#65E2CB"/>
<path d="M735 337.7C735 339.618 736.582 341.2 738.5 341.2C740.418 341.2 742 339.618 742 337.7C742 335.781 740.418 334.2 738.5 334.2C736.582 334.2 735 335.748 735 337.7Z" fill="#65E2CB"/>
<path d="M106.9 289.654C106.9 292.02 104.975 293.972 102.576 293.972C100.177 293.972 98.252 292.05 98.252 289.654C98.252 287.258 100.207 285.336 102.606 285.336C105.005 285.336 106.9 287.258 106.9 289.654Z" fill="#FF3612"/>
<path d="M811 295.2C811 297.94 813.003 300.2 815.5 300.2C817.997 300.2 820 297.974 820 295.2C820 292.426 817.966 290.2 815.469 290.2C812.973 290.2 811 292.426 811 295.2Z" fill="#FF3612"/>
<path d="M122.161 235.276C122.161 236.962 120.769 238.352 119.08 238.352C117.392 238.352 116 236.962 116 235.276C116 233.59 117.392 232.2 119.08 232.2C120.769 232.2 122.161 233.59 122.161 235.276Z" fill="#65E2CB"/>
<path d="M794 236.2C794 237.844 795.582 239.2 797.5 239.2C799.418 239.2 801 237.844 801 236.2C801 234.556 799.418 233.2 797.5 233.2C795.582 233.2 794 234.556 794 236.2Z" fill="#65E2CB"/>
<path d="M115.917 326.655C115.917 328.015 114.821 329.11 113.458 329.11C112.096 329.11 111 328.015 111 326.655C111 325.294 112.096 324.2 113.458 324.2C114.821 324.2 115.917 325.294 115.917 326.655Z" fill="#FF9090"/>
<path d="M801 335.7C801 337.085 802.114 338.2 803.5 338.2C804.886 338.2 806 337.085 806 335.7C806 334.314 804.886 333.2 803.5 333.2C802.114 333.2 801 334.314 801 335.7Z" fill="#FF9090"/>
<path d="M15.3537 355.856L28.1782 359.613C28.8298 359.79 29.5407 359.642 30.0146 359.169C30.5181 358.696 30.6957 358.016 30.5477 357.365L27.3785 344.409C27.2305 343.759 26.727 343.226 26.0754 343.049C25.5719 342.901 25.0683 342.96 24.6241 343.197C24.476 343.286 24.3576 343.374 24.2391 343.493L14.5836 352.721C14.0801 353.194 13.9024 353.875 14.0505 354.525C14.1986 355.146 14.7021 355.679 15.3537 355.856Z" fill="#78A941"/>
<path d="M910.532 367.077L896.624 371.122C895.918 371.313 895.147 371.153 894.633 370.644C894.087 370.134 893.894 369.402 894.055 368.701L897.492 354.752C897.652 354.051 898.198 353.478 898.905 353.287C899.451 353.127 899.997 353.191 900.479 353.446C900.639 353.541 900.768 353.637 900.896 353.764L911.367 363.701C911.913 364.21 912.106 364.943 911.945 365.644C911.785 366.312 911.239 366.886 910.532 367.077Z" fill="#78A941"/>
<path d="M90.7164 139.765L104.015 141.126C104.696 141.185 105.348 140.889 105.733 140.357C106.118 139.795 106.207 139.085 105.911 138.464L100.431 126.307C100.165 125.686 99.5723 125.272 98.8911 125.213C98.3876 125.153 97.8841 125.301 97.499 125.627C97.3806 125.715 97.2621 125.863 97.1732 125.982L89.354 136.807C88.969 137.369 88.8801 138.079 89.1763 138.7C89.4725 139.292 90.0648 139.706 90.7164 139.765Z" fill="#F67300"/>
<path d="M828.192 132.654L814.183 134.191C813.465 134.258 812.779 133.924 812.373 133.323C811.967 132.688 811.874 131.886 812.186 131.184L817.958 117.451C818.239 116.749 818.863 116.281 819.58 116.214C820.111 116.147 820.641 116.315 821.047 116.682C821.172 116.782 821.296 116.949 821.39 117.083L829.627 129.313C830.033 129.948 830.126 130.75 829.814 131.451C829.502 132.12 828.878 132.587 828.192 132.654Z" fill="#F67300"/>
<path d="M44.4047 228.897C44.4047 230.938 42.746 232.594 40.7023 232.594C38.6586 232.594 37 230.938 37 228.897C37 226.856 38.6586 225.2 40.7023 225.2C42.746 225.2 44.4047 226.856 44.4047 228.897Z" fill="#FFAC39"/>
<path d="M879 229.2C879 231.408 880.792 233.2 883 233.2C885.208 233.2 887 231.408 887 229.2C887 226.992 885.208 225.2 883 225.2C880.792 225.2 879 226.992 879 229.2Z" fill="#FFAC39"/>
<path d="M57.7963 326.751C57.7963 328.792 56.1377 330.448 54.094 330.448C52.0503 330.448 50.3916 328.792 50.3916 326.751C50.3916 324.71 52.0503 323.053 54.094 323.053C56.1377 323.053 57.7963 324.71 57.7963 326.751Z" fill="#4B78C6"/>
<path d="M865 336.2C865 338.408 866.792 340.2 869 340.2C871.208 340.2 873 338.408 873 336.2C873 333.992 871.208 332.2 869 332.2C866.792 332.2 865 333.992 865 336.2Z" fill="#4B78C6"/>
<path d="M29.7485 287.944C29.7485 289.63 28.3565 291.02 26.6682 291.02C24.98 291.02 23.5879 289.63 23.5879 287.944C23.5879 286.258 24.98 284.868 26.6682 284.868C28.3565 284.868 29.7485 286.258 29.7485 287.944Z" fill="#65E2CB"/>
<path d="M895 293.2C895 294.844 896.582 296.2 898.5 296.2C900.418 296.2 902 294.844 902 293.2C902 291.556 900.418 290.2 898.5 290.2C896.582 290.2 895 291.556 895 293.2Z" fill="#65E2CB"/>
<path d="M99.7164 377.765L113.015 379.126C113.696 379.185 114.348 378.889 114.733 378.357C115.118 377.795 115.207 377.085 114.911 376.464L109.431 364.307C109.165 363.686 108.572 363.272 107.891 363.212C107.388 363.153 106.884 363.301 106.499 363.627C106.381 363.715 106.262 363.863 106.173 363.982L98.354 374.807C97.969 375.369 97.8801 376.079 98.1763 376.7C98.4429 377.292 99.0352 377.706 99.7164 377.765Z" fill="#4B78C6"/>
<path d="M818.192 390.74L804.183 392.192C803.465 392.255 802.779 391.939 802.373 391.371C801.967 390.772 801.874 390.014 802.186 389.351L807.958 376.381C808.239 375.718 808.863 375.276 809.58 375.213C810.111 375.15 810.641 375.308 811.047 375.655C811.172 375.75 811.296 375.908 811.39 376.034L819.627 387.584C820.033 388.184 820.126 388.941 819.814 389.604C819.533 390.235 818.909 390.677 818.192 390.74Z" fill="#4B78C6"/>
<path d="M26.0756 397.532C26.0756 399.573 24.4169 401.229 22.3732 401.229C20.3295 401.229 18.6709 399.573 18.6709 397.532C18.6709 395.491 20.3295 393.834 22.3732 393.834C24.4169 393.834 26.0756 395.491 26.0756 397.532Z" fill="#FFAC39"/>
<path d="M899 412.2C899 414.408 900.792 416.2 903 416.2C905.208 416.2 907 414.408 907 412.2C907 409.992 905.208 408.2 903 408.2C900.792 408.2 899 409.992 899 412.2Z" fill="#FFAC39"/>
<path d="M154.141 366.41C154.141 367.771 153.045 368.865 151.683 368.865C150.32 368.865 149.225 367.771 149.225 366.41C149.225 365.05 150.32 363.955 151.683 363.955C153.016 363.926 154.141 365.05 154.141 366.41Z" fill="#FF9090"/>
<path d="M760 378.7C760 380.085 761.114 381.2 762.5 381.2C763.886 381.2 765 380.085 765 378.7C765 377.315 763.886 376.2 762.5 376.2C761.145 376.17 760 377.315 760 378.7Z" fill="#FF9090"/>
<path d="M80.4944 23.1359C79.1338 23.1468 78.0307 22.0598 78.0198 20.6974C78.0089 19.335 79.0944 18.2304 80.455 18.2195C81.8155 18.2086 82.9187 19.2957 82.9296 20.6581C82.9405 22.0204 81.855 23.125 80.4944 23.1359Z" fill="#FF3612"/>
<path d="M839.644 5.63564C841.124 5.64751 842.325 4.46465 842.337 2.98217C842.348 1.49969 841.167 0.297697 839.687 0.285825C838.206 0.273953 837.006 1.45685 836.994 2.93933C836.982 4.42181 838.163 5.62377 839.644 5.63564Z" fill="#FF3612"/>
<path d="M444.044 386.406C444.044 388.092 442.652 389.482 440.964 389.482C439.276 389.482 437.884 388.092 437.884 386.406C437.884 384.72 439.276 383.33 440.964 383.33C442.652 383.33 444.044 384.72 444.044 386.406Z" fill="#65E2CB"/>
<path d="M444 400.7C444 402.618 445.582 404.2 447.5 404.2C449.418 404.2 451 402.618 451 400.7C451 398.781 449.418 397.2 447.5 397.2C445.582 397.2 444 398.781 444 400.7Z" fill="#65E2CB"/>
<path d="M414.722 408.648C414.722 410.009 413.626 411.103 412.264 411.103C410.902 411.103 409.806 410.009 409.806 408.648C409.806 407.287 410.902 406.193 412.264 406.193C413.626 406.193 414.722 407.287 414.722 408.648Z" fill="#FF9090"/>
<path d="M476 424.7C476 426.085 477.114 427.2 478.5 427.2C479.886 427.2 481 426.085 481 424.7C481 423.314 479.886 422.2 478.5 422.2C477.114 422.2 476 423.314 476 424.7Z" fill="#FF9090"/>
<path d="M66.1255 165.385C64.4396 165.398 63.0383 164.017 63.0247 162.329C63.0112 160.641 64.3902 159.238 66.0761 159.224C67.7621 159.211 69.1634 160.592 69.1769 162.28C69.1905 163.968 67.8115 165.371 66.1255 165.385Z" fill="#65E2CB"/>
<path d="M855.279 160.425C857.114 160.439 858.639 158.937 858.653 157.1C858.668 155.263 857.168 153.736 855.333 153.721C853.499 153.707 851.974 155.209 851.959 157.046C851.944 158.883 853.445 160.41 855.279 160.425Z" fill="#65E2CB"/>
<path d="M366.563 48.5904C366.563 50.2764 365.171 51.6666 363.483 51.6666C361.794 51.6666 360.402 50.2764 360.402 48.5904C360.402 46.9045 361.794 45.5143 363.483 45.5143C365.171 45.5143 366.563 46.9045 366.563 48.5904Z" fill="#FF3612"/>
<path d="M529 33.6998C529 35.6181 530.356 37.1998 532 37.1998C533.644 37.1998 535 35.6181 535 33.6998C535 31.7816 533.644 30.1998 532 30.1998C530.356 30.1998 529 31.7816 529 33.6998Z" fill="#FF3612"/>
<path d="M448.161 18.276C448.161 19.962 446.769 21.3521 445.08 21.3521C443.392 21.3521 442 19.962 442 18.276C442 16.59 443.392 15.1998 445.08 15.1998C446.769 15.1998 448.161 16.59 448.161 18.276Z" fill="#FF3612"/>
<path d="M622 52.6998C622 54.6181 623.356 56.1998 625 56.1998C626.644 56.1998 628 54.6181 628 52.6998C628 50.7816 626.644 49.1998 625 49.1998C623.356 49.1998 622 50.7816 622 52.6998Z" fill="#FF3612"/>
<path d="M342.04 23.0044C342.04 24.3651 340.944 25.4595 339.581 25.4595C338.219 25.4595 337.123 24.3651 337.123 23.0044C337.123 21.6438 338.219 20.5494 339.581 20.5494C340.944 20.5494 342.04 21.6438 342.04 23.0044Z" fill="#FFAC39"/>
<path d="M555 6.19983C555 7.86248 556.114 9.19983 557.5 9.19983C558.886 9.19983 560 7.86248 560 6.19983C560 4.53718 558.886 3.19983 557.5 3.19983C556.114 3.19983 555 4.53718 555 6.19983Z" fill="#FFAC39"/>
<path d="M307 395.2L320.328 397.359L333.656 399.489L325.126 409.959L316.596 420.401L311.798 407.8L307 395.2Z" fill="#D93E4F"/>
<path d="M593 410.2L578.5 412.513L564 414.795L573.28 426.013L582.56 437.2L587.78 423.7L593 410.2Z" fill="#4B78C6"/>
<path d="M243.944 307.845C243.944 309.531 242.552 310.922 240.863 310.922C239.175 310.922 237.783 309.531 237.783 307.845C237.783 306.159 239.175 304.769 240.863 304.769C242.581 304.769 243.944 306.13 243.944 307.845Z" fill="#65E2CB"/>
<path d="M661 315.7C661 317.618 662.582 319.2 664.5 319.2C666.418 319.2 668 317.618 668 315.7C668 313.782 666.418 312.2 664.5 312.2C662.548 312.2 661 313.748 661 315.7Z" fill="#65E2CB"/>
</g>
<defs>
<clipPath id="clip0_286_9">
<rect width="428" height="926" fill="white" transform="translate(0 428) rotate(-90)"/>
</clipPath>
</defs>
</svg>
