<svg width="157" height="183" viewBox="0 0 157 183" fill="none" xmlns="http://www.w3.org/2000/svg">
<path d="M77.6999 140.44C77.6999 140.44 72.7999 160.34 89.4999 168.54C103.3 175.34 119.4 172.54 119.4 172.54C119.4 172.54 118.8 182.04 119.6 179.84C120.4 177.64 119 165.74 119 165.74C119 165.74 93.6999 162.64 95.3999 142.54L77.6999 140.44Z" fill="#993316"/>
<path d="M115.7 165.14L114.5 173.94L116.4 174.14C116.4 174.14 116.9 180.74 119.9 182.04L122.5 166.44L115.7 165.14Z" fill="#6EAF9F"/>
<path d="M115.3 174.54C115.2 174.54 115.2 174.54 115.1 174.54C115 174.44 114.9 174.24 115 174.14L116.5 171.84C116.6 171.74 116.8 171.64 116.9 171.74C117 171.84 117.1 172.04 117 172.14L115.5 174.44C115.5 174.54 115.4 174.54 115.3 174.54Z" fill="#2D202A"/>
<path d="M116.1 175.34C116 175.34 115.9 175.34 115.9 175.24C115.8 175.14 115.8 174.94 115.9 174.84L118.1 172.74C118.2 172.64 118.4 172.64 118.5 172.74C118.6 172.84 118.6 173.04 118.5 173.14L116.3 175.24C116.3 175.34 116.2 175.34 116.1 175.34Z" fill="#2D202A"/>
<path d="M116.8 176.64C116.7 176.64 116.6 176.54 116.5 176.44C116.4 176.24 116.5 176.14 116.6 176.04L118.7 174.94C118.9 174.84 119 174.94 119.1 175.04C119.2 175.24 119.1 175.34 119 175.44L116.9 176.54C116.8 176.64 116.8 176.64 116.8 176.64Z" fill="#2D202A"/>
<path d="M97.8999 124.84C97.8999 124.84 105.2 134.74 119.4 140.54C133.6 146.34 153.3 143.74 153.3 143.74C153.3 143.74 152.2 153.14 153.2 151.04C154.1 148.94 156.1 139.24 156.1 139.24C156.1 139.24 122.7 127.14 116 118.34L97.8999 124.84Z" fill="#993316"/>
<path d="M115.3 111.24C115.3 111.24 127.2 125.44 131.5 127.24C131.5 127.24 122.9 141.24 118.1 144.34C118.1 144.34 108 144.04 99.9 133.54C99.9 133.54 102.1 142.94 104.8 154.34C104.8 154.34 88.4 157.64 78.4 160.54C78.4 160.54 71.1999 140.54 73.2999 133.04C73.2999 133.04 100.2 122.44 115.3 111.24Z" fill="#EF8615"/>
<path d="M58.8 86.94C58.8 86.94 64.0001 126.14 71.4001 143.84C71.4001 143.84 105.9 142.34 123.3 116.74C123.3 116.74 109.9 99.14 93.4001 69.14C93.4001 69.24 82.1 73.64 58.8 86.94Z" fill="#E68888"/>
<path d="M135.1 77.3401C135.1 77.3401 137.2 83.2401 138 83.1401C138.8 83.0401 137.8 77.8401 137.8 77.8401C137.8 77.8401 143.1 84.6401 144 83.7401C144.9 82.8401 141.5 77.6401 141.5 77.6401C141.5 77.6401 148.3 82.6401 148.3 81.3401C148.3 80.1401 143.3 75.4401 143.3 75.4401C143.3 75.4401 148.9 78.3401 149.3 76.5401C149.7 74.7401 142.2 73.1401 142.2 73.1401C142.2 73.1401 146.3 73.5401 146.3 71.9401C146.3 70.3401 138.9 71.1401 138.9 71.1401C138.9 71.1401 122.4 50.2401 92.5 69.6401L99.7 85.0401C99.7 85.2401 123.6 68.9401 135.1 77.3401Z" fill="#993316"/>
<path d="M149.9 136.24L148.3 145.04L150.2 145.34C150.2 145.34 150.4 151.94 153.3 153.34L156.6 137.84L149.9 136.24Z" fill="#6EAF9F"/>
<path d="M149.1 145.64C149 145.64 149 145.64 148.9 145.54C148.8 145.44 148.7 145.24 148.8 145.14L150.4 142.94C150.5 142.84 150.7 142.74 150.8 142.84C150.9 142.94 151 143.14 150.9 143.24L149.3 145.44C149.3 145.54 149.2 145.64 149.1 145.64Z" fill="#2D202A"/>
<path d="M149.9 146.44C149.8 146.44 149.7 146.44 149.7 146.34C149.6 146.24 149.6 146.04 149.7 145.94L152 144.04C152.1 143.94 152.3 143.94 152.4 144.04C152.5 144.14 152.5 144.34 152.4 144.44L150.1 146.34C150 146.44 149.9 146.44 149.9 146.44Z" fill="#2D202A"/>
<path d="M150.4 147.84C150.3 147.84 150.2 147.74 150.1 147.64C150 147.44 150.1 147.34 150.3 147.24L152.5 146.24C152.7 146.14 152.8 146.24 152.9 146.44C153 146.64 152.9 146.74 152.7 146.84L150.5 147.84C150.5 147.84 150.5 147.84 150.4 147.84Z" fill="#2D202A"/>
<path d="M15 89.3401C15 89.3401 14 83.1401 13.2 83.0401C12.4 83.0401 12.4 88.2401 12.4 88.2401C12.4 88.2401 8.50004 80.5401 7.40004 81.2401C6.30004 81.9401 8.8 87.6401 8.8 87.6401C8.8 87.6401 3.1 81.4401 2.8 82.7401C2.6 83.9401 6.60005 89.4401 6.60005 89.4401C6.60005 89.4401 1.60004 85.5401 0.900037 87.2401C0.200037 88.9401 7.20002 91.8401 7.20002 91.8401C7.20002 91.8401 3.20001 90.6401 3.00001 92.2401C2.70001 93.8401 10.1 94.4401 10.1 94.4401C10.1 94.4401 22.4 118.04 55.4 104.64L51.2 88.1401C51.3 88.2401 24.6 99.6401 15 89.3401Z" fill="#993316"/>
<path d="M12.1001 91.5401C12.0001 91.5401 11.9001 91.5401 11.9001 91.4401C11.9001 91.3401 10.8001 90.0401 12.2001 88.0401C12.3001 87.9401 12.5001 87.8401 12.6001 87.9401C12.7001 88.0401 12.8001 88.2401 12.7001 88.3401C11.6001 90.0401 12.3 91.0401 12.3 91.0401C12.4 91.1401 12.4 91.3401 12.3 91.4401C12.2 91.5401 12.1001 91.5401 12.1001 91.5401Z" fill="#2D202A"/>
<path d="M85.5001 72.54C85.5001 72.54 103.2 63.14 109.4 62.34C109.4 62.34 115.6 76.74 115.9 81.84C115.9 81.84 101.9 90.74 98.3001 92.94C98.3001 92.94 85.4001 77.74 85.5001 72.54Z" fill="#E68888"/>
<path d="M73.4 104.94C73.4 104.94 55.1 109.54 48.9 108.94C48.9 108.94 46 93.54 46.8 88.44C46.8 88.44 63.9 82.94 67.9 81.64C67.8 81.64 74.6 99.94 73.4 104.94Z" fill="#E68888"/>
<path d="M71.3 129.94C71.3 129.94 101.3 126.04 108 103.04L120.4 117.04C120.4 117.04 102.2 139.54 72.3 139.54L71.3 129.94Z" fill="#D05B63"/>
<path d="M81.3 22.54C81.3 22.54 70.9 11.34 77.5 5.34001C84.1 -0.559988 86.2 6.74001 86.2 6.74001C86.2 6.74001 81.3 -0.459986 89.8 0.740014C98.3 1.94001 95.5 7.34001 95.5 7.34001C95.5 7.34001 93.9001 -1.45999 102.4 3.74001C110.9 8.84001 105.5 15.14 105.5 15.14C105.5 15.14 107.5 8.94002 111.4 17.04C115.2 25.04 104.2 25.24 104.2 25.24C104.2 25.24 114.1 24.54 107.3 34.04C100.5 43.54 96.9001 32.04 96.9001 32.04C96.9001 32.04 105.2 35.84 94 39.64C82.8 43.44 83.5 31.64 83.5 31.64C83.5 31.64 84.2 42.94 76 34.94C67.8 26.94 73.4 15.94 81.3 22.54Z" fill="#2E1F22"/>
<path d="M35.7001 41.44C35.7001 41.44 40.2001 56.14 31.6001 58.54C23.0001 60.94 24.4001 53.54 24.4001 53.54C24.4001 53.54 25.7001 62.14 18.5001 57.44C11.4001 52.74 16.2001 49.04 16.2001 49.04C16.2001 49.04 13.8001 57.64 8.40009 49.24C3.00009 40.94 10.6001 37.64 10.6001 37.64C10.6001 37.64 6.1001 42.24 6.1001 33.44C6.2001 24.54 16.2001 29.14 16.2001 29.14C16.2001 29.14 7.00007 25.44 17.2001 19.84C27.4001 14.24 25.7001 26.14 25.7001 26.14C25.7001 26.14 19.8001 19.14 31.6001 20.64C43.4001 22.14 37.5001 32.44 37.5001 32.44C37.5001 32.44 41.8001 22.04 45.7001 32.74C49.6001 43.54 40.0001 50.94 35.7001 41.44Z" fill="#2E1F22"/>
<path d="M47.2 24.54C47.2 24.54 47.2 27.5399 54.7 34.9399C60.9 41.0399 78.1 43.1399 82.7 39.4399C85 37.7399 77.1 7.93995 47.2 24.54Z" fill="#2E1F22"/>
<path d="M103.8 87.34C103.7 87.34 103.5 87.24 103.5 87.14C101.1 79.54 93.6 73.04 93.5 72.94C93.4 72.84 93.4 72.64 93.5 72.54C93.6 72.44 93.8001 72.44 93.9001 72.54C94.0001 72.64 101.7 79.34 104.1 87.04C104.1 87.04 104.1 87.24 103.8 87.34C103.9 87.34 103.8 87.34 103.8 87.34Z" fill="#2D202A"/>
<path d="M75.2 88.84C71.3 88.84 68.4 87.04 68.4 87.04C68.3 86.94 68.2 86.74 68.3 86.64C68.4 86.54 68.6 86.44 68.7 86.54C68.8 86.54 74.3 90.04 80.5 87.04C86.7 83.94 86.8 76.64 86.8 76.54C86.8 76.34 86.9 76.24 87.1 76.24C87.3 76.24 87.4 76.34 87.4 76.54C87.4 76.64 87.3 84.34 80.8 87.64C78.8 88.44 76.9 88.84 75.2 88.84Z" fill="#2D202A"/>
<path d="M62.2 105.54C62.1 105.54 61.9 105.44 61.9 105.24C59.8 92.44 62.1 85.44 62.1 85.34C62.2 85.14 62.3 85.14 62.5 85.14C62.7 85.24 62.7 85.34 62.7 85.54C62.7 85.64 60.5 92.44 62.5 105.14C62.5 105.44 62.4 105.54 62.2 105.54Z" fill="#2D202A"/>
<path d="M32.1 49.14C32.1 49.14 24.2999 29.54 45.6999 15.94C67.0999 2.34003 84.3 12.54 91.6 30.84C100.6 53.24 84.8999 70.94 61.8999 73.84C38.8999 76.74 32.1 49.14 32.1 49.14Z" fill="#2E1F22"/>
<path d="M83.7998 34.64C83.7998 34.64 67.0999 13.34 44.5999 28.54C30.0999 38.34 28.8999 70.14 55.1999 76.24C75.6999 81.14 96.3998 53.54 83.7998 34.64Z" fill="#993316"/>
<path d="M76.1001 63.74L81.7001 74.14L85.5001 72.44C85.5001 72.44 85.9001 84.14 76.1001 85.24C68.3001 86.04 67.8 81.64 67.8 81.64L71.3 79.84L68.7001 69.44L76.1001 63.74Z" fill="#993316"/>
<path d="M58.8 65.44C55.1 65.44 52.9 61.74 52.8 61.64C52.7 61.54 52.8 61.34 52.9 61.24C53 61.14 53.2 61.24 53.3 61.34C53.3 61.34 55.6 65.24 59.3 64.84C60 64.74 60.6 64.44 61 63.94C62.5 62.04 62 58.04 62 57.94C62 57.74 62.1 57.64 62.3 57.64C62.5 57.64 62.6 57.74 62.6 57.94C62.6 58.14 63.1 62.24 61.4 64.34C60.9 65.04 60.1 65.44 59.3 65.54C59.1 65.34 58.9 65.44 58.8 65.44Z" fill="#2D202A"/>
<path d="M67.5 54.64C67.5 57.64 69.9 60.14 72.9 60.14C75.9 60.14 78.4 57.74 78.4 54.74C78.4 51.74 76 49.24 73 49.24C70 49.24 67.5 51.64 67.5 54.64Z" fill="#732116"/>
<path d="M40.5 62.64C40.5 65.64 42.9 68.14 45.9 68.14C48.9 68.14 51.4 65.74 51.4 62.74C51.4 59.74 49 57.24 46 57.24C43 57.14 40.5 59.64 40.5 62.64Z" fill="#732116"/>
<path d="M62.1001 48.14C62.1001 49.64 63.3 50.94 64.8 50.94C66.3 50.94 67.6001 49.74 67.6001 48.24C67.6001 46.74 66.4001 45.44 64.9001 45.44C63.3001 45.34 62.1001 46.54 62.1001 48.14Z" fill="#2E1F22"/>
<path d="M43.3 53.14C43.3 54.64 44.5001 55.94 46.0001 55.94C47.5001 55.94 48.8 54.74 48.8 53.24C48.8 51.74 47.6001 50.44 46.1001 50.44C44.6001 50.34 43.3 51.64 43.3 53.14Z" fill="#2E1F22"/>
<path d="M70 74.44C70 74.44 75.3 71.74 78.7 68.14L80.5 72.14L70.7 77.44L70 74.44Z" fill="#732116"/>
<path d="M82.1001 53.7401C82.1001 53.7401 84.0001 41.3401 90.6001 47.2401C98.8001 54.4401 90.3001 60.64 85.8001 61.14C81.4001 61.64 82.1001 53.7401 82.1001 53.7401Z" fill="#993316"/>
<path d="M56.8 60.2401C56.7 60.2401 56.7001 60.2401 56.6001 60.2401L51.5 57.1401C51.4 57.0401 51.3001 56.9401 51.4001 56.8401C51.4001 56.7401 51.5001 56.6401 51.7001 56.6401L56.1001 56.2401L55.2001 51.3401C55.2001 51.1401 55.3001 51.0401 55.4001 50.9401C55.6001 50.9401 55.7 51.0401 55.8 51.1401L56.7001 56.3401C56.7001 56.4401 56.7001 56.5401 56.6001 56.5401C56.5001 56.6401 56.5001 56.6401 56.4001 56.6401L52.6001 57.0401L56.9001 59.6401C57.0001 59.7401 57.1 59.9401 57 60.0401C57 60.1401 56.9 60.2401 56.8 60.2401Z" fill="#2D202A"/>
<path d="M76.3 34.0401C76.3 34.0401 83.3001 40.44 85.0001 51.84C85.4001 54.74 91.7001 35.2401 86.9001 31.5401C82.6001 28.1401 77.1 25.1401 76.3 34.0401Z" fill="#2E1F22"/>
<path d="M47.8 21.44C47.8 21.44 47.8 24.44 55.3 31.84C61.5 37.94 78.7 40.04 83.3 36.34C85.5 34.54 77.6 4.84003 47.8 21.44Z" fill="#2E1F22"/>
<path d="M47.8001 21.4401C47.8001 21.4401 50.5001 22.2401 49.2001 30.5401C47.9001 38.8401 38.0001 50.4401 34.0001 51.1401C29.9001 51.7401 26.0001 25.6401 47.8001 21.4401Z" fill="#2E1F22"/>
<path d="M84.9999 57.24H84.9C84.7 57.14 84.7 57.04 84.7 56.84C87.5 49.84 90 50.24 90.2 50.34C90.4 50.34 90.5 50.54 90.4 50.74C90.4 50.94 90.1999 51.04 89.9999 50.94C89.8999 50.94 87.8 50.64 85.2 57.04C85.3 57.14 85.1999 57.24 84.9999 57.24Z" fill="#2D202A"/>
<path d="M129 129.34H128.9C123.4 126.84 119.3 121.94 119.3 121.94C119.2 121.84 119.2 121.64 119.3 121.54C119.4 121.44 119.6 121.44 119.7 121.54C119.7 121.54 123.7 126.34 129.1 128.84C129.3 128.94 129.3 129.14 129.3 129.24C129.2 129.24 129.1 129.34 129 129.34Z" fill="#2D202A"/>
<path d="M117.2 143.34C117.1 143.34 117.1 143.34 117 143.24C116.9 143.14 116.9 142.94 117 142.84C117.1 142.74 123.5 135.54 128.7 127.34C128.8 127.24 129 127.14 129.1 127.24C129.2 127.34 129.3 127.54 129.2 127.64C123.9 135.84 117.5 143.14 117.4 143.24C117.4 143.34 117.3 143.34 117.2 143.34Z" fill="#2D202A"/>
<path d="M78.8 157.24C78.6 157.24 78.5 157.14 78.5 156.94C78.5 156.74 78.6 156.64 78.8 156.64C78.9 156.64 92.6 154.74 102.1 151.24C102.3 151.14 102.4 151.24 102.5 151.44C102.6 151.64 102.5 151.74 102.3 151.84C92.7 155.34 79 157.14 78.8 157.24Z" fill="#2D202A"/>
<path d="M81.7001 159.94C81.6001 159.94 81.5001 159.94 81.4001 159.84C79.3001 156.64 76.9 143.74 76.8 143.14C76.8 142.94 76.9001 142.84 77.0001 142.74C77.2001 142.74 77.3001 142.84 77.4001 142.94C77.4001 143.04 79.9001 156.34 82.0001 159.44C82.1001 159.54 82.1001 159.74 81.9001 159.84C81.8001 159.94 81.7001 159.94 81.7001 159.94Z" fill="#2D202A"/>
<path d="M96.2001 29.44C96.0001 29.44 95.9001 29.34 95.9001 29.14C95.9001 28.94 96.0001 28.84 96.2001 28.84C101.4 28.24 103.1 25.54 103.5 23.34C104.3 19.44 101.8 14.94 99.1001 13.34C98.2001 12.84 97.4 12.84 96.8 13.04C98.9 15.44 99.9001 18.84 99.5001 21.34C99.4001 22.24 99.0001 23.04 98.5001 23.64C98.5001 23.84 98.5001 24.14 98.5001 24.34C98.5001 26.24 97.6001 27.44 96.2001 27.54C93.2001 27.74 86.9001 22.24 85.1001 17.84C84.2001 15.74 84.4001 14.14 85.6001 13.04C86.5001 12.24 87.7001 11.94 89.0001 12.34C89.5001 11.64 90.1 11.04 90.8 10.64C91.9 10.14 93.1001 10.24 94.5001 11.04C95.2001 11.44 95.8001 11.94 96.4001 12.54C97.4001 12.14 98.4001 12.24 99.5001 12.84C102.4 14.44 105.1 19.24 104.2 23.44C103.4 26.74 100.6 28.94 96.2001 29.44ZM87.7001 12.74C87.1001 12.74 86.4 12.94 85.8 13.44C84.8 14.34 84.7001 15.74 85.5001 17.54C87.4001 22.04 93.5001 27.04 96.0001 26.84C97.5001 26.74 97.8001 25.14 97.7001 24.24C97.7001 24.14 97.7001 24.14 97.7001 24.04C97.3001 24.34 96.7001 24.64 96.1001 24.74C94.4001 25.14 92.7001 24.44 91.6001 23.04C90.5001 21.64 90.2 19.64 90.8 18.44C91.2 17.74 91.8001 17.34 92.6001 17.24C92.7001 16.94 92.8001 16.54 92.9001 16.24C92.0001 15.04 90.8001 13.94 89.5001 13.24C89.3001 13.14 89.1 13.04 88.8 12.94C87.9 14.44 87.6001 16.34 87.6001 16.34C87.6001 16.54 87.4001 16.64 87.2001 16.54C87.0001 16.54 86.9001 16.34 87.0001 16.14C87.0001 16.04 87.3001 14.24 88.2001 12.64C88.2001 12.84 88.0001 12.74 87.7001 12.74ZM92.7001 17.94C92.2001 18.04 91.8001 18.34 91.6001 18.74C91.1001 19.74 91.4 21.44 92.3 22.74C93.3 24.04 94.7001 24.54 96.2001 24.24C96.9001 24.14 97.4 23.74 97.8 23.44C97.5 21.54 96.5001 19.54 95.1001 18.54C95.2001 18.94 95.3001 19.34 95.2001 19.64C95.1001 20.14 94.8 20.54 94.3 20.64C93.7 20.74 93.2001 20.54 93.0001 20.04C92.6001 19.64 92.6001 18.84 92.7001 17.94ZM94.7001 17.64C96.5001 18.44 97.8 20.74 98.3 22.84C98.6 22.34 98.7 21.84 98.8 21.34C99.2 19.04 98.2001 15.74 96.1001 13.44C95.8001 13.64 95.5 13.84 95.3 14.04C94.7 14.64 94.2 15.54 93.8 16.34C94.1 16.74 94.4001 17.14 94.7001 17.64ZM93.3 17.94C93.2 18.74 93.2001 19.44 93.4001 19.84C93.5001 20.14 93.7001 20.14 94.1001 20.14C94.4001 20.04 94.5001 19.94 94.6001 19.64C94.6001 19.24 94.5 18.74 94.3 18.14C93.9 18.04 93.6 17.94 93.3 17.94ZM93.5001 17.34C93.6001 17.34 93.7001 17.34 93.9001 17.34C93.8001 17.24 93.7001 17.04 93.6001 16.94C93.5001 17.04 93.5001 17.24 93.5001 17.34ZM89.4001 12.54C89.6001 12.64 89.8001 12.74 90.0001 12.84C91.2001 13.44 92.4001 14.54 93.4001 15.74C93.8001 14.94 94.3001 14.14 94.9001 13.54C95.2001 13.24 95.4001 13.04 95.7001 12.94C95.2001 12.44 94.7001 12.04 94.1001 11.64C92.9001 10.94 91.9001 10.84 91.0001 11.24C90.3001 11.44 89.8001 11.94 89.4001 12.54Z" fill="#493B4B"/>
<path d="M75.6001 33.6401C63.1001 33.6401 57.2001 21.7401 57.2001 21.5401C57.1001 21.3401 57.2001 21.2401 57.3001 21.1401C57.5001 21.0401 57.6001 21.1401 57.7001 21.2401C57.8001 21.3401 65.0001 35.9401 80.3001 32.4401C80.5001 32.4401 80.6001 32.5401 80.7001 32.6401C80.7001 32.8401 80.6001 32.9401 80.5001 33.0401C78.8001 33.4401 77.2001 33.6401 75.6001 33.6401Z" fill="#493B4B"/>
<path d="M83.1 27.54C73.1 27.54 59.9 19.84 59.7 19.74C59.6 19.64 59.5 19.44 59.6 19.34C59.7 19.24 59.9 19.14 60 19.24C60.1 19.34 73.2 26.94 83.1 26.94C83.2 26.94 83.3 26.94 83.4 26.94C83.6 26.94 83.7 27.04 83.7 27.24C83.7 27.44 83.6 27.54 83.4 27.54C83.2 27.54 83.2 27.54 83.1 27.54Z" fill="#493B4B"/>
<path d="M36.5001 46.8401C36.4001 46.8401 36.3 46.8401 36.3 46.7401C36.2 46.6401 36.2001 46.4401 36.4001 46.3401C43.4001 41.0401 49.0001 24.7401 49.0001 24.6401C49.1001 24.4401 49.2001 24.4401 49.4001 24.4401C49.6001 24.5401 49.6001 24.6401 49.6001 24.8401C49.4001 25.5401 43.9 41.4401 36.8 46.8401C36.6 46.8401 36.6001 46.8401 36.5001 46.8401Z" fill="#493B4B"/>
<path d="M36.4999 37.44C36.2999 37.44 36.2 37.24 36.2 37.04C38.6 25.84 46.6999 24.34 46.7999 24.34C46.9999 24.34 47.1 24.44 47.2 24.64C47.2 24.84 47.1 24.94 46.9 25.04C46.9 25.04 44.9 25.44 42.7 27.04C40.7 28.54 37.9999 31.64 36.7999 37.24C36.7999 37.34 36.5999 37.44 36.4999 37.44Z" fill="#493B4B"/>
<path d="M79.2999 19.84C79.1999 19.84 79.1999 19.84 79.0999 19.84C63.0999 10.24 56.5999 18.54 56.4999 18.64C56.3999 18.74 56.1999 18.84 56.0999 18.74C55.9999 18.64 55.8999 18.44 55.9999 18.34C56.0999 18.24 62.8999 9.54003 79.3999 19.34C79.4999 19.44 79.5999 19.64 79.4999 19.74C79.4999 19.74 79.3999 19.84 79.2999 19.84Z" fill="#493B4B"/>
</svg>
