<svg width="152" height="188" viewBox="0 0 152 188" fill="none" xmlns="http://www.w3.org/2000/svg">
<path d="M47.9908 107.279L48.7908 108.779L50.2908 109.579L48.7908 110.479L47.9908 111.979L47.0908 110.479L45.5908 109.579L47.0908 108.779L47.9908 107.279Z" fill="#EEEEEE"/>
<path d="M92.1902 150.479H54.1902C46.0902 150.479 39.4902 143.879 39.4902 135.779V114.079C39.4902 105.979 46.0902 99.3794 54.1902 99.3794H92.0902C100.19 99.3794 106.79 105.979 106.79 114.079V135.779C106.79 143.879 100.19 150.479 92.1902 150.479Z" fill="#78A941"/>
<path d="M112.291 123.579C97.791 123.579 85.391 114.379 84.791 113.879C82.091 111.879 81.591 108.079 83.591 105.379C85.591 102.679 89.391 102.179 92.091 104.179C92.291 104.379 104.591 113.279 115.991 111.079C121.491 109.979 125.891 106.579 129.591 100.479C131.391 97.5793 135.091 96.6793 137.991 98.4793C140.891 100.279 141.791 103.979 139.991 106.879C134.491 115.879 127.191 121.379 118.191 123.079C116.191 123.379 114.191 123.579 112.291 123.579Z" fill="#DDEEFD"/>
<path d="M98.5906 112.179V144.579C98.5906 146.879 97.6906 148.979 96.0906 150.879C92.5906 155.079 85.5906 157.979 77.5906 157.979H73.7906C65.2906 157.979 57.8906 154.679 54.6906 150.079C53.4906 148.379 52.8906 146.579 52.8906 144.679V112.279C52.8906 104.979 62.2906 98.8794 73.8906 98.8794H77.6906C89.1906 98.7794 98.5906 104.879 98.5906 112.179Z" fill="#DDEEFD"/>
<path d="M62.5903 173.979L68.3903 158.279C69.8903 158.379 80.4903 158.379 81.6903 158.279L87.4903 173.979L95.4903 172.679C100.69 153.279 96.2903 146.179 96.2903 146.179H53.7903C53.7903 146.179 49.2903 153.179 54.5903 172.679L62.5903 173.979Z" fill="#FFC8AF"/>
<path d="M53.291 166.879C53.691 168.679 54.691 173.979 55.191 175.979L62.291 176.179L65.191 166.879H53.291Z" fill="#DDEEFD"/>
<path d="M96.8906 166.879H84.8906L87.8906 177.679L94.6906 177.379C95.2906 175.279 96.4906 168.679 96.8906 166.879Z" fill="#DDEEFD"/>
<path d="M75.0902 94.4792V103.579L66.4902 100.179C66.4902 100.179 70.6902 98.8792 69.6902 94.1792L75.0902 94.4792Z" fill="#FF9D80"/>
<path d="M74.791 94.4792V103.579L83.391 100.179C83.391 100.179 79.191 98.8792 80.191 94.1792L74.791 94.4792Z" fill="#FF9D80"/>
<path d="M46.7907 73.2793C46.7907 73.2793 38.5907 73.6793 33.4907 69.1793C20.8907 57.9793 33.6907 50.5793 33.6907 50.5793C33.6907 50.5793 26.6907 48.6793 25.5907 40.9793C24.0907 30.2793 36.3907 27.2793 36.3907 27.2793C36.3907 27.2793 29.3907 11.6793 42.4907 6.17931C55.5907 0.679306 61.6907 9.4793 61.6907 9.4793C61.6907 9.4793 66.1907 -3.2207 78.0907 0.779305C89.8907 4.7793 92.5907 11.2793 92.5907 11.2793C92.5907 11.2793 98.8907 2.77931 106.391 7.67931C119.291 16.0793 114.391 28.7793 114.391 28.7793C114.391 28.7793 125.691 26.4793 126.991 38.1793C128.291 49.8793 119.191 52.7793 119.191 52.7793C119.191 52.7793 125.891 58.5793 121.091 67.7793C116.291 76.9793 105.991 76.3793 105.991 76.3793L46.7907 73.2793Z" fill="#E74E1B"/>
<path d="M35.9908 75.0793C41.1823 75.0793 45.3908 70.8708 45.3908 65.6793C45.3908 60.4878 41.1823 56.2793 35.9908 56.2793C30.7993 56.2793 26.5908 60.4878 26.5908 65.6793C26.5908 70.8708 30.7993 75.0793 35.9908 75.0793Z" fill="#FF9D80"/>
<path d="M115.391 75.0793C120.583 75.0793 124.791 70.8708 124.791 65.6793C124.791 60.4878 120.583 56.2793 115.391 56.2793C110.2 56.2793 105.991 60.4878 105.991 65.6793C105.991 70.8708 110.2 75.0793 115.391 75.0793Z" fill="#FF9D80"/>
<path d="M103.89 33.6792V39.0792H43.7904C40.4904 44.4792 38.6904 50.7792 38.6904 57.4792V73.3792C38.6904 85.7792 48.8904 95.9792 61.2904 95.9792H92.4904C103.79 95.9792 113.09 86.6792 113.09 75.3792V57.4792C112.99 48.3792 109.59 40.0792 103.89 33.6792Z" fill="#FFC8AF"/>
<path opacity="0.51" d="M51.6906 83.7792C55.17 83.7792 57.9906 80.9586 57.9906 77.4792C57.9906 73.9998 55.17 71.1792 51.6906 71.1792C48.2112 71.1792 45.3906 73.9998 45.3906 77.4792C45.3906 80.9586 48.2112 83.7792 51.6906 83.7792Z" fill="#FF9D80"/>
<path opacity="0.51" d="M98.2912 83.7792C101.771 83.7792 104.591 80.9586 104.591 77.4792C104.591 73.9998 101.771 71.1792 98.2912 71.1792C94.8118 71.1792 91.9912 73.9998 91.9912 77.4792C91.9912 80.9586 94.8118 83.7792 98.2912 83.7792Z" fill="#FF9D80"/>
<path d="M71.9912 76.1792C73.4912 80.3792 79.1912 80.6792 81.3912 76.8792" stroke="#3F2732" stroke-miterlimit="10" stroke-linecap="round" stroke-linejoin="round"/>
<path d="M41.2909 61.1792C41.2909 61.1792 54.4909 63.9792 60.9909 59.4792C67.5909 54.9792 63.5909 41.0792 73.8909 38.6792C84.0909 36.1792 85.7909 45.4792 85.7909 45.4792C85.7909 45.4792 94.1909 40.2792 98.4909 43.5792C109.191 51.7792 94.3909 65.6792 106.691 65.2792C118.991 64.7792 117.091 54.3792 117.091 54.3792C117.091 54.3792 114.791 54.5792 112.691 51.8792C110.591 49.1792 118.791 26.0792 89.9909 32.1792C89.9909 32.1792 79.6909 15.5792 59.1909 23.2792C38.6909 31.0792 35.1909 50.3792 41.2909 61.1792Z" fill="#E74E1B"/>
<path d="M44.9908 41.1793C43.7908 41.1793 42.6908 40.8793 41.7908 40.2793C38.3908 37.9793 38.0908 32.5793 38.0908 32.2793C38.0908 32.0793 38.1908 31.8793 38.3908 31.8793C38.5908 31.8793 38.7908 31.9793 38.7908 32.1793C38.7908 32.2793 39.0908 37.5793 42.1908 39.5793C43.6908 40.5793 45.6908 40.6793 47.9908 39.8793C50.6908 38.9793 53.5908 36.2793 56.6908 33.4793C61.5908 29.0793 66.6908 24.4793 71.8908 25.2793C74.8908 25.7793 77.5908 27.9793 79.9908 32.0793C80.0908 32.2793 79.9908 32.4793 79.8908 32.5793C79.6908 32.6793 79.4908 32.5793 79.3908 32.4793C77.0908 28.5793 74.5908 26.4793 71.7908 25.9793C66.9908 25.2793 61.9908 29.6793 57.1908 33.9793C53.9908 36.8793 50.9908 39.5793 48.1908 40.5793C46.9908 40.9793 45.9908 41.1793 44.9908 41.1793Z" fill="#2D202A"/>
<path d="M84.2908 33.2793C83.9908 33.2793 83.8908 33.0793 83.8908 32.8793C83.8908 32.7793 85.6908 22.7793 81.0908 19.1793C79.1908 17.6793 76.2908 17.9793 73.5908 18.2793C70.8908 18.5793 68.3908 18.7793 66.8908 17.3793C65.9908 16.5793 65.5908 15.3793 65.6908 13.5793C65.6908 13.3793 65.8908 13.1793 66.0908 13.2793C66.2908 13.2793 66.4908 13.4793 66.3908 13.6793C66.3908 15.2793 66.6908 16.2793 67.3908 16.9793C68.5908 18.1793 70.9908 17.8793 73.4908 17.6793C76.3908 17.3793 79.3908 17.0793 81.5908 18.7793C86.4908 22.6793 84.7908 32.7793 84.6908 33.1793C84.6908 33.1793 84.4908 33.2793 84.2908 33.2793Z" fill="#2D202A"/>
<path d="M87.691 34.6793C87.491 34.6793 87.291 34.4793 87.291 34.2793C87.391 33.8793 88.891 23.3793 95.791 22.8793C98.691 22.6793 100.991 23.2793 102.791 23.6793C105.291 24.2793 106.891 24.6793 108.391 22.9793C108.491 22.8793 108.791 22.7793 108.891 22.9793C108.991 23.0793 109.091 23.3793 108.891 23.4793C107.091 25.4793 105.091 24.9793 102.591 24.3793C100.791 23.9793 98.591 23.3793 95.791 23.5793C89.391 23.9793 87.891 34.1793 87.891 34.2793C87.991 34.5793 87.891 34.6793 87.691 34.6793Z" fill="#2D202A"/>
<path d="M113.591 46.4792C110.291 46.4792 109.291 44.3792 108.191 41.8792C107.091 39.4792 105.891 36.7792 102.491 34.6792C99.8906 33.0792 97.6906 32.5792 95.8906 33.2792C93.3906 34.1792 92.3906 36.9792 92.3906 36.9792C92.2906 37.1792 92.0906 37.2792 91.8906 37.1792C91.6906 37.0792 91.5906 36.8792 91.6906 36.6792C91.6906 36.5792 92.7906 33.5792 95.5906 32.5792C97.6906 31.8792 100.091 32.3792 102.891 34.0792C106.491 36.3792 107.791 39.2792 108.891 41.5792C110.191 44.5792 111.091 46.4792 115.791 45.5792C115.991 45.5792 116.191 45.6792 116.191 45.8792C116.191 46.0792 116.091 46.2792 115.891 46.2792C114.991 46.4792 114.291 46.4792 113.591 46.4792Z" fill="#2D202A"/>
<path d="M49.291 50.2794C48.591 50.2794 48.091 50.1794 48.091 50.1794C47.891 50.1794 47.791 49.9794 47.791 49.7794C47.791 49.5794 47.991 49.4794 48.191 49.4794C48.291 49.4794 54.091 50.1794 58.791 45.8794C60.591 44.2794 61.891 42.0794 63.091 39.9794C65.291 36.3794 67.291 33.0794 71.191 33.9794C71.391 33.9794 71.491 34.1794 71.491 34.3794C71.491 34.5794 71.291 34.6794 71.091 34.6794C67.691 33.8794 65.891 36.8794 63.791 40.3794C62.491 42.4794 61.191 44.6794 59.391 46.3794C55.491 49.8794 51.291 50.2794 49.291 50.2794Z" fill="#2D202A"/>
<path d="M113.59 59.4794C111.79 59.4794 105.49 59.2794 105.29 56.5794C105.29 55.9794 105.39 55.1794 105.59 54.0794C106.29 50.2794 107.39 44.5794 100.69 41.3794C100.49 41.2794 100.39 41.0794 100.49 40.8794C100.59 40.6794 100.79 40.5794 100.99 40.6794C108.19 44.1794 106.99 50.3794 106.29 54.1794C106.09 55.1794 105.99 55.9794 105.99 56.4794C106.09 58.1794 110.99 58.6794 113.99 58.6794C114.19 58.6794 114.39 58.8794 114.39 59.0794C114.39 59.2794 114.19 59.4794 113.99 59.4794C113.89 59.4794 113.79 59.4794 113.59 59.4794Z" fill="#2D202A"/>
<path d="M63.991 71.6793C65.206 71.6793 66.191 70.6943 66.191 69.4793C66.191 68.2643 65.206 67.2793 63.991 67.2793C62.776 67.2793 61.791 68.2643 61.791 69.4793C61.791 70.6943 62.776 71.6793 63.991 71.6793Z" fill="#3F2732"/>
<path d="M90.191 69.4793C90.191 70.6793 89.191 71.6793 87.991 71.6793C86.791 71.6793 85.791 70.6793 85.791 69.4793C85.791 68.2793 86.791 67.2793 87.991 67.2793C89.191 67.2793 90.191 68.2793 90.191 69.4793Z" fill="#3F2732"/>
<path d="M75.1904 62.8794V68.5794L79.5904 66.5794L77.1904 71.9794" stroke="#D6402E" stroke-miterlimit="10" stroke-linecap="round" stroke-linejoin="round"/>
<path d="M132.791 87.9794C136.491 87.4794 134.091 93.7794 133.791 96.2794C134.891 96.3794 135.691 95.1794 136.091 94.0794C136.891 92.1794 137.691 90.3794 138.491 88.4794C138.991 87.1794 140.091 85.6794 141.391 86.1794C142.391 86.5794 142.591 87.7794 142.491 88.8794C142.391 90.0794 142.191 91.2794 141.791 92.4794C142.691 91.5794 143.591 90.6794 144.391 89.7794C145.291 88.8794 146.591 87.8794 147.691 88.5794C148.391 88.9794 148.591 89.9794 148.391 90.6794C148.191 91.4794 147.691 92.1794 147.191 92.7794C146.191 94.0794 145.191 95.3794 143.791 96.1794C145.191 95.1794 146.791 94.3794 148.391 93.7794C149.291 93.4794 150.391 93.2794 150.991 93.9794C151.791 94.9794 150.791 96.3794 149.791 97.0794C148.391 98.0794 146.891 98.9794 145.291 99.7794C146.191 99.1794 147.291 98.8794 148.391 99.0794C148.691 99.0794 148.991 99.1794 149.191 99.3794C149.991 99.9794 149.191 101.179 148.491 101.879C146.491 103.779 144.391 105.679 141.791 106.679C137.291 108.479 132.891 106.479 131.091 102.179C130.191 100.079 129.791 97.7794 129.991 95.5794C130.491 89.4794 132.791 87.9794 132.791 87.9794Z" fill="#FFC8AF"/>
<path d="M38.991 122.179C53.4911 122.179 65.891 112.979 66.491 112.479C69.191 110.479 69.6911 106.679 67.6911 103.979C65.6911 101.279 61.891 100.779 59.191 102.779C58.991 102.979 46.6911 111.879 35.2911 109.679C29.7911 108.579 25.391 105.179 21.691 99.0794C19.891 96.1794 16.191 95.2794 13.291 97.0794C10.391 98.8794 9.49105 102.579 11.291 105.479C16.791 114.479 24.0911 119.979 33.0911 121.679C35.0911 121.979 37.091 122.179 38.991 122.179Z" fill="#DDEEFD"/>
<path d="M18.4907 86.6793C14.7907 86.1793 17.1907 92.4793 17.4907 94.9793C16.3907 95.0793 15.5907 93.8793 15.1907 92.7793C14.3907 90.8793 13.5907 89.0793 12.7907 87.1793C12.2907 85.8793 11.1907 84.3793 9.89071 84.8793C8.89071 85.2793 8.69071 86.4793 8.79071 87.5793C8.89071 88.7793 9.09071 89.9793 9.49071 91.1793C8.59071 90.2793 7.69071 89.3793 6.89071 88.4793C5.99071 87.5793 4.69071 86.5793 3.59071 87.2793C2.89071 87.6793 2.69071 88.6793 2.89071 89.3793C3.09071 90.1793 3.59071 90.8793 4.09071 91.4793C5.09071 92.7793 6.09071 94.0793 7.49071 94.8793C6.09071 93.8793 4.49071 93.0793 2.89071 92.4793C1.99071 92.1793 0.890712 91.9793 0.290712 92.6793C-0.509288 93.6793 0.490712 95.0793 1.49071 95.7793C2.89071 96.7793 4.39071 97.6793 5.99071 98.4793C5.09071 97.8793 3.99071 97.5793 2.89071 97.7793C2.59071 97.7793 2.29071 97.8793 2.09071 98.0793C1.29071 98.6793 2.09071 99.8793 2.79071 100.579C4.79071 102.479 6.89071 104.379 9.49071 105.379C13.9907 107.179 18.3907 105.179 20.1907 100.879C21.0907 98.7793 21.4907 96.4793 21.2907 94.2793C20.7907 88.1793 18.4907 86.6793 18.4907 86.6793Z" fill="#FFC8AF"/>
<path d="M87.4911 176.279L86.7911 182.579C86.4911 184.979 88.0911 187.279 90.2911 187.179L102.191 187.079C103.591 187.079 104.191 185.079 103.191 184.079L94.9911 176.079L87.4911 176.279Z" fill="#3F2732"/>
<path d="M95.2914 176.079H87.6914V178.579H95.2914V176.079Z" fill="#3F2732"/>
<path d="M62.9905 176.279L63.6905 182.579C63.9905 184.979 62.3905 187.279 60.1905 187.179L48.2905 187.079C46.8905 187.079 46.2905 185.079 47.2905 184.079L55.4905 176.079L62.9905 176.279Z" fill="#3F2732"/>
<path d="M96.4902 128.379C93.9902 128.379 91.9902 126.379 91.9902 123.879V106.779C91.9902 104.279 93.9902 102.279 96.4902 102.279C98.9902 102.279 100.99 104.279 100.99 106.779V123.879C100.99 126.379 98.9902 128.379 96.4902 128.379Z" fill="#597C2A"/>
<path d="M53.291 127.979C50.791 127.979 48.791 125.979 48.791 123.479V106.379C48.791 103.879 50.791 101.879 53.291 101.879C55.791 101.879 57.791 103.879 57.791 106.379V123.479C57.791 125.879 55.791 127.979 53.291 127.979Z" fill="#597C2A"/>
<path d="M64.4902 98.4793H85.9902L86.1902 102.179L78.4902 107.379L74.7902 103.579L71.1902 107.179L64.6902 101.979C64.6902 101.979 64.4902 98.2793 64.4902 98.4793Z" fill="#44B0D7"/>
<path d="M75.0906 108.979C73.3906 108.979 71.8906 107.579 71.8906 105.779V103.479C71.8906 101.779 73.2906 100.279 75.0906 100.279C76.7906 100.279 78.2906 101.679 78.2906 103.479V105.779C78.1906 107.579 76.7906 108.979 75.0906 108.979Z" fill="#4C2A3B"/>
<path d="M73.9906 107.079L67.3906 122.179L75.9906 129.279L83.2906 122.079L76.2906 106.879L73.9906 107.079Z" fill="#4C2A3B"/>
<path d="M52.1909 136.679C52.1909 136.679 49.9909 155.579 54.5909 172.679H63.9909L68.3909 158.279H81.6909L86.2909 171.279L95.7909 171.479C95.7909 171.479 101.391 153.779 98.4909 136.179C98.4909 136.179 51.4909 136.079 52.1909 136.679Z" fill="#4F2F3F"/>
<path d="M64.5904 144.979C63.2904 144.979 62.1904 143.879 62.1904 142.579V135.579C62.1904 134.279 63.2904 133.179 64.5904 133.179C65.8904 133.179 66.9904 134.279 66.9904 135.579V142.579C66.9904 143.979 65.8904 144.979 64.5904 144.979Z" fill="#725465"/>
<path d="M87.5904 144.479C86.2904 144.479 85.1904 143.379 85.1904 142.079V135.079C85.1904 133.779 86.2904 132.679 87.5904 132.679C88.8904 132.679 89.9904 133.779 89.9904 135.079V142.079C89.9904 143.479 88.8904 144.479 87.5904 144.479Z" fill="#725465"/>
<path d="M56.5904 179.679H50.3904C49.9904 179.679 49.6904 179.379 49.6904 178.979V178.579C49.6904 178.179 49.9904 177.879 50.3904 177.879H56.5904C56.9904 177.879 57.2904 178.179 57.2904 178.579V178.979C57.2904 179.379 56.9904 179.679 56.5904 179.679Z" fill="#523544"/>
<path d="M100.991 182.379H94.7908C94.3908 182.379 94.0908 182.079 94.0908 181.679V181.279C94.0908 180.879 94.3908 180.579 94.7908 180.579H100.991C101.391 180.579 101.691 180.879 101.691 181.279V181.679C101.591 182.079 101.291 182.379 100.991 182.379Z" fill="#523544"/>
<path d="M55.0904 182.379H48.8904C48.4904 182.379 48.1904 182.079 48.1904 181.679V181.279C48.1904 180.879 48.4904 180.579 48.8904 180.579H55.0904C55.4904 180.579 55.7904 180.879 55.7904 181.279V181.679C55.6904 182.079 55.3904 182.379 55.0904 182.379Z" fill="#523544"/>
<path d="M98.7906 179.479H92.5906C92.1906 179.479 91.8906 179.179 91.8906 178.779V178.379C91.8906 177.979 92.1906 177.679 92.5906 177.679H98.7906C99.1906 177.679 99.4906 177.979 99.4906 178.379V178.779C99.3906 179.179 99.0906 179.479 98.7906 179.479Z" fill="#523544"/>
</svg>
