<svg width="66" height="66" viewBox="0 0 66 66" fill="none" xmlns="http://www.w3.org/2000/svg">
<path d="M33 66C51.2254 66 66 51.2254 66 33C66 14.7746 51.2254 0 33 0C14.7746 0 0 14.7746 0 33C0 51.2254 14.7746 66 33 66Z" fill="#979797"/>
<path d="M31.0201 62.205C22.6051 61.05 14.1901 56.265 9.40511 49.335C8.74511 48.51 6.10511 43.23 9.73511 44.55C12.7051 45.705 14.5201 48.675 17.3251 50.325C25.7401 54.78 35.9701 56.1 43.8901 49.83C44.5501 49.335 45.0451 48.84 45.8701 48.51C48.0151 47.52 51.1501 48.84 51.6451 51.15C52.1401 53.295 49.6651 56.76 48.1801 58.245C46.5301 59.73 44.5501 60.72 42.4051 61.38C38.6101 62.535 34.8151 62.7 31.0201 62.205Z" fill="#A7A7A7"/>
<path d="M29.3702 1.31993C27.8852 1.48493 26.4002 1.81493 24.9152 2.14493C21.1202 3.29993 16.5002 4.94993 13.3652 7.42493C11.3852 8.90993 9.90025 11.0549 8.41525 12.8699C7.09525 14.8499 5.77525 16.6649 4.29025 18.4799C3.13525 19.9649 1.98025 21.4499 1.65025 23.4299C0.990245 26.7299 3.79525 30.1949 7.09525 31.0199C12.2102 32.3399 16.3352 28.7099 20.2952 26.0699C24.9152 23.0999 30.1952 20.2949 35.3102 18.4799C40.9202 16.4999 46.8602 15.6749 52.6352 16.9949C54.7802 17.4899 56.7602 18.1499 58.5752 19.3049C61.3802 21.1199 63.3602 24.0899 64.1852 27.2249C62.0402 19.1399 57.9152 9.89993 49.9952 6.10493C43.2302 2.80493 36.7952 0.494934 29.3702 1.31993Z" fill="#AAAAAA"/>
<path opacity="0.8" d="M18.479 9.73501C18.149 9.57001 17.819 9.57001 17.489 9.57001C14.849 9.90001 13.859 12.21 12.704 14.19C11.549 16.5 10.559 18.975 10.064 21.45C10.724 19.305 11.879 17.325 13.034 15.51C14.519 13.035 15.674 13.035 17.984 11.715C18.644 11.385 19.139 10.56 18.809 9.90001C18.479 9.90001 18.479 9.90001 18.479 9.73501Z" fill="white"/>
<path opacity="0.8" d="M20.1307 8.91002C19.6357 9.07502 19.3057 9.57002 19.3057 10.065C19.6357 10.395 20.1307 10.56 20.6257 10.56C21.1207 10.395 21.2857 9.90002 21.1207 9.40502C20.9557 8.91002 20.4607 8.74502 19.9657 8.91002H20.1307Z" fill="white"/>
<path d="M45.6735 24C45.6735 25.5 45.4735 26.8 44.9735 27.9C44.4735 29 43.7735 30 42.9735 30.9C42.1735 31.8 41.2735 32.5 40.1735 33.2C39.1735 33.8 38.1735 34.4 37.2735 34.8C36.1735 35.3 35.1736 35.8 34.3736 36.2C33.5736 36.6 32.8735 36.9 32.2735 37.3C31.6735 37.7 31.1736 38.1 30.8736 38.5C30.4736 38.9 30.1736 39.5 29.8736 40.2C28.1736 40.2 26.6736 39.8 25.3736 39C24.0736 38.2 23.2735 37.1 22.9735 35.6C22.7735 34.6 22.8735 33.7 23.2735 33C23.6735 32.3 24.1736 31.6 24.8736 31.1C25.5736 30.6 26.3735 30.1 27.2735 29.7C28.1735 29.3 28.9735 28.9 29.7735 28.5C30.5735 28.1 31.1735 27.7 31.6735 27.3C32.1735 26.9 32.4736 26.4 32.3736 25.9C32.3736 25.6 32.0735 25.3 31.6735 25.1C31.2735 24.9 30.6735 24.8 30.0735 24.8C29.7735 24.8 29.3735 24.8 29.0735 24.9C28.7735 24.9 28.3735 25 28.0735 25.1C27.6735 25.2 27.2736 25.4 26.8736 25.6C26.4736 25.8 26.0735 26.1 25.7735 26.4C25.4735 26.7 25.1736 27.1 24.8736 27.4C24.6736 27.8 24.4736 28.2 24.3736 28.5C23.4736 28.2 22.5735 27.7 21.6735 26.8C20.7735 26 20.1735 24.9 20.0735 23.8C19.8735 22.2 20.0735 20.9 20.7735 19.8C21.4735 18.7 22.3735 17.8 23.4735 17.1C24.5735 16.4 25.8735 15.9 27.1735 15.5C28.5735 15.2 29.7735 15 30.9735 15C33.1735 15 35.1735 15.2 36.9735 15.6C38.7735 16 40.2735 16.6 41.5735 17.4C42.8735 18.2 43.8735 19.1 44.5735 20.2C45.1735 21.4 45.5735 22.6 45.6735 24ZM35.5735 45.7C35.7735 47.4 35.2735 48.6 34.0735 49.5C32.8735 50.4 31.2735 50.8 29.2735 50.8C28.7735 50.8 28.2735 50.7 27.5735 50.6C26.9735 50.5 26.2735 50.3 25.6735 50C25.0735 49.7 24.4735 49.3 24.0735 48.8C23.5735 48.3 23.2735 47.6 23.1735 46.7C22.9735 45.1 23.4735 43.8 24.5735 42.8C25.6735 41.8 27.1735 41.3 29.2735 41.3C31.0735 41.3 32.5735 41.7 33.6735 42.5C34.7735 43.3 35.3735 44.4 35.5735 45.7Z" fill="white"/>
</svg>
