<svg xmlns="http://www.w3.org/2000/svg" viewBox="0 0 155 185.08"><defs><style>.cls-1{fill:#44b0d7;}.cls-2{fill:#eee;}.cls-3{fill:#35b2a0;}.cls-4{fill:#ddeefd;}.cls-5{fill:#ffc8af;}.cls-6,.cls-7{fill:#ff9d80;}.cls-7{opacity:0.51;}.cls-10,.cls-14,.cls-8{fill:none;stroke-linecap:round;stroke-linejoin:round;}.cls-8{stroke:#3f2732;}.cls-9{fill:#3f2732;}.cls-10,.cls-14{stroke:#d6402e;}.cls-10{stroke-width:1.59px;}.cls-11{fill:#65e2cb;}.cls-12{fill:#b1dbfc;}.cls-13{fill:#523544;}.cls-14{stroke-width:2.38px;}</style></defs><g id="Layer_2" data-name="Layer 2"><g id="Layer_1-2" data-name="Layer 1"><rect class="cls-1" x="23.2" y="181.73" width="107.89" height="3.34" rx="1.24"/><polygon class="cls-2" points="49.18 100.24 50.04 101.82 51.62 102.68 50.04 103.54 49.18 105.11 48.32 103.54 46.75 102.68 48.32 101.82 49.18 100.24"/><rect class="cls-3" x="40.56" y="92.2" width="68.83" height="52.26" rx="14.67"/><path class="cls-4" d="M115,116.91c-14.78,0-27.52-9.43-28.13-9.88a6.23,6.23,0,0,1,7.47-10c.24.18,12.78,9.31,24.49,7,5.6-1.08,10.16-4.63,14-10.82a6.22,6.22,0,0,1,10.62,6.48c-5.65,9.25-13.14,14.83-22.28,16.58A32.89,32.89,0,0,1,115,116.91Z"/><path class="cls-4" d="M101,105.29v33.16a9.94,9.94,0,0,1-2.56,6.45c-3.62,4.29-10.74,7.22-18.88,7.22H75.65c-8.69,0-16.22-3.35-19.57-8.11a9.58,9.58,0,0,1-1.87-5.56V105.29c0-7.52,9.65-13.67,21.44-13.67h3.89C91.33,91.62,101,97.77,101,105.29Z"/><path class="cls-5" d="M64.17,168.54l5.93-16.08c1.53.08,12.34.07,13.65,0l5.92,16.08,8.19-1.37c5.37-19.87.81-27.06.81-27.06H55.18s-4.56,7.19.81,27.06Z"/><path class="cls-4" d="M54.6,161.28c.37,1.83,1.41,7.23,2,9.33l7.26.18,3-9.51Z"/><path class="cls-4" d="M99.24,161.28H87l3.11,11.06L97,172C97.59,169.89,98.88,163.11,99.24,161.28Z"/><path class="cls-6" d="M76.92,87.21v9.3l-8.81-3.45a5.05,5.05,0,0,0,3.3-6.16Z"/><path class="cls-6" d="M76.65,87.21v9.3l8.81-3.45a5.05,5.05,0,0,1-3.3-6.16Z"/><circle class="cls-6" cx="36.98" cy="57.69" r="9.59"/><circle class="cls-6" cx="118.21" cy="57.69" r="9.59"/><path class="cls-5" d="M106.42,25v5.5H45a36.3,36.3,0,0,0-5.26,18.85V65.62a23.16,23.16,0,0,0,23.1,23.1H94.71a21.1,21.1,0,0,0,21-21V49.34A36.49,36.49,0,0,0,106.42,25Z"/><circle class="cls-7" cx="53.03" cy="69.82" r="6.46"/><circle class="cls-7" cx="100.72" cy="69.82" r="6.46"/><path class="cls-8" d="M73.81,68.41a5.27,5.27,0,0,0,9.58.73"/><circle class="cls-9" cx="64.25" cy="61.59" r="2.26"/><path class="cls-9" d="M92.36,61.59a2.26,2.26,0,1,1-2.26-2.26A2.26,2.26,0,0,1,92.36,61.59Z"/><polyline class="cls-10" points="78.36 54.81 78.36 60.69 82.85 58.61 80.43 64.14"/><path class="cls-5" d="M136,80.55c3.78-.56,1.36,6,1,8.47,1.16.08,1.9-1.16,2.36-2.22l2.49-5.69c.56-1.28,1.67-2.81,3-2.31,1,.38,1.2,1.67,1.13,2.72a13.65,13.65,0,0,1-.73,3.69l2.71-2.77c.9-.92,2.24-1.92,3.35-1.27a2,2,0,0,1,.76,2.2,6,6,0,0,1-1.22,2.14A12.1,12.1,0,0,1,147.31,89,20.2,20.2,0,0,1,152,86.51c.9-.32,2.06-.51,2.67.23.81,1-.23,2.41-1.26,3.17a25.52,25.52,0,0,1-4.59,2.71,4.75,4.75,0,0,1,3.15-.75,1.47,1.47,0,0,1,.8.27c.79.65.05,1.89-.7,2.59-2.05,1.91-4.18,3.86-6.8,4.88a8.23,8.23,0,0,1-11-4.58,14.8,14.8,0,0,1-1.15-6.79C133.66,82.07,136,80.56,136,80.55Z"/><path class="cls-4" d="M40,115.52c14.78,0,27.52-9.42,28.13-9.87a6.23,6.23,0,0,0-7.47-10c-.24.18-12.78,9.3-24.49,7-5.6-1.09-10.16-4.63-13.95-10.82a6.22,6.22,0,1,0-10.62,6.48c5.65,9.25,13.14,14.82,22.28,16.57A32.06,32.06,0,0,0,40,115.52Z"/><path class="cls-5" d="M19,79.17c-3.78-.56-1.36,6-1,8.46-1.16.09-1.9-1.15-2.36-2.21l-2.49-5.69c-.56-1.28-1.67-2.81-3-2.31-1,.37-1.2,1.66-1.13,2.72a13.73,13.73,0,0,0,.73,3.69C8.88,82.91,8,82,7.07,81.06s-2.24-1.92-3.35-1.27A2,2,0,0,0,3,82a5.73,5.73,0,0,0,1.22,2.14,12,12,0,0,0,3.51,3.44A20.55,20.55,0,0,0,3,85.13c-.9-.32-2.06-.51-2.67.23-.81,1,.23,2.4,1.26,3.17a25.52,25.52,0,0,0,4.59,2.71A4.81,4.81,0,0,0,3,90.48a1.57,1.57,0,0,0-.8.28c-.79.64,0,1.89.7,2.58,2.05,1.92,4.18,3.87,6.8,4.89a8.23,8.23,0,0,0,11-4.59,14.75,14.75,0,0,0,1.15-6.78C21.34,80.68,19,79.17,19,79.17Z"/><path class="cls-9" d="M89.58,170.87l-.67,6.45c-.35,2.5,1.35,4.77,3.57,4.74l12.19-.14c1.41,0,2-2,1-3.07l-8.36-8.15Z"/><rect class="cls-9" x="89.85" y="170.7" width="7.78" height="2.59"/><path class="cls-9" d="M64.6,170.87l.67,6.45c.35,2.5-1.35,4.77-3.57,4.74l-12.19-.14c-1.41,0-2-2-1-3.07l8.37-8.15Z"/><path class="cls-11" d="M98.87,121.87h0a4.62,4.62,0,0,1-4.61-4.61V99.75a4.62,4.62,0,0,1,4.61-4.61h0a4.62,4.62,0,0,1,4.61,4.61v17.51A4.62,4.62,0,0,1,98.87,121.87Z"/><path class="cls-11" d="M54.62,121.41h0A4.62,4.62,0,0,1,50,116.8V99.29a4.62,4.62,0,0,1,4.61-4.61h0a4.62,4.62,0,0,1,4.61,4.61V116.8A4.62,4.62,0,0,1,54.62,121.41Z"/><path class="cls-12" d="M66.07,91.32h22l.23,3.8-7.84,5.3-3.82-3.91L73,100.19l-6.68-5.3S66.07,91.09,66.07,91.32Z"/><path class="cls-9" d="M76.9,102h0a3.24,3.24,0,0,1-3.23-3.23v-2.3a3.23,3.23,0,0,1,3.23-3.23h0a3.24,3.24,0,0,1,3.23,3.23v2.3A3.25,3.25,0,0,1,76.9,102Z"/><polygon class="cls-9" points="75.86 100.08 69.06 115.52 77.82 122.78 85.31 115.4 78.17 99.85 75.86 100.08"/><path class="cls-9" d="M39.33,62.63c.08.86,6.54-8,8.25-11.3A16.32,16.32,0,0,0,49,40.47a10.62,10.62,0,0,0,1.94-2.56h58.82a11.61,11.61,0,0,0,8.18-4A19.82,19.82,0,0,0,121.42,19a26,26,0,0,0-6.8-13.48c-3-3.22-7.14-5.91-11.51-5.41V18.21s-39.25-13.54-58,7.93a11.64,11.64,0,0,0-1.5,2.19C41.69,32,37.44,42.47,39.33,62.63Z"/><path class="cls-9" d="M101.43,32.72c-1.94,5.61-2.11,12,.38,17.36s7.89,9.54,13.82,9.72V46a15.63,15.63,0,0,0-8.55-15.2"/><path class="cls-9" d="M53.51,130.38s-2.3,19.31,2.48,36.79h9.62l4.49-14.71H83.75l4.67,13.36,9.68.17s5.71-18.15,2.77-36.13C100.87,129.86,52.82,129.69,53.51,130.38Z"/><path class="cls-13" d="M66.23,138.87h0a2.42,2.42,0,0,1-2.41-2.42v-7.13a2.42,2.42,0,0,1,2.41-2.42h0a2.42,2.42,0,0,1,2.41,2.42v7.13A2.42,2.42,0,0,1,66.23,138.87Z"/><path class="cls-13" d="M89.74,138.35h0a2.43,2.43,0,0,1-2.42-2.42V128.8a2.43,2.43,0,0,1,2.42-2.42h0a2.43,2.43,0,0,1,2.41,2.42v7.13A2.43,2.43,0,0,1,89.74,138.35Z"/><rect class="cls-13" x="51.01" y="172.56" width="7.68" height="1.8" rx="0.67"/><rect class="cls-13" x="96.41" y="175.32" width="7.68" height="1.8" rx="0.67"/><rect class="cls-13" x="49.45" y="175.32" width="7.68" height="1.8" rx="0.67"/><rect class="cls-13" x="94.16" y="172.33" width="7.68" height="1.8" rx="0.67"/><circle class="cls-14" cx="60.88" cy="56.64" r="14.75" transform="translate(-22.22 59.64) rotate(-45)"/><circle class="cls-14" cx="97.53" cy="57.1" r="14.75" transform="translate(-14.43 41.67) rotate(-22.5)"/></g></g></svg>