<svg xmlns="http://www.w3.org/2000/svg" viewBox="0 0 61.09 39.87"><defs><style>.cls-1{fill:#4e511a;}.cls-2{fill:#ffb43b;}.cls-3{fill:#fede00;}.cls-4{fill:#78a941;}.cls-5{fill:#747647;}.cls-6{fill:#e04613;}.cls-7{fill:#328593;}.cls-8{fill:#463a46;}.cls-12,.cls-9{fill:#34a5cf;}.cls-9{opacity:0.4;}.cls-10{fill:#f3b417;}.cls-11{fill:#273141;}.cls-13{fill:#2490b2;}.cls-14{fill:#6d2616;}.cls-15{fill:#8c050c;}.cls-16{fill:#a2e4ff;opacity:0.17;}</style></defs><g id="Layer_2" data-name="Layer 2"><g id="Layer_1-2" data-name="Layer 1"><polygon class="cls-1" points="28.95 35.84 28.01 35.66 29.41 28.83 30.34 29.02 28.95 35.84"/><path class="cls-2" d="M16.61,12S24.65.92,33.79,0s1.08,12.35,1.08,12.35Z"/><path class="cls-2" d="M7,10.24c2.63-.09,4.89,3.94,5.06,9s-1.83,9.26-4.45,9.36C16,31.81,21.7,32.86,37,29.71a64.26,64.26,0,0,0,14.88-4.77c2.62-1.26,8.17-3.89,8.06-7.51-.07-1.84-2.23-2.46-3.7-2.8-3.38-.79-7.57,1-10.63-.53a57.16,57.16,0,0,0-10-4.4,27.36,27.36,0,0,0-16.39,0C12.05,12,9.53,10,7,10.24Z"/><path class="cls-3" d="M46.27,14.39a4,4,0,0,1-.67-.29,57.16,57.16,0,0,0-10-4.4,27.36,27.36,0,0,0-16.39,0C12.05,12,9.53,10,7,10.24c1.77-.06,3.38,1.75,4.28,4.49a58.78,58.78,0,0,0,17,2.2C35.54,16.93,42,15.94,46.27,14.39Z"/><path class="cls-2" d="M45.65,14.57c.62-.53,6.67-4.22,9.07-8.08,2.58-4.17,5.7-1.87,6.27-.62s-1.26,11-1.26,11S41.87,17.85,45.65,14.57Z"/><path class="cls-4" d="M59.93,17.43a3,3,0,0,0-.17-.76C50.91,25.6,23.18,25,11.85,22.42,11.3,26,9.64,28.53,7.59,28.61,16,31.81,21.7,32.86,37,29.71a64.26,64.26,0,0,0,14.88-4.77C54.49,23.68,60,21.05,59.93,17.43Z"/><path class="cls-5" d="M51.87,23.06A63.76,63.76,0,0,1,37,27.82c-14,2.88-19.9,2.25-27.26-.31a4.06,4.06,0,0,1-2.58,1c8.46,3.2,14.55,4.32,29.84,1.17a64.26,64.26,0,0,0,14.88-4.77c2.62-1.26,8.17-3.89,8.06-7.51a1.92,1.92,0,0,0-.17-.76C59.05,19.31,54.17,22,51.87,23.06Z"/><path class="cls-3" d="M12,19.25c-.17-5.07-2.35-9.11-4.87-9l-.27,0c-2.39.38-4.15,4.45-4,9.34s2.19,8.81,4.59,9h.27C10.3,28.51,12.2,24.32,12,19.25Z"/><path class="cls-6" d="M11.23,19.28c-.14-4.21-2-7.56-4.05-7.48l-.23,0c-2,.31-3.45,3.69-3.32,7.75S5.46,26.88,7.46,27h.22C9.78,27,11.37,23.49,11.23,19.28Z"/><path class="cls-2" d="M6.86,26.9c1.75-.71,3-3.87,2.88-7.62S8.24,12.63,6.51,12c-1.76.7-3,3.87-2.88,7.62S5.13,26.21,6.86,26.9Z"/><path class="cls-7" d="M28.37,4.55C22.13,4.38,17,7.64,16.83,11.82c.06-2,5.17-3.47,11.41-3.3s11.24,1.92,11.17,3.91C39.55,8.24,34.6,4.71,28.37,4.55Z"/><path class="cls-8" d="M28.24,8.52C22,8.35,16.89,9.83,16.83,11.82S21.77,15.57,28,15.74s11.35-1.32,11.41-3.31S34.47,8.68,28.24,8.52Z"/><path class="cls-9" d="M28.37,4.55C22.13,4.38,17,7.64,16.83,11.82c-.07,2,4.94,3.75,11.17,3.92s11.35-1.32,11.41-3.31C39.55,8.24,34.6,4.71,28.37,4.55Z"/><path class="cls-10" d="M20.52,23.66S37.06,37.3,47.28,38.41a4.25,4.25,0,0,0,4.42-5.78c-1.12-2.78-3.55-6.57-8.83-10.77C42.87,21.86,18.17,18.41,20.52,23.66Z"/><path class="cls-3" d="M42.87,21.86S29.22,20,23.18,21.13c3.54,2.8,17.06,13.09,25.89,14.05A4.2,4.2,0,0,0,52,34.42a4.37,4.37,0,0,0-.29-1.79C50.58,29.85,48.15,26.06,42.87,21.86Z"/><path class="cls-11" d="M31.68,35.61a3.8,3.8,0,0,1-3.29,4.24,3.76,3.76,0,0,1-4-3.57A3.81,3.81,0,0,1,27.71,32,3.77,3.77,0,0,1,31.68,35.61Z"/><path class="cls-4" d="M30.77,35.54a2.41,2.41,0,0,1-2.07,2.68A2.38,2.38,0,0,1,26.19,36a2.41,2.41,0,0,1,2.07-2.68A2.37,2.37,0,0,1,30.77,35.54Z"/><path class="cls-12" d="M10.77,6A3.31,3.31,0,0,1,13,10.26c-.7,1.69-4.21,8.12-6.12,7.43S5.36,9.46,6.06,7.77A3.69,3.69,0,0,1,10.77,6Z"/><path class="cls-13" d="M7.78,6.76s3-.06,3.52,2.41-3.06,5.65-3.06,5.65,2.22-3.7,1.36-5.44S6.75,7,7.78,6.76Z"/><path class="cls-12" d="M2.88,33.2a3.37,3.37,0,0,0,4-2.58c.33-1.79.89-9-1-9.37S.39,27.51.05,29.3A3.43,3.43,0,0,0,2.88,33.2Z"/><path class="cls-13" d="M.91,31s2.38,1.55,4.1-.3.52-6.33.52-6.33-.17,4.26-1.78,5.31S.19,30.34.91,31Z"/><path class="cls-6" d="M8.62,19.39c.28-2.44-.51-4.53-1.78-4.67H6.7c-1.21,0-2.39,1.82-2.66,4.18s.46,4.38,1.64,4.65l.14,0C7.09,23.7,8.34,21.84,8.62,19.39Z"/><path class="cls-14" d="M5.68,23.54a1.57,1.57,0,0,0,1.19-.48A4,4,0,0,0,7.62,22a8.6,8.6,0,0,0,.72-2.55,8.34,8.34,0,0,0-.07-2.64c-.19-.89-.56-1.82-1.43-2.07,1,0,1.57,1,1.85,2a6.73,6.73,0,0,1,.24,1.4,8.4,8.4,0,0,1,0,1.42A6.64,6.64,0,0,1,8,22.19a3.35,3.35,0,0,1-1,1.07A1.48,1.48,0,0,1,5.68,23.54Z"/><path class="cls-15" d="M7.64,19.29c.16-1.4-.29-2.6-1-2.68H6.54c-.69,0-1.37,1-1.52,2.4s.26,2.51.94,2.66H6C6.76,21.75,7.48,20.68,7.64,19.29Z"/><path class="cls-16" d="M24.26,5.29c-.3.08-.57.17-.77.24A8.65,8.65,0,0,0,19,9.29c-.87,1.55-1.16,4,.74,4.43,2.72.64,2.63-3.18,5-4.38S30,6.9,29.28,5.7,25.85,4.84,24.26,5.29Z"/></g></g></svg>