<svg xmlns="http://www.w3.org/2000/svg" viewBox="0 0 150 83.71"><defs><style>.cls-1{fill:#fff;}.cls-2{fill:#f6eac6;opacity:0.3;}.cls-3{fill:#7f48c3;}.cls-4{fill:#65e2cb;}.cls-5{fill:#ff3612;}.cls-6{fill:#ff9090;}.cls-7{fill:#78a941;}.cls-8{fill:#f67300;}.cls-9{fill:#4b78c6;}.cls-10{fill:#ffac39;}.cls-11{fill:#ef7807;}.cls-12{fill:#34a5cf;}.cls-13{fill:#d93e4f;}.cls-14,.cls-15,.cls-16,.cls-17,.cls-18,.cls-28,.cls-30{fill:none;stroke-linecap:round;stroke-linejoin:round;}.cls-14,.cls-15,.cls-18,.cls-28{stroke:#3f2732;}.cls-14,.cls-15,.cls-18{stroke-width:0.27px;}.cls-15{stroke-dasharray:1.19 1.06;}.cls-16{stroke:#b72a3e;}.cls-16,.cls-17{stroke-width:0.53px;}.cls-17{stroke:#668e32;}.cls-18{stroke-dasharray:1.19 1.06;}.cls-19{fill:#2d202a;}.cls-20{fill:#e74c4e;}.cls-21{fill:#e42d31;}.cls-22{fill:#44b0d7;}.cls-23{fill:#f4eac1;}.cls-24{fill:#ffc8af;}.cls-25{fill:#ddeefd;}.cls-26,.cls-27{fill:#ff9d80;}.cls-27{opacity:0.51;}.cls-28,.cls-30{stroke-width:0.17px;}.cls-29{fill:#3f2732;}.cls-30{stroke:#d6402e;}.cls-31{fill:#93b7ce;}.cls-32{fill:#27263d;}.cls-33{fill:#523544;}.cls-34{fill:#2e1f22;}.cls-35{fill:#493b4b;}.cls-36{fill:#bf3037;stroke:#ffac39;stroke-miterlimit:10;stroke-width:0.86px;}</style></defs><g id="Layer_2" data-name="Layer 2"><g id="Layer_1-2" data-name="Layer 1"><rect class="cls-1" width="150" height="83.71"/><rect class="cls-2" width="150" height="83.71"/><polygon class="cls-3" points="30.45 3.22 31 4.33 32.23 4.51 31.34 5.38 31.55 6.61 30.45 6.03 29.34 6.61 29.55 5.38 28.66 4.51 29.9 4.33 30.45 3.22"/><polygon class="cls-4" points="32.5 72.97 33.34 74.44 34.19 75.91 32.5 75.91 30.8 75.91 31.65 74.44 32.5 72.97"/><polygon class="cls-5" points="8.79 33.38 9.64 34.85 10.48 36.32 8.79 36.32 7.09 36.32 7.94 34.85 8.79 33.38"/><path class="cls-5" d="M44.9,77l-2.21,1.38a.36.36,0,0,0-.18.32.38.38,0,0,0,.2.32L45,80.2a.38.38,0,0,0,.37,0,.41.41,0,0,0,.16-.23.34.34,0,0,0,0-.1l-.08-2.61a.37.37,0,0,0-.2-.31A.38.38,0,0,0,44.9,77Z"/><path class="cls-6" d="M108.23,79.5l2.5.73a.34.34,0,0,0,.36-.09.36.36,0,0,0,.11-.35l-.62-2.54a.36.36,0,0,0-.26-.26.35.35,0,0,0-.28,0l-.08,0-1.88,1.81a.36.36,0,0,0-.11.35A.39.39,0,0,0,108.23,79.5Z"/><path class="cls-7" d="M16.28,45.74l2.5.74a.39.39,0,0,0,.36-.09.37.37,0,0,0,.11-.36l-.62-2.53a.37.37,0,0,0-.26-.27.39.39,0,0,0-.28,0l-.08.06-1.88,1.8a.37.37,0,0,0-.11.36A.35.35,0,0,0,16.28,45.74Z"/><path class="cls-4" d="M94.74,76.81l.76-2.49a.36.36,0,0,0-.08-.36.37.37,0,0,0-.36-.11l-2.54.59a.36.36,0,0,0-.24.53.35.35,0,0,0,0,.08L94.11,77a.37.37,0,0,0,.63-.15Z"/><path class="cls-4" d="M60.49,6.81l2.6.26a.33.33,0,0,0,.33-.15.38.38,0,0,0,0-.37L62.39,4.17a.35.35,0,0,0-.3-.21.36.36,0,0,0-.27.08.23.23,0,0,0-.07.07L60.23,6.22a.38.38,0,0,0,0,.37A.36.36,0,0,0,60.49,6.81Z"/><path class="cls-8" d="M22.09,34.62l2.59.26a.35.35,0,0,0,.34-.15.38.38,0,0,0,0-.37L24,32a.35.35,0,0,0-.3-.21.36.36,0,0,0-.27.08.23.23,0,0,0-.07.07L21.83,34a.36.36,0,0,0,0,.37A.38.38,0,0,0,22.09,34.62Z"/><path class="cls-9" d="M23.73,24.21l2.59.26a.34.34,0,0,0,.34-.15.38.38,0,0,0,0-.37l-1.07-2.38a.35.35,0,0,0-.3-.21.36.36,0,0,0-.27.08l-.07.07-1.52,2.12a.36.36,0,0,0,0,.36A.36.36,0,0,0,23.73,24.21Z"/><path class="cls-5" d="M42.45,5.89a.3.3,0,0,1,.41.32l-.3,2.1-.3,2.09a.3.3,0,0,1-.48.2L40.12,9.29,38.45,8a.31.31,0,0,1,.07-.52l2-.79Z"/><polygon class="cls-10" points="76.51 76.3 78.49 77.31 80.46 78.33 78.6 79.53 76.73 80.74 76.62 78.52 76.51 76.3"/><polygon class="cls-11" points="123.71 73.91 125.69 74.92 127.67 75.94 125.8 77.14 123.93 78.35 123.82 76.13 123.71 73.91"/><path class="cls-5" d="M7.43,45.89a.73.73,0,1,1-.73-.72A.73.73,0,0,1,7.43,45.89Z"/><path class="cls-5" d="M89.86,78.65a.72.72,0,1,1-.72-.72A.72.72,0,0,1,89.86,78.65Z"/><path class="cls-5" d="M100.54,5.11a.61.61,0,1,1-.61-.6A.61.61,0,0,1,100.54,5.11Z"/><path class="cls-7" d="M108.15,6.64a.6.6,0,0,1-.6.6.6.6,0,0,1,0-1.2A.6.6,0,0,1,108.15,6.64Z"/><path class="cls-10" d="M18.38,22.14a.73.73,0,0,1-.73.72.73.73,0,0,1,0-1.45A.73.73,0,0,1,18.38,22.14Z"/><path class="cls-3" d="M22.22,39.66a.49.49,0,1,1-.49-.48A.49.49,0,0,1,22.22,39.66Z"/><circle class="cls-10" cx="61.54" cy="14.44" r="0.6"/><path class="cls-10" d="M115.88,3.57a.6.6,0,1,1-.6-.61A.6.6,0,0,1,115.88,3.57Z"/><path class="cls-4" d="M36.28,79.41a.36.36,0,1,1-.36-.36A.36.36,0,0,1,36.28,79.41Z"/><path class="cls-12" d="M100.31,79.35a.85.85,0,1,1-.85-.84A.85.85,0,0,1,100.31,79.35Z"/><path class="cls-4" d="M16.58,32.8a.6.6,0,1,1-.6-.6A.6.6,0,0,1,16.58,32.8Z"/><path class="cls-4" d="M143.73,46.17a.61.61,0,1,1-.6-.6A.6.6,0,0,1,143.73,46.17Z"/><path class="cls-4" d="M53.69,79.73a.49.49,0,1,1-.48-.48A.48.48,0,0,1,53.69,79.73Z"/><circle class="cls-6" cx="49.81" cy="72.38" r="0.48"/><path class="cls-5" d="M6.79,28.37A.84.84,0,1,1,6,27.52.85.85,0,0,1,6.79,28.37Z"/><path class="cls-4" d="M9.74,19.85a.6.6,0,0,1-.6.6.6.6,0,1,1,0-1.2A.6.6,0,0,1,9.74,19.85Z"/><path class="cls-6" d="M13.73,28.27a.47.47,0,0,1-.48.48.48.48,0,1,1,0-1A.47.47,0,0,1,13.73,28.27Z"/><path class="cls-6" d="M13.8,39.64a.47.47,0,0,1-.48.48.48.48,0,0,1-.48-.48.49.49,0,0,1,.48-.48A.48.48,0,0,1,13.8,39.64Z"/><path class="cls-7" d="M17.15,77.72l2.5.73a.34.34,0,0,0,.36-.09.36.36,0,0,0,.11-.35l-.62-2.54a.36.36,0,0,0-.26-.26.35.35,0,0,0-.28,0l-.08.05L17,77.1a.36.36,0,0,0-.11.35A.37.37,0,0,0,17.15,77.72Z"/><path class="cls-8" d="M24.6,65.54l2.6.26a.33.33,0,0,0,.33-.15.38.38,0,0,0,0-.37L26.5,62.9a.35.35,0,0,0-.3-.21.36.36,0,0,0-.27.08.23.23,0,0,0-.07.07L24.34,65a.38.38,0,0,0,0,.37A.36.36,0,0,0,24.6,65.54Z"/><path class="cls-10" d="M18.38,53.89a.73.73,0,0,1-.73.73.73.73,0,0,1-.72-.73.72.72,0,0,1,.72-.72A.73.73,0,0,1,18.38,53.89Z"/><path class="cls-10" d="M26.58,78.5a.73.73,0,1,1-.72-.72A.72.72,0,0,1,26.58,78.5Z"/><path class="cls-3" d="M23.09,71.42a.49.49,0,1,1-.49-.48A.48.48,0,0,1,23.09,71.42Z"/><path class="cls-4" d="M19.09,64.22a.6.6,0,1,1-.6-.6A.6.6,0,0,1,19.09,64.22Z"/><path class="cls-5" d="M5.45,56.61a.84.84,0,1,1-1.68,0,.84.84,0,1,1,1.68,0Z"/><path class="cls-4" d="M9.74,51.61a.6.6,0,0,1-.6.6.61.61,0,0,1,0-1.21A.6.6,0,0,1,9.74,51.61Z"/><path class="cls-6" d="M13.73,60a.48.48,0,0,1-.48.48.49.49,0,0,1-.48-.48.48.48,0,0,1,.48-.48A.47.47,0,0,1,13.73,60Z"/><polygon class="cls-5" points="125.49 33.22 126.34 34.69 127.19 36.16 125.49 36.16 123.8 36.16 124.64 34.69 125.49 33.22"/><path class="cls-7" d="M132.65,45.53l2.5.73a.38.38,0,0,0,.47-.44L135,43.28a.37.37,0,0,0-.26-.27.4.4,0,0,0-.28,0l-.08.05-1.88,1.8a.38.38,0,0,0-.11.36A.37.37,0,0,0,132.65,45.53Z"/><path class="cls-8" d="M141,33.56l2.6.27a.37.37,0,0,0,.33-.15.38.38,0,0,0,0-.37l-1.07-2.38a.36.36,0,0,0-.3-.22.38.38,0,0,0-.27.08l-.07.07L140.71,33a.38.38,0,0,0,0,.37A.35.35,0,0,0,141,33.56Z"/><path class="cls-9" d="M140.1,24l2.6.27a.38.38,0,0,0,.37-.52L142,21.36a.37.37,0,0,0-.57-.14l-.07.07-1.52,2.12a.38.38,0,0,0,0,.37A.35.35,0,0,0,140.1,24Z"/><path class="cls-5" d="M123.8,41.66a.73.73,0,0,1-1.45,0,.73.73,0,1,1,1.45,0Z"/><path class="cls-10" d="M134.75,21.92a.73.73,0,1,1-.73-.72A.73.73,0,0,1,134.75,21.92Z"/><path class="cls-9" d="M140.94,39.83a.72.72,0,1,1-.72-.72A.72.72,0,0,1,140.94,39.83Z"/><path class="cls-3" d="M142.72,15.08a.48.48,0,0,1-.48.48.47.47,0,0,1-.48-.48.48.48,0,0,1,.48-.48A.49.49,0,0,1,142.72,15.08Z"/><path class="cls-4" d="M135.46,32.25a.6.6,0,1,1-1.2,0,.6.6,0,1,1,1.2,0Z"/><path class="cls-3" d="M125.17,24.3a.84.84,0,0,1-1.68,0,.84.84,0,0,1,1.68,0Z"/><path class="cls-4" d="M126.11,19.63a.6.6,0,1,1-.6-.6A.6.6,0,0,1,126.11,19.63Z"/><path class="cls-6" d="M129.94,28.55a.49.49,0,1,1-.48-.48A.49.49,0,0,1,129.94,28.55Z"/><path class="cls-6" d="M130.17,39.43a.48.48,0,0,1-.48.48.49.49,0,1,1,.48-.48Z"/><polygon class="cls-5" points="125.16 64.92 126.01 66.39 126.85 67.86 125.16 67.86 123.46 67.86 124.31 66.39 125.16 64.92"/><path class="cls-9" d="M140.1,55.75l2.6.26a.33.33,0,0,0,.33-.15.38.38,0,0,0,0-.37L142,53.11a.35.35,0,0,0-.3-.21.36.36,0,0,0-.27.08.46.46,0,0,0-.07.07l-1.52,2.12a.36.36,0,0,0,0,.36A.36.36,0,0,0,140.1,55.75Z"/><path class="cls-10" d="M134.75,53.68A.73.73,0,1,1,134,53,.73.73,0,0,1,134.75,53.68Z"/><path class="cls-10" d="M134.91,75.61a.72.72,0,0,1-1.44,0,.72.72,0,1,1,1.44,0Z"/><path class="cls-5" d="M123.16,59.91a.84.84,0,1,1-.84-.85A.85.85,0,0,1,123.16,59.91Z"/><path class="cls-4" d="M126.11,51.39a.6.6,0,1,1-.6-.6A.6.6,0,0,1,126.11,51.39Z"/><path class="cls-6" d="M130.1,59.81a.47.47,0,0,1-.48.48.48.48,0,1,1,0-1A.47.47,0,0,1,130.1,59.81Z"/><path class="cls-6" d="M14.67,71.62a.48.48,0,0,1-.48.48.49.49,0,0,1-.48-.48.48.48,0,0,1,.48-.48A.47.47,0,0,1,14.67,71.62Z"/><path class="cls-5" d="M84.21,74.9a.49.49,0,1,1-.48-.48A.48.48,0,0,1,84.21,74.9Z"/><path class="cls-4" d="M71.3,75.53a.61.61,0,1,1-.61-.6A.6.6,0,0,1,71.3,75.53Z"/><path class="cls-6" d="M65.57,79.88a.48.48,0,0,1-.48.49.49.49,0,0,1,0-1A.48.48,0,0,1,65.57,79.88Z"/><path class="cls-4" d="M119.89,79.29a.48.48,0,0,1-.48.48.49.49,0,1,1,.48-.48Z"/><path class="cls-5" d="M116,74.9a.47.47,0,0,1-.48.48.48.48,0,0,1,0-1A.47.47,0,0,1,116,74.9Z"/><path class="cls-4" d="M105.66,74.88a.6.6,0,1,1-.6-.6A.6.6,0,0,1,105.66,74.88Z"/><path class="cls-5" d="M56.16,9.47a.6.6,0,1,1-.6-.61A.6.6,0,0,1,56.16,9.47Z"/><path class="cls-5" d="M69.21,9.47a.6.6,0,1,1-.6-.61A.6.6,0,0,1,69.21,9.47Z"/><path class="cls-11" d="M81.3,7.92a.61.61,0,1,1-.6-.61A.6.6,0,0,1,81.3,7.92Z"/><path class="cls-10" d="M51.38,4.46A.49.49,0,1,1,50.9,4,.48.48,0,0,1,51.38,4.46Z"/><path class="cls-4" d="M73.46,4.43a.61.61,0,1,1-.61-.6A.61.61,0,0,1,73.46,4.43Z"/><path class="cls-13" d="M130.51,79.45a.6.6,0,1,1-.6-.6A.6.6,0,0,1,130.51,79.45Z"/><path class="cls-7" d="M134.65,69.45a.61.61,0,1,1-.61-.6A.6.6,0,0,1,134.65,69.45Z"/><path class="cls-8" d="M89.83,6.76l-.19-2.6a.36.36,0,0,0-.57-.28L86.91,5.33a.4.4,0,0,0-.17.34.38.38,0,0,0,.13.25L87,6,89.3,7.12a.34.34,0,0,0,.36,0A.37.37,0,0,0,89.83,6.76Z"/><polygon class="cls-13" points="56.15 73.51 58.75 73.93 61.35 74.35 59.69 76.39 58.02 78.44 57.08 75.97 56.15 73.51"/><path class="cls-4" d="M118.94,39.39a.37.37,0,1,1-.36-.36A.36.36,0,0,1,118.94,39.39Z"/><circle class="cls-4" cx="118.19" cy="57.48" r="0.36"/><path class="cls-14" d="M72.73,20.21l-.44-.41"/><path class="cls-15" d="M71.46,19.14c-4.58-3.33-10.4-2.13-15.81-1.57-2.92.3-6,.43-8.75-.61-3.33-1.24-4.29-4.51-1.06-6.71.46-.31,1.66-1,1.82.07.26,1.63-2.84,3.16-4,3.71a11.54,11.54,0,0,1-6.43,1.14c-5.29-.64-13.35-9.76-18.6-8.5"/><path class="cls-14" d="M18.17,6.83a4.34,4.34,0,0,0-.54.25"/><path class="cls-4" d="M13.07,7.5a.6.6,0,1,1-.6-.6A.6.6,0,0,1,13.07,7.5Z"/><path class="cls-13" d="M16.66,3.74l-12,5,9,5,3.87-1.53,2.75.48a.65.65,0,0,0,.43-1.2L14.58,8l2.81-3.27A.63.63,0,0,0,16.66,3.74Z"/><line class="cls-16" x1="4.69" y1="8.75" x2="14.58" y2="8.01"/><line class="cls-16" x1="17.99" y1="12.08" x2="4.77" y2="8.97"/><path class="cls-7" d="M131.22,2.91,143.87,5.8l-8,6.42-4.07-.84-2.63.94a.64.64,0,0,1-.63-1.1L134,6.76,130.67,4A.64.64,0,0,1,131.22,2.91Z"/><line class="cls-17" x1="143.87" y1="5.8" x2="134" y2="6.76"/><path class="cls-17" d="M136.08,9.34c2.6-1,5.17-2.29,7.75-3.3"/><path class="cls-17" d="M131.34,11.35l2.28-1"/><path class="cls-18" d="M113.91,8.5a23.14,23.14,0,0,1-6.54,3.16c-2.08.58-5.45,1.32-7.24-.31a2.18,2.18,0,0,1-.41-2.69c.53-.9,2.39-1,2.07.37s-2.61,1.29-3.66,1.16a28.28,28.28,0,0,1-4.25-1.12,10.69,10.69,0,0,0-9.33,1.51"/><path class="cls-18" d="M131.27,7c-3.86-2.11-9-3.08-16.37.69"/><path class="cls-4" d="M32.22,60.16a.61.61,0,1,1-.61-.6A.61.61,0,0,1,32.22,60.16Z"/><path class="cls-19" d="M142.22,80.85h0a.05.05,0,0,1,0-.08,3.53,3.53,0,0,0,.5-4.46,4.16,4.16,0,0,0-.73-.9,1.58,1.58,0,0,1-1.34.31.59.59,0,0,1-.37-.63.45.45,0,0,1,.33-.45,1.86,1.86,0,0,1,1.39.62,2.32,2.32,0,0,0,.47-.47,2.1,2.1,0,0,0-.11-2.67,4.55,4.55,0,0,1-.92-3.58,3.73,3.73,0,0,1,.6-1.45.06.06,0,0,1,.09,0,.06.06,0,0,1,0,.08A4.11,4.11,0,0,0,142.4,72a2.2,2.2,0,0,1,.11,2.81,2.43,2.43,0,0,1-.48.48,4,4,0,0,1,.74.91,3.68,3.68,0,0,1-.51,4.59A0,0,0,0,1,142.22,80.85Zm-1.52-6.12-.12,0a.31.31,0,0,0-.23.33.49.49,0,0,0,.29.53,1.54,1.54,0,0,0,1.21-.29A2,2,0,0,0,140.7,74.73Z"/><ellipse class="cls-20" cx="141.38" cy="66.1" rx="4.85" ry="5.43"/><path class="cls-21" d="M141.79,71.1s-.16,1.17,0,1.29a.93.93,0,0,0,1-.48C142.89,71.53,141.71,70.68,141.79,71.1Z"/><path class="cls-1" d="M142.78,61.65s2.21.74,2.33,2.57c0,.3-1.29-1-2.86-1.75C139.51,61.22,141.66,61.22,142.78,61.65Z"/><rect class="cls-22" x="6.81" y="80.53" width="19.71" height="0.61" rx="0.21"/><path class="cls-23" d="M21,66.32v6.2a1.84,1.84,0,0,1-.48,1.21A4.7,4.7,0,0,1,17,75.08H16.3a4.54,4.54,0,0,1-3.66-1.52,1.83,1.83,0,0,1-.35-1v-6.2c0-1.41,1.81-2.56,4-2.56H17C19.24,63.76,21,64.91,21,66.32Z"/><path class="cls-24" d="M14.16,78.15l1.1-3c.29,0,2.31,0,2.56,0l1.11,3,1.53-.26c1-3.71.15-5.06.15-5.06H12.47s-.85,1.35.15,5.06Z"/><path class="cls-25" d="M12.37,76.79c.06.34.26,1.35.37,1.75l1.35,0,.57-1.78Z"/><path class="cls-25" d="M20.72,76.79H18.43L19,78.86l1.29-.06C20.41,78.4,20.65,77.13,20.72,76.79Z"/><path class="cls-26" d="M16.54,62.94v1.73L14.89,64a1,1,0,0,0,.62-1.15Z"/><path class="cls-26" d="M16.49,62.94v1.73L18.14,64a1,1,0,0,1-.62-1.15Z"/><circle class="cls-26" cx="9.07" cy="57.41" r="1.79"/><circle class="cls-26" cx="24.26" cy="57.41" r="1.79"/><path class="cls-24" d="M22.06,51.29v1H10.56a6.86,6.86,0,0,0-1,3.53v3a4.33,4.33,0,0,0,4.32,4.32h6a4,4,0,0,0,3.93-3.94V55.85A6.87,6.87,0,0,0,22.06,51.29Z"/><circle class="cls-27" cx="12.07" cy="59.68" r="1.21"/><circle class="cls-27" cx="20.99" cy="59.68" r="1.21"/><path class="cls-28" d="M15.71,59.41a1,1,0,0,0,1.79.14"/><path class="cls-29" d="M14.56,57.91a.41.41,0,1,1-.41-.42A.41.41,0,0,1,14.56,57.91Z"/><path class="cls-29" d="M19.4,57.91a.41.41,0,1,1-.41-.42A.41.41,0,0,1,19.4,57.91Z"/><polyline class="cls-30" points="16.56 56.87 16.56 57.97 17.4 57.59 16.95 58.62"/><path class="cls-23" d="M9.64,68.23a9.75,9.75,0,0,0,5.26-1.85,1.16,1.16,0,0,0-1.39-1.86s-2.39,1.74-4.59,1.32a4,4,0,0,1-2.6-2,1.16,1.16,0,1,0-2,1.21,6.2,6.2,0,0,0,4.17,3.1A5.57,5.57,0,0,0,9.64,68.23Z"/><path class="cls-24" d="M5.71,61.43c-.71-.1-.26,1.12-.19,1.58-.22,0-.36-.21-.44-.41l-.47-1.06c-.1-.24-.31-.53-.55-.44s-.23.31-.22.51A2.64,2.64,0,0,0,4,62.3l-.51-.52c-.16-.17-.41-.36-.62-.23a.36.36,0,0,0-.14.41,1.13,1.13,0,0,0,.22.4,2.36,2.36,0,0,0,.66.64,3.55,3.55,0,0,0-.89-.45c-.16-.06-.38-.1-.49,0s0,.45.23.59a5,5,0,0,0,.86.51.82.82,0,0,0-.59-.14.21.21,0,0,0-.15.05c-.15.12,0,.35.13.48A4.39,4.39,0,0,0,4,65,1.54,1.54,0,0,0,6,64.14a2.78,2.78,0,0,0,.22-1.27C6.14,61.71,5.71,61.43,5.71,61.43Z"/><path class="cls-29" d="M18.91,78.59l-.13,1.2a.75.75,0,0,0,.67.89l2.28,0a.33.33,0,0,0,.18-.57l-1.56-1.53Z"/><rect class="cls-29" x="18.96" y="78.55" width="1.45" height="0.48"/><path class="cls-29" d="M14.24,78.59l.12,1.2a.74.74,0,0,1-.67.89l-2.28,0a.33.33,0,0,1-.18-.57l1.57-1.53Z"/><path class="cls-31" d="M14.51,63.7h4.12l0,.71-1.47,1-.71-.74-.69.69-1.25-1S14.51,63.66,14.51,63.7Z"/><path class="cls-32" d="M12.16,71a20.73,20.73,0,0,0,.46,6.88h1.8l.84-2.75h2.56l.87,2.5,1.81,0A16.63,16.63,0,0,0,21,70.91S12,70.88,12.16,71Z"/><path class="cls-7" d="M14.54,72.6h0a.45.45,0,0,1-.45-.45V70.81a.45.45,0,0,1,.45-.45h0a.45.45,0,0,1,.45.45v1.34A.45.45,0,0,1,14.54,72.6Z"/><path class="cls-7" d="M18.94,72.5h0a.45.45,0,0,1-.45-.45V70.71a.45.45,0,0,1,.45-.45h0a.45.45,0,0,1,.45.45v1.34A.45.45,0,0,1,18.94,72.5Z"/><rect class="cls-33" x="11.69" y="78.9" width="1.44" height="0.34" rx="0.11"/><rect class="cls-33" x="20.19" y="79.42" width="1.44" height="0.34" rx="0.11"/><rect class="cls-33" x="11.4" y="79.42" width="1.44" height="0.34" rx="0.11"/><rect class="cls-33" x="19.77" y="78.86" width="1.44" height="0.34" rx="0.11"/><path class="cls-27" d="M11.36,56.07a.31.31,0,0,1-.61,0,.31.31,0,0,1,.61,0Z"/><path class="cls-27" d="M10.67,57.32a.31.31,0,0,1-.61,0,.31.31,0,0,1,.61,0Z"/><path class="cls-27" d="M10.63,55.29a.31.31,0,1,1-.31-.3A.3.3,0,0,1,10.63,55.29Z"/><path class="cls-27" d="M22.27,55.64a.31.31,0,1,1-.31-.31A.31.31,0,0,1,22.27,55.64Z"/><path class="cls-27" d="M23.39,57.06a.31.31,0,1,1-.31-.3A.3.3,0,0,1,23.39,57.06Z"/><path class="cls-27" d="M23.3,55.46a.31.31,0,0,1-.3.31.31.31,0,0,1,0-.61A.31.31,0,0,1,23.3,55.46Z"/><path class="cls-23" d="M20.92,75a1.18,1.18,0,0,0,1.48-.08,6,6,0,0,0,2.19-4.56,7.61,7.61,0,0,0-2.56-5,1.16,1.16,0,0,0-1.51,1.77,5.29,5.29,0,0,1,1.74,3.31,3.73,3.73,0,0,1-1.44,2.79,1.18,1.18,0,0,0-.07,1.65Z"/><path class="cls-24" d="M21.72,75.2l-.9-2s-2.12,0-1.91,1.76a1.56,1.56,0,0,0,.71,1.81A1.43,1.43,0,0,0,21.72,75.2Z"/><path class="cls-34" d="M9.29,54S9,46.67,15.57,48.84c1.76.57,1.63-1.85,4-1.36,4.38.91,2.68,4.11,2.68,4.11s.94-.91,1.91.69-.06,4.74-.6,5.07-.91-1.06-.91-1.06S22.3,51.16,17,53.17c-2.56,1-2.24,4.26-4.67,3.28,0,0-.21,2.72-.91,2.35S6.31,57.81,9.29,54Z"/><path class="cls-35" d="M17.12,52.28s0-.06,0-.09c.26-.51.34-.84.24-1s-.47-.12-.89-.07A3.11,3.11,0,0,1,14.69,51c-1.37-.73-.94-1.62-.93-1.63a.07.07,0,0,1,.09,0h0a.06.06,0,0,1,0,.09h0s-.36.78.88,1.44a2.86,2.86,0,0,0,1.66.15c.49-.05.88-.09,1,.14s.06.54-.23,1.12a.07.07,0,0,1-.09,0Z"/><path class="cls-35" d="M19.1,52h0a.08.08,0,0,1,0-.1s.34-.56.16-1c0-.1-.34-.17-.63-.23-.49-.1-1.09-.22-1.3-.65a1.06,1.06,0,0,1,.11-.94.06.06,0,0,1,.09,0s0,.06,0,.1a1,1,0,0,0-.11.81c.18.36.74.47,1.2.57s.66.14.74.31A1.44,1.44,0,0,1,19.2,52,.08.08,0,0,1,19.1,52Z"/><path class="cls-35" d="M20.45,52.26s0,0,0,0a.08.08,0,0,1,0-.1c.65-.42,1-.74,1-1s-.37-.43-.76-.62A3.3,3.3,0,0,1,19.8,50a1.06,1.06,0,0,1-.35-.79,1.23,1.23,0,0,1,.38-.84.07.07,0,0,1,.1.1,1.21,1.21,0,0,0-.34.74,1,1,0,0,0,.31.69,3,3,0,0,0,.81.52c.42.21.82.42.83.74s-.31.66-1,1.11A.06.06,0,0,1,20.45,52.26Z"/><path class="cls-35" d="M11.36,53.46a1.33,1.33,0,0,1-.77-.91A1.53,1.53,0,0,1,11,51.4a.08.08,0,0,1,.1,0,.09.09,0,0,1,0,.11,1.37,1.37,0,0,0-.33,1,1.2,1.2,0,0,0,.72.81,2,2,0,0,0,1.64,0,1.11,1.11,0,0,1,.87,0,1.06,1.06,0,0,1,.38.72.07.07,0,0,1-.05.09.08.08,0,0,1-.09-.06.94.94,0,0,0-.31-.62c-.18-.11-.44,0-.76.05a2.19,2.19,0,0,1-1.75-.05Z"/><path class="cls-35" d="M12.66,52.15a1.36,1.36,0,0,1-.77-.9,1.58,1.58,0,0,1,.36-1.16.07.07,0,0,1,.11.1,1.45,1.45,0,0,0-.32,1,1.18,1.18,0,0,0,.71.81,2.09,2.09,0,0,0,1.64,0c.34-.1.64-.19.88,0a1,1,0,0,1,.38.72s0,.07-.06.08-.08,0-.08-.05a.92.92,0,0,0-.32-.62c-.18-.12-.44-.05-.76,0a2.19,2.19,0,0,1-1.75-.06Z"/><path class="cls-35" d="M10.48,55a1.17,1.17,0,0,1-.51-.5,1.16,1.16,0,0,1,0-.89.07.07,0,0,1,.09,0,.06.06,0,0,1,0,.09,1.06,1.06,0,0,0,0,.77A1.33,1.33,0,0,0,11,55a4.29,4.29,0,0,0,1.59,0c.52-.07.93-.13,1,.44,0,0,0,.07-.06.08a.08.08,0,0,1-.08-.07c-.05-.39-.26-.38-.84-.31a4.15,4.15,0,0,1-1.64,0A2.09,2.09,0,0,1,10.48,55Z"/><path class="cls-35" d="M22.53,53.89a.07.07,0,0,1,0,0,.08.08,0,0,1,.06-.09c.55-.11.9-.31,1-.6a.77.77,0,0,0,0-.63.07.07,0,0,1,.12-.08.94.94,0,0,1,.06.77,1.46,1.46,0,0,1-1.14.68Z"/><rect class="cls-36" x="31.47" y="15.01" width="87.05" height="53.57" rx="2.57"/><path class="cls-1" d="M38.66,25.49c-.12,0-.18,0-.2-.14a.25.25,0,0,1,0-.1v-.19c0-.12,0-.26,0-.43s0-.36,0-.56l0-.61c0-.21,0-.41,0-.6a.35.35,0,0,1,0-.13s.09,0,.2,0h2.17a2.11,2.11,0,0,0,.35,0,1.51,1.51,0,0,0,.37-.07.71.71,0,0,0,.29-.14,1.77,1.77,0,0,1,.31.49,1.4,1.4,0,0,1,.12.55,1,1,0,0,1-.06.33.7.7,0,0,1-.19.27,1,1,0,0,1-.33.19,1.85,1.85,0,0,1-.51.07l-.28,0-.24,0-.21,0-.22,0v.37a3.79,3.79,0,0,1,1,.19,2.27,2.27,0,0,1,.66.36,1.29,1.29,0,0,1,.35.47,1.51,1.51,0,0,1-.06,1.32,1.7,1.7,0,0,1-.56.54,2.75,2.75,0,0,1-.79.29,4.46,4.46,0,0,1-.88.09,3,3,0,0,1-1.14-.19,1,1,0,0,1-.59-.65,1.12,1.12,0,0,1,0-.27.82.82,0,0,1,.3-.65,1.5,1.5,0,0,0,.51.15l.45,0a1.11,1.11,0,0,0,.49-.08.22.22,0,0,0,.13-.26.5.5,0,0,0-.1-.13.76.76,0,0,0-.23-.15,1.68,1.68,0,0,0-.41-.12,3.54,3.54,0,0,0-.6,0Z"/><path class="cls-1" d="M48.55,27.37a1.16,1.16,0,0,1-.4.2,1.74,1.74,0,0,1-.45.06,1.41,1.41,0,0,1-.75-.2.85.85,0,0,1-.43-.59.77.77,0,0,1,.27-.79,4,4,0,0,1,1.05-.63,4.85,4.85,0,0,0-.28-.41,2.46,2.46,0,0,0-.29-.34,1.84,1.84,0,0,0-.82-.42,1.61,1.61,0,0,1,.73-.8,1.28,1.28,0,0,1,.4-.14l.35,0a1.71,1.71,0,0,1,.55.07,1.23,1.23,0,0,1,.4.23,2.13,2.13,0,0,1,.34.38l.36.55a.73.73,0,0,0,.25-.27.65.65,0,0,0,.11-.34.38.38,0,0,0-.07-.21.47.47,0,0,0-.2-.16,1,1,0,0,1,.4-.19,2,2,0,0,1,.48-.06,1.82,1.82,0,0,1,.56.07,1.5,1.5,0,0,1,.38.19.89.89,0,0,1,.23.25.83.83,0,0,1,.11.24.81.81,0,0,1,0,.49,1.4,1.4,0,0,1-.31.39,2.65,2.65,0,0,1-.5.3,5.36,5.36,0,0,1-.6.24l.3.34a4.59,4.59,0,0,0,.39.37,2.66,2.66,0,0,0,.47.3,1.24,1.24,0,0,0,.53.12,1.75,1.75,0,0,1-.26.51,1.61,1.61,0,0,1-.36.33,1.28,1.28,0,0,1-.42.17,1.86,1.86,0,0,1-.48.06,2.1,2.1,0,0,1-.51-.06,1.45,1.45,0,0,1-.47-.19,2.21,2.21,0,0,1-.48-.37,7.1,7.1,0,0,1-.51-.6,1,1,0,0,0-.29.57.31.31,0,0,0,.07.2A.64.64,0,0,0,48.55,27.37Z"/><path class="cls-1" d="M58.52,27.65a3.35,3.35,0,0,1-1.05-.17,2.55,2.55,0,0,1-.89-.48,2.28,2.28,0,0,1-.6-.8,2.59,2.59,0,0,1-.23-1.11,2.84,2.84,0,0,1,.18-1,2.54,2.54,0,0,1,.52-.83,2.46,2.46,0,0,1,.82-.55,2.9,2.9,0,0,1,1.09-.22,3.21,3.21,0,0,1,1.08.14,2.55,2.55,0,0,1,.89.48,2.31,2.31,0,0,1,.6.8A2.6,2.6,0,0,1,61.19,25,2.82,2.82,0,0,1,61,26a2.34,2.34,0,0,1-.49.85,2.51,2.51,0,0,1-.85.6A2.89,2.89,0,0,1,58.52,27.65Zm-.1-3.6a.18.18,0,0,0-.15.09.9.9,0,0,0-.11.24,2.79,2.79,0,0,0-.06.33,2.19,2.19,0,0,0,0,.36v.3a1.47,1.47,0,0,0,0,.36.82.82,0,0,0,.11.3.24.24,0,0,0,.23.12.23.23,0,0,0,.17-.11.67.67,0,0,0,.11-.27,1.91,1.91,0,0,0,.06-.37,2.54,2.54,0,0,0,0-.39,2.45,2.45,0,0,0,0-.25c0-.11,0-.22-.05-.33a1,1,0,0,0-.11-.28A.2.2,0,0,0,58.42,24.05Z"/><path class="cls-1" d="M66.12,25.27c-.55,0-.82-.24-.83-.72V24.4a.36.36,0,0,1,0-.1s0-.07,0-.12l.08-.19L66,24h1.62a1.47,1.47,0,0,1,.75.14.64.64,0,0,1,.2.53,2.84,2.84,0,0,1,0,.54h-.74l-.57,0-.6,0Zm0,1.72a.88.88,0,0,1-.64-.2.69.69,0,0,1-.18-.49,1.5,1.5,0,0,1,0-.29c0-.1.06-.2.09-.3l.55,0h1.62a1.46,1.46,0,0,1,.74.14.58.58,0,0,1,.21.52c0,.08,0,.17,0,.26s0,.2,0,.31H66.15Z"/><path class="cls-1" d="M39.49,38.72l.51,0h.36l.27,0,.22,0a1.49,1.49,0,0,1,.27.15l.27.21a1.32,1.32,0,0,1,.22.26.6.6,0,0,1,.1.27c0,.13,0,.28,0,.44s0,.34,0,.52,0,.52,0,.8,0,.55,0,.82,0,.52,0,.77v.63a.22.22,0,0,1,0,.14.1.1,0,0,1-.09,0H40.37l-.53,0a.66.66,0,0,1-.29-.06.27.27,0,0,1-.11-.08.41.41,0,0,1,0-.09.37.37,0,0,1,0-.11.37.37,0,0,0,0-.11c0-.13,0-.27,0-.43s0-.33,0-.53,0-.42,0-.66,0-.52,0-.83a.18.18,0,0,1-.11.05.59.59,0,0,1-.23,0,.66.66,0,0,1-.36-.11,1,1,0,0,1-.26-.28,1.85,1.85,0,0,1-.19-.37,2.24,2.24,0,0,1-.11-.38,1.23,1.23,0,0,0,.41-.13,1.62,1.62,0,0,0,.39-.25,1.85,1.85,0,0,0,.31-.37A1.49,1.49,0,0,0,39.49,38.72Z"/><path class="cls-1" d="M48,43.61a1.25,1.25,0,0,1-.4.2,1.74,1.74,0,0,1-.45.06,1.48,1.48,0,0,1-.75-.2.82.82,0,0,1-.43-.59.77.77,0,0,1,.27-.79,3.81,3.81,0,0,1,1.05-.63,4.85,4.85,0,0,0-.28-.41,2,2,0,0,0-.3-.34,1.48,1.48,0,0,0-.35-.25,1.91,1.91,0,0,0-.46-.17,1.45,1.45,0,0,1,.33-.5,1.55,1.55,0,0,1,.4-.3,1.28,1.28,0,0,1,.4-.14l.35,0a1.75,1.75,0,0,1,.55.07,1.23,1.23,0,0,1,.4.23,1.77,1.77,0,0,1,.33.38c.11.15.23.34.37.55a.73.73,0,0,0,.25-.27.63.63,0,0,0,.1-.34.37.37,0,0,0-.06-.21.47.47,0,0,0-.2-.16.88.88,0,0,1,.4-.19,2,2,0,0,1,.48-.06,1.82,1.82,0,0,1,.56.07,1.5,1.5,0,0,1,.38.19.89.89,0,0,1,.23.25,1.22,1.22,0,0,1,.11.24.74.74,0,0,1,0,.49,1.11,1.11,0,0,1-.31.39,2.55,2.55,0,0,1-.49.3,4.92,4.92,0,0,1-.6.23l.3.35a4.59,4.59,0,0,0,.39.37,2.34,2.34,0,0,0,.47.3,1.2,1.2,0,0,0,.53.11,1.69,1.69,0,0,1-.26.52,1.53,1.53,0,0,1-.36.32,1.12,1.12,0,0,1-.42.18,1.86,1.86,0,0,1-.48.06,2.1,2.1,0,0,1-.51-.06,1.45,1.45,0,0,1-.47-.19,2.21,2.21,0,0,1-.48-.37,5.63,5.63,0,0,1-.51-.6,1,1,0,0,0-.3.57.32.32,0,0,0,.08.2A.64.64,0,0,0,48,43.61Z"/><path class="cls-1" d="M55.5,41.73a.17.17,0,0,1-.2-.15s0,0,0-.09v-.63c0-.17,0-.35,0-.55l0-.61q0-.31,0-.6a.21.21,0,0,1,0-.13s.09,0,.2,0h2.17l.35,0a2.2,2.2,0,0,0,.37-.07.71.71,0,0,0,.29-.14,1.77,1.77,0,0,1,.31.49,1.36,1.36,0,0,1,.12.54,1,1,0,0,1-.06.34.7.7,0,0,1-.19.27,1.06,1.06,0,0,1-.33.19,1.85,1.85,0,0,1-.51.07l-.28,0-.24,0-.21,0-.22,0v.38a4,4,0,0,1,1,.19,2.27,2.27,0,0,1,.66.36,1.34,1.34,0,0,1,.35.46,1.58,1.58,0,0,1,.12.5,1.46,1.46,0,0,1-.19.83,1.67,1.67,0,0,1-.55.54,2.75,2.75,0,0,1-.79.29,4.46,4.46,0,0,1-.88.09,2.83,2.83,0,0,1-1.14-.2.92.92,0,0,1-.59-.64,1.12,1.12,0,0,1,0-.27.82.82,0,0,1,.3-.65,1.5,1.5,0,0,0,.51.15l.45,0a1,1,0,0,0,.48-.08.2.2,0,0,0,.13-.26.31.31,0,0,0-.09-.13.91.91,0,0,0-.23-.15,1.68,1.68,0,0,0-.41-.12,3.54,3.54,0,0,0-.6,0Z"/><path class="cls-1" d="M66.05,41.43c-.54,0-.82-.24-.83-.72v-.16s0-.06,0-.1a.76.76,0,0,1,0-.11c0-.05,0-.11.08-.2l.53,0h1.62a1.36,1.36,0,0,1,.75.15.6.6,0,0,1,.21.53,4,4,0,0,1,0,.54h-.75l-.56,0-.61,0Zm0,1.71a.83.83,0,0,1-.64-.2.69.69,0,0,1-.18-.49,1.5,1.5,0,0,1,0-.29c0-.1.06-.2.1-.3.21,0,.39,0,.54,0h1.62a1.36,1.36,0,0,1,.74.14.57.57,0,0,1,.21.52,2.44,2.44,0,0,1,0,.26c0,.09,0,.2,0,.31h-.91l-.39,0H66.08Z"/><path class="cls-1" d="M66.05,57.58c-.54,0-.82-.24-.83-.72v-.15s0-.07,0-.1l0-.12.08-.19.53,0h1.62a1.47,1.47,0,0,1,.75.14.61.61,0,0,1,.21.53,3.86,3.86,0,0,1,0,.54h-.75l-.56,0-.61,0Zm0,1.72a.88.88,0,0,1-.64-.2.69.69,0,0,1-.18-.49,1.5,1.5,0,0,1,0-.29c0-.1.06-.2.1-.3l.54,0h1.62a1.46,1.46,0,0,1,.74.14.58.58,0,0,1,.21.52,2.35,2.35,0,0,1,0,.26c0,.1,0,.2,0,.31H66.08Z"/><path class="cls-1" d="M39.49,55,40,55h.36l.27,0,.22,0,.27.14.27.22a1.32,1.32,0,0,1,.22.26.6.6,0,0,1,.1.27c0,.13,0,.27,0,.44s0,.34,0,.52,0,.52,0,.8,0,.55,0,.82,0,.52,0,.76v.64a.22.22,0,0,1,0,.14.1.1,0,0,1-.09,0H40.37l-.53,0a.66.66,0,0,1-.29-.06.27.27,0,0,1-.11-.08.31.31,0,0,1,0-.1.28.28,0,0,1,0-.1.41.41,0,0,0,0-.11c0-.13,0-.27,0-.43s0-.33,0-.53,0-.42,0-.66,0-.52,0-.83a.18.18,0,0,1-.11,0,.85.85,0,0,1-.23,0,.66.66,0,0,1-.36-.11,1.16,1.16,0,0,1-.26-.28,1.69,1.69,0,0,1-.19-.38,2.15,2.15,0,0,1-.11-.37A1.23,1.23,0,0,0,38.6,56a2,2,0,0,0,.39-.25,1.85,1.85,0,0,0,.31-.37A1.49,1.49,0,0,0,39.49,55Z"/><path class="cls-1" d="M48,59.85a1.5,1.5,0,0,1-.4.2,1.74,1.74,0,0,1-.45.06,1.48,1.48,0,0,1-.75-.2.84.84,0,0,1-.43-.59.77.77,0,0,1,.27-.79,3.38,3.38,0,0,1,1.05-.63c-.09-.15-.19-.29-.28-.42a2.35,2.35,0,0,0-.3-.33,1.48,1.48,0,0,0-.35-.25,1.91,1.91,0,0,0-.46-.17,1.61,1.61,0,0,1,.33-.51,1.76,1.76,0,0,1,.4-.29,1.28,1.28,0,0,1,.4-.14l.35,0a1.75,1.75,0,0,1,.55.07,1.23,1.23,0,0,1,.4.23,1.56,1.56,0,0,1,.33.38c.11.15.23.33.37.55a.82.82,0,0,0,.25-.27.63.63,0,0,0,.1-.34.37.37,0,0,0-.06-.21.41.41,0,0,0-.2-.16,1,1,0,0,1,.4-.2,2.61,2.61,0,0,1,.48-.05,1.82,1.82,0,0,1,.56.07,1.23,1.23,0,0,1,.38.19.77.77,0,0,1,.23.25,1.22,1.22,0,0,1,.11.24.7.7,0,0,1,0,.48,1,1,0,0,1-.31.39,2.16,2.16,0,0,1-.49.31,4.92,4.92,0,0,1-.6.23l.3.35a4.59,4.59,0,0,0,.39.37,2.34,2.34,0,0,0,.47.3,1.36,1.36,0,0,0,.53.11,1.52,1.52,0,0,1-.26.51,1.39,1.39,0,0,1-.36.33,1.3,1.3,0,0,1-.42.18,1.86,1.86,0,0,1-.48.06,2.1,2.1,0,0,1-.51-.06,1.72,1.72,0,0,1-.47-.19,2.58,2.58,0,0,1-.48-.37,5.63,5.63,0,0,1-.51-.6,1,1,0,0,0-.3.56.32.32,0,0,0,.08.21A.64.64,0,0,0,48,59.85Z"/><path class="cls-1" d="M55.5,58a.17.17,0,0,1-.2-.15.2.2,0,0,1,0-.09V57.1c0-.17,0-.36,0-.55l0-.61q0-.31,0-.6a.21.21,0,0,1,0-.13s.09,0,.2,0h2.17l.35,0a2.2,2.2,0,0,0,.37-.07.71.71,0,0,0,.29-.14,1.77,1.77,0,0,1,.31.49,1.32,1.32,0,0,1,.12.54.88.88,0,0,1-.06.33.67.67,0,0,1-.19.28,1,1,0,0,1-.33.18,1.52,1.52,0,0,1-.51.08l-.28,0-.24,0-.21,0-.22-.05v.38a4,4,0,0,1,1,.19,2.27,2.27,0,0,1,.66.36,1.34,1.34,0,0,1,.35.46,1.52,1.52,0,0,1,.12.5,1.46,1.46,0,0,1-.19.83,1.67,1.67,0,0,1-.55.54,2.75,2.75,0,0,1-.79.29,4.46,4.46,0,0,1-.88.09,2.83,2.83,0,0,1-1.14-.2.94.94,0,0,1-.59-.64,1.12,1.12,0,0,1,0-.27.82.82,0,0,1,.3-.65,1.5,1.5,0,0,0,.51.15l.45,0a1.19,1.19,0,0,0,.48-.08.2.2,0,0,0,.13-.26.31.31,0,0,0-.09-.13.7.7,0,0,0-.23-.15,1.68,1.68,0,0,0-.41-.12,3.54,3.54,0,0,0-.6,0Z"/></g></g></svg>