<svg width="32" height="107" viewBox="0 0 32 107" fill="none" xmlns="http://www.w3.org/2000/svg">
<path d="M15.0005 20C13.4005 21.4 12.3005 22.4 11.1005 23.3C8.20045 25 5.10045 24.7 2.60045 22.9C0.300452 20.9 -0.599548 17.7 0.400452 14.7C2.90045 7.90001 13.7005 0.100013 20.7005 1.28262e-05C26.7005 -0.0999872 31.9005 4.50001 31.8005 10.5C31.8005 24.3 31.4005 38.1 31.2005 52C30.9005 63.4 30.8005 74.8 30.6005 86.1C30.6005 90.1 30.6005 94 30.3005 98.1C29.9005 103 26.1005 106.6 21.5005 106.5C16.9005 106.2 13.7005 102.6 13.6005 97.4C13.5005 90 13.2005 82.5 13.4005 75C13.8005 58.4 14.4005 42 15.0005 25.5C15.1005 23.9 15.0005 22.2 15.0005 20Z" fill="#F7B718"/>
</svg>
