<svg xmlns="http://www.w3.org/2000/svg" viewBox="0 0 20 20.28"><defs><style>.cls-1{fill:#fff;fill-rule:evenodd;}</style></defs><g id="Layer_2" data-name="Layer 2"><g id="Layer_1-2" data-name="Layer 1"><path class="cls-1" d="M5.87,3.64c.7,2,2.24,1.54,1.18,2.79-.57.67,0,.94-1.84-.66-1.12-1-4.87-.1-3.95-3.6C1.51,1.2,4.82.65,5.87,3.64Z"/><path class="cls-1" d="M3.05,2.6c-.76,0-.34,1.07.22.7S3.19,2.53,3.05,2.6Z"/><path class="cls-1" d="M3,2.7c-.38,0-.17.53.11.35S3,2.66,3,2.7Z"/><path class="cls-1" d="M9.57,3.81C9.28,1.6,12.81-.94,13.67.35c-.37.93-2.08.75-1.95,3.77,0,.28-1.69,1.5-1.79,1.25A4.56,4.56,0,0,1,9.57,3.81Z"/><path class="cls-1" d="M4.51,9.14C2.38,8.39-.88,11.26.22,12.36c1-.16,1.18-1.84,4.13-1.08C4.63,11.36,6.2,10,6,9.82A4.46,4.46,0,0,0,4.51,9.14Z"/><path class="cls-1" d="M15.45,8.55c2.12-.75,5.53,1.26,4.28,3.22-.58-.56-1.68-2.55-4.63-1.78-.27.07-1.35-.61-1.12-.76A4.62,4.62,0,0,1,15.45,8.55Z"/><path class="cls-1" d="M9.15,16.57C9,18.8,12,21.46,13.49,19.71c-.71-.4-3-.86-3.05-3.88,0-.28-1-1.1-1-.85A4.27,4.27,0,0,0,9.15,16.57Z"/><path class="cls-1" d="M6.28,15.94c1.52,1.67,7.17,2.81,8.87.82a8.46,8.46,0,0,0,1.72-7.11C13.68-.92-2.37,6.44,6.28,15.94Z"/><path class="cls-1" d="M1.38,4a3.09,3.09,0,0,0,1-.09l.18-.1C2.7,4,2,4.28,1.39,4,1.38,4,1.38,4,1.38,4Z"/><path class="cls-1" d="M5.48,6.89c.12,0,.74-.67,1.27-.87.23-.09,2.39-1.09,2.37-.7,0,.69.77,3.35.31,3.67s-.51.45-.62.52C8.41,9.78,6,7.57,5.48,6.89Z"/><path class="cls-1" d="M9.64,5.5c-.13.43,0,3.55.93,3.54,1.89,0,.79,1.6,2.39-2.4.53-1.34.16-.9-1.78-1.53C10.77,5,9.84,4.83,9.64,5.5Z"/><path class="cls-1" d="M6.51,15.66c.12,0,.74.67,1.27.87.23.09,2.39,1.09,2.37.7,0-.69.77-3.35.31-3.67A6.63,6.63,0,0,1,9.84,13C9.44,12.77,7,15,6.51,15.66Z"/><path class="cls-1" d="M10.67,17.05c-.13-.43,0-3.55.93-3.54,1.89,0,.79-1.6,2.39,2.4.53,1.34.15.9-1.79,1.53C11.8,17.57,10.87,17.72,10.67,17.05Z"/><path class="cls-1" d="M4.3,11.8c.11,0,.24,1,.57,1.43.14.19,1.38,2.22,1.58,1.88.36-.59,2.52-2.37,2.31-2.89s-.17-.66-.22-.77C8.36,11,5.1,11.52,4.3,11.8Z"/><path class="cls-1" d="M16.51,9.47c-.08.1.27,1,.21,1.52,0,.24-.09,2.6-.44,2.41-.61-.33-3.36-.83-3.45-1.38a6.69,6.69,0,0,0-.19-.78C12.58,10.76,15.67,9.62,16.51,9.47Z"/><path class="cls-1" d="M13.74,6c0,.12.85.54,1.18,1,.14.2,1.66,2,1.27,2.1-.68.14-3.08,1.57-3.51,1.21a1.65,1.65,0,0,0-.33-.24C12,9.75,13.21,6.65,13.74,6Z"/><path class="cls-1" d="M16.44,13.65c-.12,0-.28.84-.61,1.38-.12.2-1.13,1.83-1.26,1.45-.22-.65-1.59-3.17-1.45-3.5s.13-.18.18-.29A8.65,8.65,0,0,1,16.44,13.65Z"/><path class="cls-1" d="M5.37,7.3a11.24,11.24,0,0,1-.86,1.84c-.11.21-.48,2.21-.09,2.12.67-.16,3.56-.33,3.77-.61s.09-.21.16-.31A12.78,12.78,0,0,0,5.37,7.3Z"/><path class="cls-1" d="M8.94,10s.81-.79.84-.79c.37,0,1.18.39,1.8.43a7.77,7.77,0,0,1,.6.76c.13.19.13.13,0,.37-.28.67.38,1.49.24,1.61a4.45,4.45,0,0,1-1,.71c-.23.08,0,.17-.45-.05a11.05,11.05,0,0,0-1.24-.46s-.29-.43-.36-.58a3.4,3.4,0,0,0-.45-.84A6.44,6.44,0,0,1,8.94,10Z"/><path class="cls-1" d="M9.85,9.37c-.27.13.16.34.11.06C10,9.38,9.86,9.36,9.85,9.37Z"/><path class="cls-1" d="M11.41,9.74c-.28.13.16.34.11.06C11.51,9.75,11.42,9.73,11.41,9.74Z"/><path class="cls-1" d="M12,10.5c-.27.13.16.34.11.06C12.13,10.51,12,10.49,12,10.5Z"/><path class="cls-1" d="M12.18,12.17c-.28.13.16.34.11.06C12.28,12.19,12.19,12.17,12.18,12.17Z"/><path class="cls-1" d="M11.25,12.83c-.28.14.15.35.11.07C11.35,12.85,11.26,12.83,11.25,12.83Z"/><path class="cls-1" d="M9.85,12.29c-.28.14.16.35.11.07C10,12.31,9.86,12.29,9.85,12.29Z"/><path class="cls-1" d="M9.14,11c-.28.14.15.35.1.07C9.24,11,9.15,11,9.14,11Z"/><path class="cls-1" d="M9.14,10c-.27.13.16.34.11.06C9.24,10,9.15,10,9.14,10Z"/><path class="cls-1" d="M10.69,10.94c-.27.13.16.34.11.06C10.79,11,10.7,10.93,10.69,10.94Z"/><path class="cls-1" d="M10.3,10.73c-.16.08.1.21.07,0S10.31,10.73,10.3,10.73Z"/><path class="cls-1" d="M10,10.52c-.17.08.09.2.06,0S10,10.51,10,10.52Z"/><path class="cls-1" d="M9.6,10.25c-.17.08.09.2.06,0S9.6,10.25,9.6,10.25Z"/><path class="cls-1" d="M10.81,10.69c-.15-.1-.13.18,0,.07S10.82,10.69,10.81,10.69Z"/><path class="cls-1" d="M10.84,10.3c-.16-.09-.13.19,0,.08S10.84,10.31,10.84,10.3Z"/><path class="cls-1" d="M10.86,9.83c-.15-.1-.12.19,0,.08S10.87,9.84,10.86,9.83Z"/><path class="cls-1" d="M10.66,12.2c-.16-.1-.13.18,0,.07S10.66,12.2,10.66,12.2Z"/><path class="cls-1" d="M10.68,11.82c-.15-.1-.12.18,0,.07S10.69,11.82,10.68,11.82Z"/><path class="cls-1" d="M10.71,11.35c-.15-.1-.13.18,0,.07S10.72,11.35,10.71,11.35Z"/><path class="cls-1" d="M11.8,11.55c-.16.09.1.19.06,0S11.8,11.54,11.8,11.55Z"/><path class="cls-1" d="M11.46,11.35c-.16.09.11.2.07,0S11.47,11.35,11.46,11.35Z"/><path class="cls-1" d="M11.05,11.12c-.16.09.11.19.07,0A.06.06,0,0,0,11.05,11.12Z"/><path class="cls-1" d="M10.33,11.18c0,.18.23,0,.07,0S10.33,11.17,10.33,11.18Z"/><path class="cls-1" d="M10,11.33c0,.18.22,0,.06,0S10,11.33,10,11.33Z"/><path class="cls-1" d="M9.55,11.53c0,.18.22,0,.06,0S9.55,11.52,9.55,11.53Z"/><path class="cls-1" d="M11.7,10.55c0,.18.23,0,.07,0A.07.07,0,0,0,11.7,10.55Z"/><path class="cls-1" d="M11.35,10.71c0,.18.22,0,.07,0S11.35,10.7,11.35,10.71Z"/><path class="cls-1" d="M10.92,10.9c0,.18.22,0,.06,0S10.92,10.89,10.92,10.9Z"/><path class="cls-1" d="M9.69,13.16c-.27.13.16.34.11.06C9.79,13.17,9.7,13.15,9.69,13.16Z"/><path class="cls-1" d="M10.33,13.76c-.28.13.16.34.11.06C10.43,13.77,10.34,13.75,10.33,13.76Z"/><path class="cls-1" d="M10,17c-.28.13.15.34.11.06C10.06,17,10,17,10,17Z"/><path class="cls-1" d="M6.87,15.45c-.27.14.16.35.11.07C7,15.47,6.88,15.45,6.87,15.45Z"/><path class="cls-1" d="M6.23,14.73c-.27.13.16.34.11.06C6.34,14.75,6.24,14.73,6.23,14.73Z"/><path class="cls-1" d="M4.69,11.91c-.28.13.16.34.11.06C4.79,11.92,4.7,11.9,4.69,11.91Z"/><path class="cls-1" d="M8.27,11.42c-.27.13.16.34.11.06C8.38,11.43,8.29,11.41,8.27,11.42Z"/><path class="cls-1" d="M8.54,12.29c-.28.14.16.35.11.07C8.64,12.31,8.55,12.29,8.54,12.29Z"/><path class="cls-1" d="M8,10.26c-.28.13.16.34.11.06C8.14,10.28,8.05,10.25,8,10.26Z"/><path class="cls-1" d="M5.49,7.69c-.28.13.15.34.11.06C5.59,7.7,5.5,7.68,5.49,7.69Z"/><path class="cls-1" d="M4.57,10.83c-.28.13.15.34.11.06C4.67,10.85,4.58,10.82,4.57,10.83Z"/><path class="cls-1" d="M12.76,13.45c-.28.13.16.34.11.06C12.86,13.47,12.77,13.45,12.76,13.45Z"/><path class="cls-1" d="M11.55,13.67c-.28.13.15.34.11.06C11.65,13.68,11.56,13.66,11.55,13.67Z"/><path class="cls-1" d="M11.06,17.14c-.27.13.16.34.11.06C11.16,17.15,11.07,17.13,11.06,17.14Z"/><path class="cls-1" d="M13.9,16.63c-.28.13.15.34.11.06C14,16.64,13.91,16.62,13.9,16.63Z"/><path class="cls-1" d="M13.43,12.82c-.28.13.16.34.11.06C13.53,12.83,13.44,12.81,13.43,12.82Z"/><path class="cls-1" d="M14.66,15.89c-.28.13.16.34.11.06C14.76,15.9,14.67,15.88,14.66,15.89Z"/><path class="cls-1" d="M16.09,13.71c-.27.14.16.34.11.06C16.2,13.73,16.11,13.71,16.09,13.71Z"/><path class="cls-1" d="M12.92,11.09c-.28.14.15.34.11.06C13,11.11,12.93,11.09,12.92,11.09Z"/><path class="cls-1" d="M13.09,11.88c-.28.13.15.34.11.06C13.19,11.89,13.1,11.87,13.09,11.88Z"/><path class="cls-1" d="M16.26,9.62c-.28.13.15.34.11.06C16.36,9.64,16.27,9.61,16.26,9.62Z"/><path class="cls-1" d="M16.2,13c-.28.14.15.34.1.06C16.3,13,16.21,13,16.2,13Z"/><path class="cls-1" d="M13,10c-.28.13.15.34.1.06C13.06,10.05,13,10,13,10Z"/><path class="cls-1" d="M15.87,8.81c-.28.13.16.34.11.06C16,8.83,15.88,8.81,15.87,8.81Z"/><path class="cls-1" d="M13.84,6.31c-.28.14.16.35.11.06C13.94,6.33,13.85,6.31,13.84,6.31Z"/><path class="cls-1" d="M12.61,9.52c-.28.13.16.34.11.06C12.71,9.54,12.62,9.51,12.61,9.52Z"/><path class="cls-1" d="M12.89,5.74c-.28.14.16.34.11.06C13,5.76,12.9,5.74,12.89,5.74Z"/><path class="cls-1" d="M10.17,5.13c-.28.14.15.35.11.07C10.27,5.15,10.18,5.13,10.17,5.13Z"/><path class="cls-1" d="M10.39,8.6c-.28.14.15.34.1.06C10.49,8.62,10.4,8.6,10.39,8.6Z"/><path class="cls-1" d="M11.73,8.9c-.28.13.15.34.1.06C11.83,8.91,11.74,8.89,11.73,8.9Z"/><path class="cls-1" d="M8.8,5.49c-.28.13.15.34.11.06C8.9,5.5,8.81,5.48,8.8,5.49Z"/><path class="cls-1" d="M5.84,6.88c-.28.13.15.34.11.06C5.94,6.89,5.85,6.87,5.84,6.88Z"/><path class="cls-1" d="M8.72,9.08c-.28.13.16.34.11.06C8.82,9.1,8.73,9.08,8.72,9.08Z"/></g></g></svg>