<svg width="53" height="70" viewBox="0 0 53 70" fill="none" xmlns="http://www.w3.org/2000/svg">
<path d="M8.68918 40.057C7.85109 41.5891 2.6461 68.9933 6.30723 69.5624C9.92425 70.1753 12.7473 54.4595 12.7473 54.4595C12.7473 54.4595 11.0711 69.8688 13.8501 69.8688C16.5849 69.8688 18.1287 55.2037 18.1287 55.2037C18.1287 55.2037 19.0992 70.0002 21.1282 70.0002C23.1573 70.0002 22.8926 54.4595 22.8926 54.4595C22.8926 54.4595 24.9217 69.256 27.48 68.6431C30.0384 68.0302 25.6274 41.808 24.7893 39.4003C23.9071 36.9926 9.43905 38.6999 8.68918 40.057Z" fill="#1E2848"/>
<path opacity="0.27" d="M25.3626 49.2066C25.8037 49.1191 26.2007 49.1629 26.5977 49.2504C25.8478 44.435 25.0539 40.3638 24.7451 39.4445C23.907 36.993 9.43892 38.7003 8.68905 40.1011C8.38028 40.6264 7.54219 44.5225 6.7041 49.2504C7.01287 49.1191 7.32163 49.0315 7.6304 48.944C9.35069 48.6376 10.5417 49.9508 11.071 51.3955C11.2474 51.9208 11.3798 52.4461 11.468 52.9714C12.4825 51.1766 13.9822 49.4255 15.7908 50.7826C16.8935 51.6581 17.1582 53.3216 17.3346 54.6787C17.8639 53.059 19.0108 50.7826 20.1135 50.7826C21.2163 50.7826 21.8779 53.0152 22.1867 54.2409C22.2308 54.0221 23.4218 49.5569 25.3626 49.2066Z" fill="#1E2848"/>
<path d="M31.5377 8.97536C30.6555 2.62775 23.6862 -1.83746 15.1288 0.745364C6.57147 3.32818 4.93942 16.5487 4.36599 25.6105C3.79256 34.6722 3.83666 38.5246 5.60107 40.2319C7.32136 41.9391 11.9529 44.2155 18.5694 44.2155C25.23 44.2155 30.3027 41.7203 32.6405 38.2181C34.9783 34.6722 32.8169 18.2998 31.5377 8.97536Z" fill="#1E2848"/>
<path opacity="0.27" d="M2.86682 37.6055C4.19013 38.087 8.90989 33.4467 10.6302 29.2879C12.7916 24.0785 7.32193 19.6133 3.2197 23.7721C-0.264992 27.2305 2.02873 37.2991 2.86682 37.6055Z" fill="#1E2848"/>
<path d="M25.4065 3.45983C22.3629 2.49674 18.5694 3.15339 16.1434 5.21089C12.3499 8.45036 11.9088 14.2289 11.6442 18.8692C11.3354 23.7722 11.3795 30.0322 15.0406 33.8408C21.216 40.276 30.038 29.6382 33.3022 23.8159C33.3022 18.8254 32.2435 13.9662 31.6701 9.93876C30.3909 7.18084 28.4942 4.46669 25.4065 3.45983Z" fill="#FFF1E2"/>
<path d="M1.4992 37.3867C2.8225 37.8682 7.54226 33.2279 9.26255 29.0691C11.4239 23.8597 5.95431 19.3945 1.85207 23.5533C-1.58851 27.0116 0.661109 37.0803 1.4992 37.3867Z" fill="#343D5A"/>
<path d="M10.7179 42.684C9.52689 42.7715 9.26223 46.7552 10.8061 46.7552C12.3058 46.7552 12.1735 42.5964 10.7179 42.684Z" fill="#F67300"/>
<path d="M12.7472 42.684C11.5562 42.7715 11.2915 46.7552 12.8354 46.7552C14.3351 46.7552 14.2028 42.5964 12.7472 42.684Z" fill="#F67300"/>
<path d="M14.7765 42.684C13.5855 42.7715 13.3208 46.7552 14.8647 46.7552C16.4085 46.7552 16.2762 42.5964 14.7765 42.684Z" fill="#F67300"/>
<path d="M21.7013 42.684C20.5103 42.7715 20.2456 46.7552 21.7895 46.7552C23.2892 46.7552 23.1569 42.5964 21.7013 42.684Z" fill="#F67300"/>
<path d="M23.7306 42.684C22.5396 42.7715 22.2749 46.7552 23.8188 46.7552C25.3185 46.7552 25.1862 42.5964 23.7306 42.684Z" fill="#F67300"/>
<path d="M25.7599 42.684C24.5689 42.7715 24.3042 46.7552 25.8481 46.7552C27.3919 46.7552 27.2596 42.5964 25.7599 42.684Z" fill="#F67300"/>
<path d="M31.3613 8.05625C30.9202 8.49401 29.1117 10.2451 29.5087 14.5352C29.9498 18.8253 31.6701 20.8828 31.9347 20.8828C32.1994 20.8828 33.8756 17.9935 40.8008 19.3944C47.7261 20.7515 50.4168 23.772 52.0489 23.1592C53.6369 22.5463 53.8133 14.3601 47.8143 9.41331C40.845 3.76613 31.8465 7.5747 31.3613 8.05625Z" fill="#FFB43B"/>
<path d="M45.8737 19.3068C46.006 19.9196 46.2265 20.5325 46.4471 21.1016C49.4025 22.3273 50.9904 23.5531 52.0491 23.1591C52.8872 22.8527 53.3283 20.4887 52.7107 17.6433C49.5348 16.2862 44.8591 14.9729 45.8737 19.3068Z" fill="#1E2848"/>
<path opacity="0.4" d="M38.5071 15.3668C35.4194 15.0166 31.4936 14.6664 29.4645 12.4775C29.4204 13.0904 29.4204 13.7908 29.5086 14.535C29.9497 18.8252 31.67 20.8827 31.9347 20.8827C32.1994 20.8827 33.8755 17.9934 40.8008 19.3943C47.7261 20.7513 50.4168 23.7719 52.0489 23.159C52.0489 23.159 52.0929 23.1591 52.0929 23.1153C49.4022 18.6063 43.7562 15.9797 38.5071 15.3668Z" fill="#F67300"/>
<path opacity="0.35" d="M15.6143 13.44C15.6143 15.5413 21.2603 15.2786 21.2603 13.0023C21.2603 10.7259 15.6143 10.9885 15.6143 13.44Z" fill="#FA394A"/>
<path d="M20.0702 12.2585C20.1584 11.5143 20.5113 10.6388 21.3053 10.4199C22.3639 10.1135 22.805 11.1641 23.0697 11.9959C23.202 12.4337 23.8636 12.2148 23.7313 11.8208C23.3784 10.7264 22.7168 9.45684 21.3053 9.7195C20.0261 9.93838 19.4968 11.1203 19.3203 12.2585C19.3203 12.6963 20.0261 12.6963 20.0702 12.2585Z" fill="#1E2848"/>
<path opacity="0.57" d="M44.8156 9.98204C46.8006 11.0327 48.4327 12.5211 49.6677 14.4035C49.9324 14.7537 50.5058 14.4472 50.2853 14.0533C48.962 12.0833 47.2417 10.5073 45.1685 9.41292C44.7715 9.15026 44.4186 9.76315 44.8156 9.98204Z" fill="#FFD5AA"/>
<path opacity="0.57" d="M50.4607 15.8042C50.8136 16.4171 51.0342 17.0737 51.1665 17.7741C51.2547 18.2119 51.9164 18.0368 51.8281 17.599C51.6958 16.8548 51.4312 16.1106 51.0342 15.454C50.8136 15.06 50.2402 15.4102 50.4607 15.8042Z" fill="#FFD5AA"/>
<path d="M19.4516 5.56098C20.5544 5.12322 21.7012 4.90435 22.8922 4.94813C23.3333 4.94813 23.3333 4.29146 22.8922 4.24768C21.6571 4.20391 20.4221 4.4228 19.2752 4.86057C18.8341 5.03567 19.0546 5.69231 19.4516 5.56098Z" fill="white"/>
<path d="M24.3484 5.25451C24.7013 5.34206 25.0101 5.47339 25.3189 5.69227C25.6717 5.95493 26.1569 5.4734 25.8041 5.21074C25.4512 4.90431 25.0101 4.68541 24.5249 4.59786C24.1279 4.51031 23.9073 5.16696 24.3484 5.25451Z" fill="white"/>
<path d="M21.7012 44.5661C21.7012 44.8287 21.7453 45.1351 21.7012 45.3978C21.7012 45.8356 22.4069 45.8356 22.4069 45.3978C22.4069 45.1351 22.4069 44.8287 22.4069 44.5661C22.4069 44.3909 22.2746 44.2158 22.054 44.2158C21.8776 44.2158 21.7012 44.3909 21.7012 44.5661Z" fill="#FFB43B"/>
<path d="M23.6419 43.9961C23.686 44.2587 23.7301 44.5214 23.7301 44.7841C23.7301 45.2218 24.4359 45.2218 24.4359 44.7841C24.4359 44.4776 24.3918 44.1274 24.3477 43.821C24.3036 43.6459 24.083 43.5145 23.9066 43.6021C23.686 43.6459 23.5978 43.821 23.6419 43.9961Z" fill="#FFB43B"/>
<path d="M25.7161 44.2597C25.8485 44.5224 25.8485 44.8288 25.7603 45.0914C25.6721 45.5292 26.3337 45.7043 26.4219 45.2666C26.5101 44.785 26.466 44.3473 26.2896 43.9095C26.2014 43.7344 25.9808 43.6906 25.8044 43.7781C25.6279 43.9095 25.6279 44.1284 25.7161 44.2597Z" fill="#FFB43B"/>
<path d="M10.6304 44.6973C10.6745 44.9599 10.6745 45.2226 10.6745 45.529C10.6745 45.9668 11.3803 45.9668 11.3803 45.529C11.3803 45.1788 11.3361 44.8724 11.292 44.5221C11.2479 44.347 11.0274 44.2157 10.8509 44.3033C10.6745 44.3033 10.5863 44.5222 10.6304 44.6973Z" fill="#FFB43B"/>
<path d="M12.4815 43.996C12.5256 44.1273 12.5698 44.3024 12.6139 44.4338C12.658 44.6089 12.7462 44.784 12.9668 44.784C13.1432 44.784 13.3196 44.6089 13.3196 44.4338C13.2755 44.1711 13.2314 43.9085 13.0991 43.6458C13.0109 43.4707 12.7903 43.4269 12.6139 43.5145C12.4374 43.6458 12.4374 43.8209 12.4815 43.996Z" fill="#FFB43B"/>
<path d="M14.8211 44.1286C14.8652 44.3912 14.8653 44.6539 14.8653 44.9165C14.8653 45.3543 15.571 45.3543 15.571 44.9165C15.571 44.6539 15.571 44.3912 15.5269 44.1286C15.4828 43.9534 15.3946 43.7783 15.174 43.7783C14.9976 43.7783 14.777 43.9534 14.8211 44.1286Z" fill="#FFB43B"/>
</svg>
