<svg width="27" height="27" viewBox="0 0 27 27" fill="none" xmlns="http://www.w3.org/2000/svg">
<path d="M26.5726 0.771666C26.5335 0.606086 26.4067 0.476828 26.2441 0.43645C21.4873 -0.817799 15.0514 0.646267 11.5208 4.63477C5.50313 3.80503 1.34819 8.43232 0.43958 12.3161C0.396039 12.5056 0.474933 12.7025 0.636717 12.8068C0.798502 12.9111 1.00742 12.8999 1.15764 12.779C2.43174 11.5947 5.36679 10.4532 7.84513 11.0466C7.65039 11.6844 7.49539 12.3337 7.38095 12.991C7.35518 13.1647 7.42389 13.339 7.56071 13.4463L6.61498 14.4071C6.36352 14.6628 6.22251 15.0096 6.22251 15.3712C6.22251 15.7326 6.36352 16.0794 6.61498 16.3353L10.8731 20.6613C11.1251 20.9167 11.4663 21.06 11.8222 21.06C12.1779 21.06 12.5192 20.9167 12.7711 20.6613L13.7168 19.7004C13.8279 19.8656 14.0192 19.9555 14.2152 19.9342C14.8623 19.8179 15.5016 19.6603 16.1292 19.4624C16.7146 21.9834 15.5864 24.9656 14.4237 26.2565C14.3165 26.3931 14.2953 26.5798 14.3688 26.7376C14.4421 26.8955 14.5977 26.9974 14.7697 27C18.6543 26.1697 23.2713 21.8151 22.4404 15.7286C26.352 12.1003 27.8082 5.76788 26.5726 0.771666ZM22.4318 0.924461C23.5511 0.915939 24.6682 1.02734 25.7644 1.25724C25.9869 2.33981 26.0969 3.44305 26.0931 4.54873C25.1454 4.49212 24.2476 4.09805 23.5575 3.43552C22.8677 2.7732 22.4295 1.88481 22.3202 0.926861C22.3569 0.926456 22.3955 0.924664 22.4318 0.924461ZM21.4256 0.962001C21.5452 2.14986 22.0789 3.25497 22.9301 4.07817C23.7814 4.90142 24.8941 5.38842 26.0677 5.45132C26.0573 5.75671 26.0242 6.05499 25.9944 6.36382C24.6131 6.27453 23.3072 5.69173 22.3082 4.71857C21.3091 3.74561 20.6809 2.44471 20.5349 1.04641C20.8415 1.00461 21.1443 0.982089 21.4256 0.962001ZM5.23887 10.0495C4.00512 10.2023 2.8157 10.6128 1.74557 11.2551C3.04584 7.90185 6.67398 5.129 10.7764 5.48015C9.64134 6.88391 8.74812 8.47274 8.13516 10.1795C7.18263 9.97962 6.205 9.93589 5.23887 10.0495ZM12.138 20.0186C12.0541 20.1038 11.9403 20.1517 11.8217 20.1517C11.703 20.1517 11.5892 20.1038 11.5053 20.0186L7.24721 15.6926C7.07284 15.5149 7.07284 15.2276 7.24721 15.0498L8.19273 14.089L13.0836 19.0578L12.138 20.0186ZM20.6862 21.2064C19.6678 23.2167 17.9798 24.7946 15.9234 25.659C17.0451 23.6993 17.4216 21.3901 16.9822 19.1678C18.6619 18.5451 20.2257 17.6376 21.6074 16.4845C21.7164 18.1137 21.3987 19.7428 20.6862 21.2064ZM23.2573 13.4352C21.0353 16.3382 17.8456 18.3158 14.2884 18.9961C14.2402 18.9466 8.40518 13.0186 8.30343 12.9158C9.04346 8.2954 12.9808 2.33843 19.6546 1.19457C19.815 2.78808 20.5267 4.27219 21.6629 5.38275C22.7994 6.49332 24.2866 7.15829 25.8603 7.25932C25.4904 9.49973 24.5982 11.6174 23.2573 13.4352Z" fill="white"/>
<path d="M17.8202 5.00969C16.5273 5.01801 15.3161 5.65393 14.5619 6.72107C13.8077 7.788 13.6014 9.1571 14.0069 10.4044L12.9761 11.4516C12.5243 11.9108 12.3477 12.5799 12.5131 13.2071C12.6785 13.8343 13.1606 14.3241 13.778 14.4921C14.3954 14.6601 15.0539 14.4808 15.5059 14.0218L16.5367 12.9745C17.6564 13.3576 18.8852 13.2217 19.8974 12.6026C20.9095 11.9837 21.6029 10.9441 21.7939 9.75969C21.9848 8.57525 21.6539 7.36526 20.8887 6.45074C20.1235 5.53623 19.0016 5.00923 17.8202 5.00964L17.8202 5.00969ZM14.8731 13.3788C14.6462 13.6028 14.3197 13.6882 14.0145 13.6034C13.7095 13.5188 13.471 13.2765 13.3877 12.9665C13.3042 12.6564 13.3883 12.3248 13.6088 12.0943L14.4155 11.2748V11.2746C14.7375 11.7932 15.1695 12.2321 15.68 12.5592L14.8731 13.3788ZM17.8202 12.282C16.9899 12.281 16.1939 11.9454 15.6068 11.349C15.0198 10.7525 14.6894 9.94383 14.6884 9.10032C14.8462 4.88512 20.795 4.88637 20.952 9.10032C20.951 9.94383 20.6206 10.7527 20.0336 11.349C19.4464 11.9454 18.6505 12.281 17.8202 12.282Z" fill="white"/>
<path d="M17.82 6.82782C17.2268 6.82782 16.6578 7.06726 16.2381 7.49336C15.8187 7.91968 15.583 8.4978 15.583 9.10048C15.583 9.70316 15.8187 10.2812 16.2381 10.7076C16.6577 11.1337 17.2268 11.3731 17.82 11.3731C18.4134 11.3731 18.9822 11.1337 19.4019 10.7074C19.8213 10.2813 20.057 9.70316 20.057 9.10048C20.0562 8.4978 19.8203 7.92031 19.4011 7.49419C18.9817 7.06827 18.413 6.82844 17.82 6.82782ZM17.82 10.4641C17.344 10.4586 16.9066 10.1974 16.6702 9.77781C16.4337 9.35818 16.4337 8.84277 16.6702 8.42315C16.9066 8.00332 17.3441 7.74239 17.82 7.73688C18.296 7.74236 18.7334 8.00352 18.9699 8.42315C19.2063 8.84278 19.2063 9.35819 18.9699 9.77781C18.7334 10.1976 18.2959 10.4586 17.82 10.4641Z" fill="white"/>
<path d="M2.41637 18.8015C0.542861 20.5371 -0.303774 24.1364 0.0978638 26.6044C0.2213 27.6868 3.24025 26.1509 3.70002 25.7406L3.51088 26.2396C3.45435 26.3946 3.48471 26.5687 3.59017 26.6949C3.69543 26.8209 3.85961 26.8796 4.01959 26.8481C13.9391 24.3811 7.9695 14.0833 2.41637 18.8016V18.8015ZM7.16479 21.3995C5.60508 22.8885 4.14124 21.3987 5.6059 19.8153C7.06815 18.376 8.67578 19.7157 7.16479 21.3995ZM7.5301 23.9972C6.69962 24.7634 5.72511 25.351 4.66536 25.7246L5.27316 24.123L5.27296 24.1232C5.34906 23.9122 5.26217 23.6764 5.06863 23.5679C4.87509 23.4591 4.63242 23.51 4.49698 23.6878C3.62494 24.8736 2.36025 25.6991 0.936138 26.0124C0.637137 23.4232 2.03245 17.996 5.84675 18.5544C4.39089 19.1433 3.51787 21.3951 4.60819 22.4133C5.79398 23.5642 7.80749 22.5693 8.40573 21.1552L8.40553 21.155C8.58888 22.1909 8.26192 23.2521 7.53011 23.997L7.5301 23.9972Z" fill="white"/>
</svg>
