<svg xmlns="http://www.w3.org/2000/svg" viewBox="0 0 60 59.31"><defs><style>.cls-1{isolation:isolate;}.cls-2{fill:#f4b9ab;}.cls-3{fill:#c9c9da;mix-blend-mode:multiply;}.cls-4{fill:#e09e85;opacity:0.45;}</style></defs><g class="cls-1"><g id="Layer_2" data-name="Layer 2"><g id="Layer_1-2" data-name="Layer 1"><path class="cls-2" d="M58.71,26.36c-4.74-4.74-6.4-2.67-6.4-2.67s-1-5-8.2-5.53a3.24,3.24,0,0,0-2.66,1.08l0,0c.1-1.21.22-3,.29-5C42,6.86,42,3.14,40,1.37a5.68,5.68,0,0,0-6-.86c-2.1,1.14-2.59,4.14-3.22,8a26.08,26.08,0,0,0-.37,3.81c-.07,2.78.36,4.71.36,7.59A20.62,20.62,0,0,1,27,31.27c-1,.39-.86.15-1.56,0C20.74,30,20.38,22.3,12.36,20.48S-.95,23.57.14,26.49s9.12,1.1,10.58,5.84c1.39,4.54,7.65,25.3,19.24,26.22,1.35.11,2.7.22,4,.38,4.16.51,12.34,1,15.55-2.18C53.92,52.38,63.45,31.1,58.71,26.36Z"/><path class="cls-3" d="M50.49,20.67c1.53,7.15-.35,14.92-.35,14.92,2.44-2.45,2.17-11.9,2.17-11.9S52,23,51.57,22A7.55,7.55,0,0,0,50.49,20.67Z"/><path class="cls-3" d="M41.43,19.53c.08-1.28.2-3.11.29-5.31.14-3.4.21-5.1,0-5.14-.38-.06-.61,3.59-2.57,9.43-.67,2-1.49,4.1-.81,6.63a7.32,7.32,0,0,0,.81,1.94Z"/><path class="cls-4" d="M22.26,42.83a14,14,0,0,0,8.22,9.84c7,2.88,12.8-2.47,14.85-6.87s.27-6.21-7.83-6.21S20.88,36.56,22.26,42.83Z"/><path class="cls-4" d="M34.06,2.79s-1.88,6.62.8,7.85,6.17-8,3-8.51S34.06,2.79,34.06,2.79Z"/></g></g></g></svg>