<svg xmlns="http://www.w3.org/2000/svg" viewBox="0 0 18 19.44"><defs><style>.cls-1{fill:#fff;fill-rule:evenodd;}</style></defs><g id="Layer_2" data-name="Layer 2"><g id="Layer_1-2" data-name="Layer 1"><path class="cls-1" d="M2.52,7.23c-2.28-10,12.7-9.57,10.31,1C12,12.09,14.28,16.74,18,14.31a2.72,2.72,0,0,1-3.17,1.75c-1.38-.26-3.5-1-3.93-6.55,0-.43-.41.16-.51,2.65C10.2,17,13.53,17,13.55,17.06c-.15.72-3.38,1.49-4.32-2.12-.13-.52-.59-3.51-.74-4.72-.19-1.57-.57,5.54-.64,6.17-.32,2.65-2.5,3.43-3.23,2.89,0-.3,1.64-.76,1.71-2.58.06-1.3.29-8.9-.69-5.24C4.54,15.58,3.32,18.62,0,18c3.57-1.68,3.5-5.71,3.39-8A23.87,23.87,0,0,0,2.52,7.23Z"/><path class="cls-1" d="M7.19,7.41c.09,0,.11.17.2.25A1.25,1.25,0,0,0,8,8a.92.92,0,0,0,.65-.22c.15-.1.25-.26.28-.2s-.43.61-.92.57a1.44,1.44,0,0,1-.63-.27C7.14,7.69,7,7.42,7.19,7.41Z"/><path class="cls-1" d="M4.85,5.83c-.14.79.73,1,.88.3S5,5.27,4.85,5.83Z"/><path class="cls-1" d="M9.91,5.75c-.15.78.72,1,.88.3S10.07,5.19,9.91,5.75Z"/><path class="cls-1" d="M10.19,6.1c0,.31.29.41.35.12S10.25,5.88,10.19,6.1Z"/><path class="cls-1" d="M5.2,6.13c-.06.31.28.41.34.12S5.26,5.91,5.2,6.13Z"/><path class="cls-1" d="M5.74,10.55c-.31,0,0,.34.06.07C5.8,10.58,5.73,10.55,5.74,10.55Z"/><path class="cls-1" d="M5.67,10.88c-.32,0,0,.34,0,.06C5.72,10.91,5.66,10.88,5.67,10.88Z"/><path class="cls-1" d="M5.55,11.14c.28.16-.2.27-.07,0C5.49,11.14,5.56,11.15,5.55,11.14Z"/><path class="cls-1" d="M5.46,11.46c.27.16-.21.27-.08,0C5.4,11.46,5.47,11.47,5.46,11.46Z"/><path class="cls-1" d="M5.4,11.74c-.32,0,0,.34,0,.06C5.45,11.77,5.39,11.74,5.4,11.74Z"/><path class="cls-1" d="M5.32,12.06c-.31,0,0,.34.06.07C5.38,12.09,5.31,12.06,5.32,12.06Z"/><path class="cls-1" d="M5.21,12.33c.27.15-.21.27-.08,0C5.15,12.32,5.22,12.33,5.21,12.33Z"/><path class="cls-1" d="M5.11,12.65c.28.15-.2.27-.08,0C5.05,12.64,5.12,12.65,5.11,12.65Z"/><path class="cls-1" d="M5,12.91c-.32,0,0,.34,0,.07C5.06,12.94,5,12.91,5,12.91Z"/><path class="cls-1" d="M4.93,13.24c-.31,0,.05.34.06.06C5,13.27,4.92,13.24,4.93,13.24Z"/><path class="cls-1" d="M4.82,13.5c.27.16-.21.27-.08,0C4.75,13.5,4.83,13.51,4.82,13.5Z"/><path class="cls-1" d="M4.72,13.82c.28.15-.21.27-.08,0C4.66,13.82,4.73,13.83,4.72,13.82Z"/><path class="cls-1" d="M4.63,14.12c-.32,0,0,.34,0,.06C4.68,14.15,4.62,14.12,4.63,14.12Z"/><path class="cls-1" d="M4.55,14.45c-.31,0,0,.33.06.06C4.61,14.47,4.54,14.45,4.55,14.45Z"/><path class="cls-1" d="M4.44,14.71c.27.15-.21.27-.08,0C4.37,14.71,4.45,14.71,4.44,14.71Z"/><path class="cls-1" d="M4.34,15c.23.22-.27.22-.08,0C4.28,15,4.35,15,4.34,15Z"/><path class="cls-1" d="M4.21,15.24c-.3-.08,0,.34,0,.07C4.26,15.28,4.2,15.24,4.21,15.24Z"/><path class="cls-1" d="M4.06,15.53c-.31-.08,0,.34,0,.08C4.1,15.57,4.05,15.53,4.06,15.53Z"/><path class="cls-1" d="M3.88,15.76c.22.22-.27.21-.08,0C3.82,15.74,3.89,15.77,3.88,15.76Z"/><path class="cls-1" d="M3.7,16c.23.22-.27.22-.08,0C3.64,16,3.71,16.05,3.7,16Z"/><path class="cls-1" d="M3.53,16.28c-.3-.08,0,.33,0,.07C3.58,16.32,3.52,16.27,3.53,16.28Z"/><path class="cls-1" d="M3.38,16.57c-.31-.08,0,.34,0,.08C3.42,16.61,3.37,16.57,3.38,16.57Z"/><path class="cls-1" d="M3.2,16.8c.22.21-.27.21-.08,0C3.14,16.78,3.21,16.8,3.2,16.8Z"/><path class="cls-1" d="M3,17c.23.22-.27.21-.08,0C2.91,17,3,17,3,17Z"/><path class="cls-1" d="M2.77,17.27c.1.11-.13.11,0,0S2.77,17.28,2.77,17.27Z"/><path class="cls-1" d="M2.57,17.41c.11.11-.13.1,0,0S2.57,17.41,2.57,17.41Z"/><path class="cls-1" d="M2.23,17.6c.11.1-.13.1,0,0S2.23,17.6,2.23,17.6Z"/><path class="cls-1" d="M8,11.77c-.31.07.12.32.06.05C8.07,11.78,8,11.77,8,11.77Z"/><path class="cls-1" d="M8,12.1c-.31.07.12.32.06.05C8.07,12.12,8,12.11,8,12.1Z"/><path class="cls-1" d="M8,12.39c.3.08-.14.31-.08,0C7.89,12.4,8,12.39,8,12.39Z"/><path class="cls-1" d="M7.93,12.72c.31.09-.14.31-.07,0C7.87,12.73,7.94,12.72,7.93,12.72Z"/><path class="cls-1" d="M7.94,13c-.31.07.12.32.07.05C8,13,7.93,13,7.94,13Z"/><path class="cls-1" d="M7.94,13.34c-.31.07.12.31.07,0C8,13.35,7.93,13.34,7.94,13.34Z"/><path class="cls-1" d="M7.89,13.62c.3.09-.14.31-.07,0C7.83,13.63,7.9,13.62,7.89,13.62Z"/><path class="cls-1" d="M7.87,14c.3.09-.14.31-.08,0C7.8,14,7.88,14,7.87,14Z"/><path class="cls-1" d="M7.82,14.23c-.3.07.12.32.07,0C7.88,14.25,7.81,14.24,7.82,14.23Z"/><path class="cls-1" d="M7.82,14.57c-.3.07.12.32.07,0C7.88,14.58,7.81,14.57,7.82,14.57Z"/><path class="cls-1" d="M7.73,14.88c.3.08-.14.31-.07,0C7.66,14.89,7.74,14.88,7.73,14.88Z"/><path class="cls-1" d="M7.71,15.21c.3.08-.14.31-.07,0C7.65,15.22,7.72,15.21,7.71,15.21Z"/><path class="cls-1" d="M7.69,15.52c-.31.08.12.32.07.05C7.75,15.53,7.68,15.52,7.69,15.52Z"/><path class="cls-1" d="M7.7,15.85c-.31.08.12.32.06.05C7.76,15.87,7.68,15.86,7.7,15.85Z"/><path class="cls-1" d="M7.65,16.14c.3.08-.14.31-.07,0C7.59,16.15,7.66,16.14,7.65,16.14Z"/><path class="cls-1" d="M7.62,16.43c.27.16-.21.27-.08,0C7.56,16.42,7.63,16.43,7.62,16.43Z"/><path class="cls-1" d="M7.56,16.7c-.32,0,0,.34.05.07C7.61,16.73,7.55,16.7,7.56,16.7Z"/><path class="cls-1" d="M7.48,17c-.32,0,0,.34,0,.06C7.53,17.06,7.47,17,7.48,17Z"/><path class="cls-1" d="M7.36,17.29c.27.16-.21.27-.08,0C7.3,17.29,7.37,17.3,7.36,17.29Z"/><path class="cls-1" d="M7.26,17.61c.27.16-.21.27-.08,0C7.2,17.6,7.27,17.61,7.26,17.61Z"/><path class="cls-1" d="M7.15,17.87c-.32,0,0,.34,0,.07C7.2,17.9,7.14,17.87,7.15,17.87Z"/><path class="cls-1" d="M7,18.1c-.31-.08-.05.33,0,.07C7,18.14,7,18.09,7,18.1Z"/><path class="cls-1" d="M6.8,18.32c.23.22-.27.21-.08,0C6.74,18.3,6.81,18.33,6.8,18.32Z"/><path class="cls-1" d="M6.57,18.54c.23.21-.26.21-.08,0C6.51,18.52,6.58,18.54,6.57,18.54Z"/><path class="cls-1" d="M6.37,18.8c.11.11-.13.1,0,0S6.37,18.8,6.37,18.8Z"/><path class="cls-1" d="M6.17,18.94c.11.1-.13.1,0,0S6.17,18.94,6.17,18.94Z"/><path class="cls-1" d="M5.83,19.13c.11.1-.13.1,0,0Z"/><path class="cls-1" d="M8.79,10.8c-.29.13.18.29.07,0C8.85,10.8,8.78,10.8,8.79,10.8Z"/><path class="cls-1" d="M8.86,11.12c-.29.13.18.29.07,0C8.92,11.13,8.85,11.13,8.86,11.12Z"/><path class="cls-1" d="M8.86,11.41c.32,0-.07.33-.06.06C8.8,11.43,8.87,11.41,8.86,11.41Z"/><path class="cls-1" d="M8.91,11.74c.31,0-.07.33-.06.06C8.85,11.76,8.92,11.74,8.91,11.74Z"/><path class="cls-1" d="M9,12c-.28.13.18.29.08,0C9,12,9,12,9,12Z"/><path class="cls-1" d="M9,12.34c-.29.13.18.29.08,0C9.1,12.35,9,12.35,9,12.34Z"/><path class="cls-1" d="M9.05,12.63c.31,0-.07.33-.06.06C9,12.65,9.06,12.63,9.05,12.63Z"/><path class="cls-1" d="M9.09,13c.32,0-.07.33-.06.06C9,13,9.11,13,9.09,13Z"/><path class="cls-1" d="M9.11,13.25c-.29.13.18.29.08,0C9.17,13.25,9.1,13.25,9.11,13.25Z"/><path class="cls-1" d="M9.18,13.57c-.29.13.18.29.08,0C9.24,13.58,9.17,13.58,9.18,13.57Z"/><path class="cls-1" d="M9.15,13.9c.31,0-.07.33-.06,0C9.09,13.92,9.16,13.9,9.15,13.9Z"/><path class="cls-1" d="M9.24,14.16c-.27.17.22.26.08,0C9.3,14.16,9.23,14.17,9.24,14.16Z"/><path class="cls-1" d="M9.35,14.48c-.26.17.22.26.08,0C9.41,14.47,9.34,14.48,9.35,14.48Z"/><path class="cls-1" d="M9.4,14.76c.31,0,0,.34-.05.07C9.35,14.79,9.41,14.76,9.4,14.76Z"/><path class="cls-1" d="M9.49,15.08c.32,0,0,.34-.05.07C9.44,15.11,9.51,15.08,9.49,15.08Z"/><path class="cls-1" d="M9.6,15.34c-.27.17.22.26.08,0C9.66,15.34,9.59,15.35,9.6,15.34Z"/><path class="cls-1" d="M9.72,15.66c-.22.23.28.2.08,0C9.78,15.64,9.71,15.67,9.72,15.66Z"/><path class="cls-1" d="M9.84,15.92c.3-.09.06.34,0,.08C9.79,16,9.85,15.92,9.84,15.92Z"/><path class="cls-1" d="M10,16.21c.3-.1.06.33,0,.08C10,16.25,10,16.21,10,16.21Z"/><path class="cls-1" d="M10.13,16.47c-.21.23.28.19.09,0C10.19,16.44,10.12,16.47,10.13,16.47Z"/><path class="cls-1" d="M10.32,16.74c-.21.23.28.2.08,0C10.38,16.72,10.31,16.75,10.32,16.74Z"/><path class="cls-1" d="M10.6,16.94c.3-.09.06.34,0,.08C10.55,17,10.61,16.94,10.6,16.94Z"/><path class="cls-1" d="M10.88,17.14c-.18.26.3.14.08,0C10.93,17.1,10.87,17.14,10.88,17.14Z"/><path class="cls-1" d="M11.13,17.35c-.08.13.15.07,0,0S11.13,17.35,11.13,17.35Z"/><path class="cls-1" d="M11.36,17.44c-.09.13.15.07,0,0S11.36,17.45,11.36,17.44Z"/><path class="cls-1" d="M11.73,17.55c-.08.13.15.08,0,0S11.73,17.56,11.73,17.55Z"/><path class="cls-1" d="M11.18,10.29c-.28.13.19.29.08,0C11.25,10.29,11.17,10.29,11.18,10.29Z"/><path class="cls-1" d="M11.25,10.62c-.28.13.18.29.08,0C11.31,10.62,11.24,10.62,11.25,10.62Z"/><path class="cls-1" d="M11.26,10.9c.31,0-.07.34-.06.06C11.2,10.93,11.27,10.9,11.26,10.9Z"/><path class="cls-1" d="M11.31,11.23c.31,0-.08.34-.06.06C11.25,11.26,11.32,11.23,11.31,11.23Z"/><path class="cls-1" d="M11.37,11.51c-.29.13.18.29.07,0C11.43,11.51,11.36,11.51,11.37,11.51Z"/><path class="cls-1" d="M11.44,11.84c-.29.13.18.29.07,0C11.5,11.84,11.43,11.84,11.44,11.84Z"/><path class="cls-1" d="M11.44,12.12c.32,0-.07.34-.06.06C11.39,12.15,11.46,12.12,11.44,12.12Z"/><path class="cls-1" d="M11.59,12.46c.31-.05,0,.34,0,.07C11.54,12.5,11.6,12.46,11.59,12.46Z"/><path class="cls-1" d="M11.68,12.73c-.25.2.25.24.08,0C11.74,12.72,11.67,12.74,11.68,12.73Z"/><path class="cls-1" d="M11.83,13c-.25.2.25.24.08,0C11.89,13,11.82,13,11.83,13Z"/><path class="cls-1" d="M11.88,13.35c.31,0,0,.34,0,.07C11.83,13.39,11.89,13.35,11.88,13.35Z"/><path class="cls-1" d="M12,13.59c-.21.23.28.2.08,0C12.09,13.57,12,13.6,12,13.59Z"/><path class="cls-1" d="M12.22,13.87c-.21.23.28.19.09,0C12.28,13.84,12.21,13.87,12.22,13.87Z"/><path class="cls-1" d="M12.34,14.13c.3-.1.07.33,0,.07C12.3,14.17,12.35,14.12,12.34,14.13Z"/><path class="cls-1" d="M12.51,14.41c.3-.09.07.34,0,.08C12.47,14.46,12.53,14.41,12.51,14.41Z"/><path class="cls-1" d="M12.68,14.64c-.21.23.28.2.08,0C12.74,14.62,12.67,14.65,12.68,14.64Z"/><path class="cls-1" d="M12.88,14.92c-.15.27.32.12.08,0C12.93,14.88,12.87,14.93,12.88,14.92Z"/><path class="cls-1" d="M13.06,15.14c.27-.16.14.31,0,.08C13,15.2,13.07,15.14,13.06,15.14Z"/><path class="cls-1" d="M13.32,15.29c.23-.21.19.28,0,.08C13.29,15.35,13.33,15.28,13.32,15.29Z"/><path class="cls-1" d="M13.54,15.48c-.1.29.34.06.08,0C13.58,15.43,13.54,15.49,13.54,15.48Z"/><path class="cls-1" d="M13.83,15.65c-.1.29.33.06.07,0C13.87,15.6,13.82,15.66,13.83,15.65Z"/><path class="cls-1" d="M14.16,15.72c.23-.21.2.28,0,.08C14.14,15.78,14.17,15.71,14.16,15.72Z"/><path class="cls-1" d="M14.5,15.78c-.05.31.34,0,.07,0A.1.1,0,0,0,14.5,15.78Z"/><path class="cls-1" d="M14.82,15.87c0,.15.17,0,0,0S14.82,15.87,14.82,15.87Z"/><path class="cls-1" d="M15.06,15.86c0,.15.17,0,0,0S15.06,15.86,15.06,15.86Z"/><path class="cls-1" d="M15.48,16c0,.15.17,0,0,0Z"/><path class="cls-1" d="M15.74,15.87c0,.31.34-.06.07-.06C15.77,15.81,15.74,15.88,15.74,15.87Z"/><path class="cls-1" d="M16.08,15.89c0,.16.17,0,0,0S16.08,15.9,16.08,15.89Z"/><path class="cls-1" d="M16.32,15.84c0,.15.16,0,0,0S16.32,15.85,16.32,15.84Z"/><path class="cls-1" d="M16.68,15.72c0,.15.17,0,0,0S16.69,15.72,16.68,15.72Z"/></g></g></svg>