<svg width="67" height="44" viewBox="0 0 67 44" fill="none" xmlns="http://www.w3.org/2000/svg">
<path d="M57.5858 27.3348L56.0565 26.6658L53.4281 25.4711L31.8275 15.6265L27.8133 13.7628L14.0023 7.45462L4.58789 3.15363L10.9438 36.2713L57.5858 27.3348ZM11.4217 16.9168L37.7534 27.0003L27.1442 28.7207L20.6927 29.7721L12.9032 31.0146L11.4217 16.9168Z" fill="#EC9430"/>
<path d="M67 30.5849L0 0L2.38944 43.01L67 30.5849ZM11.8038 16.057L38.1355 26.1405L13.2853 30.1548L11.8038 16.057Z" fill="#FFC346"/>
<path opacity="0.32" d="M45.0652 20.5973L43.0581 19.6893C41.8634 22.461 40.4297 25.185 39.235 27.8612C37.8969 30.8241 36.5588 33.787 35.2207 36.7022L39.7606 35.8419C41.5766 30.7763 43.5838 25.7585 45.0652 20.5973Z" fill="#FFC346"/>
<path opacity="0.32" d="M67 30.5848L53.8581 24.5634C52.8545 27.6219 51.7075 30.6803 50.6084 33.7388L67 30.5848Z" fill="#FFC346"/>
<path opacity="0.32" d="M23.6558 37.3706C24.9461 34.2166 26.2364 31.0148 27.5267 27.8607L16.822 29.5811C14.8627 32.4006 12.9989 35.268 11.6608 38.422C11.0873 39.7601 10.2271 40.8593 9.17578 41.7195L22.939 39.0432C23.1779 38.5176 23.4169 37.9441 23.6558 37.3706Z" fill="#FFC346"/>
<path opacity="0.32" d="M29.6772 22.2223C30.5374 19.7372 31.3976 17.2522 32.2578 14.7194L28.2435 12.8557C26.6187 15.3885 24.9939 17.9212 23.3213 20.4063L29.4861 22.7479C29.4861 22.6046 29.5816 22.4134 29.6772 22.2223Z" fill="#FFC346"/>
<path opacity="0.32" d="M9.98787 13.3808C11.4693 11.1347 12.9508 8.88863 14.4322 6.64256L0 0.0476685L1.43367 26.0448C4.10984 21.696 7.12054 17.634 9.98787 13.3808Z" fill="#FFC346"/>
<path d="M3.77532 42.7707L0.716833 0.382042L0 0.0474854L2.38944 43.0575L3.77532 42.7707Z" fill="#EC9430"/>
<path d="M6.893 38.6032L6.51758 38.6753L7.17587 42.1011L7.55129 42.0289L6.893 38.6032Z" fill="#844500"/>
<path d="M8.96624 40.0076L8.59082 40.0798L8.91563 41.7692L9.29105 41.697L8.96624 40.0076Z" fill="#844500"/>
<path d="M10.6655 39.6872L10.29 39.7595L10.6152 41.4489L10.9906 41.3767L10.6655 39.6872Z" fill="#844500"/>
<path d="M12.269 39.3453L11.8936 39.4175L12.2182 41.1069L12.5936 41.0348L12.269 39.3453Z" fill="#844500"/>
<path d="M13.9477 39.0587L13.5723 39.1309L13.8969 40.8203L14.2723 40.7481L13.9477 39.0587Z" fill="#844500"/>
<path d="M15.2612 37.0257L14.8857 37.0978L15.544 40.5236L15.9195 40.4515L15.2612 37.0257Z" fill="#844500"/>
<path d="M17.2934 38.4174L16.918 38.4896L17.2429 40.179L17.6184 40.1068L17.2934 38.4174Z" fill="#844500"/>
<path d="M19.0063 38.0432L18.6309 38.1154L18.9557 39.8049L19.3311 39.7327L19.0063 38.0432Z" fill="#844500"/>
<path d="M20.6352 37.7699L20.2598 37.8421L20.5844 39.5315L20.9598 39.4594L20.6352 37.7699Z" fill="#844500"/>
<path d="M22.308 37.4342L21.9326 37.5064L22.2573 39.1958L22.6327 39.1237L22.308 37.4342Z" fill="#844500"/>
<path d="M23.6235 35.4005L23.248 35.4726L23.9063 38.8984L24.2818 38.8263L23.6235 35.4005Z" fill="#844500"/>
<path d="M25.6577 36.8126L25.2822 36.8848L25.6069 38.5742L25.9823 38.502L25.6577 36.8126Z" fill="#844500"/>
<path d="M27.3657 36.4713L26.9902 36.5435L27.315 38.2329L27.6905 38.1607L27.3657 36.4713Z" fill="#844500"/>
<path d="M28.9955 36.1462L28.6201 36.2183L28.9448 37.9078L29.3202 37.8356L28.9955 36.1462Z" fill="#844500"/>
<path d="M30.6655 35.8119L30.29 35.884L30.6147 37.5734L30.9901 37.5013L30.6655 35.8119Z" fill="#844500"/>
<path d="M31.9907 33.8244L31.6152 33.8965L32.2735 37.3223L32.6489 37.2501L31.9907 33.8244Z" fill="#844500"/>
<path d="M34.0834 35.1936L33.708 35.2659L34.0332 36.9554L34.4086 36.8831L34.0834 35.1936Z" fill="#844500"/>
<path d="M35.725 34.8468L35.3496 34.919L35.6744 36.6084L36.0498 36.5362L35.725 34.8468Z" fill="#844500"/>
<path d="M37.3539 34.5217L36.9785 34.5938L37.3032 36.2832L37.6786 36.2111L37.3539 34.5217Z" fill="#844500"/>
<path d="M39.0336 34.2343L38.6582 34.3065L38.9829 35.996L39.3583 35.9238L39.0336 34.2343Z" fill="#844500"/>
<path d="M40.4194 32.2033L40.0439 32.2755L40.7033 35.7013L41.0787 35.629L40.4194 32.2033Z" fill="#844500"/>
<path d="M42.3735 33.5658L41.998 33.6379L42.3227 35.3273L42.6981 35.2552L42.3735 33.5658Z" fill="#844500"/>
<path d="M44.0532 33.2784L43.6777 33.3506L44.0024 35.0401L44.3778 34.9679L44.0532 33.2784Z" fill="#844500"/>
<path d="M45.7641 32.9343L45.3887 33.0065L45.7135 34.6959L46.0889 34.6237L45.7641 32.9343Z" fill="#844500"/>
<path d="M47.4633 32.6126L47.0879 32.6848L47.413 34.3742L47.7885 34.302L47.4633 32.6126Z" fill="#844500"/>
<path d="M48.7094 30.5761L48.334 30.6483L48.9923 34.0741L49.3677 34.0019L48.7094 30.5761Z" fill="#844500"/>
<path d="M50.7426 31.989L50.3672 32.0611L50.6918 33.7505L51.0672 33.6784L50.7426 31.989Z" fill="#844500"/>
<path d="M52.4125 31.6547L52.0371 31.7268L52.3617 33.4162L52.7372 33.3441L52.4125 31.6547Z" fill="#844500"/>
<path d="M54.0825 31.3211L53.707 31.3932L54.0317 33.0826L54.4071 33.0105L54.0825 31.3211Z" fill="#844500"/>
<path d="M55.8237 30.9874L55.4482 31.0596L55.7734 32.7491L56.1488 32.6768L55.8237 30.9874Z" fill="#844500"/>
<path d="M57.1186 28.9887L56.7432 29.0609L57.4018 32.4867L57.7773 32.4145L57.1186 28.9887Z" fill="#844500"/>
</svg>
