<svg width="150" height="84" viewBox="0 0 150 84" fill="none" xmlns="http://www.w3.org/2000/svg">
<g clip-path="url(#clip0_136_1017)">
<rect width="150" height="83.7054" fill="white"/>
<path d="M-15.5693 0H165.532V83.7054H-15.5693V0Z" fill="#FCF9EE"/>
<path d="M28.7281 2.3468L29.3023 3.50581L30.586 3.69337L29.6546 4.5975L29.8766 5.86712L28.7281 5.26597L27.5795 5.86712L27.7967 4.5975L26.8701 3.69337L28.1538 3.50581L28.7281 2.3468Z" fill="#F67300"/>
<path d="M33.1307 73.5355L34.0072 75.0023L34.8885 76.4691H33.1307H31.3682L32.2495 75.0023L33.1307 73.5355Z" fill="#F67300"/>
<path d="M6.53067 33.0519L7.41075 34.5187L8.29083 35.9855H6.53067H4.77051L5.65059 34.5187L6.53067 33.0519Z" fill="#FF3612"/>
<path d="M120.855 34.0939L121.735 35.5607L122.615 37.0275H120.855H119.095L119.975 35.5607L120.855 34.0939Z" fill="#FF3612"/>
<path d="M145.976 56.9117L146.858 58.3785L147.734 59.8453H145.976H144.214L145.095 58.3785L145.976 56.9117Z" fill="#4B78C6"/>
<path d="M45.7593 77.5033L43.4793 78.8724C43.3649 78.9415 43.2933 79.066 43.2981 79.195C43.3028 79.3287 43.3792 79.444 43.4984 79.5085L45.8642 80.73C45.9834 80.79 46.1313 80.7854 46.2458 80.7162C46.3316 80.6655 46.3936 80.5825 46.4175 80.4857C46.427 80.4535 46.427 80.4212 46.427 80.3889L46.3412 77.7983C46.3364 77.6647 46.2601 77.5494 46.1408 77.4849C46.0216 77.4296 45.8737 77.4342 45.7593 77.5033Z" fill="#FF3612"/>
<path d="M140.613 74.7653L138.333 76.1343C138.218 76.2035 138.147 76.3279 138.152 76.457C138.156 76.5907 138.233 76.7059 138.352 76.7705L140.718 77.992C140.837 78.0519 140.985 78.0473 141.099 77.9782C141.185 77.9275 141.247 77.8445 141.271 77.7477C141.281 77.7154 141.281 77.6832 141.281 77.6509L141.195 75.0603C141.19 74.9266 141.114 74.8114 140.994 74.7468C140.87 74.6915 140.727 74.6961 140.613 74.7653Z" fill="#FF3612"/>
<path d="M110.261 80.0139L112.826 80.7565C112.955 80.7941 113.097 80.7612 113.197 80.6672C113.297 80.5732 113.335 80.4369 113.301 80.3053L112.67 77.7341C112.636 77.6025 112.537 77.4991 112.408 77.4615C112.309 77.4333 112.209 77.4474 112.119 77.4944C112.09 77.5085 112.062 77.5273 112.038 77.5508L110.105 79.3793C110.005 79.4733 109.967 79.6096 110 79.7412C110.033 79.8728 110.133 79.9763 110.261 80.0139Z" fill="#FF9090"/>
<path d="M14.2349 45.7875L16.7999 46.5312C16.9281 46.5688 17.0706 46.5359 17.1704 46.4417C17.2701 46.3476 17.3081 46.2111 17.2749 46.0793L16.6432 43.5092C16.6099 43.3774 16.5102 43.2738 16.3819 43.2362C16.2822 43.2079 16.1824 43.222 16.0922 43.2691C16.0637 43.2832 16.0352 43.3021 16.0114 43.3256L14.0782 45.1567C13.9784 45.2508 13.9404 45.3873 13.9737 45.5191C14.0069 45.6462 14.1067 45.7498 14.2349 45.7875Z" fill="#78A941"/>
<path d="M128.559 46.8296L131.124 47.5733C131.252 47.611 131.395 47.578 131.495 47.4839C131.594 47.3897 131.632 47.2532 131.599 47.1214L130.967 44.5513C130.934 44.4195 130.834 44.3159 130.706 44.2783C130.606 44.25 130.507 44.2642 130.416 44.3112C130.388 44.3254 130.359 44.3442 130.336 44.3677L128.402 46.1988C128.303 46.293 128.265 46.4295 128.298 46.5613C128.331 46.6884 128.431 46.7919 128.559 46.8296Z" fill="#78A941"/>
<path d="M144.441 39.8598L146.554 40.4718C146.661 40.5007 146.778 40.4766 146.856 40.3995C146.939 40.3224 146.968 40.2116 146.944 40.1008L146.423 37.9804C146.398 37.8744 146.316 37.7877 146.208 37.7587C146.126 37.7346 146.043 37.7443 145.97 37.7828C145.946 37.7973 145.926 37.8118 145.902 37.831L144.31 39.3394C144.227 39.4165 144.198 39.5273 144.222 39.6381C144.251 39.7441 144.334 39.8309 144.441 39.8598Z" fill="#F67300"/>
<path d="M96.4846 77.374L97.2608 74.8102C97.2984 74.6815 97.2702 74.5386 97.1761 74.4385C97.0867 74.3384 96.9456 74.2955 96.8186 74.3289L94.2408 74.9293C94.1091 74.9579 94.0057 75.058 93.968 75.1867C93.9398 75.2867 93.9492 75.3868 93.9962 75.4774C94.0104 75.506 94.0292 75.5346 94.0527 75.5584L95.8543 77.5217C95.9437 77.6218 96.0848 77.6647 96.2118 77.6313C96.3388 77.6027 96.447 77.5074 96.4846 77.374Z" fill="#65E2CB"/>
<path d="M59.2778 5.99123L61.8618 6.25634C61.991 6.27029 62.1202 6.20983 62.1986 6.10286C62.2771 5.99588 62.2909 5.85636 62.2355 5.73543L61.1696 3.34949C61.1143 3.22856 61.0035 3.14485 60.8697 3.13089C60.7728 3.12159 60.6759 3.1495 60.5975 3.21461C60.5744 3.23322 60.5513 3.25647 60.5329 3.28438L59.0148 5.40521C58.9363 5.51218 58.9225 5.65171 58.9779 5.77264C59.0332 5.89356 59.1486 5.97728 59.2778 5.99123Z" fill="#65E2CB"/>
<path d="M22.7055 33.567L25.2895 33.8321C25.4187 33.8461 25.5479 33.7856 25.6264 33.6787C25.7048 33.5717 25.7187 33.4322 25.6633 33.3112L24.5974 30.9253C24.542 30.8044 24.4313 30.7207 24.2975 30.7067C24.2006 30.6974 24.1037 30.7253 24.0252 30.7904C24.0021 30.809 23.9791 30.8323 23.9606 30.8602L22.4425 32.981C22.3641 33.088 22.3502 33.2275 22.4056 33.3484C22.461 33.474 22.5717 33.5577 22.7055 33.567Z" fill="#F67300"/>
<path d="M131.583 34.1679L134.167 34.433C134.297 34.4469 134.426 34.3865 134.504 34.2795C134.583 34.1725 134.597 34.033 134.541 33.9121L133.475 31.5261C133.42 31.4052 133.309 31.3215 133.175 31.3075C133.078 31.2982 132.982 31.3261 132.903 31.3912C132.88 31.4099 132.857 31.4331 132.839 31.461L131.32 33.5818C131.242 33.6888 131.228 33.8284 131.284 33.9493C131.339 34.0749 131.45 34.1586 131.583 34.1679Z" fill="#F67300"/>
<path d="M109.653 43.5429L112.237 43.808C112.366 43.8219 112.495 43.7615 112.574 43.6545C112.652 43.5475 112.666 43.408 112.611 43.2871L111.545 40.9011C111.489 40.7802 111.379 40.6965 111.245 40.6825C111.148 40.6732 111.051 40.7011 110.972 40.7662C110.949 40.7849 110.926 40.8081 110.908 40.836L109.39 42.9568C109.311 43.0638 109.297 43.2034 109.353 43.3243C109.408 43.4499 109.519 43.5336 109.653 43.5429Z" fill="#F67300"/>
<path d="M21.727 23.7887L24.311 24.0535C24.4402 24.0674 24.5694 24.007 24.6479 23.9002C24.7263 23.7934 24.7401 23.6541 24.6848 23.5333L23.6189 21.1463C23.5635 21.0255 23.4528 20.9419 23.3189 20.928C23.222 20.9187 23.1251 20.9466 23.0467 21.0116C23.0236 21.0302 23.0006 21.0534 22.9821 21.0813L21.464 23.199C21.3855 23.3058 21.3717 23.4451 21.4271 23.5658C21.4825 23.6912 21.5978 23.7748 21.727 23.7887Z" fill="#4B78C6"/>
<path d="M136.052 24.8309L138.636 25.0956C138.765 25.1095 138.895 25.0491 138.973 24.9423C139.051 24.8355 139.065 24.6962 139.01 24.5754L137.944 22.1884C137.889 22.0676 137.778 21.9841 137.644 21.9701C137.547 21.9608 137.45 21.9887 137.372 22.0537C137.349 22.0723 137.326 22.0955 137.307 22.1234L135.789 24.2411C135.711 24.3479 135.697 24.4872 135.752 24.6079C135.808 24.7333 135.923 24.8169 136.052 24.8309Z" fill="#4B78C6"/>
<path d="M136.941 48.733L139.525 48.9977C139.654 49.0116 139.783 48.9512 139.862 48.8444C139.94 48.7376 139.954 48.5983 139.899 48.4775L138.833 46.0905C138.777 45.9697 138.667 45.8862 138.533 45.8722C138.436 45.8629 138.339 45.8908 138.261 45.9558C138.237 45.9744 138.214 45.9976 138.196 46.0255L136.678 48.1432C136.599 48.25 136.586 48.3893 136.641 48.51C136.696 48.6354 136.812 48.719 136.941 48.733Z" fill="#4B78C6"/>
<path d="M119.865 67.483L122.449 67.7477C122.578 67.7616 122.707 67.7012 122.786 67.5944C122.864 67.4876 122.878 67.3483 122.822 67.2275L121.757 64.8405C121.701 64.7197 121.59 64.6362 121.457 64.6222C121.36 64.6129 121.263 64.6408 121.184 64.7058C121.161 64.7244 121.138 64.7476 121.12 64.7755L119.602 66.8932C119.523 67 119.509 67.1393 119.565 67.26C119.62 67.3854 119.736 67.469 119.865 67.483Z" fill="#4B78C6"/>
<path d="M104.797 24.1236L107.381 24.3883C107.511 24.4022 107.64 24.3419 107.718 24.2351C107.797 24.1282 107.81 23.9889 107.755 23.8682L106.689 21.4811C106.634 21.3604 106.523 21.2768 106.389 21.2628C106.292 21.2536 106.195 21.2814 106.117 21.3464C106.094 21.365 106.071 21.3882 106.052 21.4161L104.534 23.5338C104.456 23.6406 104.442 23.7799 104.497 23.9007C104.553 24.0261 104.668 24.1097 104.797 24.1236Z" fill="#4B78C6"/>
<path d="M144.684 23.2554L146.814 23.4674C146.921 23.477 147.028 23.4337 147.091 23.3421C147.154 23.2554 147.164 23.1398 147.12 23.0434L146.245 21.1066C146.201 21.0103 146.109 20.9428 145.997 20.9283C145.914 20.9187 145.837 20.9428 145.773 20.9958C145.754 21.0103 145.734 21.0295 145.72 21.0536L144.465 22.7736C144.402 22.8603 144.392 22.976 144.436 23.0723C144.485 23.1783 144.577 23.2458 144.684 23.2554Z" fill="#7F48C3"/>
<path d="M111.603 58.5791L113.733 58.7911C113.84 58.8008 113.947 58.7574 114.01 58.6659C114.073 58.5791 114.083 58.4635 114.039 58.3672L113.164 56.4303C113.12 56.334 113.028 56.2665 112.916 56.2521C112.833 56.2424 112.755 56.2665 112.692 56.3195C112.673 56.334 112.653 56.3533 112.639 56.3773L111.384 58.0974C111.321 58.1841 111.311 58.2997 111.355 58.3961C111.404 58.5021 111.496 58.5695 111.603 58.5791Z" fill="#7F48C3"/>
<path d="M-2.38627 31.6651L-0.256327 31.8771C-0.149343 31.8867 -0.0423622 31.8434 0.0208553 31.7518C0.0840728 31.6651 0.0938034 31.5495 0.0500374 31.4531L-0.825282 29.5163C-0.869048 29.4199 -0.961448 29.3525 -1.07329 29.338C-1.15596 29.3284 -1.23376 29.3525 -1.29698 29.4055C-1.31643 29.4199 -1.33589 29.4392 -1.35048 29.4633L-2.6051 31.1833C-2.66832 31.27 -2.67804 31.3857 -2.63427 31.482C-2.58564 31.588 -2.49326 31.6555 -2.38627 31.6651Z" fill="#7F48C3"/>
<path d="M40.9155 5.10803C41.1369 5.01817 41.3726 5.20262 41.339 5.43438L41.031 7.57216L40.7231 9.70994C40.6894 9.94169 40.4104 10.0552 40.2227 9.90858L38.4954 8.57956L36.7681 7.25054C36.5805 7.10393 36.619 6.81542 36.8451 6.72556L38.8803 5.92152L40.9155 5.10803Z" fill="#FF3612"/>
<path d="M77.915 76.8602L79.971 77.8849L82.0221 78.9143L80.0865 80.1363L78.151 81.3584L78.0306 79.107L77.915 76.8602Z" fill="#FFAC39"/>
<path d="M126.025 74.5134L128.077 75.5381L130.132 76.5675L128.197 77.7895L126.256 79.0116L126.141 76.7602L126.025 74.5134Z" fill="#EF7807"/>
<path d="M5.16127 45.2009C5.16127 45.6321 4.81024 45.9832 4.37897 45.9832C3.94771 45.9832 3.59668 45.6321 3.59668 45.2009C3.59668 44.7696 3.94771 44.4186 4.37897 44.4186C4.81525 44.4186 5.16127 44.7696 5.16127 45.2009Z" fill="#FF3612"/>
<path d="M119.486 46.243C119.486 46.6743 119.134 47.0253 118.703 47.0253C118.272 47.0253 117.921 46.6743 117.921 46.243C117.921 45.8117 118.272 45.4607 118.703 45.4607C119.139 45.4607 119.486 45.8117 119.486 46.243Z" fill="#FF3612"/>
<path d="M147.539 48.8933C147.539 49.3245 147.188 49.6755 146.757 49.6755C146.326 49.6755 145.975 49.3245 145.975 48.8933C145.975 48.462 146.326 48.111 146.757 48.111C147.188 48.111 147.539 48.462 147.539 48.8933Z" fill="#FF3612"/>
<path d="M91.6046 79.2071C91.6046 79.6384 91.2536 79.9894 90.8223 79.9894C90.3911 79.9894 90.04 79.6384 90.04 79.2071C90.04 78.7758 90.3911 78.4248 90.8223 78.4248C91.2536 78.4248 91.6046 78.7758 91.6046 79.2071Z" fill="#FF3612"/>
<path d="M100.014 4.30254C100.014 4.62749 99.7525 4.88926 99.4275 4.88926C99.1026 4.88926 98.8408 4.62749 98.8408 4.30254C98.8408 3.97759 99.1026 3.71582 99.4275 3.71582C99.7525 3.71582 100.014 3.97759 100.014 4.30254Z" fill="#FF3612"/>
<path d="M107.642 5.86711C107.642 6.19207 107.38 6.45383 107.055 6.45383C106.731 6.45383 106.469 6.19207 106.469 5.86711C106.469 5.54216 106.731 5.2804 107.055 5.2804C107.38 5.2804 107.642 5.54216 107.642 5.86711Z" fill="#78A941"/>
<path d="M16.3087 21.7086C16.3087 22.1398 15.9577 22.4909 15.5264 22.4909C15.0952 22.4909 14.7441 22.1398 14.7441 21.7086C14.7441 21.2773 15.0952 20.9263 15.5264 20.9263C15.9627 20.9313 16.3087 21.2773 16.3087 21.7086Z" fill="#FFAC39"/>
<path d="M130.633 22.7507C130.633 23.1819 130.282 23.533 129.851 23.533C129.419 23.533 129.068 23.1819 129.068 22.7507C129.068 22.3194 129.419 21.9684 129.851 21.9684C130.287 21.9734 130.633 22.3194 130.633 22.7507Z" fill="#FFAC39"/>
<path d="M145.583 12.7122C145.583 13.1435 145.232 13.4945 144.801 13.4945C144.37 13.4945 144.019 13.1435 144.019 12.7122C144.019 12.281 144.37 11.9299 144.801 11.9299C145.232 11.9299 145.583 12.281 145.583 12.7122Z" fill="#FFAC39"/>
<path d="M20.221 39.6036C20.221 39.8715 20.0048 40.0925 19.7321 40.0925C19.4641 40.0925 19.2432 39.8762 19.2432 39.6036C19.2432 39.3356 19.4594 39.1146 19.7321 39.1146C20.0001 39.1146 20.221 39.3309 20.221 39.6036Z" fill="#7F48C3"/>
<path d="M115.661 2.73796C115.661 3.06292 115.399 3.32468 115.074 3.32468C114.749 3.32468 114.487 3.06292 114.487 2.73796C114.487 2.41301 114.749 2.15125 115.074 2.15125C115.399 2.15125 115.661 2.41301 115.661 2.73796Z" fill="#FFAC39"/>
<path d="M37.0401 79.9894C37.0401 80.2051 36.8646 80.3806 36.649 80.3806C36.4333 80.3806 36.2578 80.2051 36.2578 79.9894C36.2578 79.7738 36.4333 79.5983 36.649 79.5983C36.8646 79.5983 37.0401 79.7738 37.0401 79.9894Z" fill="#65E2CB"/>
<path d="M102.165 79.8917C102.165 80.3752 101.774 80.7718 101.285 80.7718C100.802 80.7718 100.405 80.3801 100.405 79.8917C100.405 79.4081 100.797 79.0116 101.285 79.0116C101.774 79.0116 102.165 79.4033 102.165 79.8917Z" fill="#34A5CF"/>
<path d="M16.8961 32.2696C16.8961 32.5945 16.6343 32.8563 16.3094 32.8563C15.9844 32.8563 15.7227 32.5945 15.7227 32.2696C15.7227 31.9446 15.9844 31.6829 16.3094 31.6829C16.6343 31.6829 16.8961 31.9491 16.8961 32.2696Z" fill="#65E2CB"/>
<path d="M137.278 40.263C137.278 40.5879 137.016 40.8497 136.691 40.8497C136.366 40.8497 136.104 40.5879 136.104 40.263C136.104 39.938 136.366 39.6763 136.691 39.6763C137.016 39.6763 137.278 39.9426 137.278 40.263Z" fill="#65E2CB"/>
<path d="M147.343 68.4506C147.343 68.7756 147.082 69.0373 146.757 69.0373C146.432 69.0373 146.17 68.7756 146.17 68.4506C146.17 68.1257 146.432 67.8639 146.757 67.8639C147.082 67.8639 147.343 68.1257 147.343 68.4506Z" fill="#65E2CB"/>
<path d="M4.77623 63.9508L5.65752 65.4176L6.53399 66.8844H4.77623H3.01367L3.89495 65.4176L4.77623 63.9508Z" fill="#4B78C6"/>
<path d="M6.14219 75.4897C6.14219 75.8146 5.88042 76.0764 5.55547 76.0764C5.23052 76.0764 4.96875 75.8146 4.96875 75.4897C4.96875 75.1647 5.23052 74.903 5.55547 74.903C5.88042 74.903 6.14219 75.1647 6.14219 75.4897Z" fill="#65E2CB"/>
<path d="M147.343 30.9006C147.343 31.2255 147.082 31.4873 146.757 31.4873C146.432 31.4873 146.17 31.2255 146.17 30.9006C146.17 30.5756 146.432 30.3138 146.757 30.3138C147.082 30.3138 147.343 30.5756 147.343 30.9006Z" fill="#65E2CB"/>
<path d="M54.6419 80.2828C54.6419 80.5507 54.4257 80.7717 54.153 80.7717C53.885 80.7717 53.6641 80.5554 53.6641 80.2828C53.6641 80.0148 53.8803 79.7938 54.153 79.7938C54.4257 79.7938 54.6419 80.0101 54.6419 80.2828Z" fill="#65E2CB"/>
<path d="M48.2858 73.3399C48.5558 73.3399 48.7747 73.121 48.7747 72.851C48.7747 72.581 48.5558 72.3621 48.2858 72.3621C48.0158 72.3621 47.7969 72.581 47.7969 72.851C47.7969 73.121 48.0158 73.3399 48.2858 73.3399Z" fill="#FF9090"/>
<path d="M4.57461 28.0648C4.57461 28.5483 4.18293 28.9448 3.69453 28.9448C3.20614 28.9448 2.81445 28.5532 2.81445 28.0648C2.81445 27.5764 3.20614 27.1847 3.69453 27.1847C4.18293 27.1847 4.57461 27.5764 4.57461 28.0648Z" fill="#FF3612"/>
<path d="M118.899 29.1068C118.899 29.5903 118.507 29.9868 118.019 29.9868C117.53 29.9868 117.139 29.5952 117.139 29.1068C117.139 28.6184 117.53 28.2267 118.019 28.2267C118.507 28.2267 118.899 28.6184 118.899 29.1068Z" fill="#FF3612"/>
<path d="M7.5084 19.3617C7.5084 19.6867 7.24663 19.9485 6.92168 19.9485C6.59673 19.9485 6.33496 19.6867 6.33496 19.3617C6.33496 19.0368 6.59673 18.775 6.92168 18.775C7.24663 18.775 7.5084 19.0368 7.5084 19.3617Z" fill="#65E2CB"/>
<path d="M121.833 20.4039C121.833 20.7288 121.571 20.9906 121.246 20.9906C120.921 20.9906 120.659 20.7288 120.659 20.4039C120.659 20.0789 120.921 19.8171 121.246 19.8171C121.571 19.8171 121.833 20.0789 121.833 20.4039Z" fill="#65E2CB"/>
<path d="M11.6156 27.8692C11.6156 28.1372 11.3993 28.3581 11.1266 28.3581C10.8587 28.3581 10.6377 28.1419 10.6377 27.8692C10.6377 27.6012 10.854 27.3802 11.1266 27.3802C11.3993 27.3802 11.6156 27.6012 11.6156 27.8692Z" fill="#FF9090"/>
<path d="M139.426 64.6072C139.426 64.8752 139.21 65.0962 138.937 65.0962C138.669 65.0962 138.448 64.8799 138.448 64.6072C138.448 64.3392 138.664 64.1183 138.937 64.1183C139.21 64.1183 139.426 64.3392 139.426 64.6072Z" fill="#FF9090"/>
<path d="M113.813 68.1228C113.813 68.3908 113.597 68.6118 113.324 68.6118C113.056 68.6118 112.835 68.3955 112.835 68.1228C112.835 67.8549 113.051 67.6339 113.324 67.6339C113.597 67.6339 113.813 67.8549 113.813 68.1228Z" fill="#FF9090"/>
<path d="M11.6156 39.6036C11.6156 39.8715 11.3993 40.0925 11.1266 40.0925C10.8587 40.0925 10.6377 39.8762 10.6377 39.6036C10.6377 39.3356 10.854 39.1146 11.1266 39.1146C11.3946 39.1146 11.6156 39.3309 11.6156 39.6036Z" fill="#FF9090"/>
<path d="M135.409 73.4957C135.409 73.7636 135.192 73.9846 134.92 73.9846C134.652 73.9846 134.431 73.7683 134.431 73.4957C134.431 73.2277 134.647 73.0067 134.92 73.0067C135.188 73.0067 135.409 73.223 135.409 73.4957Z" fill="#FF9090"/>
<path d="M125.94 40.6457C125.94 40.9137 125.724 41.1346 125.451 41.1346C125.183 41.1346 124.962 40.9184 124.962 40.6457C124.962 40.3777 125.178 40.1567 125.451 40.1567C125.719 40.1567 125.94 40.373 125.94 40.6457Z" fill="#FF9090"/>
<path d="M85.7376 75.3935C85.7376 75.6614 85.5214 75.8824 85.2487 75.8824C84.9807 75.8824 84.7598 75.6661 84.7598 75.3935C84.7598 75.1255 84.976 74.9045 85.2487 74.9045C85.5167 74.9045 85.7376 75.1208 85.7376 75.3935Z" fill="#FF3612"/>
<path d="M72.6344 76.0779C72.6344 76.4029 72.3726 76.6647 72.0477 76.6647C71.7227 76.6647 71.4609 76.4029 71.4609 76.0779C71.4609 75.753 71.7227 75.4912 72.0477 75.4912C72.3726 75.4912 72.6344 75.753 72.6344 76.0779Z" fill="#65E2CB"/>
<path d="M66.7669 80.4783C66.7669 80.7463 66.5507 80.9672 66.278 80.9672C66.01 80.9672 65.7891 80.751 65.7891 80.4783C65.7891 80.2103 66.0053 79.9894 66.278 79.9894C66.5507 79.9894 66.7669 80.2103 66.7669 80.4783Z" fill="#FF9090"/>
<path d="M122.115 79.8917C122.115 80.1596 121.898 80.3806 121.626 80.3806C121.358 80.3806 121.137 80.1643 121.137 79.8917C121.137 79.6237 121.353 79.4027 121.626 79.4027C121.898 79.4074 122.115 79.6237 122.115 79.8917Z" fill="#65E2CB"/>
<path d="M118.202 75.3935C118.202 75.6614 117.986 75.8824 117.714 75.8824C117.446 75.8824 117.225 75.6661 117.225 75.3935C117.225 75.1255 117.441 74.9045 117.714 74.9045C117.981 74.9045 118.202 75.1208 118.202 75.3935Z" fill="#FF3612"/>
<path d="M107.642 75.2957C107.642 75.6207 107.38 75.8824 107.055 75.8824C106.731 75.8824 106.469 75.6207 106.469 75.2957C106.469 74.9708 106.731 74.709 107.055 74.709C107.38 74.709 107.642 74.9708 107.642 75.2957Z" fill="#65E2CB"/>
<path d="M54.8375 8.80071C54.8375 9.12566 54.5757 9.38743 54.2508 9.38743C53.9258 9.38743 53.6641 9.12566 53.6641 8.80071C53.6641 8.47576 53.9258 8.21399 54.2508 8.21399C54.5757 8.21399 54.8375 8.47576 54.8375 8.80071Z" fill="#FF3612"/>
<path d="M68.1363 8.80071C68.1363 9.12566 67.8746 9.38743 67.5496 9.38743C67.2247 9.38743 66.9629 9.12566 66.9629 8.80071C66.9629 8.47576 67.2247 8.21399 67.5496 8.21399C67.8746 8.21399 68.1363 8.47576 68.1363 8.80071Z" fill="#FF3612"/>
<path d="M80.2613 7.23613C80.2613 7.56109 79.9996 7.82285 79.6746 7.82285C79.3497 7.82285 79.0879 7.56109 79.0879 7.23613C79.0879 6.91118 79.3497 6.64941 79.6746 6.64941C79.9996 6.64941 80.2613 6.91118 80.2613 7.23613Z" fill="#EF7807"/>
<path d="M49.9476 3.61808C49.9476 3.88606 49.7313 4.10702 49.4587 4.10702C49.1907 4.10702 48.9697 3.89076 48.9697 3.61808C48.9697 3.35011 49.186 3.12915 49.4587 3.12915C49.7313 3.12915 49.9476 3.34541 49.9476 3.61808Z" fill="#FFAC39"/>
<path d="M72.4391 3.71587C72.4391 4.04082 72.1773 4.30259 71.8523 4.30259C71.5274 4.30259 71.2656 4.04082 71.2656 3.71587C71.2656 3.39092 71.5274 3.12915 71.8523 3.12915C72.1773 3.12915 72.4391 3.39092 72.4391 3.71587Z" fill="#65E2CB"/>
<path d="M132.871 79.9894C132.871 80.3144 132.609 80.5762 132.284 80.5762C131.959 80.5762 131.697 80.3144 131.697 79.9894C131.697 79.6645 131.959 79.4027 132.284 79.4027C132.609 79.4027 132.871 79.6645 132.871 79.9894Z" fill="#D93E4F"/>
<path d="M89.0619 5.85724L88.8785 3.27485C88.8691 3.14596 88.7891 3.02628 88.6668 2.97104C88.5446 2.9112 88.4035 2.92501 88.2906 2.99866L86.0991 4.44866C85.9863 4.52232 85.9251 4.6466 85.9345 4.78009C85.9392 4.87676 85.9863 4.96882 86.0615 5.03327C86.085 5.05629 86.1132 5.07009 86.1415 5.0839L88.5211 6.22089C88.6433 6.28073 88.7844 6.26692 88.8973 6.19327C89.0054 6.11502 89.0713 5.99073 89.0619 5.85724Z" fill="#7F48C3"/>
<path d="M57.1836 73.9266L59.8215 74.3619L62.4641 74.7972L60.776 76.902L59.088 79.0115L58.1334 76.4715L57.1836 73.9266Z" fill="#D93E4F"/>
<path d="M5.1299 50.0819L5.94133 47.5379C5.98237 47.4107 5.95331 47.2673 5.86202 47.1651C5.77073 47.0628 5.63548 47.0212 5.50302 47.0509L2.91579 47.6132C2.78333 47.6429 2.67727 47.7399 2.63622 47.867C2.60535 47.966 2.61676 48.0661 2.66132 48.1576C2.67465 48.1864 2.69268 48.2154 2.71553 48.2398L4.49134 50.2215C4.58263 50.3238 4.71787 50.3654 4.85033 50.3357C4.98279 50.306 5.08885 50.2091 5.1299 50.0819Z" fill="#FF9090"/>
<path d="M2.36133 16.6237L3.44095 14.5961L4.52513 12.5734L5.69468 14.5411L6.86423 16.5089L4.61037 16.5686L2.36133 16.6237Z" fill="#FFAC39"/>
<path d="M116.686 17.6658L117.765 15.6382L118.849 13.6155L120.019 15.5832L121.188 17.551L118.935 17.6107L116.686 17.6658Z" fill="#FFAC39"/>
<path d="M0.992188 79.0116L2.07181 76.984L3.15599 74.9613L4.32554 76.9291L5.49509 78.8968L3.24123 78.9565L0.992188 79.0116Z" fill="#FFAC39"/>
<path d="M5.14051 3.15076C5.57162 3.16236 5.91308 3.52271 5.90148 3.95382C5.88987 4.38493 5.52952 4.72638 5.09841 4.71478C4.66731 4.70317 4.32585 4.34282 4.33746 3.91172C4.34906 3.48061 4.70941 3.13915 5.14051 3.15076Z" fill="#FF3612"/>
<path d="M4.65662 58.1331C5.14001 58.1461 5.52584 58.5483 5.5127 59.0365C5.49969 59.5199 5.09748 59.9057 4.60926 59.8926C4.12587 59.8796 3.74003 59.4774 3.75317 58.9891C3.76632 58.5009 4.1684 58.1199 4.65662 58.1331Z" fill="#34A5CF"/>
<path fill-rule="evenodd" clip-rule="evenodd" d="M73.7462 19.6988C73.796 19.6449 73.88 19.6416 73.9338 19.6914C73.9643 19.7196 73.9927 19.7491 74.018 19.7755L74.0192 19.7767C74.0457 19.8043 74.0691 19.8286 74.0934 19.851C74.1473 19.9008 74.1506 19.9848 74.1008 20.0386C74.051 20.0924 73.967 20.0957 73.9132 20.046C73.8827 20.0178 73.8543 19.9883 73.829 19.9619L73.8278 19.9607C73.8013 19.9331 73.7779 19.9088 73.7536 19.8864C73.6997 19.8366 73.6964 19.7526 73.7462 19.6988Z" fill="#3F2732"/>
<path fill-rule="evenodd" clip-rule="evenodd" d="M20.4025 7.19626C20.4041 7.26956 20.346 7.33027 20.2727 7.33187C20.1375 7.33482 19.9937 7.35252 19.8411 7.38775C19.6269 7.43718 19.4833 7.545 19.3904 7.69459C19.3517 7.75686 19.2698 7.77596 19.2075 7.73726C19.1453 7.69856 19.1262 7.61671 19.1649 7.55444C19.2975 7.34111 19.5027 7.19335 19.7814 7.12905C19.9507 7.08998 20.1125 7.0698 20.2669 7.06644C20.3402 7.06484 20.4009 7.12297 20.4025 7.19626ZM24.4275 7.12628C24.6636 7.10324 24.8744 7.11538 25.0591 7.16156C25.1302 7.17934 25.1734 7.25142 25.1556 7.32254C25.1378 7.39367 25.0658 7.43691 24.9946 7.41912C24.8453 7.38177 24.6658 7.36978 24.4532 7.39052C24.2221 7.41307 24.008 7.49196 23.8118 7.60981C23.7489 7.64755 23.6674 7.6272 23.6296 7.56435C23.5919 7.5015 23.6122 7.41995 23.6751 7.3822C23.8999 7.24722 24.1514 7.15321 24.4275 7.12628ZM21.0444 7.3445C21.0786 7.2797 21.159 7.25496 21.2238 7.28925C21.5229 7.44749 21.7671 7.67515 21.962 7.92551C22.0071 7.98335 21.9967 8.06676 21.9388 8.1118C21.881 8.15685 21.7976 8.14647 21.7525 8.08862C21.5752 7.86085 21.3585 7.66087 21.0996 7.52392C21.0348 7.48963 21.0101 7.40931 21.0444 7.3445ZM25.7485 7.97522C25.8204 7.96074 25.8904 8.00725 25.9049 8.07912C25.9759 8.43109 25.9397 8.85207 25.8164 9.30416C25.7971 9.37489 25.7241 9.4166 25.6534 9.39731C25.5826 9.37802 25.5409 9.30504 25.5602 9.23431C25.677 8.80609 25.7047 8.42938 25.6446 8.13158C25.6302 8.05972 25.6767 7.98971 25.7485 7.97522ZM22.8151 8.46284C22.8787 8.49929 22.9007 8.58041 22.8643 8.64402C22.7283 8.88135 22.6299 9.11152 22.5715 9.29415C22.5532 9.35118 22.4991 9.38894 22.4392 9.38632C22.3794 9.38369 22.3288 9.34134 22.3156 9.28293C22.2872 9.15752 22.244 9.01301 22.1844 8.86034C22.1578 8.79203 22.1916 8.71507 22.2599 8.68844C22.3282 8.66181 22.4052 8.6956 22.4318 8.76391C22.4425 8.79136 22.4527 8.8186 22.4625 8.84558C22.5117 8.73791 22.5689 8.6255 22.6339 8.51201C22.6704 8.4484 22.7515 8.42639 22.8151 8.46284ZM29.8565 8.6132C29.8587 8.53992 29.9198 8.48225 29.9931 8.4844C30.363 8.49524 30.7431 8.55092 31.131 8.6434C31.2023 8.6604 31.2463 8.732 31.2293 8.80331C31.2123 8.87463 31.1407 8.91866 31.0694 8.90166C30.696 8.81263 30.3341 8.76001 29.9853 8.74979C29.9121 8.74764 29.8544 8.68649 29.8565 8.6132ZM29.0058 8.70687C29.0251 8.77758 28.9835 8.8506 28.9128 8.86998C28.7501 8.91456 28.5911 8.9719 28.4359 9.04289C28.3236 9.18571 28.1988 9.34026 28.0635 9.50321C28.0167 9.55962 27.933 9.56739 27.8766 9.52056C27.8202 9.47374 27.8124 9.39004 27.8592 9.33363C28.001 9.16287 28.1309 9.00166 28.2466 8.85398C28.2594 8.83763 28.2759 8.82451 28.2947 8.81569C28.4729 8.73202 28.6557 8.66515 28.8426 8.61393C28.9133 8.59455 28.9864 8.63616 29.0058 8.70687ZM19.156 8.78987C19.2277 8.77486 19.2981 8.82087 19.3131 8.89263C19.3924 9.27193 19.539 9.69197 19.7348 10.1198C19.7653 10.1865 19.7359 10.2653 19.6693 10.2958C19.6026 10.3263 19.5238 10.2969 19.4933 10.2303C19.2917 9.78952 19.1376 9.35037 19.0532 8.94698C19.0382 8.87522 19.0842 8.80488 19.156 8.78987ZM32.0461 9.06163C32.0723 8.99317 32.1491 8.95894 32.2175 8.98518C32.5595 9.11627 32.9065 9.26927 33.2571 9.4396C33.323 9.47164 33.3505 9.55108 33.3185 9.61702C33.2864 9.68296 33.207 9.71044 33.1411 9.6784C32.7961 9.5108 32.4562 9.361 32.1225 9.23309C32.054 9.20685 32.0198 9.13008 32.0461 9.06163ZM34.0785 10.0161C34.1143 9.9521 34.1952 9.92921 34.2592 9.96498C34.5818 10.1453 34.9066 10.3365 35.2327 10.5354C35.2953 10.5736 35.3151 10.6552 35.277 10.7178C35.2388 10.7804 35.1571 10.8002 35.0945 10.7621C34.7707 10.5646 34.4488 10.3751 34.1296 10.1967C34.0656 10.161 34.0428 10.0801 34.0785 10.0161ZM27.2361 10.2562C27.2903 10.3055 27.2942 10.3895 27.2448 10.4437C26.9728 10.7421 26.6823 11.0473 26.3821 11.3448C26.3301 11.3964 26.246 11.396 26.1944 11.344C26.1428 11.2919 26.1432 11.2078 26.1952 11.1562C26.4918 10.8623 26.7792 10.5603 27.0486 10.2648C27.098 10.2106 27.182 10.2068 27.2361 10.2562ZM25.3131 10.2394C25.3782 10.2731 25.4036 10.3533 25.3698 10.4183C25.1959 10.7533 24.9845 11.095 24.7386 11.4331C24.6955 11.4924 24.6125 11.5056 24.5532 11.4625C24.4939 11.4194 24.4807 11.3363 24.5238 11.277C24.7624 10.9489 24.9667 10.6185 25.1342 10.296C25.1679 10.2309 25.2481 10.2056 25.3131 10.2394ZM36.0029 11.1739C36.0426 11.1122 36.1247 11.0943 36.1864 11.134C36.5003 11.3358 36.8147 11.5419 37.1286 11.7493C37.1897 11.7897 37.2066 11.872 37.1661 11.9332C37.1257 11.9944 37.0434 12.0112 36.9822 11.9708C36.6688 11.7637 36.3555 11.5583 36.0428 11.3573C35.9811 11.3177 35.9633 11.2355 36.0029 11.1739ZM52.778 11.2572C52.8173 11.1953 52.8994 11.1771 52.9612 11.2165C53.1105 11.3116 53.2052 11.4761 53.242 11.7049C53.2778 11.9281 53.2453 12.1466 53.1646 12.3554C53.1382 12.4238 53.0613 12.4578 52.9929 12.4314C52.9246 12.405 52.8905 12.3281 52.917 12.2597C52.9836 12.0873 53.0071 11.9166 52.9798 11.747C52.9513 11.569 52.8859 11.4833 52.8186 11.4404C52.7568 11.4011 52.7386 11.319 52.778 11.2572ZM20.1829 11.2265C20.2444 11.1867 20.3266 11.2042 20.3665 11.2657C20.6112 11.6432 20.8804 11.9985 21.1582 12.3058C21.2074 12.3601 21.2031 12.4441 21.1487 12.4933C21.0943 12.5424 21.0104 12.5382 20.9612 12.4838C20.6728 12.1648 20.3951 11.798 20.1437 11.4101C20.1038 11.3486 20.1214 11.2664 20.1829 11.2265ZM52.1149 11.3792C52.1471 11.4451 52.1197 11.5246 52.0538 11.5567C51.9013 11.631 51.7629 11.7163 51.6649 11.7824L51.6649 11.7824C51.4915 11.8993 51.3335 12.0196 51.1902 12.1426C51.1346 12.1904 51.0508 12.184 51.003 12.1284C50.9553 12.0728 50.9617 11.9889 51.0173 11.9412C51.1688 11.8111 51.3351 11.6845 51.5165 11.5623M25.48 12.0084C25.5278 12.064 25.5216 12.1478 25.4661 12.1956C25.1332 12.4825 24.7983 12.7448 24.4724 12.964C24.4116 13.0049 24.3291 12.9888 24.2882 12.928C24.2472 12.8671 24.2634 12.7846 24.3242 12.7437C24.6392 12.5319 24.9656 12.2765 25.2928 11.9945C25.3483 11.9467 25.4321 11.9529 25.48 12.0084ZM23.9699 12.1624C24.023 12.2128 24.0253 12.2969 23.9748 12.3501C23.7074 12.6319 23.4157 12.9043 23.1016 13.1605C23.0448 13.2069 22.9612 13.1984 22.9148 13.1416C22.8685 13.0848 22.877 13.0012 22.9338 12.9548C23.2389 12.7059 23.5224 12.4412 23.7822 12.1673C23.8326 12.1141 23.9167 12.1119 23.9699 12.1624ZM37.8809 12.4077C37.9214 12.3466 38.0038 12.33 38.0649 12.3706C38.3788 12.579 38.6913 12.7859 39.0017 12.9886C39.0631 13.0286 39.0804 13.1109 39.0403 13.1723C39.0003 13.2337 38.918 13.251 38.8566 13.2109C38.5452 13.0076 38.232 12.8003 37.918 12.5917C37.8569 12.5512 37.8403 12.4688 37.8809 12.4077ZM50.3785 12.8498C50.4416 12.8872 50.4624 12.9686 50.425 13.0317C50.2105 13.3936 50.0978 13.7631 50.0753 14.1258C50.0707 14.1989 50.0077 14.2546 49.9345 14.25C49.8614 14.2455 49.8057 14.1825 49.8103 14.1093C49.8356 13.7019 49.9621 13.292 50.1967 12.8963C50.234 12.8333 50.3155 12.8124 50.3785 12.8498ZM52.4262 13.1532C52.4751 13.2078 52.4704 13.2918 52.4158 13.3407C52.1242 13.6016 51.7841 13.8427 51.4434 14.0565C51.3813 14.0955 51.2994 14.0768 51.2604 14.0147C51.2214 13.9526 51.2402 13.8706 51.3023 13.8317C51.6352 13.6227 51.962 13.3905 52.2387 13.1428C52.2933 13.0939 52.3773 13.0986 52.4262 13.1532ZM21.9519 13.1881C21.9888 13.1248 22.0701 13.1034 22.1334 13.1403C22.3365 13.2586 22.5275 13.3303 22.7009 13.352C22.8632 13.3723 23.0497 13.3504 23.2582 13.2878C23.3284 13.2667 23.4024 13.3065 23.4235 13.3767C23.4446 13.447 23.4048 13.521 23.3346 13.5421C23.1024 13.6118 22.8774 13.6416 22.668 13.6154C22.4486 13.588 22.2231 13.4998 21.9998 13.3697C21.9364 13.3327 21.915 13.2515 21.9519 13.1881ZM39.7632 13.6355C39.802 13.5734 39.884 13.5545 39.9461 13.5933C40.2693 13.7954 40.589 13.9893 40.9042 14.1717C40.9677 14.2084 40.9894 14.2896 40.9526 14.3531C40.9159 14.4165 40.8347 14.4382 40.7713 14.4015C40.4528 14.2173 40.1305 14.0218 39.8054 13.8185C39.7432 13.7796 39.7243 13.6977 39.7632 13.6355ZM22.173 13.6695C22.2114 13.732 22.1918 13.8137 22.1294 13.8521C21.7944 14.0579 21.4411 14.2436 21.0709 14.4034C21.0036 14.4324 20.9255 14.4014 20.8965 14.3341C20.8674 14.2668 20.8984 14.1887 20.9657 14.1596C21.3236 14.0051 21.6657 13.8254 21.9904 13.6259C22.0529 13.5875 22.1346 13.607 22.173 13.6695ZM50.4576 14.4649C50.491 14.5302 50.4651 14.6102 50.3998 14.6435C50.1933 14.7491 50.0097 14.838 49.8657 14.9073C49.6566 15.0086 49.4445 15.103 49.2299 15.1903C49.1619 15.2179 49.0845 15.1852 49.0569 15.1173C49.0293 15.0494 49.062 14.9719 49.1299 14.9443C49.3392 14.8592 49.5461 14.7671 49.7502 14.6683L49.7505 14.6681C49.894 14.599 50.0754 14.5112 50.279 14.4071C50.3443 14.3738 50.4243 14.3996 50.4576 14.4649ZM20.0358 14.6302C20.0542 14.7012 20.0115 14.7736 19.9405 14.792C19.7488 14.8416 19.5536 14.884 19.3552 14.9185C19.1423 14.9556 18.9383 14.9913 18.7428 15.0257C18.6706 15.0384 18.6018 14.9902 18.5891 14.918C18.5764 14.8458 18.6246 14.7769 18.6968 14.7642C18.8924 14.7298 19.0966 14.6941 19.3096 14.657C19.5009 14.6236 19.6891 14.5828 19.8741 14.535C19.945 14.5166 20.0175 14.5593 20.0358 14.6302ZM41.7057 14.764C41.7389 14.6986 41.8188 14.6725 41.8842 14.7056C42.2292 14.8805 42.5667 15.0358 42.8953 15.1668C42.9634 15.194 42.9966 15.2712 42.9694 15.3393C42.9423 15.4074 42.865 15.4406 42.7969 15.4134C42.4596 15.2789 42.1148 15.1201 41.7642 14.9425C41.6988 14.9093 41.6726 14.8294 41.7057 14.764ZM17.6321 15.0884C17.6452 15.1606 17.5973 15.2296 17.5251 15.2426C17.0532 15.3279 16.6506 15.4023 16.3085 15.4671C16.2365 15.4807 16.167 15.4334 16.1534 15.3613C16.1398 15.2893 16.1871 15.2198 16.2591 15.2062C16.6021 15.1413 17.0054 15.0668 17.4779 14.9814C17.55 14.9683 17.6191 15.0163 17.6321 15.0884ZM50.12 15.1837C50.1864 15.1526 50.2655 15.1811 50.2966 15.2475C50.4523 15.579 50.6868 15.8941 50.9942 16.1781C51.0481 16.2278 51.0514 16.3118 51.0017 16.3657C50.9519 16.4195 50.8679 16.4229 50.8141 16.3731C50.4844 16.0685 50.2281 15.7262 50.0563 15.3603C50.0251 15.2939 50.0537 15.2149 50.12 15.1837ZM48.0034 15.4653C48.0216 15.5363 47.9788 15.6086 47.9077 15.6268C47.4573 15.7421 46.9993 15.8259 46.537 15.8758C46.4641 15.8837 46.3986 15.831 46.3907 15.7581C46.3829 15.6852 46.4356 15.6197 46.5085 15.6118C46.9579 15.5633 47.4034 15.4819 47.8419 15.3696C47.9129 15.3514 47.9852 15.3943 48.0034 15.4653ZM15.1982 15.5503C15.2136 15.622 15.168 15.6926 15.0963 15.708C14.8719 15.7562 14.7305 15.7903 14.6496 15.8131C14.6253 15.8451 14.5869 15.8658 14.5437 15.8658C14.5301 15.8658 14.5086 15.8654 14.4877 15.8608L14.4875 15.8607C14.4801 15.8591 14.4518 15.8529 14.4252 15.8308C14.4094 15.8177 14.3884 15.7941 14.3798 15.7582C14.3708 15.7211 14.3791 15.6887 14.3898 15.6669C14.4068 15.632 14.4343 15.614 14.4409 15.6096L14.4412 15.6094C14.4522 15.6022 14.463 15.597 14.471 15.5934C14.4874 15.586 14.507 15.579 14.5279 15.5724C14.6111 15.5459 14.7725 15.506 15.0406 15.4484C15.1123 15.433 15.1828 15.4786 15.1982 15.5503ZM14.5793 15.8358C14.5793 15.8358 14.5794 15.8357 14.5797 15.8356C14.5794 15.8357 14.5793 15.8358 14.5793 15.8358ZM43.7844 15.6037C43.8011 15.5323 43.8726 15.4881 43.9439 15.5048C44.1268 15.5478 44.3056 15.5802 44.48 15.6013C44.7051 15.6284 44.9302 15.6467 45.155 15.6563C45.2283 15.6595 45.2851 15.7214 45.282 15.7946C45.2788 15.8679 45.2169 15.9247 45.1437 15.9216C44.912 15.9117 44.6801 15.8928 44.4482 15.8649L44.4482 15.8649C44.263 15.8425 44.0746 15.8082 43.8832 15.7633C43.8119 15.7465 43.7676 15.6751 43.7844 15.6037ZM51.7912 16.903C51.8242 16.8376 51.9041 16.8113 51.9695 16.8443C52.1415 16.9311 52.324 17.0107 52.5165 17.0821C52.7066 17.1524 52.8981 17.2163 53.0909 17.274C53.1611 17.295 53.201 17.369 53.1799 17.4393C53.1589 17.5095 53.0849 17.5494 53.0147 17.5283C52.8167 17.469 52.6198 17.4034 52.4243 17.3311L52.4243 17.331C52.2227 17.2563 52.031 17.1728 51.8499 17.0814C51.7845 17.0483 51.7582 16.9685 51.7912 16.903ZM66.2641 17.1511C66.2646 17.0778 66.3244 17.0187 66.3977 17.0192C66.8072 17.0219 67.2144 17.0372 67.6183 17.0684C67.6914 17.074 67.7461 17.1379 67.7405 17.211C67.7348 17.2841 67.671 17.3387 67.5979 17.3331C67.2009 17.3024 66.8 17.2873 66.396 17.2847C66.3227 17.2842 66.2636 17.2244 66.2641 17.1511ZM65.3171 17.1716C65.3205 17.2449 65.2639 17.307 65.1907 17.3104C64.7906 17.329 64.3887 17.3566 63.9858 17.3903C63.9127 17.3964 63.8485 17.3422 63.8424 17.2691C63.8363 17.1961 63.8906 17.1319 63.9636 17.1258C64.3691 17.0918 64.7744 17.064 65.1784 17.0452C65.2516 17.0418 65.3137 17.0984 65.3171 17.1716ZM68.6805 17.324C68.6926 17.2517 68.7611 17.203 68.8334 17.2151C69.2373 17.283 69.6367 17.3707 70.0304 17.4818C70.101 17.5017 70.142 17.5751 70.1221 17.6456C70.1022 17.7162 70.0289 17.7572 69.9583 17.7373C69.5746 17.6291 69.1846 17.5434 68.7894 17.4769C68.7171 17.4648 68.6683 17.3963 68.6805 17.324ZM62.8997 17.3602C62.9075 17.4331 62.8547 17.4985 62.7818 17.5063C62.3801 17.5491 61.9786 17.5951 61.578 17.6414C61.5051 17.6499 61.4393 17.5976 61.4308 17.5248C61.4224 17.452 61.4746 17.3861 61.5475 17.3777C61.9482 17.3314 62.3507 17.2853 62.7536 17.2423C62.8265 17.2345 62.8919 17.2873 62.8997 17.3602ZM60.4897 17.6327C60.4978 17.7056 60.4453 17.7712 60.3724 17.7793C60.1707 17.8016 59.9694 17.8232 59.7688 17.8438L59.7687 17.8438C59.5652 17.8647 59.3608 17.8845 59.1559 17.9029C59.0829 17.9095 59.0184 17.8556 59.0118 17.7825C59.0053 17.7095 59.0592 17.645 59.1322 17.6385C59.3358 17.6202 59.539 17.6005 59.7417 17.5797C59.9415 17.5592 60.142 17.5376 60.3432 17.5154C60.4161 17.5073 60.4817 17.5598 60.4897 17.6327ZM54.1165 17.6603C54.1293 17.5881 54.1983 17.54 54.2705 17.5529C54.6687 17.6238 55.0708 17.6737 55.4756 17.7064C55.5487 17.7123 55.6031 17.7763 55.5972 17.8494C55.5913 17.9225 55.5273 17.977 55.4542 17.971C55.0419 17.9378 54.6313 17.8868 54.2239 17.8143C54.1517 17.8014 54.1036 17.7325 54.1165 17.6603ZM58.0518 17.8521C58.0555 17.9253 57.9992 17.9877 57.926 17.9914C57.5149 18.0125 57.1028 18.024 56.691 18.022C56.6177 18.0216 56.5585 17.9619 56.5589 17.8885C56.5593 17.8152 56.619 17.7561 56.6923 17.7565C57.0983 17.7585 57.5054 17.7472 57.9124 17.7263C57.9856 17.7225 58.048 17.7788 58.0518 17.8521ZM71.0158 17.9575C71.0443 17.8899 71.1222 17.8583 71.1897 17.8868C71.5629 18.0443 71.9294 18.2274 72.2881 18.4392C72.3512 18.4765 72.3722 18.5579 72.3349 18.621C72.2976 18.6842 72.2163 18.7051 72.1531 18.6678C71.805 18.4623 71.4491 18.2845 71.0865 18.1314C71.0189 18.1029 70.9873 18.025 71.0158 17.9575ZM73.1155 19.156C73.1609 19.0985 73.2444 19.0886 73.302 19.1339C73.4609 19.2592 73.618 19.3913 73.773 19.5305C73.8275 19.5795 73.832 19.6634 73.7831 19.7179C73.7341 19.7725 73.6501 19.777 73.5956 19.728C73.4448 19.5926 73.2921 19.4642 73.1376 19.3425C73.0801 19.2971 73.0702 19.2136 73.1155 19.156Z" fill="#3F2732"/>
<path fill-rule="evenodd" clip-rule="evenodd" d="M28.4753 8.88788C28.501 8.95654 28.4662 9.03304 28.3975 9.05874C28.3485 9.0771 28.2945 9.09916 28.2458 9.12105C28.1789 9.1511 28.1003 9.12124 28.0703 9.05436C28.0402 8.98749 28.0701 8.90892 28.137 8.87887C28.1912 8.8545 28.2505 8.8303 28.3045 8.8101C28.3731 8.78439 28.4496 8.81922 28.4753 8.88788Z" fill="#3F2732"/>
<path fill-rule="evenodd" clip-rule="evenodd" d="M96.2411 8.33267C96.2742 8.39807 96.2481 8.47795 96.1827 8.51108C95.9631 8.62231 95.7759 8.78364 95.6615 8.98055C95.5409 9.18902 95.4603 9.4136 95.4181 9.64371C95.4048 9.71582 95.3356 9.76356 95.2635 9.75033C95.1914 9.7371 95.1437 9.66792 95.1569 9.59581C95.2044 9.33672 95.2954 9.08316 95.4318 8.84737L95.4319 8.84715C95.5773 8.59703 95.8075 8.40353 96.0627 8.27425C96.1281 8.24111 96.208 8.26727 96.2411 8.33267ZM97.492 8.42922C97.5529 8.38837 97.6354 8.4046 97.6762 8.46548C97.8202 8.68008 97.8614 8.97109 97.7794 9.33042M110.115 8.68175C110.156 8.74248 110.14 8.82501 110.079 8.86609C109.907 8.98224 109.735 9.09695 109.561 9.21005C109.499 9.25002 109.417 9.23259 109.377 9.17112C109.337 9.10966 109.354 9.02743 109.416 8.98747C109.588 8.87528 109.76 8.76147 109.93 8.64618C109.991 8.6051 110.074 8.62103 110.115 8.68175ZM86.3803 8.86494C86.3815 8.79164 86.442 8.73321 86.5153 8.73445C86.9334 8.74148 87.3532 8.77198 87.7735 8.8257C87.8462 8.835 87.8976 8.90149 87.8883 8.97421C87.879 9.04694 87.8125 9.09835 87.7398 9.08906C87.3291 9.03656 86.919 9.00677 86.5108 8.9999C86.4375 8.99867 86.3791 8.93825 86.3803 8.86494ZM85.3993 8.90445C85.4065 8.97741 85.3532 9.04238 85.2802 9.04957C84.8712 9.08984 84.4655 9.15395 84.0643 9.24212C83.9926 9.25785 83.9218 9.21256 83.9061 9.14096C83.8904 9.06935 83.9357 8.99855 84.0073 8.98281C84.4188 8.89237 84.8349 8.82664 85.2542 8.78535C85.3272 8.77816 85.3921 8.83149 85.3993 8.90445ZM88.8543 9.15012C88.8711 9.07877 88.9426 9.03458 89.014 9.05143C89.2175 9.09947 89.4207 9.15291 89.6236 9.2117M82.9615 9.40845C82.9857 9.47768 82.9491 9.55337 82.8799 9.57752C82.4951 9.71174 82.1159 9.86953 81.7436 10.0511C81.6777 10.0833 81.5982 10.0559 81.566 9.99002C81.5339 9.92413 81.5613 9.84466 81.6272 9.81252C82.0089 9.62633 82.3978 9.46451 82.7925 9.32683C82.8617 9.30269 82.9374 9.33923 82.9615 9.40845ZM108.55 9.68586C108.587 9.7489 108.567 9.83034 108.504 9.86778C108.147 10.0798 107.785 10.2841 107.418 10.4791C107.354 10.5136 107.273 10.489 107.239 10.4243C107.204 10.3596 107.229 10.2792 107.294 10.2448C107.656 10.0518 108.014 9.84957 108.368 9.63949C108.431 9.60206 108.513 9.62282 108.55 9.68586ZM91.0687 9.79726C91.0906 9.72727 91.165 9.68823 91.235 9.71006C91.592 9.82141 91.9485 9.9291 92.3069 10.0257C92.3777 10.0448 92.4196 10.1176 92.4005 10.1884C92.3814 10.2592 92.3086 10.3011 92.2378 10.282C91.8745 10.1841 91.5142 10.0753 91.1559 9.96351C91.0859 9.94168 91.0469 9.86725 91.0687 9.79726ZM96.6841 10.319C96.7074 10.3885 96.6699 10.4637 96.6004 10.487C96.2642 10.5996 95.8904 10.6575 95.5224 10.6822C95.4492 10.6871 95.386 10.6317 95.3811 10.5586C95.3762 10.4854 95.4315 10.4222 95.5046 10.4173C95.8587 10.3936 96.2084 10.3384 96.516 10.2353C96.5855 10.212 96.6608 10.2494 96.6841 10.319ZM93.2356 10.3812C93.2488 10.3091 93.318 10.2613 93.3901 10.2745C93.5716 10.3078 93.754 10.3364 93.9373 10.3593C94.0893 10.3782 94.2663 10.3966 94.459 10.4101C94.5322 10.4152 94.5873 10.4787 94.5822 10.5518C94.577 10.6249 94.5136 10.6801 94.4405 10.6749C94.2423 10.661 94.0605 10.6422 93.9045 10.6228L93.9043 10.6228C93.7156 10.5991 93.5283 10.5698 93.3423 10.5357C93.2701 10.5225 93.2224 10.4533 93.2356 10.3812ZM80.7099 10.4707C80.7494 10.5325 80.7313 10.6146 80.6695 10.6541C80.4976 10.7639 80.3276 10.8793 80.1595 11.0002C80.1 11.0431 80.0171 11.0296 79.9742 10.9701C79.9314 10.9106 79.9449 10.8276 80.0044 10.7848C80.1764 10.6609 80.3505 10.5428 80.5266 10.4303C80.5884 10.3908 80.6705 10.4089 80.7099 10.4707ZM106.368 10.8598C106.399 10.9262 106.37 11.0052 106.303 11.0362C105.926 11.2119 105.545 11.3771 105.158 11.5303C105.09 11.5573 105.013 11.5239 104.986 11.4558C104.959 11.3876 104.992 11.3105 105.06 11.2835C105.442 11.1323 105.819 10.9692 106.191 10.7956C106.258 10.7646 106.337 10.7933 106.368 10.8598ZM95.4458 10.9699C95.5109 10.9361 95.591 10.9615 95.6248 11.0265C95.7329 11.2346 95.8761 11.4255 96.0526 11.5883C96.205 11.7289 96.3692 11.8519 96.5435 11.9589C96.606 11.9972 96.6255 12.079 96.5871 12.1414C96.5488 12.2039 96.467 12.2235 96.4046 12.1851C96.2162 12.0695 96.0382 11.9362 95.8726 11.7835L95.8726 11.7834C95.6727 11.599 95.5109 11.3833 95.3892 11.1489C95.3554 11.0838 95.3808 11.0037 95.4458 10.9699ZM104.069 11.7854C104.092 11.8552 104.054 11.93 103.984 11.9525C103.786 12.0163 103.587 12.0768 103.386 12.1338L103.386 12.1338C103.189 12.1895 102.981 12.2467 102.764 12.3031C102.693 12.3216 102.621 12.2791 102.603 12.2081C102.584 12.1372 102.627 12.0647 102.698 12.0462C102.912 11.9903 103.118 11.9337 103.314 11.8784C103.511 11.8223 103.707 11.7627 103.902 11.6998C103.972 11.6773 104.047 11.7156 104.069 11.7854ZM101.611 12.4367C101.625 12.5087 101.578 12.5784 101.506 12.5925C101.09 12.6739 100.659 12.7424 100.226 12.7875C100.153 12.795 100.088 12.7421 100.08 12.6691C100.072 12.5962 100.125 12.531 100.198 12.5234C100.623 12.4793 101.045 12.4121 101.455 12.3319C101.527 12.3179 101.597 12.3648 101.611 12.4367ZM97.5302 12.5187C97.5473 12.4474 97.6189 12.4034 97.6902 12.4205C98.0848 12.5151 98.5036 12.5634 98.9344 12.5761C99.0077 12.5783 99.0654 12.6394 99.0632 12.7127C99.0611 12.786 98.9999 12.8436 98.9266 12.8415C98.4814 12.8284 98.044 12.7783 97.6283 12.6787C97.5571 12.6616 97.5131 12.59 97.5302 12.5187Z" fill="#3F2732"/>
<path fill-rule="evenodd" clip-rule="evenodd" d="M121.094 5.6228C120.695 5.60551 120.286 5.60406 119.866 5.61997C119.793 5.62274 119.731 5.5656 119.729 5.49234C119.726 5.41908 119.783 5.35744 119.856 5.35466C120.283 5.33848 120.699 5.33995 121.106 5.35755C121.179 5.36072 121.236 5.42267 121.233 5.49592C121.23 5.56916 121.168 5.62597 121.094 5.6228ZM118.757 5.56687C118.765 5.63971 118.713 5.70551 118.64 5.71385C118.243 5.75926 117.837 5.82001 117.422 5.8972C117.35 5.91061 117.281 5.86305 117.267 5.79097C117.254 5.71889 117.301 5.64959 117.373 5.63618C117.794 5.55788 118.206 5.49621 118.61 5.45007C118.682 5.44174 118.748 5.49403 118.757 5.56687ZM122.204 5.57918C122.214 5.50647 122.28 5.45513 122.353 5.46451C122.775 5.51896 123.186 5.59078 123.585 5.67798C123.657 5.69361 123.702 5.76434 123.686 5.83597C123.671 5.9076 123.6 5.953 123.529 5.93737C123.136 5.85178 122.733 5.78127 122.319 5.72782C122.246 5.71844 122.195 5.65189 122.204 5.57918ZM116.315 6.0003C116.333 6.07138 116.29 6.14356 116.219 6.16153C115.832 6.25944 115.437 6.37141 115.034 6.49824C114.964 6.52025 114.889 6.48141 114.867 6.41148C114.845 6.34155 114.884 6.26701 114.954 6.245C115.362 6.11668 115.761 6.00332 116.154 5.90413C116.225 5.88616 116.297 5.92922 116.315 6.0003ZM124.629 6.08462C124.651 6.01459 124.725 5.97541 124.795 5.99711C125.2 6.1225 125.592 6.26314 125.974 6.41653C126.042 6.4439 126.074 6.52123 126.047 6.58924C126.02 6.65726 125.942 6.69021 125.874 6.66284C125.5 6.51203 125.114 6.37385 124.717 6.25071C124.647 6.22901 124.607 6.15465 124.629 6.08462ZM113.947 6.72824C113.972 6.79694 113.938 6.87338 113.869 6.89898C113.494 7.03874 113.112 7.19109 112.724 7.35662C112.657 7.38538 112.579 7.35403 112.55 7.28659C112.521 7.21915 112.553 7.14117 112.62 7.11241C113.012 6.9453 113.397 6.79142 113.776 6.6502C113.845 6.6246 113.921 6.65954 113.947 6.72824ZM126.936 6.98778C126.969 6.92204 127.048 6.89506 127.114 6.92751C127.302 7.02023 127.487 7.11574 127.669 7.2137C127.675 7.21675 127.68 7.22021 127.685 7.22405C127.814 7.3194 127.958 7.44199 128.113 7.59123C128.166 7.64202 128.168 7.72605 128.117 7.77893C128.066 7.8318 127.982 7.8335 127.929 7.78272C127.784 7.64286 127.651 7.52969 127.535 7.44288C127.358 7.34796 127.179 7.25542 126.997 7.16558C126.931 7.13313 126.904 7.05352 126.936 6.98778ZM111.661 7.68833C111.693 7.75451 111.664 7.83373 111.598 7.86528C111.414 7.95304 111.229 8.04368 111.042 8.13728C110.976 8.17011 110.897 8.14357 110.864 8.07802C110.831 8.01246 110.857 7.93271 110.923 7.89988C111.111 7.80553 111.298 7.71413 111.484 7.62563C111.55 7.59408 111.629 7.62215 111.661 7.68833ZM128.669 8.39856C128.727 8.35337 128.81 8.36352 128.855 8.42125C129.064 8.68762 129.279 8.99086 129.492 9.33076C129.531 9.39287 129.512 9.4748 129.45 9.51375C129.388 9.5527 129.306 9.53392 129.267 9.47181C129.059 9.13967 128.849 8.84399 128.646 8.58492C128.601 8.52719 128.611 8.44376 128.669 8.39856ZM129.858 10.2373C129.923 10.2042 130.003 10.2303 130.037 10.2957C130.195 10.6093 130.349 10.945 130.494 11.3027C130.522 11.3706 130.489 11.448 130.421 11.4756C130.353 11.5032 130.276 11.4704 130.248 11.4025C130.106 11.0517 129.955 10.7228 129.8 10.4158C129.767 10.3504 129.793 10.2705 129.858 10.2373ZM130.703 12.2575C130.772 12.2355 130.847 12.2742 130.869 12.3441C130.976 12.6837 131.075 13.0391 131.162 13.4105C131.179 13.4819 131.134 13.5533 131.063 13.5701C130.992 13.5869 130.92 13.5426 130.904 13.4712C130.818 13.1064 130.721 12.7574 130.616 12.4241C130.594 12.3542 130.633 12.2796 130.703 12.2575ZM131.224 14.3846C131.296 14.373 131.364 14.4223 131.376 14.4947C131.404 14.6742 131.431 14.8569 131.454 15.0428C131.463 15.1155 131.411 15.1819 131.338 15.1909C131.266 15.2 131.199 15.1484 131.19 15.0757C131.167 14.8929 131.142 14.7132 131.113 14.5367C131.102 14.4643 131.151 14.3962 131.224 14.3846Z" fill="#3F2732"/>
<path d="M136.094 8.6741C136.117 8.42303 135.91 8.02359 135.818 7.77251C135.399 6.59132 134.251 5.91798 133.028 6.15764C131.989 6.36307 130.909 7.69263 131.679 8.69693C132.109 9.25614 132.637 9.47869 133.332 9.45586C133.614 9.44445 133.935 9.45016 134.211 9.41021C134.595 9.34744 135.365 9.29038 135.629 9.01077L136.094 8.6741Z" fill="#8AC1CE"/>
<path d="M137.15 9.13627C137.471 9.0735 137.896 8.66836 138.178 8.46293C139.498 7.50999 139.923 5.84376 139.171 4.41719C138.533 3.20746 136.467 2.35722 135.49 3.68678C134.951 4.42289 134.87 5.16471 135.152 6.00924C135.267 6.35161 135.381 6.75105 135.531 7.07631C135.749 7.53281 136.105 8.45723 136.553 8.68548L137.15 9.13627Z" fill="#BAD9E2"/>
<path d="M131.885 13.376C131.902 13.3646 131.908 13.3418 131.92 13.3246C131.937 13.3018 131.96 13.279 131.983 13.2562C132.034 13.2105 132.103 13.1706 132.161 13.1306C132.287 13.0507 132.413 12.9823 132.54 12.9024C132.672 12.8225 132.804 12.7483 132.936 12.6741C133.074 12.6 133.252 12.4516 133.412 12.5372C133.481 12.5714 133.493 12.6456 133.487 12.7141C133.476 12.7997 133.401 12.8453 133.326 12.8853C133.257 12.9195 133.188 12.9537 133.125 12.9937C132.993 13.0679 132.855 13.142 132.723 13.2105C132.586 13.279 132.448 13.3532 132.304 13.3988C132.235 13.4217 132.172 13.4388 132.103 13.4502C132.069 13.4559 132.034 13.4559 132 13.4502C131.971 13.4445 131.937 13.4274 131.902 13.4274C131.874 13.4331 131.868 13.3931 131.885 13.376Z" fill="black"/>
<path d="M132.907 12.7369C133.59 14.1178 134.876 14.7569 136.266 14.8767C137.207 14.9623 138.195 14.814 139.085 14.5058C139.148 14.483 139.211 14.4602 139.274 14.4374C139.556 14.3289 139.82 14.2034 140.072 14.0493C140.474 13.804 140.825 13.4958 141.094 13.1306C141.181 13.0051 141.261 12.8795 141.33 12.7426C141.381 12.6399 141.427 12.5315 141.468 12.4173C141.525 12.2633 141.565 12.0978 141.6 11.9323C141.778 10.928 141.456 9.76963 140.503 9.26177C139.785 8.87945 139.165 8.52566 138.333 8.44578L138.293 8.44007C138.132 8.42295 137.965 8.41724 137.793 8.40583C137.374 8.39442 136.943 8.40583 136.507 8.4629C136.042 8.51996 135.577 8.62267 135.146 8.78245C134.463 9.02782 133.854 9.41584 133.424 9.97506C133.315 10.112 133.223 10.2604 133.137 10.4201C132.752 11.1391 132.522 11.9665 132.907 12.7369Z" fill="#FAC309"/>
<path d="M141.56 12.6685C141.571 12.6571 141.571 12.6571 141.56 12.6685V12.6685Z" fill="black"/>
<path d="M138.465 13.513C138.93 13.8268 139.521 14.038 140.061 14.0494C140.463 13.804 140.813 13.4959 141.083 13.1307C141.169 13.0051 141.249 12.8796 141.318 12.7426C140.813 12.8396 140.182 12.6742 139.734 12.4973C138.683 12.075 137.908 11.2305 137.546 10.1748C137.328 9.53 137.472 8.93084 137.787 8.41157C137.368 8.40016 136.938 8.41157 136.501 8.46863C136.421 8.63411 136.369 8.81672 136.335 9.00502C136.048 10.7454 137.029 12.5429 138.465 13.513Z" fill="black"/>
<path d="M135.106 13.8211C135.433 14.2205 135.824 14.5914 136.26 14.8767C137.202 14.9623 138.189 14.814 139.079 14.5058C138.683 14.3575 138.298 14.152 137.96 13.9523C136.869 13.3075 135.841 12.4744 135.37 11.2647C135.06 10.4715 134.894 9.57561 135.14 8.77673C134.457 9.0221 133.849 9.41013 133.418 9.96934C133.355 11.356 134.285 12.8225 135.106 13.8211Z" fill="black"/>
<path d="M138.551 10.9052C139.148 11.7668 140.4 12.3945 141.462 12.4173C141.519 12.2633 141.559 12.0978 141.594 11.9323C141.772 10.928 141.45 9.76962 140.497 9.26177C139.779 8.87945 139.159 8.52566 138.327 8.44577L138.287 8.44006C138.137 8.76532 138.08 9.199 138.074 9.45578C138.068 9.95223 138.264 10.4943 138.551 10.9052Z" fill="#F9A30B"/>
<path d="M141.755 12.0979C141.921 12.0751 142.088 12.0294 142.243 11.9666C143.001 11.6471 143.667 11.0365 143.959 10.2662C144.999 7.4701 141.267 6.10059 139.28 7.63558C138.252 8.42875 137.896 9.41023 138.648 10.5401C139.24 11.436 140.583 12.2577 141.755 12.0979Z" fill="#FAC309"/>
<path d="M140.572 10.1064C141.25 9.58141 141.009 8.52004 140.331 8.09778C139.556 7.61274 138.511 8.44015 138.586 9.27897C138.643 9.91237 139.143 10.3803 139.791 10.3575C140.124 10.346 140.383 10.249 140.572 10.1064Z" fill="white"/>
<path d="M139.62 8.53717C139.022 8.30892 138.5 8.95943 138.856 9.49012C139.172 9.96374 139.97 9.81537 140.01 9.22192C140.027 8.9252 139.918 8.6513 139.62 8.53717Z" fill="black"/>
<path d="M139.212 8.90807C139.091 8.73688 138.793 8.82247 138.793 9.03931C138.793 9.2105 138.959 9.35886 139.108 9.26186C139.235 9.18767 139.304 9.04502 139.212 8.90807Z" fill="white"/>
<path d="M143.638 9.87811C144.241 9.41019 144.023 8.46866 143.426 8.09205C142.737 7.66408 141.812 8.40018 141.876 9.13629C141.927 9.69551 142.369 10.1178 142.943 10.0949C143.242 10.0892 143.472 10.0036 143.638 9.87811Z" fill="white"/>
<path d="M142.788 8.48575C142.254 8.28603 141.789 8.86236 142.111 9.33027C142.392 9.75254 143.098 9.61559 143.133 9.09061C143.15 8.82812 143.058 8.58846 142.788 8.48575Z" fill="black"/>
<path d="M142.427 8.81675C142.318 8.66268 142.054 8.74256 142.054 8.93658C142.054 9.09065 142.197 9.21619 142.335 9.1363C142.444 9.06212 142.513 8.93658 142.427 8.81675Z" fill="white"/>
<path d="M142.467 10.8253C142.467 10.8253 141.307 11.2875 140.561 10.8253C140.561 10.8253 141.508 12.1948 142.467 10.8253Z" fill="black"/>
<path d="M140.405 7.42435C140.308 7.39582 140.25 7.27028 140.199 7.19039C140.141 7.08768 140.078 6.99067 140.009 6.89366C139.871 6.69394 139.716 6.50564 139.544 6.34015C139.378 6.18038 139.188 6.04913 138.981 5.95213C138.884 5.90648 138.775 5.87224 138.671 5.84941C138.557 5.82659 138.448 5.81518 138.344 5.76382C138.304 5.74099 138.287 5.67252 138.327 5.63828C138.528 5.47851 138.844 5.55839 139.068 5.64969C139.32 5.7467 139.538 5.90648 139.739 6.08908C139.935 6.27168 140.107 6.48281 140.25 6.70536C140.319 6.80807 140.382 6.91649 140.434 7.03061C140.48 7.13333 140.555 7.27598 140.503 7.3844C140.486 7.41864 140.44 7.43576 140.405 7.42435Z" fill="black"/>
<path d="M141.795 7.24183C141.732 7.03641 141.812 6.83098 141.893 6.64268C141.985 6.42584 142.122 6.23183 142.272 6.04922C142.415 5.87233 142.582 5.71255 142.765 5.5756C142.857 5.50713 142.955 5.43295 143.058 5.37589C143.11 5.34735 143.167 5.32453 143.225 5.30741C143.288 5.28458 143.339 5.29029 143.385 5.296C143.483 5.296 143.552 5.42724 143.472 5.49572C143.437 5.52425 143.414 5.55849 143.368 5.58702C143.328 5.60984 143.294 5.63267 143.253 5.65549C143.167 5.71255 143.081 5.76391 142.995 5.82668C142.829 5.95222 142.673 6.11199 142.536 6.27177C142.404 6.42584 142.295 6.59132 142.197 6.76821C142.111 6.9337 142.065 7.09347 141.985 7.25895C141.944 7.35596 141.818 7.32172 141.795 7.24183Z" fill="black"/>
<path d="M143.259 5.24456C143.851 5.03914 143.954 6.07197 143.495 6.23745C142.967 6.43146 142.783 5.40434 143.259 5.24456Z" fill="#FAC309"/>
<path d="M138.057 5.24464C138.649 5.04492 138.752 6.07205 138.287 6.24323C137.764 6.43154 137.581 5.40441 138.057 5.24464Z" fill="#FAC309"/>
<path d="M117.714 43.0529C117.704 43.0529 117.689 43.048 117.679 43.0381C117.659 43.0183 117.654 42.9885 117.674 42.9687C119.092 41.3594 118.552 39.8888 118.105 39.1559C117.922 38.8538 117.699 38.5914 117.476 38.3785C117.084 38.6459 116.638 38.7647 116.33 38.6508C116.112 38.5716 115.998 38.3785 116.013 38.1061C116.023 37.9031 116.122 37.7694 116.291 37.7248C116.568 37.6555 117.034 37.8486 117.486 38.2497C117.634 38.1408 117.773 38.0071 117.892 37.8536C118.19 37.4673 118.572 36.6553 117.793 35.5609C116.901 34.3032 116.871 33.199 117.01 32.4958C117.158 31.7332 117.51 31.2727 117.525 31.2529C117.54 31.2331 117.575 31.2282 117.595 31.243C117.615 31.2579 117.62 31.2925 117.605 31.3123C117.59 31.3321 116.206 33.1494 117.877 35.4966C118.691 36.6404 118.289 37.4971 117.972 37.9081C117.853 38.0616 117.714 38.2002 117.56 38.3141C117.788 38.527 118.006 38.7895 118.195 39.0965C118.567 39.7055 119.271 41.3099 117.753 43.0282C117.739 43.048 117.724 43.0529 117.714 43.0529ZM116.415 37.814C116.38 37.814 116.345 37.8189 116.311 37.8239C116.187 37.8536 116.117 37.9526 116.107 38.1111C116.092 38.3389 116.182 38.4924 116.36 38.5567C116.608 38.6459 117.015 38.5567 117.391 38.3091C117.034 37.9972 116.668 37.814 116.415 37.814Z" fill="#2D202A"/>
<path d="M116.995 35.0707C119.293 35.0707 121.155 32.9912 121.155 30.426C121.155 27.8608 119.293 25.7812 116.995 25.7812C114.697 25.7812 112.835 27.8608 112.835 30.426C112.835 32.9912 114.697 35.0707 116.995 35.0707Z" fill="#E74C4E"/>
<path d="M117.347 34.7093C117.347 34.7093 117.208 35.7095 117.347 35.8085C117.486 35.9076 118.086 35.7244 118.19 35.4025C118.289 35.0757 117.272 34.3429 117.347 34.7093Z" fill="#E42D31"/>
<path d="M118.195 26.6131C118.195 26.6131 120.094 27.242 120.188 28.8117C120.203 29.0741 119.087 27.9352 117.739 27.3212C115.393 26.2467 117.238 26.2466 118.195 26.6131Z" fill="white"/>
<path d="M128.787 67.5797C128.772 67.5797 128.757 67.5748 128.747 67.5649C128.728 67.5451 128.733 67.5104 128.752 67.4956C130.349 66.0695 129.987 64.5493 129.63 63.7669C129.481 63.445 129.298 63.1578 129.095 62.9251C128.678 63.143 128.222 63.2073 127.929 63.0588C127.721 62.9548 127.632 62.7468 127.681 62.4794C127.716 62.2814 127.83 62.1576 127.999 62.1328C128.286 62.0982 128.723 62.3457 129.119 62.7964C129.278 62.7072 129.432 62.5933 129.566 62.4497C129.908 62.1031 130.379 61.3405 129.739 60.167C129 58.8151 129.104 57.7208 129.323 57.0375C129.561 56.2997 129.962 55.8837 129.982 55.8689C130.002 55.8491 130.032 55.8491 130.051 55.8689C130.071 55.8887 130.071 55.9184 130.051 55.9382C130.037 55.953 128.45 57.597 129.823 60.1175C130.493 61.3455 129.992 62.1477 129.635 62.5191C129.501 62.6577 129.342 62.7765 129.179 62.8706C129.377 63.1083 129.566 63.3955 129.714 63.7223C130.012 64.371 130.518 66.0447 128.812 67.5649C128.807 67.5797 128.797 67.5797 128.787 67.5797ZM128.058 62.2319C128.043 62.2319 128.023 62.2318 128.009 62.2368C127.88 62.2517 127.805 62.3408 127.776 62.4992C127.736 62.7221 127.805 62.8855 127.974 62.9697C128.207 63.0885 128.623 63.0489 129.025 62.8459C128.683 62.4646 128.311 62.2319 128.058 62.2319Z" fill="#2D202A"/>
<path d="M133.69 55.4725C133.993 52.9307 132.392 50.6504 130.113 50.3793C127.834 50.1082 125.741 51.9489 125.438 54.4908C125.134 57.0326 126.736 59.3129 129.015 59.584C131.294 59.8551 133.387 58.0144 133.69 55.4725Z" fill="#78A941"/>
<path d="M129.406 59.2658C129.406 59.2658 129.148 60.2364 129.277 60.3552C129.406 60.4691 130.021 60.3602 130.16 60.0482C130.294 59.7412 129.376 58.8944 129.406 59.2658Z" fill="#78A941"/>
<path d="M131.201 51.3479C131.201 51.3479 133.006 52.1947 132.917 53.7594C132.902 54.0219 131.93 52.7641 130.666 51.9916C128.464 50.6497 130.294 50.8725 131.201 51.3479Z" fill="white"/>
<path d="M39 9.3247C39 7.48852 40.4885 6 42.3247 6H107.645C109.481 6 110.97 7.48852 110.97 9.3247V74.6453C110.97 76.4815 109.481 77.97 107.645 77.97H42.3247C40.4885 77.97 39 76.4815 39 74.6453V9.3247Z" fill="white"/>
<path fill-rule="evenodd" clip-rule="evenodd" d="M107.645 6.97785H42.3247C41.0286 6.97785 39.9779 8.02857 39.9779 9.3247V74.6453C39.9779 75.9414 41.0286 76.9922 42.3247 76.9922H107.645C108.941 76.9922 109.992 75.9414 109.992 74.6453V9.3247C109.992 8.02857 108.941 6.97785 107.645 6.97785ZM42.3247 6C40.4885 6 39 7.48852 39 9.3247V74.6453C39 76.4815 40.4885 77.97 42.3247 77.97H107.645C109.481 77.97 110.97 76.4815 110.97 74.6453V9.3247C110.97 7.48852 109.481 6 107.645 6H42.3247Z" fill="#BF3238"/>
<path d="M57.3838 6.78223H74.9851V24.3836H57.3838V6.78223Z" fill="#3FA3C8"/>
<path fill-rule="evenodd" clip-rule="evenodd" d="M74.7896 6.9778H57.5794V24.188H74.7896V6.9778ZM57.3838 6.78223V24.3836H74.9851V6.78223H57.3838Z" fill="#BBDEEB"/>
<path d="M60.9364 11.2815C59.0841 12.8932 59.3587 18.6875 58.8921 18.3026C58.7753 16.0691 58.4308 10.9877 59.5933 9.66226C61.1117 7.93113 66.0793 8.07526 70.2864 8.25159C74.4935 8.42792 73.0911 10.3676 71.1629 10.1913C69.2346 10.0149 63.3313 9.19768 60.9364 11.2815Z" fill="#BBDEEB" fill-opacity="0.46"/>
<path d="M69.3695 18.2476C71.298 16.5127 72.9855 11.6735 73.4713 12.0877C73.593 14.4919 73.9516 19.9615 72.7413 21.3882C71.1605 23.2516 65.9888 23.0964 61.6088 22.9066C57.2287 22.7168 58.6888 20.629 60.6963 20.8188C62.7038 21.0086 66.8762 20.4906 69.3695 18.2476Z" fill="#BBDEEB" fill-opacity="0.46"/>
<path d="M71.7512 20.2747C71.328 20.6666 70.2215 21.4475 69.1809 21.4362C67.8802 21.4221 69.3697 23.5952 71.7512 20.2747Z" fill="white"/>
<path d="M74.9854 6.78223H92.5867V24.3836H74.9854V6.78223Z" fill="#3FA3C8"/>
<path fill-rule="evenodd" clip-rule="evenodd" d="M92.3911 6.9778H75.1809V24.188H92.3911V6.9778ZM74.9854 6.78223V24.3836H92.5867V6.78223H74.9854Z" fill="#BBDEEB"/>
<path d="M78.537 11.2815C76.6847 12.8932 76.9593 18.6875 76.4927 18.3026C76.3759 16.0691 76.0314 10.9877 77.1939 9.66226C78.7123 7.93113 83.6799 8.07526 87.887 8.25159C92.0941 8.42792 90.6917 10.3676 88.7635 10.1913C86.8352 10.0149 80.9319 9.19768 78.537 11.2815Z" fill="#BBDEEB" fill-opacity="0.46"/>
<path d="M86.9711 18.2476C88.8995 16.5127 90.5871 11.6735 91.0728 12.0877C91.1945 14.4919 91.5532 19.9615 90.3429 21.3882C88.7621 23.2516 83.5903 23.0964 79.2103 22.9066C74.8303 22.7168 76.2903 20.629 78.2978 20.8188C80.3053 21.0086 84.4778 20.4906 86.9711 18.2476Z" fill="#BBDEEB" fill-opacity="0.46"/>
<path d="M89.3527 20.2747C88.9295 20.6666 87.823 21.4475 86.7825 21.4362C85.4817 21.4221 86.9713 23.5952 89.3527 20.2747Z" fill="white"/>
<path d="M92.5859 6.78223H107.84C109.137 6.78223 110.187 7.83295 110.187 9.12907V24.3836H92.5859V6.78223Z" fill="#3FA3C8"/>
<path fill-rule="evenodd" clip-rule="evenodd" d="M107.84 6.9778H92.7815V24.188H109.992V9.12907C109.992 7.94096 109.029 6.9778 107.84 6.9778ZM92.5859 6.78223V24.3836H110.187V9.12907C110.187 7.83295 109.137 6.78223 107.84 6.78223H92.5859Z" fill="#BBDEEB"/>
<path d="M96.1386 11.2815C94.2862 12.8932 94.5609 18.6875 94.0943 18.3026C93.9774 16.0691 93.6329 10.9877 94.7955 9.66226C96.3139 7.93113 101.281 8.07526 105.489 8.25159C109.696 8.42792 108.293 10.3676 106.365 10.1913C104.437 10.0149 98.5334 9.19768 96.1386 11.2815Z" fill="#BBDEEB" fill-opacity="0.46"/>
<path d="M104.572 18.2476C106.5 16.5127 108.188 11.6735 108.673 12.0877C108.795 14.4919 109.154 19.9615 107.943 21.3882C106.363 23.2516 101.191 23.0964 96.8109 22.9066C92.4309 22.7168 93.8909 20.629 95.8984 20.8188C97.9059 21.0086 102.078 20.4906 104.572 18.2476Z" fill="#BBDEEB" fill-opacity="0.46"/>
<path d="M106.954 20.2747C106.531 20.6666 105.425 21.4475 104.384 21.4362C103.083 21.4221 104.573 23.5952 106.954 20.2747Z" fill="white"/>
<path d="M57.3838 24.3837H74.9851V41.985H57.3838V24.3837Z" fill="#3FA3C8"/>
<path fill-rule="evenodd" clip-rule="evenodd" d="M74.7896 24.5792H57.5794V41.7895H74.7896V24.5792ZM57.3838 24.3837V41.985H74.9851V24.3837H57.3838Z" fill="#BBDEEB"/>
<path d="M60.9364 28.8829C59.0841 30.4946 59.3587 36.2889 58.8921 35.9041C58.7753 33.6705 58.4308 28.5891 59.5933 27.2637C61.1117 25.5326 66.0793 25.6767 70.2864 25.853C74.4935 26.0294 73.0911 27.969 71.1629 27.7927C69.2346 27.6164 63.3313 26.7991 60.9364 28.8829Z" fill="#BBDEEB" fill-opacity="0.46"/>
<path d="M69.3695 35.8489C71.298 34.114 72.9855 29.2748 73.4713 29.689C73.593 32.0933 73.9516 37.5628 72.7413 38.9895C71.1605 40.8529 65.9888 40.6978 61.6088 40.508C57.2287 40.3182 58.6888 38.2303 60.6963 38.4201C62.7038 38.6099 66.8762 38.0919 69.3695 35.8489Z" fill="#BBDEEB" fill-opacity="0.46"/>
<path d="M71.7512 37.8761C71.328 38.2679 70.2215 39.0488 69.1809 39.0375C67.8802 39.0235 69.3697 41.1965 71.7512 37.8761Z" fill="white"/>
<path d="M74.9854 24.3837H92.5867V41.985H74.9854V24.3837Z" fill="#3FA3C8"/>
<path fill-rule="evenodd" clip-rule="evenodd" d="M92.3911 24.5792H75.1809V41.7895H92.3911V24.5792ZM74.9854 24.3837V41.985H92.5867V24.3837H74.9854Z" fill="#BBDEEB"/>
<path d="M78.537 28.8829C76.6847 30.4946 76.9593 36.2889 76.4927 35.9041C76.3759 33.6705 76.0314 28.5891 77.1939 27.2637C78.7123 25.5326 83.6799 25.6767 87.887 25.853C92.0941 26.0294 90.6917 27.969 88.7635 27.7927C86.8352 27.6164 80.9319 26.7991 78.537 28.8829Z" fill="#BBDEEB" fill-opacity="0.46"/>
<path d="M86.9711 35.8489C88.8995 34.114 90.5871 29.2748 91.0728 29.689C91.1945 32.0933 91.5532 37.5628 90.3429 38.9895C88.7621 40.8529 83.5903 40.6978 79.2103 40.508C74.8303 40.3182 76.2903 38.2303 78.2978 38.4201C80.3053 38.6099 84.4778 38.0919 86.9711 35.8489Z" fill="#BBDEEB" fill-opacity="0.46"/>
<path d="M89.3527 37.8761C88.9295 38.2679 87.823 39.0488 86.7825 39.0375C85.4817 39.0235 86.9713 41.1965 89.3527 37.8761Z" fill="white"/>
<path d="M92.5859 24.3837H110.187V41.985H92.5859V24.3837Z" fill="#3FA3C8"/>
<path fill-rule="evenodd" clip-rule="evenodd" d="M109.992 24.5792H92.7815V41.7895H109.992V24.5792ZM92.5859 24.3837V41.985H110.187V24.3837H92.5859Z" fill="#BBDEEB"/>
<path d="M96.1386 28.8829C94.2862 30.4946 94.5609 36.2889 94.0943 35.9041C93.9774 33.6705 93.6329 28.5891 94.7955 27.2637C96.3139 25.5326 101.281 25.6767 105.489 25.853C109.696 26.0294 108.293 27.969 106.365 27.7927C104.437 27.6164 98.5334 26.7991 96.1386 28.8829Z" fill="#BBDEEB" fill-opacity="0.46"/>
<path d="M104.572 35.8489C106.5 34.114 108.188 29.2748 108.673 29.689C108.795 32.0933 109.154 37.5628 107.943 38.9895C106.363 40.8529 101.191 40.6978 96.8109 40.508C92.4309 40.3182 93.8909 38.2303 95.8984 38.4201C97.9059 38.6099 102.078 38.0919 104.572 35.8489Z" fill="#BBDEEB" fill-opacity="0.46"/>
<path d="M106.954 37.8761C106.531 38.2679 105.425 39.0488 104.384 39.0375C103.083 39.0235 104.573 41.1965 106.954 37.8761Z" fill="white"/>
<path d="M57.3838 41.985H74.9851V59.5863H57.3838V41.985Z" fill="#3FA3C8"/>
<path fill-rule="evenodd" clip-rule="evenodd" d="M74.7896 42.1806H57.5794V59.3908H74.7896V42.1806ZM57.3838 41.985V59.5863H74.9851V41.985H57.3838Z" fill="#BBDEEB"/>
<path d="M60.9364 46.4842C59.0841 48.096 59.3587 53.8902 58.8921 53.5054C58.7753 51.2718 58.4308 46.1904 59.5933 44.865C61.1117 43.1339 66.0793 43.278 70.2864 43.4543C74.4935 43.6307 73.0911 45.5704 71.1629 45.394C69.2346 45.2177 63.3313 44.4004 60.9364 46.4842Z" fill="#BBDEEB" fill-opacity="0.46"/>
<path d="M69.3695 53.4503C71.298 51.7155 72.9855 46.8762 73.4713 47.2905C73.593 49.6947 73.9516 55.1643 72.7413 56.591C71.1605 58.4543 65.9888 58.2992 61.6088 58.1094C57.2287 57.9196 58.6888 55.8317 60.6963 56.0215C62.7038 56.2113 66.8762 55.6933 69.3695 53.4503Z" fill="#BBDEEB" fill-opacity="0.46"/>
<path d="M71.7512 55.4775C71.328 55.8694 70.2215 56.6503 69.1809 56.639C67.8802 56.6249 69.3697 58.798 71.7512 55.4775Z" fill="white"/>
<path d="M74.9854 41.985H92.5867V59.5863H74.9854V41.985Z" fill="#3FA3C8"/>
<path fill-rule="evenodd" clip-rule="evenodd" d="M92.3911 42.1806H75.1809V59.3908H92.3911V42.1806ZM74.9854 41.985V59.5863H92.5867V41.985H74.9854Z" fill="#BBDEEB"/>
<path d="M78.537 46.4842C76.6847 48.096 76.9593 53.8902 76.4927 53.5054C76.3759 51.2718 76.0314 46.1904 77.1939 44.865C78.7123 43.1339 83.6799 43.278 87.887 43.4543C92.0941 43.6307 90.6917 45.5704 88.7635 45.394C86.8352 45.2177 80.9319 44.4004 78.537 46.4842Z" fill="#BBDEEB" fill-opacity="0.46"/>
<path d="M86.9711 53.4503C88.8995 51.7155 90.5871 46.8762 91.0728 47.2905C91.1945 49.6947 91.5532 55.1643 90.3429 56.591C88.7621 58.4543 83.5903 58.2992 79.2103 58.1094C74.8303 57.9196 76.2903 55.8317 78.2978 56.0215C80.3053 56.2113 84.4778 55.6933 86.9711 53.4503Z" fill="#BBDEEB" fill-opacity="0.46"/>
<path d="M89.3527 55.4775C88.9295 55.8694 87.823 56.6503 86.7825 56.639C85.4817 56.6249 86.9713 58.798 89.3527 55.4775Z" fill="white"/>
<path d="M92.5859 41.985H110.187V59.5863H92.5859V41.985Z" fill="#3FA3C8"/>
<path fill-rule="evenodd" clip-rule="evenodd" d="M109.992 42.1806H92.7815V59.3908H109.992V42.1806ZM92.5859 41.985V59.5863H110.187V41.985H92.5859Z" fill="#BBDEEB"/>
<path d="M96.1386 46.4842C94.2862 48.096 94.5609 53.8902 94.0943 53.5054C93.9774 51.2718 93.6329 46.1904 94.7955 44.865C96.3139 43.1339 101.281 43.278 105.489 43.4543C109.696 43.6307 108.293 45.5704 106.365 45.394C104.437 45.2177 98.5334 44.4004 96.1386 46.4842Z" fill="#BBDEEB" fill-opacity="0.46"/>
<path d="M104.572 53.4503C106.5 51.7155 108.188 46.8762 108.673 47.2905C108.795 49.6947 109.154 55.1643 107.943 56.591C106.363 58.4543 101.191 58.2992 96.8109 58.1094C92.4309 57.9196 93.8909 55.8317 95.8984 56.0215C97.9059 56.2113 102.078 55.6933 104.572 53.4503Z" fill="#BBDEEB" fill-opacity="0.46"/>
<path d="M106.954 55.4775C106.531 55.8694 105.425 56.6503 104.384 56.639C103.083 56.6249 104.573 58.798 106.954 55.4775Z" fill="white"/>
<path d="M57.3838 59.5863H74.9851V77.1877H57.3838V59.5863Z" fill="#3FA3C8"/>
<path fill-rule="evenodd" clip-rule="evenodd" d="M74.7896 59.7819H57.5794V76.9921H74.7896V59.7819ZM57.3838 59.5863V77.1877H74.9851V59.5863H57.3838Z" fill="#BBDEEB"/>
<path d="M60.9364 64.0856C59.0841 65.6973 59.3587 71.4916 58.8921 71.1067C58.7753 68.8731 58.4308 63.7918 59.5933 62.4663C61.1117 60.7352 66.0793 60.8793 70.2864 61.0557C74.4935 61.232 73.0911 63.1717 71.1629 62.9953C69.2346 62.819 63.3313 62.0018 60.9364 64.0856Z" fill="#BBDEEB" fill-opacity="0.46"/>
<path d="M69.3695 71.0516C71.298 69.3168 72.9855 64.4775 73.4713 64.8918C73.593 67.296 73.9516 72.7656 72.7413 74.1923C71.1605 76.0557 65.9888 75.9005 61.6088 75.7107C57.2287 75.5209 58.6888 73.433 60.6963 73.6228C62.7038 73.8127 66.8762 73.2946 69.3695 71.0516Z" fill="#BBDEEB" fill-opacity="0.46"/>
<path d="M71.7512 73.0788C71.328 73.4707 70.2215 74.2516 69.1809 74.2403C67.8802 74.2262 69.3697 76.3993 71.7512 73.0788Z" fill="white"/>
<path d="M74.9854 59.5863H92.5867V77.1877H74.9854V59.5863Z" fill="#3FA3C8"/>
<path fill-rule="evenodd" clip-rule="evenodd" d="M92.3911 59.7819H75.1809V76.9921H92.3911V59.7819ZM74.9854 59.5863V77.1877H92.5867V59.5863H74.9854Z" fill="#BBDEEB"/>
<path d="M78.537 64.0856C76.6847 65.6973 76.9593 71.4916 76.4927 71.1067C76.3759 68.8731 76.0314 63.7918 77.1939 62.4663C78.7123 60.7352 83.6799 60.8793 87.887 61.0557C92.0941 61.232 90.6917 63.1717 88.7635 62.9953C86.8352 62.819 80.9319 62.0018 78.537 64.0856Z" fill="#BBDEEB" fill-opacity="0.46"/>
<path d="M86.9711 71.0516C88.8995 69.3168 90.5871 64.4775 91.0728 64.8918C91.1945 67.296 91.5532 72.7656 90.3429 74.1923C88.7621 76.0557 83.5903 75.9005 79.2103 75.7107C74.8303 75.5209 76.2903 73.433 78.2978 73.6228C80.3053 73.8127 84.4778 73.2946 86.9711 71.0516Z" fill="#BBDEEB" fill-opacity="0.46"/>
<path d="M89.3527 73.0788C88.9295 73.4707 87.823 74.2516 86.7825 74.2403C85.4817 74.2262 86.9713 76.3993 89.3527 73.0788Z" fill="white"/>
<path d="M92.5859 59.5863H110.187V74.8408C110.187 76.1369 109.137 77.1877 107.84 77.1877H92.5859V59.5863Z" fill="#3FA3C8"/>
<path fill-rule="evenodd" clip-rule="evenodd" d="M109.992 59.7819H92.7815V76.9921H107.84C109.029 76.9921 109.992 76.0289 109.992 74.8408V59.7819ZM92.5859 59.5863V77.1877H107.84C109.137 77.1877 110.187 76.1369 110.187 74.8408V59.5863H92.5859Z" fill="#BBDEEB"/>
<path d="M96.1386 64.0856C94.2862 65.6973 94.5609 71.4916 94.0943 71.1067C93.9774 68.8731 93.6329 63.7918 94.7955 62.4663C96.3139 60.7352 101.281 60.8793 105.489 61.0557C109.696 61.232 108.293 63.1717 106.365 62.9953C104.437 62.819 98.5334 62.0018 96.1386 64.0856Z" fill="#BBDEEB" fill-opacity="0.46"/>
<path d="M104.572 71.0516C106.5 69.3168 108.188 64.4775 108.673 64.8918C108.795 67.296 109.154 72.7656 107.943 74.1923C106.363 76.0557 101.191 75.9005 96.8109 75.7107C92.4309 75.5209 93.8909 73.433 95.8984 73.6228C97.9059 73.8127 102.078 73.2946 104.572 71.0516Z" fill="#BBDEEB" fill-opacity="0.46"/>
<path d="M106.954 73.0788C106.531 73.4707 105.425 74.2516 104.384 74.2403C103.083 74.2262 104.573 76.3993 106.954 73.0788Z" fill="white"/>
<path d="M39.7822 24.3837H57.3836V41.985H39.7822V24.3837Z" fill="#3FA3C8"/>
<path fill-rule="evenodd" clip-rule="evenodd" d="M57.188 24.5792H39.9778V41.7895H57.188V24.5792ZM39.7822 24.3837V41.985H57.3836V24.3837H39.7822Z" fill="#BBDEEB"/>
<path d="M43.3348 28.8829C41.4825 30.4946 41.7572 36.2889 41.2906 35.9041C41.1737 33.6705 40.8292 28.5891 41.9917 27.2637C43.5101 25.5326 48.4777 25.6767 52.6848 25.853C56.892 26.0294 55.4896 27.969 53.5613 27.7927C51.6331 27.6164 45.7297 26.7991 43.3348 28.8829Z" fill="#BBDEEB" fill-opacity="0.46"/>
<path d="M51.768 35.8489C53.6964 34.114 55.3839 29.2748 55.8697 29.689C55.9914 32.0933 56.3501 37.5628 55.1397 38.9895C53.5589 40.8529 48.3872 40.6978 44.0072 40.508C39.6272 40.3182 41.0872 38.2303 43.0947 38.4201C45.1022 38.6099 49.2747 38.0919 51.768 35.8489Z" fill="#BBDEEB" fill-opacity="0.46"/>
<path d="M54.1506 37.8761C53.7274 38.2679 52.6209 39.0488 51.5803 39.0375C50.2796 39.0235 51.7691 41.1965 54.1506 37.8761Z" fill="white"/>
<path d="M39.7822 41.985H57.3836V59.5863H39.7822V41.985Z" fill="#3FA3C8"/>
<path fill-rule="evenodd" clip-rule="evenodd" d="M57.188 42.1806H39.9778V59.3908H57.188V42.1806ZM39.7822 41.985V59.5863H57.3836V41.985H39.7822Z" fill="#BBDEEB"/>
<path d="M43.3348 46.4842C41.4825 48.096 41.7572 53.8902 41.2906 53.5054C41.1737 51.2718 40.8292 46.1904 41.9917 44.865C43.5101 43.1339 48.4777 43.278 52.6848 43.4543C56.892 43.6307 55.4896 45.5704 53.5613 45.394C51.6331 45.2177 45.7297 44.4004 43.3348 46.4842Z" fill="#BBDEEB" fill-opacity="0.46"/>
<path d="M51.768 53.4503C53.6964 51.7155 55.3839 46.8762 55.8697 47.2905C55.9914 49.6947 56.3501 55.1643 55.1397 56.591C53.5589 58.4543 48.3872 58.2992 44.0072 58.1094C39.6272 57.9196 41.0872 55.8317 43.0947 56.0215C45.1022 56.2113 49.2747 55.6933 51.768 53.4503Z" fill="#BBDEEB" fill-opacity="0.46"/>
<path d="M54.1506 55.4775C53.7274 55.8694 52.6209 56.6503 51.5803 56.639C50.2796 56.6249 51.7691 58.798 54.1506 55.4775Z" fill="white"/>
<path d="M39.7822 59.5863H57.3836V77.1877H42.1291C40.8329 77.1877 39.7822 76.1369 39.7822 74.8408V59.5863Z" fill="#3FA3C8"/>
<path fill-rule="evenodd" clip-rule="evenodd" d="M57.188 59.7819H39.9778V74.8408C39.9778 76.0289 40.941 76.9921 42.1291 76.9921H57.188V59.7819ZM39.7822 59.5863V74.8408C39.7822 76.1369 40.8329 77.1877 42.1291 77.1877H57.3836V59.5863H39.7822Z" fill="#BBDEEB"/>
<path d="M43.3348 64.0856C41.4825 65.6973 41.7572 71.4916 41.2906 71.1067C41.1737 68.8731 40.8292 63.7918 41.9917 62.4663C43.5101 60.7352 48.4777 60.8793 52.6848 61.0557C56.892 61.232 55.4896 63.1717 53.5613 62.9953C51.6331 62.819 45.7297 62.0018 43.3348 64.0856Z" fill="#BBDEEB" fill-opacity="0.46"/>
<path d="M51.768 71.0516C53.6964 69.3168 55.3839 64.4775 55.8697 64.8918C55.9914 67.296 56.3501 72.7656 55.1397 74.1923C53.5589 76.0557 48.3872 75.9005 44.0072 75.7107C39.6272 75.5209 41.0872 73.433 43.0947 73.6228C45.1022 73.8127 49.2747 73.2946 51.768 71.0516Z" fill="#BBDEEB" fill-opacity="0.46"/>
<path d="M54.1506 73.0788C53.7274 73.4707 52.6209 74.2516 51.5803 74.2403C50.2796 74.2262 51.7691 76.3993 54.1506 73.0788Z" fill="white"/>
<path d="M39.7822 9.12907C39.7822 7.83295 40.8329 6.78223 42.1291 6.78223H57.3836V24.3836H39.7822V9.12907Z" fill="#BBDEEB"/>
<path fill-rule="evenodd" clip-rule="evenodd" d="M57.188 6.9778H42.1291C40.941 6.9778 39.9778 7.94096 39.9778 9.12907V24.188H57.188V6.9778ZM42.1291 6.78223C40.8329 6.78223 39.7822 7.83295 39.7822 9.12907V24.3836H57.3836V6.78223H42.1291Z" fill="#3FA3C8"/>
<path d="M42.7479 10.6948C40.8956 12.3065 41.1703 18.1008 40.7037 17.7159C40.5868 15.4824 40.2423 10.401 41.4048 9.07559C42.9232 7.34446 47.8908 7.48859 52.0979 7.66492C56.305 7.84125 54.9027 9.78093 52.9744 9.6046C51.0461 9.42827 45.1428 8.61101 42.7479 10.6948Z" fill="#3FA3C8" fill-opacity="0.4"/>
<path d="M52.3549 18.8342C54.2833 17.0994 55.9709 12.2601 56.4566 12.6744C56.5783 15.0786 56.937 20.5482 55.7266 21.9749C54.1458 23.8383 48.9741 23.6831 44.5941 23.4933C40.2141 23.3035 41.6741 21.2156 43.6816 21.4054C45.6891 21.5952 49.8616 21.0772 52.3549 18.8342Z" fill="#3FA3C8" fill-opacity="0.4"/>
<path d="M54.9328 21.057C54.5096 21.4488 53.4031 22.2297 52.3625 22.2185C51.0618 22.2044 52.5513 24.3774 54.9328 21.057Z" fill="white"/>
<path d="M48.5929 15.2525C48.5695 15.9272 48.546 16.5961 48.5284 17.2708C48.5225 17.5759 48.5343 17.881 48.5401 18.1802C48.546 18.3914 48.6751 18.5381 48.8628 18.5498C49.0506 18.5557 49.2031 18.409 49.2207 18.2095C49.2324 18.0452 49.2324 17.8868 49.2324 17.7225C49.2383 17.259 49.2442 16.7955 49.2559 16.332C49.2618 15.7688 49.2794 15.2055 49.2794 14.6423C49.2852 14.3959 49.074 14.2081 48.8276 14.214C48.5401 14.2199 48.1001 14.5367 48.0003 14.8124C47.9593 14.9357 47.9945 15.0647 48.0884 15.1469C48.1881 15.2231 48.3172 15.2349 48.4345 15.1645C48.4814 15.1293 48.5284 15.0882 48.5929 15.0295C48.5929 15.1175 48.5988 15.1879 48.5929 15.2525Z" fill="#3FA3C8"/>
<path d="M18.8567 71.5894H26.5341C28.141 71.5894 29.4504 70.2706 29.4504 68.652V64.1958C29.4504 62.5772 28.141 61.2583 26.5341 61.2583H18.8567C17.2498 61.2583 15.9404 62.5772 15.9404 64.1958V68.652C15.9404 70.2706 17.2498 71.5894 18.8567 71.5894Z" fill="#C32F43"/>
<path d="M14.7151 66.0265C17.6064 66.0265 20.1016 64.2018 20.2205 64.1037C20.7552 63.7113 20.874 62.9462 20.4581 62.4164C20.062 61.8867 19.2897 61.7689 18.755 62.181C18.7154 62.2202 16.2598 63.986 13.9625 63.5348C12.8733 63.3189 11.9822 62.6322 11.2296 61.4354C10.8732 60.8664 10.1206 60.6898 9.56613 61.043C8.99183 61.3962 8.81359 62.1417 9.17006 62.6911C10.2791 64.4765 11.7445 65.5556 13.5268 65.9088C13.9229 65.9873 14.319 66.0265 14.7151 66.0265Z" fill="#DDEEFD"/>
<path d="M30.6428 52.9139C34.154 52.9139 37.0004 50.2009 37.0004 46.8543C37.0004 43.5077 34.154 40.7947 30.6428 40.7947C27.1316 40.7947 24.2852 43.5077 24.2852 46.8543C24.2852 50.2009 27.1316 52.9139 30.6428 52.9139Z" fill="#B12819"/>
<path d="M14.3508 52.1192C17.862 52.1192 20.7084 49.4062 20.7084 46.0596C20.7084 42.713 17.862 40 14.3508 40C10.8396 40 7.99316 42.713 7.99316 46.0596C7.99316 49.4062 10.8396 52.1192 14.3508 52.1192Z" fill="#B12819"/>
<path d="M17.5303 63.9494V70.4877C17.5303 70.9462 17.7087 71.3848 18.0259 71.7635C18.7396 72.6007 20.1273 73.1788 21.733 73.1788H22.4864C24.1913 73.1788 25.6583 72.521 26.3125 71.5841C26.5504 71.2452 26.6693 70.8864 26.6693 70.4877V63.9494C26.6693 62.4743 24.786 61.2583 22.4666 61.2583H21.7132C19.4334 61.2583 17.5303 62.4743 17.5303 63.9494Z" fill="#DDEEFD"/>
<path d="M24.6076 76.3576L23.4471 73.2099C23.1521 73.2297 21.0475 73.2297 20.7918 73.2099L19.6314 76.3576L18.0382 76.0804C16.9958 72.2003 17.8809 70.7947 17.8809 70.7947H26.3187C26.3187 70.7947 27.2039 72.2003 26.1614 76.0804L24.6076 76.3576Z" fill="#FFC8AF"/>
<path d="M26.6693 74.7682C26.5911 75.1106 26.3957 76.1188 26.2784 76.5182L24.8714 76.5563L24.2852 74.7682H26.6693V74.7682Z" fill="#DDEEFD"/>
<path d="M17.9268 74.7682H20.3109L19.7001 76.9536L18.3602 76.8935C18.242 76.4724 17.9859 75.1291 17.9268 74.7682Z" fill="#DDEEFD"/>
<path d="M22.2979 60.3214V62.053L24.0859 61.413C24.0859 61.413 23.2022 61.1683 23.4077 60.2649L22.2979 60.3214Z" fill="#FF9D80"/>
<path d="M22.2978 60.3214V62.053L20.5098 61.413C20.5098 61.413 21.3935 61.1683 21.188 60.2649L22.2978 60.3214Z" fill="#FF9D80"/>
<path d="M30.1452 56.49C31.1876 56.49 32.0326 55.645 32.0326 54.6026C32.0326 53.5602 31.1876 52.7152 30.1452 52.7152C29.1028 52.7152 28.2578 53.5602 28.2578 54.6026C28.2578 55.645 29.1028 56.49 30.1452 56.49Z" fill="#FF9D80"/>
<path d="M14.2517 56.49C15.2941 56.49 16.1391 55.645 16.1391 54.6026C16.1391 53.5602 15.2941 52.7152 14.2517 52.7152C13.2093 52.7152 12.3643 53.5602 12.3643 54.6026C12.3643 55.645 13.2093 56.49 14.2517 56.49Z" fill="#FF9D80"/>
<path d="M16.5734 48.1458V49.2203H28.617C29.2717 50.3148 29.6487 51.5684 29.6487 52.9215V56.1253C29.6487 58.6127 27.6051 60.6623 25.125 60.6623H18.875C16.6131 60.6623 14.748 58.8117 14.748 56.5233V52.9215C14.748 51.0908 15.4226 49.4193 16.5734 48.1458Z" fill="#FFC8AF"/>
<path opacity="0.51" d="M26.9672 58.2781C27.6804 58.2781 28.2586 57.6999 28.2586 56.9867C28.2586 56.2735 27.6804 55.6953 26.9672 55.6953C26.254 55.6953 25.6758 56.2735 25.6758 56.9867C25.6758 57.6999 26.254 58.2781 26.9672 58.2781Z" fill="#FF9D80"/>
<path opacity="0.51" d="M17.6293 58.2781C18.3425 58.2781 18.9207 57.6999 18.9207 56.9867C18.9207 56.2735 18.3425 55.6953 17.6293 55.6953C16.9161 55.6953 16.3379 56.2735 16.3379 56.9867C16.3379 57.6999 16.9161 58.2781 17.6293 58.2781Z" fill="#FF9D80"/>
<path fill-rule="evenodd" clip-rule="evenodd" d="M22.9294 56.5958C22.9807 56.6152 23.0066 56.6726 22.9872 56.7239C22.8297 57.1399 22.4472 57.3583 22.0556 57.3819C21.6647 57.4055 21.2505 57.2361 21.0215 56.862C20.9928 56.8152 21.0075 56.7541 21.0543 56.7254C21.1011 56.6968 21.1623 56.7115 21.1909 56.7583C21.376 57.0606 21.7146 57.2034 22.0437 57.1836C22.372 57.1638 22.6765 56.9834 22.8014 56.6536C22.8208 56.6022 22.8781 56.5764 22.9294 56.5958Z" fill="#3F2732"/>
<path d="M24.4837 55.8941C24.8129 55.8941 25.0797 55.6272 25.0797 55.2981C25.0797 54.9689 24.8129 54.702 24.4837 54.702C24.1545 54.702 23.8877 54.9689 23.8877 55.2981C23.8877 55.6272 24.1545 55.8941 24.4837 55.8941Z" fill="#3F2732"/>
<path d="M19.3177 55.8941C19.6469 55.8941 19.9137 55.6272 19.9137 55.2981C19.9137 54.9689 19.6469 54.702 19.3177 54.702C18.9885 54.702 18.7217 54.9689 18.7217 55.2981C18.7217 55.6272 18.9885 55.8941 19.3177 55.8941Z" fill="#3F2732"/>
<path d="M29.6068 49.2713C30.1806 50.0347 30.4379 50.9742 30.0817 51.9138C29.7453 52.7555 28.835 53.3231 27.9842 53.1469C27.4895 53.0491 27.0343 52.7163 26.5396 52.5989C25.946 52.4423 25.3128 52.5597 24.7192 52.4227C24.0068 52.2661 23.3934 51.6985 23.1361 50.9938C22.8789 51.4636 22.3644 51.7376 21.8499 51.7376C21.3354 51.7572 20.8407 51.5419 20.4054 51.2287C20.1877 51.8746 19.693 52.364 19.1587 52.7163C18.3474 53.2644 17.3976 53.6167 16.428 53.695C15.6563 53.7537 14.8252 53.6363 14.2909 53.0491C13.6181 52.3053 13.6775 51.1308 13.9347 50.1325C14.192 49.0951 14.6867 48.0185 15.6167 47.5683C16.428 47.1768 17.3976 47.3922 18.2683 47.6075C19.5743 47.9402 20.9199 48.2926 22.2654 48.2338C23.1361 48.1947 24.0068 47.9794 24.8775 47.8424C25.7481 47.6858 26.6386 47.6075 27.5092 47.8032C28.2612 48.0185 29.0725 48.5666 29.6068 49.2713Z" fill="#D6402E"/>
<path fill-rule="evenodd" clip-rule="evenodd" d="M22.2406 54.0067C22.2954 54.0041 22.3419 54.0464 22.3446 54.1012L22.3976 55.2044C22.3992 55.2387 22.3831 55.2713 22.3549 55.2909C22.3267 55.3104 22.2905 55.314 22.259 55.3004L21.7033 55.061L22.0706 55.8522C22.0937 55.9019 22.072 55.961 22.0223 55.9841C21.9725 56.0072 21.9134 55.9856 21.8903 55.9358L21.4135 54.9086C21.3962 54.8713 21.4037 54.8271 21.4324 54.7976C21.4611 54.768 21.5051 54.7593 21.5429 54.7756L22.1915 55.055L22.1461 54.1107C22.1435 54.0559 22.1858 54.0093 22.2406 54.0067Z" fill="#D6402E"/>
<path fill-rule="evenodd" clip-rule="evenodd" d="M26.7509 48.3828C26.4088 48.4275 26.0937 48.1885 26.0453 47.846C25.9967 47.5014 26.2366 47.1826 26.5812 47.134L26.6693 47.7579C26.5812 47.134 26.5816 47.1339 26.582 47.1338L26.5828 47.1337L26.5845 47.1335L26.5885 47.133L26.5984 47.1317C26.6059 47.1308 26.6152 47.1298 26.6261 47.1287C26.648 47.1264 26.6766 47.124 26.7113 47.1221C26.7807 47.1181 26.8751 47.116 26.9892 47.1213C27.2168 47.1319 27.528 47.1722 27.8775 47.29C28.5921 47.531 29.4223 48.0825 30.0132 49.2523C30.1702 49.5629 30.0455 49.942 29.7349 50.0989C29.4243 50.2558 29.0452 50.1312 28.8883 49.8205C28.4555 48.9637 27.8949 48.626 27.4748 48.4843C27.2569 48.4108 27.0647 48.3865 26.9307 48.3803C26.8641 48.3772 26.8131 48.3787 26.7824 48.3804C26.767 48.3813 26.7569 48.3822 26.7525 48.3826C26.7518 48.3827 26.7513 48.3828 26.7509 48.3828Z" fill="#F99621"/>
<path fill-rule="evenodd" clip-rule="evenodd" d="M17.0206 46.5378C17.021 46.5378 17.0213 46.5379 16.9336 47.1593L17.0213 46.5379C17.366 46.5865 17.6059 46.9053 17.5572 47.25C17.5089 47.5924 17.1938 47.8315 16.8517 47.7867C16.8513 47.7867 16.8507 47.7866 16.8501 47.7866C16.8457 47.7861 16.8355 47.7852 16.8202 47.7843C16.7894 47.7826 16.7385 47.7812 16.6719 47.7842C16.5379 47.7905 16.3457 47.8148 16.1277 47.8883C15.7076 48.0299 15.1471 48.3676 14.7143 49.2245C14.5573 49.5351 14.1783 49.6597 13.8677 49.5028C13.557 49.3459 13.4324 48.9669 13.5893 48.6562C14.1802 47.4864 15.0104 46.9349 15.7251 46.694C16.0745 46.5762 16.3858 46.5358 16.6134 46.5253C16.7275 46.52 16.8219 46.5221 16.8913 46.526C16.926 46.528 16.9546 46.5304 16.9765 46.5326C16.9874 46.5337 16.9966 46.5347 17.0041 46.5356L17.0141 46.5369L17.018 46.5374L17.0198 46.5377L17.0206 46.5378Z" fill="#F99621"/>
<path d="M10.637 59.0252C9.91701 58.9086 10.384 60.1723 10.4424 60.6584C10.2284 60.6778 10.0727 60.4445 9.99484 60.2306C9.83917 59.8612 9.6835 59.5113 9.50837 59.1419C9.39162 58.8891 9.17759 58.5975 8.94408 58.6947C8.74949 58.7725 8.71056 59.0058 8.73002 59.2196C8.74948 59.4529 8.78841 59.7057 8.86624 59.939C8.69111 59.764 8.51597 59.589 8.34084 59.4141C8.16571 59.2391 7.91276 59.0447 7.69872 59.1613C7.5625 59.2391 7.52357 59.4335 7.56249 59.589C7.60141 59.7446 7.69872 59.8807 7.79601 59.9973C7.9906 60.2501 8.18519 60.5028 8.47707 60.6584C8.20464 60.4639 7.89329 60.3084 7.56249 60.1917C7.38736 60.1334 7.17332 60.0945 7.05657 60.2306C6.9009 60.425 7.0955 60.6972 7.29009 60.8333C7.56251 61.0472 7.85439 61.2222 8.16573 61.3583C7.9906 61.2416 7.77654 61.1833 7.56249 61.2222C7.50411 61.2222 7.44575 61.2416 7.40683 61.2805C7.25116 61.3972 7.40682 61.6499 7.54304 61.786C7.93221 62.1554 8.34086 62.5248 8.84679 62.7192C9.72243 63.0692 10.5981 62.6803 10.9483 61.8443C11.1235 61.436 11.2013 60.9889 11.1624 60.5417C11.0845 59.3168 10.637 59.0252 10.637 59.0252Z" fill="#FFC8AF"/>
<path d="M17.6266 68.0132H26.8501L28.0601 74.3708L15.7422 74.3106L17.6266 68.0132Z" fill="#512C3F"/>
<path d="M23.3402 68.1584L24.017 70.9979C24.236 71.9378 25.1517 72.5177 26.0874 72.3577L32.1394 71.2579C33.1149 71.0779 33.7718 70.1381 33.5927 69.1382L33.0751 66.3187C32.8959 65.3389 31.9602 64.699 30.9848 64.8589L27.2222 65.5188L25.4106 65.8388L24.7735 65.9588C23.7582 66.1187 23.1013 67.1386 23.3402 68.1584Z" fill="#F39D22"/>
<path fill-rule="evenodd" clip-rule="evenodd" d="M31.7856 66.4397C31.8866 66.5224 31.9014 66.6713 31.8187 66.7723L30.352 68.5632C29.7483 69.3181 28.7437 69.6159 27.8481 69.341L24.8133 68.435C24.6882 68.3977 24.6171 68.266 24.6545 68.141C24.6918 68.0159 24.8235 67.9448 24.9485 67.9821L27.9861 68.889C28.6981 69.1078 29.5018 68.8705 29.9836 68.2671L29.9854 68.2648L31.453 66.4728C31.5357 66.3718 31.6846 66.357 31.7856 66.4397Z" fill="#F67300"/>
<path d="M29.673 70.3973C30.2494 70.3973 30.7463 69.9965 30.8655 69.3953C31.2829 67.311 30.945 65.5274 29.8917 64.1446C28.0632 61.7397 24.7441 61.4792 24.605 61.4592C23.9293 61.4191 23.3529 61.9201 23.2932 62.6015C23.2535 63.2829 23.7504 63.864 24.4261 63.9242C24.4659 63.9242 26.8111 64.1446 27.9638 65.6477C28.5799 66.4693 28.7588 67.5515 28.4806 68.9343C28.3414 69.5957 28.7787 70.257 29.4345 70.3773C29.514 70.3973 29.5935 70.3973 29.673 70.3973Z" fill="#DDEEFD"/>
<path d="M30.3559 69.9393L28.4083 68.808C28.4083 68.808 26.6729 70.1377 27.907 71.4874C27.907 71.4874 28.2541 72.6583 29.5653 72.579C30.8765 72.4797 31.2429 70.753 30.3559 69.9393Z" fill="#FFC8AF"/>
<path d="M24.8805 61.2583C24.8607 62.0203 24.205 62.649 23.3905 62.649C22.5759 62.649 21.9203 62.0394 21.9004 61.2583H24.8805Z" fill="#B1DBFC"/>
<path d="M22.695 61.2583C22.6751 62.0203 22.0195 62.649 21.2049 62.649C20.3903 62.649 19.7347 62.0394 19.7148 61.2583H22.695Z" fill="#B1DBFC"/>
<path d="M22.8046 62.1474L24.8162 64.4771C24.9168 64.5955 24.8967 64.7732 24.776 64.8719L23.4885 65.9577C23.3276 66.0959 23.0661 66.017 23.0259 65.7998L22.3017 62.3843C22.2815 62.2659 22.3419 62.1277 22.4626 62.0685C22.5833 62.029 22.7241 62.0685 22.8046 62.1474Z" fill="#3F2732"/>
<path d="M21.7909 62.1474L19.7792 64.4771C19.6787 64.5955 19.6988 64.7732 19.8195 64.8719L21.1069 65.9577C21.2679 66.0959 21.5294 66.017 21.5696 65.7998L22.2938 62.3843C22.3139 62.2659 22.2536 62.1277 22.1329 62.0685C22.0122 62.029 21.8714 62.0685 21.7909 62.1474Z" fill="#3F2732"/>
<path d="M22.2977 66.8212C22.5185 66.8212 22.6951 66.6668 22.6951 66.4738V63.7911C22.6951 63.5981 22.5185 63.4437 22.2977 63.4437C22.077 63.4437 21.9004 63.5981 21.9004 63.7911V66.4738C21.9004 66.6475 22.077 66.8212 22.2977 66.8212Z" fill="#3F2732"/>
<path d="M22.1988 63.8411C22.4663 63.8411 22.6955 63.6005 22.6955 63.3198V62.1769C22.6955 61.8962 22.4663 61.6556 22.1988 61.6556C21.9314 61.6556 21.7021 61.8962 21.7021 62.1769V63.3198C21.7021 63.6005 21.9123 63.8411 22.1988 63.8411Z" fill="#5B394A"/>
<path d="M19.7676 76.755L19.9064 78.0151C19.9659 78.5073 19.6487 78.9404 19.2124 78.9404L16.8329 78.9207C16.5553 78.9207 16.4363 78.527 16.6346 78.3301L18.2804 76.755H19.7676Z" fill="#3F2732"/>
<path d="M18.6222 77.9471C18.78 77.9471 18.9202 77.792 18.9202 77.6176V76.6872C18.9202 76.5127 18.78 76.3577 18.6222 76.3577C18.4645 76.3577 18.3242 76.5127 18.3242 76.6872V77.6369C18.3242 77.8114 18.4645 77.9471 18.6222 77.9471Z" fill="#DDEEFD"/>
<path d="M19.7154 76.755H18.126V77.351H19.7154V76.755Z" fill="#3F2732"/>
<path d="M24.6294 76.755L24.4906 78.0151C24.4311 78.5073 24.7484 78.9404 25.1846 78.9404L27.5641 78.9207C27.8417 78.9207 27.9607 78.527 27.7624 78.3301L26.1166 76.755H24.6294Z" fill="#3F2732"/>
<path d="M25.5763 77.9471C25.4186 77.9471 25.2783 77.792 25.2783 77.6176V76.6872C25.2783 76.5127 25.4186 76.3577 25.5763 76.3577C25.7341 76.3577 25.8743 76.5127 25.8743 76.6872V77.6369C25.8743 77.8114 25.7341 77.9471 25.5763 77.9471Z" fill="#DDEEFD"/>
<path d="M26.271 76.755H24.6816V77.351H26.271V76.755Z" fill="#3F2732"/>
<path fill-rule="evenodd" clip-rule="evenodd" d="M20.6518 70.0014C20.5436 69.8142 20.3044 69.7492 20.1162 69.8563C19.9271 69.9638 19.861 70.2042 19.9686 70.3933L20.3109 70.1986C19.9686 70.3933 19.9687 70.3935 19.9688 70.3937L19.969 70.3942L19.9696 70.3951L19.9709 70.3974L19.9744 70.4033C19.977 70.4078 19.9804 70.4134 19.9846 70.4202C19.993 70.4337 20.0045 70.4516 20.0194 70.4737C20.0491 70.5177 20.0924 70.578 20.1514 70.6516C20.2693 70.7988 20.4498 70.9987 20.7097 71.2275C21.2302 71.6857 22.0652 72.2559 23.3478 72.7514C23.5507 72.8298 23.7787 72.7289 23.8571 72.526C23.9355 72.3231 23.8346 72.095 23.6317 72.0167C22.4332 71.5536 21.6788 71.0312 21.2302 70.6362C21.0055 70.4385 20.8564 70.2718 20.766 70.159C20.7208 70.1026 20.6902 70.0595 20.6721 70.0327C20.6631 70.0193 20.6571 70.01 20.6541 70.0051C20.6529 70.0032 20.6521 70.0019 20.6518 70.0014Z" fill="#84446A"/>
<path d="M18.0269 67.0198C18.5127 67.0198 18.9209 66.63 18.9209 66.1231V62.7509C18.9209 62.2636 18.5322 61.8542 18.0269 61.8542C17.541 61.8542 17.1328 62.2441 17.1328 62.7509V66.1231C17.1522 66.6105 17.541 67.0198 18.0269 67.0198Z" fill="#DD5465"/>
<path d="M25.4766 62.355V65.8278L27.2646 65.5084V62.355C27.2646 61.8561 26.8717 61.4569 26.3608 61.4569C26.125 61.4569 25.8892 61.5567 25.732 61.7164C25.5748 61.876 25.4766 62.0956 25.4766 62.355Z" fill="#DD5465"/>
</g>
<defs>
<clipPath id="clip0_136_1017">
<rect width="150" height="83.7054" fill="white"/>
</clipPath>
</defs>
</svg>
