<svg width="460" height="72" viewBox="0 0 460 72" fill="none" xmlns="http://www.w3.org/2000/svg">
<path d="M17.0912 71.0603C14.9682 71.0772 12.8923 70.4352 11.1496 69.2226C9.40689 68.0101 8.08325 66.2868 7.36116 64.2903C7.10116 63.5903 6.87115 62.8103 6.65115 62.0303L6.33116 60.9303C5.33783 57.1037 4.33782 53.2603 3.33116 49.4003C2.37116 45.7337 1.4145 42.067 0.461163 38.4003C0.218376 37.4161 0.0644179 36.4121 0.00115662 35.4003V35.2003V34.9803C-0.0788434 30.2203 4.00116 25.4103 9.13116 24.2803L10.6312 23.9303C11.9812 23.6203 13.3412 23.3103 14.7212 23.0403C16.1575 22.7573 17.6172 22.61 19.0812 22.6003C22.5854 22.6159 26.0121 23.6334 28.9569 25.5328C31.9018 27.4323 34.2419 30.1344 35.7012 33.3203C39.2812 42.3803 35.7012 50.8203 26.5312 54.8603L26.1612 55.0203L26.7812 57.5903C26.9612 58.3103 27.1212 59.0203 27.2412 59.7503C27.6147 62.2071 27.0361 64.7137 25.6236 66.7582C24.211 68.8026 22.0712 70.2306 19.6412 70.7503C18.8067 70.956 17.9505 71.0601 17.0912 71.0603Z" fill="#4B96C9"/>
<path d="M39.0712 66.4202C36.7285 66.4481 34.4455 65.6812 32.5948 64.2446C30.7442 62.808 29.435 60.7866 28.8812 58.5101L28.2312 55.6501L23.9712 37.4001C23.5612 35.5801 23.2912 33.8601 23.0212 32.2001C22.0212 26.2001 24.9612 21.7802 31.0212 20.0302C33.9469 19.0895 36.9635 18.4593 40.0212 18.1501C40.4712 18.1501 40.8612 18.1501 41.2512 18.1501C43.7244 18.167 46.1676 18.6934 48.4284 19.6965C50.6892 20.6995 52.719 22.1578 54.3912 23.9801C55.9092 25.5548 57.0526 27.4515 57.7365 29.5291C58.4204 31.6067 58.6271 33.8117 58.3412 35.9801C58.0223 38.3731 57.1603 40.6615 55.8212 42.6702C56.2812 43.4002 56.7512 44.1301 57.2012 44.8601C57.4612 45.2701 57.7312 45.6801 58.0012 46.0901C58.6712 47.0901 59.4212 48.2802 60.1112 49.5502C61.3299 51.6558 61.6981 54.1476 61.1405 56.5157C60.5828 58.8839 59.1415 60.9496 57.1112 62.2901C55.3445 63.5023 53.2537 64.1539 51.1112 64.1601C49.6281 64.1581 48.1611 63.8518 46.8012 63.2601C45.2882 64.8079 43.3373 65.8549 41.2112 66.2601H41.0212C40.3772 66.3717 39.7246 66.4252 39.0712 66.4202Z" fill="#4B96C9"/>
<path d="M61.4014 62.9803C58.8669 62.9915 56.4041 62.1389 54.4191 60.5628C52.434 58.9868 51.0452 56.7815 50.4815 54.3103C48.9615 47.1503 47.4815 39.8703 45.9715 32.6203L45.2815 29.2503C45.0943 28.2617 45.0105 27.2563 45.0315 26.2503V26.0903C45.1615 21.2903 48.4714 17.5303 53.4614 16.5203C57.5614 15.7403 62.2915 14.8803 67.1415 14.1403C68.2951 13.9495 69.4622 13.8525 70.6315 13.8503H71.8115C73.994 13.8967 76.1001 14.6631 77.8019 16.0303C79.5037 17.3976 80.706 19.289 81.2215 21.4103C81.6336 23.4648 81.3489 25.598 80.4126 27.4725C79.4762 29.3471 77.9416 30.8559 76.0514 31.7603C77.1003 33.0328 77.7907 34.5621 78.0514 36.1903C78.3344 37.8033 78.1719 39.4629 77.5814 40.9903C79.5535 41.3014 81.3861 42.1996 82.8399 43.5678C84.2938 44.9361 85.3015 46.7107 85.7315 48.6603C86.0092 49.9695 86.002 51.3231 85.7104 52.6293C85.4188 53.9354 84.8496 55.1636 84.0415 56.2303C82.3789 58.3651 79.9718 59.7936 77.3014 60.2303C72.5914 61.1403 67.9315 62.0203 63.2215 62.7503C62.6223 62.8779 62.0135 62.9548 61.4014 62.9803Z" fill="#4B96C9"/>
<path d="M89.3715 57.8303C85.6615 57.8303 78.0915 55.8303 75.4415 53.7303C74.0192 52.6079 72.9479 51.1018 72.3543 49.39C71.7607 47.6782 71.6695 45.8322 72.0915 44.0703C72.4806 42.3621 73.3117 40.7862 74.5015 39.5003C72.2816 37.6567 70.6165 35.2336 69.6915 32.5003C68.3384 28.2021 68.7344 23.5438 70.7936 19.5358C72.8529 15.5277 76.4093 12.4931 80.6915 11.0903C85.4127 9.62844 90.5099 9.98514 94.9815 12.0903C96.7073 12.9575 98.1925 14.2372 99.3054 15.8159C100.418 17.3945 101.125 19.2234 101.361 21.1403C101.615 23.5148 100.953 25.8967 99.5115 27.8003C102.866 30.0892 105.22 33.5737 106.09 37.5408C106.96 41.5079 106.281 45.6575 104.191 49.1403C102.816 51.4384 100.944 53.3992 98.7115 54.8787C96.4791 56.3583 93.9437 57.319 91.2915 57.6903C90.6566 57.7916 90.0143 57.8384 89.3715 57.8303Z" fill="#4B96C9"/>
<path d="M110.411 54.7304C107.408 54.727 104.473 53.8402 101.971 52.1804C99.7193 50.7249 97.7942 48.818 96.3174 46.5803C94.8405 44.3427 93.844 41.8229 93.3909 39.1804V38.9904C92.362 33.9405 91.8892 28.7932 91.9809 23.6404C92.2509 15.6404 97.1809 9.6404 105.481 7.2904C106.994 6.87926 108.553 6.66747 110.121 6.6604C114.179 6.67018 118.093 8.1681 121.121 10.8704C122.465 12.0205 123.52 13.4705 124.201 15.1033C124.882 16.7361 125.17 18.506 125.041 20.2704C124.909 22.4311 124.063 24.4869 122.637 26.1156C121.211 27.7443 119.285 28.8539 117.161 29.2704C116.408 29.4293 115.64 29.5097 114.871 29.5104C114.45 29.512 114.029 29.4886 113.611 29.4404C113.661 29.9704 113.721 30.5304 113.791 31.0904C114.733 30.8152 115.71 30.6771 116.691 30.6804C117.22 30.681 117.748 30.7211 118.271 30.8004C119.797 31.0149 121.255 31.5669 122.54 32.4163C123.826 33.2657 124.905 34.391 125.701 35.7104C126.414 36.9211 126.831 38.2831 126.918 39.6855C127.005 41.0879 126.759 42.4909 126.201 43.7804C123.001 51.1104 117.781 53.6004 113.971 54.4004C112.8 54.6441 111.606 54.7548 110.411 54.7304Z" fill="#4B96C9"/>
<path d="M126.431 53.2302C125.852 53.2321 125.274 53.1886 124.701 53.1002C122.649 52.8302 120.73 51.9333 119.207 50.5318C117.684 49.1304 116.631 47.2928 116.191 45.2702C115.841 43.7002 115.471 41.9702 115.191 40.1502L114.971 38.4902C114.011 31.3902 113.065 24.2935 112.131 17.2002C111.96 15.7316 112.096 14.2434 112.531 12.8302C113.148 10.9525 114.308 9.29975 115.863 8.08058C117.419 6.8614 119.301 6.13051 121.271 5.98021C121.656 5.93696 122.044 5.9136 122.431 5.91021C124.755 5.90639 127.015 6.66912 128.861 8.08021C129.051 7.86021 129.241 7.65021 129.451 7.44021C131.439 5.51083 134.101 4.43429 136.871 4.44021C138.197 4.43962 139.512 4.6802 140.751 5.15021C142.499 5.80838 144.035 6.93091 145.193 8.39695C146.35 9.86299 147.086 11.617 147.321 13.4702C147.321 13.4702 147.581 15.7002 147.711 16.7402C147.961 18.8102 148.211 20.8902 148.421 22.9802C148.761 26.0802 149.061 29.2702 149.371 32.4602C149.521 34.0902 149.681 35.7202 149.841 37.3402C149.931 38.3402 149.981 39.2502 150.031 40.2002L150.091 41.4402C150.267 44.0344 149.426 46.5953 147.746 48.5797C146.066 50.5642 143.679 51.8162 141.091 52.0702H140.891C140.551 52.0702 140.211 52.0702 139.891 52.0702C137.706 52.083 135.57 51.4155 133.781 50.1602C132.836 51.153 131.694 51.9386 130.429 52.467C129.163 52.9955 127.802 53.2554 126.431 53.2302Z" fill="#4B96C9"/>
<path d="M155.141 50.16C153.038 50.1585 150.958 49.7296 149.025 48.8993C147.093 48.069 145.35 46.8547 143.901 45.33C140.874 42.2756 138.811 38.398 137.971 34.18C137.049 29.7466 136.743 25.2072 137.061 20.69C137.307 17.8612 137.981 15.0861 139.061 12.4601C141.421 6.81005 147.531 3.05005 154.261 3.05005C155.724 3.04971 157.182 3.22769 158.601 3.58005C165.111 5.15005 169.601 9.31005 171.211 15.2801C172.321 19.6901 172.661 29.07 172.421 32.11C172.201 35.59 171.631 39.3801 169.061 42.8901C167.597 45.0155 165.662 46.7751 163.408 48.0324C161.153 49.2896 158.639 50.0108 156.061 50.1401L155.141 50.16Z" fill="#4B96C9"/>
<path d="M177.791 48.6903C175.627 48.6783 173.489 48.2179 171.511 47.3385C169.533 46.459 167.76 45.1794 166.301 43.5803C163.353 40.4553 161.388 36.5328 160.651 32.3003C159.849 27.847 159.66 23.3048 160.091 18.8003C160.398 15.9799 161.13 13.2221 162.261 10.6203C164.711 5.18034 170.731 1.56035 177.261 1.56035C178.866 1.55683 180.464 1.77215 182.011 2.20034C188.471 3.92034 192.871 8.20034 194.311 14.2003C195.311 18.6303 195.411 28.0103 195.091 31.0503C194.781 34.5203 194.091 38.2903 191.451 41.7403C189.934 43.836 187.953 45.5534 185.664 46.7588C183.374 47.9642 180.838 48.6252 178.251 48.6903H177.791Z" fill="#4B96C9"/>
<path d="M195.331 48.0902C189.201 48.0902 184.571 43.8602 184.331 38.0402C183.891 29.9402 183.481 21.7302 183.071 13.5502L182.971 11.8202C182.906 10.3272 183.133 8.83581 183.641 7.43022C184.328 5.56016 185.546 3.93077 187.144 2.74099C188.742 1.55121 190.652 0.852512 192.641 0.730225H193.051H193.301C197.791 0.730225 201.791 3.45022 203.011 7.33022L203.101 7.63023C203.605 9.59568 203.92 11.6048 204.041 13.6302C204.294 18.4502 204.521 23.2336 204.721 27.9802L207.131 27.8202H207.971C209.403 27.8019 210.824 28.0712 212.15 28.6123C213.476 29.1534 214.68 29.9552 215.691 30.9702C216.991 32.2211 217.891 33.8286 218.279 35.5903C218.667 37.352 218.525 39.1891 217.871 40.8702C217.195 42.6744 216.019 44.2483 214.479 45.4068C212.94 46.5653 211.102 47.2604 209.181 47.4102C207.181 47.6202 204.981 47.7902 202.411 47.9202C200.191 48.0302 197.931 48.1102 195.701 48.1402L195.331 48.0902Z" fill="#4B96C9"/>
<path d="M252.971 47.8902C250.629 47.9492 248.341 47.1789 246.511 45.7152C244.681 44.2514 243.427 42.1884 242.971 39.8902C242.311 40.011 241.642 40.0713 240.971 40.0702C240.3 40.0715 239.63 40.0079 238.971 39.8802C238.456 42.1239 237.188 44.1233 235.377 45.5446C233.566 46.9659 231.323 47.7233 229.021 47.6902H228.851C227.525 47.7047 226.21 47.4572 224.98 46.9621C223.75 46.4669 222.63 45.7337 221.684 44.8046C220.738 43.8754 219.985 42.7687 219.468 41.5478C218.951 40.3269 218.68 39.016 218.671 37.6902C218.671 34.2502 218.671 30.8202 218.671 27.4402L218.911 14.5402C218.961 12.5402 219.121 10.6202 219.271 8.91016V8.68016C219.901 3.49016 224.081 0.000160802 229.661 0.000160802C230.175 -0.00234183 230.689 0.0243697 231.201 0.0801626C233.227 0.248998 235.174 0.94151 236.852 2.08978C238.53 3.23806 239.88 4.80267 240.771 6.63017L241.971 9.12016L243.401 6.61016C243.95 5.51761 244.673 4.52135 245.541 3.66016C247.289 1.95424 249.583 0.918917 252.019 0.736039C254.455 0.55316 256.877 1.23442 258.861 2.66016C260.215 3.56136 261.347 4.75903 262.17 6.16242C262.993 7.5658 263.486 9.13809 263.611 10.7602C263.719 11.8834 263.762 13.0119 263.741 14.1402L263.031 38.2802C262.964 40.789 261.945 43.1784 260.181 44.9632C258.416 46.7481 256.039 47.7945 253.531 47.8902H252.971Z" fill="#4B96C9"/>
<path d="M282.191 48.8501C280.126 48.8761 278.101 48.2769 276.382 47.1311C274.664 45.9853 273.332 44.3466 272.561 42.4301C272.051 41.1601 271.651 39.9401 271.271 38.7501C270.921 39.5401 270.571 40.3301 270.271 41.1201C269.884 42.0723 269.391 42.978 268.801 43.8201C267.83 45.1685 266.551 46.2664 265.072 47.0228C263.592 47.7792 261.953 48.1725 260.291 48.1701C258.852 48.1702 257.427 47.8811 256.101 47.3201C253.933 46.4682 252.154 44.8496 251.101 42.7719C250.049 40.6941 249.796 38.302 250.391 36.0501C250.732 34.8263 251.181 33.635 251.731 32.4901C254.871 25.3301 258.361 17.6501 262.661 8.42011L262.771 8.19011C263.121 7.51011 263.411 6.94011 263.701 6.42011C264.6 4.74205 265.936 3.33888 267.568 2.35984C269.201 1.3808 271.068 0.862516 272.971 0.860107C274.763 0.878123 276.525 1.32293 278.111 2.15766C279.697 2.9924 281.062 4.19304 282.091 5.66011C282.979 7.00874 283.653 8.48606 284.091 10.0401C286.091 16.0401 288.001 22.0401 289.741 27.5901L289.861 27.9901C290.631 30.6301 291.391 33.2301 292.101 35.8701L292.161 36.0801V36.2901C292.522 38.0204 292.501 39.8085 292.101 41.5301C291.545 43.6215 290.314 45.4711 288.601 46.7925C286.887 48.114 284.785 48.8337 282.621 48.8401L282.191 48.8501Z" fill="#4B96C9"/>
<path d="M321.681 51.7401C319.25 51.7415 316.893 50.9005 315.011 49.3601C314.595 49.022 314.204 48.6544 313.841 48.2601C311.999 49.5243 309.816 50.1975 307.581 50.1901C306.795 50.19 306.011 50.1096 305.241 49.9501L304.971 49.8901C303.599 49.5523 302.305 48.9511 301.161 48.1201C299.497 49.128 297.587 49.6574 295.641 49.6501C294.345 49.6554 293.058 49.4285 291.841 48.9801C289.757 48.2688 287.964 46.894 286.736 45.0662C285.508 43.2384 284.912 41.0584 285.041 38.8601C285.241 35.3401 285.501 31.7301 285.751 28.1201C285.901 25.9801 286.061 23.8301 286.211 21.6801H285.461C283.789 21.5939 282.159 21.1243 280.697 20.3076C279.236 19.4909 277.981 18.349 277.031 16.9701C276.149 15.6415 275.61 14.1145 275.463 12.5261C275.317 10.9377 275.567 9.33784 276.191 7.87011C277.061 5.95867 278.472 4.34365 280.249 3.22417C282.026 2.1047 284.092 1.52971 286.191 1.57011H286.851C295.031 1.88011 302.541 2.26011 309.671 2.74011C312.716 2.91027 315.579 4.24172 317.671 6.46011C319.567 4.80048 322.002 3.88703 324.521 3.89011C326.436 3.88188 328.317 4.38598 329.971 5.35011C331.573 6.26062 332.881 7.6087 333.744 9.23636C334.606 10.864 334.987 12.7038 334.841 14.5401C334.721 16.0801 334.601 17.4801 334.491 18.8801C334.261 21.8001 334.021 24.7001 333.741 27.6001C333.421 31.3501 332.991 35.1601 332.581 38.8501L332.161 42.6801C331.953 44.5644 331.214 46.3508 330.03 47.8309C328.845 49.3111 327.264 50.4241 325.471 51.0401C324.262 51.5048 322.977 51.7422 321.681 51.7401Z" fill="#4B96C9"/>
<path d="M353.561 55.1901C351.965 55.183 350.375 54.9951 348.821 54.6301C342.971 53.3401 338.731 50.2601 336.301 45.4701C334.862 42.643 334.324 39.4423 334.761 36.3001C335.341 31.7601 335.981 27.6501 336.761 23.7501C337.527 20.0375 339.25 16.59 341.761 13.7501C343.334 11.8238 345.318 10.2737 347.567 9.21302C349.816 8.15239 352.274 7.60812 354.761 7.62007C359.578 7.65724 364.188 9.58165 367.601 12.9801L367.751 13.1301L367.891 13.2901C368.98 14.4563 369.905 15.7649 370.641 17.1801C371.438 18.6717 371.808 20.3541 371.711 22.0424C371.614 23.7306 371.054 25.3595 370.091 26.7501C370.452 27.314 370.754 27.9139 370.991 28.5401L371.081 28.7601L371.141 28.9701C371.689 30.7112 371.843 32.5523 371.591 34.3601C371.481 35.0101 371.401 35.5701 371.311 36.1401C370.953 39.287 370.173 42.3714 368.991 45.3101C367.672 48.2886 365.505 50.8133 362.762 52.57C360.018 54.3267 356.819 55.2379 353.561 55.1901Z" fill="#4B96C9"/>
<path d="M387.781 60.3403H386.941C384.806 60.2396 382.758 59.4612 381.095 58.118C379.431 56.7748 378.239 54.9367 377.691 52.8703C377.341 51.5303 377.081 50.2503 376.841 49.0203C376.381 49.7803 375.931 50.5403 375.491 51.3103C374.988 52.2187 374.384 53.0674 373.691 53.8403C372.077 55.6032 369.914 56.7683 367.554 57.1459C365.193 57.5235 362.775 57.0916 360.691 55.9203C358.624 54.828 357.038 53.0047 356.243 50.8063C355.448 48.6078 355.501 46.192 356.391 44.0303C356.872 42.8796 357.451 41.7722 358.121 40.7203C362.181 33.8303 366.701 26.3703 371.911 17.9803L372.021 17.8103C372.401 17.2303 372.791 16.6603 373.171 16.1303C374.152 14.7236 375.455 13.5726 376.972 12.7739C378.49 11.9753 380.177 11.5522 381.891 11.5403C383.872 11.5593 385.811 12.1093 387.506 13.133C389.202 14.1567 390.592 15.6165 391.531 17.3603C392.27 18.7989 392.78 20.3443 393.041 21.9403C394.291 28.0203 395.471 34.0903 396.561 39.9403L396.741 41.0503C397.161 43.5203 397.571 45.9603 397.921 48.4403V48.6503V48.8603C398.071 50.6264 397.836 52.4041 397.231 54.0703C396.476 55.9493 395.168 57.5548 393.481 58.6744C391.793 59.794 389.806 60.3749 387.781 60.3403Z" fill="#4B96C9"/>
<path d="M418.711 66.15C418.317 66.1513 417.923 66.128 417.531 66.08H417.291C414.912 65.8042 412.716 64.6676 411.118 62.8845C409.519 61.1014 408.627 58.7949 408.611 56.4H408.381C407.079 56.4055 405.787 56.1681 404.571 55.7C403.618 57.8387 401.968 59.5913 399.89 60.6718C397.812 61.7523 395.43 62.0971 393.131 61.65C391.822 61.4457 390.567 60.9795 389.442 60.2792C388.316 59.5789 387.344 58.659 386.582 57.5743C385.82 56.4895 385.285 55.2624 385.008 53.9662C384.732 52.6699 384.719 51.3312 384.971 50.03C385.601 46.64 386.231 43.27 386.901 39.95C386.901 39.95 388.831 30.81 389.581 27.29C389.981 25.44 390.481 23.64 390.991 21.81L391.061 21.58C391.697 19.52 392.992 17.7255 394.746 16.4719C396.5 15.2183 398.616 14.5747 400.771 14.64C402.007 14.6486 403.235 14.827 404.421 15.17C406.377 15.6748 408.166 16.6867 409.605 18.1037C411.045 19.5206 412.086 21.2924 412.621 23.24L413.391 26.03C414.021 25.27 414.671 24.51 415.331 23.74C416.074 22.7669 416.965 21.9165 417.971 21.22C419.988 19.8338 422.428 19.2022 424.864 19.4363C427.3 19.6704 429.576 20.7551 431.291 22.5C432.461 23.6211 433.355 24.9986 433.902 26.524C434.448 28.0494 434.633 29.681 434.441 31.29C434.344 32.4192 434.177 33.5413 433.941 34.65L428.691 58.26C428.181 60.5183 426.912 62.5335 425.096 63.9693C423.28 65.4052 421.027 66.1749 418.711 66.15Z" fill="#4B96C9"/>
<path d="M442.661 71.7001C441.859 71.6995 441.058 71.6191 440.271 71.4601C435.531 70.5401 430.851 69.6201 426.271 68.5601C423.51 67.9798 421.088 66.3328 419.534 63.9772C417.98 61.6215 417.418 58.7476 417.971 55.9801C419.601 48.3601 421.301 40.6501 422.971 32.9801L423.411 30.9801C423.653 30.0133 423.988 29.0722 424.411 28.1701L424.491 28.0001C425.332 26.2042 426.677 24.6914 428.362 23.6457C430.046 22.6 431.999 22.0665 433.981 22.1101C434.713 22.1077 435.443 22.1747 436.161 22.3101C440.241 23.1101 444.941 24.0601 449.771 25.1901C451.294 25.5206 452.773 26.0239 454.181 26.6901C456.166 27.533 457.803 29.0286 458.821 30.9291C459.84 32.8295 460.179 35.0209 459.781 37.1401C459.295 39.2068 458.158 41.0627 456.538 42.4345C454.918 43.8064 452.9 44.6216 450.781 44.7601C451.211 46.3347 451.211 47.9956 450.781 49.5701C450.369 51.1672 449.54 52.6265 448.381 53.8002C449.564 54.5412 450.585 55.5141 451.381 56.6601C452.109 57.7053 452.612 58.8903 452.858 60.14C453.105 61.3897 453.089 62.677 452.811 63.9201C452.269 66.1844 450.964 68.1932 449.116 69.6097C447.268 71.0262 444.989 71.7643 442.661 71.7001Z" fill="#4B96C9"/>
<path d="M17.6714 50.6704C18.3414 53.4304 19.0414 56.2904 19.7414 59.1404C19.8714 59.6904 20.0014 60.2304 20.0914 60.7804C20.2297 61.5172 20.0721 62.2787 19.6529 62.9002C19.2336 63.5216 18.5864 63.9528 17.8514 64.1004C17.1015 64.2916 16.307 64.1916 15.6279 63.8205C14.9488 63.4494 14.4355 62.8348 14.1914 62.1004C13.8514 61.1704 13.6114 60.2304 13.3214 59.2804C11.3814 51.7904 9.38139 44.2804 7.44139 36.7604C7.29969 36.1355 7.20939 35.5 7.17139 34.8604C7.17139 33.2904 8.93139 31.3504 10.7414 30.9404C12.5514 30.5304 14.2814 30.1004 16.1014 29.7604C18.0402 29.3039 20.0629 29.3452 21.9814 29.8804C23.5274 30.2432 24.9665 30.9644 26.1824 31.9858C27.3984 33.0072 28.3571 34.3002 28.9814 35.7604C31.1714 41.3104 29.3914 46.0304 23.5214 48.6304C21.6114 49.4704 19.6714 49.9804 17.6714 50.6704ZM15.9714 44.8004C17.893 44.5613 19.7411 43.9134 21.3914 42.9004C22.0878 42.5112 22.652 41.9227 23.0114 41.2104C23.1998 40.6261 23.2635 40.0088 23.1985 39.3984C23.1335 38.7879 22.9412 38.1979 22.6339 37.6664C22.3267 37.1349 21.9114 36.6737 21.4149 36.3127C20.9184 35.9517 20.3517 35.6988 19.7514 35.5704C17.7514 35.0004 15.7514 35.8204 13.8814 36.2404C14.5414 39.1404 15.2314 41.9804 15.9714 44.8004Z" fill="#F8F2DE"/>
<path d="M46.8012 41.7802C48.2412 43.9802 49.6612 46.1802 51.0212 48.3402C51.9312 49.7802 52.9412 51.2102 53.7512 52.7202C54.1553 53.3596 54.2916 54.1323 54.1307 54.8714C53.9698 55.6105 53.5246 56.2566 52.8912 56.6702C52.5298 56.9189 52.1226 57.0933 51.6932 57.1832C51.2638 57.2731 50.8208 57.2767 50.39 57.1939C49.9592 57.1111 49.5491 56.9435 49.1837 56.7008C48.8182 56.4581 48.5047 56.1452 48.2612 55.7802C47.1912 54.2802 46.1012 52.7802 45.1012 51.1702C43.7812 49.0502 42.4612 46.9302 41.1712 44.7702C40.8412 44.1602 40.4512 44.2902 39.8412 44.5502L40.4712 47.4202C41.0212 50.2102 41.6212 52.9902 42.1312 55.7902C42.2367 56.198 42.2552 56.6234 42.1854 57.0388C42.1156 57.4543 41.9591 57.8503 41.7261 58.2012C41.4931 58.5522 41.1888 58.8501 40.833 59.0756C40.4773 59.3011 40.078 59.4492 39.6612 59.5102C38.8149 59.6567 37.9448 59.4654 37.238 58.9774C36.5312 58.4893 36.0441 57.7435 35.8812 56.9002C35.6712 55.9902 35.4812 55.1202 35.2712 54.2102C33.8579 48.1302 32.4345 42.0302 31.0012 35.9102C30.6412 34.3202 30.3812 32.7102 30.1212 31.1002C29.7112 28.5602 30.3912 27.3802 33.1212 26.5902C35.5653 25.7944 38.0855 25.2548 40.6412 24.9802C46.4912 24.5702 51.9912 29.9802 51.2312 34.9802C51.0824 36.2585 50.663 37.4904 50.0009 38.594C49.3387 39.6975 48.4491 40.6473 47.3912 41.3802C47.2012 41.4702 47.0312 41.6402 46.8012 41.7802ZM38.6912 38.3202L41.8512 37.1302C42.1541 36.981 42.4479 36.814 42.7312 36.6302C44.4112 35.5502 44.7312 33.8702 43.4512 32.4102C42.1712 30.9502 39.7312 30.6102 37.2712 31.7602C37.7412 33.9802 38.2112 36.0802 38.6912 38.3202Z" fill="#F8F2DE"/>
<path d="M59.3815 28.66C59.8515 31.13 60.3315 33.6 60.8115 36.12L62.1015 35.89C63.7315 35.56 65.3615 35.19 67.0115 34.96C69.0115 34.63 70.6715 35.68 70.9215 37.34C71.1715 39 70.0015 40.42 68.0215 40.75L62.2415 41.75C62.7615 44.45 63.2415 47.1 63.7715 49.75C65.5315 49.44 67.1615 49.21 68.7215 48.91C70.7215 48.57 72.6615 48.15 74.6715 47.83C75.0812 47.7128 75.5101 47.6779 75.9334 47.7272C76.3567 47.7765 76.766 47.9091 77.1378 48.1173C77.5097 48.3255 77.8366 48.6052 78.0998 48.9404C78.363 49.2755 78.5573 49.6594 78.6715 50.07C79.0215 51.76 77.9715 53.25 75.9415 53.62C71.2915 54.51 66.6415 55.39 62.0115 56.12C61.033 56.2552 60.039 56.0235 59.2211 55.4696C58.4032 54.9157 57.8192 54.0788 57.5815 53.12C55.8215 44.78 54.1015 36.37 52.3815 28.02C52.2877 27.4786 52.2475 26.9293 52.2615 26.38C52.2743 25.6319 52.5597 24.9143 53.0643 24.3619C53.5688 23.8095 54.2577 23.4603 55.0015 23.38C59.4215 22.55 63.8615 21.75 68.3115 21.07C69.3474 20.8859 70.4014 20.8255 71.4515 20.89C72.0807 20.8801 72.6947 21.0831 73.1939 21.4661C73.6931 21.8492 74.0482 22.3897 74.2015 23C74.3141 23.6251 74.2009 24.2699 73.8822 24.8194C73.5635 25.3688 73.06 25.7872 72.4615 26C71.8205 26.2889 71.1499 26.5069 70.4615 26.65C67.0115 27.31 63.5115 27.94 60.0115 28.59C59.7996 28.591 59.5885 28.6145 59.3815 28.66Z" fill="#F8F2DE"/>
<path d="M90.0513 50.92C87.8313 51.33 81.0513 49.21 80.0513 48.43C78.2413 46.97 79.0513 43.77 81.3213 43.19C82.1613 43.02 85.7113 44.36 86.6113 44.65C87.1685 44.8328 87.7579 44.8965 88.3413 44.8372C88.9247 44.7778 89.4892 44.5966 89.9982 44.3054C90.5072 44.0141 90.9493 43.6193 91.2961 43.1464C91.6429 42.6734 91.8865 42.133 92.0113 41.56C92.1343 41.0794 92.104 40.5723 91.9247 40.1097C91.7454 39.6472 91.4261 39.2522 91.0113 38.98C90.2639 38.4864 89.4533 38.0962 88.6013 37.82C87.1613 37.37 85.6013 37.13 84.1113 36.74C80.5413 35.74 77.7513 33.8 76.5913 30.36C74.8813 25.25 77.8613 19.12 82.9113 17.57C85.8911 16.6582 89.1053 16.9046 91.9113 18.26C93.3613 18.95 95.7413 22.48 92.9713 24.5C92.4633 24.8427 91.8516 24.9973 91.2418 24.937C90.632 24.8768 90.0624 24.6055 89.6313 24.17C89.0683 23.6456 88.3533 23.3136 87.5894 23.2219C86.8256 23.1302 86.0523 23.2836 85.3813 23.66C84.7746 23.9576 84.2765 24.4381 83.9572 25.0336C83.6379 25.6292 83.5134 26.3099 83.6013 26.98C83.6013 28.91 84.3013 29.7 86.3413 30.25C87.8813 30.63 89.5113 30.91 91.0613 31.36C94.4313 32.36 97.1313 34.08 98.4913 37.14C101.061 43.18 96.8613 49.98 90.0513 50.92Z" fill="#F8F2DE"/>
<path d="M108.231 39.5703C108.721 40.345 109.376 41.0009 110.151 41.4903C110.427 41.5893 110.722 41.6262 111.014 41.5985C111.306 41.5709 111.588 41.4793 111.841 41.3303C112.598 40.6589 113.288 39.9154 113.901 39.1103C114.22 38.5608 114.693 38.117 115.262 37.8343C115.831 37.5516 116.471 37.4424 117.101 37.5203C118.951 37.8203 120.161 39.5203 119.471 41.1303C118.111 44.2403 116.011 46.8703 112.341 47.6503C111.264 47.9115 110.144 47.946 109.052 47.7515C107.961 47.5569 106.922 47.1377 106.001 46.5203C104.53 45.5688 103.276 44.3185 102.32 42.8507C101.364 41.3828 100.727 39.7303 100.451 38.0003C99.5057 33.361 99.0532 28.6348 99.1011 23.9003C99.2811 18.8003 102.181 15.3103 107.461 13.8203C108.971 13.3854 110.567 13.3464 112.096 13.7072C113.625 14.068 115.035 14.8164 116.191 15.8803C116.76 16.3861 117.201 17.0196 117.477 17.7289C117.754 18.4382 117.858 19.203 117.781 19.9603C117.743 20.5736 117.503 21.157 117.097 21.6186C116.692 22.0802 116.144 22.3939 115.541 22.5103C114.915 22.6642 114.255 22.6121 113.661 22.3617C113.067 22.1113 112.569 21.676 112.241 21.1203C111.936 20.5764 111.435 20.1697 110.84 19.9837C110.245 19.7978 109.601 19.8466 109.041 20.1203C108.36 20.3054 107.743 20.6766 107.261 21.1924C106.779 21.7081 106.45 22.348 106.311 23.0403C106.135 24.4296 106.088 25.8324 106.171 27.2303C106.241 28.8903 106.911 37.2503 108.231 39.5703Z" fill="#F8F2DE"/>
<path d="M135.381 31.3104C135.228 31.3209 135.074 31.3209 134.921 31.3104L128.051 32.0004C128.076 32.4362 128.126 32.8702 128.201 33.3004C128.561 36.4404 129.031 39.6204 129.341 42.7704C129.397 43.5824 129.194 44.3913 128.761 45.0804C128.471 45.5747 128.029 45.9629 127.502 46.1879C126.974 46.4129 126.389 46.4628 125.831 46.3304C125.211 46.2547 124.631 45.9877 124.17 45.5664C123.709 45.1452 123.392 44.5908 123.261 43.9804C122.921 42.4304 122.581 40.8704 122.391 39.3504C121.391 31.6904 120.321 24.0304 119.331 16.3504C119.278 15.8084 119.333 15.2614 119.491 14.7404C119.662 14.1798 120.004 13.6863 120.468 13.3281C120.932 12.9698 121.495 12.7644 122.081 12.7404C122.679 12.6677 123.285 12.7767 123.82 13.0532C124.355 13.3296 124.794 13.7607 125.081 14.2904C125.426 14.9919 125.669 15.7396 125.801 16.5104C126.311 19.6404 126.731 22.8304 127.241 25.9504C127.241 26.1404 127.241 26.2804 127.291 26.3704C129.801 26.1104 132.201 25.8704 134.711 25.6304C134.631 24.8804 134.571 24.2804 134.501 23.6304C134.231 20.5704 133.901 17.5204 133.731 14.4504C133.713 13.9233 133.828 13.4003 134.065 12.9294C134.303 12.4585 134.655 12.055 135.089 11.7561C135.524 11.4572 136.026 11.2725 136.551 11.219C137.076 11.1656 137.605 11.2452 138.091 11.4504C138.673 11.6789 139.177 12.0682 139.545 12.5729C139.914 13.0777 140.131 13.6768 140.171 14.3004C140.531 17.4004 140.931 20.4404 141.241 23.5504C141.761 28.3104 142.241 33.1304 142.661 37.9104C142.791 39.2004 142.811 40.4604 142.891 41.7604C142.951 42.1662 142.927 42.5801 142.821 42.9764C142.715 43.3728 142.529 43.7431 142.274 44.0646C142.019 44.3861 141.701 44.6519 141.339 44.8455C140.977 45.0391 140.58 45.1565 140.171 45.1904C139.751 45.2316 139.328 45.189 138.925 45.0651C138.522 44.9412 138.148 44.7384 137.824 44.4685C137.5 44.1987 137.233 43.8672 137.039 43.4932C136.844 43.1193 136.726 42.7104 136.691 42.2904C136.291 38.9704 135.881 35.6404 135.481 32.2904C135.451 31.9804 135.421 31.6804 135.381 31.3104Z" fill="#F8F2DE"/>
<path d="M165.191 31.6003C165.031 34.1203 164.721 36.7503 163.101 38.9603C162.285 40.221 161.181 41.2705 159.881 42.023C158.581 42.7756 157.121 43.2098 155.621 43.2903C154.414 43.3494 153.208 43.1417 152.09 42.6819C150.971 42.2222 149.968 41.5217 149.151 40.6303C147.039 38.5209 145.605 35.8295 145.031 32.9003C144.23 29.0722 143.954 25.1528 144.211 21.2503C144.399 19.0912 144.904 16.9716 145.711 14.9603C147.261 11.2703 152.111 9.06027 156.711 10.2203C161.621 11.4003 163.471 14.3603 164.171 16.9703C165.031 20.3703 165.401 28.9803 165.191 31.6003ZM151.531 27.1303C151.621 28.0603 151.691 28.9903 151.781 29.9603C151.968 32.1052 152.735 34.1587 154.001 35.9003C154.851 37.0503 156.001 37.2803 157.001 36.2803C157.576 35.8182 157.981 35.1778 158.151 34.4603C158.477 32.8614 158.681 31.2401 158.761 29.6103C158.841 25.6103 158.191 16.0303 155.591 15.4303C153.511 14.9803 152.591 16.0803 151.981 17.9903C151.248 20.9801 151.095 24.0829 151.531 27.1303Z" fill="#F8F2DE"/>
<path d="M187.971 30.3601C187.741 32.8801 187.361 35.5002 185.691 37.6702C184.842 38.911 183.712 39.9337 182.393 40.6549C181.074 41.3761 179.604 41.7753 178.101 41.8201C176.894 41.8542 175.694 41.6208 174.587 41.1367C173.481 40.6527 172.495 39.9299 171.701 39.0202C169.646 36.8608 168.282 34.1384 167.781 31.2002C167.083 27.3513 166.911 23.4253 167.271 19.5302C167.504 17.3725 168.06 15.2622 168.921 13.2702C170.561 9.62015 175.461 7.52016 180.041 8.78016C184.921 10.0802 186.701 13.0902 187.331 15.7102C188.071 19.1302 188.221 27.7301 187.971 30.3601ZM174.431 25.5802C174.491 26.5002 174.551 27.4302 174.611 28.4102C174.733 30.5615 175.446 32.6376 176.671 34.4102C177.491 35.5702 178.671 35.8402 179.671 34.8502C180.255 34.404 180.676 33.7787 180.871 33.0701C181.231 31.4765 181.475 29.859 181.601 28.2302C181.781 24.2302 181.371 14.6402 178.791 13.9802C176.721 13.4802 175.791 14.5602 175.121 16.4602C174.303 19.4267 174.062 22.5227 174.411 25.5802H174.431Z" fill="#F8F2DE"/>
<path d="M197.852 35.3301C201.222 35.0801 204.432 34.8601 207.652 34.6401C208.164 34.5823 208.682 34.6424 209.167 34.8157C209.653 34.989 210.092 35.271 210.452 35.6401C210.847 35.9987 211.123 36.4704 211.241 36.991C211.359 37.5116 211.314 38.056 211.112 38.5501C210.926 39.1078 210.577 39.5968 210.109 39.9535C209.642 40.3101 209.079 40.518 208.492 40.5501C206.332 40.7901 204.162 40.9401 202.052 41.0401C199.942 41.1401 197.722 41.2201 195.552 41.2501C193.142 41.3401 191.612 40.0501 191.552 37.7701C191.062 29.0401 190.632 20.2501 190.202 11.5201C190.181 10.8653 190.29 10.213 190.522 9.60012C190.733 9.03734 191.104 8.54839 191.588 8.19315C192.073 7.83791 192.651 7.63182 193.252 7.60012C193.857 7.55701 194.46 7.69831 194.984 8.00537C195.507 8.31243 195.924 8.77083 196.182 9.32011C196.58 10.8829 196.828 12.4802 196.922 14.0901C197.272 20.8701 197.562 27.6601 197.862 34.4401C197.832 34.6801 197.842 34.9801 197.852 35.3301Z" fill="#F8F2DE"/>
<path d="M249.971 20.9802C249.391 22.0802 248.771 23.1802 248.141 24.2502C247.001 26.3202 245.861 28.3502 244.681 30.3802C244.26 31.0458 243.767 31.6628 243.211 32.2202C242.884 32.5722 242.48 32.8433 242.031 33.0119C241.581 33.1806 241.098 33.2421 240.621 33.1916C240.143 33.1411 239.684 32.9801 239.28 32.7212C238.875 32.4623 238.537 32.1127 238.291 31.7002C237.731 30.7358 237.24 29.7333 236.821 28.7002C235.451 25.8602 234.111 23.0102 232.761 20.1702C232.661 20.0302 232.611 19.8902 232.401 19.5702C232.399 19.7878 232.382 20.0049 232.351 20.2202C232.291 24.8702 232.231 29.5702 232.121 34.2202C232.121 35.3802 232.011 36.5502 231.961 37.7102C231.973 38.1294 231.9 38.5467 231.746 38.9367C231.592 39.3267 231.36 39.6813 231.065 39.9788C230.769 40.2764 230.416 40.5106 230.027 40.6674C229.638 40.8241 229.221 40.9 228.802 40.8905C228.383 40.881 227.97 40.7863 227.588 40.6121C227.207 40.4378 226.865 40.1878 226.583 39.8772C226.302 39.5665 226.086 39.2018 225.95 38.8052C225.814 38.4086 225.76 37.9884 225.791 37.5702C225.791 34.1802 225.791 30.7802 225.791 27.4302L226.031 14.5902C226.031 12.8702 226.221 11.1002 226.371 9.3802C226.611 7.3302 228.151 6.5802 230.371 6.8202C231.221 6.87829 232.038 7.17068 232.731 7.66493C233.425 8.15919 233.968 8.83597 234.301 9.6202C236.571 14.2802 238.911 18.9002 241.161 23.5302C241.285 23.8376 241.432 24.1351 241.601 24.4202C241.811 24.0102 242.011 23.6802 242.161 23.4202C244.691 18.7902 247.251 14.2302 249.851 9.6702C250.068 9.19321 250.369 8.75951 250.741 8.39021C251.235 7.89924 251.888 7.60038 252.582 7.54723C253.277 7.49409 253.968 7.69013 254.531 8.10021C255.067 8.42813 255.519 8.87791 255.849 9.41305C256.179 9.94819 256.379 10.5536 256.431 11.1802C256.526 12.0903 256.566 13.0053 256.551 13.9202C256.318 21.9735 256.084 30.0202 255.851 38.0602C255.829 38.8151 255.518 39.5328 254.982 40.0653C254.447 40.5979 253.727 40.9047 252.972 40.9226C252.217 40.9406 251.484 40.6683 250.924 40.1618C250.364 39.6553 250.019 38.9532 249.961 38.2002C249.899 37.4886 249.883 36.7739 249.911 36.0602C250.031 31.0402 250.144 26.0169 250.251 20.9902C250.141 20.9802 250.091 20.9802 249.971 20.9802Z" fill="#F8F2DE"/>
<path d="M267.181 30.3501C266.021 33.0001 264.771 35.7501 263.571 38.5001C263.386 39.0027 263.137 39.4798 262.831 39.9201C262.427 40.528 261.822 40.9744 261.122 41.181C260.422 41.3876 259.671 41.3412 259.001 41.0501C258.364 40.8043 257.839 40.3313 257.529 39.7221C257.219 39.1129 257.145 38.4105 257.321 37.7501C257.583 36.8801 257.917 36.0337 258.321 35.2201C261.861 27.2201 265.531 19.1501 269.231 11.2201C269.511 10.6701 269.791 10.1201 270.071 9.62009C271.681 6.75009 274.721 7.53009 276.071 9.46009C276.567 10.2379 276.938 11.0881 277.171 11.9801C279.111 17.8001 281.011 23.6701 282.811 29.5001C283.601 32.2001 284.382 34.8501 285.111 37.5001C285.282 38.2978 285.282 39.1224 285.111 39.9201C284.934 40.5056 284.57 41.0174 284.076 41.3782C283.582 41.7389 282.983 41.9292 282.371 41.9201C281.731 41.9618 281.093 41.7968 280.553 41.4494C280.013 41.102 279.599 40.5905 279.371 39.9901C278.761 38.4701 278.301 36.9901 277.791 35.3901C277.361 34.1201 276.931 32.7901 276.551 31.4701C276.538 31.3346 276.497 31.2033 276.431 31.0841C276.366 30.965 276.276 30.8605 276.168 30.7772C276.061 30.6939 275.937 30.6334 275.805 30.5995C275.673 30.5656 275.536 30.559 275.401 30.5801C274.051 30.5801 272.711 30.5001 271.401 30.4401L267.181 30.3501ZM272.481 18.5001C271.481 20.6901 270.571 22.7501 269.621 24.8501C271.331 24.8501 272.831 24.8501 274.441 24.8501C273.791 22.7501 273.181 20.7201 272.481 18.5001Z" fill="#F8F2DE"/>
<path d="M293.971 15.3204C291.231 15.1404 288.641 14.9804 286.061 14.7904C283.481 14.6004 282.061 12.4804 282.911 10.3804C283.228 9.72467 283.738 9.18164 284.373 8.82415C285.007 8.46666 285.736 8.3118 286.461 8.38036C294.021 8.67036 301.591 9.04035 309.201 9.55035C311.901 9.76035 313.391 11.4804 313.201 13.9404C313.011 17.1404 312.771 20.3404 312.521 23.5504C312.521 23.8204 312.521 24.0604 312.451 24.3804C315.071 24.4604 317.591 24.5404 320.221 24.6404C320.228 24.3049 320.262 23.9706 320.321 23.6404C320.711 20.2704 321.051 16.8804 321.541 13.5604C321.583 13.0376 321.758 12.5342 322.05 12.0986C322.342 11.6631 322.741 11.3099 323.209 11.0729C323.677 10.836 324.198 10.7233 324.722 10.7456C325.246 10.7679 325.755 10.9245 326.201 11.2004C326.72 11.4955 327.138 11.9386 327.404 12.473C327.669 13.0074 327.769 13.6088 327.691 14.2004C327.321 18.5104 327.021 22.7804 326.601 27.0404C326.171 32.0404 325.601 37.0404 325.031 42.0404C324.991 42.6578 324.761 43.2477 324.372 43.7292C323.984 44.2108 323.456 44.5605 322.861 44.7304C322.335 44.9436 321.761 45.0069 321.201 44.9133C320.642 44.8198 320.119 44.573 319.691 44.2004C319.252 43.8463 318.915 43.3819 318.715 42.8547C318.515 42.3275 318.458 41.7566 318.551 41.2004C318.811 38.1404 319.121 35.0804 319.431 32.0304C319.431 31.7004 319.491 31.4304 319.521 31.1004L311.941 30.4404C311.891 30.9904 311.851 31.4404 311.811 31.8704C311.581 34.3804 311.401 36.8704 311.121 39.3804C311.062 40.2211 310.852 41.0443 310.501 41.8104C310.11 42.4105 309.542 42.8737 308.876 43.1354C308.209 43.3972 307.477 43.4444 306.783 43.2704C306.088 43.0965 305.465 42.7101 305 42.1651C304.536 41.6202 304.253 40.9438 304.191 40.2304C304.162 39.6874 304.162 39.1433 304.191 38.6004C304.858 31.267 305.524 23.9337 306.191 16.6004L306.251 15.9004L300.631 15.4904C300.571 16.1404 300.531 16.6904 300.481 17.3004C299.961 24.6304 299.481 31.9704 298.911 39.3004C298.816 40.1678 298.495 40.9952 297.981 41.7004C297.557 42.2075 296.982 42.5662 296.34 42.7244C295.698 42.8827 295.022 42.8322 294.411 42.5804C293.732 42.3602 293.147 41.918 292.749 41.3248C292.352 40.7317 292.166 40.0221 292.221 39.3104C292.421 35.7404 292.671 32.1604 292.931 28.5904C293.231 24.3204 293.531 20.0504 293.881 15.8304C293.901 15.6404 293.971 15.4504 293.971 15.3204Z" fill="#F8F2DE"/>
<path d="M357.831 34.3001C356.303 34.0963 354.79 33.7923 353.301 33.3901C351.301 32.8201 350.581 31.0301 351.441 29.5501C351.689 29.1072 352.06 28.7458 352.509 28.5097C352.958 28.2736 353.466 28.173 353.971 28.2201C356.291 28.3301 358.661 28.4901 360.971 28.7601C361.647 28.7725 362.306 28.9739 362.873 29.3415C363.441 29.7091 363.894 30.2283 364.181 30.8401C364.439 31.6398 364.521 32.4858 364.421 33.3201C363.891 36.4401 363.601 39.6401 362.301 42.6101C360.131 47.3001 355.771 49.1901 350.471 47.9601C346.991 47.2001 344.321 45.6201 342.731 42.4801C341.898 40.8285 341.594 38.9605 341.861 37.1301C342.371 33.0601 342.991 29.0101 343.761 24.9801C344.288 22.3782 345.496 19.9626 347.261 17.9801C351.581 12.7601 358.521 13.8101 362.351 17.6201C363.043 18.3496 363.632 19.1706 364.101 20.0601C364.285 20.3611 364.406 20.6968 364.455 21.0462C364.504 21.3957 364.481 21.7515 364.388 22.0918C364.294 22.432 364.131 22.7494 363.91 23.0243C363.689 23.2993 363.413 23.5258 363.101 23.6901C362.447 24.0153 361.701 24.1084 360.987 23.9539C360.273 23.7994 359.633 23.4067 359.171 22.8401C358.295 21.7355 357.101 20.9259 355.751 20.5201C355.209 20.3533 354.629 20.3601 354.091 20.5393C353.553 20.7186 353.085 21.0615 352.751 21.5201C351.462 23.1668 350.603 25.1085 350.251 27.1701C349.671 30.3301 349.251 33.4701 348.821 36.6501C348.687 37.6091 348.725 38.5841 348.931 39.5301C349.12 40.0873 349.463 40.5798 349.919 40.9512C350.375 41.3227 350.927 41.558 351.511 41.6301C351.682 41.6915 351.86 41.7285 352.041 41.7401C355.181 42.2801 355.871 41.9501 356.731 39.1501C357.193 37.5566 357.561 35.9371 357.831 34.3001Z" fill="#F8F2DE"/>
<path d="M373.761 40.2404C372.291 42.7505 370.761 45.3504 369.191 47.9504C368.946 48.4305 368.64 48.8774 368.281 49.2805C367.807 49.8535 367.144 50.2395 366.412 50.3695C365.679 50.4995 364.924 50.3652 364.281 49.9904C363.678 49.6714 363.215 49.1396 362.983 48.4983C362.75 47.857 362.764 47.1521 363.021 46.5204C363.371 45.6803 363.796 44.8736 364.291 44.1104C368.771 36.5104 373.391 28.9404 378.041 21.4404C378.381 20.9204 378.731 20.4404 379.041 19.9404C381.041 17.2704 383.931 18.3804 385.041 20.4404C385.461 21.2838 385.745 22.1883 385.881 23.1204C387.111 29.1204 388.291 35.1204 389.391 41.1204C389.861 43.8904 390.321 46.6104 390.721 49.3704C390.799 50.182 390.7 51.0007 390.431 51.7704C390.181 52.3379 389.753 52.8086 389.212 53.1116C388.671 53.4146 388.046 53.5336 387.431 53.4504C386.783 53.4299 386.158 53.1994 385.651 52.7938C385.145 52.3881 384.783 51.829 384.621 51.2004C384.201 49.6204 383.921 48.0704 383.621 46.4604C383.351 45.1404 383.081 43.7805 382.861 42.4605C382.761 41.8305 382.571 41.4605 381.861 41.4605C380.511 41.3505 379.191 41.0905 377.861 40.8905L373.761 40.2404ZM380.461 29.0504C379.191 31.1204 378.051 33.0504 376.851 35.0504C378.551 35.2604 380.051 35.4004 381.651 35.6005C381.261 33.4205 380.901 31.3404 380.461 29.0504Z" fill="#F8F2DE"/>
<path d="M419.121 38.9804C418.331 39.9804 417.511 40.9804 416.691 41.8904C415.171 43.7304 413.691 45.5304 412.111 47.3204C411.57 47.9052 410.967 48.4284 410.311 48.8804C409.929 49.1736 409.484 49.3734 409.011 49.4635C408.539 49.5537 408.051 49.5317 407.588 49.3995C407.126 49.2673 406.7 49.0284 406.346 48.7021C405.993 48.3757 405.72 47.971 405.551 47.5204C405.176 46.4967 404.875 45.4473 404.651 44.3804C403.831 41.3804 403.041 38.3104 402.241 35.2804C402.171 35.1304 402.151 34.9804 402.011 34.6304C401.941 34.9904 401.871 35.1204 401.841 35.2604C400.901 39.8204 399.951 44.4304 398.971 48.9904C398.741 50.1404 398.421 51.2604 398.151 52.4004C398.076 52.8035 397.921 53.1877 397.696 53.5309C397.472 53.8741 397.181 54.1694 396.842 54.3999C396.503 54.6304 396.121 54.7915 395.72 54.874C395.318 54.9564 394.904 54.9586 394.501 54.8804C394.094 54.8124 393.706 54.6612 393.36 54.4362C393.014 54.2112 392.718 53.9173 392.491 53.5729C392.264 53.2285 392.11 52.8409 392.04 52.4344C391.969 52.0279 391.983 51.6112 392.081 51.2104C392.701 47.8604 393.331 44.5204 393.991 41.2104C394.884 37.0104 395.771 32.8137 396.651 28.6204C397.021 26.9304 397.501 25.2204 397.971 23.5504C398.601 21.5504 400.251 21.1004 402.381 21.7104C403.204 21.9126 403.954 22.341 404.546 22.9471C405.138 23.5533 405.548 24.313 405.731 25.1404C407.091 30.1404 408.531 35.0604 409.881 40.0104C409.951 40.3488 410.041 40.6828 410.151 41.0104C410.431 40.6304 410.701 40.3504 410.901 40.1004C414.261 35.9904 417.661 31.9404 421.081 27.9104C421.39 27.4776 421.773 27.102 422.211 26.8004C422.785 26.3997 423.483 26.2168 424.179 26.2846C424.876 26.3525 425.525 26.6665 426.011 27.1704C426.485 27.5804 426.851 28.1 427.077 28.6839C427.304 29.2679 427.384 29.8983 427.311 30.5204C427.232 31.4336 427.101 32.3417 426.921 33.2404C425.161 41.1204 423.411 48.9937 421.671 56.8604C421.532 57.6123 421.11 58.2825 420.493 58.7342C419.876 59.1858 419.11 59.3848 418.351 59.2904C417.965 59.2477 417.591 59.1273 417.253 58.9365C416.915 58.7457 416.618 58.4884 416.382 58.1801C416.146 57.8718 415.974 57.5189 415.878 57.1426C415.781 56.7663 415.762 56.3744 415.821 55.9904C415.891 55.2762 416.012 54.5678 416.181 53.8704C417.228 48.9504 418.284 44.0304 419.351 39.1104C419.251 39.0704 419.221 38.9804 419.121 38.9804Z" fill="#F8F2DE"/>
<path d="M436.701 35.63C436.131 38.08 435.551 40.53 434.971 43.03L436.251 43.3C437.891 43.61 439.541 43.87 441.161 44.3C443.161 44.73 444.261 46.3 443.801 47.94C443.341 49.58 441.691 50.43 439.731 50L433.971 48.73L432.101 56.68C433.861 57.05 435.451 57.44 437.011 57.74C439.011 58.17 441.011 58.51 442.961 58.96C444.911 59.41 446.061 60.9 445.711 62.5C445.361 64.1 443.761 65.16 441.711 64.75C437.051 63.84 432.391 62.93 427.821 61.88C426.867 61.6441 426.041 61.0507 425.512 60.2224C424.984 59.3942 424.793 58.3944 424.981 57.43C426.771 49.09 428.611 40.71 430.441 32.43C430.583 31.898 430.77 31.3794 431.001 30.88C431.316 30.1839 431.868 29.6221 432.558 29.2944C433.249 28.9666 434.033 28.8942 434.771 29.09C439.201 29.97 443.621 30.87 448.011 31.9C449.047 32.1145 450.054 32.4501 451.011 32.9C451.602 33.1202 452.095 33.5421 452.404 34.0912C452.714 34.6402 452.819 35.2809 452.701 35.9C452.536 36.5166 452.166 37.0585 451.651 37.4366C451.137 37.8147 450.509 38.0063 449.871 37.98C449.162 38.0075 448.451 37.9605 447.751 37.84C444.301 37.16 440.811 36.45 437.311 35.75C437.112 35.6896 436.908 35.6494 436.701 35.63Z" fill="#F8F2DE"/>
</svg>
