<svg xmlns="http://www.w3.org/2000/svg" viewBox="0 0 54.82 55.93"><defs><style>.cls-1{fill:#34a5cf;}.cls-10,.cls-2{fill:#f9d023;}.cls-3{fill:#78a941;}.cls-4{fill:#9fb600;}.cls-5{fill:#ff3612;}.cls-6{fill:#3db7b7;}.cls-7{fill:#ff6532;}.cls-8{fill:#8bbf47;}.cls-9{fill:#3eb6db;}.cls-10{opacity:0.9;}.cls-11{fill:#fff3de;}.cls-12{fill:#f4d4ab;}</style></defs><g id="Layer_2" data-name="Layer 2"><g id="Layer_1-2" data-name="Layer 1"><path class="cls-1" d="M48,9.52a26.32,26.32,0,0,1,1.54,14.24c-.08.48-.18,1-.28,1.43a32.34,32.34,0,0,1,5.16,7.5A29.38,29.38,0,0,0,54.82,28,28.2,28.2,0,0,0,48,9.52Z"/><path class="cls-2" d="M15.57,50.88c-.07-.43-.14-.86-.2-1.29,0-.24-.06-.47-.08-.71,0-.39-.1-.78-.14-1.16L15.09,47c0-.37-.07-.74-.09-1.11s0-.49,0-.73,0-.72-.05-1.08,0-.46,0-.68L14,43A25.82,25.82,0,0,1,1,29.19c-.29.49-.57,1-.84,1.5A28,28,0,0,0,16,53.41c-.14-.64-.26-1.28-.37-1.92C15.63,51.28,15.6,51.08,15.57,50.88Z"/><path class="cls-3" d="M36.11,42.45a25,25,0,0,1-21.21.94c0,.22,0,.45,0,.68s0,.72.05,1.08,0,.48,0,.73.06.74.09,1.11l.06.73c0,.38.09.77.14,1.16,0,.24.05.47.08.71.06.43.13.86.2,1.29,0,.2.06.4.1.61.11.64.23,1.28.37,1.92a26.91,26.91,0,0,0,23.89-.57,44.68,44.68,0,0,0-2.15-11.36C37.23,41.82,36.68,42.15,36.11,42.45Z"/><path class="cls-4" d="M15.15,47.72c0,.38.09.77.14,1.16C15.24,48.49,15.19,48.1,15.15,47.72Z"/><path class="cls-4" d="M15.37,49.59c.06.43.13.86.2,1.29C15.5,50.45,15.43,50,15.37,49.59Z"/><path class="cls-4" d="M14.91,44.07c0,.36,0,.72.05,1.08C14.94,44.79,14.92,44.43,14.91,44.07Z"/><path class="cls-4" d="M16,53.41c-.14-.64-.26-1.28-.37-1.92C15.78,52.13,15.9,52.77,16,53.41Z"/><path class="cls-4" d="M15,45.88c0,.37.06.74.09,1.11C15.06,46.62,15,46.25,15,45.88Z"/><path class="cls-5" d="M37.78,41.48a44.68,44.68,0,0,1,2.15,11.36,28,28,0,0,0,14.5-20.15,32.34,32.34,0,0,0-5.16-7.5A25.93,25.93,0,0,1,37.78,41.48Z"/><path class="cls-6" d="M0,26.44c0,.51,0,1,0,1.53,0,.92.05,1.82.13,2.72.27-.52.55-1,.84-1.5A27.76,27.76,0,0,1,0,26.44Z"/><path class="cls-7" d="M22.28.5a27.28,27.28,0,0,0-15.44,9c7.42.08,14.91,6,14.91,6S20,5.74,22.28.5Z"/><path class="cls-8" d="M42.18,4.41A26.85,26.85,0,0,0,22.28.5c-2.25,5.24-.53,15-.53,15A27.63,27.63,0,0,1,42.18,4.41Z"/><path class="cls-9" d="M42.18,4.41A27.63,27.63,0,0,0,21.75,15.5s16.34-2.37,27.52,9.69c.1-.47.2-1,.28-1.43A26.32,26.32,0,0,0,48,9.52,28.12,28.12,0,0,0,42.18,4.41Z"/><path class="cls-10" d="M14.89,42.29c0-.23,0-.46,0-.7s0-.7,0-1l0-.67.06-1c0-.21,0-.42.05-.63s0-.7.09-1,0-.4.06-.59c0-.35.07-.7.12-1,0-.18,0-.37.07-.55l.15-1c0-.17,0-.34.08-.51l.18-1L15.9,32q.09-.54.21-1.05c0-.13.05-.26.08-.39l.24-1.07c0-.11.05-.22.08-.32.09-.38.18-.74.28-1.1l.06-.24c.1-.39.21-.77.32-1.15a.93.93,0,0,1,0-.13,56.22,56.22,0,0,1,3-8v0q.16-.33.3-.63l0-.08c.09-.18.17-.35.25-.5l.05-.1c.07-.14.14-.28.21-.4l.06-.11c.05-.11.11-.21.15-.3a.54.54,0,0,0,.07-.13l.11-.19.07-.13.06-.1.15-.26A29.15,29.15,0,0,0,1,29.19,25.82,25.82,0,0,0,14,43l.94.41v0C14.89,43,14.89,42.64,14.89,42.29Z"/><path class="cls-8" d="M21.75,16.35l-.07-.73-.08.14-.06.1-.07.13-.11.19-.07.13c0,.09-.1.19-.15.3l-.06.11c-.07.12-.14.26-.21.4l-.05.1c-.08.15-.16.32-.25.5l0,.08q-.13.3-.3.63v0a56.22,56.22,0,0,0-3,8.05.93.93,0,0,0,0,.13c-.11.38-.22.76-.32,1.15l-.06.24c-.1.36-.19.72-.28,1.1,0,.1-.05.21-.08.32l-.24,1.07c0,.13-.06.26-.08.39Q16,31.42,15.9,32l-.09.45-.18,1c0,.17-.05.34-.08.51l-.15,1c0,.18-.05.37-.07.55-.05.34-.09.69-.12,1,0,.19-.05.39-.06.59s-.07.69-.09,1,0,.42-.05.63l-.06,1,0,.67c0,.34,0,.69,0,1s0,.47,0,.7,0,.71,0,1.06v0a25,25,0,0,0,21.21-.94c.57-.3,1.12-.63,1.67-1C32.92,26.46,21.75,16.35,21.75,16.35Z"/><path class="cls-7" d="M21.75,15.5l-.07.12.07.73s11.17,10.11,16,25.13A25.93,25.93,0,0,0,49.27,25.19C38.09,13.13,21.75,15.5,21.75,15.5Z"/><path class="cls-9" d="M21.75,15.5s-7.49-5.93-14.91-6a28.19,28.19,0,0,0-6.8,17A27.76,27.76,0,0,0,1,29.19,29.15,29.15,0,0,1,21.75,15.5Z"/><path class="cls-11" d="M29.36,9.4c-.15-.22-.3-.42-.46-.62C26,5.07,20.79,5,16.5,7.93c-3.84,2.64-5.74,6.86-4.45,10.73a8.33,8.33,0,0,0,1,2,9.45,9.45,0,0,0,13.34,2.21C30.86,19.73,32.21,13.72,29.36,9.4Z"/><path class="cls-12" d="M21,13.63l-.16-.21c-1-1.26-2.76-1.29-4.22-.29a3.28,3.28,0,0,0-1.52,3.65,3.27,3.27,0,0,0,.33.68,3.22,3.22,0,0,0,4.54.75A3.37,3.37,0,0,0,21,13.63Z"/></g></g></svg>