<svg width="67" height="44" viewBox="0 0 67 44" fill="none" xmlns="http://www.w3.org/2000/svg">
<path d="M31.7645 39.3205L30.7148 39.1018L32.2456 31.6229L33.2953 31.8416L31.7645 39.3205Z" fill="#4E511A"/>
<path d="M18.2051 13.1667C18.2051 13.1667 27.0398 1.00799 37.0554 0.0457917C47.071 -0.916407 38.2363 13.604 38.2363 13.604L18.2051 13.1667Z" fill="#FFB43B"/>
<path d="M7.66504 11.2421C10.5516 11.1546 13.0446 15.572 13.2196 21.1265C13.3945 26.681 11.2077 31.2733 8.32108 31.4045C17.5932 34.9034 23.8037 36.0406 40.5985 32.6291C46.1967 31.492 51.7512 29.8737 56.9121 27.3808C59.7987 25.9812 65.8781 23.0946 65.7469 19.1584C65.6594 17.1465 63.2976 16.4467 61.6794 16.0968C57.9618 15.2221 53.3695 17.2777 50.0018 15.5282C45.0596 12.9478 42.173 11.6357 39.0677 10.6735C33.2071 8.92405 26.9965 8.79284 21.0921 10.6735C13.2196 13.1227 10.4642 10.9797 7.66504 11.2421Z" fill="#FFB43B"/>
<path d="M50.7453 15.7909C50.4829 15.7035 50.2642 15.616 50.0018 15.4848C45.0596 12.9043 42.173 11.5922 39.0677 10.63C33.2071 8.8806 26.9965 8.74939 21.0921 10.63C13.2196 13.1668 10.4642 10.9799 7.66504 11.2423C9.58944 11.1549 11.3826 13.1667 12.3448 16.1845C16.9809 17.6716 23.6288 18.59 30.9765 18.59C38.9802 18.5463 46.1093 17.4966 50.7453 15.7909Z" fill="#FEDE00"/>
<path d="M50.0893 15.9657C50.7453 15.3971 57.3932 11.3297 60.0174 7.08724C62.8603 2.49493 66.2717 5.03164 66.884 6.4312C67.4963 7.78703 65.4844 18.4587 65.4844 18.4587C65.4844 18.4587 45.9343 19.5958 50.0893 15.9657Z" fill="#FFB43B"/>
<path d="M65.7471 19.1148C65.7471 18.8524 65.6596 18.5025 65.5721 18.2838C55.8627 28.0807 25.4659 27.4247 13.0011 24.5818C12.3888 28.4744 10.5518 31.2735 8.32129 31.361C17.5934 34.8599 23.8039 35.997 40.5987 32.5856C46.1969 31.4484 51.7514 29.8302 56.9123 27.3372C59.7552 25.9814 65.8783 23.0948 65.7471 19.1148Z" fill="#78A941"/>
<path d="M56.912 25.2816C51.7511 27.7746 46.1966 29.3491 40.5984 30.53C25.2906 33.679 18.7739 32.9792 10.6827 30.1801C9.98292 30.9236 8.71457 31.2735 7.83984 31.3172C17.1119 34.8161 23.8036 36.0407 40.5546 32.5856C46.1529 31.4484 51.7074 29.8302 56.8682 27.3372C59.7548 25.9376 65.8342 23.0511 65.703 19.1148C65.703 18.8524 65.6593 18.5025 65.528 18.2838C64.7845 21.1704 59.405 24.057 56.912 25.2816Z" fill="#747647"/>
<path d="M13.219 21.1268C13.0441 15.5723 10.6386 11.1549 7.8832 11.2424C7.79572 11.2424 7.66452 11.2424 7.57705 11.2861C4.95287 11.6797 3.02848 16.1408 3.20342 21.5204C3.37837 26.9 5.60892 31.1861 8.2331 31.4048C8.32057 31.4048 8.45177 31.4048 8.53924 31.4048C11.2946 31.2736 13.394 26.6813 13.219 21.1268Z" fill="#FEDE00"/>
<path d="M12.3012 21.1266C12.1699 16.4905 10.1581 12.8166 7.84005 12.9041C7.75257 12.9041 7.66511 12.9041 7.57764 12.9479C5.39082 13.2978 3.77257 17.0153 3.94752 21.4327C4.07873 25.8938 5.95939 29.4802 8.14621 29.6551C8.23368 29.6551 8.32115 29.6551 8.40863 29.6551C10.7267 29.5677 12.4761 25.7626 12.3012 21.1266Z" fill="#E04613"/>
<path d="M7.53383 29.5245C9.45823 28.7372 10.814 25.2821 10.6828 21.1708C10.5516 17.1908 9.02087 13.8669 7.1402 13.1234C5.21581 13.9106 3.85998 17.3658 3.99119 21.477C4.12239 25.457 5.60943 28.7372 7.53383 29.5245Z" fill="#FFB43B"/>
<path d="M31.1076 4.98783C24.2847 4.81288 18.599 8.39925 18.4678 12.9916C18.5552 10.8048 24.1535 9.18651 30.9764 9.36146C37.7992 9.5364 43.31 11.4608 43.2225 13.6476C43.3975 9.0553 37.9742 5.16277 31.1076 4.98783Z" fill="#328593"/>
<path d="M30.9764 9.31831C24.1535 9.14336 18.5116 10.7616 18.4678 12.9484C18.3804 15.1352 23.8911 17.0596 30.714 17.2346C37.5369 17.4095 43.1788 15.7913 43.2226 13.6045C43.3101 11.4614 37.7993 9.53699 30.9764 9.31831Z" fill="#463A46"/>
<path opacity="0.4" d="M31.1076 4.98783C24.2847 4.81288 18.599 8.39925 18.4678 12.9916C18.3804 15.1784 23.8911 17.1028 30.714 17.2777C37.5369 17.4527 43.1788 15.8344 43.2226 13.6476C43.3975 9.0553 37.9742 5.16277 31.1076 4.98783Z" fill="#34A5CF"/>
<path d="M22.4915 25.9377C22.4915 25.9377 40.6421 40.8955 51.8386 42.1201C55.3375 42.5137 57.9617 39.0148 56.6933 35.7783C55.4687 32.7168 52.8008 28.5619 47.0276 23.9695C47.0276 23.9695 19.9111 20.1645 22.4915 25.9377Z" fill="#F3B417"/>
<path d="M47.0276 23.97C47.0276 23.97 32.0698 21.8707 25.4219 23.1828C29.3144 26.2443 44.141 37.5283 53.8067 38.5779C55.0314 38.7091 56.1248 38.3593 56.9995 37.747C57.0432 37.0909 56.9558 36.4349 56.6933 35.7788C55.4687 32.761 52.8008 28.6061 47.0276 23.97Z" fill="#FEDE00"/>
<path d="M34.7376 39.0585C34.9563 41.4202 33.3381 43.5195 31.1512 43.7382C28.9644 43.9569 26.9963 42.1637 26.7776 39.802C26.5589 37.4402 28.1772 35.3409 30.364 35.1222C32.5508 34.9035 34.5627 36.6967 34.7376 39.0585Z" fill="#273141"/>
<path d="M33.7756 38.9708C33.9068 40.4578 32.9008 41.7699 31.5013 41.9011C30.1017 42.0324 28.8771 40.9389 28.7459 39.4082C28.6147 37.9211 29.6206 36.609 31.0202 36.4778C32.376 36.3904 33.6443 37.4838 33.7756 38.9708Z" fill="#78A941"/>
<path d="M11.8204 6.5182C13.9197 7.26171 14.9694 9.40479 14.2259 11.2417C13.4386 13.1224 9.58984 20.1639 7.53424 19.3767C5.43489 18.6332 5.91599 10.367 6.70325 8.48633C7.40303 6.64941 9.72105 5.77468 11.8204 6.5182Z" fill="#34A5CF"/>
<path d="M8.5399 7.39253C8.5399 7.39253 11.8201 7.30506 12.3887 10.0167C12.9573 12.7284 9.021 16.2273 9.021 16.2273C9.021 16.2273 11.4702 12.1598 10.508 10.2791C9.58957 8.39846 7.40276 7.61121 8.5399 7.39253Z" fill="#2490B2"/>
<path d="M3.1602 36.435C5.2158 36.8286 7.22767 35.5603 7.57756 33.5921C7.92746 31.624 8.53976 23.7077 6.48416 23.3141C4.38481 22.9205 0.404806 30.1807 0.0549152 32.1488C-0.294975 34.117 1.06085 35.9976 3.1602 36.435Z" fill="#34A5CF"/>
<path d="M0.973438 34.0294C0.973438 34.0294 3.59761 35.7351 5.47827 33.7232C7.35893 31.7114 6.04685 26.7692 6.04685 26.7692C6.04685 26.7692 5.87191 31.4489 4.07872 32.5861C2.32927 33.7232 0.186185 33.2859 0.973438 34.0294Z" fill="#2490B2"/>
<path d="M9.45855 21.258C9.76471 18.5901 8.88998 16.2721 7.49042 16.1409C7.44668 16.1409 7.40295 16.1409 7.35921 16.1409C6.00339 16.1409 4.73503 18.1527 4.42888 20.7332C4.12272 23.3136 4.95371 25.5442 6.22207 25.8503C6.2658 25.8503 6.30954 25.8503 6.35327 25.8941C7.75283 25.9815 9.1524 23.9697 9.45855 21.258Z" fill="#E04613"/>
<path d="M6.22168 25.8066C6.74652 25.8503 7.18388 25.5879 7.53377 25.2818C7.88366 24.9319 8.14607 24.5382 8.36476 24.1009C8.80212 23.2262 9.06453 22.1327 9.152 21.3017C9.28321 20.3395 9.28322 19.3336 9.06454 18.4152C8.84586 17.453 8.45223 16.4033 7.49003 16.1409C8.5397 16.1846 9.19575 17.278 9.5019 18.284C9.67685 18.7651 9.72059 19.2899 9.76432 19.8147C9.80806 20.3396 9.76432 20.8644 9.72058 21.3892C9.58938 22.3952 9.28322 23.4448 8.75838 24.3196C8.49596 24.7569 8.14607 25.1943 7.70871 25.5005C7.22761 25.8066 6.79025 26.0253 6.22168 25.8066Z" fill="#6D2616"/>
<path d="M8.36496 21.1707C8.53991 19.64 8.05881 18.3279 7.22782 18.2404C7.18408 18.2404 7.18409 18.2404 7.14035 18.2404C6.39684 18.2404 5.65331 19.3775 5.47837 20.8646C5.30342 22.3516 5.78452 23.62 6.52803 23.7949C6.57177 23.7949 6.57178 23.7949 6.61551 23.7949C7.40277 23.8386 8.19002 22.7015 8.36496 21.1707Z" fill="#8C050C"/>
<path opacity="0.17" d="M26.6032 5.77522C26.2533 5.86269 25.9909 5.95018 25.7285 6.03765C23.7166 6.78117 21.9234 8.26819 20.83 10.1488C19.8678 11.8546 19.5617 14.5225 21.661 15.0036C24.6351 15.7034 24.5476 11.5047 27.2155 10.1926C29.8834 8.88051 32.9012 7.52467 32.114 6.21258C31.2393 4.85676 28.3527 5.29412 26.6032 5.77522Z" fill="#A2E4FF"/>
</svg>
