<svg width="67" height="51" viewBox="0 0 67 51" fill="none" xmlns="http://www.w3.org/2000/svg">
<path d="M66.5927 9.21503L62.978 11.3025L31.209 1.98558L34.2637 0L66.5927 9.21503Z" fill="#E0E0E0"/>
<path d="M43.7332 2.69823L39.9149 1.62909C39.8639 1.62909 39.813 1.62909 39.7112 1.62909C37.522 1.88365 35.3328 2.13817 33.1436 2.54547L39.3039 4.32738C40.8313 3.86917 42.3077 3.30917 43.7332 2.69823Z" fill="#F2F2F2"/>
<path d="M57.1738 9.57136L62.9778 11.2514L66.5925 9.16404L62.4687 7.9931C60.8904 8.50222 58.9557 8.96042 57.1738 9.57136Z" fill="#F2F2F2"/>
<path d="M52.6935 5.29465L51.3189 4.88733L44.6494 5.90557L47.755 6.822L52.6935 5.29465Z" fill="#F2F2F2"/>
<path d="M62.3164 11.0985L62.9783 11.3022L66.593 9.21477L66.1348 9.06207L62.3164 11.0985Z" fill="#EFEFEF"/>
<path d="M66.5928 9.21454L67 25.4554L35.3838 50.9114L35.6892 46.4821L58.8541 25.3027L62.978 11.302L66.5928 9.21454Z" fill="#CCCCCC"/>
<path d="M66.5928 9.21454L67 25.4554L35.3838 50.9114L35.6892 46.4821L58.8541 25.3027L62.978 11.302L66.5928 9.21454Z" fill="#CCCCCC"/>
<path opacity="0.55" d="M66.8984 22.5538L66.7965 18.5826C64.9128 18.2263 63.0291 17.9208 61.0944 17.6153L60.0762 21.0773C62.3672 21.5355 64.6583 22.0447 66.8984 22.5538Z" fill="#CCCCCC"/>
<path opacity="0.55" d="M51.2166 38.1331L53.6094 36.1985C51.8784 35.7402 50.0965 35.282 48.3146 34.9257L45.9727 37.064C47.7546 37.3695 49.4856 37.7767 51.2166 38.1331Z" fill="#CCCCCC"/>
<path d="M0 35.0276L0.865508 38.7441L35.3837 50.9121L35.6892 46.4828L0 35.0276Z" fill="#CCCCCC"/>
<path d="M0 35.0276L0.865508 38.7441L35.3837 50.9121L35.6892 46.4828L0 35.0276Z" fill="#CCCCCC"/>
<path opacity="0.75" d="M4.88753 36.6058L0 35.0276L0.763678 38.3878C2.1383 37.7768 3.51291 37.1659 4.88753 36.6058Z" fill="#CCCCCC"/>
<path opacity="0.75" d="M22.1981 42.1549L17.1578 40.5256C15.5795 41.3402 14.0012 42.053 12.3721 42.8167L18.4815 44.955C19.7543 44.0386 21.0271 43.1222 22.1981 42.1549Z" fill="#CCCCCC"/>
<path opacity="0.75" d="M28.4082 48.4175L35.3831 50.8613L35.6886 46.4829L32.023 45.3119C30.8011 46.3301 29.6301 47.3993 28.4082 48.4175Z" fill="#CCCCCC"/>
<path d="M35.3322 46.4828L34.874 50.7084L35.3831 50.9121L35.6886 46.4828H35.3322Z" fill="#E3E3E3"/>
<path d="M23.3687 17.3608C24.0305 17.7681 24.7433 18.2772 25.4051 18.7863C27.3907 19.0918 29.4272 19.6009 31.5655 20.11C36.8094 21.3828 43.377 21.0774 48.2645 23.5212C50.4028 24.5903 52.4393 25.8631 54.5267 27.085C54.9849 27.3395 55.494 27.645 56.054 27.9505L58.8542 25.354L63.029 11.3023L31.2091 1.98541L23.2668 13.8988L21.2812 15.7316C21.9431 16.2916 22.605 16.8516 23.3687 17.3608Z" fill="#CCCCCC"/>
<path d="M23.3687 17.3608C24.0305 17.7681 24.7433 18.2772 25.4051 18.7863C27.3907 19.0918 29.4272 19.6009 31.5655 20.11C36.8094 21.3828 43.377 21.0774 48.2645 23.5212C50.4028 24.5903 52.4393 25.8631 54.5267 27.085C54.9849 27.3395 55.494 27.645 56.054 27.9505L58.8542 25.354L63.029 11.3023L31.2091 1.98541L23.2668 13.8988L21.2812 15.7316C21.9431 16.2916 22.605 16.8516 23.3687 17.3608Z" fill="#3D3D3D"/>
<path opacity="0.55" d="M30.9036 7.38242C33.7037 6.41509 36.5039 5.44777 39.304 4.32771L31.209 1.93488L26.627 8.80798C28.0525 8.34977 29.478 7.89154 30.9036 7.38242Z" fill="#7C7C7C"/>
<path opacity="0.55" d="M33.7038 20.5683C37.7767 18.5827 41.9515 16.7499 45.8717 14.3571C48.7737 12.626 51.5229 10.7423 54.2213 8.70579L50.1992 7.53485C48.5191 8.55309 46.7372 9.46946 44.9553 10.2331C41.086 11.9132 37.1149 13.237 33.1947 14.6625C30.14 15.7317 27.0343 16.699 23.9287 17.6663C24.4378 18.0227 24.9469 18.3791 25.4561 18.7864C27.4416 19.0918 29.4781 19.6009 31.6164 20.1101C32.2782 20.2628 32.991 20.4155 33.7038 20.5683Z" fill="#7C7C7C"/>
<path opacity="0.55" d="M49.8427 23.0627C49.3335 23.2664 48.8753 23.4191 48.3662 23.5719C50.5045 24.641 52.4392 25.8629 54.4756 27.0848C54.9338 27.3393 55.443 27.6448 56.003 27.9503L58.8031 25.3538L61.0433 17.8697C57.4285 19.7025 53.7629 21.6372 49.8427 23.0627Z" fill="#7C7C7C"/>
<path d="M23.2158 13.8989L0 35.0273L35.6892 46.6861L58.8541 25.3031L23.2158 13.8989Z" fill="#CCCCCC"/>
<path opacity="0.55" d="M23.2158 13.8989L0 35.0273L35.6892 46.6861L58.8541 25.3031L23.2158 13.8989Z" fill="#CCCCCC"/>
<path opacity="0.32" d="M46.4314 22.0451L23.4701 14.6628L12.2695 24.8452C19.0408 24.4379 41.8493 22.9106 46.4314 22.0451Z" fill="#E8E8E8"/>
<path opacity="0.32" d="M42.9699 38.5405L49.6393 32.3801C44.65 33.2965 20.3141 35.0275 13.1865 35.5366C10.9463 35.6894 8.65529 35.9948 6.36426 36.1476L20.5177 40.7805C20.5687 40.8314 39.7625 38.8459 42.9699 38.5405Z" fill="#E8E8E8"/>
<path d="M63.3344 11.0989L62.978 11.3025L58.8541 25.3033L35.4856 45.9735L0 35.0275L35.6892 46.8899L59.2105 25.3542L63.3344 11.0989Z" fill="#E3E3E3"/>
<path d="M32.5833 5.04065L27.8994 11.812L55.85 21.1797L58.8538 13.0338L32.5833 5.04065Z" fill="#F0F1F1"/>
<path d="M29.7324 11.659L32.0744 12.6263L32.278 12.1681L30.6488 11.4044L31.0052 10.9462L31.9216 11.3026L32.2271 10.8953L31.3616 10.3862L31.6671 10.0299L33.0926 10.5899L33.449 10.1317L31.3616 9.26617L29.7324 11.659Z" fill="#3D3D3D"/>
<path d="M54.0178 12.5758L53.1014 12.6267L52.0322 15.0704L52.6432 15.7323L54.0178 12.5758Z" fill="#3D3D3D"/>
<path d="M55.6973 16.8008L56.2064 17.9718L57.6828 14.0516L56.5627 14.5607L55.6973 16.8008Z" fill="#3D3D3D"/>
<path d="M53.8136 17.1062L53.3553 16.037L51.8789 19.4481L53.0499 19.0408L53.8136 17.1062Z" fill="#3D3D3D"/>
<path d="M51.6237 15.9865L50.6055 18.3284L51.1655 19.2449L52.5401 15.9865H51.6237Z" fill="#3D3D3D"/>
<path d="M56.4608 14.4593L57.6826 13.8993L54.6279 12.7283L54.7807 13.7465L56.4608 14.4593Z" fill="#3D3D3D"/>
<path d="M53.5088 16.037L53.9161 17.1062L56.0544 18.0735L55.5453 16.9026L53.5088 16.037Z" fill="#3D3D3D"/>
<path d="M53.0496 19.1428L51.9805 19.601L54.9334 20.772V19.8046L53.0496 19.1428Z" fill="#3D3D3D"/>
<path d="M25.7101 17.565C24.3864 17.1577 23.0118 16.8522 22.5535 17.1068L22.5026 17.6669C22.4517 18.2269 23.5718 18.9396 25.1501 19.3978C26.7792 19.9069 28.2048 19.907 28.3575 19.4488C28.4084 19.2961 28.4084 18.6851 28.4084 18.6851C27.9502 18.3796 26.7792 17.9214 25.7101 17.565Z" fill="#3D3D3D"/>
<path d="M33.652 20.6194C32.3283 20.2121 30.9537 19.9066 30.4955 20.1612L30.4445 20.7213C30.2918 21.1795 31.5137 21.994 33.092 22.4522C34.7212 22.9614 36.1467 22.9614 36.2994 22.5032C36.3503 22.3505 36.3503 21.9431 36.3503 21.9431C35.8921 21.5867 34.7211 20.9758 33.652 20.6194Z" fill="#3D3D3D"/>
<path d="M41.5944 23.6241C40.2707 23.2168 38.896 22.9113 38.4378 23.1659L38.3869 23.7259C38.2342 24.1841 39.4561 24.9987 41.0343 25.4569C42.6635 25.966 44.0891 25.966 44.2418 25.5078C44.2927 25.3551 44.2927 24.9478 44.2927 24.9478C43.8345 24.5914 42.6635 23.9805 41.5944 23.6241Z" fill="#3D3D3D"/>
<path d="M49.5368 26.729C48.213 26.3217 46.8384 26.0162 46.3802 26.2708C46.3802 26.2708 46.2784 26.729 46.3802 27.0345C46.533 27.4927 47.6021 28.1546 49.0276 28.6128C50.6568 29.1219 52.0823 29.1219 52.2351 28.6637C52.286 28.511 52.286 28.1037 52.286 28.1037C51.7769 27.6964 50.6059 27.0345 49.5368 26.729Z" fill="#3D3D3D"/>
<path d="M25.7106 17.2092C24.0814 16.7001 22.6559 16.7001 22.5031 17.1583C22.3504 17.6165 23.5723 18.431 25.1506 18.8892C26.7797 19.3984 28.2053 19.3984 28.358 18.9402C28.5107 18.482 27.3398 17.7183 25.7106 17.2092Z" fill="#606162"/>
<path d="M33.652 20.2131C32.0228 19.7039 30.5973 19.7039 30.4445 20.1621C30.2918 20.6203 31.5137 21.4349 33.092 21.8931C34.7212 22.4022 36.1467 22.4022 36.2994 21.944C36.4521 21.5367 35.2812 20.7222 33.652 20.2131Z" fill="#606162"/>
<path d="M41.5944 23.2683C39.9652 22.7592 38.5397 22.7591 38.3869 23.2173C38.2342 23.6755 39.4561 24.4901 41.0343 24.9483C42.6635 25.4574 44.0891 25.4574 44.2418 24.9992C44.3945 24.541 43.2236 23.7774 41.5944 23.2683Z" fill="#606162"/>
<path d="M49.5885 26.3227C47.9594 25.8135 46.5338 25.8135 46.3811 26.2717C46.2283 26.7299 47.4502 27.5445 49.0285 28.0027C50.6577 28.5118 52.0832 28.5118 52.2359 28.0536C52.3887 27.5954 51.1668 26.8318 49.5885 26.3227Z" fill="#606162"/>
<g opacity="0.55">
<path opacity="0.55" d="M23.012 17.8702C24.0302 17.6156 25.1503 17.4629 26.2194 17.3611C26.0667 17.3101 25.863 17.2593 25.7103 17.1575C24.0811 16.6483 22.6556 16.6483 22.5029 17.1065C22.4519 17.3101 22.6556 17.6156 23.012 17.8702Z" fill="#606162"/>
<path opacity="0.55" d="M34.4163 21.5862C34.9254 21.5353 35.4854 21.4844 35.9946 21.4334C35.6891 21.1789 35.2309 20.8734 34.6199 20.6189C33.4999 20.7716 32.3798 20.9243 31.2598 21.128C31.6161 21.3316 32.0234 21.5353 32.5326 21.739C33.1944 21.6371 33.8053 21.6371 34.4163 21.5862Z" fill="#606162"/>
<path opacity="0.55" d="M41.2386 24.9982C41.6968 24.8964 42.1041 24.7437 42.5623 24.6928C43.0714 24.5909 43.5297 24.5401 44.0388 24.5401C43.7842 24.2855 43.326 23.98 42.766 23.7254C42.1041 23.8273 41.4423 23.8782 40.7804 23.98C40.3222 24.0309 39.7622 24.0818 39.2021 24.1328C39.6604 24.4382 40.3222 24.6928 41.0859 24.9473C41.1368 24.9982 41.1877 24.9982 41.2386 24.9982Z" fill="#606162"/>
<path opacity="0.55" d="M49.8424 28.2049C50.5552 28.0013 51.217 27.7976 51.9298 27.6958C51.9807 27.6958 52.0316 27.6958 52.0825 27.6958C51.828 27.3903 51.3188 27.0339 50.657 26.7285C49.8424 26.9321 49.0787 27.0849 48.2641 27.3394C48.1114 27.3903 47.9077 27.4412 47.7041 27.4921C48.1114 27.6958 48.5187 27.8485 49.0278 28.0013C49.3333 28.1031 49.5878 28.154 49.8424 28.2049Z" fill="#606162"/>
</g>
<path d="M45.3117 32.2275C44.3953 32.0747 43.5298 31.8202 43.2243 32.2275L43.1734 32.8384C43.1225 33.3984 43.6316 33.9075 44.548 34.1621C45.5663 34.4676 46.6354 34.264 46.9409 33.7548C46.9918 33.6021 47.0427 32.8384 47.0427 32.8384C46.7373 32.6347 46.1772 32.4311 45.3117 32.2275Z" fill="#292929"/>
<path d="M40.8312 36.555C39.8639 36.3513 38.7438 36.5041 38.7438 36.5041C38.7438 36.555 38.6929 37.1659 38.6929 37.1659C38.642 37.675 39.1512 38.235 40.0676 38.4896C41.0858 38.795 42.155 38.5914 42.4604 38.0823C42.5623 37.9296 42.5622 37.1659 42.5622 37.1659C42.4095 36.7077 41.6458 36.7077 40.8312 36.555Z" fill="#292929"/>
<path d="M36.3004 40.882C35.4858 40.7292 34.5694 40.4747 34.213 40.8311L34.1621 41.4929C34.0093 42.002 34.6203 42.562 35.5367 42.8166C36.5549 43.1221 37.6241 42.9185 37.9296 42.4093C38.0314 42.2566 38.0314 41.5438 38.0314 41.5438C37.8786 41.0347 37.1659 41.0347 36.3004 40.882Z" fill="#292929"/>
<path d="M26.2704 23.2169L26.3214 22.3514L16.4445 22.7078L16.3936 23.5733L23.063 26.2716L26.2704 23.2169Z" fill="#3D3D3D"/>
<path d="M31.5145 29.8358L34.722 26.832L34.7729 25.9156L28.358 24.3882L25.2014 26.2719L25.0996 27.1884L31.5145 29.8358Z" fill="#3D3D3D"/>
<path d="M36.7065 27.9514L33.55 29.8861L33.499 30.7006L39.7103 33.2462L42.8668 30.2933L42.9177 29.4787L36.7065 27.9514Z" fill="#3D3D3D"/>
<path d="M21.3828 27.8496L21.4337 26.984L14.7642 25.4058L11.5568 27.3914L11.5059 28.2568L18.2262 30.9043L21.3828 27.8496Z" fill="#3D3D3D"/>
<path d="M20.2627 31.7699L26.7285 34.3664L29.885 31.3626L29.9359 30.4462L23.4701 28.9698L20.3136 30.9045L20.2627 31.7699Z" fill="#3D3D3D"/>
<path d="M28.7139 35.181L34.976 37.6757L38.0816 34.7229L38.1326 33.8064L31.9213 32.4319L28.7648 34.2647L28.7139 35.181Z" fill="#3D3D3D"/>
<path d="M9.87654 30.0387L6.71999 32.0243L6.61816 32.8898L13.3894 35.4863L16.546 32.4316L16.5969 31.5661L9.87654 30.0387Z" fill="#3D3D3D"/>
<path d="M18.685 33.5522L15.5284 35.4359L15.4775 36.3523L21.9943 38.7961L25.0999 35.8432L25.1508 34.9777L18.685 33.5522Z" fill="#3D3D3D"/>
<path d="M23.9795 39.6616L30.2417 42.0544L33.3473 39.1525L33.3982 38.287L27.136 36.9123L24.0304 38.7451L23.9795 39.6616Z" fill="#3D3D3D"/>
<path d="M26.3212 22.3502L19.7536 19.8046L16.4443 22.7065L23.1138 25.4049L26.3212 22.3502Z" fill="#606162"/>
<path d="M31.6171 28.9686L34.7737 25.9648L28.4097 23.5211L25.1514 26.3212L31.6171 28.9686Z" fill="#606162"/>
<path d="M36.8091 27.0851L33.5508 29.8342L39.762 32.3798L42.9185 29.427L36.8091 27.0851Z" fill="#606162"/>
<path d="M21.4335 26.9832L14.815 24.5395L11.5566 27.3905L18.277 30.0379L21.4335 26.9832Z" fill="#606162"/>
<path d="M20.3145 30.9036L26.7802 33.5001L29.9368 30.4963L23.5728 28.1035L20.3145 30.9036Z" fill="#606162"/>
<path d="M28.7656 34.3148L35.0278 36.8095L38.1334 33.9075L31.9731 31.5655L28.7656 34.3148Z" fill="#606162"/>
<path d="M9.92814 29.1724L6.7207 32.0234L13.4411 34.6199L16.5976 31.5652L9.92814 29.1724Z" fill="#606162"/>
<path d="M18.7358 32.6859L15.5283 35.486L22.045 37.9297L25.1507 34.9769L18.7358 32.6859Z" fill="#606162"/>
<path d="M24.0303 38.7944L30.2924 41.1873L33.398 38.2853L27.1868 36.0452L24.0303 38.7944Z" fill="#606162"/>
<path d="M45.3619 31.5652C44.2927 31.3616 43.3763 31.6671 43.2236 32.1762C43.0709 32.6853 43.6818 33.2454 44.5982 33.4999C45.6164 33.8054 46.6856 33.6017 46.991 33.0926C47.2965 32.4817 46.5328 31.7689 45.3619 31.5652Z" fill="#525252"/>
<path d="M40.8814 35.8924C39.8123 35.6888 38.8959 35.9943 38.7431 36.5034C38.5904 37.0125 39.2013 37.5725 40.1177 37.8271C41.136 38.1326 42.2051 37.9289 42.5106 37.4198C42.7652 36.8088 42.0015 36.0961 40.8814 35.8924Z" fill="#525252"/>
<path d="M36.3502 40.1699C35.281 39.9663 34.3646 40.2717 34.2119 40.7808C34.0591 41.2899 34.6701 41.85 35.5865 42.1046C36.6047 42.41 37.6739 42.2064 37.9793 41.6973C38.2848 41.0863 37.5211 40.4245 36.3502 40.1699Z" fill="#525252"/>
<path d="M45.7692 31.6671C45.6674 31.6162 45.5146 31.6162 45.3619 31.5652C44.2928 31.3616 43.3764 31.6671 43.2236 32.1762C43.2236 32.2271 43.2236 32.2271 43.2236 32.278C44.0891 32.0235 44.9037 31.8708 45.7692 31.6671Z" fill="#606162"/>
<path d="M44.5479 33.5004H44.5988C45.617 33.8059 46.6861 33.6022 46.9916 33.0931C47.0425 33.0422 47.0425 32.9913 47.0425 32.8894C46.228 33.0931 45.3624 33.2968 44.5479 33.5004Z" fill="#606162"/>
<path d="M40.1186 37.8273C40.9332 37.4709 41.646 37.0636 42.3078 36.6054C42.2569 36.5545 42.206 36.5035 42.1551 36.4526C41.035 36.6563 39.915 36.7581 38.7949 36.9108C38.9477 37.2672 39.4568 37.6236 40.1186 37.8273Z" fill="#606162"/>
<path d="M35.231 42.0021C35.9947 41.5439 36.8602 41.1875 37.6239 40.7293C37.4711 40.5765 37.2675 40.4747 37.0129 40.3729C36.0965 40.6784 35.1801 40.933 34.2637 41.1366C34.3655 41.493 34.7219 41.7984 35.231 42.0021Z" fill="#606162"/>
<g opacity="0.55">
<path opacity="0.55" d="M30.294 41.1881L32.7378 38.8971C31.0068 39.2026 29.2758 39.6099 27.5957 40.1699L30.294 41.1881Z" fill="#606162"/>
<path opacity="0.55" d="M19.7554 19.8051L18.0244 21.2816C19.8063 21.2307 21.5882 21.2307 23.3702 21.1797L19.7554 19.8051Z" fill="#606162"/>
<path opacity="0.55" d="M34.3154 26.4238L34.8245 25.9656L32.3807 25.0492C31.1588 25.0492 29.937 24.9983 28.766 24.9983C28.1041 24.9983 27.3914 24.9983 26.7295 24.9983L25.2021 26.322L25.8131 26.5766C28.5114 26.5766 31.4134 26.5766 34.3154 26.4238Z" fill="#606162"/>
<path opacity="0.55" d="M42.6141 29.3254C39.9666 29.8346 37.1665 30.0383 34.3154 30.1401L37.2174 31.311C38.5411 31.2092 39.8648 31.1074 41.2394 31.0056L42.9195 29.4273L42.6141 29.3254Z" fill="#606162"/>
<path opacity="0.55" d="M20.4174 26.6272L16.4972 25.1507C15.6826 25.1507 14.868 25.2016 14.0534 25.2016L12.2715 26.7799C13.3406 26.729 14.4098 26.729 15.3771 26.6781C17.0572 26.5763 18.7373 26.5763 20.4174 26.6272Z" fill="#606162"/>
<path opacity="0.55" d="M20.9772 30.3943L20.3662 30.9543L22.9627 31.9726C24.7955 31.8707 26.6793 31.8707 28.5121 31.8707L29.9376 30.4961L29.3776 30.2924C28.4612 30.2924 27.5448 30.3433 26.6284 30.3433C24.7446 30.3943 22.8609 30.3943 20.9772 30.3943Z" fill="#606162"/>
<path opacity="0.55" d="M33.8069 36.3004C34.5197 36.1986 35.2324 36.0458 35.9452 35.944L37.1162 34.8748C35.4361 35.0785 33.8069 35.384 32.1777 35.6385L33.8069 36.3004Z" fill="#606162"/>
<path opacity="0.55" d="M8.24902 32.6354L12.1692 34.1627C12.882 34.01 13.5948 33.9082 14.3075 33.7555L16.0385 32.1263C14.2566 32.279 12.4747 32.4827 10.6928 32.6863C9.92911 32.7372 9.11453 32.6863 8.24902 32.6354Z" fill="#606162"/>
<path opacity="0.55" d="M22.0464 37.9297L23.3192 36.7078C22.0464 36.8096 20.8246 36.8606 19.5518 36.9624L22.0464 37.9297Z" fill="#606162"/>
<path opacity="0.55" d="M27.9012 36.301C27.4939 36.3519 27.1376 36.4028 26.7303 36.4537L24.8975 38.032C26.5776 37.6756 28.2067 37.3192 29.8868 37.0137L27.9012 36.301Z" fill="#606162"/>
</g>
</svg>
