<svg width="67" height="47" viewBox="0 0 67 47" fill="none" xmlns="http://www.w3.org/2000/svg">
<path d="M36.8049 5.3739H33.8926V16.8121H36.8049V5.3739Z" fill="#727C84"/>
<path d="M33.8918 7.61118C33.8918 7.61118 34.8626 7.48456 35.3269 7.99105C35.8334 8.49754 36.4243 12.5917 36.4243 12.5917H36.7619L36.7197 6.51379H33.8496V7.61118H33.8918Z" fill="#454B4F"/>
<path d="M2.78568 31.0783C1.26621 31.0783 0 32.429 0 34.1173C0 35.8056 1.224 37.1562 2.78568 37.1562V31.0783Z" fill="#7DC3E2"/>
<path d="M5.10706 41.1238L66.6877 40.5751C66.6877 40.5751 68.0383 30.4453 65.126 28.546C61.2851 26.0557 54.6586 24.9161 54.6586 24.9161C54.6586 24.9161 53.6456 13.1403 42.2918 12.2539C32.2042 11.4942 25.029 12.2117 21.3991 15.5883C17.7693 18.9649 16.8407 25.1694 16.8407 25.1694C16.8407 25.1694 8.52587 23.5655 5.14928 29.3479C2.61683 33.6953 5.10706 41.1238 5.10706 41.1238Z" fill="#E54A35"/>
<path d="M66.3933 30.6147C66.5621 33.7803 66.0978 37.0725 66.0978 37.0725L4.51724 37.6212C4.51724 37.6212 4.26399 36.8614 4.01074 35.7218C4.22178 38.6341 5.06593 41.1244 5.06593 41.1244L66.6465 40.5757C66.6465 40.6179 67.4907 34.2024 66.3933 30.6147Z" fill="#AF322C"/>
<path d="M19.0352 26.2243L52.4634 25.7178C52.5056 24.6204 51.8725 20.2309 49.0868 16.5588C45.4148 11.705 29.798 12.0426 24.7332 14.9549C19.7949 17.7828 19.0352 26.2243 19.0352 26.2243Z" fill="white"/>
<path d="M20.3857 25.3807L50.8595 24.9165C50.9017 23.9879 50.3108 20.147 47.7784 16.8971C44.444 12.6341 30.1779 12.9295 25.5772 15.462C21.0188 17.9522 20.3857 25.3807 20.3857 25.3807Z" fill="#64BFED"/>
<path d="M32.71 12.9718C32.71 12.9718 34.3561 16.5594 34.6937 19.5139C35.158 23.5236 34.7781 26.0138 34.7781 26.0138L39.0833 25.9295C39.0833 25.9295 38.83 21.6665 38.5346 19.5139C37.7748 14.4913 36.2554 12.8452 36.2554 12.8452L32.71 12.9718Z" fill="white"/>
<path d="M33.0488 12.3804C33.0488 12.3804 34.2729 14.1109 34.9904 17.8674C35.6657 21.5816 35.4969 27.0685 35.4969 27.0685H38.4092C38.4092 27.0685 38.578 20.6108 37.8605 18.1628C36.6787 14.1109 35.4969 12.3382 35.4969 12.3382H33.0488V12.3804Z" fill="#E54A35"/>
<path d="M4.3901 37.7475H2.70181C2.40635 37.7475 2.19531 37.5365 2.19531 37.241V31.0365C2.19531 30.741 2.40635 30.53 2.70181 30.53H4.3901C4.68555 30.53 4.89657 30.741 4.89657 31.0365V37.241C4.93878 37.4943 4.68555 37.7475 4.3901 37.7475Z" fill="#E54A35"/>
<path d="M4.26346 30.53V35.6371C4.26346 36.0592 3.92582 36.4391 3.46153 36.4391H2.32193C2.27972 36.4391 2.23752 36.4391 2.19531 36.4391V36.9877C2.19531 37.4098 2.53296 37.7897 2.99724 37.7897H4.13684C4.55892 37.7897 4.93879 37.452 4.93879 36.9877V31.332C4.93879 30.9099 4.64333 30.5722 4.26346 30.53Z" fill="#AF322C"/>
<path opacity="0.4" d="M0.505859 33.7796C0.505859 33.9906 0.548067 34.2438 0.716896 34.4127C0.885726 34.5815 1.18118 34.6237 1.35001 34.4971C1.51884 34.3283 1.51884 34.0328 1.56104 33.8218C1.60325 33.6529 1.72987 33.4841 1.77208 33.2731C1.8565 33.0199 1.89871 32.7244 1.8565 32.4711C1.81429 32.3445 1.81427 32.2601 1.72986 32.1757C1.13895 31.627 0.505859 33.4419 0.505859 33.7796Z" fill="white"/>
<path opacity="0.4" d="M23.0878 20.0618C22.9612 20.4838 22.8345 20.9903 22.9189 21.4546C23.0033 21.9189 23.2988 22.341 23.7631 22.5098C24.3118 22.6786 24.9449 22.341 25.2826 21.8767C25.6202 21.4124 25.789 20.8215 26.0423 20.2728C26.591 18.9222 27.604 17.7826 28.828 16.9806C29.2923 16.6852 29.7987 16.3897 29.8832 15.8832C29.8832 15.7988 29.8832 15.6722 29.841 15.5878C29.7565 15.4612 29.6299 15.3768 29.5033 15.3345C28.2793 14.9125 26.6754 15.8833 25.7468 16.5586C24.4806 17.4027 23.5098 18.6689 23.0878 20.0618Z" fill="white"/>
<path opacity="0.4" d="M38.7882 16.5165C39.1258 16.9385 39.7589 17.1074 40.3076 17.1496C40.8563 17.1918 41.4472 17.0652 41.9959 17.1074C43.0933 17.1496 44.1063 17.6139 45.1615 17.7827C45.4147 17.8249 45.7102 17.8249 45.9634 17.7405C46.2167 17.6139 46.3855 17.3184 46.2589 17.0652C46.2167 16.9386 46.09 16.8964 46.0056 16.812C44.444 15.7568 42.629 15.4613 40.8141 15.1237C40.3076 15.0392 39.5901 14.6594 39.1258 14.8704C38.4927 15.0815 38.4083 16.01 38.7882 16.5165Z" fill="white"/>
<path opacity="0.4" d="M9.62295 26.9845C8.7788 27.491 8.10349 28.2929 7.80804 29.2215C7.63921 29.728 7.59701 30.3189 7.89246 30.7831C8.35674 31.5007 9.49634 31.4585 10.1294 30.9098C10.4249 30.6565 10.6359 30.2766 10.8892 29.9812C11.5645 29.0948 12.5775 28.4617 13.5482 27.8286C13.8859 27.6176 14.2658 27.3643 14.308 26.9423C14.3502 25.0007 10.2561 26.5624 9.62295 26.9845Z" fill="white"/>
<path d="M17.7279 46.4418C20.9448 46.4418 23.5526 43.8341 23.5526 40.6172C23.5526 37.4004 20.9448 34.7926 17.7279 34.7926C14.5111 34.7926 11.9033 37.4004 11.9033 40.6172C11.9033 43.8341 14.5111 46.4418 17.7279 46.4418Z" fill="#727C84"/>
<path d="M21.5694 36.2691C22.3291 37.2399 22.7934 38.4639 22.7934 39.8145C22.7934 43.0223 20.1766 45.6391 16.9688 45.6391C15.4916 45.6391 14.1409 45.0904 13.1279 44.1619C14.1831 45.5547 15.8714 46.4411 17.7285 46.4411C20.9363 46.4411 23.5532 43.8243 23.5532 40.6165C23.511 38.886 22.7512 37.3665 21.5694 36.2691Z" fill="#454B4F"/>
<path d="M17.7276 43.698C19.4293 43.698 20.8088 42.3185 20.8088 40.6169C20.8088 38.9152 19.4293 37.5357 17.7276 37.5357C16.026 37.5357 14.6465 38.9152 14.6465 40.6169C14.6465 42.3185 16.026 43.698 17.7276 43.698Z" fill="#E54A35"/>
<path opacity="0.4" d="M15.3643 40.6599C15.3643 40.9132 15.3643 41.1242 15.4909 41.3352C15.6175 41.5885 15.8285 41.7573 16.0818 41.8839C16.2084 41.9262 16.335 41.9683 16.4616 41.9683C16.7149 41.9261 16.8837 41.6729 16.9681 41.3774C17.0103 41.1242 17.0103 40.8287 17.0526 40.5755C17.137 40.2378 17.348 39.9002 17.6434 39.7313C17.8545 39.6047 18.0655 39.5203 18.2344 39.3937C19.2051 38.7184 17.6857 38.0853 17.0526 38.3385C16.0818 38.7606 15.3643 39.6892 15.3643 40.6599Z" fill="white"/>
<path opacity="0.4" d="M12.7461 39.4355C12.7461 39.6043 12.7461 39.7731 12.7883 39.8998C12.8305 40.0264 12.9993 40.153 13.1259 40.1952C13.337 40.1952 13.5058 40.0686 13.5902 39.8576C13.6747 39.6887 13.6747 39.4777 13.7169 39.2667C13.8857 38.2115 14.7298 37.3251 15.6162 36.7342C15.7006 36.692 15.785 36.6076 15.8272 36.5232C15.9539 35.8479 14.2234 36.7764 14.0123 36.9874C13.337 37.6628 12.7883 38.5069 12.7461 39.4355Z" fill="white"/>
<path opacity="0.4" d="M16.6289 35.8896C16.5867 35.974 16.6288 36.1007 16.7133 36.1851C16.7977 36.2273 16.9243 36.2273 17.0509 36.2273C17.1776 36.2273 17.3042 36.1851 17.4308 36.0584C17.5152 35.974 17.5996 35.8052 17.5574 35.6786C17.5152 35.5519 17.3464 35.4675 17.1776 35.4675C17.0087 35.4675 16.8821 35.5098 16.7555 35.5942L16.6289 35.8896Z" fill="white"/>
<path d="M53.393 45.9771C56.6098 45.9771 59.2176 43.3693 59.2176 40.1524C59.2176 36.9356 56.6098 34.3278 53.393 34.3278C50.1761 34.3278 47.5684 36.9356 47.5684 40.1524C47.5684 43.3693 50.1761 45.9771 53.393 45.9771Z" fill="#727C84"/>
<path d="M57.2755 35.8043C58.0352 36.7751 58.4995 37.9991 58.4995 39.3498C58.4995 42.5575 55.8826 45.1743 52.6748 45.1743C51.1976 45.1743 49.847 44.6256 48.834 43.6971C49.8892 45.0899 51.5775 45.9763 53.4346 45.9763C56.6423 45.9763 59.2592 43.3594 59.2592 40.1517C59.217 38.4211 58.4573 36.8595 57.2755 35.8043Z" fill="#454B4F"/>
<path d="M53.3927 43.2339C55.0943 43.2339 56.4738 41.8544 56.4738 40.1528C56.4738 38.4511 55.0943 37.0717 53.3927 37.0717C51.691 37.0717 50.3115 38.4511 50.3115 40.1528C50.3115 41.8544 51.691 43.2339 53.3927 43.2339Z" fill="#E54A35"/>
<path opacity="0.4" d="M51.0283 40.1949C51.0283 40.4481 51.0283 40.6592 51.1549 40.8702C51.2816 41.1234 51.4926 41.2922 51.7458 41.4189C51.8724 41.4611 51.9991 41.5033 52.1257 41.5033C52.3789 41.4611 52.5478 41.2079 52.6322 40.9124C52.6744 40.6592 52.6744 40.3637 52.7166 40.1104C52.801 39.7728 53.0121 39.4351 53.3075 39.2663C53.5185 39.1397 53.7296 39.0553 53.8984 38.9287C54.8692 38.2534 53.3497 37.6202 52.7166 37.8735C51.7458 38.2956 51.0705 39.1819 51.0283 40.1949Z" fill="white"/>
<path opacity="0.4" d="M48.4121 38.9705C48.4121 39.1393 48.4121 39.3081 48.4543 39.4347C48.4965 39.5614 48.6653 39.688 48.792 39.7302C49.003 39.7302 49.1718 39.6036 49.2563 39.3925C49.3407 39.2237 49.3407 39.0127 49.3829 38.8016C49.5517 37.7464 50.3959 36.8601 51.2822 36.2692C51.3666 36.227 51.451 36.1426 51.4932 36.0581C51.6199 35.3828 49.8894 36.3114 49.6783 36.5224C49.003 37.1977 48.4965 38.0419 48.4121 38.9705Z" fill="white"/>
<path opacity="0.4" d="M52.3378 35.4256C52.2956 35.51 52.3379 35.6366 52.4223 35.721C52.5067 35.8054 52.6333 35.7632 52.7599 35.7632C52.8865 35.7632 53.0132 35.721 53.1398 35.5944C53.2242 35.51 53.3086 35.3411 53.2664 35.2145C53.2242 35.0879 53.0554 35.0035 52.8865 35.0035C52.7177 35.0035 52.5911 35.0457 52.4645 35.1301L52.3378 35.4256Z" fill="white"/>
<path d="M41.2784 0.43593C38.5349 -1.12574 38.155 1.99759 37.2265 2.16642C36.2979 2.33525 35.3693 2.37746 35.3693 2.37746C35.3693 2.37746 34.4408 2.29305 33.5122 2.16642C32.5836 1.99759 32.2038 -1.12574 29.4603 0.43593C26.97 1.82877 29.2915 5.33201 31.1064 6.26057C32.457 6.93589 35.4115 7.14692 35.4115 7.14692C35.4115 7.14692 38.366 6.93589 39.7167 6.26057C41.4894 5.33201 43.7686 1.82877 41.2784 0.43593ZM30.6421 3.55929C30.009 3.55929 29.5447 3.05281 29.5447 2.46191C29.5447 1.8288 30.0512 1.36452 30.6421 1.36452C31.2752 1.36452 31.7395 1.871 31.7395 2.46191C31.7395 3.05281 31.233 3.55929 30.6421 3.55929ZM40.2232 3.55929C39.5901 3.55929 39.1258 3.05281 39.1258 2.46191C39.1258 1.8288 39.6323 1.36452 40.2232 1.36452C40.8563 1.36452 41.3206 1.871 41.3206 2.46191C41.3206 3.05281 40.8141 3.55929 40.2232 3.55929Z" fill="#727C84"/>
<path opacity="0.4" d="M34.3989 10.8616C34.3989 10.946 34.3989 11.0304 34.4411 11.1148C34.4833 11.1992 34.5677 11.2836 34.6522 11.2836C34.7366 11.2836 34.821 11.1992 34.8632 11.1148C34.9054 11.0304 34.9054 10.946 34.9054 10.8616C34.9476 10.4395 35.2853 8.54012 34.6944 8.49792C34.0191 8.45571 34.3567 10.4395 34.3989 10.8616Z" fill="white"/>
<g opacity="0.14">
<path opacity="0.14" d="M41.3216 2.46071C41.3216 2.79837 41.1527 3.09382 40.9417 3.30486L39.9287 6.13274C41.5326 5.11976 43.3053 2.37628 41.8703 0.856812L41.3638 2.29187C41.3216 2.33408 41.3216 2.3763 41.3216 2.46071Z" fill="white"/>
<path opacity="0.14" d="M28.4902 3.1362C28.9123 4.44463 30.0519 5.71086 31.0649 6.25956C31.1493 6.30176 31.1915 6.34395 31.2759 6.34395L33.0064 1.78558C32.6266 1.3213 32.2889 0.603744 31.6558 0.223877L30.4318 1.32126C30.474 1.32126 30.5584 1.32126 30.6006 1.32126C31.2337 1.32126 31.698 1.82779 31.698 2.41869C31.698 3.0518 31.1915 3.51608 30.6006 3.51608C30.0097 3.51608 29.5032 3.0096 29.5032 2.41869C29.5032 2.33428 29.5032 2.24983 29.5454 2.12321L28.4902 3.1362Z" fill="white"/>
<path opacity="0.14" d="M35.4541 2.37608L32.9639 6.80785C34.1879 7.0611 35.3697 7.10334 35.3697 7.10334C35.3697 7.10334 35.6652 7.10331 36.0872 7.01889L37.0158 2.16504C36.3405 2.33387 35.7074 2.37608 35.4541 2.37608Z" fill="white"/>
</g>
</svg>
