<svg xmlns="http://www.w3.org/2000/svg" viewBox="0 0 127.98 138.22"><defs><style>.cls-1{fill:#39c5f3;}.cls-1,.cls-2,.cls-3,.cls-4{fill-rule:evenodd;}.cls-2{fill:#0080a6;}.cls-3{fill:#001c4a;}.cls-4{fill:#49c1c2;}</style></defs><g id="Layer_2" data-name="Layer 2"><g id="Layer_1-2" data-name="Layer 1"><path class="cls-1" d="M17.9,51.41C1.72-19.85,108.22-16.66,91.23,58.68,85.09,85.94,101.54,119,128,101.78c-.84,4.85-9.28,15-22.52,12.42-9.85-1.89-24.89-7-28-46.56-.25-3.1-2.88,1.1-3.59,18.83-1.35,34.06,22.34,34.7,22.49,34.83-1.1,5.13-24.07,10.58-30.72-15-1-3.75-4.2-25-5.27-33.58C59,61.5,56.32,112,55.79,116.5c-2.27,18.91-17.73,24.44-22.92,20.55-.11-2.11,11.61-5.37,12.15-18.33.39-9.23,2-63.29-4.93-37.22C32.25,110.76,23.58,132.36,0,127.88c25.36-11.94,24.88-40.57,24.12-56.64C24,67.92,17.92,51.48,17.9,51.41Z"/><path class="cls-2" d="M51.13,52.68c.62,0,.8,1.21,1.4,1.75a8.74,8.74,0,0,0,4.31,2.29,7,7,0,0,0,4.69-1.52c1-.72,1.72-1.9,2-1.43.68,1.3-3.1,4.33-6.57,4a10.07,10.07,0,0,1-4.47-1.92C50.79,54.71,50.08,52.76,51.13,52.68Z"/><path class="cls-3" d="M34.5,41.47c-1,5.59,5.16,7.29,6.24,2.13C41.89,38.08,35.63,37.5,34.5,41.47Z"/><path class="cls-3" d="M70.45,40.87c-1,5.58,5.16,7.28,6.24,2.13C77.84,37.47,71.58,36.89,70.45,40.87Z"/><path class="cls-4" d="M72.47,43.38c-.41,2.2,2,2.87,2.46.84S72.91,41.81,72.47,43.38Z"/><path class="cls-4" d="M36.94,43.62c-.4,2.2,2,2.87,2.46.84S37.38,42.05,36.94,43.62Z"/><path class="cls-2" d="M40.84,75c-2.24,0,.31,2.4.39.44C41.24,75.23,40.76,75,40.84,75Z"/><path class="cls-2" d="M40.3,77.35c-2.24,0,.32,2.4.39.44C40.7,77.54,40.23,77.35,40.3,77.35Z"/><path class="cls-2" d="M39.49,79.22c1.95,1.1-1.46,1.94-.56.2C39.05,79.2,39.56,79.26,39.49,79.22Z"/><path class="cls-2" d="M38.8,81.49c2,1.1-1.46,1.94-.56.2C38.36,81.47,38.87,81.53,38.8,81.49Z"/><path class="cls-2" d="M38.38,83.46c-2.24,0,.31,2.4.39.45C38.78,83.66,38.3,83.46,38.38,83.46Z"/><path class="cls-2" d="M37.85,85.78c-2.24,0,.31,2.39.39.44C38.25,86,37.77,85.78,37.85,85.78Z"/><path class="cls-2" d="M37,87.65c2,1.09-1.47,1.93-.56.2C36.59,87.62,37.1,87.69,37,87.65Z"/><path class="cls-2" d="M36.35,89.92c1.95,1.09-1.47,1.94-.56.2C35.9,89.9,36.42,90,36.35,89.92Z"/><path class="cls-2" d="M35.6,91.81c-2.24,0,.31,2.4.39.45C36,92,35.52,91.81,35.6,91.81Z"/><path class="cls-2" d="M35.06,94.12c-2.24,0,.32,2.4.39.45C35.46,94.32,35,94.12,35.06,94.12Z"/><path class="cls-2" d="M34.25,96c2,1.09-1.46,1.93-.56.19C33.81,96,34.32,96,34.25,96Z"/><path class="cls-2" d="M33.56,98.27c2,1.09-1.46,1.93-.56.2C33.12,98.24,33.63,98.31,33.56,98.27Z"/><path class="cls-2" d="M32.89,100.39c-2.24,0,.31,2.4.39.45C33.29,100.59,32.81,100.39,32.89,100.39Z"/><path class="cls-2" d="M32.36,102.7c-2.24,0,.31,2.4.39.45C32.76,102.9,32.28,102.7,32.36,102.7Z"/><path class="cls-2" d="M31.55,104.58c1.95,1.09-1.47,1.93-.56.2C31.1,104.55,31.62,104.62,31.55,104.58Z"/><path class="cls-2" d="M30.87,106.54c1.6,1.55-1.92,1.5-.59,0C30.44,106.41,30.92,106.6,30.87,106.54Z"/><path class="cls-2" d="M30,108.34c-2.17-.56-.31,2.4.26.53C30.29,108.63,29.88,108.32,30,108.34Z"/><path class="cls-2" d="M28.84,110.44c-2.16-.56-.31,2.4.27.53C29.18,110.73,28.77,110.42,28.84,110.44Z"/><path class="cls-2" d="M27.58,112.05c1.6,1.55-1.92,1.5-.6,0C27.15,111.92,27.63,112.11,27.58,112.05Z"/><path class="cls-2" d="M26.33,114.08c1.61,1.54-1.91,1.5-.59,0C25.91,113.94,26.39,114.13,26.33,114.08Z"/><path class="cls-2" d="M25.12,115.71c-2.17-.56-.32,2.4.26.53C25.45,116,25,115.69,25.12,115.71Z"/><path class="cls-2" d="M24,117.82c-2.17-.57-.31,2.4.26.53C24.35,118.11,23.93,117.8,24,117.82Z"/><path class="cls-2" d="M22.74,119.42c1.61,1.55-1.91,1.51-.59.06C22.32,119.29,22.8,119.48,22.74,119.42Z"/><path class="cls-2" d="M21.14,120.94c1.6,1.55-1.92,1.51-.6,0C20.71,120.81,21.19,121,21.14,120.94Z"/><path class="cls-2" d="M19.66,122.82c.78.75-.92.73-.28,0C19.46,122.75,19.69,122.85,19.66,122.82Z"/><path class="cls-2" d="M18.25,123.79c.78.75-.93.73-.29,0C18.05,123.73,18.28,123.82,18.25,123.79Z"/><path class="cls-2" d="M15.84,125.13c.77.75-.93.73-.29,0C15.63,125.06,15.86,125.16,15.84,125.13Z"/><path class="cls-2" d="M56.93,83.68c-2.19.5.84,2.27.48.35C57.36,83.79,56.85,83.7,56.93,83.68Z"/><path class="cls-2" d="M56.93,86.05c-2.18.5.85,2.27.48.35C57.36,86.16,56.85,86.07,56.93,86.05Z"/><path class="cls-2" d="M56.56,88.06c2.15.63-1,2.21-.5.32C56.12,88.14,56.64,88.08,56.56,88.06Z"/><path class="cls-2" d="M56.41,90.43c2.15.63-1,2.21-.5.31C56,90.5,56.48,90.45,56.41,90.43Z"/><path class="cls-2" d="M56.44,92.44c-2.18.5.85,2.27.48.35C56.87,92.54,56.36,92.46,56.44,92.44Z"/><path class="cls-2" d="M56.45,94.81c-2.19.5.84,2.27.48.35C56.88,94.91,56.37,94.83,56.45,94.81Z"/><path class="cls-2" d="M56.08,96.82c2.15.63-1,2.21-.5.32C55.64,96.89,56.15,96.84,56.08,96.82Z"/><path class="cls-2" d="M55.92,99.19c2.15.63-1,2.21-.5.31C55.48,99.26,56,99.21,55.92,99.19Z"/><path class="cls-2" d="M55.62,101.19c-2.19.5.84,2.27.48.35C56.05,101.29,55.54,101.21,55.62,101.19Z"/><path class="cls-2" d="M55.62,103.56c-2.18.5.85,2.27.48.35C56.05,103.67,55.54,103.58,55.62,103.56Z"/><path class="cls-2" d="M54.93,105.76c2.16.6-1,2.23-.49.33C54.5,105.84,55,105.78,54.93,105.76Z"/><path class="cls-2" d="M54.81,108.13c2.16.6-1,2.23-.49.32C54.38,108.21,54.89,108.15,54.81,108.13Z"/><path class="cls-2" d="M54.67,110.35c-2.17.53.89,2.26.49.34C55.11,110.45,54.6,110.37,54.67,110.35Z"/><path class="cls-2" d="M54.71,112.72c-2.17.53.89,2.26.49.34C55.15,112.82,54.64,112.74,54.71,112.72Z"/><path class="cls-2" d="M54.38,114.73c2.16.61-1,2.23-.5.33C53.94,114.82,54.45,114.76,54.38,114.73Z"/><path class="cls-2" d="M54.19,116.8c1.94,1.12-1.49,1.91-.56.19C53.75,116.77,54.26,116.84,54.19,116.8Z"/><path class="cls-2" d="M53.74,118.77c-2.24,0,.27,2.4.38.45C54.13,119,53.66,118.76,53.74,118.77Z"/><path class="cls-2" d="M53.17,121.07c-2.24,0,.27,2.4.38.45C53.57,121.27,53.09,121.07,53.17,121.07Z"/><path class="cls-2" d="M52.33,122.93c1.93,1.12-1.5,1.91-.57.19C51.88,122.9,52.4,123,52.33,122.93Z"/><path class="cls-2" d="M51.6,125.19c1.94,1.12-1.49,1.91-.56.19C51.16,125.16,51.67,125.23,51.6,125.19Z"/><path class="cls-2" d="M50.82,127.07c-2.24,0,.28,2.4.39.45C51.22,127.27,50.74,127.07,50.82,127.07Z"/><path class="cls-2" d="M49.62,128.67c-2.17-.56-.32,2.4.26.53C50,129,49.54,128.65,49.62,128.67Z"/><path class="cls-2" d="M48.35,130.28c1.61,1.55-1.91,1.5-.59.05C47.93,130.14,48.41,130.33,48.35,130.28Z"/><path class="cls-2" d="M46.74,131.79c1.61,1.55-1.91,1.51-.59.06C46.32,131.66,46.8,131.85,46.74,131.79Z"/><path class="cls-2" d="M45.27,133.67c.78.75-.93.73-.29,0C45.07,133.61,45.3,133.7,45.27,133.67Z"/><path class="cls-2" d="M43.86,134.65c.78.75-.93.72-.29,0C43.65,134.58,43.89,134.67,43.86,134.65Z"/><path class="cls-2" d="M41.44,136c.78.75-.92.73-.28,0C41.24,135.92,41.47,136,41.44,136Z"/><path class="cls-2" d="M62.47,76.78c-2,.92,1.3,2,.54.24C62.92,76.79,62.4,76.81,62.47,76.78Z"/><path class="cls-2" d="M63,79.1c-2,.92,1.3,2.05.54.24C63.41,79.11,62.89,79.13,63,79.1Z"/><path class="cls-2" d="M63,81.14c2.24.18-.51,2.36-.42.41C62.6,81.3,63.09,81.14,63,81.14Z"/><path class="cls-2" d="M63.34,83.48c2.24.19-.51,2.37-.42.41C62.93,83.64,63.42,83.49,63.34,83.48Z"/><path class="cls-2" d="M63.79,85.45c-2,.92,1.29,2,.54.24C64.23,85.46,63.72,85.48,63.79,85.45Z"/><path class="cls-2" d="M64.28,87.77c-2,.93,1.29,2,.54.25C64.72,87.78,64.21,87.8,64.28,87.77Z"/><path class="cls-2" d="M64.33,89.81c2.23.19-.52,2.36-.43.41C63.92,90,64.41,89.82,64.33,89.81Z"/><path class="cls-2" d="M64.66,92.16c2.24.19-.51,2.36-.42.41C64.25,92.32,64.74,92.16,64.66,92.16Z"/><path class="cls-2" d="M64.78,94.19c-2,.92,1.29,2,.54.24C65.22,94.2,64.7,94.22,64.78,94.19Z"/><path class="cls-2" d="M65.26,96.51c-2,.92,1.3,2,.55.24C65.71,96.52,65.19,96.54,65.26,96.51Z"/><path class="cls-2" d="M65,98.8c2.24.15-.48,2.37-.42.41C64.63,99,65.12,98.8,65,98.8Z"/><path class="cls-2" d="M65.66,100.71c-1.88,1.2,1.58,1.84.57.16C66.1,100.65,65.6,100.75,65.66,100.71Z"/><path class="cls-2" d="M66.49,102.93c-1.88,1.21,1.58,1.85.57.17C66.93,102.88,66.42,103,66.49,102.93Z"/><path class="cls-2" d="M66.83,104.94c2.24-.13-.16,2.42-.36.47C66.45,105.16,66.91,104.94,66.83,104.94Z"/><path class="cls-2" d="M67.51,107.22c2.24-.14-.17,2.41-.36.47C67.12,107.44,67.59,107.21,67.51,107.22Z"/><path class="cls-2" d="M68.24,109.1c-1.88,1.21,1.58,1.84.57.16C68.68,109.05,68.17,109.14,68.24,109.1Z"/><path class="cls-2" d="M69.11,111.33c-1.53,1.63,2,1.41.59,0C69.52,111.18,69.05,111.39,69.11,111.33Z"/><path class="cls-2" d="M69.94,113.2c2.14-.67.43,2.38-.24.54C69.62,113.5,70,113.18,69.94,113.2Z"/><path class="cls-2" d="M71.15,115.25c2.14-.67.43,2.37-.24.54C70.83,115.55,71.23,115.22,71.15,115.25Z"/><path class="cls-2" d="M72,117.08c-1.53,1.62,2,1.41.59,0C72.45,116.92,72,117.13,72,117.08Z"/><path class="cls-2" d="M73.38,119c-1.52,1.62,2,1.41.6,0C73.8,118.88,73.33,119.09,73.38,119Z"/><path class="cls-2" d="M75.34,120.47c2.13-.7.47,2.37-.23.55C75,120.78,75.42,120.45,75.34,120.47Z"/><path class="cls-2" d="M77.32,121.83c-1.23,1.85,2.2,1.06.59-.08C77.71,121.61,77.28,121.9,77.32,121.83Z"/><path class="cls-2" d="M79.17,123.35c-.6.9,1.06.52.29,0C79.35,123.25,79.15,123.39,79.17,123.35Z"/><path class="cls-2" d="M80.76,124c-.6.9,1.06.52.28,0C80.94,123.9,80.74,124,80.76,124Z"/><path class="cls-2" d="M83.41,124.8c-.6.9,1.06.51.28,0C83.59,124.69,83.39,124.83,83.41,124.8Z"/><path class="cls-2" d="M79.51,73.16c-2,.93,1.3,2,.54.25C80,73.17,79.44,73.19,79.51,73.16Z"/><path class="cls-2" d="M80,75.48c-2,.93,1.29,2.06.54.25C80.45,75.5,79.93,75.52,80,75.48Z"/><path class="cls-2" d="M80.05,77.52c2.24.19-.52,2.37-.42.41C79.64,77.68,80.13,77.53,80.05,77.52Z"/><path class="cls-2" d="M80.38,79.87c2.24.19-.51,2.36-.42.41C80,80,80.46,79.88,80.38,79.87Z"/><path class="cls-2" d="M80.83,81.84c-2,.92,1.29,2,.54.24C81.27,81.85,80.76,81.87,80.83,81.84Z"/><path class="cls-2" d="M81.32,84.16c-2,.92,1.29,2,.54.24C81.76,84.17,81.25,84.19,81.32,84.16Z"/><path class="cls-2" d="M81.37,86.2c2.23.18-.52,2.36-.43.41C81,86.36,81.45,86.2,81.37,86.2Z"/><path class="cls-2" d="M82.4,88.61c2.21-.37.1,2.42-.31.5C82,88.87,82.48,88.6,82.4,88.61Z"/><path class="cls-2" d="M83,90.54c-1.73,1.41,1.78,1.67.59.11C83.46,90.45,83,90.59,83,90.54Z"/><path class="cls-2" d="M84.09,92.67c-1.74,1.4,1.77,1.66.58.1C84.52,92.57,84,92.72,84.09,92.67Z"/><path class="cls-2" d="M84.45,94.94c2.2-.41.14,2.42-.3.51C84.09,95.2,84.53,94.93,84.45,94.94Z"/><path class="cls-2" d="M85.54,96.63c-1.52,1.64,2,1.4.59,0C86,96.48,85.48,96.69,85.54,96.63Z"/><path class="cls-2" d="M86.9,98.58c-1.51,1.64,2,1.4.6,0C87.32,98.43,86.85,98.64,86.9,98.58Z"/><path class="cls-2" d="M87.75,100.44c2.13-.68.45,2.38-.23.55C87.43,100.75,87.82,100.42,87.75,100.44Z"/><path class="cls-2" d="M89,102.48c2.13-.69.45,2.38-.23.54C88.66,102.79,89.05,102.45,89,102.48Z"/><path class="cls-2" d="M90.16,104.12c-1.51,1.63,2,1.39.6,0C90.58,104,90.11,104.18,90.16,104.12Z"/><path class="cls-2" d="M91.57,106.07c-1.07,2,2.28.86.58-.13C91.93,105.81,91.53,106.13,91.57,106.07Z"/><path class="cls-2" d="M92.85,107.66c1.9-1.17,1,2.2-.09.59C92.62,108,92.92,107.62,92.85,107.66Z"/><path class="cls-2" d="M94.69,108.73c1.66-1.49,1.39,2,0,.58C94.52,109.13,94.74,108.67,94.69,108.73Z"/><path class="cls-2" d="M96.26,110c-.71,2.1,2.4.46.55-.23C96.57,109.72,96.24,110.1,96.26,110Z"/><path class="cls-2" d="M98.31,111.26c-.71,2.1,2.4.46.55-.23C98.62,111,98.28,111.33,98.31,111.26Z"/><path class="cls-2" d="M100.69,111.76c1.64-1.51,1.42,2,0,.59C100.53,112.17,100.75,111.71,100.69,111.76Z"/><path class="cls-2" d="M103.06,112.18c-.34,2.19,2.45.07.51-.31C103.32,111.82,103.05,112.26,103.06,112.18Z"/><path class="cls-2" d="M105.38,112.81c-.17,1.06,1.19,0,.25-.15C105.51,112.64,105.38,112.85,105.38,112.81Z"/><path class="cls-2" d="M107.1,112.75c-.17,1.06,1.18,0,.25-.15C107.23,112.57,107.1,112.79,107.1,112.75Z"/><path class="cls-2" d="M110.06,113.49c-.17,1.06,1.18,0,.24-.15C110.18,113.32,110.05,113.53,110.06,113.49Z"/><path class="cls-2" d="M111.94,112.84c.09,2.22,2.41-.4.43-.4C112.12,112.44,111.94,112.92,111.94,112.84Z"/><path class="cls-2" d="M114.34,113c0,1.07,1.16-.2.21-.19C114.42,112.82,114.34,113.05,114.34,113Z"/><path class="cls-2" d="M116,112.62c0,1.07,1.17-.2.21-.2C116.1,112.42,116,112.66,116,112.62Z"/><path class="cls-2" d="M118.63,111.73c0,1.08,1.17-.19.21-.19C118.72,111.54,118.63,111.77,118.63,111.73Z"/></g></g></svg>