<svg width="48" height="60" viewBox="0 0 48 60" fill="none" xmlns="http://www.w3.org/2000/svg">
<path fill-rule="evenodd" clip-rule="evenodd" d="M21.1696 16.5751C26.7099 20.9612 32.3425 26.2706 31.6038 34.2579C31.1421 39.0595 29.3416 51.8946 32.8966 55.265C36.0361 58.266 41.1147 57.8505 40.099 59.5587C38.7139 61.4517 31.373 56.8809 29.9879 52.9565C28.4643 48.6166 28.926 42.5222 29.9879 35.8738C30.1264 34.9043 30.4034 29.9642 28.095 25.9474C25.5095 21.3305 19.1381 18.2372 19.2305 18.1448C19.923 17.6831 20.3847 15.9749 21.1696 16.5751Z" fill="#F67300"/>
<path fill-rule="evenodd" clip-rule="evenodd" d="M16.0445 19.7144C17.3373 25.3471 19.3687 31.3953 25.6016 33.6576C29.3413 35.0426 39.6371 38.2745 40.8836 42.1065C41.9917 45.4769 40.6066 48.5241 41.53 48.9396C42.7304 49.4013 42.7766 42.8914 41.5762 40.8138C39.4524 37.0741 33.8659 34.9965 27.3099 33.0574C26.525 32.8265 22.7391 31.2568 20.523 28.1172C17.9836 24.5622 17.9375 18.7449 17.8452 18.8372C17.3373 19.2066 15.906 18.9295 16.0445 19.7144Z" fill="#F67300"/>
<path fill-rule="evenodd" clip-rule="evenodd" d="M12.0283 22.5307C13.0902 27.1014 11.8437 28.5327 16.6914 30.6565C17.6148 31.072 19.6001 32.2724 20.939 34.0268C22.0009 35.4119 21.4469 37.8589 22.5088 39.1978C26.5717 44.4611 32.9892 47.1851 33.1739 46.4002C33.4971 44.7381 24.1247 43.1222 23.0628 36.7046C22.1394 31.1181 16.4144 29.4561 14.7985 28.5788C13.5057 27.8863 13.9213 21.4688 13.8751 21.4688C13.4134 21.6996 12.4438 22.1151 12.0283 22.5307Z" fill="#F67300"/>
<path fill-rule="evenodd" clip-rule="evenodd" d="M20.5234 16.621C22.9704 16.9903 26.4331 17.3135 29.1571 18.6986C31.7426 19.9913 33.6817 22.2536 34.8821 23.8696C35.944 25.2547 36.3595 27.2399 36.4519 29.0405C36.8212 36.6123 46.6091 37.2587 47.117 36.243C47.5787 34.7194 41.392 34.4885 39.8223 33.4266C38.2063 32.3186 37.5138 29.7792 37.0059 26.5474C36.0825 20.9609 31.1885 17.9137 29.5726 17.0365C28.2799 16.344 22.3702 15.5591 22.3702 15.6053C21.8623 15.8361 20.8928 16.2055 20.5234 16.621Z" fill="#F67300"/>
<path fill-rule="evenodd" clip-rule="evenodd" d="M13.5054 21.6536C12.8129 24.0083 11.6125 27.194 11.6587 30.2873C11.7048 33.1498 12.9514 35.8738 13.8748 37.6282C14.6597 39.1518 16.3218 40.3984 17.8915 41.2294C24.5861 44.8307 22.2314 52.5871 19.8306 53.8798C17.753 53.8798 20.7078 48.0163 20.4308 46.1695C20.1538 44.2766 18.0762 42.5222 15.3522 40.6754C10.6429 37.4436 9.99653 31.7647 9.90419 29.9641C9.85802 28.4867 11.6586 22.9002 11.7048 22.9002C12.2588 22.5308 12.9976 21.8383 13.5054 21.6536Z" fill="#F67300"/>
<path fill-rule="evenodd" clip-rule="evenodd" d="M32.0192 12.0507C32.6655 12.2815 32.8964 13.4357 32.1577 13.8974C31.6037 14.2206 31.2804 13.9898 31.1419 13.9898C32.0191 15.2364 30.1724 16.0212 29.526 15.3287C29.8953 16.2059 28.3717 17.314 27.7254 16.1136C27.7254 16.1136 27.7254 16.1597 27.6792 16.2521C28.1871 17.3601 26.525 18.0527 25.9248 17.4063C26.2942 18.2835 24.7706 19.3916 24.1242 18.1912C24.1704 18.5605 24.078 18.9761 23.7087 19.2069C23.1546 19.5301 22.8315 19.2992 22.693 19.2531C23.5702 20.4996 21.7234 21.2845 21.077 20.592C21.4464 21.4692 19.9228 22.5773 19.2764 21.3769C19.2764 21.3769 19.2764 21.423 19.2303 21.5154C19.7381 22.6234 18.076 23.316 17.4758 22.6696C17.8452 23.5468 16.3216 24.6549 15.6752 23.4545C15.6752 23.4545 15.6752 23.5006 15.6752 23.5468C16.3677 24.701 14.6133 25.4859 14.0131 24.7934C14.4286 25.8553 12.8127 26.5017 12.2125 25.9015C12.5818 26.7325 11.0583 27.8868 10.4119 26.6864V26.7325C11.1968 27.9329 9.39616 28.7178 8.74978 28.0252C9.11914 28.9025 7.59557 30.0105 6.9492 28.8101C6.9492 28.8101 6.626 30.149 5.61027 29.7335C4.73306 29.318 4.64073 27.4712 5.79496 26.7325C7.64174 25.5321 8.51895 24.8857 9.25766 24.6549L9.30382 24.6087C10.8274 23.6392 11.6585 23.039 12.351 22.6696C13.4591 21.9309 14.0593 21.5154 14.6595 21.3769C16.6909 20.0841 17.522 19.4377 18.3069 19.2531C18.353 19.2531 18.3992 19.2531 18.4453 19.2069C20.3383 17.9603 21.1693 17.3601 21.9542 17.1754C22.0927 17.1293 22.2774 17.1293 22.4159 17.1293C22.5544 16.7138 22.7853 16.3906 23.1547 16.1136C25.1861 14.7746 26.0172 14.1283 26.8482 13.9436C26.8944 13.9436 26.9405 13.9436 26.9867 13.8974C28.8796 12.6509 29.7107 12.0507 30.4955 11.866C30.7726 11.7275 31.2343 11.7736 32.0192 12.0507Z" fill="#FFB43B"/>
<path fill-rule="evenodd" clip-rule="evenodd" d="M30.9114 11.7734C28.4182 7.71049 19.5537 -0.0459642 14.2904 0.000205192C8.28838 0.0463745 2.88656 3.1859 1.13213 7.34114C-2.14589 15.1899 2.51723 26.7323 4.73336 28.0712C9.21179 25.9474 27.2178 14.8206 30.9114 11.7734Z" fill="#F2C381"/>
<path fill-rule="evenodd" clip-rule="evenodd" d="M15.3985 15.3747C15.2138 15.4671 15.3985 15.8364 15.3061 16.1134C15.1676 16.6213 14.8906 17.1753 14.5212 17.4985C14.1057 17.8217 13.5517 17.914 12.9515 17.8679C12.536 17.8679 12.1204 17.637 12.1666 17.8217C12.2128 18.2834 13.7825 18.4681 14.7059 17.8217C15.1214 17.4985 15.4446 16.9445 15.5832 16.529C15.8602 15.8826 15.7216 15.2362 15.3985 15.3747Z" fill="#001C4A"/>
<path fill-rule="evenodd" clip-rule="evenodd" d="M18.0763 9.41857C19.369 10.8036 17.9378 12.3272 16.7374 11.0807C15.3985 9.74174 17.0606 8.49518 18.0763 9.41857Z" fill="#001C4A"/>
<path fill-rule="evenodd" clip-rule="evenodd" d="M7.96468 15.467C9.25742 16.8521 7.82616 18.3757 6.62575 17.1291C5.33301 15.7902 6.94895 14.5436 7.96468 15.467Z" fill="#001C4A"/>
<path fill-rule="evenodd" clip-rule="evenodd" d="M7.87325 16.4827C8.38111 17.0367 7.82707 17.6369 7.31921 17.1291C6.81135 16.6212 7.45773 16.1595 7.87325 16.4827Z" fill="white"/>
<path fill-rule="evenodd" clip-rule="evenodd" d="M17.7531 10.4343C18.261 10.9884 17.707 11.5886 17.1991 11.0807C16.6912 10.5728 17.3376 10.065 17.7531 10.4343Z" fill="white"/>
</svg>
