<svg width="40" height="40" viewBox="0 0 40 40" fill="none" xmlns="http://www.w3.org/2000/svg">
<path d="M20 40C31.0457 40 40 31.0457 40 20C40 8.9543 31.0457 0 20 0C8.9543 0 0 8.9543 0 20C0 31.0457 8.9543 40 20 40Z" fill="#78A941"/>
<path d="M18.8003 37.7C13.7003 37 8.60033 34.1 5.70033 29.9C5.30033 29.4 3.70033 26.2 5.90033 27C7.70033 27.7 8.80033 29.5 10.5003 30.5C15.6003 33.2 21.8003 34 26.6003 30.2C27.0003 29.9 27.3003 29.6 27.8003 29.4C29.1003 28.8 31.0003 29.6 31.3003 31C31.6003 32.3 30.1003 34.4 29.2003 35.3C28.2003 36.2 27.0003 36.8 25.7003 37.2C23.4003 37.9 21.1003 38 18.8003 37.7Z" fill="#96C658"/>
<path d="M17.8002 0.799986C16.9002 0.899986 16.0002 1.09999 15.1002 1.29999C12.8002 1.99999 10.0002 2.99999 8.10021 4.49999C6.90021 5.39999 6.00021 6.69999 5.10021 7.79999C4.30021 8.99999 3.50021 10.1 2.60021 11.2C1.90021 12.1 1.20021 13 1.00021 14.2C0.600208 16.2 2.30021 18.3 4.30021 18.8C7.40021 19.6 9.90021 17.4 12.3002 15.8C15.1002 14 18.3002 12.3 21.4002 11.2C24.8002 9.99999 28.4002 9.49999 31.9002 10.3C33.2002 10.6 34.4002 11 35.5002 11.7C37.2002 12.8 38.4002 14.6 38.9002 16.5C37.6002 11.6 35.1002 5.99999 30.3002 3.69999C26.2002 1.69999 22.3002 0.299986 17.8002 0.799986Z" fill="#8DBC50"/>
</svg>
