<svg xmlns="http://www.w3.org/2000/svg" xmlns:xlink="http://www.w3.org/1999/xlink" viewBox="0 0 896 896"><defs><style>.cls-1{fill:none;}.cls-2,.cls-6{fill:#fff;}.cls-2{opacity:0.6;}.cls-3{opacity:0.25;}.cls-4{clip-path:url(#clip-path);}.cls-5{fill:#f4db71;}</style><clipPath id="clip-path" transform="translate(0 199.03)"><rect class="cls-1" width="896" height="500"/></clipPath></defs><g id="Layer_2" data-name="Layer 2"><g id="Layer_1-2" data-name="Layer 1"><rect class="cls-2" y="199.03" width="896" height="500"/><g class="cls-3"><g class="cls-4"><path class="cls-5" d="M448,249,0-199H68.92Q309.85,72.64,448,249Z" transform="translate(0 199.03)"/><path class="cls-5" d="M448,249Q332.11,57.27,137.85-199h68.92Q356.07,44.71,448,249Z" transform="translate(0 199.03)"/><path class="cls-5" d="M448,249Q381.36,35.12,275.69-199h68.93Q407.62,28.64,448,249Z" transform="translate(0 199.03)"/><path class="cls-5" d="M448,249Q434.47,25.38,413.54-199h68.92Q461.52,25.37,448,249Z" transform="translate(0 199.03)"/><path class="cls-5" d="M448,249Q488.38,28.64,551.38-199h68.93Q514.64,35.1,448,249Z" transform="translate(0 199.03)"/><path class="cls-5" d="M448,249Q539.94,44.7,689.23-199h68.92Q563.89,57.28,448,249Z" transform="translate(0 199.03)"/><path class="cls-5" d="M448,249Q586.15,72.63,827.08-199H896Z" transform="translate(0 199.03)"/><path class="cls-5" d="M448,249Q624.32,110.82,896-130.11v68.92Q639.69,133.09,448,249Z" transform="translate(0 199.03)"/><path class="cls-5" d="M448,249Q652.27,157,896,7.74V76.66Q661.87,182.32,448,249Z" transform="translate(0 199.03)"/><path class="cls-5" d="M448,249q220.34-40.38,448-103.39v68.93Q671.59,235.44,448,249Z" transform="translate(0 199.03)"/><path class="cls-5" d="M448,249q223.59,13.52,448,34.46v68.92Q668.33,289.35,448,249Z" transform="translate(0 199.03)"/><path class="cls-5" d="M448,249q213.86,66.63,448,172.3V490.2Q652.27,340.91,448,249Z" transform="translate(0 199.03)"/><path class="cls-5" d="M448,249Q639.7,364.85,896,559.12V628Q624.34,387.11,448,249Z" transform="translate(0 199.03)"/><path class="cls-5" d="M448,249Q606.4,407.36,896,697H827.08Q586.15,425.29,448,249Z" transform="translate(0 199.03)"/><path class="cls-5" d="M448,249Q563.89,440.66,758.15,697H689.23Q539.94,453.24,448,249Z" transform="translate(0 199.03)"/><path class="cls-5" d="M448,249q66.64,213.86,172.31,448H551.38Q488.38,469.3,448,249Z" transform="translate(0 199.03)"/><path class="cls-5" d="M448,249q13.53,223.59,34.46,448H413.54Q434.48,472.56,448,249Z" transform="translate(0 199.03)"/><path class="cls-5" d="M448,249Q407.62,469.29,344.62,697H275.69Q381.37,462.82,448,249Z" transform="translate(0 199.03)"/><path class="cls-5" d="M448,249Q356.06,453.23,206.77,697H137.85Q332.12,440.67,448,249Z" transform="translate(0 199.03)"/><path class="cls-5" d="M448,249Q309.85,425.29,68.92,697H0Q289.61,407.36,448,249Z" transform="translate(0 199.03)"/><path class="cls-5" d="M448,249Q271.67,387.11,0,628V559.12Q256.31,364.86,448,249Z" transform="translate(0 199.03)"/><path class="cls-5" d="M448,249Q243.73,340.91,0,490.2V421.27Q234.15,315.61,448,249Z" transform="translate(0 199.03)"/><path class="cls-5" d="M448,249Q227.67,289.35,0,352.35V283.43Q224.42,262.49,448,249Z" transform="translate(0 199.03)"/><path class="cls-5" d="M448,249Q224.41,235.44,0,214.51V145.58Q227.67,208.6,448,249Z" transform="translate(0 199.03)"/><path class="cls-5" d="M448,249Q234.15,182.33,0,76.66V7.74Q243.74,157,448,249Z" transform="translate(0 199.03)"/><path class="cls-5" d="M448,249Q256.3,133.08,0-61.19v-68.92Q271.67,110.82,448,249Z" transform="translate(0 199.03)"/><path class="cls-6" d="M448,249Q309.85,72.63,68.92-199h68.93Q332.12,57.28,448,249Z" transform="translate(0 199.03)"/><path class="cls-6" d="M448,249Q356.06,44.7,206.77-199h68.92Q381.37,35.1,448,249Z" transform="translate(0 199.03)"/><path class="cls-6" d="M448,249Q407.62,28.64,344.62-199h68.92Q434.48,25.37,448,249Z" transform="translate(0 199.03)"/><path class="cls-6" d="M448,249q13.53-223.59,34.46-448h68.92Q488.38,28.64,448,249Z" transform="translate(0 199.03)"/><path class="cls-6" d="M448,249Q514.65,35.12,620.31-199h68.92Q539.94,44.71,448,249Z" transform="translate(0 199.03)"/><path class="cls-6" d="M448,249Q563.89,57.27,758.15-199h68.93Q586.15,72.64,448,249Z" transform="translate(0 199.03)"/><path class="cls-6" d="M448,249,896-199v68.92Q624.34,110.82,448,249Z" transform="translate(0 199.03)"/><path class="cls-6" d="M448,249Q639.7,133.08,896-61.19V7.74Q652.27,157,448,249Z" transform="translate(0 199.03)"/><path class="cls-6" d="M448,249Q661.86,182.33,896,76.66v68.92Q668.33,208.6,448,249Z" transform="translate(0 199.03)"/><path class="cls-6" d="M448,249q223.59-13.53,448-34.46v68.92Q671.59,262.49,448,249Z" transform="translate(0 199.03)"/><path class="cls-6" d="M448,249q220.34,40.38,448,103.38v68.92Q661.87,315.61,448,249Z" transform="translate(0 199.03)"/><path class="cls-6" d="M448,249Q652.27,340.91,896,490.2v68.92Q639.69,364.86,448,249Z" transform="translate(0 199.03)"/><path class="cls-6" d="M448,249Q624.32,387.11,896,628V697Q606.4,407.36,448,249Z" transform="translate(0 199.03)"/><path class="cls-6" d="M448,249Q586.15,425.29,827.08,697H758.15Q563.89,440.67,448,249Z" transform="translate(0 199.03)"/><path class="cls-6" d="M448,249q91.94,204.26,241.23,448H620.31Q514.64,462.82,448,249Z" transform="translate(0 199.03)"/><path class="cls-6" d="M448,249q40.38,220.32,103.38,448H482.46Q461.52,472.56,448,249Z" transform="translate(0 199.03)"/><path class="cls-6" d="M448,249q-13.53,223.59-34.46,448H344.62Q407.62,469.3,448,249Z" transform="translate(0 199.03)"/><path class="cls-6" d="M448,249Q381.36,462.83,275.69,697H206.77Q356.07,453.24,448,249Z" transform="translate(0 199.03)"/><path class="cls-6" d="M448,249Q332.11,440.66,137.85,697H68.92Q309.85,425.29,448,249Z" transform="translate(0 199.03)"/><path class="cls-6" d="M448,249Q289.6,407.36,0,697V628Q271.67,387.11,448,249Z" transform="translate(0 199.03)"/><path class="cls-6" d="M448,249Q256.3,364.85,0,559.12V490.2Q243.74,340.91,448,249Z" transform="translate(0 199.03)"/><path class="cls-6" d="M448,249Q234.15,315.6,0,421.27V352.35Q227.67,289.35,448,249Z" transform="translate(0 199.03)"/><path class="cls-6" d="M448,249Q224.41,262.49,0,283.43V214.51Q224.42,235.44,448,249Z" transform="translate(0 199.03)"/><path class="cls-6" d="M448,249Q227.67,208.59,0,145.58V76.66Q234.15,182.32,448,249Z" transform="translate(0 199.03)"/><path class="cls-6" d="M448,249Q243.73,157,0,7.74V-61.19Q256.31,133.09,448,249Z" transform="translate(0 199.03)"/><path class="cls-6" d="M448,249Q271.67,110.82,0-130.11V-199Z" transform="translate(0 199.03)"/></g></g></g></g></svg>