<svg xmlns="http://www.w3.org/2000/svg" viewBox="0 0 87.81 55.93"><defs><style>.cls-1{fill:#7f48c3;}.cls-2{fill:#dd3a51;}.cls-3{fill:#62389e;}.cls-4{fill:#34a5cf;}.cls-5{fill:#78a941;}.cls-6{fill:#d93e4f;}.cls-7{fill:#f67300;}.cls-8{fill:#fbed21;}</style></defs><g id="Layer_2" data-name="Layer 2"><g id="Layer_1-2" data-name="Layer 1"><path class="cls-1" d="M20,0,10.83,0C9.34,0,8.14,1.59,8.13,3.57V5.25l14.57,0-.11-1.76C22.59,1.6,21.42,0,20,0Z"/><path class="cls-1" d="M75.87.17l-9.14,0C65.25.14,64,1.74,64,3.71V5.4l14.57,0-.11-1.76C78.5,1.75,77.32.18,75.87.17Z"/><path class="cls-2" d="M81.22,55.81c-.48,0-8.74,1.33-13.31-5.58a62.87,62.87,0,0,1-4.31-7.92A11,11,0,0,0,53.73,36l-19,0A11.94,11.94,0,0,0,24,42.75a61.92,61.92,0,0,1-4.09,7.35C15.28,57,7,55.67,6.55,55.61c-4.62-.55-7.19-5-6.41-9.43l6.91-39A8.47,8.47,0,0,1,8,4.62a3.72,3.72,0,0,1,3.25-1.9l7.51,0A5.72,5.72,0,0,1,21,3.1,25.14,25.14,0,0,0,32.88,6.18l25.62.07c3,0,3-1.07,5.42-2.87h0a3.12,3.12,0,0,1,1.89-.61l11.36,0a3,3,0,0,1,2.43,1.26A8.15,8.15,0,0,1,81,7.38l6.72,39C88.44,50.83,85.84,55.29,81.22,55.81Z"/><path class="cls-1" d="M7.57,19A11.28,11.28,0,0,1,18.7,7.54,11.28,11.28,0,0,1,29.77,19,11.27,11.27,0,0,1,18.64,30.43,11.27,11.27,0,0,1,7.57,19Z"/><path class="cls-3" d="M30.69,32.28a5.65,5.65,0,1,1,5.63,5.78A5.7,5.7,0,0,1,30.69,32.28Z"/><path class="cls-4" d="M32.67,32.29A3.67,3.67,0,1,1,36.33,36,3.69,3.69,0,0,1,32.67,32.29Z"/><path class="cls-3" d="M46.56,32.33a5.65,5.65,0,1,1,5.63,5.77A5.7,5.7,0,0,1,46.56,32.33Z"/><path class="cls-4" d="M48.54,32.33a3.67,3.67,0,1,1,3.66,3.75A3.69,3.69,0,0,1,48.54,32.33Z"/><path class="cls-3" d="M51.6,16,35,16a3.94,3.94,0,0,1-3.89-4V6.12l24.28.06v5.94A3.85,3.85,0,0,1,51.6,16Z"/><path class="cls-5" d="M16.37,11.23h4.05a1.8,1.8,0,0,1,1.36,2.91l-2.31,3a1.07,1.07,0,0,1-1.72,0l-2.58-3.38A1.57,1.57,0,0,1,16.37,11.23Z"/><path class="cls-5" d="M20.61,26H16.56a1.8,1.8,0,0,1-1.36-2.91l2.31-3a1.07,1.07,0,0,1,1.71,0l2.58,3.39A1.56,1.56,0,0,1,20.61,26Z"/><path class="cls-5" d="M26.43,16.6v4.18a1.74,1.74,0,0,1-2.83,1.4l-2.9-2.39a1.14,1.14,0,0,1,0-1.76L24,15.37A1.52,1.52,0,0,1,26.43,16.6Z"/><path class="cls-5" d="M10.91,21V16.79a1.74,1.74,0,0,1,2.83-1.4l2.91,2.38a1.15,1.15,0,0,1,0,1.77L13.37,22.2A1.52,1.52,0,0,1,10.91,21Z"/><path class="cls-1" d="M57.13,19.09a11.11,11.11,0,1,1,22.2.06,11.11,11.11,0,1,1-22.2-.06Z"/><path class="cls-4" d="M66.36,13.49a2.31,2.31,0,1,1,2.3,2.36A2.34,2.34,0,0,1,66.36,13.49Z"/><path class="cls-6" d="M66.33,24.08a2.32,2.32,0,1,1,2.31,2.36A2.34,2.34,0,0,1,66.33,24.08Z"/><path class="cls-7" d="M73.89,16.44a2.36,2.36,0,1,1-2.32,2.35A2.34,2.34,0,0,1,73.89,16.44Z"/><path class="cls-8" d="M63.6,16.42a2.36,2.36,0,1,1-2.41,2.26A2.33,2.33,0,0,1,63.6,16.42Z"/></g></g></svg>