<svg xmlns="http://www.w3.org/2000/svg" viewBox="0 0 119.16 138"><defs><style>.cls-1,.cls-2{fill:#c2451d;}.cls-1,.cls-10,.cls-4,.cls-5,.cls-6,.cls-8{fill-rule:evenodd;}.cls-3,.cls-5{fill:#d0775b;}.cls-4{fill:#c86244;}.cls-6,.cls-7{fill:#ffd88d;}.cls-8,.cls-9{fill:#402c2a;}.cls-10{fill:#c35026;}</style></defs><g id="Layer_2" data-name="Layer 2"><g id="Layer_1-2" data-name="Layer 1"><path class="cls-1" d="M25.51,112.72c8.47,0,15.38-11.77,15.38-26.2S34,60.32,25.51,60.32,10.14,72.09,10.14,86.52,17,112.72,25.51,112.72Z"/><ellipse class="cls-2" cx="93.77" cy="86.52" rx="15.37" ry="26.2"/><circle class="cls-3" cx="59.58" cy="95.29" r="42.35"/><path class="cls-4" d="M59.58,52.94a42.35,42.35,0,1,1,0,84.7V52.94h0Z"/><path class="cls-5" d="M22.44,0A12.79,12.79,0,0,1,35.22,12.43,42.91,42.91,0,0,1,84,12.09,12.79,12.79,0,1,1,96.72,25.58l-.69,0a35,35,0,0,1,4.14,16.5c0,20.65-18.06,37.39-40.34,37.39S19.49,62.71,19.49,42.06a34.93,34.93,0,0,1,4.15-16.53c-.4,0-.8,0-1.2,0A12.79,12.79,0,0,1,22.44,0Z"/><path class="cls-4" d="M59.83,4.67A42.29,42.29,0,0,1,84,12.09,12.79,12.79,0,1,1,96.72,25.58l-.69,0a35,35,0,0,1,4.14,16.5c0,20.65-18.06,37.39-40.34,37.39Z"/><path class="cls-6" d="M96.72,17.46a4.67,4.67,0,1,0-4.67-4.67A4.68,4.68,0,0,0,96.72,17.46Z"/><path class="cls-6" d="M22.44,17.46a4.67,4.67,0,1,0-4.68-4.67A4.68,4.68,0,0,0,22.44,17.46Z"/><ellipse class="cls-7" cx="59.58" cy="61.89" rx="21.4" ry="15.74"/><path class="cls-8" d="M59.58,65.58a3.69,3.69,0,1,0-3.81-3.69A3.75,3.75,0,0,0,59.58,65.58Z"/><rect class="cls-9" x="59.06" y="64.57" width="1.05" height="13.06"/><path class="cls-8" d="M77.78,46.18A3.69,3.69,0,1,0,74,42.49,3.77,3.77,0,0,0,77.78,46.18Z"/><path class="cls-8" d="M41.38,46.18a3.69,3.69,0,1,0-3.81-3.69A3.76,3.76,0,0,0,41.38,46.18Z"/><path class="cls-10" d="M31.38,102.5c11,6.55,15.61,18.91,10.4,27.62s-18.3,10.47-29.25,3.93-15.6-18.91-10.4-27.62S20.43,96,31.38,102.5Z"/><path class="cls-10" d="M87.78,102.5c-11,6.55-15.61,18.91-10.4,27.62s18.3,10.47,29.25,3.93,15.6-18.91,10.4-27.62S98.73,96,87.78,102.5Z"/><path class="cls-6" d="M26.44,110.77c5.21,3.11,7.42,9,4.95,13.14s-8.71,5-13.92,1.87-7.42-9-4.95-13.14S21.23,107.66,26.44,110.77Z"/><path class="cls-6" d="M92.72,110.77c-5.21,3.11-7.42,9-5,13.14s8.71,5,13.92,1.87,7.42-9,5-13.14S97.93,107.66,92.72,110.77Z"/></g></g></svg>