<svg width="723" height="114" viewBox="0 0 723 114" fill="none" xmlns="http://www.w3.org/2000/svg">
<path d="M26.8299 112.044C23.4972 112.071 20.2384 111.063 17.5027 109.159C14.767 107.256 12.6892 104.551 11.5556 101.417C11.1475 100.318 10.7864 99.0933 10.441 97.8688L9.93872 96.142C8.37937 90.1349 6.80956 84.1016 5.22929 78.0421C3.72227 72.2861 2.22049 66.5302 0.723939 60.7742C0.342808 59.2291 0.101124 57.653 0.00181568 56.0648V55.7508V55.4054C-0.123769 47.9331 6.28106 40.3824 14.3342 38.6085L16.6889 38.059C18.8082 37.5724 20.9431 37.0857 23.1094 36.6619C25.3642 36.2176 27.6557 35.9864 29.9538 35.9712C35.4548 35.9956 40.834 37.5929 45.4569 40.5746C50.0797 43.5564 53.7532 47.7982 56.044 52.7995C61.664 67.022 56.044 80.2712 41.6489 86.6133L41.0681 86.8644L42.0413 90.8988C42.3239 92.0291 42.5751 93.1437 42.7635 94.2896C43.3498 98.1462 42.4415 102.081 40.2241 105.291C38.0067 108.5 34.6475 110.742 30.8329 111.558C29.523 111.88 28.1789 112.044 26.8299 112.044Z" fill="#4B96C9"/>
<path d="M61.3344 104.761C57.6568 104.804 54.073 103.601 51.1678 101.345C48.2625 99.0902 46.2075 95.9169 45.338 92.3434L44.3176 87.8537L37.6302 59.2047C36.9866 56.3476 36.5628 53.6476 36.1389 51.0417C34.5691 41.6228 39.1843 34.6843 48.6974 31.9371C53.2902 30.4604 58.0257 29.4712 62.8257 28.9858C63.5321 28.9858 64.1443 28.9858 64.7565 28.9858C68.6391 29.0123 72.4745 29.8387 76.0235 31.4133C79.5724 32.9879 82.7589 35.277 85.3839 38.1378C87.7669 40.6098 89.5619 43.5872 90.6354 46.8486C91.709 50.11 92.0334 53.5715 91.5846 56.9756C91.084 60.7321 89.7309 64.3244 87.6287 67.4776C88.3508 68.6236 89.0886 69.7695 89.795 70.9155C90.2032 71.5591 90.627 72.2027 91.0509 72.8463C92.1026 74.4161 93.28 76.2842 94.3632 78.2779C96.2764 81.5834 96.8544 85.495 95.979 89.2125C95.1036 92.9301 92.8409 96.1728 89.6538 98.2773C86.8805 100.18 83.5982 101.203 80.2349 101.213C77.9067 101.21 75.6039 100.729 73.469 99.8C71.0939 102.23 68.0313 103.873 64.6937 104.509H64.3955C63.3847 104.684 62.3602 104.769 61.3344 104.761Z" fill="#4B96C9"/>
<path d="M96.3879 99.3606C92.4091 99.3782 88.543 98.0397 85.4269 95.5656C82.3107 93.0915 80.1305 89.6296 79.2456 85.7504C76.8595 74.5105 74.5361 63.0823 72.1657 51.7012L71.0826 46.4109C70.7888 44.859 70.6573 43.2806 70.6901 41.7015V41.4503C70.8942 33.9152 76.0902 28.0127 83.9236 26.4272C90.3598 25.2028 97.7851 23.8527 105.399 22.6911C107.21 22.3915 109.042 22.2393 110.877 22.2358H112.73C116.156 22.3085 119.462 23.5117 122.133 25.658C124.805 27.8043 126.692 30.7735 127.502 34.1036C128.148 37.3287 127.702 40.6775 126.232 43.6201C124.762 46.5628 122.353 48.9313 119.386 50.3511C121.032 52.3487 122.116 54.7493 122.525 57.3054C122.969 59.8374 122.714 62.4427 121.787 64.8405C124.883 65.3287 127.76 66.7388 130.042 68.8866C132.325 71.0345 133.906 73.8204 134.581 76.8809C135.017 78.9361 135.006 81.061 134.548 83.1114C134.091 85.1618 133.197 87.0898 131.928 88.7644C129.318 92.1156 125.54 94.3581 121.348 95.0436C113.954 96.4722 106.639 97.8536 99.245 98.9996C98.3044 99.1998 97.3487 99.3205 96.3879 99.3606Z" fill="#4B96C9"/>
<path d="M140.296 91.2759C134.472 91.2759 122.588 88.1363 118.428 84.8397C116.195 83.0777 114.514 80.7134 113.582 78.0262C112.65 75.339 112.507 72.4412 113.169 69.6753C113.78 66.9938 115.085 64.5199 116.952 62.5013C113.468 59.6072 110.854 55.8033 109.402 51.5126C107.278 44.7653 107.899 37.4527 111.132 31.1608C114.365 24.8689 119.947 20.1052 126.67 17.9029C134.081 15.6081 142.083 16.1681 149.102 19.4728C151.811 20.8342 154.143 22.843 155.89 25.3212C157.637 27.7994 158.746 30.6704 159.118 33.6795C159.516 37.4071 158.477 41.1462 156.213 44.1345C161.48 47.7276 165.174 53.1977 166.54 59.4253C167.906 65.6528 166.84 72.1669 163.56 77.6342C161.401 81.2418 158.462 84.3199 154.958 86.6425C151.453 88.9652 147.473 90.4733 143.31 91.0561C142.313 91.2151 141.305 91.2887 140.296 91.2759Z" fill="#4B96C9"/>
<path d="M173.325 86.4095C168.611 86.4042 164.004 85.012 160.076 82.4065C156.541 80.1216 153.519 77.1282 151.201 73.6155C148.882 70.1028 147.318 66.1472 146.607 61.999V61.7007C144.992 53.7734 144.249 45.693 144.393 37.6041C144.817 25.0456 152.556 15.6268 165.586 11.9377C167.96 11.2923 170.409 10.9598 172.87 10.9487C179.24 10.9641 185.384 13.3155 190.138 17.5576C192.248 19.3631 193.904 21.6393 194.973 24.2024C196.042 26.7656 196.493 29.5441 196.291 32.3139C196.084 35.7058 194.757 38.933 192.518 41.4898C190.279 44.0465 187.256 45.7883 183.921 46.4421C182.739 46.6916 181.534 46.8178 180.326 46.8189C179.665 46.8214 179.005 46.7847 178.348 46.709C178.427 47.541 178.521 48.4201 178.631 49.2992C180.11 48.8672 181.643 48.6504 183.183 48.6556C184.014 48.6565 184.843 48.7194 185.664 48.844C188.058 49.1806 190.348 50.0472 192.366 51.3806C194.384 52.714 196.079 54.4806 197.327 56.5517C198.447 58.4523 199.101 60.5904 199.238 62.7919C199.374 64.9933 198.988 67.1959 198.112 69.2201C193.089 80.7268 184.894 84.6356 178.913 85.8915C177.076 86.274 175.201 86.4478 173.325 86.4095Z" fill="#4B96C9"/>
<path d="M198.473 84.0554C197.564 84.0584 196.656 83.9901 195.757 83.8514C192.536 83.4276 189.524 82.0195 187.133 79.8195C184.742 77.6195 183.088 74.7348 182.398 71.5597C181.849 69.0951 181.268 66.3794 180.828 63.5223L180.483 60.9164C178.976 49.7708 177.49 38.6304 176.025 27.4952C175.756 25.1897 175.97 22.8535 176.653 20.6351C177.621 17.6875 179.441 15.093 181.883 13.1791C184.325 11.2652 187.279 10.1178 190.373 9.8819C190.978 9.81401 191.585 9.77733 192.194 9.77202C195.842 9.76601 199.39 10.9634 202.288 13.1785C202.586 12.8331 202.884 12.5035 203.214 12.1738C206.334 9.14506 210.514 7.45511 214.862 7.46439C216.943 7.46346 219.007 7.84113 220.953 8.57896C223.697 9.61216 226.108 11.3743 227.925 13.6757C229.743 15.9771 230.898 18.7306 231.267 21.6398C231.267 21.6398 231.675 25.1405 231.879 26.7731C232.271 30.0226 232.664 33.2878 232.993 36.5687C233.527 41.4351 233.998 46.4428 234.485 51.4505C234.72 54.0093 234.971 56.5681 235.222 59.1112C235.364 60.681 235.442 62.1095 235.521 63.6008L235.615 65.5474C235.892 69.6198 234.571 73.6398 231.934 76.7551C229.296 79.8703 225.549 81.8357 221.487 82.2345H221.173C220.639 82.2345 220.105 82.2345 219.603 82.2345C216.172 82.2546 212.82 81.2067 210.011 79.2361C208.527 80.7946 206.734 82.0278 204.748 82.8574C202.762 83.687 200.625 84.0949 198.473 84.0554Z" fill="#4B96C9"/>
<path d="M243.543 79.2355C240.241 79.2331 236.975 78.5597 233.942 77.2563C230.909 75.9529 228.172 74.0467 225.898 71.6533C221.145 66.8584 217.908 60.7713 216.589 54.1499C215.141 47.1903 214.66 40.0642 215.16 32.9732C215.546 28.5324 216.604 24.1761 218.3 20.0537C222.005 11.1842 231.596 5.28174 242.161 5.28174C244.458 5.2812 246.745 5.56059 248.974 6.11374C259.194 8.57834 266.242 15.1088 268.769 24.4805C270.512 31.4034 271.046 46.1282 270.669 50.9004C270.324 56.3634 269.429 62.313 265.394 67.823C263.095 71.1596 260.058 73.9218 256.519 75.8954C252.98 77.8691 249.034 79.0013 244.987 79.2041L243.543 79.2355Z" fill="#4B96C9"/>
<path d="M279.098 76.9281C275.701 76.9091 272.344 76.1865 269.24 74.8059C266.135 73.4253 263.351 71.4166 261.061 68.9064C256.433 64.0006 253.349 57.843 252.192 51.1989C250.932 44.208 250.637 37.0776 251.313 30.0065C251.795 25.5789 252.943 21.2496 254.719 17.1654C258.565 8.62565 268.015 2.94294 278.266 2.94294C280.786 2.93742 283.295 3.27542 285.723 3.94762C295.864 6.64769 302.771 13.3665 305.032 22.7853C306.601 29.7396 306.758 44.4644 306.256 49.2366C305.769 54.6839 304.686 60.6021 300.542 66.0179C298.16 69.3077 295.051 72.0036 291.457 73.8959C287.863 75.7882 283.881 76.8258 279.82 76.9281H279.098Z" fill="#4B96C9"/>
<path d="M306.633 75.9859C297.01 75.9859 289.742 69.3456 289.365 60.2093C288.675 47.4938 288.031 34.6057 287.387 21.7646L287.23 19.0488C287.128 16.7051 287.485 14.3639 288.282 12.1574C289.362 9.22174 291.272 6.6639 293.781 4.79617C296.29 2.92843 299.289 1.83162 302.411 1.63965H303.054H303.447C310.495 1.63965 316.774 5.90953 318.689 12.0004L318.831 12.4713C319.622 15.5567 320.116 18.7107 320.306 21.8902C320.704 29.4567 321.06 36.9656 321.374 44.417L325.157 44.1658H326.476C328.724 44.137 330.955 44.5598 333.037 45.4092C335.118 46.2587 337.008 47.5173 338.595 49.1107C340.635 51.0743 342.049 53.5978 342.658 56.3634C343.267 59.1289 343.044 62.0128 342.017 64.6518C340.956 67.4841 339.109 69.9548 336.692 71.7734C334.276 73.5921 331.39 74.6831 328.375 74.9184C325.236 75.248 321.782 75.5149 317.748 75.719C314.263 75.8917 310.715 76.0173 307.214 76.0644L306.633 75.9859Z" fill="#4B96C9"/>
<path d="M397.117 75.6721C393.44 75.7648 389.848 74.5556 386.976 72.2578C384.104 69.96 382.136 66.7214 381.419 63.1136C380.383 63.3034 379.332 63.3979 378.279 63.3962C377.225 63.3983 376.174 63.2984 375.14 63.0979C374.332 66.6202 372.34 69.7588 369.498 71.99C366.655 74.2213 363.133 75.4101 359.52 75.3582H359.253C357.172 75.381 355.107 74.9925 353.176 74.2152C351.245 73.4378 349.487 72.2868 348.002 70.8283C346.517 69.3698 345.335 67.6324 344.524 65.7158C343.712 63.7993 343.287 61.7413 343.272 59.6601C343.272 54.2599 343.272 48.8755 343.272 43.5695L343.649 23.3189C343.728 20.1793 343.979 17.1653 344.214 14.4809V14.1199C345.203 5.97254 351.765 0.493905 360.525 0.493905C361.332 0.489976 362.139 0.531908 362.942 0.619492C366.123 0.884531 369.18 1.97164 371.813 3.77422C374.447 5.57679 376.567 8.03293 377.965 10.9018L379.849 14.8106L382.094 10.8704C382.956 9.15525 384.09 7.59131 385.453 6.23942C388.198 3.56144 391.799 1.93618 395.622 1.64909C399.446 1.36201 403.249 2.43146 406.363 4.66961C408.489 6.08431 410.266 7.96442 411.558 10.1675C412.85 12.3705 413.623 14.8387 413.82 17.3851C413.99 19.1483 414.058 20.9199 414.024 22.691L412.909 60.5862C412.804 64.5246 411.205 68.2755 408.435 71.0774C405.665 73.8792 401.933 75.522 397.996 75.6721H397.117Z" fill="#4B96C9"/>
<path d="M442.987 77.1789C439.744 77.2197 436.566 76.2791 433.868 74.4804C431.17 72.6818 429.079 70.1093 427.869 67.1008C427.069 65.1071 426.441 63.1919 425.844 61.3239C425.295 62.564 424.746 63.8042 424.275 65.0443C423.667 66.5391 422.893 67.9609 421.967 69.2828C420.442 71.3996 418.435 73.1229 416.112 74.3104C413.789 75.4978 411.217 76.1152 408.608 76.1115C406.348 76.1116 404.111 75.6578 402.03 74.7771C398.627 73.4398 395.834 70.8989 394.181 67.6372C392.529 64.3755 392.132 60.6204 393.067 57.0854C393.602 55.1642 394.306 53.2941 395.17 51.4969C400.1 40.257 405.578 28.2009 412.328 13.7115L412.501 13.3505C413.05 12.283 413.506 11.3882 413.961 10.5719C415.371 7.93767 417.469 5.73495 420.032 4.19805C422.594 2.66114 425.525 1.84753 428.513 1.84375C431.326 1.87203 434.093 2.57029 436.582 3.88066C439.072 5.19104 441.214 7.07582 442.83 9.37884C444.223 11.4959 445.282 13.8151 445.969 16.2546C449.109 25.6735 452.107 35.0923 454.839 43.8048L455.027 44.4327C456.236 48.577 457.429 52.6585 458.544 56.8028L458.638 57.1325V57.4621C459.204 60.1784 459.171 62.9853 458.544 65.6879C457.67 68.971 455.739 71.8745 453.048 73.9489C450.358 76.0234 447.059 77.1532 443.662 77.1632L442.987 77.1789Z" fill="#4B96C9"/>
<path d="M504.979 81.7161C501.162 81.7182 497.462 80.398 494.508 77.9799C493.855 77.4492 493.241 76.8721 492.671 76.2531C489.779 78.2376 486.352 79.2944 482.844 79.2829C481.61 79.2827 480.379 79.1565 479.171 78.9061L478.747 78.8119C476.592 78.2816 474.561 77.3379 472.766 76.0334C470.154 77.6155 467.155 78.4466 464.101 78.4352C462.066 78.4435 460.045 78.0873 458.136 77.3834C454.864 76.2668 452.049 74.1086 450.121 71.2393C448.193 68.37 447.258 64.9478 447.461 61.4969C447.775 55.9712 448.183 50.3042 448.575 44.6372C448.811 41.2778 449.062 37.9027 449.297 34.5276H448.12C445.495 34.3922 442.936 33.655 440.642 32.3729C438.347 31.0909 436.378 29.2983 434.887 27.1338C433.501 25.0481 432.655 22.6509 432.425 20.1575C432.195 17.6641 432.587 15.1526 433.568 12.8485C434.934 9.8479 437.148 7.31263 439.938 5.55526C442.727 3.7979 445.97 2.89528 449.266 2.95869H450.302C463.143 3.44533 474.933 4.04187 486.125 4.79538C490.905 5.0625 495.399 7.15262 498.684 10.6351C501.66 8.02976 505.482 6.59582 509.437 6.60066C512.442 6.58774 515.396 7.37908 517.992 8.89258C520.506 10.3219 522.56 12.4381 523.914 14.9933C525.268 17.5484 525.866 20.4365 525.637 23.3191C525.449 25.7366 525.261 27.9344 525.088 30.1321C524.727 34.716 524.35 39.2684 523.911 43.8209C523.408 49.7077 522.733 55.6886 522.09 61.4812L521.43 67.4936C521.104 70.4516 519.943 73.2558 518.084 75.5794C516.224 77.903 513.743 79.6501 510.928 80.6172C509.03 81.3468 507.013 81.7193 504.979 81.7161Z" fill="#4B96C9"/>
<path d="M555.024 87.1318C552.518 87.1207 550.022 86.8258 547.583 86.2526C538.4 84.2276 531.744 79.3926 527.929 71.8732C525.669 67.4353 524.825 62.4107 525.511 57.478C526.422 50.3511 527.427 43.8992 528.651 37.7769C529.853 31.9489 532.559 26.5369 536.5 22.0788C538.969 19.055 542.083 16.6215 545.614 14.9565C549.145 13.2915 553.004 12.4371 556.908 12.4559C564.469 12.5142 571.706 15.5352 577.064 20.8701L577.3 21.1055L577.519 21.3567C579.228 23.1875 580.68 25.2418 581.836 27.4633C583.087 29.8048 583.668 32.4458 583.516 35.0961C583.363 37.7464 582.484 40.3035 580.973 42.4863C581.54 43.3716 582.013 44.3133 582.386 45.2963L582.527 45.6417L582.621 45.9713C583.481 48.7045 583.722 51.5947 583.328 54.4326C583.155 55.453 583.029 56.3321 582.888 57.2269C582.326 62.167 581.101 67.0089 579.246 71.622C577.175 76.2977 573.774 80.261 569.467 83.0187C565.16 85.7764 560.138 87.2068 555.024 87.1318Z" fill="#4B96C9"/>
<path d="M608.743 95.2161H607.424C604.072 95.058 600.857 93.8361 598.246 91.7276C595.635 89.619 593.764 86.7336 592.903 83.4896C592.354 81.3861 591.946 79.3767 591.569 77.4459C590.847 78.6389 590.141 79.832 589.45 81.0407C588.661 82.4668 587.713 83.7991 586.624 85.0124C584.09 87.7798 580.695 89.6087 576.99 90.2015C573.284 90.7944 569.488 90.1163 566.217 88.2776C562.972 86.5629 560.483 83.7007 559.235 80.2495C557.986 76.7984 558.069 73.006 559.466 69.6125C560.222 67.8061 561.13 66.0677 562.182 64.4164C568.556 53.6004 575.651 41.8897 583.83 28.719L584.003 28.4521C584.599 27.5416 585.211 26.6468 585.808 25.8148C587.347 23.6066 589.393 21.7997 591.775 20.546C594.157 19.2922 596.805 18.6281 599.497 18.6094C602.606 18.6392 605.65 19.5026 608.312 21.1096C610.973 22.7166 613.155 25.0083 614.63 27.7457C615.79 30.0041 616.589 32.43 617 34.9354C618.962 44.4799 620.815 54.0086 622.526 63.192L622.808 64.9345C623.468 68.8119 624.111 72.6423 624.661 76.5354V76.865V77.1947C624.897 79.9672 624.527 82.7579 623.578 85.3734C622.392 88.3231 620.339 90.8435 617.69 92.6011C615.041 94.3586 611.921 95.2705 608.743 95.2161Z" fill="#4B96C9"/>
<path d="M657.297 104.337C656.678 104.339 656.059 104.302 655.444 104.227H655.068C651.333 103.794 647.886 102.01 645.376 99.2105C642.866 96.4113 641.467 92.7907 641.442 89.0311H641.081C639.036 89.0397 637.008 88.667 635.1 87.9323C633.602 91.2896 631.012 94.0408 627.751 95.737C624.489 97.4333 620.749 97.9745 617.141 97.2726C615.085 96.952 613.115 96.2201 611.349 95.1208C609.582 94.0214 608.055 92.5772 606.859 90.8744C605.664 89.1717 604.824 87.2453 604.389 85.2104C603.955 83.1756 603.935 81.074 604.331 79.0314C605.32 73.7098 606.309 68.4195 607.361 63.2077C607.361 63.2077 610.391 48.8597 611.568 43.3339C612.196 40.4298 612.981 37.6041 613.782 34.7314L613.892 34.3703C614.89 31.1365 616.922 28.3195 619.675 26.3515C622.428 24.3836 625.751 23.3734 629.134 23.4758C631.073 23.4893 633.001 23.7693 634.864 24.3078C637.935 25.1002 640.742 26.6888 643.002 28.9131C645.262 31.1374 646.895 33.9188 647.737 36.9762L648.945 41.356C649.934 40.1629 650.955 38.9699 651.991 37.7611C653.156 36.2335 654.555 34.8985 656.135 33.8052C659.301 31.629 663.132 30.6377 666.956 31.0051C670.779 31.3726 674.352 33.0754 677.045 35.8145C678.882 37.5744 680.284 39.7369 681.143 42.1315C682.001 44.5261 682.291 47.0873 681.99 49.6132C681.837 51.3858 681.574 53.1473 681.205 54.8877L672.963 91.951C672.163 95.4961 670.171 98.6595 667.32 100.914C664.469 103.167 660.931 104.376 657.297 104.337Z" fill="#4B96C9"/>
<path d="M694.895 113.049C693.635 113.048 692.378 112.922 691.143 112.672C683.702 111.228 676.355 109.784 669.165 108.12C664.83 107.209 661.029 104.623 658.589 100.925C656.149 97.2275 655.268 92.716 656.136 88.3716C658.695 76.4097 661.363 64.3064 663.985 52.266L664.676 49.1264C665.055 47.6086 665.581 46.1312 666.245 44.7152L666.371 44.4483C667.691 41.6291 669.802 39.2542 672.447 37.6127C675.092 35.9711 678.156 35.1336 681.269 35.2021C682.417 35.1983 683.563 35.3034 684.691 35.5161C691.096 36.7719 698.474 38.2633 706.056 40.0371C708.446 40.556 710.768 41.346 712.979 42.3919C716.094 43.715 718.664 46.0628 720.263 49.0461C721.862 52.0295 722.393 55.4696 721.77 58.7964C721.007 62.0406 719.222 64.954 716.678 67.1076C714.135 69.2611 710.967 70.5408 707.641 70.7583C708.316 73.23 708.316 75.8374 707.641 78.3091C706.993 80.8161 705.693 83.1071 703.874 84.9494C705.731 86.1128 707.333 87.64 708.583 89.4391C709.726 91.0799 710.516 92.9401 710.902 94.9019C711.288 96.8637 711.263 98.8843 710.828 100.836C709.976 104.39 707.928 107.544 705.027 109.767C702.126 111.991 698.548 113.15 694.895 113.049Z" fill="#4B96C9"/>
<path d="M27.7408 80.036C28.7926 84.3686 29.8915 88.8583 30.9903 93.3323C31.1944 94.1956 31.3985 95.0433 31.5398 95.9067C31.7569 97.0633 31.5095 98.2589 30.8514 99.2344C30.1932 100.21 29.1772 100.887 28.0234 101.118C26.8462 101.419 25.599 101.262 24.5329 100.679C23.4668 100.097 22.661 99.1317 22.2779 97.9789C21.7442 96.519 21.3674 95.0433 20.9122 93.552C17.8667 81.7941 14.7271 70.0049 11.6817 58.1999C11.4592 57.2189 11.3175 56.2214 11.2578 55.2172C11.2578 52.7526 14.0207 49.7072 16.862 49.0636C19.7034 48.42 22.4192 47.745 25.2762 47.2112C28.3197 46.4946 31.495 46.5594 34.5067 47.3996C36.9336 47.9692 39.1927 49.1014 41.1015 50.7048C43.0103 52.3082 44.5154 54.3379 45.4954 56.6301C48.9333 65.3425 46.139 72.752 36.9242 76.8335C33.9259 78.1522 30.8804 78.9528 27.7408 80.036ZM25.0721 70.8212C28.0887 70.4459 30.9899 69.4288 33.5805 67.8385C34.6738 67.2276 35.5594 66.3037 36.1236 65.1856C36.4193 64.2683 36.5194 63.2993 36.4173 62.341C36.3153 61.3827 36.0134 60.4565 35.5311 59.6221C35.0488 58.7878 34.3969 58.0639 33.6175 57.4971C32.838 56.9304 31.9484 56.5334 31.006 56.3318C27.8664 55.437 24.7268 56.7243 21.7913 57.3836C22.8273 61.936 23.9105 66.3943 25.0721 70.8212Z" fill="white"/>
<path d="M73.4691 66.0806C75.7296 69.5342 77.9588 72.9878 80.0937 76.3786C81.5222 78.6391 83.1078 80.8839 84.3793 83.2543C85.0136 84.2581 85.2276 85.4711 84.975 86.6313C84.7224 87.7916 84.0235 88.8059 83.0293 89.4551C82.462 89.8455 81.8227 90.1192 81.1486 90.2603C80.4746 90.4015 79.7791 90.4072 79.1028 90.2772C78.4266 90.1472 77.7828 89.8841 77.2091 89.5031C76.6354 89.1221 76.1432 88.6309 75.7611 88.0579C74.0814 85.7032 72.3703 83.3485 70.8005 80.8211C68.7283 77.4931 66.6562 74.1651 64.6311 70.7743C64.1131 69.8167 63.5008 70.0208 62.5432 70.429L63.5322 74.9343C64.3956 79.3141 65.3375 83.6782 66.1381 88.0736C66.3038 88.7138 66.3328 89.3817 66.2232 90.0338C66.1136 90.6859 65.868 91.3077 65.5022 91.8585C65.1364 92.4094 64.6588 92.8771 64.1003 93.2311C63.5418 93.5851 62.915 93.8176 62.2607 93.9133C60.9321 94.1433 59.5663 93.843 58.4568 93.0769C57.3472 92.3108 56.5825 91.14 56.3268 89.8161C55.9971 88.3876 55.6989 87.0219 55.3692 85.5933C53.1506 76.0489 50.9162 66.473 48.6661 56.8658C48.101 54.3698 47.6928 51.8424 47.2847 49.315C46.6411 45.3277 47.7085 43.4753 51.9941 42.2352C55.8309 40.9859 59.7872 40.1389 63.7991 39.7078C72.9825 39.0642 81.6165 47.5568 80.4234 55.4059C80.1898 57.4126 79.5314 59.3465 78.492 61.0789C77.4526 62.8112 76.056 64.3022 74.3953 65.4527C74.0971 65.594 73.8302 65.8608 73.4691 66.0806ZM60.738 60.649L65.6986 58.781C66.1741 58.5467 66.6353 58.2846 67.08 57.9961C69.7173 56.3007 70.2196 53.6634 68.2103 51.3715C66.2009 49.0796 62.3706 48.5458 58.5088 50.3511C59.2466 53.8361 59.9845 57.1327 60.738 60.649Z" fill="white"/>
<path d="M93.217 45.4852C93.9548 49.3626 94.7083 53.2401 95.4618 57.196L97.4869 56.8349C100.046 56.3169 102.604 55.7361 105.195 55.375C108.334 54.857 110.94 56.5053 111.333 59.1112C111.725 61.717 109.888 63.9462 106.78 64.4642L97.7066 66.034C98.5229 70.2725 99.2764 74.4325 100.108 78.5925C102.871 78.1059 105.43 77.7448 107.879 77.2738C111.019 76.7401 114.064 76.0808 117.219 75.5785C117.863 75.3945 118.536 75.3397 119.2 75.4171C119.865 75.4945 120.507 75.7026 121.091 76.0295C121.675 76.3564 122.188 76.7955 122.601 77.3216C123.014 77.8477 123.319 78.4503 123.499 79.0948C124.048 81.7478 122.4 84.0868 119.213 84.6677C111.913 86.0648 104.614 87.4462 97.3456 88.5922C95.8095 88.8044 94.2492 88.4408 92.9652 87.5713C91.6812 86.7018 90.7644 85.3879 90.3913 83.8828C87.6284 70.7905 84.9284 57.5884 82.2283 44.4805C82.081 43.6306 82.0179 42.7683 82.0399 41.906C82.0599 40.7318 82.508 39.6052 83.3001 38.738C84.0921 37.8708 85.1735 37.3227 86.3412 37.1966C93.2798 35.8937 100.25 34.6378 107.235 33.5703C108.861 33.2814 110.516 33.1865 112.165 33.2878C113.152 33.2722 114.116 33.5909 114.9 34.1922C115.684 34.7935 116.241 35.642 116.482 36.6001C116.658 37.5814 116.481 38.5936 115.98 39.4562C115.48 40.3187 114.69 40.9755 113.75 41.3095C112.744 41.7631 111.691 42.1053 110.61 42.3299C105.195 43.366 99.7003 44.3549 94.206 45.3753C93.8733 45.3769 93.5418 45.4137 93.217 45.4852Z" fill="white"/>
<path d="M141.363 80.4287C137.878 81.0723 127.235 77.7443 125.665 76.5199C122.824 74.2279 124.096 69.2046 127.659 68.2941C128.978 68.0272 134.55 70.1307 135.963 70.586C136.838 70.8729 137.763 70.973 138.679 70.8798C139.595 70.7866 140.481 70.5022 141.28 70.045C142.079 69.5878 142.773 68.968 143.318 68.2256C143.862 67.4832 144.244 66.6348 144.44 65.7353C144.633 64.9808 144.586 64.1848 144.304 63.4586C144.023 62.7325 143.522 62.1124 142.87 61.6852C141.697 60.9103 140.425 60.2978 139.087 59.8642C136.827 59.1578 134.378 58.781 132.039 58.1688C126.435 56.599 122.055 53.5535 120.234 48.1534C117.549 40.1317 122.227 30.5087 130.155 28.0755C134.833 26.6441 139.878 27.0309 144.283 29.1587C146.559 30.2419 150.296 35.7833 145.947 38.9543C145.15 39.4923 144.19 39.7349 143.232 39.6404C142.275 39.5458 141.381 39.1199 140.704 38.4363C139.82 37.613 138.698 37.0918 137.499 36.9479C136.3 36.804 135.086 37.0449 134.032 37.6357C133.08 38.1029 132.298 38.8571 131.797 39.792C131.296 40.727 131.1 41.7956 131.238 42.8474C131.238 45.8772 132.337 47.1173 135.539 47.9807C137.957 48.5772 140.516 49.0168 142.949 49.7232C148.239 51.293 152.478 53.9931 154.613 58.7967C158.647 68.2784 152.054 78.9531 141.363 80.4287Z" fill="white"/>
<path d="M169.902 62.6111C170.671 63.8271 171.7 64.8567 172.916 65.6251C173.35 65.7804 173.812 65.8384 174.271 65.795C174.729 65.7516 175.173 65.6078 175.569 65.3739C176.758 64.3198 177.841 63.1527 178.803 61.889C179.304 61.0262 180.046 60.3297 180.94 59.8859C181.833 59.4421 182.837 59.2707 183.827 59.393C186.731 59.8639 188.63 62.5326 187.547 65.06C185.412 69.9421 182.115 74.0707 176.354 75.2951C174.663 75.7052 172.905 75.7592 171.192 75.4539C169.478 75.1485 167.847 74.4904 166.402 73.5212C164.093 72.0275 162.124 70.0648 160.623 67.7606C159.122 65.4564 158.122 62.8622 157.689 60.1465C156.205 52.8636 155.495 45.4443 155.57 38.0121C155.853 30.0061 160.405 24.5275 168.694 22.1885C171.063 21.5057 173.569 21.4445 175.969 22.0109C178.369 22.5773 180.583 23.7521 182.398 25.4223C183.291 26.2162 183.983 27.2107 184.417 28.3242C184.851 29.4376 185.014 30.6382 184.894 31.8271C184.835 32.7898 184.457 33.7056 183.821 34.4303C183.184 35.1549 182.325 35.6474 181.378 35.8301C180.394 36.0716 179.359 35.9898 178.426 35.5967C177.493 35.2037 176.711 34.5204 176.197 33.6481C175.719 32.7942 174.932 32.1557 173.998 31.8638C173.064 31.5719 172.053 31.6486 171.174 32.0783C170.104 32.3687 169.137 32.9515 168.38 33.7611C167.623 34.5708 167.106 35.5753 166.888 36.6621C166.611 38.843 166.538 41.045 166.669 43.2396C166.778 45.8455 167.83 58.9691 169.902 62.6111Z" fill="white"/>
<path d="M212.523 49.6445C212.283 49.6611 212.042 49.6611 211.801 49.6445L201.016 50.7277C201.056 51.4118 201.135 52.0932 201.252 52.7684C201.817 57.6976 202.555 62.6896 203.042 67.6345C203.13 68.9092 202.811 70.1791 202.131 71.2608C201.675 72.0369 200.982 72.6463 200.154 72.9995C199.327 73.3527 198.407 73.431 197.531 73.2231C196.559 73.1043 195.647 72.6851 194.924 72.0238C194.201 71.3626 193.702 70.4922 193.497 69.534C192.963 67.1008 192.43 64.6519 192.131 62.2658C190.562 50.241 188.882 38.2163 187.328 26.1602C187.245 25.3094 187.331 24.4507 187.579 23.6328C187.848 22.7528 188.384 21.9781 189.112 21.4157C189.84 20.8533 190.725 20.5309 191.645 20.4931C192.583 20.3791 193.534 20.5503 194.374 20.9842C195.214 21.4182 195.904 22.0949 196.354 22.9263C196.896 24.0277 197.277 25.2014 197.484 26.4113C198.285 31.3248 198.944 36.3325 199.745 41.2303C199.745 41.5286 199.745 41.7484 199.823 41.8896C203.764 41.4815 207.531 41.1047 211.471 40.728C211.346 39.5506 211.252 38.6087 211.142 37.5884C210.718 32.7847 210.2 27.9968 209.933 23.1775C209.905 22.3502 210.085 21.5291 210.458 20.7899C210.83 20.0507 211.383 19.4173 212.065 18.948C212.747 18.4788 213.536 18.1888 214.36 18.105C215.183 18.0211 216.015 18.146 216.777 18.4681C217.69 18.8268 218.482 19.438 219.06 20.2303C219.639 21.0226 219.979 21.9632 220.043 22.942C220.608 27.8084 221.236 32.5807 221.722 37.4628C222.539 44.9351 223.292 52.5016 223.951 60.0053C224.156 62.0303 224.187 64.0083 224.312 66.049C224.407 66.6861 224.37 67.3359 224.203 67.958C224.037 68.5802 223.744 69.1616 223.344 69.6663C222.944 70.171 222.444 70.5882 221.877 70.8921C221.309 71.1961 220.685 71.3803 220.043 71.4335C219.384 71.4982 218.719 71.4314 218.087 71.2368C217.454 71.0423 216.867 70.724 216.359 70.3004C215.85 69.8768 215.431 69.3563 215.126 68.7693C214.82 68.1823 214.635 67.5404 214.58 66.881C213.952 61.6693 213.308 56.4418 212.68 51.1829C212.633 50.6963 212.586 50.2253 212.523 49.6445Z" fill="white"/>
<path d="M259.319 50.0998C259.068 54.0557 258.581 58.1843 256.038 61.6536C254.756 63.6326 253.024 65.2802 250.983 66.4615C248.942 67.6429 246.651 68.3246 244.296 68.4508C242.4 68.5436 240.507 68.2176 238.752 67.4958C236.996 66.7741 235.422 65.6745 234.139 64.2752C230.824 60.9639 228.572 56.7388 227.672 52.1405C226.414 46.1312 225.981 39.9785 226.384 33.8522C226.679 30.4628 227.472 27.1356 228.739 23.9781C231.172 18.1855 238.786 14.7162 246.007 16.5372C253.715 18.3896 256.619 23.0362 257.718 27.1334C259.068 32.4708 259.649 45.9869 259.319 50.0998ZM237.875 43.0827C238.017 44.5426 238.127 46.0026 238.268 47.5253C238.561 50.8924 239.766 54.116 241.753 56.8499C243.087 58.6552 244.892 59.0163 246.462 57.4465C247.365 56.7211 248 55.7159 248.268 54.5894C248.779 52.0795 249.1 49.5343 249.225 46.9758C249.351 40.6966 248.33 25.6578 244.249 24.7159C240.984 24.0095 239.539 25.7363 238.582 28.7347C237.431 33.4281 237.191 38.2989 237.875 43.0827Z" fill="white"/>
<path d="M295.079 48.1533C294.718 52.1092 294.122 56.2221 291.5 59.6286C290.168 61.5765 288.394 63.1819 286.324 64.3141C284.253 65.4462 281.944 66.073 279.585 66.1433C277.69 66.1968 275.807 65.8304 274.07 65.0705C272.333 64.3106 270.786 63.176 269.539 61.7479C266.313 58.3582 264.171 54.0844 263.385 49.4719C262.289 43.4299 262.019 37.2669 262.584 31.1523C262.95 27.7652 263.823 24.4524 265.175 21.3253C267.749 15.5954 275.441 12.2988 282.631 14.2768C290.292 16.3176 293.086 21.0427 294.075 25.1556C295.236 30.5243 295.472 44.0247 295.079 48.1533ZM273.824 40.6496C273.918 42.0938 274.013 43.5538 274.107 45.0922C274.298 48.4694 275.417 51.7284 277.341 54.511C278.628 56.332 280.48 56.7559 282.05 55.2018C282.967 54.5014 283.628 53.5198 283.934 52.4075C284.498 49.9058 284.881 47.3665 285.08 44.8096C285.362 38.5304 284.719 23.4759 280.669 22.4398C277.419 21.6549 275.959 23.3503 274.907 26.333C273.623 30.9899 273.245 35.85 273.793 40.6496H273.824Z" fill="white"/>
<path d="M310.589 55.9548C315.879 55.5624 320.918 55.217 325.973 54.8717C326.777 54.781 327.591 54.8753 328.352 55.1473C329.114 55.4194 329.804 55.8621 330.368 56.4415C330.989 57.0045 331.422 57.7449 331.607 58.5621C331.792 59.3794 331.722 60.2339 331.404 61.0096C331.113 61.8851 330.565 62.6527 329.831 63.2126C329.098 63.7725 328.213 64.0989 327.291 64.1493C323.901 64.526 320.494 64.7615 317.182 64.9185C313.87 65.0754 310.385 65.201 306.978 65.2481C303.195 65.3894 300.793 63.3644 300.699 59.7852C299.93 46.0807 299.255 32.2821 298.58 18.5777C298.548 17.5498 298.719 16.5257 299.082 15.5636C299.413 14.6802 299.996 13.9126 300.757 13.355C301.518 12.7973 302.425 12.4738 303.368 12.424C304.317 12.3564 305.265 12.5782 306.086 13.0602C306.908 13.5422 307.563 14.2618 307.967 15.1241C308.592 17.5773 308.981 20.0847 309.129 22.6121C309.678 33.2554 310.133 43.9144 310.604 54.5577C310.557 54.9345 310.573 55.4054 310.589 55.9548Z" fill="white"/>
<path d="M392.408 33.4285C391.497 35.1553 390.524 36.8821 389.535 38.5618C387.745 41.8113 385.956 44.998 384.103 48.1847C383.443 49.2295 382.669 50.1982 381.796 51.0732C381.283 51.6258 380.649 52.0514 379.943 52.3161C379.237 52.5808 378.479 52.6773 377.73 52.5981C376.98 52.5189 376.259 52.266 375.624 51.8596C374.99 51.4532 374.458 50.9045 374.072 50.2569C373.194 48.743 372.423 47.1693 371.765 45.5474C369.614 41.0892 367.511 36.6152 365.391 32.157C365.234 31.9372 365.156 31.7174 364.826 31.2151C364.823 31.5566 364.797 31.8975 364.748 32.2354C364.654 39.5351 364.559 46.9132 364.387 54.2128C364.387 56.0338 364.214 57.8705 364.135 59.6914C364.155 60.3495 364.04 61.0045 363.798 61.6168C363.556 62.2291 363.192 62.7857 362.728 63.2528C362.265 63.7198 361.71 64.0876 361.1 64.3336C360.489 64.5797 359.835 64.6989 359.177 64.6839C358.519 64.669 357.87 64.5203 357.272 64.2468C356.673 63.9733 356.136 63.5808 355.694 63.0931C355.251 62.6055 354.913 62.0329 354.699 61.4103C354.485 60.7877 354.401 60.1281 354.45 59.4716C354.45 54.15 354.45 48.8126 354.45 43.5538L354.826 23.3974C354.826 20.6973 355.125 17.9188 355.36 15.2187C355.737 12.0006 358.154 10.8232 361.639 11.2C362.973 11.2912 364.256 11.7502 365.345 12.5261C366.434 13.3019 367.287 14.3644 367.809 15.5955C371.372 22.9108 375.046 30.1633 378.578 37.4315C378.772 37.914 379.003 38.3811 379.268 38.8287C379.598 38.185 379.912 37.667 380.148 37.2588C384.119 29.9906 388.138 22.8323 392.219 15.674C392.56 14.9252 393.033 14.2443 393.616 13.6646C394.392 12.8939 395.417 12.4247 396.507 12.3413C397.598 12.2579 398.682 12.5656 399.566 13.2093C400.408 13.7241 401.117 14.4302 401.635 15.2703C402.154 16.1103 402.467 17.0607 402.549 18.0444C402.697 19.4731 402.76 20.9094 402.737 22.3456C402.371 34.9879 402.005 47.6196 401.638 60.2409C401.603 61.4259 401.115 62.5525 400.275 63.3885C399.434 64.2245 398.305 64.7062 397.119 64.7344C395.934 64.7625 394.783 64.335 393.904 63.5399C393.024 62.7448 392.483 61.6427 392.392 60.4606C392.295 59.3436 392.269 58.2216 392.314 57.1012C392.502 49.2208 392.68 41.3351 392.847 33.4442C392.675 33.4285 392.596 33.4285 392.408 33.4285Z" fill="white"/>
<path d="M419.423 48.1379C417.602 52.2979 415.64 56.6148 413.756 60.9318C413.465 61.7208 413.074 62.4698 412.595 63.161C411.96 64.1153 411.01 64.816 409.911 65.1403C408.812 65.4646 407.633 65.3919 406.582 64.9348C405.581 64.549 404.758 63.8064 404.271 62.8501C403.784 61.8938 403.668 60.7912 403.945 59.7545C404.355 58.3887 404.881 57.0601 405.515 55.7829C411.072 43.2244 416.833 30.556 422.642 18.1074C423.081 17.244 423.521 16.3806 423.96 15.5957C426.488 11.0904 431.26 12.3148 433.379 15.3445C434.157 16.5655 434.739 17.9002 435.106 19.3005C438.151 28.4368 441.134 37.6515 443.96 46.8035C445.2 51.042 446.424 55.202 447.57 59.362C447.837 60.6142 447.837 61.9087 447.57 63.161C447.291 64.0801 446.72 64.8835 445.944 65.4498C445.168 66.0162 444.229 66.3148 443.269 66.3006C442.263 66.3661 441.263 66.1071 440.415 65.5617C439.567 65.0163 438.917 64.2134 438.559 63.2709C437.602 60.8847 436.88 58.5614 436.079 56.0497C435.404 54.0561 434.729 51.9682 434.133 49.8961C434.112 49.6834 434.047 49.4772 433.944 49.2901C433.841 49.1031 433.7 48.9392 433.531 48.8084C433.362 48.6776 433.168 48.5826 432.961 48.5294C432.754 48.4762 432.538 48.4658 432.327 48.4989C430.208 48.4989 428.104 48.3733 426.048 48.2792L419.423 48.1379ZM427.743 29.5356C426.174 32.9735 424.745 36.2073 423.254 39.5039C425.938 39.5039 428.293 39.5039 430.82 39.5039C429.8 36.2073 428.842 33.0206 427.743 29.5356Z" fill="white"/>
<path d="M461.479 24.5429C457.177 24.2603 453.112 24.0092 449.062 23.7109C445.011 23.4126 442.782 20.0846 444.117 16.788C444.614 15.7587 445.415 14.9063 446.411 14.3451C447.407 13.7839 448.551 13.5408 449.689 13.6484C461.557 14.1037 473.441 14.6845 485.387 15.4851C489.625 15.8148 491.964 18.5148 491.666 22.3766C491.368 27.4 490.991 32.4234 490.599 37.4624C490.599 37.8863 490.599 38.263 490.489 38.7654C494.602 38.891 498.558 39.0166 502.686 39.1735C502.697 38.647 502.75 38.1221 502.843 37.6037C503.455 32.3135 503.989 26.9918 504.758 21.78C504.824 20.9594 505.099 20.1692 505.557 19.4854C506.016 18.8017 506.642 18.2472 507.377 17.8752C508.111 17.5033 508.929 17.3263 509.751 17.3614C510.574 17.3964 511.374 17.6422 512.074 18.0753C512.888 18.5387 513.545 19.2343 513.962 20.0732C514.378 20.912 514.535 21.8561 514.413 22.7847C513.832 29.5506 513.361 36.2537 512.702 42.9411C512.027 50.7901 511.132 58.6392 510.237 66.4882C510.174 67.4575 509.813 68.3835 509.203 69.1395C508.593 69.8954 507.765 70.4444 506.831 70.711C506.005 71.0457 505.103 71.1451 504.225 70.9983C503.346 70.8514 502.526 70.464 501.854 69.879C501.165 69.3232 500.636 68.5942 500.322 67.7666C500.007 66.9391 499.919 66.0428 500.065 65.1696C500.473 60.366 500.96 55.5624 501.446 50.7744C501.446 50.2564 501.54 49.8326 501.587 49.3145L489.688 48.2784C489.61 49.1418 489.547 49.8482 489.484 50.5233C489.123 54.4635 488.841 58.3723 488.401 62.3125C488.309 63.6323 487.979 64.9246 487.428 66.1272C486.814 67.0693 485.922 67.7964 484.876 68.2073C483.829 68.6182 482.681 68.6922 481.59 68.4192C480.5 68.1461 479.522 67.5396 478.793 66.6841C478.063 65.8286 477.619 64.7668 477.522 63.6469C477.476 62.7946 477.476 61.9404 477.522 61.0881C478.569 49.5761 479.615 38.0642 480.662 26.5523L480.756 25.4534L471.934 24.8098C471.839 25.8302 471.777 26.6935 471.698 27.6511C470.882 39.1578 470.128 50.6802 469.234 62.187C469.084 63.5487 468.581 64.8476 467.774 65.9545C467.108 66.7506 466.205 67.3137 465.198 67.5621C464.19 67.8105 463.129 67.7313 462.169 67.3359C461.103 66.9904 460.185 66.2962 459.561 65.365C458.937 64.4339 458.645 63.32 458.732 62.2027C459.046 56.5984 459.438 50.9785 459.846 45.3743C460.317 38.6712 460.788 31.9681 461.337 25.3435C461.369 25.0452 461.479 24.747 461.479 24.5429Z" fill="white"/>
<path d="M561.727 54.3382C559.328 54.0182 556.952 53.541 554.616 52.9096C551.476 52.0148 550.346 49.2049 551.696 46.8816C552.084 46.1863 552.667 45.619 553.372 45.2483C554.077 44.8777 554.874 44.7198 555.667 44.7937C559.309 44.9664 563.03 45.2176 566.656 45.6414C567.717 45.6609 568.751 45.977 569.642 46.5541C570.533 47.1312 571.244 47.9461 571.695 48.9066C572.1 50.162 572.228 51.49 572.072 52.7997C571.24 57.6975 570.785 62.7209 568.744 67.3833C565.337 74.7457 558.493 77.7126 550.173 75.7818C544.71 74.5887 540.519 72.1084 538.023 67.1792C536.715 64.5866 536.238 61.654 536.657 58.7807C537.458 52.3916 538.431 46.0339 539.64 39.7075C540.466 35.623 542.362 31.831 545.134 28.7189C551.915 20.5244 562.81 22.1727 568.822 28.1537C569.909 29.2989 570.833 30.5877 571.57 31.9841C571.859 32.4566 572.048 32.9835 572.125 33.5321C572.203 34.0807 572.167 34.6393 572.019 35.1734C571.872 35.7075 571.617 36.2058 571.27 36.6373C570.922 37.0689 570.49 37.4246 570 37.6825C568.973 38.193 567.802 38.3391 566.681 38.0966C565.56 37.8541 564.555 37.2375 563.83 36.3481C562.455 34.6141 560.581 33.3431 558.462 32.7062C557.611 32.4444 556.7 32.4549 555.855 32.7364C555.011 33.0178 554.276 33.5561 553.752 34.276C551.728 36.8609 550.38 39.909 549.828 43.1454C548.917 48.106 548.258 53.0352 547.583 58.0272C547.373 59.5326 547.432 61.0633 547.756 62.5483C548.053 63.4229 548.59 64.1961 549.306 64.7792C550.023 65.3623 550.889 65.7316 551.806 65.8449C552.073 65.9412 552.354 65.9994 552.638 66.0175C557.567 66.8652 558.65 66.3472 560 61.9517C560.726 59.4503 561.302 56.908 561.727 54.3382Z" fill="white"/>
<path d="M586.734 63.6629C584.427 67.6032 582.025 71.6847 579.56 75.7662C579.174 76.5198 578.694 77.2214 578.132 77.854C577.387 78.7536 576.347 79.3595 575.197 79.5636C574.047 79.7677 572.862 79.5569 571.853 78.9686C570.906 78.4677 570.179 77.6329 569.814 76.6262C569.448 75.6195 569.47 74.5129 569.875 73.5213C570.423 72.2024 571.09 70.9361 571.868 69.7381C578.901 57.8075 586.154 45.9241 593.453 34.1505C593.987 33.3342 594.536 32.5807 595.023 31.7958C598.163 27.6044 602.699 29.3469 604.442 32.5807C605.101 33.9045 605.546 35.3245 605.76 36.7878C607.691 46.2066 609.544 55.6255 611.27 65.0444C612.008 69.3927 612.73 73.6626 613.358 77.9953C613.48 79.2693 613.325 80.5545 612.903 81.7628C612.51 82.6536 611.838 83.3925 610.989 83.8682C610.14 84.3439 609.159 84.5306 608.194 84.4001C607.175 84.3678 606.195 84.0061 605.4 83.3692C604.604 82.7324 604.037 81.8547 603.783 80.868C603.123 78.3878 602.684 75.9545 602.213 73.4271C601.789 71.355 601.365 69.2201 601.02 67.1479C600.863 66.1589 600.564 65.5781 599.45 65.5781C597.331 65.4054 595.258 64.9973 593.171 64.6833L586.734 63.6629ZM597.252 46.0968C595.258 49.3463 593.469 52.376 591.585 55.5156C594.254 55.8453 596.608 56.0651 599.12 56.379C598.508 52.9568 597.943 49.6916 597.252 46.0968Z" fill="white"/>
<path d="M657.941 61.6849C656.7 63.2548 655.413 64.8246 654.126 66.2531C651.74 69.1415 649.416 71.9672 646.936 74.7772C646.088 75.6952 645.14 76.5165 644.11 77.2261C643.511 77.6864 642.813 77.9999 642.07 78.1414C641.328 78.2829 640.563 78.2485 639.836 78.041C639.11 77.8334 638.442 77.4584 637.887 76.9461C637.331 76.4339 636.904 75.7985 636.638 75.0911C636.05 73.484 635.577 71.8367 635.225 70.1619C633.938 65.4525 632.698 60.6332 631.442 55.8766C631.332 55.6412 631.301 55.4057 631.081 54.8563C630.971 55.4214 630.861 55.6255 630.814 55.8452C629.339 63.0036 627.847 70.2404 626.309 77.3987C625.948 79.204 625.445 80.9622 625.022 82.7518C624.903 83.3846 624.66 83.9878 624.308 84.5265C623.955 85.0652 623.499 85.5288 622.967 85.8906C622.434 86.2525 621.835 86.5054 621.205 86.6349C620.574 86.7643 619.924 86.7677 619.292 86.6449C618.653 86.5382 618.043 86.3008 617.5 85.9476C616.957 85.5945 616.493 85.1331 616.136 84.5924C615.78 84.0517 615.539 83.4433 615.428 82.8052C615.317 82.1671 615.339 81.5129 615.493 80.8837C616.466 75.6249 617.455 70.3817 618.491 65.1856C619.894 58.5924 621.285 52.0044 622.667 45.4217C623.248 42.7687 624.001 40.0844 624.739 37.4628C625.728 34.3231 628.318 33.6167 631.662 34.5743C632.954 34.8917 634.131 35.5642 635.06 36.5157C635.989 37.4673 636.634 38.66 636.921 39.9588C639.056 47.8078 641.316 55.5313 643.435 63.3018C643.545 63.8331 643.687 64.3573 643.859 64.8717C644.299 64.2751 644.723 63.8356 645.037 63.4431C650.311 56.9912 655.649 50.6335 661.017 44.3071C661.503 43.6277 662.103 43.0381 662.791 42.5647C663.692 41.9356 664.788 41.6485 665.881 41.755C666.974 41.8615 667.994 42.3545 668.756 43.1455C669.5 43.7892 670.074 44.6049 670.43 45.5215C670.786 46.4381 670.912 47.4278 670.797 48.4043C670.672 49.8379 670.468 51.2634 670.185 52.6742C667.422 65.0443 664.675 77.404 661.944 89.7532C661.725 90.9335 661.063 91.9856 660.095 92.6946C659.126 93.4036 657.923 93.716 656.732 93.5678C656.126 93.5008 655.539 93.3118 655.008 93.0123C654.477 92.7127 654.012 92.3088 653.641 91.8249C653.27 91.3409 653 90.7869 652.849 90.1962C652.698 89.6054 652.667 88.9902 652.76 88.3874C652.871 87.2663 653.06 86.1542 653.325 85.0594C654.968 77.3359 656.627 69.6125 658.302 61.889C658.145 61.8262 658.098 61.6849 657.941 61.6849Z" fill="white"/>
<path d="M685.538 56.4265C684.643 60.2726 683.733 64.1186 682.822 68.0431L684.832 68.467C687.406 68.9536 689.996 69.3618 692.539 70.0368C695.679 70.7118 697.406 73.1764 696.684 75.7509C695.962 78.3254 693.371 79.6597 690.295 78.9847L681.252 76.991L678.317 89.471C681.08 90.0518 683.576 90.6641 686.025 91.135C689.164 91.81 692.304 92.3438 695.365 93.0502C698.426 93.7566 700.231 96.0956 699.682 98.6073C699.133 101.119 696.621 102.783 693.403 102.139C686.087 100.711 678.772 99.2823 671.598 97.634C670.101 97.2638 668.803 96.3322 667.973 95.032C667.143 93.7318 666.845 92.1624 667.14 90.6484C669.95 77.5562 672.838 64.4011 675.711 51.4031C675.933 50.5681 676.227 49.7539 676.59 48.9699C677.085 47.8772 677.951 46.9953 679.034 46.4808C680.118 45.9663 681.349 45.8527 682.508 46.16C689.463 47.5414 696.401 48.9542 703.293 50.5711C704.919 50.9078 706.499 51.4347 708.002 52.1409C708.929 52.4866 709.704 53.149 710.189 54.0109C710.675 54.8727 710.84 55.8785 710.655 56.8504C710.396 57.8183 709.814 58.6691 709.007 59.2625C708.199 59.856 707.214 60.1569 706.212 60.1156C705.099 60.1587 703.983 60.0851 702.885 59.8958C697.469 58.8283 691.99 57.7138 686.496 56.6149C686.184 56.5201 685.863 56.457 685.538 56.4265Z" fill="white"/>
</svg>
