<svg xmlns="http://www.w3.org/2000/svg" viewBox="0 0 158.65 110"><defs><style>.cls-1{fill:#727c84;}.cls-2{fill:#454b4f;}.cls-3{fill:#7dc3e2;}.cls-4{fill:#e54a35;}.cls-5{fill:#af322c;}.cls-6,.cls-8{fill:#fff;}.cls-7{fill:#64bfed;}.cls-8{opacity:0.4;}.cls-9{opacity:0.14;}</style></defs><g id="Layer_2" data-name="Layer 2"><g id="Layer_1-2" data-name="Layer 1"><rect class="cls-1" x="80.27" y="12.72" width="6.87" height="27.11"/><path class="cls-2" d="M80.27,18s2.26-.32,3.44.88,2.62,10.88,2.62,10.88h.82l-.1-14.39H80.27Z"/><path class="cls-3" d="M6.56,73.64C2.94,73.64,0,76.88,0,80.88s2.94,7.24,6.56,7.24Z"/><path class="cls-4" d="M12,97.48,157.91,96.2s3.2-24-3.7-28.47c-9.11-5.92-24.77-8.64-24.77-8.64s-2.39-27.92-29.31-29.95C76.25,27.34,59.22,29,50.59,37S39.76,59.73,39.76,59.73,20,55.89,12,69.65C6.14,79.79,12,97.48,12,97.48Z"/><path class="cls-5" d="M157.22,72.54a96.18,96.18,0,0,1-.65,15.34L10.69,89.16s-.59-1.78-1.21-4.53A59.67,59.67,0,0,0,12,97.48L157.85,96.2S159.87,81,157.22,72.54Z"/><path class="cls-6" d="M45.06,62.13l79.18-1.2c.13-2.55-1.44-13-8-21.72-8.66-11.49-45.7-10.73-57.7-3.83C46.79,42.1,45.06,62.13,45.06,62.13Z"/><path class="cls-7" d="M48.18,60.09,120.39,59c.12-2.24-1.31-11.35-7.33-19-7.9-10.07-41.68-9.4-52.62-3.36C49.76,42.55,48.18,60.09,48.18,60.09Z"/><path class="cls-6" d="M77.44,30.7s3.9,8.54,4.69,15.47a65.57,65.57,0,0,1,.21,15.39l10.23-.15S92,51.33,91.25,46.24C89.45,34.3,85.84,30.4,85.84,30.4Z"/><path class="cls-4" d="M78.25,29.34s2.88,4.08,4.56,13C84.45,51.13,84,64.21,84,64.21h6.86s.42-15.28-1.28-21.12C86.81,33.5,84,29.34,84,29.34Z"/><rect class="cls-4" x="5.12" y="72.21" width="6.48" height="17.2" rx="1.22"/><path class="cls-5" d="M10,72.29V84.38a1.88,1.88,0,0,1-1.88,1.88H5.39l-.27,0v1.35A1.88,1.88,0,0,0,7,89.47H9.72a1.88,1.88,0,0,0,1.88-1.88V74.15A1.88,1.88,0,0,0,10,72.29Z"/><path class="cls-8" d="M1.12,80.06a2.24,2.24,0,0,0,.49,1.53,1.09,1.09,0,0,0,1.46.17c.43-.38.36-1.06.5-1.61a10.21,10.21,0,0,1,.54-1.28A3.37,3.37,0,0,0,4.28,77,1.34,1.34,0,0,0,4,76.27C2.6,75,1.12,79.23,1.12,80.06Z"/><path class="cls-8" d="M54.59,47.56a6.68,6.68,0,0,0-.38,3.25,3.12,3.12,0,0,0,1.95,2.47,3.47,3.47,0,0,0,3.62-1.49A17.17,17.17,0,0,0,61.55,48a17.06,17.06,0,0,1,6.57-7.8c1-.67,2.31-1.41,2.45-2.64a1.14,1.14,0,0,0-.09-.66,1.4,1.4,0,0,0-.82-.6c-2.89-1-6.67,1.28-8.93,2.91A16.75,16.75,0,0,0,54.59,47.56Z"/><path class="cls-8" d="M91.87,39.1a4.84,4.84,0,0,0,3.58,1.51c1.33.06,2.67-.16,4-.11,2.56.09,5,1.17,7.52,1.55a3.08,3.08,0,0,0,1.88-.14,1.27,1.27,0,0,0,.67-1.59,1.84,1.84,0,0,0-.63-.61c-3.7-2.52-8-3.18-12.27-4-1.15-.22-2.87-1.1-4-.6C91.11,35.78,90.93,38,91.87,39.1Z"/><path class="cls-8" d="M22.71,63.89a10.09,10.09,0,0,0-4.3,5.29,4.32,4.32,0,0,0,.23,3.69c1.1,1.67,3.79,1.63,5.28.3a14.82,14.82,0,0,0,1.79-2.23A22.12,22.12,0,0,1,32,65.88c.82-.49,1.74-1.14,1.78-2.09C34,59.21,24.2,63,22.71,63.89Z"/><circle class="cls-1" cx="41.89" cy="96.25" r="13.75"/><path class="cls-2" d="M51,86a13.75,13.75,0,0,1-20,18.67A13.75,13.75,0,1,0,51,86Z"/><circle class="cls-4" cx="41.89" cy="96.25" r="7.32"/><path class="cls-8" d="M36.29,96.36a3.47,3.47,0,0,0,.3,1.62A2.84,2.84,0,0,0,38,99.26a1.69,1.69,0,0,0,.88.16A1.59,1.59,0,0,0,40,98.06c.13-.62.06-1.27.18-1.89a3.21,3.21,0,0,1,1.39-2c.45-.28,1-.45,1.41-.76,2.34-1.6-1.29-3.13-2.84-2.46A6.34,6.34,0,0,0,36.29,96.36Z"/><path class="cls-8" d="M30.09,93.48a2.64,2.64,0,0,0,.12,1.12,1.1,1.1,0,0,0,.84.68,1.18,1.18,0,0,0,1.07-.76,5.75,5.75,0,0,0,.28-1.37c.39-2.55,2.36-4.58,4.51-6a.87.87,0,0,0,.47-.53c.27-1.62-3.81.63-4.32,1.11A9.14,9.14,0,0,0,30.09,93.48Z"/><path class="cls-8" d="M39.34,85.07a.53.53,0,0,0,.21.68,1.16,1.16,0,0,0,.76.11,1.57,1.57,0,0,0,.87-.35.81.81,0,0,0,.26-.86.89.89,0,0,0-.86-.52,2.7,2.7,0,0,0-1,.29Z"/><circle class="cls-1" cx="126.47" cy="95.09" r="13.75"/><path class="cls-2" d="M135.61,84.83a13.75,13.75,0,0,1-20,18.66,13.75,13.75,0,1,0,20-18.66Z"/><circle class="cls-4" cx="126.47" cy="95.09" r="7.32"/><path class="cls-8" d="M120.87,95.21a3.28,3.28,0,0,0,.29,1.61,2.86,2.86,0,0,0,1.42,1.28,1.36,1.36,0,0,0,2-1.19c.12-.63.06-1.27.18-1.89a3.14,3.14,0,0,1,1.39-2c.45-.29,1-.46,1.41-.76,2.33-1.61-1.29-3.13-2.84-2.46A6.31,6.31,0,0,0,120.87,95.21Z"/><path class="cls-8" d="M114.67,92.33a2.46,2.46,0,0,0,.12,1.11,1,1,0,0,0,.83.68,1.15,1.15,0,0,0,1.07-.76A5.3,5.3,0,0,0,117,92c.4-2.54,2.37-4.57,4.52-6,.2-.14.43-.3.47-.54.27-1.61-3.82.63-4.32,1.12A9.07,9.07,0,0,0,114.67,92.33Z"/><path class="cls-8" d="M123.92,83.92a.51.51,0,0,0,.2.67,1.21,1.21,0,0,0,.77.12,1.57,1.57,0,0,0,.87-.36.85.85,0,0,0,.26-.86.92.92,0,0,0-.87-.52,2.72,2.72,0,0,0-1,.3Z"/><path class="cls-1" d="M97.76,1c-6.5-3.67-7.42,3.74-9.63,4.13s-4.42.54-4.42.54-2.21-.15-4.42-.54S76.16-2.65,69.66,1c-5.89,3.32-.44,11.6,3.85,13.8,3.21,1.63,10.2,2.1,10.2,2.1s7-.47,10.2-2.1C98.2,12.62,103.65,4.34,97.76,1ZM72.49,8.46a2.64,2.64,0,1,1,2.64-2.64A2.64,2.64,0,0,1,72.49,8.46Zm22.72,0a2.64,2.64,0,1,1,2.64-2.64A2.64,2.64,0,0,1,95.21,8.46Z"/><path class="cls-8" d="M81.44,25.76a1.74,1.74,0,0,0,.14.63.58.58,0,0,0,.5.35.61.61,0,0,0,.51-.37,1.78,1.78,0,0,0,.12-.65c.06-1,.92-5.45-.52-5.56C80.49,20,81.36,24.74,81.44,25.76Z"/><g class="cls-9"><path class="cls-6" d="M97.86,5.82a2.63,2.63,0,0,1-.92,2L94.5,14.48c3.8-2.35,8-8.92,4.57-12.48L97.82,5.41A2.71,2.71,0,0,1,97.86,5.82Z"/><path class="cls-6" d="M67.45,7.45a13.87,13.87,0,0,0,6.07,7.37l.5.23L78.11,4.27c-.86-1.06-1.72-2.8-3.17-3.69L72.06,3.22a3.13,3.13,0,0,1,.44,0,2.64,2.64,0,1,1-2.64,2.64A2.39,2.39,0,0,1,70,5.16Z"/><path class="cls-6" d="M84,5.67,78.05,16.18a53.52,53.52,0,0,0,5.67.74s.67,0,1.69-.15l2.2-11.53C86,5.49,84.53,5.63,84,5.67Z"/></g></g></g></svg>