<svg xmlns="http://www.w3.org/2000/svg" viewBox="0 0 118.18 110"><defs><style>.cls-1{fill:#f8761e;}.cls-2{fill:#924100;}</style></defs><g id="Layer_2" data-name="Layer 2"><g id="Layer_1-2" data-name="Layer 1"><path class="cls-1" d="M116.52,68.67C123.07,43.54,109.67,16,85.65,6.18,71.36.31,49.1-5.81,23.78,10.42c-34.59,22.18-29.13,72.35,1.48,90C68.72,125.44,109.2,96.75,116.52,68.67Z"/><path class="cls-2" d="M118.15,57.13c0-1.15,0-2.29,0-3.44a111.88,111.88,0,0,1-23.88,8.6c-8.42,2-20.66,2.81-32.5,1.5C60.81,49,69.7,39.41,81.15,34c10.12-4.82,22-6.45,29.52-5.73-.53-.91-1.08-1.82-1.67-2.7-7.72.09-24.13,1.41-36.12,10.41A31.47,31.47,0,0,0,60.17,63.6,67.33,67.33,0,0,1,39.67,58c.07-.42.11-.83.18-1.26C44.54,28.16,66.8,11.92,84.22,5.6c-1.3-.51-2.67-1-4.09-1.51A86.28,86.28,0,0,0,61.07,15.87a67.8,67.8,0,0,0-23,41.32c-.26-.14-.52-.27-.78-.42-3.77-2.15-7.07-4.24-10-6.27a41.61,41.61,0,0,0,6-10.13c5.71-13.88,6-27.25,5.1-37.12-.6.2-1.2.42-1.8.65.78,10.75.48,31.38-11,45.38A86.91,86.91,0,0,1,6.21,29.21C5.78,30,5.36,30.84,5,31.66A115.47,115.47,0,0,0,24.25,50.88,37.36,37.36,0,0,1,.69,63.12c.21,1.3.45,2.59.75,3.87C8,65.07,18.18,60.87,25.93,52.16a82.09,82.09,0,0,0,11.81,7.33,78.12,78.12,0,0,0,1.89,29.85c1.26,4.84,5.75,14.87,8.07,19.57,1.41.26,2.81.48,4.2.64-6.39-8-15.62-24.2-12.55-49.27A61.35,61.35,0,0,0,49.05,64a80.54,80.54,0,0,0,11.39,2.27A33.21,33.21,0,0,0,81.82,92.64a65.36,65.36,0,0,0,15.89,3.59c.65-.53,1.3-1.06,1.93-1.61-14.46-1.17-33.29-6.89-37.46-28.19C82,68.66,105.37,65.27,118.15,57.13Z"/></g></g></svg>