<svg xmlns="http://www.w3.org/2000/svg" viewBox="0 0 52.94 44.2"><defs><style>.cls-1{fill:#f438e3;}.cls-2{fill:#2e1f22;}</style></defs><g id="Layer_2" data-name="Layer 2"><g id="Layer_1-2" data-name="Layer 1"><polygon class="cls-1" points="52.94 17 39.09 22.04 38.97 41.08 30.38 33.99 25.06 44.2 0 0 52.94 17"/><path class="cls-2" d="M39.09,22.59a.54.54,0,0,1-.27-.07L.65,1.3A.55.55,0,0,1,.44.56.55.55,0,0,1,1.19.35L39.36,21.56a.55.55,0,0,1-.27,1Z"/><path class="cls-2" d="M39,41.63a.53.53,0,0,1-.49-.31L31.91,27.74a.55.55,0,0,1,1-.48l6.56,13.59a.55.55,0,0,1-.25.73A.69.69,0,0,1,39,41.63Z"/><path class="cls-2" d="M32.41,28.05a.53.53,0,0,1-.36-.13L.57,1.24A.55.55,0,0,1,.5.47.55.55,0,0,1,1.28.41L32.76,27.08a.55.55,0,0,1,.06.78A.55.55,0,0,1,32.41,28.05Z"/><path class="cls-2" d="M30.38,34.53a.44.44,0,0,1-.16,0,.55.55,0,0,1-.36-.69l2-6.48a.55.55,0,1,1,1.05.33l-2,6.48A.54.54,0,0,1,30.38,34.53Z"/></g></g></svg>