<svg width="59" height="106" viewBox="0 0 59 106" fill="none" xmlns="http://www.w3.org/2000/svg">
<path d="M17.7551 89.1092C21.0551 89.0092 23.9552 88.5092 26.6552 88.5092C34.1552 88.4092 41.6552 88.2092 49.1552 88.2092C50.5552 88.2092 52.0551 88.6092 53.4552 89.2092C57.0551 90.6092 59.3552 94.4092 58.6552 98.1092C58.0552 102.109 54.6551 105.209 50.5551 105.209C43.6551 105.309 36.5552 105.209 29.6552 105.309C23.8552 105.309 18.1552 105.709 12.5552 105.709C2.35515 105.709 -0.444849 98.8092 0.0551507 90.3092C0.655151 79.4092 6.55515 70.6092 13.4552 62.7092C18.9552 56.5092 24.8552 50.6092 30.4552 44.6092C34.4552 40.3092 37.7551 35.5092 38.6552 29.5092C39.3552 23.9092 36.9552 19.0092 32.6552 17.4092C27.4552 15.2092 20.1552 17.0092 16.9552 21.1092C16.6552 21.5092 16.3552 22.1092 15.9552 22.7092C13.7552 25.7092 10.4552 26.7092 7.35515 25.1092C4.15515 23.7092 2.45515 20.1092 3.35515 16.6092C4.35515 12.2092 6.95515 8.60922 10.6552 5.70922C21.3552 -2.19078 41.6552 -3.49078 51.5551 12.2092C56.7551 20.4092 57.3552 29.0092 54.4552 38.1092C52.0551 45.4092 47.6552 51.6092 42.4552 57.1092C37.4552 62.6092 32.0552 67.9092 27.1552 73.5092C24.4552 76.5092 22.2552 80.0092 20.0552 83.3092C19.1552 84.9092 18.5551 86.9092 17.7551 89.1092Z" fill="#F7B718"/>
</svg>
