<svg width="172" height="133" viewBox="0 0 172 133" fill="none" xmlns="http://www.w3.org/2000/svg">
<path d="M141.169 126.672C134 136.009 111.011 134.949 107.704 121.931C119.676 115.544 132.774 122.719 141.169 126.672Z" fill="#D0D728"/>
<path d="M157.513 106.665C153.28 117.663 130.933 123.206 124.077 111.663C133.769 102.11 148.363 105.247 157.513 106.665Z" fill="#D0D728"/>
<path d="M164.215 80.7866C165.042 92.5444 147.169 107.123 136.081 99.6048C140.799 86.8302 155.336 83.4361 164.215 80.7866Z" fill="#D0D728"/>
<path d="M171.466 55.1077C174.63 65.8916 160.948 83.1488 149.09 78.4227C150.871 65.5479 163.727 59.4041 171.466 55.1077Z" fill="#D0D728"/>
<path d="M168.033 30.6606C173.99 39.769 166.137 59.6326 153.809 58.6015C151.87 46.1706 162.061 36.8331 168.033 30.6606Z" fill="#D0D728"/>
<path d="M158.883 7.81836C166.565 14.578 164.413 34.5849 152.968 36.7617C148.094 25.9635 155.006 14.9074 158.883 7.81836Z" fill="#D0D728"/>
<path d="M119.634 20.8513C119.377 31.1054 135.483 43.0637 144.818 36.0892C140.214 25.1764 127.459 22.7847 119.634 20.8513Z" fill="#D0D728"/>
<path d="M122.511 36.4622C120.145 46.4441 133.429 61.4958 144.004 56.6266C141.752 44.9833 129.766 39.9852 122.511 36.4622Z" fill="#D0D728"/>
<path d="M119.93 50.238C115.94 59.6758 126.529 76.7467 137.774 73.7249C137.489 61.8669 126.486 54.9354 119.93 50.238Z" fill="#D0D728"/>
<path d="M116.652 65.1616C110.908 73.6398 118.006 92.458 129.622 91.6704C131.631 79.9842 122.182 71.0477 116.652 65.1616Z" fill="#D0D728"/>
<path d="M108.086 73.7402C100.204 81.9463 104.437 103.915 117.307 105.261C121.711 92.8448 113.032 81.2446 108.086 73.7402Z" fill="#D0D728"/>
<path d="M97.4389 82.0459C88.7449 89.3784 90.6547 111.677 103.311 114.369C108.998 102.468 101.572 90.0229 97.4389 82.0459Z" fill="#D0D728"/>
<path d="M129.108 0.343172C139.812 -0.473142 153.152 15.8675 146.368 26.0929C134.738 21.8251 131.56 8.49199 129.108 0.343172Z" fill="#D0D728"/>
<path d="M74.6215 127.573C130.377 120.498 155.134 77.262 150.074 37.1194L147.594 37.4345C152.54 76.6462 127.769 116.646 74.1084 123.491L74.6215 127.573Z" fill="#454543"/>
<path d="M31.6934 126.672C38.8624 136.009 61.8516 134.949 65.1582 121.931C53.1861 115.544 40.0738 122.719 31.6934 126.672Z" fill="#A9BC38"/>
<path d="M15.3457 106.665C19.5787 117.663 41.9266 123.206 48.782 111.663C39.0903 102.11 24.4958 105.247 15.3457 106.665Z" fill="#A9BC38"/>
<path d="M8.64978 80.7866C7.82314 92.5444 25.6815 107.123 36.7842 99.6048C32.0666 86.8302 17.5291 83.4361 8.64978 80.7866Z" fill="#A9BC38"/>
<path d="M1.3922 55.1077C-1.77186 65.8916 11.9105 83.1488 23.7686 78.4227C21.987 65.5479 9.1313 59.4041 1.3922 55.1077Z" fill="#A9BC38"/>
<path d="M4.83019 30.6606C-1.12735 39.769 6.74003 59.6326 19.0542 58.6015C20.9925 46.1706 10.802 36.8331 4.83019 30.6606Z" fill="#A9BC38"/>
<path d="M13.9797 7.81836C6.29758 14.578 8.46396 34.5849 19.8945 36.7617C24.7688 25.9635 17.8563 14.9074 13.9797 7.81836Z" fill="#A9BC38"/>
<path d="M53.2281 20.8513C53.4846 31.1054 37.3793 43.0637 28.0439 36.0892C32.6475 25.1764 45.4035 22.7847 53.2281 20.8513Z" fill="#A9BC38"/>
<path d="M50.3492 36.4622C52.7151 46.4441 39.4318 61.4958 28.8564 56.6266C31.0941 44.9833 43.0947 39.9852 50.3492 36.4622Z" fill="#A9BC38"/>
<path d="M52.9281 50.238C56.9188 59.6758 46.3292 76.7467 35.084 73.7249C35.369 61.8669 46.372 54.9354 52.9281 50.238Z" fill="#A9BC38"/>
<path d="M56.2058 65.1616C61.9496 73.6398 54.8518 92.458 43.2361 91.6704C41.2122 79.9842 50.6759 71.0477 56.2058 65.1616Z" fill="#A9BC38"/>
<path d="M64.7713 73.7402C72.6529 81.9463 68.4199 103.915 55.5499 105.261C51.1459 92.8448 59.8114 81.2446 64.7713 73.7402Z" fill="#A9BC38"/>
<path d="M75.4203 82.0459C84.1143 89.3784 82.2045 111.677 69.5483 114.369C63.8615 102.468 71.2871 90.0229 75.4203 82.0459Z" fill="#A9BC38"/>
<path d="M43.735 0.343172C33.0457 -0.473142 19.6911 15.8675 26.4753 26.0929C38.1196 21.8251 41.2979 8.49199 43.735 0.343172Z" fill="#A9BC38"/>
<path d="M98.2385 127.573C42.4827 120.498 17.7262 77.262 22.7858 37.1194L25.2657 37.4345C20.3344 76.6462 45.091 116.646 98.7516 123.491L98.2385 127.573Z" fill="#636460"/>
<path d="M35.0868 3.93848C35.0868 3.93848 23.5566 11.1994 26.8346 24.2318C26.8346 24.2318 30.2552 24.2318 29.5426 18.9329C28.83 13.634 31.5237 7.27534 35.0868 3.93848Z" fill="#768202"/>
<path d="M11.3982 14.6797C11.3982 14.6797 7.45024 27.7694 18.4389 35.4313C18.4389 35.4313 21.0186 33.1685 17.0137 29.6455C13.0087 26.1224 10.8851 19.5633 11.3982 14.6797Z" fill="#768202"/>
<path d="M4.8125 40.1995C4.8125 40.1995 5.19732 53.8763 18.0388 57.6428C18.0388 57.6428 19.7776 54.6783 14.8605 52.616C9.95765 50.5394 5.86718 44.9828 4.8125 40.1995Z" fill="#768202"/>
<path d="M5.35547 65.0903C5.35547 65.0903 9.65972 78.0654 23.0428 77.9365C23.0428 77.9365 23.8552 74.5997 18.5533 74.0411C13.2656 73.4969 7.74989 69.3724 5.35547 65.0903Z" fill="#768202"/>
<path d="M15.6465 90.6672C15.6465 90.6672 22.3452 102.583 35.4432 99.8758C35.4432 99.8758 35.6 96.4387 30.298 96.9113C24.9961 97.3839 18.8105 94.4051 15.6465 90.6672Z" fill="#768202"/>
<path d="M25.207 113.524C25.207 113.524 36.7801 120.728 46.9706 112.035C46.9706 112.035 45.4598 108.956 41.0416 111.92C36.6375 114.899 29.7678 115.271 25.207 113.524Z" fill="#768202"/>
<path d="M43.4648 130.767C43.4648 130.767 56.7054 133.918 63.6321 122.418C63.6321 122.418 61.2235 119.969 57.9739 124.208C54.7243 128.447 48.3392 130.968 43.4648 130.767Z" fill="#768202"/>
<path d="M2.03223 56.4548C2.03223 56.4548 8.88767 59.7344 14.5174 65.0476C15.7431 66.1933 14.774 68.227 13.1064 67.9978C11.4816 67.7687 9.61455 66.8664 8.1608 64.3316C4.88272 58.603 4.45515 58.0302 2.03223 56.4548Z" fill="#D1E044"/>
<path d="M4.73926 32.1372C4.73926 32.1372 10.312 37.3072 14.1174 44.0668C14.944 45.5276 13.419 47.1746 11.9083 46.4585C10.4117 45.7568 8.90098 44.3246 8.27387 41.4747C6.83437 35.0444 6.59208 34.3713 4.73926 32.1372Z" fill="#D1E044"/>
<path d="M13.2803 9.15112C13.2803 9.15112 17.6273 15.3952 19.9077 22.8136C20.4065 24.4176 18.568 25.7065 17.2282 24.6754C15.917 23.6729 14.7483 21.9544 14.734 19.0328C14.7055 12.4307 14.6058 11.729 13.2803 9.15112Z" fill="#D1E044"/>
<path d="M42.1696 1.00098C42.1696 1.00098 40.2741 8.37645 36.1408 14.9499C35.2429 16.3677 33.0766 15.7949 32.991 14.1193C32.9055 12.4723 33.4329 10.453 35.642 8.54831C40.6161 4.22327 41.1007 3.69338 42.1696 1.00098Z" fill="#D1E044"/>
<path d="M9.33105 82.1028C9.33105 82.1028 16.7281 83.7784 23.3983 87.7168C24.8378 88.5617 24.3389 90.7672 22.6714 90.9104C21.0324 91.0536 19.0085 90.581 17.0417 88.4328C12.5806 83.5636 12.039 83.1053 9.33105 82.1028Z" fill="#D1E044"/>
<path d="M16.4023 107.365C16.4023 107.365 23.7851 105.604 31.4815 106.205C33.149 106.334 33.6621 108.525 32.2226 109.385C30.8116 110.23 28.7878 110.702 26.0798 109.642C19.9655 107.251 19.2671 107.065 16.4023 107.365Z" fill="#D1E044"/>
<path d="M33.1064 127.058C33.1064 127.058 39.8051 123.478 47.4159 122.117C49.0692 121.817 50.1096 123.807 48.9409 125.01C47.7865 126.185 45.9479 127.159 43.0689 126.815C36.527 126.041 35.8144 126.042 33.1064 127.058Z" fill="#D1E044"/>
<path d="M47.3838 28.3557C47.3838 28.3557 39.5449 39.2972 30.0527 35.7169C30.0527 35.7169 30.7083 32.4086 34.6848 33.2679C38.6612 34.1272 44.1057 31.7069 47.3838 28.3557Z" fill="#768202"/>
<path d="M51.902 21.8398C51.902 21.8398 45.8162 23.1717 39.8586 26.7091C38.5759 27.4681 38.5331 29.602 39.8016 29.8025C41.0558 30.003 42.7091 29.6163 44.6617 27.6256C49.08 23.1144 49.5931 22.6848 51.902 21.8398Z" fill="#D1E044"/>
<path d="M46.2997 46.3997C46.2997 46.3997 40.2709 58.4439 30.3369 56.4103C30.3369 56.4103 30.4652 53.0447 34.5271 53.2452C38.5891 53.4457 43.606 50.2378 46.2997 46.3997Z" fill="#768202"/>
<path d="M50.3212 37.5208C50.3212 37.5208 44.5205 39.7978 39.19 44.2374C38.0356 45.197 38.3349 47.3022 39.6176 47.3022C40.8861 47.3022 42.4681 46.6577 44.0786 44.3807C47.7415 39.2393 48.1834 38.7381 50.3212 37.5208Z" fill="#D1E044"/>
<path d="M50.5475 60.9648C50.5475 60.9648 46.4142 73.7824 36.295 73.2955C36.295 73.2955 35.9102 69.9443 39.9579 69.529C44.0056 69.1137 48.4523 65.161 50.5475 60.9648Z" fill="#768202"/>
<path d="M53.186 51.5852C53.186 51.5852 47.7985 54.7216 43.195 59.9202C42.1973 61.0516 42.8102 63.0852 44.0786 62.8847C45.3328 62.6842 46.8008 61.8106 48.0551 59.3187C50.8913 53.6618 51.2476 53.1033 53.186 51.5852Z" fill="#D1E044"/>
<path d="M55.6678 75.8018C55.6678 75.8018 54.3281 89.2065 44.3228 90.8821C44.3228 90.8821 43.2396 87.6884 47.1163 86.4282C50.9787 85.1679 54.5133 80.3559 55.6678 75.8018Z" fill="#768202"/>
<path d="M56.2641 66.0779C56.2641 66.0779 51.6462 70.2883 48.2541 76.3463C47.513 77.6638 48.5392 79.5256 49.7507 79.053C50.9336 78.5947 52.1878 77.4347 52.8862 74.7279C54.454 68.5984 54.6963 67.9683 56.2641 66.0779Z" fill="#D1E044"/>
<path d="M65.373 87.0308C65.373 87.0308 66.3992 100.464 56.85 103.873C56.85 103.873 55.2252 100.922 58.8168 99.0034C62.4085 97.0843 65.0309 91.7138 65.373 87.0308Z" fill="#768202"/>
<path d="M64.2606 77.3481C64.2606 77.3481 60.4552 82.3176 58.1748 88.8768C57.676 90.2946 59.0157 91.9559 60.1131 91.2828C61.1963 90.624 62.2225 89.2635 62.4363 86.4708C62.9351 80.1551 63.0491 79.4963 64.2606 77.3481Z" fill="#D1E044"/>
<path d="M78.4853 95.9097C78.4853 95.9097 79.5115 109.343 69.9623 112.751C69.9623 112.751 68.3375 109.801 71.9291 107.882C75.5208 105.963 78.1432 100.593 78.4853 95.9097Z" fill="#768202"/>
<path d="M76.5184 84.6536C76.5184 84.6536 72.713 89.6231 70.4326 96.1822C69.9338 97.6001 71.2735 99.2613 72.3709 98.5882C73.4541 97.9294 74.4803 96.5689 74.6941 93.7762C75.1929 87.4605 75.3069 86.8018 76.5184 84.6536Z" fill="#D1E044"/>
<path d="M137.293 4.02393C137.293 4.02393 148.681 11.2848 145.445 24.3172C145.445 24.3172 142.068 24.3172 142.766 19.0183C143.464 13.7194 140.813 7.36079 137.293 4.02393Z" fill="#A9BC38"/>
<path d="M160.679 14.7793C160.679 14.7793 164.584 27.869 153.723 35.5309C153.723 35.5309 151.172 33.2681 155.134 29.7451C159.068 26.222 161.177 19.6485 160.679 14.7793Z" fill="#A9BC38"/>
<path d="M167.179 40.2849C167.179 40.2849 166.794 53.9617 154.124 57.7283C154.124 57.7283 152.414 54.7637 157.259 52.7015C162.091 50.6249 166.139 45.0682 167.179 40.2849Z" fill="#A9BC38"/>
<path d="M166.634 65.1758C166.634 65.1758 162.372 78.1509 149.174 78.022C149.174 78.022 148.376 74.6851 153.607 74.1266C158.838 73.5824 164.282 69.4579 166.634 65.1758Z" fill="#A9BC38"/>
<path d="M156.475 90.7539C156.475 90.7539 149.862 102.669 136.92 99.9625C136.92 99.9625 136.764 96.5254 141.994 96.998C147.239 97.4849 153.368 94.4918 156.475 90.7539Z" fill="#A9BC38"/>
<path d="M147.041 113.609C147.041 113.609 135.624 120.813 125.548 112.12C125.548 112.12 127.03 109.041 131.406 112.005C135.767 114.984 142.537 115.371 147.041 113.609Z" fill="#A9BC38"/>
<path d="M129.011 130.853C129.011 130.853 115.927 134.003 109.086 122.503C109.086 122.503 111.466 120.054 114.673 124.293C117.894 128.518 124.208 131.067 129.011 130.853Z" fill="#A9BC38"/>
<path d="M169.927 56.5403C169.927 56.5403 163.157 59.8199 157.599 65.1331C156.401 66.2788 157.356 68.3124 158.981 68.0833C160.592 67.8541 162.43 66.9519 163.87 64.417C167.105 58.6885 167.533 58.1156 169.927 56.5403Z" fill="#EFEDB4"/>
<path d="M167.248 32.2368C167.248 32.2368 161.747 37.4068 157.998 44.1665C157.186 45.6272 158.697 47.2742 160.179 46.5581C161.647 45.8564 163.143 44.4242 163.771 41.5743C165.182 35.1297 165.424 34.4566 167.248 32.2368Z" fill="#EFEDB4"/>
<path d="M158.823 9.23657C158.823 9.23657 154.533 15.4807 152.282 22.8991C151.797 24.5031 153.607 25.792 154.918 24.7609C156.215 23.7584 157.37 22.0398 157.384 19.1183C157.412 12.5162 157.498 11.8144 158.823 9.23657Z" fill="#EFEDB4"/>
<path d="M130.294 1.10303C130.294 1.10303 132.175 8.4785 136.252 15.052C137.135 16.4698 139.273 15.8969 139.359 14.2213C139.444 12.5744 138.917 10.5551 136.75 8.65035C131.833 4.311 131.349 3.78111 130.294 1.10303Z" fill="#EFEDB4"/>
<path d="M162.717 82.1895C162.717 82.1895 155.405 83.865 148.835 87.8034C147.41 88.6483 147.909 90.8538 149.548 90.997C151.172 91.1402 153.168 90.6676 155.106 88.5194C159.51 83.6502 160.052 83.1919 162.717 82.1895Z" fill="#EFEDB4"/>
<path d="M155.748 107.452C155.748 107.452 148.451 105.69 140.854 106.292C139.201 106.421 138.702 108.612 140.127 109.471C141.524 110.316 143.519 110.789 146.184 109.729C152.227 107.337 152.912 107.166 155.748 107.452Z" fill="#EFEDB4"/>
<path d="M139.244 127.144C139.244 127.144 132.63 123.563 125.119 122.203C123.495 121.902 122.468 123.893 123.623 125.096C124.763 126.27 126.573 127.244 129.424 126.9C135.866 126.127 136.564 126.127 139.244 127.144Z" fill="#EFEDB4"/>
<path d="M125.148 28.4412C125.148 28.4412 132.888 39.3826 142.251 35.8023C142.251 35.8023 141.61 32.4941 137.676 33.3534C133.757 34.1983 128.384 31.8067 125.148 28.4412Z" fill="#A9BC38"/>
<path d="M120.687 21.9253C120.687 21.9253 126.701 23.2572 132.573 26.7945C133.842 27.5536 133.884 29.6874 132.63 29.8879C131.39 30.0884 129.751 29.7018 127.827 27.7111C123.466 23.1999 122.953 22.7846 120.687 21.9253Z" fill="#EFEDB4"/>
<path d="M126.199 46.5005C126.199 46.5005 132.143 58.5447 141.963 56.5111C141.963 56.5111 141.834 53.1456 137.829 53.3461C133.824 53.5609 128.879 50.3243 126.199 46.5005Z" fill="#A9BC38"/>
<path d="M122.239 37.6216C122.239 37.6216 127.969 39.8987 133.228 44.3383C134.368 45.2978 134.069 47.403 132.8 47.403C131.546 47.403 129.993 46.7586 128.396 44.4815C124.79 39.3258 124.349 38.8246 122.239 37.6216Z" fill="#EFEDB4"/>
<path d="M122.012 61.0645C122.012 61.0645 126.088 73.882 136.093 73.3951C136.093 73.3951 136.478 70.0439 132.473 69.6286C128.468 69.2133 124.078 65.2606 122.012 61.0645Z" fill="#A9BC38"/>
<path d="M119.419 51.6704C119.419 51.6704 124.749 54.8068 129.282 60.0054C130.265 61.1368 129.667 63.1704 128.412 62.9699C127.172 62.7694 125.733 61.8958 124.493 59.4039C121.685 53.7613 121.329 53.1885 119.419 51.6704Z" fill="#EFEDB4"/>
<path d="M116.965 75.9028C116.965 75.9028 118.29 89.3075 128.167 90.9831C128.167 90.9831 129.236 87.7895 125.417 86.5292C121.583 85.269 118.105 80.4427 116.965 75.9028Z" fill="#A9BC38"/>
<path d="M116.38 66.1646C116.38 66.1646 120.926 70.375 124.29 76.4329C125.017 77.7505 124.005 79.6123 122.822 79.1397C121.653 78.6814 120.413 77.5214 119.729 74.8146C118.147 68.6851 117.919 68.0693 116.38 66.1646Z" fill="#EFEDB4"/>
<path d="M107.373 87.1304C107.373 87.1304 106.361 100.564 115.797 103.972C115.797 103.972 117.407 101.022 113.858 99.103C110.309 97.1839 107.715 91.7991 107.373 87.1304Z" fill="#A9BC38"/>
<path d="M108.486 77.4336C108.486 77.4336 112.235 82.4031 114.501 88.9622C114.985 90.38 113.674 92.0413 112.577 91.3682C111.508 90.7094 110.496 89.3489 110.282 86.5563C109.798 80.2406 109.684 79.5818 108.486 77.4336Z" fill="#EFEDB4"/>
<path d="M94.432 96.0093C94.432 96.0093 93.42 109.443 102.855 112.851C102.855 112.851 104.466 109.901 100.917 107.982C97.368 106.049 94.774 100.678 94.432 96.0093Z" fill="#A9BC38"/>
<path d="M96.373 84.739C96.373 84.739 100.121 89.7085 102.388 96.2676C102.872 97.6855 101.561 99.3467 100.464 98.6736C99.3946 98.0148 98.3826 96.6543 98.1689 93.8617C97.6985 87.546 97.5703 86.8872 96.373 84.739Z" fill="#EFEDB4"/>
</svg>
