<svg width="37" height="71" viewBox="0 0 37 71" fill="none" xmlns="http://www.w3.org/2000/svg">
<path d="M35.2099 51.7075C35.257 51.7075 35.257 51.7075 35.3042 51.7075C35.3513 51.7075 35.3513 51.7075 35.3513 51.7075H35.3984C35.3041 51.7075 35.257 51.6603 35.2099 51.6603C35.1627 51.6603 35.1156 51.6132 35.1156 51.6132C35.0685 51.6132 35.0213 51.5661 34.9742 51.5661C34.9271 51.5661 34.9271 51.5189 34.8799 51.5189C34.8328 51.5189 34.7857 51.4718 34.7857 51.4718C34.7857 51.4718 34.7385 51.4718 34.7385 51.4246C34.6914 51.3775 34.6443 51.3775 34.5971 51.3304C34.9271 51.3775 35.1628 51.3775 35.3513 51.3304C34.9271 51.2361 34.6914 51.0947 34.5028 50.9533C34.6914 50.9533 34.8328 50.9533 34.9271 50.9533C34.2672 50.6233 35.2099 48.8322 35.1627 48.5965C35.0685 48.0309 34.55 47.4182 34.0315 47.0882C34.0315 47.0882 34.0315 47.0882 33.9844 47.0882C33.9372 47.0882 33.9373 47.0411 33.8901 47.0411H33.843C33.7959 46.994 33.7487 46.994 33.7016 46.994C33.6544 46.994 33.6545 46.9939 33.6073 46.9468H33.5601C33.513 46.9468 33.513 46.9468 33.4659 46.9468H33.4188C33.513 45.2028 33.7016 39.6409 31.3919 39.2167C30.3078 38.981 29.318 39.9237 28.7995 40.5836L28.7524 40.5364C28.611 40.4422 28.4696 40.3008 28.3282 40.2065C28.1868 40.1122 28.0925 40.018 27.9511 39.9237C27.904 39.8766 27.9039 39.8765 27.8568 39.8294C27.7625 39.7823 27.6683 39.688 27.5269 39.6409C27.4798 39.6409 27.4797 39.5937 27.4326 39.5937C27.2912 39.4995 27.1969 39.4523 27.0555 39.3581C27.0084 39.3581 27.0084 39.3109 26.9612 39.3109C26.867 39.2638 26.7727 39.2167 26.6313 39.1224C26.5842 39.1224 26.5842 39.0753 26.5371 39.0753C26.3014 38.9339 26.0185 38.8396 25.7829 38.7453C25.7829 38.7453 25.7357 38.7453 25.7357 38.6982C25.5943 38.651 25.5001 38.6039 25.3587 38.5568C25.2173 38.5097 25.0759 38.4625 24.9816 38.4154C24.8402 38.3682 24.7459 38.3211 24.6045 38.3211C22.5777 37.8026 20.7866 38.0854 19.3254 38.4154C19.3254 38.4154 19.3254 38.4154 19.2783 38.4154C19.0897 38.4625 18.854 38.5097 18.6655 38.5568C18.5712 38.5568 18.4769 38.6039 18.3827 38.6039C17.2043 38.8867 16.2616 39.0281 15.6488 38.6039C15.4603 38.4625 15.3189 38.3211 15.2246 38.0854C14.9418 37.5198 14.8004 36.8128 14.8475 36.0115C14.8475 35.3045 14.9418 34.5503 15.0832 33.749C15.0832 33.749 15.0832 33.749 15.0832 33.7019C15.1304 33.5133 15.1303 33.3248 15.1775 33.1363C15.2717 32.5235 15.4132 31.8636 15.5074 31.2509C15.6489 30.2139 15.7903 29.1769 15.7431 28.1871C18.9954 27.0558 21.2108 24.8876 21.2108 22.3894C21.2108 22.2952 21.2108 22.2009 21.2108 22.1066C21.2108 22.0595 21.2108 22.0595 21.2108 22.0124C21.2108 21.9653 21.2108 21.871 21.1637 21.8238C21.1637 21.7767 21.1637 21.7295 21.1637 21.7295C21.1637 21.6824 21.1165 21.5882 21.1165 21.541C20.9751 20.8812 20.6452 20.2213 20.221 19.6556C20.221 19.5614 20.221 19.4671 20.221 19.3257C20.221 18.1001 20.1738 16.6861 19.9382 15.2249C19.9382 15.1778 19.9382 15.1778 19.9382 15.1306C19.9382 14.9892 19.891 14.8479 19.891 14.7065C19.891 14.6593 19.891 14.6122 19.891 14.6122C19.8438 14.4707 19.8439 14.3293 19.7967 14.1879C19.7967 14.1408 19.7967 14.0937 19.7496 14.0466C19.7025 13.9051 19.7024 13.7637 19.6553 13.5752C19.6553 13.5281 19.6553 13.528 19.6553 13.4809C19.6082 13.3395 19.5611 13.1981 19.5611 13.0567C19.5611 13.0096 19.5611 13.0096 19.5139 12.9624C19.4668 12.821 19.4196 12.6796 19.3725 12.5382C19.3725 12.4911 19.3254 12.444 19.3254 12.444C19.2782 12.3025 19.2311 12.1611 19.1839 12.0197C19.1839 11.9726 19.184 11.9726 19.1368 11.9255C19.0897 11.7841 19.0425 11.6427 18.9483 11.5013C18.9483 11.4541 18.9483 11.4541 18.9011 11.407C18.854 11.2656 18.7597 11.1242 18.7126 10.9828C18.7126 10.9356 18.6655 10.9356 18.6655 10.8885C18.5712 10.7471 18.5241 10.6057 18.4298 10.4643L18.3827 10.4171C18.2884 10.2757 18.2413 10.1815 18.147 10.0401C18.147 10.0401 18.147 9.99295 18.0999 9.99295C18.0056 9.85155 17.9113 9.71012 17.8171 9.61585C17.8171 9.56871 17.7699 9.56874 17.7699 9.5216C17.6756 9.38019 17.5814 9.2859 17.4871 9.1445L17.44 9.09737C17.3457 9.0031 17.2515 8.86166 17.1101 8.76739C17.1101 8.76739 17.11 8.72027 17.0629 8.72027C16.9686 8.626 16.8272 8.48462 16.7329 8.39035C16.6858 8.39035 16.6858 8.34322 16.6387 8.34322C16.4973 8.24895 16.403 8.15465 16.2616 8.01324C16.2145 8.01324 16.2145 7.96612 16.1674 7.96612C16.0259 7.87185 15.8845 7.77759 15.7902 7.68332C15.7902 7.68332 15.7903 7.68332 15.7431 7.68332C15.6017 7.58905 15.4603 7.49478 15.3189 7.44765L17.2043 3.53541C17.9113 3.34687 18.3827 2.68697 18.3827 1.93281C18.3827 1.03724 17.6285 0.283081 16.7329 0.283081C15.8374 0.283081 15.0832 1.03724 15.0832 1.93281C15.0832 2.26275 15.1775 2.59271 15.366 2.82839L14.0463 6.88199C13.0564 6.55204 11.9252 6.36352 10.6054 6.36352C9.1442 6.36352 7.87156 6.59921 6.83458 6.97629L5.51481 2.82839C5.70335 2.59271 5.79761 2.26275 5.79761 1.93281C5.79761 1.03724 5.04345 0.283081 4.14788 0.283081C3.25231 0.283081 2.49815 1.03724 2.49815 1.93281C2.49815 2.68697 3.01664 3.29974 3.67653 3.53541L5.60908 7.58902C3.86509 8.62599 2.73385 10.1815 2.07395 11.9726V12.0197C2.02682 12.1611 1.97966 12.3025 1.93253 12.444C1.93253 12.4911 1.93254 12.4911 1.8854 12.5382C1.83827 12.6796 1.79114 12.821 1.744 12.9624C1.744 13.0096 1.74399 13.0096 1.69685 13.0567C1.64972 13.1981 1.6026 13.3395 1.6026 13.4338C1.6026 13.4809 1.60259 13.5281 1.55545 13.5281C1.50832 13.6695 1.50831 13.8109 1.46118 13.9051C1.46118 13.9523 1.46119 13.9994 1.41405 13.9994C1.36692 14.1408 1.36691 14.2822 1.31978 14.4236C1.31978 14.4707 1.31978 14.4708 1.31978 14.5179C1.27264 14.6593 1.27264 14.8007 1.2255 14.9421C1.13123 15.602 1.03696 16.2619 0.989825 16.8747C0.94269 17.8174 0.895578 18.6658 0.895578 19.4671C0.895578 19.5614 0.895578 19.6556 0.895578 19.7499L0.848425 19.797C0.80129 19.8441 0.754149 19.8913 0.754149 19.9384C0.754149 19.9856 0.707026 19.9855 0.707026 20.0327C0.659891 20.127 0.612762 20.1741 0.565627 20.2684C0.518491 20.3155 0.518474 20.3627 0.518474 20.4098C0.518474 20.4569 0.471351 20.504 0.471351 20.5512C0.424216 20.5983 0.42421 20.6455 0.377075 20.6926C0.377075 20.7397 0.329951 20.7868 0.329951 20.7868C0.282816 20.8811 0.28281 20.9754 0.235675 21.0225C0.235675 21.0696 0.235687 21.0697 0.188552 21.1168C0.188552 21.1639 0.141399 21.2582 0.141399 21.3054C0.141399 21.3525 0.141411 21.3525 0.0942759 21.3996C0.0942759 21.4939 0.0471236 21.5881 0.0471236 21.6824V21.7295C0.0471236 21.8238 0.0471351 21.8709 0 21.9652C0 22.0123 0 22.0124 0 22.0595C0 22.1538 0 22.248 0 22.3423C0 24.9819 2.49816 27.2915 6.12756 28.3284C6.3161 29.6011 6.41036 30.7795 6.41036 31.9108C6.41036 32.6178 6.41037 33.3248 6.36323 33.9847C6.36323 34.3146 6.31611 34.6445 6.31611 34.9274V34.9745C6.26898 35.2573 6.26897 35.5872 6.22183 35.8701V35.9172C6.1747 36.2 6.12757 36.4828 6.08043 36.7656V36.8128C6.0333 37.0956 5.98614 37.3784 5.93901 37.6612V37.7083C5.89187 37.9911 5.84474 38.274 5.79761 38.5097V38.5568C5.75047 38.8396 5.70335 39.1224 5.60908 39.3581C5.42054 40.3008 5.18486 41.1492 4.94918 41.9976C4.90205 42.1862 4.85492 42.3276 4.80778 42.5161C4.80778 42.5633 4.80777 42.5633 4.76063 42.6104C4.76063 42.7047 4.71351 42.7989 4.71351 42.8932C4.71351 42.9403 4.66638 42.9875 4.66638 43.0346C4.66638 43.1289 4.61923 43.176 4.61923 43.2703C4.61923 43.3174 4.57211 43.3645 4.57211 43.4117C4.57211 43.5059 4.52495 43.5531 4.52495 43.6473C4.52495 43.6945 4.47783 43.7416 4.47783 43.8359C4.47783 43.883 4.43071 43.9773 4.43071 44.0244C4.43071 44.0716 4.38356 44.1659 4.38356 44.213C4.38356 44.2601 4.33643 44.3544 4.33643 44.4016C4.33643 44.4487 4.28928 44.5429 4.28928 44.59C4.28928 44.6372 4.24216 44.7315 4.24216 44.7786C4.24216 44.8257 4.19503 44.92 4.19503 44.9671C4.19503 45.0143 4.14788 45.1086 4.14788 45.1557C4.14788 45.2028 4.10076 45.2971 4.10076 45.3442C4.10076 45.3914 4.10074 45.4856 4.0536 45.5327C4.0536 45.5799 4.05362 45.6742 4.00648 45.7213C4.00648 45.7684 4.00649 45.8627 3.95936 45.9098C3.95936 45.957 3.95934 46.0513 3.9122 46.0984C3.9122 46.1455 3.91222 46.1927 3.86508 46.287C3.86508 46.3341 3.86506 46.4283 3.81793 46.4754C3.81793 46.5226 3.81793 46.5697 3.81793 46.664C3.81793 46.7111 3.81793 46.8054 3.81793 46.8526C3.81793 46.8997 3.81793 46.9468 3.81793 47.0411C3.81793 47.0882 3.81793 47.1825 3.81793 47.2297C3.81793 47.2768 3.81793 47.3239 3.81793 47.4181C3.81793 47.4653 3.81793 47.5596 3.81793 47.6067C3.81793 47.6538 3.81793 47.701 3.81793 47.7481C3.81793 47.7953 3.81793 47.8895 3.81793 47.9367C3.81793 47.9838 3.81793 48.0309 3.81793 48.078C3.81793 48.1252 3.81793 48.2195 3.81793 48.2666C3.81793 48.3137 3.81793 48.3609 3.81793 48.408C3.81793 48.4552 3.81793 48.5494 3.81793 48.5965C3.81793 48.6437 3.81793 48.6908 3.81793 48.738C3.81793 48.8322 3.81793 48.8794 3.81793 48.9736C3.81793 49.0208 3.81793 49.0679 3.81793 49.1151C3.81793 49.2093 3.81793 49.2565 3.81793 49.3507C3.81793 49.3979 3.81793 49.445 3.81793 49.4921C3.81793 49.5864 3.81795 49.6335 3.86508 49.7278C3.86508 49.7749 3.86508 49.8221 3.86508 49.8692C3.86508 49.9635 3.9122 50.0106 3.9122 50.1049C3.9122 50.152 3.91222 50.1991 3.95936 50.2463C3.95936 50.3405 4.00648 50.3877 4.00648 50.4819C4.00648 50.5291 4.00647 50.5762 4.0536 50.6234C4.0536 50.7176 4.10076 50.7648 4.10076 50.859C4.10076 50.9062 4.14788 50.9533 4.14788 51.0005C4.14788 51.0947 4.19503 51.1419 4.19503 51.2361C4.19503 51.2833 4.24216 51.3304 4.24216 51.3775C4.24216 51.4718 4.2893 51.5189 4.33643 51.6132C4.33643 51.6603 4.38356 51.7075 4.38356 51.7546C4.43069 51.8489 4.4307 51.896 4.47783 51.9903C4.47783 52.0374 4.52495 52.0846 4.52495 52.1788C4.52495 52.226 4.57211 52.2731 4.57211 52.3673H4.47783C4.47783 52.3673 4.47784 52.4145 4.43071 52.4616V52.5088C4.43071 52.5559 4.43071 52.5559 4.43071 52.603V52.6502C4.43071 52.6502 4.43071 52.6973 4.43071 52.7444V52.7916C4.43071 52.8387 4.43071 52.8387 4.43071 52.8859C4.43071 52.933 4.43071 52.933 4.43071 52.9801C4.43071 53.0272 4.43071 53.0272 4.43071 53.0744C4.43071 53.1215 4.43069 53.1686 4.38356 53.2158C4.38356 53.2629 4.38357 53.3101 4.33643 53.3572C4.33643 53.4043 4.33641 53.4043 4.28928 53.4515C4.24214 53.4986 4.28929 53.5457 4.24216 53.5457C4.24216 53.5928 4.24216 53.5929 4.24216 53.64C4.24216 53.6871 4.24217 53.7342 4.19503 53.7814C4.19503 53.8285 4.19501 53.8757 4.14788 53.8757C4.14788 53.9228 4.14789 53.9699 4.10076 53.9699C4.10076 54.0642 4.0536 54.1113 4.0536 54.2056C4.0536 54.2527 4.0536 54.2528 4.0536 54.2999C4.0536 54.347 4.00648 54.3941 4.00648 54.4884C4.00648 54.5355 4.00649 54.5827 3.95936 54.5827C3.95936 54.6298 3.9122 54.7241 3.9122 54.7713C3.9122 54.8184 3.9122 54.8184 3.9122 54.8655C3.9122 54.9598 3.86508 55.0069 3.86508 55.1012V55.1483C3.81795 55.2426 3.81794 55.3369 3.77081 55.4783C2.8281 59.4376 1.46119 65.9423 1.97968 66.885C2.26249 67.4506 3.48801 67.922 4.90206 68.2048V68.2519C4.90206 68.5347 4.94917 68.7704 4.99631 68.9118C4.99631 68.9589 5.04345 69.006 5.09058 69.0532L5.13773 69.1003C5.13773 69.1474 5.18486 69.1474 5.18486 69.1946L5.23198 69.2417L5.27913 69.2888C5.32627 69.2888 5.32627 69.336 5.37341 69.336L5.42053 69.3831C5.46767 69.3831 5.46767 69.4303 5.51481 69.4303C5.65621 69.5245 5.84476 69.6188 6.08043 69.7131C7.82443 70.4201 11.1239 70.75 12.8207 70.2787C12.915 70.2787 12.9621 70.2315 13.0564 70.1844C13.0564 70.1844 13.0564 70.1844 13.1036 70.1844C13.1507 70.1373 13.2449 70.1373 13.2921 70.0902H13.3392C13.3864 70.043 13.4335 70.043 13.4806 69.9959H13.5277C13.5749 69.9487 13.622 69.9016 13.6692 69.8545C13.7163 69.8074 13.7163 69.7602 13.7634 69.7131C13.8106 69.6659 13.8106 69.6188 13.8577 69.5716C13.8577 69.5716 13.8577 69.5716 13.8577 69.5245C13.9049 69.4774 13.9048 69.3831 13.952 69.336C13.952 69.336 13.952 69.336 13.952 69.2888C13.952 69.1946 13.9991 69.1474 13.9991 69.0532C13.9991 69.0532 13.9991 69.0532 13.9991 69.006C13.9991 68.9118 14.0463 68.8175 14.0463 68.7232V68.6761C14.0463 68.5818 14.0934 68.4875 14.0934 68.3461V68.299C14.1405 68.0633 14.1405 67.8277 14.1405 67.5449V67.4977C14.1405 67.3563 14.1405 67.2149 14.1405 67.0735V67.0264C14.1405 66.885 14.1405 66.7436 14.1405 66.6022C14.1405 66.2722 14.1405 65.9423 14.1405 65.6123C14.1405 65.6123 14.1405 65.6123 14.1405 65.5651C14.1405 65.3766 14.1405 65.2352 14.1405 65.0467C14.0934 63.5384 13.9991 61.8415 13.8577 60.3332C13.8577 60.2389 13.8577 60.1918 13.8577 60.0975V60.0504C13.8577 59.9561 13.8577 59.909 13.8577 59.8147V59.7676C13.8577 59.6733 13.8577 59.6262 13.8577 59.5319C13.8577 59.4376 13.8577 59.3905 13.8577 59.2962C13.952 59.2962 14.0462 59.2962 14.1876 59.3433C14.2348 59.3433 14.2348 59.3433 14.2819 59.3433C14.4234 59.3433 14.5176 59.3433 14.659 59.3905C14.7061 59.3905 14.7062 59.3905 14.7533 59.3905C14.8947 59.3905 15.0361 59.3905 15.1775 59.3905H15.2246C15.696 59.3905 16.1674 59.3905 16.6387 59.3433C16.6387 59.3433 16.6387 59.3433 16.6858 59.3433C16.8272 59.3433 16.9686 59.3434 17.1101 59.2962C17.1101 59.2962 17.11 59.2962 17.1572 59.2962C18.0999 59.202 18.9954 59.0605 19.891 58.872C19.0425 62.36 18.3355 66.0365 18.6655 66.7435C19.0897 67.6391 21.8707 68.3462 24.2274 68.4404C24.2746 68.4404 24.3217 68.4404 24.3688 68.4404C24.4159 68.4404 24.4631 68.4404 24.5102 68.4404C24.5574 68.4404 24.6045 68.4404 24.6517 68.4404C24.6988 68.4404 24.7459 68.4404 24.793 68.4404C24.8873 68.4404 24.9344 68.4404 25.0287 68.4404C25.0758 68.4404 25.123 68.4404 25.1701 68.4404C25.2173 68.4404 25.3116 68.4404 25.3587 68.4404C25.4058 68.4404 25.4529 68.4404 25.4529 68.4404C25.5001 68.4404 25.5472 68.4404 25.6415 68.4404C25.6886 68.4404 25.6886 68.4404 25.7357 68.4404C25.7829 68.4404 25.7829 68.4404 25.83 68.4404V68.4876C25.83 68.5347 25.8772 68.5818 25.8772 68.6289C25.8772 68.6761 25.9243 68.7232 25.9243 68.7232C25.9243 68.7232 25.9243 68.7232 25.9243 68.7704C25.9243 68.8175 25.9714 68.8175 25.9714 68.8646C25.9714 68.8646 25.9714 68.8646 25.9714 68.9118C25.9714 68.9589 26.0185 68.9589 26.0185 69.006C27.1969 70.043 33.5602 68.4404 34.4557 66.6964C34.4557 66.6493 34.5028 66.6022 34.5028 66.555C34.5028 66.555 34.5028 66.555 34.5028 66.5079C34.5028 66.4607 34.5029 66.4136 34.55 66.3665C34.6443 65.4238 33.7959 63.1613 32.7117 60.8045C32.5232 60.4274 32.3347 60.0504 32.1933 59.6261V59.579C32.1461 59.4376 32.099 59.3433 32.0047 59.2019C31.8633 58.9662 31.769 58.6834 31.6276 58.4478C31.6276 58.4478 31.6276 58.4006 31.5805 58.4006C31.5334 58.3064 31.4862 58.165 31.4391 58.0707C31.4391 58.0707 31.4391 58.0235 31.3919 58.0235C31.2505 57.7879 31.1563 57.5522 31.062 57.3165C31.062 57.2694 31.0149 57.2694 31.0149 57.2223C30.9678 57.128 30.9206 57.0337 30.8735 56.9395C30.8735 56.8923 30.8263 56.8923 30.8263 56.8452C30.7792 56.7509 30.732 56.6566 30.6849 56.5152C30.6378 56.421 30.5907 56.3267 30.5435 56.2324C30.5435 56.1853 30.4964 56.1381 30.4964 56.091C30.4492 56.0439 30.4493 55.9968 30.4021 55.9496C30.355 55.9025 30.355 55.8553 30.3079 55.8082C30.3079 55.7611 30.2607 55.714 30.2607 55.714C30.2136 55.6668 30.2136 55.6197 30.1664 55.5725C29.6951 54.677 29.318 53.9699 29.0823 53.4986C29.2237 53.31 29.318 53.0744 29.4594 52.8859C29.4594 52.8859 29.4594 52.8387 29.5065 52.8387C29.5537 52.7444 29.6008 52.6502 29.6951 52.5088C29.6951 52.4616 29.7422 52.4145 29.7422 52.3673C29.9308 51.9902 30.1193 51.6132 30.2607 51.2361C30.2607 51.189 30.2607 51.189 30.3079 51.1418C30.355 51.0004 30.4021 50.9062 30.4492 50.7648C30.4492 50.7176 30.4964 50.6705 30.4964 50.6705C30.5435 50.5291 30.5907 50.4348 30.6378 50.2934V50.2463C30.7792 49.822 30.8734 49.3978 30.9677 48.9736C30.9677 48.9265 30.9677 48.9265 30.9677 48.8794C31.0148 48.738 31.0149 48.5965 31.062 48.5023C31.062 48.4551 31.062 48.4552 31.062 48.408C31.1092 47.9838 31.2034 47.5596 31.2034 47.1353V47.0882C31.2034 46.9468 31.2034 46.8054 31.2034 46.664C31.2034 46.6169 31.2034 46.6169 31.2034 46.5698C31.2034 46.4283 31.2034 46.2869 31.2034 46.1455C31.1563 44.6372 30.7792 43.1289 30.025 41.8562C30.2607 41.2435 30.6378 40.4893 31.2034 40.4893C32.9474 40.5836 32.9003 45.2971 32.8531 46.5226C32.1932 46.7112 31.8633 46.994 31.8162 47.7952C31.8162 47.8895 31.8162 47.9838 31.8162 48.078C31.8162 48.1252 31.8162 48.1252 31.8162 48.1724C31.8162 48.2195 31.8162 48.3137 31.8162 48.3608C31.8162 48.408 31.8162 48.4552 31.8162 48.4552C31.8162 48.5023 31.8162 48.5494 31.8162 48.5965C31.8162 48.6437 31.8162 48.6908 31.8162 48.6908C31.8162 48.738 31.8162 48.7851 31.8162 48.8322C31.8162 48.8793 31.8162 48.8794 31.8162 48.9265C31.8162 48.9736 31.8162 49.0207 31.8633 49.0679C31.8633 49.115 31.8633 49.115 31.9104 49.1622C31.9104 49.2093 31.9105 49.2564 31.9576 49.3036C31.9576 49.3507 31.9576 49.3507 32.0047 49.3979C32.0047 49.445 32.0518 49.4921 32.0518 49.5392C32.0518 49.5864 32.0518 49.5864 32.099 49.6335C32.099 49.6807 32.1461 49.7278 32.1461 49.7749C32.1461 49.822 32.1933 49.8221 32.1933 49.8221C32.1933 49.8692 32.2404 49.9163 32.2404 49.9163L32.2875 49.9635C32.2875 50.0106 32.3346 50.0578 32.3346 50.0578L32.3818 50.1049C32.4289 50.152 32.4289 50.152 32.4761 50.1991L32.5232 50.2463C32.5703 50.2934 32.5703 50.2934 32.6174 50.3406L32.6646 50.3877C32.7118 50.4348 32.7117 50.4348 32.7589 50.4819L32.806 50.5291C32.8531 50.5762 32.8532 50.5762 32.9003 50.6234L32.9474 50.6705C32.9946 50.7176 32.9945 50.7176 33.0417 50.7648C33.0417 50.7648 33.0888 50.7648 33.0888 50.8119C33.1359 50.8119 33.136 50.859 33.1831 50.859C33.1831 50.859 33.2302 50.859 33.2302 50.9062C33.2774 50.9062 33.2773 50.9533 33.3245 50.9533C33.3245 50.9533 33.3716 50.9533 33.3716 51.0005C33.4188 51.0005 33.4659 51.0476 33.4659 51.0476H33.513C33.5602 51.0476 33.5602 51.0947 33.6073 51.0947H33.6544C33.7016 51.0947 33.7016 51.1418 33.7487 51.1418H33.7958C33.843 51.1418 33.843 51.1418 33.8901 51.189H33.9372C33.9844 51.189 33.9844 51.189 34.0315 51.2361H34.0787C34.1258 51.2361 34.1258 51.2361 34.1729 51.2361H34.22C34.2672 51.2361 34.2672 51.2361 34.3144 51.2361H34.3615C34.4086 51.2361 34.4086 51.2361 34.4557 51.2361H34.5028H34.55H34.5971H34.6443C34.6914 51.2361 34.6914 51.2361 34.6914 51.2361H34.7385C34.7857 51.2361 34.7857 51.2361 34.8328 51.2361H34.8799C35.1156 51.7075 35.1627 51.7075 35.2099 51.7075C35.1627 51.7075 35.2099 51.7075 35.2099 51.7075Z" fill="#B3C5C3"/>
<path d="M28.4693 68.1103C26.961 69.3829 20.5035 68.3931 19.7964 66.979C19.0894 65.565 22.7188 52.5086 22.7188 52.5086L28.5164 53.2628C28.5164 53.2628 29.9776 66.8377 28.4693 68.1103Z" fill="#FFB43B"/>
<path d="M28.5167 53.2628L22.7191 52.5086C22.7191 52.5086 21.8706 55.6195 21.0693 58.9661C23.756 60.9929 25.6886 65.1408 25.2644 68.676C26.6784 68.7231 27.9511 68.5817 28.5167 68.1103C29.9779 66.8377 28.5167 53.2628 28.5167 53.2628Z" fill="#EDD9D1"/>
<path d="M35.7756 66.8371C34.88 68.5811 28.5167 70.1837 27.3384 69.1467C26.16 68.1097 24.416 54.6762 24.416 54.6762L30.0722 53.1208C30.0722 53.1679 36.6711 65.0931 35.7756 66.8371Z" fill="#FBB75E"/>
<path d="M35.7756 66.8371C34.88 68.5811 28.5167 70.1837 27.3384 69.1467C26.16 68.1097 24.416 54.6762 24.416 54.6762L30.0722 53.1208C30.0722 53.1679 36.6711 65.0931 35.7756 66.8371Z" fill="#FFB43B"/>
<path d="M32.1461 60.6626C32.7589 61.2282 33.5602 61.6524 34.3615 61.7938C33.4659 59.7199 32.3346 57.4574 31.4391 55.7606C30.7792 57.4574 30.5907 59.2957 32.1461 60.6626Z" fill="#7F48C3"/>
<path d="M27.5275 62.2658C27.3861 61.1817 26.2077 59.4377 25.0293 58.9193C25.3592 60.9932 25.7363 63.4914 26.1605 65.471C27.0561 64.6226 27.6689 63.4913 27.5275 62.2658Z" fill="#7F48C3"/>
<path d="M30.1673 66.696C28.659 65.7061 27.9991 64.245 27.4806 62.5481C27.0093 61.0398 26.585 59.0601 24.9824 58.3531C25.5952 62.4067 26.585 68.5343 27.3863 69.1942C28.5647 70.2311 34.9279 68.6285 35.8235 66.8845C35.8706 66.7903 35.8706 66.696 35.9177 66.6017C34.0795 67.5916 31.9584 67.8743 30.1673 66.696Z" fill="#EDD9D1"/>
<path d="M11.9248 68.0161C10.4637 69.3358 3.95899 68.4874 3.20483 67.0734C2.45067 65.6593 5.75014 52.5086 5.75014 52.5086L11.5949 53.1214C11.5949 53.1685 13.3389 66.6963 11.9248 68.0161Z" fill="#FFB43B"/>
<path d="M11.595 53.1686L5.75027 52.5558C5.75027 52.5558 5.42031 53.8756 4.99609 55.6667C5.89166 56.7508 6.55156 58.0706 7.07005 59.3432C7.72994 60.8987 8.29555 62.5013 8.53122 64.151C8.7669 65.6593 8.76693 67.1677 8.62553 68.676C10.0396 68.7231 11.3122 68.5346 11.8307 68.0161C13.339 66.6963 11.595 53.1686 11.595 53.1686Z" fill="#EDD9D1"/>
<path d="M27.9984 56.2793C24.6046 58.7304 12.0667 63.1139 6.83471 54.3939C1.60272 45.6268 10.1813 40.112 6.83471 25.5001C4.94931 17.2986 14.5649 21.5408 16.3089 25.5001C18.0528 29.4595 14.8477 35.1157 16.3089 37.8967C17.77 40.6776 22.9078 35.0215 29.4595 39.9235C34.6444 43.8828 32.5705 52.9328 27.9984 56.2793Z" fill="#FFB43B"/>
<path d="M14.4227 33.7493C14.2342 35.1634 14.8941 35.7761 15.9311 35.8233C15.9782 34.4092 16.3553 32.7595 16.5909 31.0626C15.3654 31.2512 14.5641 32.4767 14.4227 33.7493Z" fill="#7F48C3"/>
<path d="M16.027 38.6982C14.8486 38.604 14.5658 40.4422 14.8958 41.2907C15.32 42.5162 16.9226 43.129 18.1481 43.0347C19.3265 42.9404 21.2119 42.1862 21.2119 40.7251C21.2119 39.8295 20.9291 38.9811 20.7876 38.1326C18.9965 38.5097 17.5825 38.981 16.7812 38.4154C16.5926 38.604 16.357 38.7454 16.027 38.6982Z" fill="#7F48C3"/>
<path d="M16.1683 50.3868C17.4881 51.141 19.7034 51.3766 21.0703 50.5753C22.8143 49.5855 24.087 46.9459 21.6359 45.7675C20.7404 45.3433 19.7034 45.579 18.7607 45.6733C18.1951 45.7204 17.6766 45.7204 17.111 45.6733C15.7441 46.5689 14.2829 49.3027 16.1683 50.3868Z" fill="#7F48C3"/>
<path d="M26.1124 41.3839C27.1022 41.6667 28.092 41.6196 29.129 41.7139C29.8832 41.761 30.5902 41.9024 31.2972 42.091C30.8259 41.2897 30.166 40.5826 29.3647 39.9699C27.0551 38.2259 24.934 37.8488 23.0957 37.8959C23.3785 39.5457 24.4626 40.9126 26.1124 41.3839Z" fill="#7F48C3"/>
<path d="M32.4771 45.9567C31.6758 45.5325 30.8744 45.2968 30.026 45.0612C29.4604 45.0612 28.9419 45.2497 28.7063 45.7211C28.0935 46.8523 28.4234 48.3606 28.3292 49.6333C28.2349 50.9059 27.9521 52.5085 29.5075 52.9327C29.9318 53.0742 30.356 53.1213 30.7802 53.0741C32.0057 50.953 32.6656 48.3606 32.4771 45.9567Z" fill="#7F48C3"/>
<path d="M19.2308 57.1748C17.7225 58.1647 16.2613 59.1545 14.5645 59.4373C18.2881 60.0029 22.2474 59.0131 25.0755 57.8347C23.5201 56.7035 20.9277 56.0907 19.2308 57.1748Z" fill="#7F48C3"/>
<path d="M9.66277 50.8582C9.09715 49.9155 8.29586 48.9257 8.72007 47.7473C9.00288 46.946 10.2284 46.0975 10.6526 45.2491C10.5583 44.7777 10.5112 44.2593 10.464 43.7879C10.4169 43.7408 10.3698 43.6936 10.3227 43.6465C9.28571 42.5624 7.58884 42.091 6.08052 41.9968C4.99641 46.3803 4.10083 49.9626 6.74039 54.3933C6.78753 54.4876 6.88178 54.5818 6.92892 54.6761C7.68308 54.2519 8.39015 53.7334 8.8615 53.2621C9.47426 52.6493 10.1341 51.7066 9.66277 50.8582Z" fill="#7F48C3"/>
<path d="M9.33367 38.6037C10.2764 37.8967 11.1248 36.9069 11.1248 35.6342C11.1719 33.2775 9.52217 31.9106 7.58964 31.7692C7.63677 34.6444 7.2597 37.1426 6.74121 39.3579C7.54251 39.735 8.67378 39.0751 9.33367 38.6037Z" fill="#7F48C3"/>
<path d="M15.6021 55.7137C12.2555 52.4143 10.9357 48.0778 10.8886 43.4114C10.8414 38.5565 12.1612 34.2202 14.9422 30.2608C15.5078 29.4124 16.1677 28.611 16.7804 27.8569C16.7333 27.0556 16.5919 26.2543 16.262 25.5473C14.518 21.588 4.90244 17.3458 6.78784 25.5473C10.1344 40.1592 1.55585 45.6739 6.78784 54.4411C9.94589 59.7202 15.7906 60.1916 20.6456 59.2489C18.7602 58.3062 17.0161 57.1278 15.6021 55.7137Z" fill="#EDD9D1"/>
<path d="M14.9424 70.0424C13.4812 71.3622 6.97657 70.5138 6.22241 69.0997C5.46825 67.6857 8.76769 54.535 8.76769 54.535L14.6124 55.1478C14.6124 55.1949 16.4036 68.7226 14.9424 70.0424Z" fill="#FFB43B"/>
<path d="M8.34292 66.9793C9.61557 65.6123 9.94556 63.7741 9.80415 61.9829C9.70988 60.239 9.09711 58.8721 8.013 57.6465C7.2117 61.0874 6.03334 66.4608 6.08047 68.4405C6.97604 68.1577 7.73017 67.6863 8.34292 66.9793Z" fill="#7F48C3"/>
<path d="M14.424 64.0568C13.6227 64.5282 12.5386 65.2352 12.35 66.225C12.0672 67.5919 12.5386 69.2888 13.7641 70.0901C13.9055 70.1844 14.0469 70.3258 14.0941 70.42C14.424 70.3258 14.7068 70.1843 14.9425 69.9958C15.5552 69.4302 15.6024 66.6021 15.4138 63.5854C15.0839 63.7269 14.7068 63.8683 14.424 64.0568Z" fill="#7F48C3"/>
<path d="M15.178 60.5683C14.9424 57.646 14.6124 55.1949 14.6124 55.1949L8.76769 54.5822C8.76769 54.5822 5.46825 67.7329 6.22241 69.147C6.36382 69.4298 6.78801 69.7126 7.35363 69.9482C7.68358 65.329 10.8416 61.3225 15.178 60.5683Z" fill="#EDD9D1"/>
<path d="M29.9316 42.3281C29.9316 42.3281 31.2986 40.0657 32.9483 40.3956C35.6821 40.9612 34.9751 48.6442 34.9751 48.6442L34.598 48.5028C34.598 48.5028 35.0222 42.2338 32.9954 42.1396C32.0999 42.0924 31.6285 44.1664 31.6285 44.1664L29.9316 42.3281Z" fill="#FFB43B"/>
<path d="M36.716 49.9162C36.7632 50.1518 35.8205 51.943 36.4804 52.2729C36.3861 52.2729 36.2447 52.3201 36.0561 52.2729C36.2447 52.4143 36.4804 52.5558 36.9046 52.65C36.7632 52.6972 36.4803 52.6972 36.1504 52.65C36.3389 52.7914 36.5746 52.9328 36.9988 53.0271C36.2447 53.1685 33.228 52.7914 33.5108 49.4448C33.6051 48.5964 33.9822 48.3135 34.7363 48.125C35.4905 48.0307 36.5275 49.0677 36.716 49.9162Z" fill="#3B2314"/>
<path d="M35.6796 48.4547C35.491 48.4547 35.3025 48.549 35.1611 48.5961C34.3127 49.0203 34.1713 50.0102 34.5012 50.8115C34.8312 51.6599 35.4911 52.2255 36.2452 52.6969C36.1981 52.6969 36.1981 52.6969 36.1509 52.6969C36.2923 52.8383 36.528 52.9325 36.858 53.0268C36.9051 53.0268 36.9051 53.0739 36.9523 53.0739C36.151 53.2153 33.2286 52.7912 33.5114 49.4446C33.6057 48.5961 33.9827 48.3133 34.7369 48.1248C35.0668 48.1248 35.3968 48.2191 35.6796 48.4547Z" fill="#E5D8D3"/>
<path d="M35.4905 49.1154C35.3491 49.1626 35.7733 49.4925 35.8676 50.0109C35.9618 50.5294 35.7261 51.0008 35.8676 50.9536C36.009 50.9065 36.4332 50.3881 36.3389 49.9167C36.1975 49.3982 35.6319 49.0683 35.4905 49.1154Z" fill="#FFB43B"/>
<path d="M18.477 2.7814L16.7802 1.65015L14.8477 7.68346H16.1203L18.477 2.7814Z" fill="#FBB75E"/>
<path d="M19.4664 1.64973C19.4664 2.54529 18.7123 3.29945 17.8167 3.29945C16.9212 3.29945 16.167 2.54529 16.167 1.64973C16.167 0.754161 16.9212 0 17.8167 0C18.7594 0 19.4664 0.707026 19.4664 1.64973Z" fill="#754C28"/>
<path d="M18.8065 2.49798C17.4396 2.49798 16.5912 1.79092 16.3084 0.989624C16.2141 1.17816 16.167 1.41385 16.167 1.64953C16.167 2.54509 16.9212 3.29925 17.8167 3.29925C18.4295 3.29925 18.948 2.96933 19.2308 2.49798C19.0894 2.49798 18.9479 2.49798 18.8065 2.49798Z" fill="#BBA5A3"/>
<path d="M18.8056 0.660128C18.8056 0.895803 18.5699 1.08436 18.2871 1.08436C18.0043 1.08436 17.7686 0.895803 17.7686 0.660128C17.7686 0.424453 18.0043 0.235901 18.2871 0.235901C18.5699 0.235901 18.8056 0.424453 18.8056 0.660128Z" fill="white"/>
<path d="M4.61914 2.7814L6.31602 1.65015L8.24855 7.68346H6.97592L4.61914 2.7814Z" fill="#FBB75E"/>
<path d="M3.58203 1.64973C3.58203 2.54529 4.33619 3.29945 5.23176 3.29945C6.12732 3.29945 6.88149 2.54529 6.88149 1.64973C6.88149 0.754161 6.12732 0 5.23176 0C4.33619 0 3.58203 0.707026 3.58203 1.64973Z" fill="#754C28"/>
<path d="M4.28943 2.49798C5.65635 2.49798 6.5048 1.79092 6.78761 0.989624C6.88188 1.17816 6.92898 1.41385 6.92898 1.64953C6.92898 2.54509 6.17485 3.29925 5.27929 3.29925C4.66653 3.29925 4.14804 2.96933 3.86523 2.49798C3.9595 2.49798 4.10089 2.49798 4.28943 2.49798Z" fill="#BBA5A3"/>
<path d="M4.28906 0.660128C4.28906 0.895803 4.52476 1.08436 4.80757 1.08436C5.09038 1.08436 5.32604 0.895803 5.32604 0.660128C5.32604 0.424453 5.09038 0.235901 4.80757 0.235901C4.52476 0.235901 4.28906 0.424453 4.28906 0.660128Z" fill="white"/>
<path d="M21.2579 19.0425C21.2579 23.9917 16.6387 23.8975 11.7367 23.8975C6.83461 23.8975 2.12109 24.086 2.12109 19.1368C2.12109 14.1876 2.82813 6.03326 11.7367 6.03326C20.221 6.0804 21.2579 14.1405 21.2579 19.0425Z" fill="#FFB43B"/>
<path d="M15.2718 8.20197C15.7903 8.72045 16.3559 9.14467 16.8272 9.61602C17.44 10.2759 17.7228 11.0772 17.7228 11.9728C17.7228 12.8212 17.7228 13.6697 18.4298 14.2353C19.0426 14.7066 19.9382 14.9423 20.928 14.9423C20.4095 11.5014 18.9012 7.91915 15.1304 6.59937C14.7533 7.16499 14.7062 7.63635 15.2718 8.20197Z" fill="#7F48C3"/>
<path d="M5.7971 14.4698C7.11688 12.443 6.64553 10.369 4.713 9.00208C3.01613 11.076 2.40338 13.9513 2.21484 16.5437C3.6289 16.4023 4.94867 15.6953 5.7971 14.4698Z" fill="#7F48C3"/>
<path d="M12.3487 6.08044C12.1601 6.08044 11.9245 6.08044 11.6888 6.08044C2.78028 6.08044 2.07324 14.282 2.07324 19.184C2.07324 23.5676 5.74979 23.8975 10.0391 23.9446C2.26179 20.5509 3.11018 9.99265 12.3487 6.08044Z" fill="#EDD9D1"/>
<path d="M11.7367 28.7993C17.5419 28.7993 22.2478 25.8449 22.2478 22.2004C22.2478 18.5559 17.5419 15.6015 11.7367 15.6015C5.9316 15.6015 1.22559 18.5559 1.22559 22.2004C1.22559 25.8449 5.9316 28.7993 11.7367 28.7993Z" fill="#754C28"/>
<path d="M15.9789 25.2648C13.1979 25.9247 9.99273 25.7833 7.49457 24.3221C5.23209 23.0023 3.86516 20.9755 2.82819 18.6659C1.83835 19.7029 1.22559 20.8813 1.22559 22.1539C1.22559 25.7833 5.93912 28.7528 11.7367 28.7528C17.5343 28.7528 22.2478 25.7833 22.2478 22.1539C22.2478 21.824 22.2007 21.4469 22.1064 21.117C20.6453 23.238 18.4299 24.6992 15.9789 25.2648Z" fill="#E5D3CB"/>
<path d="M19.7032 16.9687C19.7032 18.2413 18.6663 19.2783 17.3936 19.2783C16.121 19.2783 15.084 18.2413 15.084 16.9687C15.084 15.696 16.121 14.6591 17.3936 14.6591C18.6663 14.6591 19.7032 15.696 19.7032 16.9687Z" fill="#754C28"/>
<path d="M9.89853 16.9687C9.89853 18.2413 8.86154 19.2783 7.5889 19.2783C6.31625 19.2783 5.2793 18.2413 5.2793 16.9687C5.2793 15.696 6.31625 14.6591 7.5889 14.6591C8.86154 14.6591 9.89853 15.696 9.89853 16.9687Z" fill="#754C28"/>
<path d="M16.2141 12.869C16.2141 13.4818 15.7427 13.9531 15.13 13.9531C14.5172 13.9531 14.0459 13.4818 14.0459 12.869C14.0459 12.2563 14.5172 11.7849 15.13 11.7849C15.7427 11.7849 16.2141 12.2563 16.2141 12.869Z" fill="#283942"/>
<path d="M15.7431 13.4353C14.8475 13.4353 14.2819 12.9639 14.0933 12.4454C14.0462 12.5868 13.999 12.7283 13.999 12.8697C13.999 13.4824 14.4704 13.9537 15.0832 13.9537C15.4602 13.9537 15.8373 13.7181 16.0259 13.4353C15.9787 13.4353 15.8845 13.4353 15.7431 13.4353Z" fill="#16252E"/>
<path d="M15.7429 12.2564C15.7429 12.3978 15.6015 12.5392 15.4129 12.5392C15.2244 12.5392 15.083 12.3978 15.083 12.2564C15.083 12.115 15.2244 11.9736 15.4129 11.9736C15.6015 11.9736 15.7429 12.0679 15.7429 12.2564Z" fill="white"/>
<path d="M10.4172 12.869C10.4172 13.4818 9.94591 13.9531 9.33315 13.9531C8.7204 13.9531 8.24902 13.4818 8.24902 12.869C8.24902 12.2563 8.7204 11.7849 9.33315 11.7849C9.94591 11.7849 10.4172 12.2563 10.4172 12.869Z" fill="#283942"/>
<path d="M9.993 13.4353C9.09743 13.4353 8.53181 12.9639 8.34327 12.4454C8.29614 12.5868 8.24902 12.7283 8.24902 12.8697C8.24902 13.4824 8.7204 13.9537 9.33315 13.9537C9.71023 13.9537 10.0873 13.7181 10.2759 13.4353C10.1816 13.4353 10.0873 13.4353 9.993 13.4353Z" fill="#16252E"/>
<path d="M9.99285 12.2564C9.99285 12.3978 9.85147 12.5392 9.66293 12.5392C9.47439 12.5392 9.33301 12.3978 9.33301 12.2564C9.33301 12.115 9.47439 11.9736 9.66293 11.9736C9.80434 11.9736 9.99285 12.0679 9.99285 12.2564Z" fill="white"/>
<path d="M8.76789 16.9686C8.76789 17.6285 8.2494 18.147 7.58951 18.147C6.92962 18.147 6.41113 17.6285 6.41113 16.9686C6.41113 16.3087 6.92962 15.7902 7.58951 15.7902C8.2494 15.7902 8.76789 16.3087 8.76789 16.9686Z" fill="#BBA5A3"/>
<path d="M18.5716 16.9686C18.5716 17.6285 18.0531 18.147 17.3932 18.147C16.7333 18.147 16.2148 17.6285 16.2148 16.9686C16.2148 16.3087 16.7333 15.7902 17.3932 15.7902C18.0531 15.7902 18.5716 16.3087 18.5716 16.9686Z" fill="#BBA5A3"/>
</svg>
