<svg xmlns="http://www.w3.org/2000/svg" viewBox="0 0 164.92 39.56"><defs><style>.cls-1{fill:#ce3e17;}.cls-2{fill:#fff;}</style></defs><g id="Layer_2" data-name="Layer 2"><g id="Layer_1-2" data-name="Layer 1"><path class="cls-1" d="M14.4,38.88A7.49,7.49,0,0,1,5.27,35c-.17-.35-.34-.76-.5-1.17-.08-.2-.16-.39-.23-.59-.66-1.8-1.33-3.59-2-5.39s-1.34-3.62-2-5.42a10.37,10.37,0,0,1-.46-1.8l0-.16c0-.05,0-.11,0-.16-.4-3.45,2.37-7.25,6.29-8.49l1.81-.59,1.1-.32a13,13,0,0,1,6.42-.3,10.27,10.27,0,0,1,7.54,5.84,10.43,10.43,0,0,1-3.83,13c.08.27.14.55.2.83a7.47,7.47,0,0,1-5,8.47Z"/><path class="cls-1" d="M22.68,36.52a7.81,7.81,0,0,1-2.85.25,7.12,7.12,0,0,1-6.6-6.47,11.8,11.8,0,0,1,.06-2.23c.22-2.61.48-5.29.78-8,.19-1.74.4-3.49.62-5.23.07-.38.13-.73.19-1.06A8.11,8.11,0,0,1,21,7.68a8.62,8.62,0,0,1,7.5,1.52,9.56,9.56,0,0,1,2,2.3c1.71,2.51,3.39,5.07,5,7.63l.48.77c.6,1,1.18,2,1.75,3a1.09,1.09,0,0,1,.08.15l.08.16a8.24,8.24,0,0,1,.85,3.42,7.32,7.32,0,0,1-5.2,7c-.23.08-.47.14-.7.2A7.69,7.69,0,0,1,27.25,33,7.6,7.6,0,0,1,22.68,36.52Z"/><path class="cls-1" d="M42.52,31.83a7.6,7.6,0,0,1-3,0A8,8,0,0,1,36.81,33l-.16,0A7.52,7.52,0,0,1,28,27.57l-.36-1.45-2.28-9c-.24-1-.4-1.87-.55-2.73-.75-4,1.56-7.5,6.06-8.83.91-.28,2-.57,3.08-.8a19.87,19.87,0,0,1,2.19-.31,11.38,11.38,0,0,1,9.07,3.37A9.09,9.09,0,0,1,47.69,16a10.38,10.38,0,0,1-1,3l.37.63c.32.55.68,1.16,1,1.86a7.2,7.2,0,0,1-2.64,9.22A7.39,7.39,0,0,1,42.52,31.83Z"/><path class="cls-1" d="M49.68,31.05l-2,.28a7.94,7.94,0,0,1-8.84-6.13c-.84-4.07-1.67-8.23-2.5-12.36a8.5,8.5,0,0,1-.16-1.93v-.13c.11-3.45,2.81-6.35,6.7-7.07l.15,0c1.64-.28,3.28-.54,4.92-.77.7-.1,1.4-.19,2.11-.27h0a13.55,13.55,0,0,1,3-.07A7.15,7.15,0,0,1,60,8.46a6.93,6.93,0,0,1-2.38,6.08,6.69,6.69,0,0,1,.24,1.29,7,7,0,0,1,0,1.29,6.77,6.77,0,0,1,3.3,5,7.14,7.14,0,0,1-1.52,5.33,7.78,7.78,0,0,1-5,2.83Z"/><path class="cls-1" d="M65.66,28.8a7.34,7.34,0,0,1-3.51-.58A7.52,7.52,0,0,1,59,29.39l-.17,0a7.54,7.54,0,0,1-8.19-5.92l0-.15q-1-6.83-2-13.65a8.54,8.54,0,0,1-.05-2,6.49,6.49,0,0,1,1-2.84A8.61,8.61,0,0,1,56,1.06a9.45,9.45,0,0,1,4.47.57A8.52,8.52,0,0,1,63.38.78l.22,0c4.37-.34,8,2.53,8.31,6.36l.33,4.11c.12,1.74.22,3.47.32,5.18l.09,1.53c.07,1,.13,2,.17,2.94A7.35,7.35,0,0,1,68,28.24,7.61,7.61,0,0,1,65.66,28.8Z"/><path class="cls-1" d="M73.73,28.47a8.35,8.35,0,0,1-1.79-.13l-.19,0a7.36,7.36,0,0,1-5.82-5.89,1.55,1.55,0,0,1,0-.21c-.16-1.14-.3-2.28-.41-3.44-.13-1.56-.25-3.12-.38-4.68a7.54,7.54,0,0,1-3.58-2.91,6.35,6.35,0,0,1-.8-5.35,7.09,7.09,0,0,1,3.69-4.25,9.48,9.48,0,0,1,3.8-1c1.93-.13,3.94-.24,5.94-.3.84,0,1.68,0,2.53-.06a8.31,8.31,0,0,1,6.89,3.25,6.44,6.44,0,0,1,.56,6.6,7.57,7.57,0,0,1-3.33,3.45c0,2.41.1,4.81.13,7.23a7.83,7.83,0,0,1-1.36,4.55A7.38,7.38,0,0,1,73.73,28.47Z"/><path class="cls-1" d="M78.68,28.34a7.42,7.42,0,0,1-2.79-.48,7.14,7.14,0,0,1-4.7-7.94,13.39,13.39,0,0,1,.61-2.14c.86-2.47,1.79-5,2.74-7.5.63-1.63,1.26-3.27,1.91-4.9.15-.34.3-.68.45-1A8,8,0,0,1,84.27,0,8.56,8.56,0,0,1,91.1,3.37,9.72,9.72,0,0,1,92.47,6.1c1,2.87,2,5.77,2.9,8.65.08.29.17.58.26.87.32,1.1.64,2.19.94,3.3,0,0,0,.11.05.17l0,.16a8.25,8.25,0,0,1-.05,3.53,7.29,7.29,0,0,1-6.77,5.49,5.79,5.79,0,0,1-.72,0A7.54,7.54,0,0,1,84,26.06,7.51,7.51,0,0,1,78.68,28.34Z"/><path class="cls-1" d="M95.1,28.57l-1.63-.1A7.66,7.66,0,0,1,86,20.72c0-4.27.06-8.62.1-12.94a7.63,7.63,0,0,1,.64-3A7.85,7.85,0,0,1,94.16.32h.27C98.11.5,101.24,3,101.83,6a2,2,0,0,1,0,.24A16.8,16.8,0,0,1,102,9.65c-.11,1.65-.22,3.27-.34,4.88a7.72,7.72,0,0,1,4.6,2.81,6.74,6.74,0,0,1,.65,7.34,7.46,7.46,0,0,1-6.74,4.05c-1,0-2.12,0-3.4-.07Z"/><path class="cls-1" d="M113.83,30.37a11,11,0,0,1-1.32-.26,11.35,11.35,0,0,1-7.75-5.79,10.39,10.39,0,0,1-1.15-5.78c.21-2.29.46-4.38.78-6.38a12.27,12.27,0,0,1,2.76-6,11.14,11.14,0,0,1,10.31-3.82A12.52,12.52,0,0,1,124.65,6l.13.13.13.15a10.84,10.84,0,0,1,1.69,2.51,6.47,6.47,0,0,1,0,5.71s.11.3.11.3,0,.13.05.19a8.13,8.13,0,0,1,.16,3.58c-.07.35-.13.62-.18.89a19.37,19.37,0,0,1-1.49,5A10.84,10.84,0,0,1,113.83,30.37Z"/><path class="cls-1" d="M120.59,31.61a7.61,7.61,0,0,1-2.66-1,7.14,7.14,0,0,1-3.13-8.68,13.38,13.38,0,0,1,1-2c1.32-2.26,2.7-4.56,4.11-6.85.93-1.48,1.86-3,2.81-4.45.21-.31.42-.61.62-.88a8.07,8.07,0,0,1,8.11-2.92,8.66,8.66,0,0,1,6.1,4.6,9.6,9.6,0,0,1,.83,3c.47,3,.88,6,1.24,9.05l.09.9c.12,1.14.23,2.28.31,3.42,0,.06,0,.11,0,.17v.17a8.34,8.34,0,0,1-.71,3.46,7.34,7.34,0,0,1-7.74,4.1,5.55,5.55,0,0,1-.71-.13,7.6,7.6,0,0,1-4.67-3.16A7.52,7.52,0,0,1,120.59,31.61Z"/><path class="cls-1" d="M136.27,34.92a7.42,7.42,0,0,1-1.68-.63l-.18-.09a7.37,7.37,0,0,1-4-7.29l0-.22c.16-1.13.35-2.26.57-3.41.31-1.53.63-3.07.94-4.6a7.6,7.6,0,0,1-2.63-3.8,6.3,6.3,0,0,1,.73-5.36,7.14,7.14,0,0,1,4.76-3,9.39,9.39,0,0,1,3.95.06c1.91.43,3.87.89,5.83,1.39l2.46.66a8.42,8.42,0,0,1,5.76,5.08,6.37,6.37,0,0,1-1.31,6.49,7.6,7.6,0,0,1-4.2,2.36q-.93,3.48-1.9,7a7.82,7.82,0,0,1-2.59,4A7.47,7.47,0,0,1,136.27,34.92Z"/><path class="cls-1" d="M145.6,37.8l-1.89-.57a8,8,0,0,1-5.45-9.32c1-4,2-8.14,3-12.24a8.52,8.52,0,0,1,.67-1.82l.06-.12c1.56-3.08,5.25-4.56,9.1-3.56l.15,0c1.61.45,3.22.91,4.82,1.4l2,.65h0a14.5,14.5,0,0,1,2.82,1.25c3.17,1.81,4.69,5.22,3.74,8.25a6.91,6.91,0,0,1-4.78,4.47,6.22,6.22,0,0,1-.32,1.27,7,7,0,0,1-.55,1.17,6.76,6.76,0,0,1,.89,5.95,7.08,7.08,0,0,1-3.65,4.16,7.89,7.89,0,0,1-5.78.43Z"/><path class="cls-2" d="M12.15,26.77l1.3,4.12c.08.26.16.52.22.8a1.45,1.45,0,0,1-1,1.74,1.47,1.47,0,0,1-1.86-.83c-.2-.44-.35-.9-.53-1.35C9.08,27.61,7.82,24,6.59,20.34a6.3,6.3,0,0,1-.2-.94,2.5,2.5,0,0,1,1.68-2.12c.87-.28,1.76-.58,2.67-.83a6,6,0,0,1,3-.2,4.87,4.87,0,0,1,3.64,2.65c1.23,2.69.45,5.09-2.38,6.61C14.07,26,13.12,26.34,12.15,26.77ZM11.1,23.93a7.14,7.14,0,0,0,2.64-1.18,2.05,2.05,0,0,0,.76-.91,2.11,2.11,0,0,0-1.79-2.66,5.91,5.91,0,0,0-2.93.59Z"/><path class="cls-2" d="M22.84,24.8c-.16,1.43-.35,2.91-.51,4.39a2.83,2.83,0,0,1-.14.78,1.53,1.53,0,0,1-1.64,1.11,1.37,1.37,0,0,1-1.28-1.32,7.53,7.53,0,0,1,.07-1.34c.46-4.33,1-8.68,1.66-13,.06-.3.11-.6.17-.88a1.75,1.75,0,0,1,2.9-.95A4.45,4.45,0,0,1,25,14.65c1.78,2.49,3.53,5,5.2,7.55.76,1.18,1.5,2.33,2.22,3.52a2.88,2.88,0,0,1,.33,1.16,1.38,1.38,0,0,1-1,1.32A1.5,1.5,0,0,1,30,27.7c-.5-.65-.94-1.3-1.4-2s-.78-1.12-1.15-1.7a.5.5,0,0,0-.68-.26c-.64.2-1.29.34-1.94.51Zm.81-6.39c-.17,1.19-.3,2.29-.45,3.43.82-.24,1.54-.47,2.32-.68C24.9,20.24,24.32,19.36,23.65,18.41Z"/><path class="cls-2" d="M39.28,18.54c.69,1.09,1.37,2.19,2,3.27.43.72.9,1.43,1.28,2.19a1.46,1.46,0,0,1-.46,2,1.61,1.61,0,0,1-2.26-.46c-.51-.75-1-1.51-1.51-2.29L36.46,20c-.16-.3-.35-.24-.65-.11.09.48.19.95.28,1.43.26,1.38.54,2.77.77,4.15a1.52,1.52,0,0,1-1.23,1.86,1.58,1.58,0,0,1-1.84-1.28c-.09-.45-.19-.88-.29-1.33-.68-3-1.36-6-2.05-9.08-.17-.79-.29-1.59-.41-2.39-.2-1.26.15-1.86,1.53-2.26a18.83,18.83,0,0,1,3.81-.84c3-.21,5.64,2.5,5.18,5a4.64,4.64,0,0,1-2,3.17A2.43,2.43,0,0,1,39.28,18.54Zm-4-1.71,1.59-.6c.13-.08.3-.16.44-.25a1.3,1.3,0,0,0,.4-2.1,2.5,2.5,0,0,0-3.09-.31C34.84,14.65,35.06,15.72,35.28,16.83Z"/><path class="cls-2" d="M46.13,12c.19,1.23.38,2.46.57,3.72l.65-.1c.82-.15,1.63-.31,2.46-.4a1.47,1.47,0,1,1,.37,2.88l-2.88.42c.21,1.35.41,2.67.61,4,.87-.14,1.67-.23,2.44-.36,1-.14,1.95-.32,2.95-.44a1.55,1.55,0,0,1,1.89,1.18,1.5,1.5,0,0,1-1.42,1.71c-2.29.36-4.57.74-6.84,1.05a1.94,1.94,0,0,1-2.12-1.55c-.75-4.16-1.47-8.35-2.19-12.51a3.71,3.71,0,0,1,0-.81A1.57,1.57,0,0,1,44,9.31c2.24-.38,4.49-.73,6.75-1a7.07,7.07,0,0,1,1.59,0,1.37,1.37,0,0,1,1.33,1.1,1.37,1.37,0,0,1-1,1.46,5,5,0,0,1-1,.3c-1.74.27-3.51.54-5.28.83A1.09,1.09,0,0,0,46.13,12Z"/><path class="cls-2" d="M58.4,13c.1,1,.17,1.93.29,2.84l.78,6.24a1.44,1.44,0,0,1-1.27,1.66,1.52,1.52,0,0,1-1.67-1.3c0-.05,0-.07,0-.11-.53-4.5-1.07-9-1.61-13.46a3,3,0,0,1,0-.84,1.08,1.08,0,0,1,.2-.53,2.27,2.27,0,0,1,3.17-.25,12,12,0,0,1,1.11,1.56c1.35,2.22,2.66,4.42,4,6.65a.77.77,0,0,0,.25.33c0-.46-.05-.9-.11-1.33-.22-2.19-.48-4.37-.71-6.55A1.34,1.34,0,0,1,64,6.45a1.38,1.38,0,0,1,1.54,1.2c.15,1.38.29,2.74.44,4.12.16,1.7.31,3.42.45,5.13.13,1.47.27,2.92.37,4.37A1.53,1.53,0,0,1,65.72,23a1.4,1.4,0,0,1-1.65-.36A3.49,3.49,0,0,1,63.6,22c-1.6-2.91-3.28-5.79-5-8.66A2,2,0,0,1,58.4,13Z"/><path class="cls-2" d="M71,9c-.85,0-1.61,0-2.38,0A1.75,1.75,0,0,1,67,8.28a1.22,1.22,0,0,1,.56-1.77,2.47,2.47,0,0,1,1-.29C71.27,6,74,5.9,76.75,5.86c1.22,0,2,1,1.56,2a1.63,1.63,0,0,1-1.55.95l-1.17,0-1.2,0c0,.18,0,.35,0,.51.18,3.85.38,7.7.53,11.58a2.16,2.16,0,0,1-.37,1.26,1.4,1.4,0,0,1-1.5.54,1.46,1.46,0,0,1-1.24-1.26c-.12-1.06-.22-2.12-.3-3.2q-.24-4.39-.49-8.79C71,9.35,71,9.18,71,9Z"/><path class="cls-2" d="M81.77,17c-.51,1.34-1.06,2.73-1.58,4.12a3.66,3.66,0,0,1-.33.72,1.51,1.51,0,0,1-1.85.65,1.38,1.38,0,0,1-.91-1.59,8.29,8.29,0,0,1,.41-1.28C79,15.58,80.67,11.52,82.36,7.5c.13-.27.26-.55.39-.8a1.73,1.73,0,0,1,3-.19,4.77,4.77,0,0,1,.62,1.26c1.08,2.86,2.13,5.74,3.1,8.62.43,1.32.86,2.63,1.25,4a3.08,3.08,0,0,1,0,1.21,1.4,1.4,0,0,1-1.32,1,1.49,1.49,0,0,1-1.52-.92c-.32-.75-.57-1.5-.85-2.26s-.46-1.28-.68-1.93c-.09-.3-.21-.45-.58-.43-.67,0-1.33,0-2,0Zm2.39-6c-.46,1.1-.87,2.14-1.3,3.2l2.4-.08C84.9,13.15,84.56,12.16,84.16,11.07Z"/><path class="cls-2" d="M95.22,20c1.67,0,3.25.06,4.84.11a1.65,1.65,0,0,1,1.32.61,1.3,1.3,0,0,1,.17,1.48,1.45,1.45,0,0,1-1.38.86C99.11,23,98.05,23,97,23s-2.12-.11-3.17-.18A1.73,1.73,0,0,1,92,20.89c.13-4.34.29-8.7.44-13a2.42,2.42,0,0,1,.24-.94A1.57,1.57,0,0,1,94.16,6a1.49,1.49,0,0,1,1.39,1,12.11,12.11,0,0,1,.16,2.39c-.14,3.37-.3,6.74-.46,10.11C95.24,19.64,95.23,19.8,95.22,20Z"/><path class="cls-2" d="M117.55,17.85a18.64,18.64,0,0,1-2.24-.49,1.32,1.32,0,0,1-.93-1.92,1.29,1.29,0,0,1,1.26-.64c1.16.07,2.35.17,3.52.33a1.82,1.82,0,0,1,1.59,1.08,2.72,2.72,0,0,1,.1,1.23,18.63,18.63,0,0,1-1.1,4.59,4.72,4.72,0,0,1-5.83,2.55,5.25,5.25,0,0,1-3.8-2.75,4.52,4.52,0,0,1-.45-2.66c.24-2,.53-4,.89-6a7.34,7.34,0,0,1,1.73-3.45,5.11,5.11,0,0,1,7.6,0,5.69,5.69,0,0,1,.88,1.24,1.26,1.26,0,0,1-.52,1.78,1.63,1.63,0,0,1-2-.47A3.53,3.53,0,0,0,116.56,11a1.35,1.35,0,0,0-1.51.49,6.17,6.17,0,0,0-1.25,2.79c-.28,1.57-.49,3.13-.7,4.7a4,4,0,0,0,.06,1.43,1.56,1.56,0,0,0,1.27,1.06.82.82,0,0,0,.26.06c1.54.29,1.89.14,2.32-1.25A21.11,21.11,0,0,0,117.55,17.85Z"/><path class="cls-2" d="M125.77,21.1c-.76,1.22-1.56,2.48-2.34,3.75a3.37,3.37,0,0,1-.46.64,1.53,1.53,0,0,1-2,.29,1.38,1.38,0,0,1-.59-1.74,8,8,0,0,1,.65-1.18c2.27-3.71,4.65-7.39,7.07-11,.19-.25.36-.5.54-.72a1.73,1.73,0,0,1,3,.39,4.25,4.25,0,0,1,.38,1.35c.53,3,1,6.05,1.44,9.05.17,1.39.34,2.75.48,4.14a2.82,2.82,0,0,1-.2,1.18,1.37,1.37,0,0,1-1.49.75A1.48,1.48,0,0,1,131,26.8c-.18-.79-.28-1.57-.41-2.38s-.22-1.34-.31-2c0-.32-.13-.48-.49-.53-.67-.09-1.32-.25-2-.38Zm3.49-5.41c-.67,1-1.27,1.94-1.89,2.9.84.14,1.59.24,2.38.38C129.59,17.87,129.44,16.83,129.26,15.69Z"/><path class="cls-2" d="M139.13,15.48c-.82-.25-1.56-.45-2.31-.67a1.75,1.75,0,0,1-1.37-1.16,1.21,1.21,0,0,1,1-1.54,2.46,2.46,0,0,1,1,0c2.7.6,5.38,1.25,8.05,2,1.18.34,1.66,1.53,1,2.32a1.66,1.66,0,0,1-1.77.48l-1.14-.3-1.17-.31c-.05.18-.09.34-.13.5-.91,3.74-1.79,7.5-2.74,11.26a2.18,2.18,0,0,1-.71,1.11,1.41,1.41,0,0,1-1.6.09,1.47,1.47,0,0,1-.84-1.56c.17-1.05.38-2.09.61-3.15.66-2.86,1.33-5.72,2-8.57C139,15.81,139.08,15.65,139.13,15.48Z"/><path class="cls-2" d="M150.45,19.06l-1.06,3.61.63.19c.81.21,1.62.41,2.42.68a1.48,1.48,0,1,1-.89,2.77c-.93-.29-1.86-.57-2.8-.84-.39,1.3-.77,2.59-1.15,3.87.85.25,1.63.51,2.38.72,1,.29,1.92.55,2.89.85a1.57,1.57,0,0,1,1.22,1.88,1.51,1.51,0,0,1-2,1c-2.25-.65-4.49-1.29-6.69-2a1.94,1.94,0,0,1-1.27-2.31c1.09-4.08,2.2-8.18,3.31-12.26a4.57,4.57,0,0,1,.32-.75,1.57,1.57,0,0,1,1.94-.74c2.21.61,4.42,1.25,6.6,2a6.89,6.89,0,0,1,1.47.64,1.3,1.3,0,0,1-.75,2.47,4.88,4.88,0,0,1-1.06-.17c-1.71-.5-3.44-1-5.18-1.5A.94.94,0,0,0,150.45,19.06Z"/></g></g></svg>