<svg width="50" height="60" viewBox="0 0 50 60" fill="none" xmlns="http://www.w3.org/2000/svg">
<path fill-rule="evenodd" clip-rule="evenodd" d="M49.4182 34.7455L0 0L7.6909 59.6182C24.0545 57.6 39.1091 49.1455 49.4182 34.7455Z" fill="#F9CC3D"/>
<path fill-rule="evenodd" clip-rule="evenodd" d="M6.81784 52.2547C6.43602 54.3819 7.52692 58.8001 7.69055 60.0001C24.0542 58.0364 39.5451 49.4728 49.9088 35.0728C48.3269 33.9274 46.6906 32.8365 45.1087 31.691C43.6906 30.7092 43.3088 30.8183 42.2724 32.4001C41.2906 33.8728 40.7451 35.5637 39.436 36.8183C37.1451 39.0001 33.3815 38.891 31.1451 41.0183C29.7815 42.3274 29.1815 44.291 27.8178 45.6546C26.6724 46.8546 25.036 47.5092 23.4542 48.1637C22.3633 48.6001 21.1633 49.0365 19.9633 48.9819C18.9815 48.9274 18.0542 48.491 17.0723 48.2183C14.1814 47.5092 12.3815 51.2728 9.10872 51.0546C8.56327 51.0001 8.01782 50.9456 7.58146 51.1637C7.14509 51.2183 6.92693 51.6547 6.81784 52.2547Z" fill="#F67300"/>
<path fill-rule="evenodd" clip-rule="evenodd" d="M12.3265 10.6901C10.1447 13.7991 10.9083 18.1082 14.0174 20.29C17.1265 22.4719 21.4356 21.7082 23.6174 18.5992C23.9447 18.1082 24.2174 17.6173 24.4356 17.0719L13.4174 9.49005C12.9811 9.81732 12.6538 10.1991 12.3265 10.6901Z" fill="#8E0909"/>
<path fill-rule="evenodd" clip-rule="evenodd" d="M12.3265 10.6901C10.1447 13.7991 10.9083 18.1082 14.0174 20.29C17.1265 22.4719 21.4356 21.7082 23.6174 18.5992C23.9447 18.1082 24.2174 17.6173 24.4356 17.0719L13.4174 9.49005C12.9811 9.81732 12.6538 10.1991 12.3265 10.6901Z" fill="#8F0909"/>
<path fill-rule="evenodd" clip-rule="evenodd" d="M12.3265 10.6901C10.1447 13.7991 10.9083 18.1082 14.0174 20.29C17.1265 22.4719 21.4356 21.7082 23.6174 18.5992C23.9447 18.1082 24.2174 17.6173 24.4356 17.0719L13.4174 9.49005C13.0356 9.81732 12.6538 10.1991 12.3265 10.6901Z" fill="#900A09"/>
<path fill-rule="evenodd" clip-rule="evenodd" d="M12.3265 10.6901C10.1447 13.7991 10.9083 18.1082 14.0174 20.29C17.1265 22.4719 21.4356 21.7082 23.6174 18.5992C23.9447 18.1082 24.2174 17.6173 24.4356 17.0719L13.4174 9.49005C13.0356 9.81732 12.6538 10.1991 12.3265 10.6901Z" fill="#910A09"/>
<path fill-rule="evenodd" clip-rule="evenodd" d="M12.3265 10.6901C10.1447 13.7991 10.9083 18.1082 14.0174 20.29C17.1265 22.4719 21.4356 21.7082 23.6174 18.5992C23.9447 18.1082 24.2174 17.6173 24.4356 17.0719L13.4719 9.49005C13.0356 9.81732 12.6538 10.2537 12.3265 10.6901Z" fill="#920B09"/>
<path fill-rule="evenodd" clip-rule="evenodd" d="M12.3265 10.6903C10.1447 13.7994 10.9083 18.0539 14.0174 20.2357C17.1265 22.4175 21.381 21.6539 23.5629 18.5448C23.8901 18.0539 24.1629 17.563 24.381 17.0175L13.4174 9.43573C13.0356 9.81755 12.6538 10.2539 12.3265 10.6903Z" fill="#930B09"/>
<path fill-rule="evenodd" clip-rule="evenodd" d="M12.3265 10.6901C10.1447 13.7991 10.9083 18.0537 14.0174 20.2355C17.1265 22.4173 21.381 21.6537 23.5629 18.5446C23.8901 18.0537 24.1629 17.5628 24.381 17.0173L13.4174 9.49005C13.0356 9.81732 12.6538 10.2537 12.3265 10.6901Z" fill="#940B09"/>
<path fill-rule="evenodd" clip-rule="evenodd" d="M12.3265 10.6901C10.1447 13.7991 10.9083 18.0537 14.0174 20.2355C17.1265 22.4173 21.381 21.6537 23.5629 18.5446C23.8901 18.0537 24.1629 17.5628 24.381 17.0173L13.4174 9.49005C13.0356 9.81732 12.6538 10.2537 12.3265 10.6901Z" fill="#950C0A"/>
<path fill-rule="evenodd" clip-rule="evenodd" d="M12.3812 10.6901C10.1994 13.7991 10.963 18.0537 14.0721 20.2355C17.1812 22.4173 21.4357 21.6537 23.6175 18.5446C23.9448 18.0537 24.2175 17.5628 24.4357 17.0173L13.5266 9.49005C13.0357 9.87187 12.6539 10.2537 12.3812 10.6901Z" fill="#960C0A"/>
<path fill-rule="evenodd" clip-rule="evenodd" d="M12.3812 10.6901C10.1994 13.7991 10.963 18.0537 14.0721 20.2355C17.1812 22.4173 21.4357 21.6537 23.6175 18.5446C23.9448 18.0537 24.2175 17.5628 24.4357 17.0173L13.5266 9.49005C13.0357 9.87187 12.7085 10.2537 12.3812 10.6901Z" fill="#970D0A"/>
<path fill-rule="evenodd" clip-rule="evenodd" d="M12.3804 10.6904C10.1986 13.7995 10.9622 18.054 14.0168 20.2359C17.1259 22.4177 21.3804 21.654 23.5622 18.5995C23.8895 18.1086 24.1622 17.6177 24.3804 17.0722L13.4713 9.54492C13.035 9.87219 12.7077 10.254 12.3804 10.6904Z" fill="#980D0A"/>
<path fill-rule="evenodd" clip-rule="evenodd" d="M12.3804 10.6901C10.1986 13.7991 10.9622 18.0537 14.0168 20.181C17.1259 22.3628 21.3804 21.5991 23.5077 18.5446C23.835 18.0537 24.1077 17.5628 24.3259 17.0173L13.4168 9.49005C13.035 9.87187 12.7077 10.2537 12.3804 10.6901Z" fill="#990D0A"/>
<path fill-rule="evenodd" clip-rule="evenodd" d="M12.3804 10.6901C10.1986 13.7991 10.9622 18.0537 14.0168 20.181C17.1259 22.3628 21.3804 21.5991 23.5077 18.5446C23.835 18.0537 24.1077 17.5628 24.3259 17.0173L13.4168 9.49005C13.0895 9.87187 12.7077 10.2537 12.3804 10.6901Z" fill="#9A0E0A"/>
<path fill-rule="evenodd" clip-rule="evenodd" d="M12.3804 10.6904C10.1986 13.7449 10.9622 17.9995 14.0168 20.1813C17.0713 22.3631 21.3259 21.5995 23.5077 18.5449C23.835 18.054 24.1077 17.5631 24.3259 17.0177L13.4713 9.54492C13.0895 9.87219 12.7077 10.254 12.3804 10.6904Z" fill="#9B0E0A"/>
<path fill-rule="evenodd" clip-rule="evenodd" d="M12.3804 10.7447C10.1986 13.7992 10.9622 18.0538 14.0168 20.2356C17.0713 22.4174 21.3259 21.6538 23.5077 18.5992C23.835 18.1083 24.1077 17.6174 24.3259 17.072L13.4713 9.59924C13.0895 9.87197 12.7077 10.2538 12.3804 10.7447Z" fill="#9C0F0A"/>
<path fill-rule="evenodd" clip-rule="evenodd" d="M12.3804 10.7447C10.1986 13.7992 10.9622 18.0538 14.0168 20.2356C17.0713 22.4174 21.3259 21.6538 23.5077 18.5992C23.835 18.1083 24.1077 17.6174 24.3259 17.072L13.4713 9.59924C13.0895 9.87197 12.7077 10.2538 12.3804 10.7447Z" fill="#9D0F0A"/>
<path fill-rule="evenodd" clip-rule="evenodd" d="M12.3804 10.7447C10.1986 13.7992 10.9622 18.0538 14.0168 20.2356C17.0713 22.4174 21.3259 21.6538 23.5077 18.5992C23.835 18.1083 24.1077 17.6174 24.3259 17.072L13.4713 9.59924C13.0895 9.87197 12.7077 10.2538 12.3804 10.7447Z" fill="#9E0F0A"/>
<path fill-rule="evenodd" clip-rule="evenodd" d="M12.4361 10.7449C10.2543 13.7995 11.0179 18.054 14.0725 20.1813C17.127 22.3631 21.3816 21.5995 23.5088 18.5449C23.8361 18.054 24.1088 17.5631 24.327 17.0177L13.4725 9.54492C13.0907 9.87219 12.7088 10.254 12.4361 10.7449Z" fill="#9F100A"/>
<path fill-rule="evenodd" clip-rule="evenodd" d="M12.4357 10.7449C10.3085 13.7995 11.0176 18.054 14.0721 20.1813C17.1267 22.3086 21.3812 21.5995 23.5085 18.5449C23.8358 18.054 24.1085 17.5631 24.3267 17.0177L13.5267 9.54492C13.0903 9.87219 12.7085 10.3086 12.4357 10.7449Z" fill="#A0100A"/>
<path fill-rule="evenodd" clip-rule="evenodd" d="M12.4357 10.7449C10.3085 13.7995 11.0176 18.054 14.0721 20.1813C17.1267 22.3086 21.3812 21.5995 23.5085 18.5449C23.8358 18.054 24.1085 17.5631 24.3267 17.0177L13.5267 9.54492C13.0903 9.87219 12.763 10.3086 12.4357 10.7449Z" fill="#A1110B"/>
<path fill-rule="evenodd" clip-rule="evenodd" d="M12.4357 10.7447C10.3085 13.7992 11.0176 17.9992 14.0721 20.181C17.1267 22.3083 21.3267 21.5992 23.5085 18.5447C23.8358 18.0538 24.1085 17.5629 24.3267 17.0174L13.5267 9.59924C13.0903 9.87197 12.763 10.3083 12.4357 10.7447Z" fill="#A2110B"/>
<path fill-rule="evenodd" clip-rule="evenodd" d="M12.4357 10.7447C10.3085 13.7992 11.0176 17.9992 14.0721 20.181C17.1267 22.3083 21.3267 21.5992 23.5085 18.5447C23.8358 18.0538 24.1085 17.5629 24.3267 17.0174L13.5267 9.59924C13.1448 9.92652 12.763 10.3083 12.4357 10.7447Z" fill="#A3110B"/>
<path fill-rule="evenodd" clip-rule="evenodd" d="M12.4357 10.7447C10.3085 13.7992 11.0176 17.9992 14.0721 20.181C17.1267 22.3083 21.3267 21.5992 23.5085 18.5447C23.8358 18.0538 24.1085 17.5629 24.3267 17.0174L13.5812 9.59924C13.1449 9.92652 12.763 10.3083 12.4357 10.7447Z" fill="#A4120B"/>
<path fill-rule="evenodd" clip-rule="evenodd" d="M12.4357 10.7449C10.3085 13.7995 11.0176 17.9995 14.0721 20.1268C17.1267 22.254 21.3267 21.5449 23.454 18.4904C23.7812 17.9995 24.054 17.5086 24.2721 16.9631L13.5267 9.54492C13.1448 9.92674 12.763 10.3086 12.4357 10.7449Z" fill="#A5120B"/>
<path fill-rule="evenodd" clip-rule="evenodd" d="M12.4357 10.7449C10.3085 13.7995 11.0176 17.9995 14.0721 20.1268C17.1267 22.254 21.3267 21.5449 23.454 18.4904C23.7812 17.9995 24.054 17.5086 24.2721 16.9631L13.5267 9.54492C13.1448 9.92674 12.763 10.3086 12.4357 10.7449Z" fill="#A6120B"/>
<path fill-rule="evenodd" clip-rule="evenodd" d="M12.4357 10.7449C10.3085 13.7995 11.0176 17.9995 14.0721 20.1268C17.1267 22.254 21.3267 21.5449 23.454 18.4904C23.7812 17.9995 24.054 17.5086 24.2721 16.9631L13.5267 9.54492C13.1448 9.92674 12.763 10.3086 12.4357 10.7449Z" fill="#A7130B"/>
<path fill-rule="evenodd" clip-rule="evenodd" d="M12.4357 10.7447C10.3085 13.7992 11.0176 17.9992 14.0721 20.1265C17.1267 22.2538 21.3267 21.5447 23.454 18.4901C23.7812 17.9992 24.054 17.5083 24.2721 16.9629L13.5267 9.59924C13.1448 9.92652 12.763 10.3083 12.4357 10.7447Z" fill="#A8130B"/>
<path fill-rule="evenodd" clip-rule="evenodd" d="M12.4904 10.7447C10.3632 13.7992 11.0722 17.9992 14.1268 20.1265C17.1813 22.2538 21.3813 21.5447 23.5086 18.4901C23.8359 17.9992 24.1086 17.5083 24.3268 16.9629L13.6359 9.59924C13.145 9.92652 12.7632 10.3083 12.4904 10.7447Z" fill="#A9140B"/>
<path fill-rule="evenodd" clip-rule="evenodd" d="M12.4904 10.7993C10.3632 13.8538 11.0722 17.9992 14.1268 20.1265C17.1813 22.2538 21.3268 21.5447 23.4541 18.4901C23.7813 17.9992 24.0541 17.5083 24.2722 16.9629L13.5813 9.59924C13.145 9.92652 12.8177 10.3083 12.4904 10.7993Z" fill="#AA140B"/>
<path fill-rule="evenodd" clip-rule="evenodd" d="M12.4904 10.7993C10.3632 13.8538 11.0722 17.9992 14.1268 20.1265C17.1813 22.2538 21.3268 21.5447 23.4541 18.4901C23.7813 17.9992 24.0541 17.5083 24.2722 16.9629L13.5813 9.59924C13.145 9.92652 12.8177 10.3083 12.4904 10.7993Z" fill="#AB140B"/>
<path fill-rule="evenodd" clip-rule="evenodd" d="M12.4904 10.7993C10.3632 13.7993 11.0722 17.9992 14.1268 20.1265C17.1268 22.2538 21.3268 21.5447 23.4541 18.4901C23.7813 17.9992 24.0541 17.5083 24.2722 16.9629L13.5813 9.59924C13.145 9.92652 12.8177 10.3083 12.4904 10.7993Z" fill="#AC150B"/>
<path fill-rule="evenodd" clip-rule="evenodd" d="M12.4904 10.7993C10.3632 13.7993 11.0722 17.9992 14.1268 20.1265C17.1268 22.2538 21.3268 21.5447 23.4541 18.4901C23.7813 17.9992 24.0541 17.5083 24.2722 16.9629L13.5813 9.59924C13.1995 9.92652 12.8177 10.3083 12.4904 10.7993Z" fill="#AD150B"/>
<path fill-rule="evenodd" clip-rule="evenodd" d="M12.4904 10.7993C10.3632 13.7993 11.0722 17.9992 14.1268 20.1265C17.1268 22.2538 21.3268 21.5447 23.4541 18.4901C23.7813 17.9992 24.0541 17.5083 24.2722 16.9629L13.6359 9.59924C13.1995 9.92652 12.8177 10.3629 12.4904 10.7993Z" fill="#AE160C"/>
<path fill-rule="evenodd" clip-rule="evenodd" d="M12.4904 10.7996C10.3632 13.7996 11.0722 17.9996 14.1268 20.1269C17.1268 22.2541 21.3268 21.545 23.4541 18.4905C23.7813 17.9996 24.0541 17.5087 24.2722 16.9632L13.6359 9.65411C13.1995 9.92684 12.8177 10.3632 12.4904 10.7996Z" fill="#AF160C"/>
<path fill-rule="evenodd" clip-rule="evenodd" d="M12.4904 10.7993C10.3632 13.7993 11.0722 17.9993 14.1268 20.072C17.1268 22.1993 21.3268 21.4902 23.3995 18.4356C23.7268 17.9447 23.9995 17.4538 24.2177 16.9083L13.5813 9.59924C13.1995 9.92652 12.8177 10.3629 12.4904 10.7993Z" fill="#B0160C"/>
<path fill-rule="evenodd" clip-rule="evenodd" d="M12.4901 10.7993C10.3628 13.7993 11.1265 17.9447 14.1265 20.072C17.1265 22.1993 21.2719 21.4356 23.3992 18.4356C23.7265 17.9447 23.9992 17.4538 24.2174 16.9083L13.581 9.59924C13.1992 9.98106 12.8174 10.3629 12.4901 10.7993Z" fill="#B1170C"/>
<path fill-rule="evenodd" clip-rule="evenodd" d="M12.4901 10.7993C10.3628 13.7993 11.1265 17.9447 14.1265 20.072C17.1265 22.1993 21.2719 21.4356 23.3992 18.4356C23.7265 17.9447 23.9992 17.4538 24.2174 16.9083L13.6355 9.59924C13.1992 9.98106 12.8174 10.3629 12.4901 10.7993Z" fill="#B2170C"/>
<path fill-rule="evenodd" clip-rule="evenodd" d="M12.5448 10.7993C10.4175 13.7993 11.1811 17.9447 14.1811 20.072C17.1811 22.1993 21.3266 21.4356 23.4539 18.4356C23.7811 17.9447 24.0539 17.4538 24.2721 16.9083L13.6902 9.59924C13.1993 9.98106 12.8175 10.3629 12.5448 10.7993Z" fill="#B3180C"/>
<path fill-rule="evenodd" clip-rule="evenodd" d="M12.5448 10.7993C10.4175 13.7993 11.1811 17.9447 14.1811 20.072C17.1811 22.1993 21.3266 21.4356 23.4539 18.4356C23.7811 17.9447 24.0539 17.4538 24.2721 16.9083L13.6902 9.59924C13.1993 9.98106 12.872 10.3629 12.5448 10.7993Z" fill="#B4180C"/>
<path fill-rule="evenodd" clip-rule="evenodd" d="M12.5448 10.7993C10.4175 13.7993 11.1811 17.9447 14.1811 20.072C17.1811 22.1993 21.3266 21.4356 23.4539 18.4356C23.7811 17.9447 24.0539 17.4538 24.2721 16.9083L13.6902 9.59924C13.1993 9.98106 12.872 10.3629 12.5448 10.7993Z" fill="#B5180C"/>
<path fill-rule="evenodd" clip-rule="evenodd" d="M12.5448 10.7993C10.4175 13.7993 11.1811 17.9447 14.1811 20.0174C17.1811 22.1447 21.3266 21.3811 23.3993 18.3811C23.7266 17.8901 23.9993 17.3992 24.2175 16.8538L13.6357 9.59924C13.2539 9.98106 12.872 10.3629 12.5448 10.7993Z" fill="#B6190C"/>
<path fill-rule="evenodd" clip-rule="evenodd" d="M12.5448 10.8541C10.4175 13.8541 11.1811 17.9996 14.1811 20.0723C17.1811 22.1996 21.3266 21.436 23.3993 18.436C23.7266 17.945 23.9993 17.4541 24.2175 16.9087L13.6902 9.65411C13.2539 9.98139 12.872 10.3632 12.5448 10.8541Z" fill="#B7190C"/>
<path fill-rule="evenodd" clip-rule="evenodd" d="M12.5448 10.8541C10.4175 13.8541 11.1811 17.945 14.1811 20.0723C17.1811 22.1996 21.2721 21.436 23.3993 18.436C23.7266 17.945 23.9993 17.4541 24.2175 16.9087L13.6902 9.65411C13.2539 9.98139 12.872 10.3632 12.5448 10.8541Z" fill="#B81A0C"/>
<path fill-rule="evenodd" clip-rule="evenodd" d="M12.5446 10.8539C10.4719 13.8539 11.181 17.9448 14.1264 20.0721C17.1264 22.1448 21.2173 21.4357 23.3446 18.4902C23.6718 17.9993 23.9446 17.5084 24.1627 16.963L13.6355 9.70844C13.2537 9.98116 12.8719 10.363 12.5446 10.8539Z" fill="#B91A0C"/>
<path fill-rule="evenodd" clip-rule="evenodd" d="M12.5446 10.8539C10.4719 13.8539 11.181 17.9448 14.1264 20.0721C17.1264 22.1448 21.2173 21.4357 23.3446 18.4902C23.6718 17.9993 23.9446 17.5084 24.1627 16.963L13.6355 9.70844C13.2537 9.98116 12.8719 10.363 12.5446 10.8539Z" fill="#BA1A0C"/>
<path fill-rule="evenodd" clip-rule="evenodd" d="M12.5446 10.8541C10.4719 13.8541 11.181 17.945 14.1264 20.0178C17.1264 22.0905 21.2173 21.3814 23.29 18.436C23.6173 17.945 23.89 17.4541 24.1082 16.9087L13.581 9.65411C13.2537 9.98139 12.8719 10.3632 12.5446 10.8541Z" fill="#BB1B0D"/>
<path fill-rule="evenodd" clip-rule="evenodd" d="M12.5993 10.8541C10.5266 13.8541 11.2357 17.945 14.1811 20.0178C17.1811 22.0905 21.272 21.3814 23.3447 18.436C23.672 17.945 23.9447 17.4541 24.1629 16.9087L13.6902 9.65411C13.2538 9.98139 12.872 10.4178 12.5993 10.8541Z" fill="#BC1B0D"/>
<path fill-rule="evenodd" clip-rule="evenodd" d="M12.5993 10.8539C10.5266 13.8539 11.2357 17.9448 14.1811 20.0175C17.1811 22.0902 21.272 21.3812 23.3447 18.4357C23.672 17.9448 23.9447 17.4539 24.1629 16.9084L13.6902 9.70844C13.2538 9.98116 12.872 10.4175 12.5993 10.8539Z" fill="#BD1C0D"/>
<path fill-rule="evenodd" clip-rule="evenodd" d="M12.5993 10.8539C10.5266 13.7993 11.2357 17.9448 14.1811 20.0175C17.1266 22.0902 21.272 21.3812 23.3447 18.4357C23.672 17.9448 23.9447 17.4539 24.1629 16.9084L13.6902 9.70844C13.2538 9.98116 12.9266 10.4175 12.5993 10.8539Z" fill="#BE1C0D"/>
<path fill-rule="evenodd" clip-rule="evenodd" d="M12.5993 10.8539C10.5266 13.7993 11.2357 17.9448 14.1811 20.0175C17.1266 22.0902 21.272 21.3812 23.3447 18.4357C23.672 17.9448 23.9447 17.4539 24.1629 16.9084L13.6902 9.70844C13.2538 10.0357 12.9266 10.4175 12.5993 10.8539Z" fill="#BF1C0D"/>
<path fill-rule="evenodd" clip-rule="evenodd" d="M12.5993 10.8539C10.5266 13.7993 11.2357 17.8902 14.1811 20.0175C17.1266 22.0902 21.2174 21.3812 23.3447 18.4357C23.672 17.9448 23.9447 17.4539 24.1629 16.9084L13.7447 9.70844C13.3084 10.0357 12.9266 10.4175 12.5993 10.8539Z" fill="#C01D0D"/>
<path fill-rule="evenodd" clip-rule="evenodd" d="M12.5993 10.8541C10.5266 13.7996 11.2357 17.8905 14.1811 19.9632C17.1266 22.0359 21.2175 21.3268 23.2902 18.3814C23.6175 17.8905 23.8902 17.3996 24.1084 16.8541L13.6902 9.65411C13.3084 10.0359 12.9266 10.4178 12.5993 10.8541Z" fill="#C11D0D"/>
<path fill-rule="evenodd" clip-rule="evenodd" d="M12.5993 10.8541C10.5266 13.7996 11.2357 17.8905 14.1811 19.9632C17.1266 22.0359 21.2175 21.3268 23.2902 18.3814C23.6175 17.8905 23.8902 17.3996 24.1084 16.8541L13.6902 9.65411C13.3084 10.0359 12.9266 10.4178 12.5993 10.8541Z" fill="#C21E0D"/>
<path fill-rule="evenodd" clip-rule="evenodd" d="M12.5993 10.8541C10.5266 13.7996 11.2357 17.8905 14.1811 19.9632C17.1266 22.0359 21.2175 21.3268 23.2902 18.3814C23.6175 17.8905 23.8902 17.3996 24.1084 16.8541L13.6902 9.65411C13.3084 10.0359 12.9266 10.4178 12.5993 10.8541Z" fill="#C31E0D"/>
<path fill-rule="evenodd" clip-rule="evenodd" d="M12.5993 10.8539C10.5266 13.7993 11.2357 17.8902 14.1811 19.963C17.1266 22.0357 21.2175 21.3266 23.2902 18.3811C23.6175 17.8902 23.8902 17.3993 24.1084 16.8539L13.6902 9.70844C13.3084 10.0357 12.9266 10.4175 12.5993 10.8539Z" fill="#C41E0D"/>
<path fill-rule="evenodd" clip-rule="evenodd" d="M12.5993 10.9083C10.5266 13.8537 11.2357 17.9446 14.1811 20.0174C17.1266 22.0901 21.2175 21.381 23.2902 18.4356C23.6175 17.9447 23.8902 17.4537 24.1084 16.9083L13.7447 9.76282C13.3084 10.0355 12.9266 10.4173 12.5993 10.9083Z" fill="#C51F0D"/>
<path fill-rule="evenodd" clip-rule="evenodd" d="M12.654 10.9083C10.5812 13.8537 11.2904 17.9446 14.2358 20.0174C17.1813 22.0901 21.2721 21.381 23.3449 18.4356C23.6721 17.9447 23.9449 17.4537 24.1631 16.9083L13.7994 9.76282C13.3085 10.0355 12.9267 10.4173 12.654 10.9083Z" fill="#C61F0D"/>
<path fill-rule="evenodd" clip-rule="evenodd" d="M12.654 10.9084C10.5812 13.8539 11.2904 17.8902 14.2358 19.963C17.1813 22.0357 21.2176 21.3266 23.2903 18.3811C23.6176 17.8902 23.8903 17.3993 24.1085 16.8539L13.7449 9.70844C13.3085 10.0357 12.9813 10.4175 12.654 10.9084Z" fill="#C61F0D"/>
<path fill-rule="evenodd" clip-rule="evenodd" d="M12.654 10.9084C10.5812 13.8539 11.2904 17.8902 14.2358 19.963C17.1813 22.0357 21.2176 21.3266 23.2903 18.3811C23.6176 17.8902 23.8903 17.3993 24.1085 16.8539L13.7449 9.70844C13.3085 10.0357 12.9813 10.4175 12.654 10.9084Z" fill="#C7200E"/>
<path fill-rule="evenodd" clip-rule="evenodd" d="M12.654 10.9084C10.5812 13.8539 11.2904 17.8902 14.2358 19.963C17.1813 22.0357 21.2176 21.3266 23.2903 18.3811C23.6176 17.8902 23.8903 17.3993 24.1085 16.8539L13.7449 9.70844C13.3631 10.0357 12.9813 10.4175 12.654 10.9084Z" fill="#C8200E"/>
<path fill-rule="evenodd" clip-rule="evenodd" d="M12.654 10.9083C10.5812 13.8537 11.2904 17.8901 14.2358 19.9628C17.1813 22.0356 21.2176 21.3265 23.2903 18.381C23.6176 17.8901 23.8903 17.3992 24.1085 16.8537L13.7994 9.76282C13.3631 10.0355 12.9813 10.4719 12.654 10.9083Z" fill="#C9210E"/>
<path fill-rule="evenodd" clip-rule="evenodd" d="M12.654 10.9083C10.5812 13.8537 11.2904 17.8901 14.2358 19.9628C17.1813 22.0356 21.2176 21.3265 23.2903 18.381C23.6176 17.8901 23.8903 17.3992 24.1085 16.8537L13.7994 9.76282C13.3631 10.0355 12.9813 10.4719 12.654 10.9083Z" fill="#CA210E"/>
<path fill-rule="evenodd" clip-rule="evenodd" d="M12.654 10.9084C10.5812 13.8539 11.2904 17.8902 14.2358 19.9084C17.1813 21.9811 21.2176 21.2721 23.2358 18.3266C23.5631 17.8357 23.8358 17.3448 24.054 16.7993L13.7449 9.70844C13.3631 10.0357 12.9813 10.472 12.654 10.9084Z" fill="#CB210E"/>
<path fill-rule="evenodd" clip-rule="evenodd" d="M12.654 10.9084C10.5812 13.8539 11.2904 17.8902 14.2358 19.9084C17.1813 21.9811 21.2176 21.2721 23.2358 18.3266C23.5631 17.8357 23.8358 17.3448 24.054 16.7993L13.7449 9.70844C13.3631 10.0903 12.9813 10.472 12.654 10.9084Z" fill="#CC220E"/>
<path fill-rule="evenodd" clip-rule="evenodd" d="M12.654 10.9084C10.5812 13.8539 11.2904 17.8357 14.2358 19.9084C17.1813 21.9811 21.1631 21.2721 23.2358 18.3266C23.5631 17.8357 23.8358 17.3448 24.054 16.7993L13.7994 9.70844C13.3631 10.0903 12.9813 10.472 12.654 10.9084Z" fill="#CD220E"/>
<path fill-rule="evenodd" clip-rule="evenodd" d="M12.654 10.9084C10.5812 13.8539 11.2904 17.8357 14.2358 19.9084C17.1267 21.9811 21.1631 21.2721 23.2358 18.3266C23.5631 17.8357 23.8358 17.3448 24.054 16.7993L13.7994 9.70844C13.3631 10.0903 12.9813 10.472 12.654 10.9084Z" fill="#CE230E"/>
<path fill-rule="evenodd" clip-rule="evenodd" d="M12.7077 10.9084C10.635 13.7993 11.3441 17.8357 14.2895 19.9084C17.1804 21.9811 21.2168 21.2721 23.2895 18.3266C23.6168 17.8357 23.8895 17.3448 24.1077 16.7993L13.8532 9.70844C13.3623 10.0903 12.9804 10.472 12.7077 10.9084Z" fill="#CF230E"/>
<path fill-rule="evenodd" clip-rule="evenodd" d="M12.7077 10.9083C10.635 13.7992 11.3441 17.8355 14.2895 19.9083C17.1804 21.981 21.2168 21.2719 23.2895 18.3265C23.6168 17.8356 23.8895 17.3447 24.1077 16.7992L13.8532 9.76282C13.3623 10.0901 13.035 10.4719 12.7077 10.9083Z" fill="#D0230E"/>
<path fill-rule="evenodd" clip-rule="evenodd" d="M12.7083 10.9084C10.6901 13.7993 11.3447 17.8357 14.2902 19.8539C17.1811 21.8721 21.2174 21.2175 23.2356 18.272C23.5629 17.7811 23.8356 17.2902 24.0538 16.7448L13.7992 9.70844C13.3629 10.0903 13.0356 10.472 12.7083 10.9084Z" fill="#D1240E"/>
<path fill-rule="evenodd" clip-rule="evenodd" d="M12.7083 10.9628C10.6901 13.8537 11.3447 17.8901 14.2902 19.9083C17.1811 21.9264 21.2174 21.2719 23.2356 18.3265C23.5629 17.8356 23.8356 17.3447 24.0538 16.7992L13.8538 9.76282C13.4175 10.0901 13.0356 10.4719 12.7083 10.9628Z" fill="#D2240E"/>
<path fill-rule="evenodd" clip-rule="evenodd" d="M12.7083 10.9628C10.6901 13.8537 11.3447 17.8901 14.2902 19.9083C17.1811 21.9264 21.2174 21.2719 23.2356 18.3265C23.5629 17.8356 23.8356 17.3447 24.0538 16.7992L13.8538 9.76282C13.4175 10.0901 13.0356 10.4719 12.7083 10.9628Z" fill="#D3250F"/>
<path fill-rule="evenodd" clip-rule="evenodd" d="M12.7083 10.9628C10.6901 13.8537 11.3447 17.8901 14.2902 19.9083C17.1811 21.9264 21.2174 21.2719 23.2356 18.3265C23.5629 17.8356 23.8356 17.3447 24.0538 16.7992L13.8538 9.76282C13.4175 10.0901 13.0356 10.4719 12.7083 10.9628Z" fill="#D4250F"/>
<path fill-rule="evenodd" clip-rule="evenodd" d="M12.7083 10.9628C10.6901 13.8537 11.3447 17.8355 14.2902 19.9083C17.1811 21.9264 21.1629 21.2719 23.2356 18.3265C23.5629 17.8356 23.8356 17.3447 24.0538 16.7992L13.8538 9.76282C13.4175 10.0901 13.0356 10.4719 12.7083 10.9628Z" fill="#D5250F"/>
<path fill-rule="evenodd" clip-rule="evenodd" d="M12.708 10.9628C10.6898 13.8537 11.3989 17.8355 14.2898 19.9083C17.1807 21.9264 21.1625 21.2174 23.2353 18.3265C23.5625 17.8356 23.8353 17.3447 24.0535 16.7992L13.8535 9.76282C13.4171 10.0901 13.0352 10.4719 12.708 10.9628Z" fill="#D6260F"/>
<path fill-rule="evenodd" clip-rule="evenodd" d="M12.708 10.9628C10.6898 13.8537 11.3989 17.8355 14.2898 19.8537C17.1807 21.8719 21.1626 21.1628 23.1807 18.2719C23.508 17.781 23.7807 17.2901 23.9989 16.7446L13.8535 9.76282C13.4171 10.0901 13.0352 10.5265 12.708 10.9628Z" fill="#D7260F"/>
<path fill-rule="evenodd" clip-rule="evenodd" d="M12.7629 10.9631C10.7447 13.854 11.4537 17.8358 14.2901 19.854C17.181 21.8722 21.1629 21.1631 23.181 18.3267C23.5083 17.8358 23.781 17.3449 23.9992 16.7995L13.8538 9.81763C13.4174 10.0904 13.0356 10.5267 12.7629 10.9631Z" fill="#D8270F"/>
<path fill-rule="evenodd" clip-rule="evenodd" d="M12.7629 10.9631C10.7447 13.854 11.4537 17.8358 14.2901 19.854C17.181 21.8722 21.1629 21.1631 23.181 18.3267C23.5083 17.8358 23.781 17.3449 23.9992 16.7995L13.8538 9.81763C13.4174 10.0904 13.0356 10.5267 12.7629 10.9631Z" fill="#D9270F"/>
<path fill-rule="evenodd" clip-rule="evenodd" d="M12.7629 10.9631C10.7447 13.854 11.4537 17.8358 14.2901 19.854C17.181 21.8722 21.1629 21.1631 23.181 18.3267C23.5083 17.8358 23.7811 17.3449 23.9447 16.7995L13.7992 9.81763C13.4174 10.1449 13.0901 10.5267 12.7629 10.9631Z" fill="#DA270F"/>
<path fill-rule="evenodd" clip-rule="evenodd" d="M12.7629 10.9631C10.7447 13.854 11.4537 17.8358 14.2901 19.854C17.181 21.8722 21.1629 21.1631 23.181 18.3267C23.5083 17.8358 23.7811 17.3449 23.9447 16.7995L13.8538 9.81763C13.472 10.1449 13.0901 10.5267 12.7629 10.9631Z" fill="#DB280F"/>
<path fill-rule="evenodd" clip-rule="evenodd" d="M12.7629 10.9628C10.7447 13.8537 11.4537 17.781 14.2901 19.7992C17.181 21.8174 21.1083 21.1083 23.1265 18.2719C23.4538 17.781 23.7265 17.2901 23.8901 16.7446L13.7992 9.76282C13.4719 10.1446 13.0901 10.5265 12.7629 10.9628Z" fill="#DC280F"/>
<path fill-rule="evenodd" clip-rule="evenodd" d="M12.7629 10.9628C10.7447 13.8537 11.4537 17.781 14.2901 19.7992C17.181 21.8174 21.1083 21.1083 23.1265 18.2719C23.4538 17.781 23.7265 17.2901 23.8901 16.7446L13.7992 9.76282C13.4719 10.1446 13.0901 10.5265 12.7629 10.9628Z" fill="#DD290F"/>
<path fill-rule="evenodd" clip-rule="evenodd" d="M12.7629 10.9631C10.7447 13.854 11.4537 17.7813 14.2901 19.7995C17.181 21.8177 21.1083 21.1085 23.1265 18.2722C23.4538 17.7813 23.7265 17.2904 23.8901 16.7449L13.7992 9.81763C13.4719 10.1449 13.0901 10.5267 12.7629 10.9631Z" fill="#DE290F"/>
<path fill-rule="evenodd" clip-rule="evenodd" d="M12.7629 10.9631C10.7447 13.854 11.4537 17.7813 14.2901 19.7995C17.181 21.8177 21.1083 21.1085 23.1265 18.2722C23.4538 17.7813 23.7265 17.2904 23.8901 16.7449L13.7992 9.81763C13.4719 10.1449 13.0901 10.5267 12.7629 10.9631Z" fill="#DF290F"/>
<path fill-rule="evenodd" clip-rule="evenodd" d="M12.7629 11.0175C10.7447 13.8538 11.4537 17.8356 14.2901 19.8538C17.1265 21.872 21.1083 21.1629 23.1265 18.3266C23.4538 17.8356 23.7265 17.3447 23.8901 16.7993L13.8538 9.87201C13.472 10.1447 13.0901 10.5265 12.7629 11.0175Z" fill="#E02A10"/>
<path fill-rule="evenodd" clip-rule="evenodd" d="M12.7629 11.0175C10.7447 13.8538 11.4537 17.8356 14.2901 19.8538C17.1265 21.872 21.1083 21.1629 23.1265 18.3266C23.4538 17.8356 23.7265 17.3447 23.8901 16.7993L13.8538 9.87201C13.472 10.1447 13.0901 10.5265 12.7629 11.0175Z" fill="#E12A10"/>
<path fill-rule="evenodd" clip-rule="evenodd" d="M12.8176 11.0176C10.7994 13.854 11.5084 17.8358 14.3448 19.7995C17.1812 21.8177 21.163 21.1085 23.1267 18.2722C23.4539 17.7813 23.7266 17.2904 23.8902 16.7449L13.8539 9.81763C13.4721 10.1449 13.0903 10.5267 12.8176 11.0176Z" fill="#E22B10"/>
<path fill-rule="evenodd" clip-rule="evenodd" d="M12.8176 11.0176C10.7994 13.854 11.5084 17.8358 14.3448 19.7995C17.1812 21.8177 21.163 21.1085 23.1267 18.2722C23.4539 17.7813 23.7266 17.2904 23.8902 16.7449L13.8539 9.81763C13.4721 10.1449 13.1448 10.5267 12.8176 11.0176Z" fill="#E32B10"/>
<path fill-rule="evenodd" clip-rule="evenodd" d="M12.8176 11.0175C10.7994 13.8538 11.5084 17.7811 14.3448 19.7993C17.1812 21.8175 21.1085 21.1084 23.1267 18.272C23.4539 17.7811 23.7266 17.2902 23.8902 16.7447L13.8539 9.87201C13.4721 10.1447 13.1448 10.5265 12.8176 11.0175Z" fill="#E42B10"/>
<path fill-rule="evenodd" clip-rule="evenodd" d="M12.8176 11.0175C10.7994 13.8538 11.5084 17.7811 14.3448 19.7993C17.1812 21.8175 21.1085 21.1084 23.1267 18.272C23.4539 17.7811 23.7266 17.2902 23.8902 16.7447L13.9085 9.87201C13.5266 10.1447 13.1448 10.5811 12.8176 11.0175Z" fill="#E52C10"/>
<path fill-rule="evenodd" clip-rule="evenodd" d="M12.8176 11.0175C10.7994 13.8538 11.5084 17.7811 14.3448 19.7993C17.1812 21.8175 21.1085 21.1084 23.1267 18.272C23.4539 17.7811 23.7266 17.2902 23.8902 16.7447L13.9085 9.87201C13.5266 10.1447 13.1448 10.5811 12.8176 11.0175Z" fill="#E62C10"/>
<path fill-rule="evenodd" clip-rule="evenodd" d="M12.8176 11.0175C10.7994 13.8538 11.5084 17.7811 14.3448 19.7993C17.1812 21.8175 21.1085 21.1084 23.1267 18.272C23.4539 17.7811 23.7266 17.2902 23.8902 16.7447L13.9085 9.87201C13.5266 10.1447 13.1448 10.5811 12.8176 11.0175Z" fill="#E72D10"/>
<path fill-rule="evenodd" clip-rule="evenodd" d="M12.8176 11.0176C10.7994 13.854 11.5084 17.7813 14.3448 19.7449C17.1812 21.7631 21.1084 21.054 23.0721 18.2176C23.3993 17.7267 23.6721 17.2358 23.8357 16.6904L13.8539 9.81763C13.5267 10.1994 13.1448 10.5813 12.8176 11.0176Z" fill="#E82D10"/>
<path fill-rule="evenodd" clip-rule="evenodd" d="M12.8176 11.0176C10.7994 13.854 11.5084 17.7813 14.3448 19.7449C17.1812 21.7631 21.1084 21.054 23.0721 18.2176C23.3993 17.7267 23.6721 17.2358 23.8357 16.6904L13.9085 9.81763C13.5266 10.1994 13.1448 10.5813 12.8176 11.0176Z" fill="#E92D10"/>
<path fill-rule="evenodd" clip-rule="evenodd" d="M12.8172 11.0176C10.8536 13.854 11.5081 17.7813 14.3444 19.7449C17.1808 21.7085 21.1081 21.054 23.0717 18.2176C23.399 17.7267 23.6717 17.2358 23.8354 16.6904L13.9081 9.81763C13.5263 10.1994 13.1445 10.5813 12.8172 11.0176Z" fill="#EA2E10"/>
<path fill-rule="evenodd" clip-rule="evenodd" d="M12.8172 11.0175C10.8536 13.8538 11.5081 17.7265 14.3444 19.7447C17.1808 21.7084 21.0535 21.0538 23.0717 18.2175C23.399 17.7266 23.6717 17.2356 23.8354 16.6902L13.9081 9.87201C13.5263 10.1993 13.1445 10.5811 12.8172 11.0175Z" fill="#EB2E10"/>
<path fill-rule="evenodd" clip-rule="evenodd" d="M12.8719 11.0175C10.9082 13.8538 11.5628 17.7265 14.3992 19.7447C17.2355 21.7084 21.1083 21.0538 23.1264 18.2175C23.4537 17.7266 23.7264 17.2356 23.89 16.6902L13.9628 9.87201C13.5264 10.1993 13.1446 10.5811 12.8719 11.0175Z" fill="#EC2E10"/>
<path fill-rule="evenodd" clip-rule="evenodd" d="M12.8719 11.0175C10.9082 13.8538 11.5628 17.7265 14.3992 19.7447C17.2355 21.7084 21.1083 21.0538 23.1264 18.2175C23.4537 17.7266 23.7264 17.2356 23.89 16.6902L13.9628 9.87201C13.5264 10.1993 13.1991 10.5811 12.8719 11.0175Z" fill="#ED2F11"/>
<path fill-rule="evenodd" clip-rule="evenodd" d="M12.8719 11.072C10.9082 13.9084 11.5628 17.7811 14.3992 19.7447C17.2355 21.7084 21.1082 21.0538 23.0718 18.2175C23.3991 17.7266 23.6719 17.2356 23.8355 16.6902L13.9628 9.87201C13.581 10.1993 13.1991 10.5811 12.8719 11.072Z" fill="#EE2F11"/>
<path fill-rule="evenodd" clip-rule="evenodd" d="M12.8719 11.072C10.9082 13.9084 11.5628 17.7811 14.3992 19.7447C17.2355 21.7084 21.1082 21.0538 23.0718 18.2175C23.3991 17.7266 23.6719 17.2356 23.8355 16.6902L13.9628 9.87201C13.581 10.1993 13.1991 10.5811 12.8719 11.072Z" fill="#EF3011"/>
<path fill-rule="evenodd" clip-rule="evenodd" d="M12.8719 11.072C10.9082 13.9084 11.5628 17.7811 14.3992 19.7447C17.2355 21.7084 21.1082 21.0538 23.0718 18.2175C23.3991 17.7266 23.6719 17.1811 23.8355 16.6902L13.9628 9.87201C13.581 10.1993 13.1991 10.5811 12.8719 11.072Z" fill="#F03011"/>
<path fill-rule="evenodd" clip-rule="evenodd" d="M12.8719 11.072C10.9082 13.9084 11.5628 17.7811 14.3992 19.7447C17.2355 21.7084 21.1082 21.0538 23.0718 18.2175C23.3991 17.7266 23.6719 17.1811 23.8355 16.6902L13.9628 9.87201C13.581 10.1993 13.1991 10.5811 12.8719 11.072Z" fill="#F13011"/>
<path fill-rule="evenodd" clip-rule="evenodd" d="M12.8719 11.0724C10.9082 13.8542 11.5628 17.7269 14.3992 19.7451C17.181 21.7087 21.0537 21.0542 23.0718 18.2178C23.3991 17.7269 23.6719 17.1814 23.8355 16.6905L13.9628 9.92688C13.581 10.1996 13.1991 10.636 12.8719 11.0724Z" fill="#F23111"/>
<path fill-rule="evenodd" clip-rule="evenodd" d="M12.8719 11.072C10.9082 13.8538 11.5628 17.7266 14.3992 19.6902C17.181 21.6538 21.0537 20.9993 23.0173 18.1629C23.3446 17.672 23.6173 17.1265 23.781 16.6356L13.9628 9.87201C13.581 10.1993 13.1991 10.6357 12.8719 11.072Z" fill="#F33111"/>
<path fill-rule="evenodd" clip-rule="evenodd" d="M12.8719 11.072C10.9082 13.8538 11.5628 17.7266 14.3992 19.6902C17.181 21.6538 21.0537 20.9993 23.0173 18.1629C23.3446 17.672 23.6173 17.1265 23.781 16.6356L13.9628 9.87201C13.581 10.1993 13.1991 10.6357 12.8719 11.072Z" fill="#F43211"/>
<path fill-rule="evenodd" clip-rule="evenodd" d="M12.9266 11.072C10.9629 13.8538 11.6175 17.7266 14.4539 19.6902C17.2357 21.6538 21.1084 20.9993 23.072 18.1629C23.3993 17.672 23.672 17.1265 23.8356 16.6356L14.0175 9.87201C13.5811 10.2538 13.1993 10.6357 12.9266 11.072Z" fill="#F53211"/>
<path fill-rule="evenodd" clip-rule="evenodd" d="M12.9266 11.072C10.9629 13.8538 11.6175 17.7266 14.4539 19.6902C17.2357 21.6538 21.1084 20.9993 23.072 18.1629C23.3993 17.672 23.672 17.1265 23.8356 16.6356L14.0175 9.87201C13.5811 10.2538 13.1993 10.6357 12.9266 11.072Z" fill="#F63211"/>
<path fill-rule="evenodd" clip-rule="evenodd" d="M12.9266 11.072C10.9629 13.8538 11.6175 17.7266 14.4539 19.6902C17.2357 21.6538 21.1084 20.9993 23.072 18.1629C23.3993 17.672 23.672 17.1265 23.8356 16.6356L14.072 9.87201C13.5811 10.2538 13.2538 10.6357 12.9266 11.072Z" fill="#F73311"/>
<path fill-rule="evenodd" clip-rule="evenodd" d="M12.9266 11.072C10.9629 13.8538 11.6175 17.7266 14.4539 19.6902C17.2357 21.6538 21.1084 20.9993 23.072 18.1629C23.3993 17.672 23.672 17.1265 23.8356 16.6356L14.072 9.87201C13.6356 10.2538 13.2538 10.6357 12.9266 11.072Z" fill="#F83311"/>
<path fill-rule="evenodd" clip-rule="evenodd" d="M12.9268 11.0724C10.9632 13.8542 11.6178 17.7269 14.3996 19.636C17.1814 21.5996 21.0541 20.9451 22.9632 18.1633C23.2905 17.6724 23.5632 17.1269 23.7268 16.636L13.9632 9.92688C13.6359 10.2542 13.2541 10.636 12.9268 11.0724Z" fill="#F93412"/>
<path fill-rule="evenodd" clip-rule="evenodd" d="M12.9268 11.0724C10.9632 13.8542 11.6178 17.6723 14.3996 19.636C17.1814 21.5996 20.9996 20.9451 22.9632 18.1633C23.2905 17.6724 23.5632 17.1269 23.7268 16.636L13.9632 9.92688C13.6359 10.2542 13.2541 10.636 12.9268 11.0724Z" fill="#FA3412"/>
<path fill-rule="evenodd" clip-rule="evenodd" d="M12.9268 11.1266C10.9632 13.9085 11.6178 17.7267 14.3996 19.6903C17.1814 21.6539 20.9996 20.9994 22.9632 18.2176C23.2905 17.7266 23.5632 17.1812 23.7268 16.6903L13.9632 9.9812C13.6359 10.2539 13.2541 10.6357 12.9268 11.1266Z" fill="#FB3412"/>
<path fill-rule="evenodd" clip-rule="evenodd" d="M12.9264 11.1266C10.9628 13.9085 11.6719 17.7267 14.3992 19.6903C17.181 21.6539 20.9992 20.9448 22.9628 18.2176C23.2901 17.7266 23.5628 17.1812 23.7264 16.6903L14.0173 9.9812C13.6355 10.2539 13.2537 10.6357 12.9264 11.1266Z" fill="#FC3512"/>
<path fill-rule="evenodd" clip-rule="evenodd" d="M12.9264 11.1266C10.9628 13.9085 11.6719 17.7267 14.3992 19.6903C17.181 21.6539 20.9992 20.9448 22.9628 18.2176C23.2901 17.7266 23.5628 17.1812 23.7264 16.6903L14.0173 9.9812C13.6355 10.2539 13.2537 10.6357 12.9264 11.1266Z" fill="#FD3512"/>
<path fill-rule="evenodd" clip-rule="evenodd" d="M12.9264 11.1266C10.9628 13.9085 11.6719 17.7267 14.3992 19.6903C17.181 21.6539 20.9992 20.9448 22.9628 18.2176C23.2901 17.7266 23.5628 17.1812 23.7264 16.6903L14.0173 9.9812C13.6355 10.2539 13.2537 10.6357 12.9264 11.1266Z" fill="#FE3612"/>
<path fill-rule="evenodd" clip-rule="evenodd" d="M12.9811 11.1269C11.0175 13.9087 11.7266 17.7269 14.4539 19.636C17.2357 21.5996 21.0539 20.8905 22.963 18.1633C23.2902 17.6724 23.563 17.1269 23.7266 16.636L14.0175 9.92688C13.6357 10.2542 13.2538 10.636 12.9811 11.1269Z" fill="#FF3612"/>
<path fill-rule="evenodd" clip-rule="evenodd" d="M13.9633 16.6904C14.3997 16.0359 15.2724 15.9268 15.927 16.3631C16.5815 16.7995 16.6906 17.6722 16.2542 18.3268C15.8179 18.9813 14.9451 19.0904 14.2906 18.654C13.6906 18.1631 13.527 17.345 13.9633 16.6904Z" fill="#BF3021"/>
<path fill-rule="evenodd" clip-rule="evenodd" d="M13.4174 10.6908C12.9811 11.3453 13.1447 12.1635 13.7447 12.6544C14.3992 13.0907 15.2174 12.9271 15.7083 12.3271C15.9265 11.9998 15.9811 11.618 15.9265 11.2907L14.2902 10.1998C14.0174 10.1998 13.6902 10.3635 13.4174 10.6908Z" fill="#BF3021"/>
<path fill-rule="evenodd" clip-rule="evenodd" d="M19.7446 16.8545C20.181 16.1999 21.0537 16.0908 21.7082 16.5272C22.3628 16.9636 22.4719 17.8363 22.0355 18.4908C21.5992 19.1454 20.7264 19.2545 20.0718 18.8181C19.4718 18.3272 19.3082 17.4545 19.7446 16.8545Z" fill="#BF3021"/>
<path d="M9.98224 31.1992C9.98224 31.1992 6.00044 31.8537 6.32772 34.1992C6.32772 34.1992 7.36407 40.4174 13.2004 38.8355C13.2004 38.8355 16.0368 37.0901 15.055 32.8901C15.1095 32.9447 14.8368 29.8901 9.98224 31.1992ZM8.29134 34.4719C8.29134 34.4719 8.45502 33.3265 10.3096 32.8901L9.60045 37.1447C9.60045 37.1447 7.90952 36.2174 8.29134 34.4719ZM10.855 37.6355L11.2913 35.9446L12.1641 35.6174L13.9096 35.8355C13.9641 35.8901 13.0914 39.5446 10.855 37.6355ZM14.1823 34.7992L11.455 34.9083L11.4005 33.0537C14.0187 31.4174 14.1823 34.7992 14.1823 34.7992Z" fill="#4D4728"/>
<path d="M10.0904 31.5272C10.0904 31.5272 6.54497 32.1272 6.8177 34.1999C6.8177 34.1999 7.6904 39.6545 12.9268 38.2908C12.9268 38.2908 15.4904 36.7635 14.6177 32.9999C14.6177 33.0545 14.345 30.3272 10.0904 31.5272ZM8.5086 34.4181C8.5086 34.4181 8.67226 33.4363 10.3086 32.9999L9.65404 36.7636C9.70858 36.7636 8.18132 35.9999 8.5086 34.4181ZM10.7995 37.1999L11.2359 35.6726L12.0541 35.3999L13.5814 35.6181C13.5268 35.6181 12.7631 38.8908 10.7995 37.1999ZM13.7449 34.6908L11.3449 34.7999L11.2904 33.1636C13.6359 31.6908 13.7449 34.6908 13.7449 34.6908Z" fill="#727D49"/>
<g opacity="0.54">
<path opacity="0.54" d="M10.4727 32.9453C10.4727 32.9453 10.9091 32.3998 11.5636 32.9998L11.5091 34.7453L13.9091 34.6362C13.9091 34.6362 14.0727 35.2908 13.6909 35.618L12.1636 35.3999L11.3454 35.6726L10.9091 37.1998C10.9091 37.1998 9.98185 37.5817 9.76367 36.7635L10.4727 32.9453Z" fill="#C4CD93"/>
</g>
<path d="M10.3093 33.6542C10.4184 33.8179 10.3638 33.9815 10.2547 34.0906C10.1456 34.1997 9.92749 34.1452 9.87294 33.9815C9.76385 33.8179 9.81839 33.6542 9.92748 33.5451C10.0366 33.4906 10.2548 33.5451 10.3093 33.6542Z" fill="#C4CD93"/>
<path d="M10.2546 35.9996C10.3637 36.1087 10.3091 36.3269 10.2 36.3815C10.091 36.4906 9.8728 36.436 9.81826 36.3269C9.70917 36.2178 9.7637 35.9997 9.87279 35.9451C9.98188 35.836 10.1455 35.836 10.2546 35.9996Z" fill="#C4CD93"/>
<path d="M11.564 35.8906C11.6731 36.0542 11.6186 36.2178 11.5095 36.3269C11.3459 36.436 11.1822 36.3815 11.0731 36.2178C10.964 36.0542 11.0186 35.8906 11.1277 35.7815C11.2368 35.6724 11.4549 35.7269 11.564 35.8906Z" fill="#C4CD93"/>
<path d="M12.4908 35.3452C12.6544 35.5634 12.5998 35.8361 12.3817 35.9997C12.1635 36.1633 11.8908 36.1088 11.7817 35.8906C11.618 35.6724 11.6726 35.3997 11.8907 35.2361C12.0544 35.0724 12.3272 35.127 12.4908 35.3452Z" fill="#C4CD93"/>
<path d="M12.0005 33.1633C12.1641 33.3815 12.055 33.6542 11.8368 33.8178C11.6187 33.9815 11.346 33.9269 11.1823 33.7633C11.0187 33.5451 11.1277 33.2724 11.3459 33.1088C11.5641 32.9451 11.8369 32.9451 12.0005 33.1633Z" fill="#C4CD93"/>
<path fill-rule="evenodd" clip-rule="evenodd" d="M5.56448 43.3092C8.8372 43.5819 12.1645 42.1637 14.1827 39.3274C17.1827 35.0183 16.1463 29.0728 11.8917 26.0728C9.27355 24.2728 6.10994 23.891 3.32812 24.8728L5.56448 43.3092Z" fill="#8E0909"/>
<path fill-rule="evenodd" clip-rule="evenodd" d="M5.56448 43.2549C8.8372 43.5276 12.1645 42.1094 14.1827 39.273C17.1827 34.964 16.1463 29.073 11.8917 26.0185C9.27355 24.2185 6.10994 23.8367 3.32812 24.8185L5.56448 43.2549Z" fill="#8F0909"/>
<path fill-rule="evenodd" clip-rule="evenodd" d="M5.56448 43.2549C8.8372 43.5276 12.1645 42.1094 14.1827 39.273C17.1827 34.964 16.1463 29.073 11.8917 26.0185C9.27355 24.2185 6.10994 23.8367 3.32812 24.8185L5.56448 43.2549Z" fill="#900A09"/>
<path fill-rule="evenodd" clip-rule="evenodd" d="M5.56432 43.2546C8.83705 43.5274 12.1644 42.1092 14.128 39.2728C17.128 34.9637 16.0916 29.0728 11.837 26.0728C9.21887 24.2728 6.05526 23.891 3.27344 24.8728L5.56432 43.2546Z" fill="#910A09"/>
<path fill-rule="evenodd" clip-rule="evenodd" d="M5.56432 43.255C8.83705 43.5278 12.1098 42.1096 14.128 39.2732C17.128 34.9641 16.0916 29.0732 11.837 26.0732C9.27341 24.2732 6.05526 23.9459 3.27344 24.8732L5.56432 43.255Z" fill="#920B09"/>
<path fill-rule="evenodd" clip-rule="evenodd" d="M5.56432 43.255C8.83705 43.5278 12.1098 42.1641 14.128 39.2732C17.128 35.0186 16.0916 29.0732 11.837 26.0732C9.27341 24.2732 6.05526 23.9459 3.27344 24.8732L5.56432 43.255Z" fill="#930B09"/>
<path fill-rule="evenodd" clip-rule="evenodd" d="M5.56432 43.255C8.83705 43.5278 12.1098 42.1641 14.128 39.2732C17.128 35.0186 16.0916 29.0732 11.837 26.0732C9.27341 24.2732 6.05526 23.9459 3.27344 24.8732L5.56432 43.255Z" fill="#940B09"/>
<path fill-rule="evenodd" clip-rule="evenodd" d="M5.56448 43.2005C8.8372 43.4732 12.11 42.1096 14.1282 39.2187C17.1282 34.9641 16.0918 29.0732 11.8372 26.0732C9.27357 24.2732 6.0554 23.9459 3.32812 24.8732L5.56448 43.2005Z" fill="#950C0A"/>
<path fill-rule="evenodd" clip-rule="evenodd" d="M5.56448 43.2005C8.78266 43.4732 12.11 42.1096 14.1282 39.2187C17.1282 34.9641 16.0918 29.0732 11.8372 26.0732C9.27357 24.2732 6.0554 23.9459 3.32812 24.8732L5.56448 43.2005Z" fill="#960C0A"/>
<path fill-rule="evenodd" clip-rule="evenodd" d="M5.56448 43.2005C8.78266 43.4732 12.11 42.1096 14.1282 39.2187C17.1282 34.9641 16.0918 29.0732 11.8372 26.0732C9.27357 24.2732 6.10994 23.9459 3.32812 24.8732L5.56448 43.2005Z" fill="#970D0A"/>
<path fill-rule="evenodd" clip-rule="evenodd" d="M5.56448 43.2005C8.78266 43.4732 12.11 42.1096 14.1282 39.2187C17.1282 34.9641 16.0918 29.0732 11.8372 26.0732C9.27357 24.2732 6.10994 23.9459 3.32812 24.8732L5.56448 43.2005Z" fill="#980D0A"/>
<path fill-rule="evenodd" clip-rule="evenodd" d="M5.56448 43.2003C8.78266 43.473 12.11 42.1094 14.1282 39.2184C17.1282 34.9639 16.0918 29.073 11.8372 26.1275C9.27357 24.3275 6.10994 24.0003 3.32812 24.9275L5.56448 43.2003Z" fill="#990D0A"/>
<path fill-rule="evenodd" clip-rule="evenodd" d="M5.56432 43.1457C8.7825 43.4185 12.1098 42.0548 14.0734 39.2184C17.0734 34.9639 16.0371 29.1275 11.7825 26.1275C9.21888 24.3275 6.05526 24.0003 3.27344 24.9275L5.56432 43.1457Z" fill="#9A0E0A"/>
<path fill-rule="evenodd" clip-rule="evenodd" d="M5.56432 43.1457C8.7825 43.4185 12.1098 42.0548 14.0734 39.2184C17.0734 34.9639 16.0371 29.1275 11.7825 26.1275C9.21888 24.3275 6.05526 24.0003 3.27344 24.9275L5.56432 43.1457Z" fill="#9B0E0A"/>
<path fill-rule="evenodd" clip-rule="evenodd" d="M5.56432 43.1457C8.7825 43.4185 12.1098 42.0548 14.0734 39.2184C17.0734 34.9639 16.0371 29.1275 11.7825 26.1275C9.21888 24.3275 6.05526 24.0003 3.27344 24.9275L5.56432 43.1457Z" fill="#9C0F0A"/>
<path fill-rule="evenodd" clip-rule="evenodd" d="M5.56448 43.1458C8.78266 43.4185 12.0554 42.0549 14.0736 39.2185C17.0736 34.964 16.0372 29.1276 11.7827 26.1821C9.21904 24.3821 6.0554 24.0549 3.32812 25.0367L5.56448 43.1458Z" fill="#9D0F0A"/>
<path fill-rule="evenodd" clip-rule="evenodd" d="M5.56448 43.1458C8.78266 43.4185 12.0554 42.0549 14.0736 39.2185C17.0736 34.964 16.0372 29.1276 11.7827 26.1821C9.21904 24.3821 6.0554 24.0549 3.32812 25.0367L5.56448 43.1458Z" fill="#9E0F0A"/>
<path fill-rule="evenodd" clip-rule="evenodd" d="M5.56448 43.1458C8.78266 43.4185 12.0554 42.0549 14.0736 39.2185C17.019 34.964 16.0372 29.1821 11.7827 26.1821C9.21904 24.3821 6.0554 24.0549 3.32812 25.0367L5.56448 43.1458Z" fill="#9F100A"/>
<path fill-rule="evenodd" clip-rule="evenodd" d="M5.56448 43.0914C8.78266 43.3641 12.0554 42.0005 14.0736 39.1641C17.019 34.9641 16.0372 29.1277 11.7827 26.1277C9.21904 24.3277 6.0554 24.0005 3.32812 24.9823L5.56448 43.0914Z" fill="#A0100A"/>
<path fill-rule="evenodd" clip-rule="evenodd" d="M5.56448 43.0912C8.78266 43.3639 12.0554 42.0003 14.0736 39.164C17.019 34.964 16.0372 29.1276 11.7827 26.1821C9.21904 24.3821 6.0554 24.0549 3.32812 25.0367L5.56448 43.0912Z" fill="#A1110B"/>
<path fill-rule="evenodd" clip-rule="evenodd" d="M5.56432 43.0912C8.7825 43.3639 12.0552 42.0003 14.0189 39.164C16.9643 34.964 15.9825 29.1276 11.728 26.1821C9.16435 24.3821 6.00071 24.0549 3.27344 25.0367L5.56432 43.0912Z" fill="#A2110B"/>
<path fill-rule="evenodd" clip-rule="evenodd" d="M5.56432 43.0912C8.7825 43.3639 12.0552 42.0003 14.0189 39.164C16.9643 34.964 15.9825 29.1276 11.728 26.1821C9.16435 24.3821 6.00071 24.0549 3.27344 25.0367L5.56432 43.0912Z" fill="#A3110B"/>
<path fill-rule="evenodd" clip-rule="evenodd" d="M5.56432 43.0912C8.7825 43.3639 12.0552 42.0003 14.0189 39.164C16.9643 34.964 15.9825 29.1276 11.728 26.1821C9.16435 24.3821 6.05526 24.0549 3.27344 25.0367L5.56432 43.0912Z" fill="#A4120B"/>
<path fill-rule="evenodd" clip-rule="evenodd" d="M5.56463 43.091C8.78281 43.3637 12.0555 42.0001 14.0192 39.1637C16.9646 34.9637 15.9828 29.1819 11.7828 26.2365C9.21919 24.4365 6.11009 24.1092 3.38281 25.091L5.56463 43.091Z" fill="#A5120B"/>
<path fill-rule="evenodd" clip-rule="evenodd" d="M5.56463 43.0367C8.78281 43.3094 12.0555 41.9458 14.0192 39.1094C16.9646 34.9094 15.9828 29.1276 11.7828 26.1821C9.21919 24.3821 6.11009 24.0549 3.38281 25.0367L5.56463 43.0367Z" fill="#A6120B"/>
<path fill-rule="evenodd" clip-rule="evenodd" d="M5.56463 43.0365C8.78281 43.3092 12.0555 41.9456 14.0192 39.1637C16.9646 34.9637 15.9283 29.1819 11.7828 26.2365C9.21919 24.4365 6.11009 24.1092 3.38281 25.091L5.56463 43.0365Z" fill="#A7130B"/>
<path fill-rule="evenodd" clip-rule="evenodd" d="M5.56463 43.0365C8.78281 43.3092 12.001 41.9456 14.0192 39.1637C16.9646 34.9637 15.9283 29.1819 11.7828 26.2365C9.21919 24.4365 6.11009 24.1092 3.38281 25.091L5.56463 43.0365Z" fill="#A8130B"/>
<path fill-rule="evenodd" clip-rule="evenodd" d="M5.56463 43.0365C8.78281 43.3092 12.001 41.9456 14.0192 39.1637C16.9646 34.9637 15.9283 29.1819 11.7828 26.2365C9.21919 24.4365 6.11009 24.1092 3.38281 25.091L5.56463 43.0365Z" fill="#A9140B"/>
<path fill-rule="evenodd" clip-rule="evenodd" d="M5.56448 43.0368C8.78266 43.3095 12.0009 41.9459 13.9645 39.1641C16.9099 34.9641 15.8736 29.2368 11.7281 26.2913C9.1645 24.4913 6.0554 24.164 3.32812 25.1459L5.56448 43.0368Z" fill="#AA140B"/>
<path fill-rule="evenodd" clip-rule="evenodd" d="M5.56448 42.9819C8.72811 43.2547 12.0009 41.891 13.9645 39.1092C16.9099 34.9092 15.8736 29.1819 11.7281 26.2365C9.1645 24.4365 6.0554 24.1092 3.32812 25.091L5.56448 42.9819Z" fill="#AB140B"/>
<path fill-rule="evenodd" clip-rule="evenodd" d="M5.56448 42.9819C8.72811 43.2547 12.0009 41.891 13.9645 39.1092C16.9099 34.9637 15.8736 29.1819 11.7281 26.2365C9.1645 24.4365 6.0554 24.1092 3.32812 25.091L5.56448 42.9819Z" fill="#AC150B"/>
<path fill-rule="evenodd" clip-rule="evenodd" d="M5.56448 42.9819C8.72811 43.2547 12.0009 41.891 13.9645 39.1092C16.9099 34.9637 15.8736 29.1819 11.7281 26.2365C9.1645 24.4365 6.0554 24.1092 3.32812 25.091L5.56448 42.9819Z" fill="#AD150B"/>
<path fill-rule="evenodd" clip-rule="evenodd" d="M5.56463 42.9821C8.72827 43.2548 12.001 41.8912 13.9646 39.1094C16.9101 34.9639 15.8738 29.1821 11.7283 26.2912C9.2192 24.4912 6.05554 24.2185 3.38281 25.1457L5.56463 42.9821Z" fill="#AE160C"/>
<path fill-rule="evenodd" clip-rule="evenodd" d="M5.56463 42.9821C8.72827 43.2548 12.001 41.8912 13.9646 39.1094C16.9101 34.9639 15.8738 29.2366 11.7283 26.2912C9.2192 24.4912 6.05554 24.2185 3.38281 25.1457L5.56463 42.9821Z" fill="#AF160C"/>
<path fill-rule="evenodd" clip-rule="evenodd" d="M5.56463 42.9821C8.72827 43.2548 12.001 41.9457 13.9646 39.1094C16.9101 34.9639 15.8738 29.2366 11.7283 26.2912C9.2192 24.4912 6.11009 24.2185 3.38281 25.1457L5.56463 42.9821Z" fill="#B0160C"/>
<path fill-rule="evenodd" clip-rule="evenodd" d="M5.56463 42.9278C8.72827 43.2005 12.001 41.8914 13.9646 39.0551C16.8556 34.9096 15.8738 29.1823 11.7283 26.2369C9.2192 24.4369 6.11009 24.1641 3.38281 25.0914L5.56463 42.9278Z" fill="#B1170C"/>
<path fill-rule="evenodd" clip-rule="evenodd" d="M5.56463 42.9275C8.72827 43.2003 12.001 41.8912 13.9646 39.0548C16.8556 34.9094 15.8738 29.1821 11.7283 26.2912C9.2192 24.4912 6.11009 24.2185 3.38281 25.1457L5.56463 42.9275Z" fill="#B2170C"/>
<path fill-rule="evenodd" clip-rule="evenodd" d="M5.56448 42.9275C8.72811 43.2003 11.9463 41.8912 13.91 39.0548C16.8009 34.9094 15.8191 29.1821 11.6736 26.2912C9.16452 24.4912 6.0554 24.2185 3.32812 25.1457L5.56448 42.9275Z" fill="#B3180C"/>
<path fill-rule="evenodd" clip-rule="evenodd" d="M5.56448 42.9274C8.72811 43.2001 11.9463 41.8911 13.91 39.1092C16.8009 34.9638 15.8191 29.2365 11.6736 26.3456C9.16452 24.6002 6.0554 24.2729 3.32812 25.2001L5.56448 42.9274Z" fill="#B4180C"/>
<path fill-rule="evenodd" clip-rule="evenodd" d="M5.56448 42.9274C8.72811 43.2001 11.9463 41.8911 13.91 39.1092C16.8009 34.9638 15.8191 29.2911 11.6736 26.3456C9.16452 24.6002 6.0554 24.2729 3.32812 25.2001L5.56448 42.9274Z" fill="#B5180C"/>
<path fill-rule="evenodd" clip-rule="evenodd" d="M5.56463 42.9277C8.72827 43.2549 11.9465 41.8913 13.9101 39.1095C16.801 34.964 15.8192 29.2913 11.6738 26.4004C9.16467 24.6549 6.05554 24.3277 3.38281 25.255L5.56463 42.9277Z" fill="#B6190C"/>
<path fill-rule="evenodd" clip-rule="evenodd" d="M5.50994 42.8729C8.67358 43.2002 11.8918 41.8365 13.8554 39.0547C16.7463 34.9093 15.7645 29.2365 11.619 26.3456C9.10992 24.6002 6.00085 24.2729 3.32812 25.2001L5.50994 42.8729Z" fill="#B7190C"/>
<path fill-rule="evenodd" clip-rule="evenodd" d="M5.50994 42.8729C8.67358 43.2002 11.8918 41.8365 13.8554 39.0547C16.7463 34.9093 15.7645 29.2365 11.619 26.3456C9.10992 24.6002 6.00085 24.2729 3.32812 25.2001L5.50994 42.8729Z" fill="#B81A0C"/>
<path fill-rule="evenodd" clip-rule="evenodd" d="M5.50994 42.8729C8.67358 43.2002 11.8918 41.8365 13.8554 39.0547C16.7463 34.9638 15.7645 29.2365 11.619 26.3456C9.10992 24.6002 6.00085 24.2729 3.32812 25.2001L5.50994 42.8729Z" fill="#B91A0C"/>
<path fill-rule="evenodd" clip-rule="evenodd" d="M5.50994 42.8731C8.67358 43.2004 11.8918 41.8368 13.8554 39.055C16.7463 34.964 15.7645 29.2913 11.619 26.4004C9.10992 24.6549 6.00085 24.3277 3.32812 25.255L5.50994 42.8731Z" fill="#BA1A0C"/>
<path fill-rule="evenodd" clip-rule="evenodd" d="M5.50979 42.8731C8.67343 43.2003 11.8916 41.8367 13.8007 39.0549C16.6916 34.964 15.7098 29.2912 11.5643 26.4003C9.05523 24.6549 5.94617 24.3276 3.27344 25.3094L5.50979 42.8731Z" fill="#BB1B0D"/>
<path fill-rule="evenodd" clip-rule="evenodd" d="M5.50994 42.8731C8.67358 43.2003 11.8917 41.8367 13.8008 39.0549C16.6917 34.964 15.7099 29.2912 11.619 26.4003C9.10992 24.6549 6.00085 24.3276 3.32812 25.3094L5.50994 42.8731Z" fill="#BC1B0D"/>
<path fill-rule="evenodd" clip-rule="evenodd" d="M5.50994 42.8187C8.67358 43.146 11.8917 41.7823 13.8008 39.0005C16.6917 34.9096 15.7099 29.2369 11.619 26.346C9.10992 24.6005 6.0554 24.2733 3.32812 25.2551L5.50994 42.8187Z" fill="#BD1C0D"/>
<path fill-rule="evenodd" clip-rule="evenodd" d="M5.5101 42.8185C8.67374 43.1458 11.8373 41.7821 13.801 39.0003C16.6919 34.9094 15.7101 29.2367 11.6192 26.4003C9.11007 24.6549 6.05554 24.3276 3.38281 25.3094L5.5101 42.8185Z" fill="#BE1C0D"/>
<path fill-rule="evenodd" clip-rule="evenodd" d="M5.5101 42.8185C8.67374 43.1458 11.8373 41.7821 13.801 39.0003C16.6919 34.9094 15.7101 29.2367 11.6192 26.4003C9.11007 24.6549 6.05554 24.3276 3.38281 25.3094L5.5101 42.8185Z" fill="#BF1C0D"/>
<path fill-rule="evenodd" clip-rule="evenodd" d="M5.5101 42.8185C8.61919 43.1458 11.8373 41.7821 13.801 39.0003C16.6919 34.9094 15.7101 29.2912 11.6192 26.4003C9.11007 24.6549 6.05554 24.3276 3.38281 25.3094L5.5101 42.8185Z" fill="#C01D0D"/>
<path fill-rule="evenodd" clip-rule="evenodd" d="M5.5101 42.8185C8.61919 43.1458 11.8373 41.7821 13.801 39.0003C16.6919 34.9094 15.7101 29.2912 11.6192 26.4003C9.11007 24.6549 6.05554 24.3276 3.38281 25.3094L5.5101 42.8185Z" fill="#C11D0D"/>
<path fill-rule="evenodd" clip-rule="evenodd" d="M5.5101 42.7638C8.61919 43.0911 11.8373 41.7274 13.801 39.0002C16.6919 34.9092 15.7101 29.2911 11.6192 26.4547C9.11007 24.7092 6.05554 24.382 3.38281 25.3638L5.5101 42.7638Z" fill="#C21E0D"/>
<path fill-rule="evenodd" clip-rule="evenodd" d="M5.50994 42.7638C8.61904 43.0911 11.8372 41.7274 13.7463 39.0002C16.5827 34.9092 15.6008 29.2911 11.5645 26.4547C9.05539 24.7092 6.00085 24.382 3.32812 25.3638L5.50994 42.7638Z" fill="#C31E0D"/>
<path fill-rule="evenodd" clip-rule="evenodd" d="M5.50994 42.7638C8.61904 43.0911 11.8372 41.7274 13.7463 39.0002C16.5827 34.9092 15.6008 29.2911 11.5645 26.4547C9.05539 24.7092 6.00085 24.382 3.32812 25.3638L5.50994 42.7638Z" fill="#C41E0D"/>
<path fill-rule="evenodd" clip-rule="evenodd" d="M5.50994 42.7638C8.61904 43.0911 11.8372 41.7274 13.7463 39.0002C16.5827 34.9092 15.6008 29.3456 11.5645 26.4547C9.05539 24.7092 6.00085 24.382 3.32812 25.3638L5.50994 42.7638Z" fill="#C51F0D"/>
<path fill-rule="evenodd" clip-rule="evenodd" d="M5.5101 42.7638C8.61919 43.0911 11.8374 41.7274 13.7465 39.0002C16.5828 34.9638 15.601 29.3456 11.5646 26.4547C9.05554 24.7092 6.001 24.382 3.38281 25.3638L5.5101 42.7638Z" fill="#C61F0D"/>
<path fill-rule="evenodd" clip-rule="evenodd" d="M5.5101 42.7641C8.61919 43.0913 11.8374 41.7277 13.7465 39.0004C16.5828 34.964 15.601 29.3459 11.5646 26.5095C9.05554 24.7641 6.001 24.4368 3.38281 25.4186L5.5101 42.7641Z" fill="#C61F0D"/>
<path fill-rule="evenodd" clip-rule="evenodd" d="M5.5101 42.7093C8.61919 43.0366 11.8374 41.6729 13.7465 38.9456C16.5828 34.9093 15.601 29.2911 11.5646 26.4547C9.05554 24.7092 6.001 24.382 3.38281 25.3638L5.5101 42.7093Z" fill="#C7200E"/>
<path fill-rule="evenodd" clip-rule="evenodd" d="M5.5101 42.7093C8.61919 43.0366 11.7828 41.6729 13.7465 38.9456C16.5828 34.9093 15.601 29.2911 11.5646 26.4547C9.11009 24.7092 6.001 24.382 3.38281 25.3638L5.5101 42.7093Z" fill="#C8200E"/>
<path fill-rule="evenodd" clip-rule="evenodd" d="M5.5101 42.7092C8.61919 43.0364 11.7828 41.6728 13.7465 38.9455C16.5828 34.9092 15.601 29.3455 11.5646 26.4546C9.11009 24.7091 6.05554 24.4364 3.38281 25.3637L5.5101 42.7092Z" fill="#C9210E"/>
<path fill-rule="evenodd" clip-rule="evenodd" d="M5.50994 42.7095C8.61904 43.0368 11.7827 41.6731 13.6918 38.9458C16.5281 34.9095 15.5463 29.3458 11.5099 26.5095C9.0554 24.764 6.00085 24.4913 3.32812 25.4186L5.50994 42.7095Z" fill="#CA210E"/>
<path fill-rule="evenodd" clip-rule="evenodd" d="M5.50994 42.7095C8.61904 43.0368 11.7827 41.6731 13.6918 38.9458C16.5281 34.9095 15.5463 29.3458 11.5099 26.5095C9.0554 24.764 6.00085 24.4913 3.32812 25.4186L5.50994 42.7095Z" fill="#CB210E"/>
<path fill-rule="evenodd" clip-rule="evenodd" d="M5.50994 42.7095C8.61904 43.0368 11.7827 41.6731 13.6918 38.9458C16.5281 34.9095 15.5463 29.3458 11.5099 26.5095C9.0554 24.764 6.00085 24.4913 3.32812 25.4186L5.50994 42.7095Z" fill="#CC220E"/>
<path fill-rule="evenodd" clip-rule="evenodd" d="M5.50994 42.6546C8.61904 42.9819 11.7827 41.6728 13.6918 38.891C16.5281 34.8546 15.5463 29.291 11.5099 26.4546C9.0554 24.7091 6.00085 24.4364 3.32812 25.3637L5.50994 42.6546Z" fill="#CD220E"/>
<path fill-rule="evenodd" clip-rule="evenodd" d="M5.5101 42.6547C8.61919 42.982 11.7828 41.6729 13.6919 38.9456C16.5283 34.9092 15.5465 29.3456 11.5101 26.5638C9.05555 24.8183 6.001 24.5456 3.38281 25.4729L5.5101 42.6547Z" fill="#CE230E"/>
<path fill-rule="evenodd" clip-rule="evenodd" d="M5.5101 42.6547C8.61919 42.982 11.7828 41.6729 13.6919 38.9456C16.5283 34.9092 15.5465 29.4002 11.5101 26.5638C9.05555 24.8183 6.001 24.5456 3.38281 25.4729L5.5101 42.6547Z" fill="#CF230E"/>
<path fill-rule="evenodd" clip-rule="evenodd" d="M5.5101 42.6547C8.61919 42.982 11.7828 41.6729 13.6919 38.9456C16.5283 34.9092 15.5465 29.4002 11.5101 26.5638C9.05555 24.8183 6.001 24.5456 3.38281 25.4729L5.5101 42.6547Z" fill="#D0230E"/>
<path fill-rule="evenodd" clip-rule="evenodd" d="M5.5101 42.6547C8.61919 42.982 11.7828 41.6729 13.6919 38.9456C16.5283 34.9638 15.5465 29.4002 11.5101 26.5638C9.05555 24.8183 6.001 24.5456 3.38281 25.4729L5.5101 42.6547Z" fill="#D1240E"/>
<path fill-rule="evenodd" clip-rule="evenodd" d="M5.5101 42.6002C8.61919 42.9274 11.7828 41.6184 13.6919 38.8911C16.5283 34.9093 15.5465 29.3456 11.5101 26.5638C9.05555 24.8183 6.001 24.5456 3.38281 25.4729L5.5101 42.6002Z" fill="#D2240E"/>
<path fill-rule="evenodd" clip-rule="evenodd" d="M5.5101 42.6002C8.61919 42.9274 11.7283 41.6184 13.6374 38.8911C16.4738 34.9093 15.4919 29.3456 11.5101 26.5638C9.05555 24.8183 6.001 24.5456 3.38281 25.4729L5.5101 42.6002Z" fill="#D3250F"/>
<path fill-rule="evenodd" clip-rule="evenodd" d="M5.5101 42.6002C8.56465 42.9274 11.7283 41.6184 13.6374 38.8911C16.4192 34.9093 15.4919 29.4002 11.5101 26.5638C9.05555 24.8183 6.001 24.5456 3.38281 25.4729L5.5101 42.6002Z" fill="#D4250F"/>
<path fill-rule="evenodd" clip-rule="evenodd" d="M5.5101 42.6002C8.56465 42.9274 11.7283 41.6184 13.6374 38.8911C16.4192 34.9093 15.4919 29.4002 11.5101 26.5638C9.05555 24.8183 6.001 24.5456 3.38281 25.4729L5.5101 42.6002Z" fill="#D5250F"/>
<path fill-rule="evenodd" clip-rule="evenodd" d="M5.50924 42.6005C8.56379 42.9277 11.7274 41.6187 13.6365 38.8914C16.4184 34.9096 15.4911 29.4005 11.5092 26.6187C9.0547 24.8732 6.05471 24.6005 3.43652 25.5277L5.50924 42.6005Z" fill="#D6260F"/>
<path fill-rule="evenodd" clip-rule="evenodd" d="M5.50924 42.6005C8.56379 42.9277 11.7274 41.6187 13.6365 38.8914C16.4184 34.9096 15.4911 29.4005 11.5092 26.6187C9.0547 24.8732 6.05471 24.6005 3.43652 25.5277L5.50924 42.6005Z" fill="#D7260F"/>
<path fill-rule="evenodd" clip-rule="evenodd" d="M5.50924 42.5456C8.56379 42.8729 11.7274 41.5638 13.6365 38.8365C16.4184 34.8547 15.4911 29.3456 11.5092 26.5638C9.0547 24.8184 6.05471 24.5456 3.43652 25.5275L5.50924 42.5456Z" fill="#D8270F"/>
<path fill-rule="evenodd" clip-rule="evenodd" d="M5.50924 42.5456C8.56379 42.8729 11.7274 41.5638 13.6365 38.8365C16.4184 34.8547 15.4911 29.4002 11.5092 26.5638C9.0547 24.8184 6.05471 24.5456 3.43652 25.5275L5.50924 42.5456Z" fill="#D9270F"/>
<path fill-rule="evenodd" clip-rule="evenodd" d="M5.50924 42.5459C8.56379 42.8732 11.7274 41.5641 13.6365 38.8368C16.4184 34.855 15.4911 29.4005 11.5092 26.6186C9.0547 24.9277 6.05471 24.6004 3.43652 25.5823L5.50924 42.5459Z" fill="#DA270F"/>
<path fill-rule="evenodd" clip-rule="evenodd" d="M5.5101 42.5457C8.56465 42.873 11.7283 41.5639 13.5829 38.8912C16.3647 34.9093 15.4374 29.4548 11.4556 26.673C9.00102 24.9821 6.001 24.6548 3.38281 25.6366L5.5101 42.5457Z" fill="#DB280F"/>
<path fill-rule="evenodd" clip-rule="evenodd" d="M5.5101 42.5457C8.56465 42.873 11.7283 41.5639 13.5829 38.8912C16.3647 34.9093 15.4374 29.4548 11.4556 26.673C9.00102 24.9821 6.001 24.6548 3.38281 25.6366L5.5101 42.5457Z" fill="#DC280F"/>
<path fill-rule="evenodd" clip-rule="evenodd" d="M5.5101 42.5457C8.56465 42.873 11.7283 41.5639 13.5829 38.8912C16.3647 34.9093 15.4374 29.4548 11.4556 26.673C9.00102 24.9821 6.001 24.6548 3.38281 25.6366L5.5101 42.5457Z" fill="#DD290F"/>
<path fill-rule="evenodd" clip-rule="evenodd" d="M5.50924 42.4911C8.56379 42.8184 11.6729 41.5093 13.582 38.8366C16.3638 34.9093 15.382 29.4002 11.4547 26.673C9.00017 24.9821 6.00016 24.6548 3.43652 25.6366L5.50924 42.4911Z" fill="#DE290F"/>
<path fill-rule="evenodd" clip-rule="evenodd" d="M5.50924 42.4911C8.56379 42.8184 11.6729 41.5093 13.582 38.8366C16.3638 34.9093 15.382 29.4548 11.4547 26.673C9.00017 24.9821 6.00016 24.6548 3.43652 25.6366L5.50924 42.4911Z" fill="#DF290F"/>
<path fill-rule="evenodd" clip-rule="evenodd" d="M5.50924 42.4911C8.56379 42.8184 11.6729 41.5093 13.582 38.8366C16.3638 34.9093 15.382 29.4548 11.4547 26.673C9.00017 24.9821 6.00016 24.6548 3.43652 25.6366L5.50924 42.4911Z" fill="#E02A10"/>
<path fill-rule="evenodd" clip-rule="evenodd" d="M5.50924 42.4911C8.56379 42.8184 11.6729 41.5093 13.582 38.8366C16.3638 34.9093 15.382 29.4548 11.4547 26.673C9.00017 24.9821 6.00016 24.6548 3.43652 25.6366L5.50924 42.4911Z" fill="#E12A10"/>
<path fill-rule="evenodd" clip-rule="evenodd" d="M5.50924 42.4915C8.56379 42.8187 11.6729 41.5096 13.582 38.8369C16.3638 34.9096 15.382 29.4551 11.4547 26.7278C9.00017 25.0369 6.05471 24.7096 3.43652 25.6915L5.50924 42.4915Z" fill="#E22B10"/>
<path fill-rule="evenodd" clip-rule="evenodd" d="M5.5101 42.4366C8.56465 42.7639 11.6737 41.4548 13.5283 38.7821C16.3101 34.8548 15.3283 29.4002 11.401 26.673C9.00104 24.9821 6.001 24.6548 3.38281 25.6366L5.5101 42.4366Z" fill="#E32B10"/>
<path fill-rule="evenodd" clip-rule="evenodd" d="M5.45541 42.4366C8.50996 42.7639 11.619 41.4548 13.4736 38.7821C16.2554 34.8548 15.2736 29.4548 11.3463 26.673C8.94628 24.9821 5.94631 24.6548 3.32812 25.6366L5.45541 42.4366Z" fill="#E42B10"/>
<path fill-rule="evenodd" clip-rule="evenodd" d="M5.45541 42.4366C8.50996 42.7639 11.619 41.4548 13.4736 38.7821C16.2554 34.8548 15.2736 29.4548 11.3463 26.673C8.94628 24.982 5.94631 24.7093 3.32812 25.6366L5.45541 42.4366Z" fill="#E52C10"/>
<path fill-rule="evenodd" clip-rule="evenodd" d="M5.45557 42.4366C8.51011 42.7639 11.6192 41.4548 13.4737 38.7821C16.201 34.8548 15.2737 29.4548 11.3464 26.673C8.94644 24.982 5.94645 24.7093 3.38281 25.6366L5.45557 42.4366Z" fill="#E62C10"/>
<path fill-rule="evenodd" clip-rule="evenodd" d="M5.45557 42.4369C8.51011 42.7642 11.6192 41.4551 13.4737 38.7824C16.201 34.8551 15.2737 29.4551 11.3464 26.7278C8.94644 25.0369 5.94645 24.7642 3.38281 25.6915L5.45557 42.4369Z" fill="#E72D10"/>
<path fill-rule="evenodd" clip-rule="evenodd" d="M5.45557 42.4367C8.51011 42.764 11.6192 41.4549 13.4737 38.8367C16.201 34.9094 15.2737 29.5094 11.3464 26.7821C8.94644 25.0912 5.94645 24.8185 3.38281 25.7458L5.45557 42.4367Z" fill="#E82D10"/>
<path fill-rule="evenodd" clip-rule="evenodd" d="M5.45557 42.3824C8.45557 42.7096 11.5646 41.4006 13.4737 38.7824C16.201 34.8551 15.2737 29.5096 11.3464 26.7278C8.94644 25.0369 5.94645 24.7642 3.38281 25.6915L5.45557 42.3824Z" fill="#E92D10"/>
<path fill-rule="evenodd" clip-rule="evenodd" d="M5.45557 42.3824C8.45557 42.7096 11.5646 41.4006 13.4737 38.7824C16.201 34.8551 15.2737 29.5096 11.3464 26.7278C8.94644 25.0369 5.94645 24.7642 3.38281 25.6915L5.45557 42.3824Z" fill="#EA2E10"/>
<path fill-rule="evenodd" clip-rule="evenodd" d="M5.45471 42.3821C8.45471 42.7094 11.5638 41.4549 13.4729 38.7821C16.2001 34.9094 15.2729 29.5094 11.4002 26.7821C9.00018 25.0912 6.00016 24.8185 3.43652 25.7458L5.45471 42.3821Z" fill="#EB2E10"/>
<path fill-rule="evenodd" clip-rule="evenodd" d="M5.45557 42.3821C8.45557 42.7094 11.5646 41.4549 13.4192 38.7821C16.1465 34.9094 15.2192 29.5094 11.3464 26.7821C8.94644 25.0912 5.94645 24.8185 3.38281 25.7458L5.45557 42.3821Z" fill="#EC2E10"/>
<path fill-rule="evenodd" clip-rule="evenodd" d="M5.45557 42.3821C8.45557 42.7094 11.5646 41.4549 13.4192 38.7821C16.1465 34.9094 15.2192 29.5094 11.3464 26.7821C8.94644 25.0912 5.94645 24.8185 3.38281 25.7458L5.45557 42.3821Z" fill="#ED2F11"/>
<path fill-rule="evenodd" clip-rule="evenodd" d="M5.45557 42.3821C8.45557 42.7094 11.5646 41.4549 13.4192 38.7821C16.1465 34.9094 15.2192 29.5094 11.3464 26.7821C8.94644 25.0912 5.94645 24.8185 3.38281 25.7458L5.45557 42.3821Z" fill="#EE2F11"/>
<path fill-rule="evenodd" clip-rule="evenodd" d="M5.45471 42.3276C8.45471 42.6549 11.5638 41.4003 13.4183 38.7276C16.1456 34.8549 15.2183 29.5094 11.3456 26.7821C8.94558 25.0912 6.00016 24.8185 3.43652 25.7458L5.45471 42.3276Z" fill="#EF3011"/>
<path fill-rule="evenodd" clip-rule="evenodd" d="M5.45471 42.3276C8.45471 42.6549 11.5638 41.4003 13.4183 38.7276C16.1456 34.8549 15.2183 29.5094 11.3456 26.7821C8.94558 25.0912 6.00016 24.8185 3.43652 25.7458L5.45471 42.3276Z" fill="#F03011"/>
<path fill-rule="evenodd" clip-rule="evenodd" d="M5.45471 42.3276C8.45471 42.6549 11.5638 41.4003 13.4183 38.7276C16.1456 34.8549 15.2183 29.5094 11.3456 26.7821C8.94558 25.0912 6.00016 24.8185 3.43652 25.7458L5.45471 42.3276Z" fill="#F13011"/>
<path fill-rule="evenodd" clip-rule="evenodd" d="M5.45471 42.3276C8.45471 42.6549 11.5638 41.4003 13.4183 38.7276C16.1456 34.8549 15.2183 29.5094 11.3456 26.7821C8.94558 25.0912 6.00016 24.8185 3.43652 25.7458L5.45471 42.3276Z" fill="#F23111"/>
<path fill-rule="evenodd" clip-rule="evenodd" d="M5.45471 42.3274C8.45471 42.6546 11.5638 41.4001 13.4183 38.7273C16.1456 34.8546 15.2183 29.5092 11.3456 26.8364C8.94558 25.1455 6.00016 24.8728 3.43652 25.8001L5.45471 42.3274Z" fill="#F33111"/>
<path fill-rule="evenodd" clip-rule="evenodd" d="M5.45557 42.3274C8.45557 42.6546 11.5101 41.4001 13.3647 38.7273C16.0919 34.8546 15.1646 29.5637 11.2919 26.8364C8.8919 25.1455 5.94645 24.8728 3.38281 25.8001L5.45557 42.3274Z" fill="#F43211"/>
<path fill-rule="evenodd" clip-rule="evenodd" d="M5.45557 42.273C8.45557 42.6003 11.5101 41.3458 13.3647 38.673C16.0919 34.8003 15.1646 29.5094 11.2919 26.7821C8.8919 25.0912 5.94645 24.8185 3.38281 25.7458L5.45557 42.273Z" fill="#F53211"/>
<path fill-rule="evenodd" clip-rule="evenodd" d="M5.45557 42.273C8.45557 42.6003 11.5101 41.3457 13.3647 38.7275C16.0919 34.8548 15.1646 29.5639 11.2919 26.8366C8.8919 25.1457 5.94645 24.873 3.38281 25.8548L5.45557 42.273Z" fill="#F63211"/>
<path fill-rule="evenodd" clip-rule="evenodd" d="M5.45471 42.2733C8.45471 42.6006 11.5093 41.346 13.3638 38.7278C16.0911 34.8551 15.1638 29.5642 11.2911 26.8915C8.89105 25.2006 5.94561 24.9278 3.43652 25.9097L5.45471 42.2733Z" fill="#F73311"/>
<path fill-rule="evenodd" clip-rule="evenodd" d="M5.45471 42.2733C8.45471 42.6006 11.5093 41.346 13.3638 38.7278C16.0365 34.9097 15.1638 29.5642 11.2911 26.8915C8.89105 25.2006 5.94561 24.9278 3.43652 25.9097L5.45471 42.2733Z" fill="#F83311"/>
<path fill-rule="evenodd" clip-rule="evenodd" d="M5.45471 42.2733C8.45471 42.6006 11.5093 41.346 13.3638 38.7278C16.0365 34.9097 15.1092 29.6188 11.2911 26.8915C8.89105 25.2006 5.94562 24.9278 3.43652 25.9097L5.45471 42.2733Z" fill="#F93412"/>
<path fill-rule="evenodd" clip-rule="evenodd" d="M5.45471 42.2184C8.45471 42.5457 11.5093 41.2912 13.3638 38.673C16.0365 34.8548 15.1092 29.5639 11.2911 26.8366C8.89105 25.1457 5.94562 24.873 3.43652 25.8548L5.45471 42.2184Z" fill="#FA3412"/>
<path fill-rule="evenodd" clip-rule="evenodd" d="M5.45471 42.2188C8.45471 42.546 11.5093 41.2915 13.3638 38.6733C16.0365 34.8551 15.1092 29.5642 11.2911 26.8915C8.89105 25.2006 5.94562 24.9278 3.43652 25.9097L5.45471 42.2188Z" fill="#FB3412"/>
<path fill-rule="evenodd" clip-rule="evenodd" d="M5.45557 42.2188C8.45557 42.546 11.5101 41.2915 13.3101 38.6733C15.9829 34.8551 15.0556 29.5642 11.2374 26.8915C8.83737 25.2006 5.94645 24.9278 3.38281 25.9097L5.45557 42.2188Z" fill="#FC3512"/>
<path fill-rule="evenodd" clip-rule="evenodd" d="M5.45557 42.2188C8.45557 42.546 11.5101 41.2915 13.3101 38.6733C15.9829 34.8551 15.0556 29.5642 11.2374 26.8915C8.83737 25.2006 5.94645 24.9278 3.38281 25.9097L5.45557 42.2188Z" fill="#FD3512"/>
<path fill-rule="evenodd" clip-rule="evenodd" d="M5.45557 42.2188C8.40102 42.546 11.5101 41.2915 13.3101 38.6733C15.9829 34.8551 15.0556 29.5642 11.2374 26.8915C8.89192 25.2006 5.94645 24.9278 3.38281 25.9097L5.45557 42.2188Z" fill="#FE3612"/>
<path fill-rule="evenodd" clip-rule="evenodd" d="M5.45471 42.2186C8.40017 42.5459 11.4547 41.2913 13.3093 38.6731C15.982 34.855 15.0547 29.6186 11.2365 26.9459C8.89106 25.255 5.94561 24.9822 3.43652 25.9641L5.45471 42.2186Z" fill="#FF3612"/>
<path fill-rule="evenodd" clip-rule="evenodd" d="M8.01889 31.5273C8.89162 32.1273 10.0916 31.9091 10.6916 31.0364C11.2916 30.1636 11.0734 28.9636 10.2007 28.3636C9.32799 27.7636 8.12801 27.9818 7.52801 28.8545C6.92801 29.7273 7.14617 30.9273 8.01889 31.5273Z" fill="#BF3021"/>
<path fill-rule="evenodd" clip-rule="evenodd" d="M9.3822 39.5456C10.2549 40.1456 11.4549 39.9274 12.0549 39.0547C12.6549 38.182 12.4367 36.9819 11.564 36.3819C10.6913 35.7819 9.49128 36.0001 8.89128 36.8729C8.29128 37.7456 8.50947 38.9456 9.3822 39.5456Z" fill="#BF3021"/>
<path fill-rule="evenodd" clip-rule="evenodd" d="M21.3816 29.0192C23.727 25.6919 28.3634 24.8738 31.6907 27.2192C35.0179 29.5647 35.8361 34.201 33.4907 37.5283C31.1452 40.8556 26.5089 41.6738 23.1816 39.3283C19.8543 36.9829 19.0361 32.3465 21.3816 29.0192Z" fill="#8E0909"/>
<path fill-rule="evenodd" clip-rule="evenodd" d="M21.3816 29.0192C23.727 25.6919 28.3634 24.8738 31.6907 27.2192C35.0179 29.5647 35.8361 34.201 33.4907 37.5283C31.1452 40.8556 26.5089 41.6738 23.1816 39.3283C19.8543 36.9829 19.0361 32.3465 21.3816 29.0192Z" fill="#8F0909"/>
<path fill-rule="evenodd" clip-rule="evenodd" d="M21.3816 29.0192C23.727 25.6919 28.3634 24.8738 31.6907 27.2192C35.0179 29.5647 35.8361 34.201 33.4907 37.5283C31.1452 40.8556 26.5089 41.6738 23.1816 39.3283C19.8543 36.9829 19.0361 32.3465 21.3816 29.0192Z" fill="#900A09"/>
<path fill-rule="evenodd" clip-rule="evenodd" d="M21.3816 29.0192C23.727 25.6919 28.3634 24.8738 31.6907 27.2192C35.0179 29.5647 35.8361 34.201 33.4907 37.5283C31.1452 40.8556 26.5089 41.6738 23.1816 39.3283C19.8543 36.9829 19.0361 32.3465 21.3816 29.0192Z" fill="#910A09"/>
<path fill-rule="evenodd" clip-rule="evenodd" d="M21.3816 29.0192C23.727 25.6919 28.3634 24.8738 31.6907 27.2192C35.0179 29.5647 35.8361 34.201 33.4907 37.5283C31.1452 40.8556 26.5089 41.6738 23.1816 39.3283C19.8543 36.9829 19.0361 32.3465 21.3816 29.0192Z" fill="#920B09"/>
<path fill-rule="evenodd" clip-rule="evenodd" d="M21.3812 29.0192C23.7266 25.6919 28.3085 24.8738 31.6903 27.2192C35.0721 29.5647 35.8358 34.1465 33.4903 37.5283C31.1449 40.8556 26.563 41.6738 23.1812 39.3283C19.8539 36.9829 19.0903 32.3465 21.3812 29.0192Z" fill="#930B09"/>
<path fill-rule="evenodd" clip-rule="evenodd" d="M21.4362 29.0192C23.7817 25.6919 28.3635 24.8738 31.6908 27.2192C35.0181 29.5647 35.8363 34.1465 33.4908 37.4738C31.1454 40.801 26.5635 41.6192 23.2363 39.2737C19.909 36.9283 19.0908 32.3465 21.4362 29.0192Z" fill="#940B09"/>
<path fill-rule="evenodd" clip-rule="evenodd" d="M21.4362 29.0192C23.7817 25.6919 28.3635 24.8738 31.6908 27.2192C35.0181 29.5647 35.8363 34.1465 33.4908 37.4738C31.1454 40.801 26.5635 41.6192 23.2363 39.2737C19.909 36.9828 19.0908 32.3465 21.4362 29.0192Z" fill="#950C0A"/>
<path fill-rule="evenodd" clip-rule="evenodd" d="M21.4362 29.0192C23.7817 25.6919 28.3635 24.8738 31.6908 27.2192C35.0181 29.5647 35.8363 34.1465 33.4908 37.4738C31.1454 40.801 26.5635 41.6192 23.2363 39.2737C19.909 36.9828 19.0908 32.3465 21.4362 29.0192Z" fill="#960C0A"/>
<path fill-rule="evenodd" clip-rule="evenodd" d="M21.4362 29.0192C23.7817 25.6919 28.3635 24.8738 31.6908 27.2192C35.0181 29.5647 35.8363 34.1465 33.4908 37.4738C31.1454 40.801 26.5635 41.6192 23.2363 39.2737C19.909 36.9283 19.0908 32.3465 21.4362 29.0192Z" fill="#970D0A"/>
<path fill-rule="evenodd" clip-rule="evenodd" d="M21.4362 29.0736C23.7817 25.7463 28.3635 24.9281 31.6908 27.2735C35.0181 29.619 35.8363 34.2008 33.4908 37.5281C31.1454 40.8554 26.5635 41.6735 23.2363 39.3281C19.909 36.9281 19.0908 32.3463 21.4362 29.0736Z" fill="#980D0A"/>
<path fill-rule="evenodd" clip-rule="evenodd" d="M21.4362 29.0737C23.7817 25.7465 28.3636 24.9828 31.6363 27.2737C34.9636 29.6192 35.7272 34.201 33.4362 37.4737C31.0908 40.801 26.509 41.5646 23.2363 39.2737C19.909 36.9283 19.0908 32.3465 21.4362 29.0737Z" fill="#990D0A"/>
<path fill-rule="evenodd" clip-rule="evenodd" d="M21.4359 29.0737C23.7813 25.7465 28.3086 24.9828 31.6359 27.2737C34.9632 29.5646 35.7268 34.1464 33.4359 37.4737C31.0904 40.801 26.5632 41.5646 23.2359 39.2737C19.9086 36.9283 19.145 32.3465 21.4359 29.0737Z" fill="#9A0E0A"/>
<path fill-rule="evenodd" clip-rule="evenodd" d="M21.4359 29.0737C23.7813 25.7465 28.3086 24.9828 31.6359 27.2737C34.9632 29.6192 35.7268 34.1464 33.4359 37.4737C31.0904 40.801 26.5632 41.5646 23.2359 39.2737C19.9086 36.9828 19.145 32.3465 21.4359 29.0737Z" fill="#9B0E0A"/>
<path fill-rule="evenodd" clip-rule="evenodd" d="M21.4356 29.0737C23.781 25.7465 28.3084 24.9828 31.6356 27.2737C34.9629 29.6192 35.7265 34.1464 33.4356 37.4737C31.0901 40.801 26.5629 41.5646 23.2356 39.2737C19.9629 36.9283 19.1447 32.3465 21.4356 29.0737Z" fill="#9C0F0A"/>
<path fill-rule="evenodd" clip-rule="evenodd" d="M21.49 29.0737C23.8354 25.7465 28.3627 24.9828 31.69 27.2737C35.0172 29.6192 35.7809 34.1464 33.49 37.4737C31.1445 40.801 26.6172 41.5646 23.2899 39.2737C19.9627 36.9283 19.1445 32.3465 21.49 29.0737Z" fill="#9D0F0A"/>
<path fill-rule="evenodd" clip-rule="evenodd" d="M21.4907 29.0737C23.8362 25.801 28.3634 24.9827 31.6362 27.2737C34.9089 29.6191 35.727 34.1464 33.4361 37.4191C31.0907 40.6919 26.5634 41.51 23.2907 39.2191C20.0179 36.9282 19.1453 32.3464 21.4907 29.0737Z" fill="#9E0F0A"/>
<path fill-rule="evenodd" clip-rule="evenodd" d="M21.49 29.0737C23.7809 25.801 28.3627 24.9827 31.6354 27.2737C34.9081 29.5646 35.7263 34.1464 33.4354 37.4191C31.1445 40.6919 26.5627 41.51 23.2899 39.2191C19.9627 36.9282 19.1445 32.3464 21.49 29.0737Z" fill="#9F100A"/>
<path fill-rule="evenodd" clip-rule="evenodd" d="M21.4908 29.0738C23.7817 25.8011 28.3635 24.9829 31.6363 27.3284C34.909 29.6193 35.7272 34.2011 33.3817 37.4738C31.0908 40.7466 26.509 41.5647 23.2363 39.2193C19.9635 36.8738 19.1999 32.4011 21.4908 29.0738Z" fill="#A0100A"/>
<path fill-rule="evenodd" clip-rule="evenodd" d="M21.4908 29.0738C23.7817 25.8011 28.3635 24.9829 31.6363 27.3284C34.909 29.6193 35.7272 34.2011 33.3817 37.4738C31.0908 40.7466 26.509 41.5647 23.2363 39.2193C19.9635 36.9284 19.1999 32.4011 21.4908 29.0738Z" fill="#A1110B"/>
<path fill-rule="evenodd" clip-rule="evenodd" d="M21.4908 29.0738C23.7817 25.8011 28.309 24.9829 31.6363 27.3284C34.909 29.6193 35.7272 34.1466 33.3817 37.4738C31.0908 40.7466 26.5635 41.5647 23.2363 39.2193C19.9635 36.9284 19.1999 32.4011 21.4908 29.0738Z" fill="#A2110B"/>
<path fill-rule="evenodd" clip-rule="evenodd" d="M21.4908 29.0738C23.7817 25.8011 28.309 24.9829 31.6363 27.3284C34.909 29.6193 35.7272 34.1466 33.3817 37.4738C31.0908 40.7466 26.5635 41.5647 23.2363 39.2193C19.9635 36.9284 19.1999 32.4011 21.4908 29.0738Z" fill="#A3110B"/>
<path fill-rule="evenodd" clip-rule="evenodd" d="M21.4908 29.0738C23.7817 25.8011 28.309 24.9829 31.5817 27.3284C34.8545 29.6193 35.6726 34.1466 33.3272 37.4193C31.0363 40.692 26.509 41.5102 23.2363 39.1648C19.9635 36.8193 19.1999 32.4011 21.4908 29.0738Z" fill="#A4120B"/>
<path fill-rule="evenodd" clip-rule="evenodd" d="M21.4905 29.1282C23.7814 25.8554 28.3086 25.0373 31.5814 27.3827C34.8541 29.7282 35.6723 34.2009 33.3268 37.4736C31.0359 40.7463 26.5086 41.5645 23.2359 39.2191C20.0177 36.8736 19.1996 32.4009 21.4905 29.1282Z" fill="#A5120B"/>
<path fill-rule="evenodd" clip-rule="evenodd" d="M21.5449 29.1284C23.8358 25.8556 28.3631 25.092 31.6358 27.3829C34.9085 29.6738 35.6721 34.2011 33.3812 37.4738C31.0903 40.7466 26.563 41.5102 23.2903 39.2193C20.0176 36.9284 19.1994 32.4011 21.5449 29.1284Z" fill="#A6120B"/>
<path fill-rule="evenodd" clip-rule="evenodd" d="M21.5445 29.1284C23.8355 25.8556 28.3627 25.092 31.6355 27.3829C34.9082 29.6738 35.6718 34.2011 33.3809 37.4738C31.09 40.7466 26.5627 41.5102 23.29 39.2193C20.0172 36.8738 19.2536 32.4011 21.5445 29.1284Z" fill="#A7130B"/>
<path fill-rule="evenodd" clip-rule="evenodd" d="M21.5445 29.1284C23.8355 25.8556 28.3627 25.092 31.6355 27.3829C34.9082 29.6738 35.6718 34.2011 33.3809 37.4738C31.09 40.7466 26.5627 41.5102 23.29 39.2193C20.0172 36.9284 19.2536 32.4011 21.5445 29.1284Z" fill="#A8130B"/>
<path fill-rule="evenodd" clip-rule="evenodd" d="M21.5445 29.1284C23.8355 25.8556 28.3627 25.092 31.5809 27.3829C34.8537 29.6738 35.6173 34.2011 33.3264 37.4193C31.0354 40.6375 26.5082 41.4557 23.29 39.1648C20.0172 36.8738 19.2536 32.4011 21.5445 29.1284Z" fill="#A9140B"/>
<path fill-rule="evenodd" clip-rule="evenodd" d="M21.5445 29.1284C23.8355 25.8556 28.3082 25.092 31.5809 27.3829C34.8537 29.6738 35.6173 34.1466 33.3264 37.4193C31.0354 40.692 26.5627 41.4557 23.29 39.1648C20.0172 36.8738 19.2536 32.4011 21.5445 29.1284Z" fill="#AA140B"/>
<path fill-rule="evenodd" clip-rule="evenodd" d="M21.5452 29.1284C23.8361 25.8556 28.3088 25.092 31.5815 27.3829C34.8543 29.6738 35.6179 34.1466 33.327 37.4193C31.036 40.692 26.5633 41.4557 23.2906 39.1648C20.0724 36.8738 19.2542 32.4011 21.5452 29.1284Z" fill="#AB140B"/>
<path fill-rule="evenodd" clip-rule="evenodd" d="M21.5452 29.1284C23.8361 25.8556 28.3088 25.092 31.5815 27.3829C34.8543 29.6738 35.6179 34.1466 33.327 37.4193C31.036 40.692 26.5633 41.4557 23.2906 39.1648C20.0724 36.8738 19.2542 32.4011 21.5452 29.1284Z" fill="#AC150B"/>
<path fill-rule="evenodd" clip-rule="evenodd" d="M21.5452 29.1284C23.8361 25.8556 28.3088 25.092 31.5816 27.3829C34.8543 29.6738 35.6179 34.1466 33.327 37.4193C31.0361 40.692 26.5634 41.4557 23.2906 39.1648C20.0179 36.8738 19.3088 32.4011 21.5452 29.1284Z" fill="#AD150B"/>
<path fill-rule="evenodd" clip-rule="evenodd" d="M21.5448 29.1284C23.8357 25.8556 28.3084 25.092 31.5266 27.3829C34.7993 29.6738 35.563 34.1465 33.272 37.3647C30.9811 40.6375 26.5084 41.4011 23.2902 39.1102C20.072 36.8738 19.3084 32.4011 21.5448 29.1284Z" fill="#AE160C"/>
<path fill-rule="evenodd" clip-rule="evenodd" d="M21.5992 29.1282C23.8901 25.9101 28.3629 25.0919 31.5811 27.3828C34.7993 29.6737 35.6174 34.1464 33.3265 37.3646C31.0356 40.5828 26.5628 41.401 23.3447 39.1101C20.0719 36.8737 19.3083 32.401 21.5992 29.1282Z" fill="#AF160C"/>
<path fill-rule="evenodd" clip-rule="evenodd" d="M21.5992 29.1282C23.8901 25.9101 28.3629 25.0919 31.5811 27.3828C34.7993 29.6737 35.6174 34.1464 33.3265 37.3646C31.0356 40.5828 26.5628 41.401 23.3447 39.1101C20.0719 36.8737 19.3083 32.401 21.5992 29.1282Z" fill="#B0160C"/>
<path fill-rule="evenodd" clip-rule="evenodd" d="M21.5992 29.1282C23.8901 25.9101 28.3629 25.0919 31.5811 27.3828C34.7993 29.6737 35.6174 34.1464 33.3265 37.3646C31.0356 40.5828 26.5628 41.401 23.3447 39.1101C20.0719 36.8737 19.3083 32.401 21.5992 29.1282Z" fill="#B1170C"/>
<path fill-rule="evenodd" clip-rule="evenodd" d="M21.5992 29.1825C23.8901 25.9644 28.3084 25.1462 31.5811 27.4371C34.7993 29.728 35.6174 34.1462 33.3265 37.4189C31.0356 40.6371 26.6174 41.4553 23.3447 39.1644C20.0719 36.8735 19.3083 32.4007 21.5992 29.1825Z" fill="#B2170C"/>
<path fill-rule="evenodd" clip-rule="evenodd" d="M21.5998 29.1827C23.8907 25.9645 28.309 25.2009 31.5817 27.4373C34.8544 29.6737 35.5635 34.1464 33.3271 37.4191C31.0362 40.6373 26.618 41.4009 23.3453 39.1646C20.1271 36.8737 19.3089 32.4009 21.5998 29.1827Z" fill="#B3180C"/>
<path fill-rule="evenodd" clip-rule="evenodd" d="M21.5995 29.1827C23.8904 25.9645 28.3085 25.2009 31.5267 27.4373C34.7449 29.7282 35.5086 34.1464 33.2722 37.3645C30.9813 40.5827 26.5631 41.3464 23.3449 39.11C20.1267 36.8191 19.3631 32.4009 21.5995 29.1827Z" fill="#B4180C"/>
<path fill-rule="evenodd" clip-rule="evenodd" d="M21.5995 29.1827C23.8904 25.9645 28.3085 25.2009 31.5267 27.4373C34.7449 29.7282 35.5086 34.1464 33.2722 37.3645C30.9813 40.5827 26.5631 41.3464 23.3449 39.11C20.1267 36.8191 19.3631 32.4009 21.5995 29.1827Z" fill="#B5180C"/>
<path fill-rule="evenodd" clip-rule="evenodd" d="M21.5995 29.1827C23.8358 25.9645 28.3085 25.2009 31.5267 27.4373C34.7449 29.6737 35.5086 34.1464 33.2722 37.3645C31.0358 40.5827 26.5631 41.3464 23.3449 39.11C20.1267 36.8191 19.3631 32.4009 21.5995 29.1827Z" fill="#B6190C"/>
<path fill-rule="evenodd" clip-rule="evenodd" d="M21.5995 29.1827C23.8358 25.9645 28.3085 25.2009 31.5267 27.4373C34.7449 29.6737 35.5086 34.1464 33.2722 37.3645C31.0358 40.5827 26.5631 41.3464 23.3449 39.11C20.1267 36.8191 19.3631 32.4009 21.5995 29.1827Z" fill="#B7190C"/>
<path fill-rule="evenodd" clip-rule="evenodd" d="M21.6535 29.1827C23.8899 25.9645 28.3627 25.2009 31.5808 27.4373C34.799 29.6737 35.5626 34.1464 33.3263 37.3645C31.0899 40.5827 26.6172 41.3464 23.399 39.11C20.1808 36.8736 19.3626 32.4009 21.6535 29.1827Z" fill="#B81A0C"/>
<path fill-rule="evenodd" clip-rule="evenodd" d="M21.6535 29.1827C23.8899 25.9645 28.3626 25.2009 31.5262 27.4373C34.6899 29.6737 35.5081 34.1464 33.2717 37.31C31.0354 40.5282 26.5627 41.2918 23.399 39.0555C20.1808 36.8191 19.3626 32.4009 21.6535 29.1827Z" fill="#B91A0C"/>
<path fill-rule="evenodd" clip-rule="evenodd" d="M21.6541 29.1827C23.8905 25.9645 28.3087 25.2009 31.5268 27.4373C34.745 29.6737 35.5087 34.0918 33.2723 37.31C31.036 40.5282 26.6178 41.2918 23.3996 39.0555C20.1814 36.8191 19.4178 32.4009 21.6541 29.1827Z" fill="#BA1A0C"/>
<path fill-rule="evenodd" clip-rule="evenodd" d="M21.6541 29.1827C23.8905 25.9645 28.3087 25.2009 31.5268 27.4373C34.745 29.6737 35.5087 34.0918 33.2723 37.31C31.036 40.5282 26.6178 41.2918 23.3996 39.0555C20.1814 36.8191 19.4178 32.4009 21.6541 29.1827Z" fill="#BB1B0D"/>
<path fill-rule="evenodd" clip-rule="evenodd" d="M21.6541 29.1827C23.8905 25.9645 28.3087 25.2009 31.5268 27.4373C34.745 29.6737 35.5087 34.0918 33.2723 37.31C31.036 40.5282 26.6178 41.2918 23.3996 39.0555C20.1814 36.8191 19.4178 32.4009 21.6541 29.1827Z" fill="#BC1B0D"/>
<path fill-rule="evenodd" clip-rule="evenodd" d="M21.6541 29.1827C23.8905 25.9645 28.3087 25.2009 31.5268 27.4373C34.745 29.6737 35.5087 34.0918 33.2723 37.31C31.036 40.5282 26.6178 41.2918 23.3996 39.0555C20.1814 36.8191 19.4178 32.4009 21.6541 29.1827Z" fill="#BD1C0D"/>
<path fill-rule="evenodd" clip-rule="evenodd" d="M21.6544 29.1825C23.8907 25.9643 28.3089 25.2007 31.4726 27.4916C34.6907 29.728 35.4544 34.1462 33.1635 37.3098C30.8725 40.4734 26.5089 41.2916 23.3453 39.0007C20.1816 36.8189 19.418 32.4007 21.6544 29.1825Z" fill="#BE1C0D"/>
<path fill-rule="evenodd" clip-rule="evenodd" d="M21.6544 29.2372C23.8907 26.0736 28.3089 25.2554 31.4726 27.5463C34.6362 29.7826 35.4544 34.2008 33.1635 37.3644C30.9271 40.5281 26.5089 41.3463 23.3453 39.0554C20.1816 36.7645 19.418 32.4008 21.6544 29.2372Z" fill="#BF1C0D"/>
<path fill-rule="evenodd" clip-rule="evenodd" d="M21.654 29.2374C23.8904 26.0737 28.3086 25.3101 31.4722 27.5465C34.6359 29.7828 35.3995 34.201 33.1631 37.3646C30.9268 40.5283 26.5086 41.2919 23.3449 39.0556C20.2359 36.8192 19.4177 32.401 21.654 29.2374Z" fill="#C01D0D"/>
<path fill-rule="evenodd" clip-rule="evenodd" d="M21.7081 29.2374C23.9444 26.0737 28.3626 25.3101 31.5262 27.5465C34.6899 29.7828 35.4536 34.201 33.2172 37.3646C30.9808 40.5283 26.5627 41.2919 23.399 39.0556C20.2354 36.8192 19.4717 32.401 21.7081 29.2374Z" fill="#C11D0D"/>
<path fill-rule="evenodd" clip-rule="evenodd" d="M21.7081 29.2374C23.9444 26.0737 28.3081 25.3101 31.5262 27.5465C34.6899 29.7828 35.4536 34.1465 33.2172 37.3646C30.9808 40.5283 26.6172 41.2919 23.399 39.0556C20.2354 36.8192 19.4717 32.401 21.7081 29.2374Z" fill="#C21E0D"/>
<path fill-rule="evenodd" clip-rule="evenodd" d="M21.7081 29.2374C23.9444 26.0737 28.3081 25.3101 31.4717 27.5465C34.6354 29.7828 35.399 34.1465 33.1626 37.3101C30.9263 40.4737 26.5627 41.2374 23.399 39.001C20.2354 36.7646 19.4717 32.401 21.7081 29.2374Z" fill="#C31E0D"/>
<path fill-rule="evenodd" clip-rule="evenodd" d="M21.7081 29.2374C23.9444 26.0737 28.3081 25.3101 31.4717 27.5465C34.6354 29.7828 35.399 34.1465 33.1626 37.3101C30.9263 40.4737 26.5627 41.2374 23.399 39.001C20.2354 36.7646 19.4717 32.401 21.7081 29.2374Z" fill="#C41E0D"/>
<path fill-rule="evenodd" clip-rule="evenodd" d="M21.7081 29.2374C23.9444 26.0737 28.3081 25.3101 31.4717 27.5465C34.6354 29.7828 35.399 34.1465 33.1626 37.3101C30.9263 40.4737 26.5627 41.2374 23.399 39.001C20.2354 36.7646 19.4717 32.401 21.7081 29.2374Z" fill="#C51F0D"/>
<path fill-rule="evenodd" clip-rule="evenodd" d="M21.7081 29.2374C23.9444 26.0737 28.3081 25.3101 31.4717 27.5465C34.6354 29.7828 35.399 34.1465 33.1626 37.3101C30.9263 40.4737 26.5627 41.2374 23.399 39.001C20.2354 36.7646 19.4717 32.401 21.7081 29.2374Z" fill="#C61F0D"/>
<path fill-rule="evenodd" clip-rule="evenodd" d="M21.7087 29.2374C23.9451 26.0737 28.3087 25.3101 31.4724 27.5465C34.636 29.7828 35.3996 34.1465 33.1633 37.3101C30.9269 40.4737 26.5633 41.2374 23.3997 39.001C20.236 36.7646 19.5269 32.401 21.7087 29.2374Z" fill="#C61F0D"/>
<path fill-rule="evenodd" clip-rule="evenodd" d="M21.7083 29.2374C23.9447 26.0737 28.3083 25.3101 31.472 27.5465C34.6356 29.7828 35.3992 34.1465 33.1629 37.3101C30.9265 40.4737 26.5629 41.2374 23.3993 39.001C20.2902 36.7646 19.5265 32.401 21.7083 29.2374Z" fill="#C7200E"/>
<path fill-rule="evenodd" clip-rule="evenodd" d="M21.7083 29.2374C23.9447 26.0737 28.3084 25.3101 31.4174 27.5465C34.5811 29.7828 35.3447 34.1465 33.1083 37.2556C30.872 40.4192 26.5084 41.1828 23.3993 38.9465C20.2902 36.7647 19.5265 32.401 21.7083 29.2374Z" fill="#C8200E"/>
<path fill-rule="evenodd" clip-rule="evenodd" d="M21.7628 29.2374C23.9991 26.0737 28.3082 25.3101 31.4718 27.5465C34.6355 29.7828 35.3991 34.0919 33.1627 37.2556C30.9264 40.4192 26.6173 41.1828 23.4537 38.9465C20.29 36.7101 19.5264 32.401 21.7628 29.2374Z" fill="#C9210E"/>
<path fill-rule="evenodd" clip-rule="evenodd" d="M21.7628 29.2917C23.9991 26.128 28.3082 25.3644 31.4718 27.6008C34.6355 29.8372 35.3991 34.1462 33.1627 37.3099C30.9264 40.4735 26.6173 41.2371 23.4537 39.0008C20.29 36.7644 19.5264 32.4008 21.7628 29.2917Z" fill="#CA210E"/>
<path fill-rule="evenodd" clip-rule="evenodd" d="M21.7628 29.2917C23.9991 26.128 28.3082 25.3644 31.4718 27.6008C34.6355 29.8372 35.3991 34.1462 33.1627 37.3099C30.9264 40.4735 26.6173 41.2371 23.4537 39.0008C20.29 36.7644 19.5264 32.4008 21.7628 29.2917Z" fill="#CB210E"/>
<path fill-rule="evenodd" clip-rule="evenodd" d="M21.7628 29.2919C23.9446 26.1283 28.3082 25.4192 31.4718 27.601C34.6355 29.7828 35.3445 34.1464 33.1627 37.3101C30.9809 40.4737 26.6173 41.1828 23.4537 39.001C20.29 36.7646 19.5264 32.401 21.7628 29.2919Z" fill="#CC220E"/>
<path fill-rule="evenodd" clip-rule="evenodd" d="M21.7624 29.2919C23.9443 26.1283 28.3079 25.4192 31.417 27.601C34.5806 29.7828 35.2897 34.1465 33.1079 37.2556C30.926 40.4192 26.5624 41.1283 23.4533 38.9464C20.2897 36.7646 19.5806 32.401 21.7624 29.2919Z" fill="#CD220E"/>
<path fill-rule="evenodd" clip-rule="evenodd" d="M21.763 29.2918C23.9449 26.1827 28.3085 25.419 31.4176 27.6009C34.5266 29.7827 35.2903 34.1463 33.1084 37.2554C30.9266 40.3645 26.563 41.1281 23.4539 38.9463C20.3448 36.7645 19.5812 32.4008 21.763 29.2918Z" fill="#CE230E"/>
<path fill-rule="evenodd" clip-rule="evenodd" d="M21.763 29.2918C23.9449 26.1827 28.3085 25.419 31.4176 27.6009C34.5266 29.7827 35.2903 34.1463 33.1084 37.2554C30.9266 40.3645 26.563 41.1281 23.4539 38.9463C20.3448 36.7645 19.5812 32.4008 21.763 29.2918Z" fill="#CF230E"/>
<path fill-rule="evenodd" clip-rule="evenodd" d="M21.763 29.2918C23.9449 26.1827 28.2539 25.419 31.4176 27.6009C34.5266 29.7827 35.2903 34.0918 33.1084 37.2554C30.9266 40.3645 26.6176 41.1281 23.4539 38.9463C20.3448 36.7645 19.5812 32.4008 21.763 29.2918Z" fill="#D0230E"/>
<path fill-rule="evenodd" clip-rule="evenodd" d="M21.763 29.2918C23.9449 26.1827 28.2539 25.419 31.4176 27.6009C34.5812 29.7827 35.2903 34.0918 33.1084 37.2554C30.9266 40.4191 26.6176 41.1281 23.4539 38.9463C20.3448 36.7099 19.5812 32.4008 21.763 29.2918Z" fill="#D1240E"/>
<path fill-rule="evenodd" clip-rule="evenodd" d="M21.8171 29.2918C23.999 26.1827 28.308 25.419 31.4171 27.6009C34.5262 29.7827 35.2898 34.0918 33.108 37.2008C30.9262 40.3099 26.6171 41.0736 23.508 38.8918C20.3989 36.71 19.5808 32.4008 21.8171 29.2918Z" fill="#D2240E"/>
<path fill-rule="evenodd" clip-rule="evenodd" d="M21.8181 29.2918C23.9999 26.1827 28.309 25.419 31.4181 27.6009C34.5272 29.7827 35.2908 34.0918 33.109 37.2008C30.9272 40.3099 26.6181 41.0736 23.509 38.8918C20.3454 36.71 19.6363 32.4008 21.8181 29.2918Z" fill="#D3250F"/>
<path fill-rule="evenodd" clip-rule="evenodd" d="M21.8181 29.2918C23.9999 26.1827 28.309 25.419 31.4181 27.6009C34.5272 29.7827 35.2908 34.0918 33.109 37.2008C30.9272 40.3099 26.6181 41.0736 23.509 38.8918C20.3454 36.71 19.6363 32.4008 21.8181 29.2918Z" fill="#D4250F"/>
<path fill-rule="evenodd" clip-rule="evenodd" d="M21.8177 29.2918C23.9995 26.1827 28.3086 25.419 31.4177 27.6009C34.5268 29.7827 35.2904 34.0918 33.1086 37.2008C30.9268 40.3099 26.6177 41.0736 23.5086 38.8918C20.3995 36.71 19.6359 32.4008 21.8177 29.2918Z" fill="#D5250F"/>
<path fill-rule="evenodd" clip-rule="evenodd" d="M21.8177 29.2918C23.9995 26.1827 28.3086 25.419 31.4177 27.6009C34.5268 29.7827 35.2904 34.0918 33.1086 37.2008C30.9268 40.3099 26.6177 41.0736 23.5086 38.8918C20.3995 36.71 19.6359 32.4008 21.8177 29.2918Z" fill="#D6260F"/>
<path fill-rule="evenodd" clip-rule="evenodd" d="M21.8177 29.3461C23.9995 26.237 28.3086 25.4734 31.4177 27.6552C34.5268 29.837 35.2904 34.1461 33.1086 37.2552C30.9268 40.3643 26.6177 41.1279 23.5086 38.9461C20.3995 36.7643 19.6359 32.4006 21.8177 29.3461Z" fill="#D7260F"/>
<path fill-rule="evenodd" clip-rule="evenodd" d="M21.8177 29.3461C23.9995 26.237 28.2541 25.4734 31.3632 27.6552C34.4723 29.837 35.2359 34.0915 33.0541 37.2006C30.8723 40.3097 26.6177 41.0734 23.5086 38.8916C20.3995 36.7097 19.6359 32.4006 21.8177 29.3461Z" fill="#D8270F"/>
<path fill-rule="evenodd" clip-rule="evenodd" d="M21.8177 29.3463C23.9995 26.2372 28.2541 25.5281 31.3632 27.6553C34.4723 29.8372 35.1813 34.0917 33.0541 37.2008C30.9268 40.3099 26.6177 41.019 23.5086 38.8917C20.3995 36.7645 19.6359 32.4008 21.8177 29.3463Z" fill="#D9270F"/>
<path fill-rule="evenodd" clip-rule="evenodd" d="M21.8173 29.3463C23.9992 26.2372 28.2537 25.5281 31.3628 27.6553C34.4719 29.8372 35.181 34.0917 33.0537 37.2008C30.8719 40.3099 26.6173 41.019 23.5082 38.8917C20.3991 36.7099 19.6901 32.4008 21.8173 29.3463Z" fill="#DA270F"/>
<path fill-rule="evenodd" clip-rule="evenodd" d="M21.8718 29.3463C24.0536 26.2372 28.3082 25.5281 31.4173 27.6553C34.5264 29.8372 35.2354 34.0917 33.1082 37.2008C30.9263 40.3099 26.6718 41.019 23.5627 38.8917C20.3991 36.7099 19.69 32.4554 21.8718 29.3463Z" fill="#DB280F"/>
<path fill-rule="evenodd" clip-rule="evenodd" d="M21.8716 29.3465C24.0535 26.2374 28.308 25.5284 31.4171 27.7102C34.5262 29.892 35.2353 34.1465 33.0535 37.2556C30.8716 40.3647 26.6171 41.0738 23.508 38.892C20.4535 36.7102 19.6898 32.4556 21.8716 29.3465Z" fill="#DC280F"/>
<path fill-rule="evenodd" clip-rule="evenodd" d="M21.8716 29.3465C24.0535 26.2374 28.308 25.5284 31.3626 27.7102C34.4717 29.892 35.1807 34.1465 32.9989 37.2011C30.8171 40.2556 26.5625 41.0192 23.508 38.8374C20.4535 36.7102 19.6898 32.4556 21.8716 29.3465Z" fill="#DD290F"/>
<path fill-rule="evenodd" clip-rule="evenodd" d="M21.8716 29.3465C24.0535 26.2374 28.308 25.5284 31.3626 27.7102C34.4171 29.892 35.1807 34.1465 32.9989 37.2011C30.8171 40.3102 26.5625 41.0193 23.508 38.8374C20.4535 36.6556 19.6898 32.4556 21.8716 29.3465Z" fill="#DE290F"/>
<path d="M29.1206 39.8561C32.7717 38.9347 34.9845 35.2279 34.0631 31.5768C33.1416 27.9257 29.4349 25.7129 25.7838 26.6343C22.1327 27.5558 19.9198 31.2625 20.8413 34.9136C21.7627 38.5648 25.4695 40.7776 29.1206 39.8561Z" fill="#DF290F"/>
<path d="M29.1871 39.8494C32.8273 38.8858 34.9971 35.1537 34.0335 31.5135C33.0699 27.8733 29.3378 25.7035 25.6976 26.6672C22.0574 27.6308 19.8876 31.3629 20.8512 35.0031C21.8148 38.6433 25.5469 40.813 29.1871 39.8494Z" fill="#E02A10"/>
<path d="M29.2404 39.8658C32.8689 38.8593 34.9944 35.1019 33.9879 31.4733C32.9814 27.8448 29.2239 25.7193 25.5954 26.7258C21.9669 27.7324 19.8414 31.4898 20.8479 35.1183C21.8544 38.7469 25.6119 40.8724 29.2404 39.8658Z" fill="#E12A10"/>
<path d="M29.3364 39.847C32.9525 38.7964 35.0323 35.0133 33.9817 31.3973C32.9311 27.7812 29.148 25.7014 25.5319 26.752C21.9158 27.8026 19.8361 31.5857 20.8866 35.2018C21.9372 38.8179 25.7203 40.8976 29.3364 39.847Z" fill="#E22B10"/>
<path d="M29.3619 39.7492C32.9356 38.6626 34.9517 34.8846 33.8651 31.3109C32.7785 27.7372 29.0005 25.721 25.4268 26.8077C21.8531 27.8943 19.8369 31.6723 20.9236 35.246C22.0102 38.8197 25.7882 40.8359 29.3619 39.7492Z" fill="#E32B10"/>
<path d="M29.5234 39.7121C33.0832 38.5798 35.0513 34.7761 33.919 31.2162C32.7868 27.6563 28.9831 25.6883 25.4232 26.8206C21.8633 27.9528 19.8954 31.7564 21.0276 35.3163C22.1598 38.8762 25.9635 40.8443 29.5234 39.7121Z" fill="#E42B10"/>
<path d="M29.6002 39.6988C33.1451 38.5207 35.0638 34.6918 33.8856 31.1469C32.7075 27.6019 28.8786 25.6833 25.3337 26.8615C21.7887 28.0396 19.8701 31.8684 21.0483 35.4134C22.2264 38.9583 26.0552 40.877 29.6002 39.6988Z" fill="#E52C10"/>
<path d="M29.6533 39.6456C33.1822 38.4207 35.05 34.5671 33.8251 31.0382C32.6002 27.5093 28.7466 25.6415 25.2177 26.8664C21.6888 28.0912 19.8211 31.9449 21.0459 35.4738C22.2708 39.0026 26.1244 40.8705 29.6533 39.6456Z" fill="#E62C10"/>
<path d="M29.7025 39.6514C33.2145 38.3794 35.0305 34.5012 33.7586 30.9892C32.4867 27.4771 28.6085 25.6611 25.0964 26.933C21.5844 28.2049 19.7684 32.0831 21.0403 35.5952C22.3122 39.1073 26.1904 40.9233 29.7025 39.6514Z" fill="#E72D10"/>
<path d="M29.852 39.5916C33.3465 38.2715 35.1092 34.3684 33.7891 30.8739C32.469 27.3794 28.566 25.6167 25.0715 26.9368C21.577 28.2569 19.8143 32.1599 21.1344 35.6545C22.4545 39.149 26.3575 40.9117 29.852 39.5916Z" fill="#E82D10"/>
<path d="M29.9146 39.5811C33.3904 38.2128 35.0989 34.2858 33.7306 30.81C32.3623 27.3341 28.4354 25.6256 24.9595 26.9939C21.4837 28.3622 19.7752 32.2891 21.1435 35.765C22.5118 39.2408 26.4387 40.9494 29.9146 39.5811Z" fill="#E92D10"/>
<path d="M29.9729 39.4417C33.4011 38.0359 35.0405 34.1172 33.6347 30.689C32.2289 27.2609 28.3102 25.6214 24.882 27.0272C21.4538 28.433 19.8144 32.3517 21.2202 35.7799C22.626 39.208 26.5447 40.8475 29.9729 39.4417Z" fill="#EA2E10"/>
<path d="M30.0978 39.4732C33.506 38.0188 35.0898 34.077 33.6355 30.6688C32.1812 27.2606 28.2393 25.6768 24.8311 27.1311C21.423 28.5854 19.8391 32.5273 21.2935 35.9354C22.7478 39.3436 26.6896 40.9275 30.0978 39.4732Z" fill="#EB2E10"/>
<path d="M30.1559 39.408C33.5426 37.9047 35.0694 33.9406 33.5662 30.554C32.0629 27.1673 28.0988 25.6405 24.7122 27.1437C21.3255 28.647 19.7987 32.611 21.302 35.9977C22.8052 39.3844 26.7692 40.9112 30.1559 39.408Z" fill="#EC2E10"/>
<path d="M30.2225 39.3828C33.5869 37.8306 35.0561 33.8449 33.5039 30.4804C31.9517 27.116 27.966 25.6469 24.6016 27.199C21.2371 28.7512 19.768 32.7369 21.3202 36.1013C22.8724 39.4657 26.858 40.9349 30.2225 39.3828Z" fill="#ED2F11"/>
<path d="M30.3545 39.3222C33.6959 37.7207 35.1065 33.7137 33.5051 30.3722C31.9036 27.0307 27.8966 25.6202 24.5551 27.2216C21.2136 28.8231 19.8031 32.8301 21.4045 36.1715C23.006 39.513 27.013 40.9236 30.3545 39.3222Z" fill="#EE2F11"/>
<path d="M30.4069 39.2753C33.7243 37.6249 35.0757 33.5978 33.4253 30.2804C31.775 26.963 27.7478 25.6116 24.4304 27.262C21.1131 28.9123 19.7617 32.9394 21.4121 36.2568C23.0624 39.5742 27.0895 40.9256 30.4069 39.2753Z" fill="#EF3011"/>
<path d="M30.4922 39.2119C33.7848 37.5126 35.0764 33.4659 33.3771 30.1734C31.6779 26.8808 27.6312 25.5892 24.3386 27.2885C21.0461 28.9877 19.7545 33.0344 21.4537 36.3269C23.153 39.6195 27.1997 40.9111 30.4922 39.2119Z" fill="#F03011"/>
<path d="M30.5999 39.169C33.8407 37.4354 35.0626 33.4028 33.329 30.162C31.5954 26.9212 27.5629 25.6994 24.3221 27.433C21.0813 29.1666 19.8594 33.1991 21.593 36.4399C23.3266 39.6807 27.3592 40.9026 30.5999 39.169Z" fill="#F13011"/>
<path d="M30.672 39.1259C33.8867 37.3445 35.0487 33.2944 33.2673 30.0797C31.4859 26.865 27.4358 25.7031 24.2211 27.4845C21.0064 29.2658 19.8445 33.3159 21.6258 36.5306C23.4072 39.7453 27.4573 40.9073 30.672 39.1259Z" fill="#F23111"/>
<path d="M30.7434 39.0611C33.9312 37.2323 35.033 33.1655 33.2042 29.9776C31.3755 26.7898 27.3086 25.6881 24.1208 27.5168C20.9329 29.3456 19.8311 33.4124 21.6599 36.6003C23.4887 39.7881 27.5555 40.8899 30.7434 39.0611Z" fill="#F33111"/>
<path d="M30.8762 39.0005C34.0369 37.1247 35.0785 33.0418 33.2027 29.8811C31.3268 26.7204 27.2439 25.6789 24.0832 27.5547C20.9226 29.4305 19.881 33.5134 21.7568 36.6741C23.6326 39.8347 27.7155 40.8763 30.8762 39.0005Z" fill="#F43211"/>
<path d="M30.9168 38.9909C34.0495 37.0692 35.0313 32.9716 33.1095 29.8389C31.1877 26.7062 27.0902 25.7245 23.9575 27.6463C20.8247 29.568 19.843 33.6655 21.7648 36.7982C23.6866 39.931 27.784 40.9127 30.9168 38.9909Z" fill="#F53211"/>
<path d="M30.9625 38.8952C34.0666 36.9278 34.9881 32.8166 33.0208 29.7125C31.0535 26.6085 26.9423 25.687 23.8382 27.6543C20.7341 29.6217 19.8126 33.7328 21.7799 36.8369C23.7473 39.941 27.8585 40.8625 30.9625 38.8952Z" fill="#F63211"/>
<path d="M31.0789 38.8476C34.1543 36.8354 35.0162 32.7111 33.004 29.6356C30.9919 26.5602 26.8675 25.6984 23.7921 27.7105C20.7167 29.7227 19.8548 33.847 21.867 36.9224C23.8792 39.9978 28.0034 40.8597 31.0789 38.8476Z" fill="#F73311"/>
<path d="M31.1593 38.8374C34.2056 36.7815 35.0086 32.6453 32.9527 29.5989C30.8968 26.5525 26.7606 25.7496 23.7142 27.8055C20.6678 29.8614 19.8649 33.9976 21.9208 37.044C23.9767 40.0904 28.1129 40.8933 31.1593 38.8374Z" fill="#F83311"/>
<path d="M31.2172 38.7444C34.2094 36.6627 34.9476 32.5494 32.8659 29.5571C30.7842 26.5649 26.6709 25.8268 23.6787 27.9085C20.6864 29.9902 19.9483 34.1034 22.03 37.0957C24.1117 40.0879 28.225 40.8261 31.2172 38.7444Z" fill="#F93412"/>
<path d="M31.3097 38.641C34.2724 36.5173 34.9527 32.394 32.829 29.4313C30.7054 26.4685 26.5821 25.7884 23.6194 27.912C20.6566 30.0356 19.9764 34.1589 22.1 37.1216C24.2237 40.0843 28.347 40.7646 31.3097 38.641Z" fill="#FA3412"/>
<path d="M31.3637 38.6296C34.2969 36.4655 34.9204 32.3333 32.7563 29.4001C30.5922 26.4669 26.46 25.8435 23.5268 28.0076C20.5936 30.1716 19.9701 34.3038 22.1342 37.237C24.2983 40.1702 28.4305 40.7937 31.3637 38.6296Z" fill="#FB3412"/>
<path d="M31.4124 38.5325C34.3157 36.3287 34.8828 32.1885 32.679 29.2852C30.4752 26.3819 26.335 25.8149 23.4317 28.0187C20.5284 30.2226 19.9613 34.3627 22.1652 37.266C24.369 40.1693 28.5091 40.7364 31.4124 38.5325Z" fill="#FC3512"/>
<path d="M31.5165 38.4904C34.3902 36.248 34.9021 32.1004 32.6596 29.2266C30.4172 26.3528 26.2696 25.8411 23.3958 28.0835C20.522 30.326 20.0102 34.4735 22.2527 37.3473C24.4951 40.2211 28.6427 40.7329 31.5165 38.4904Z" fill="#FD3512"/>
<path d="M31.5544 38.3957C34.3982 36.1157 34.8554 31.9619 32.5754 29.118C30.2954 26.2741 26.1416 25.8171 23.2977 28.097C20.4539 30.377 19.9967 34.5308 22.2767 37.3747C24.5567 40.2185 28.7105 40.6757 31.5544 38.3957Z" fill="#FE3612"/>
<path d="M31.6339 38.3336C34.4482 36.0171 34.8519 31.8577 32.5355 29.0433C30.219 26.229 26.0596 25.8254 23.2453 28.1418C20.4309 30.4583 20.0273 34.6176 22.3437 37.432C24.6602 40.2463 28.8195 40.65 31.6339 38.3336Z" fill="#FF3612"/>
<path fill-rule="evenodd" clip-rule="evenodd" d="M23.1816 35.455C23.6725 34.8004 24.5997 34.6368 25.2543 35.0732C25.9088 35.5641 26.0725 36.4914 25.6361 37.1459C25.1452 37.8005 24.2179 37.9641 23.5634 37.5277C22.8543 37.0914 22.6907 36.1641 23.1816 35.455Z" fill="#BF3021"/>
<path fill-rule="evenodd" clip-rule="evenodd" d="M22.581 29.0187C23.0719 28.3642 23.9992 28.2005 24.6537 28.6369C25.3082 29.1278 25.4719 30.0551 25.0356 30.7097C24.5447 31.3642 23.6174 31.5278 22.9628 31.0915C22.2537 30.6551 22.0901 29.7278 22.581 29.0187Z" fill="#BF3021"/>
<path fill-rule="evenodd" clip-rule="evenodd" d="M28.309 29.4007C28.7999 28.7461 29.7271 28.5825 30.3817 29.0189C31.0362 29.5098 31.1999 30.437 30.7635 31.0916C30.2726 31.7461 29.3453 31.9098 28.6908 31.4734C28.0362 31.0371 27.8726 30.0552 28.309 29.4007Z" fill="#BF3021"/>
<path fill-rule="evenodd" clip-rule="evenodd" d="M29.3994 35.6185C29.8903 34.964 30.8175 34.8003 31.4721 35.2367C32.1266 35.7276 32.2903 36.6549 31.8539 37.3094C31.363 37.964 30.4357 38.1276 29.7812 37.6912C29.0721 37.2549 28.9085 36.3276 29.3994 35.6185Z" fill="#BF3021"/>
</svg>
