<svg width="149" height="170" viewBox="0 0 149 170" fill="none" xmlns="http://www.w3.org/2000/svg">
<path d="M83.6998 80.34C83.6998 80.34 70.1998 70.44 63.7998 90.14C63.7998 90.14 81.3998 85.54 83.6998 80.34Z" fill="#F9B818"/>
<path d="M136.4 64.14C136.4 64.14 134.1 58.24 134.8 57.84C135.5 57.34 138.1 61.94 138.1 61.94C138.1 61.94 137.6 53.34 138.8 53.44C140.1 53.54 140.9 59.64 140.9 59.64C140.9 59.64 142.7 51.44 143.5 52.34C144.3 53.24 143.6 60.14 143.6 60.14C143.6 60.14 145.9 54.24 147.4 55.34C148.9 56.44 144.3 62.54 144.3 62.54C144.3 62.54 147.1 59.54 148.1 60.74C149.1 61.94 143.1 66.24 143.1 66.24C143.1 66.24 144.5 92.84 109.3 98.04L104.6 81.74C104.7 81.54 133.4 77.94 136.4 64.14Z" fill="#993316"/>
<path d="M140 64.6401C140 64.6401 139.9 64.6401 140 64.6401C139.8 64.6401 139.7 64.4401 139.7 64.2401C139.7 64.1401 139.9 62.94 138 62.04C137.8 61.94 137.8 61.7401 137.9 61.6401C138 61.4401 138.2 61.44 138.3 61.54C140.6 62.64 140.3 64.2401 140.3 64.3401C140.3 64.5401 140.1 64.6401 140 64.6401Z" fill="#2D202A"/>
<path d="M54.5999 131.94C54.5999 131.94 38.0999 143.94 24.0999 131.74C12.4999 121.64 8.99989 105.64 8.99989 105.64C8.99989 105.64 0.499891 109.84 2.19989 108.24C3.89989 106.64 15.3999 103.44 15.3999 103.44C15.3999 103.44 27.8999 125.64 45.7999 116.44L54.5999 131.94Z" fill="#993316"/>
<path d="M17.2 106.24L9.5 110.74L8.6 109.04C8.6 109.04 2.3 111.04 0 108.74L13.4 100.44L17.2 106.24Z" fill="#EF8615"/>
<path d="M9.00011 110.44C8.90011 110.44 8.90011 110.44 8.80011 110.34C8.70011 110.24 8.60011 110.04 8.70011 109.94L10.3001 107.64C10.4001 107.54 10.6001 107.44 10.7001 107.54C10.8001 107.64 10.9001 107.84 10.8001 107.94L9.20011 110.24C9.20011 110.34 9.10011 110.44 9.00011 110.44Z" fill="#2D202A"/>
<path d="M7.9001 109.94H7.8001C7.6001 109.84 7.6001 109.74 7.6001 109.54L8.7001 106.74C8.8001 106.54 8.9001 106.54 9.1001 106.54C9.3001 106.64 9.3001 106.74 9.3001 106.94L8.2001 109.74C8.2001 109.84 8.1001 109.94 7.9001 109.94Z" fill="#2D202A"/>
<path d="M77.8 138.54C77.8 138.54 77.9 158.94 59.7 163.14C44.7 166.54 29.7 160.04 29.7 160.04C29.7 160.04 28.1 169.34 27.8 167.04C27.5 164.74 31.7 153.54 31.7 153.54C31.7 153.54 57.1 156.44 60.1 136.54L77.8 138.54Z" fill="#993316"/>
<path d="M34.9999 153.74L34.0999 162.64L32.1999 162.44C32.1999 162.44 30.0999 168.74 26.8999 169.24L27.9999 153.44L34.9999 153.74Z" fill="#EF8615"/>
<path d="M33.2998 162.94C33.1998 162.94 33.0998 162.84 32.9998 162.74L32.0998 160.14C31.9998 159.94 32.0998 159.84 32.2998 159.74C32.4998 159.64 32.5998 159.74 32.6998 159.94L33.5998 162.54C33.6998 162.74 33.5998 162.84 33.3998 162.94C33.3998 162.94 33.3998 162.94 33.2998 162.94Z" fill="#2D202A"/>
<path d="M32.3998 163.54C32.2998 163.54 32.1998 163.54 32.0998 163.44L30.4998 160.94C30.3998 160.84 30.3998 160.64 30.5998 160.54C30.6998 160.44 30.8998 160.44 30.9998 160.64L32.5998 163.14C32.6998 163.24 32.6998 163.44 32.4998 163.54H32.3998Z" fill="#2D202A"/>
<path d="M31.4002 164.74C31.3002 164.74 31.3002 164.74 31.2002 164.64L29.4002 163.04C29.3002 162.94 29.3002 162.74 29.4002 162.64C29.5002 162.54 29.7002 162.54 29.8002 162.64L31.6002 164.24C31.7002 164.34 31.7002 164.54 31.6002 164.64C31.6002 164.64 31.5002 164.74 31.4002 164.74Z" fill="#2D202A"/>
<path d="M86.5002 137.24C86.5002 137.24 78.9002 153.04 64.8002 161.34C64.8002 161.34 52.0002 152.94 49.8002 148.64C49.8002 148.64 54.5002 143.24 54.5002 138.64C54.5002 138.64 44.8002 140.64 38.1002 139.64C38.1002 139.64 34.7002 119.44 35.0002 116.94C35.0002 116.94 45.7002 116.34 49.7002 110.04L86.5002 137.24Z" fill="#E68888"/>
<path d="M80 149.14C80 149.14 57 130.24 45 113.74C45 113.74 62.2 89.4399 68.9 81.1399C68.9 81.1399 102.4 79.4399 109.9 79.9399C110 79.8399 122 118.14 80 149.14Z" fill="#F9B818"/>
<path d="M119.6 123.14C119.6 123.14 124.7 119.34 125.3 119.94C125.9 120.54 122.3 124.24 122.3 124.24C122.3 124.24 130.5 121.44 130.7 122.74C131 123.94 125.2 126.44 125.2 126.44C125.2 126.44 133.6 126.04 132.9 127.04C132.2 128.04 125.4 129.14 125.4 129.14C125.4 129.14 131.7 129.84 131 131.54C130.3 133.24 123.2 130.44 123.2 130.44C123.2 130.44 126.9 132.34 126 133.64C125.1 134.94 119.4 130.24 119.4 130.24C119.4 130.24 94.0999 138.54 79.8999 105.94L94.3999 97.14C94.3999 97.14 105.5 123.84 119.6 123.14Z" fill="#993316"/>
<path d="M84.6999 64.74L83.1999 78.94L79.8999 78.54C79.8999 78.54 83.9999 84.84 92.8999 85.64C101.3 86.34 99.6999 79.84 99.6999 79.84L95.9999 79.44L93.6999 66.94L84.6999 64.74Z" fill="#993316"/>
<path d="M65.8998 41.34C65.8998 41.34 72.3998 15.04 99.0998 19.74C116.3 22.74 128.5 53.64 112.8 67.74C92.8998 85.64 61.9998 63.64 65.8998 41.34Z" fill="#993316"/>
<path d="M95.1 74.24C95.1 74.24 89.2 74.74 84 71.34L83.5 76.44L95.7 78.14L95.1 74.24Z" fill="#5B1B1A"/>
<path d="M70.2002 88.64C70.2002 88.64 71.8002 105.54 81.4002 116.14C92.3002 128.14 106.5 132.84 110 131.94C113.5 131.04 116.3 121.44 115.7 120.24C115.1 119.04 91.5002 97.64 90.8002 90.24C90.2002 82.94 70.2002 88.64 70.2002 88.64Z" fill="#F9B818"/>
<path d="M98.4998 128.54H98.3998C76.3998 120.44 67.1998 94.04 67.0998 93.74C66.9998 93.54 67.0998 93.44 67.2998 93.34C67.4998 93.24 67.5998 93.34 67.6998 93.54C67.7998 93.84 76.7998 120.04 98.5998 127.94C98.7998 128.04 98.7998 128.14 98.7998 128.34C98.6998 128.44 98.5998 128.54 98.4998 128.54Z" fill="#2D202A"/>
<path d="M107.3 111.64C107.2 111.64 107.2 111.64 107.1 111.64C101.3 108.24 89.8998 91.24 89.4998 90.54C89.3998 90.44 89.3998 90.24 89.5998 90.14C89.6998 90.04 89.8998 90.04 89.9998 90.24C90.0998 90.44 101.7 107.84 107.4 111.14C107.5 111.24 107.6 111.44 107.5 111.54C107.6 111.64 107.4 111.64 107.3 111.64Z" fill="#2D202A"/>
<path d="M106.8 79.74C106.8 79.74 118.2 78.24 129.9 71.44C133.8 69.14 139.1 75.74 140 79.34C140.9 82.94 134.3 97.24 110 99.94L106.8 79.74Z" fill="#F9B818"/>
<path d="M110 97.44C109.9 97.44 109.9 97.44 110 97.44C109.8 97.44 109.7 97.2399 109.7 97.0399C109.7 96.9399 111.5 85.64 106 81.24C105.9 81.14 105.8 80.94 106 80.84C106.1 80.74 106.3 80.64 106.4 80.84C112.1 85.44 110.4 96.7399 110.3 97.1399C110.2 97.3399 110.1 97.44 110 97.44Z" fill="#2D202A"/>
<path d="M95.1 89.5399C88.5 89.5399 80 81.64 79.7 81.34C79.6 81.24 79.6 81.04 79.7 80.94C79.8 80.84 80 80.84 80.1 80.94C80.2 81.04 90 90.04 96.3 88.84C98.1 88.54 99.5 87.64 100.3 86.44C101.8 84.24 101.1 81.24 101.1 81.24C101.1 81.04 101.2 80.94 101.3 80.84C101.5 80.84 101.6 80.9399 101.7 81.0399C101.7 81.1399 102.4 84.24 100.8 86.74C99.9 88.14 98.4 89.04 96.4 89.44C96 89.44 95.6 89.5399 95.1 89.5399Z" fill="#2D202A"/>
<path d="M57.1002 138.14C56.0002 138.14 55.3002 137.54 55.3002 137.54C55.2002 137.44 55.2002 137.44 55.2002 137.34C55.2002 137.24 55.2002 137.14 55.3002 137.14L59.8002 131.94C59.9002 131.84 60.1002 131.84 60.2002 131.94C60.3002 132.04 60.3002 132.24 60.2002 132.34L55.9002 137.24C56.2002 137.44 56.8002 137.64 57.5002 137.44C58.6002 137.24 59.6002 136.34 60.5002 134.84C60.6002 134.74 60.8002 134.64 60.9002 134.74C61.0002 134.84 61.1002 135.04 61.0002 135.14C60.0002 136.84 58.8002 137.74 57.6002 138.04C57.4002 138.04 57.3002 138.14 57.1002 138.14Z" fill="#2D202A"/>
<path d="M67.9998 97.9399C67.9998 97.9399 78.7998 123.64 95.7998 128.94C95.7998 128.94 92.4998 132.34 86.4998 133.04C80.5998 133.74 64.6998 117.34 63.8998 110.94C63.0998 104.54 67.9998 97.9399 67.9998 97.9399Z" fill="#EF8615"/>
<path d="M55.5001 46.54C55.5001 46.54 39.8001 20.14 68.9001 14.94C76.7001 13.54 71.4001 4.84002 81.3001 1.94002C99.5001 -3.45998 99.5001 11.84 99.5001 11.84C99.5001 11.84 101.2 6.64 108 10.64C114.8 14.64 117.1 28.34 115.7 30.64C114 33.44 110.2 28.54 110.2 28.54C110.2 28.54 98.7001 10.24 82.9001 28.24C75.2001 36.94 82.9001 48.54 71.8001 49.74C71.8001 49.74 76.4001 60.24 73.0001 60.24C69.7001 60.14 51.8001 66.74 55.5001 46.54Z" fill="#2E1F22"/>
<path d="M75.0999 58.14C75.0999 58.14 68.2999 47.64 64.5999 55.64C60.0999 65.54 70.2999 67.74 74.6999 66.34C79.0999 64.94 75.0999 58.14 75.0999 58.14Z" fill="#993316"/>
<path d="M73.4 63.34C73.3 63.34 73.2 63.24 73.1 63.14C71.8 59.64 70.3 58.54 69.4 58.34C68.3 58.04 67.6 58.64 67.6 58.64C67.5 58.74 67.3 58.74 67.2 58.64C67.1 58.54 67.1 58.34 67.2 58.24C67.2 58.24 68.2 57.44 69.6 57.84C71.2 58.24 72.6 60.04 73.7 63.04C73.8 63.24 73.7 63.34 73.5 63.44C73.5 63.34 73.4 63.34 73.4 63.34Z" fill="#2D202A"/>
<path d="M102.7 59.64C102.5 59.64 102.2 59.6399 102 59.5399C99.4 58.9399 97.2 55.44 97.1 55.24C97 55.14 97.1 54.94 97.2 54.84C97.3 54.74 97.5 54.84 97.6 54.94C97.6 54.94 99.8 58.44 102.1 58.94C102.8 59.14 103.4 58.94 104 58.64C107.1 56.64 106.5 52.24 106.5 52.14C106.5 51.94 106.6 51.84 106.8 51.84C107 51.84 107.1 51.94 107.1 52.14C107.1 52.34 107.8 57.04 104.4 59.24C103.9 59.54 103.3 59.64 102.7 59.64Z" fill="#2D202A"/>
<path d="M91.2999 55.94C93.1999 58.24 92.8999 61.74 90.4999 63.64C88.1999 65.54 84.6999 65.24 82.7999 62.84C80.8999 60.54 81.1999 57.04 83.5999 55.14C85.9999 53.24 89.3999 53.54 91.2999 55.94Z" fill="#732116"/>
<path d="M117.4 45.24C119.3 47.54 119 51.04 116.6 52.94C114.3 54.84 110.8 54.54 108.9 52.14C107 49.74 107.3 46.34 109.7 44.44C112 42.54 115.5 42.94 117.4 45.24Z" fill="#732116"/>
<path d="M91.4999 47.44C92.4999 48.64 92.2998 50.3399 91.0998 51.3399C89.8998 52.3399 88.1998 52.14 87.1998 50.94C86.1998 49.74 86.3998 48.0399 87.5998 47.0399C88.6998 46.0399 90.4999 46.24 91.4999 47.44Z" fill="#2E1F22"/>
<path d="M109.2 39.64C110.2 40.84 110 42.54 108.8 43.54C107.6 44.54 105.9 44.34 104.9 43.14C103.9 41.94 104.1 40.24 105.3 39.24C106.5 38.24 108.3 38.44 109.2 39.64Z" fill="#2E1F22"/>
<path d="M102.9 53.64H102.8C102.6 53.54 102.6 53.44 102.6 53.24L104.3 48.54L101.1 50.64C101 50.64 100.9 50.74 100.9 50.64C100.8 50.64 100.7 50.54 100.7 50.44L98.2001 45.74C98.1001 45.64 98.2001 45.44 98.3001 45.34C98.4001 45.24 98.6001 45.34 98.7001 45.44L101.1 49.84L104.8 47.44C104.9 47.34 105.1 47.34 105.2 47.44C105.3 47.54 105.3 47.64 105.3 47.74L103.3 53.34C103.2 53.54 103.1 53.64 102.9 53.64Z" fill="#2D202A"/>
<path d="M83.6998 24.24C83.4998 24.24 83.3998 24.14 83.3998 23.94C83.3998 21.54 82.9998 20.14 82.3998 19.84C81.6998 19.44 80.3998 20.34 78.8998 21.34C76.9998 22.64 74.5998 24.24 71.9998 24.24C65.3998 24.24 65.2998 20.04 65.2998 20.04C65.2998 19.84 65.3998 19.74 65.5998 19.74C65.7998 19.74 65.8998 19.84 65.8998 20.04C65.8998 20.14 66.0998 23.64 71.9998 23.64C74.3998 23.64 76.6998 22.14 78.4998 20.84C80.1998 19.64 81.5998 18.74 82.5998 19.34C83.4998 19.84 83.8998 21.24 83.8998 23.94C83.9998 24.14 83.8998 24.24 83.6998 24.24Z" fill="#493B4B"/>
<path d="M88.5 19.74C88.3 19.74 88.2 19.54 88.2 19.44C88.2 19.44 88.4 16.64 86.9 15.54C86.5 15.24 85.3 15.64 84.1 15.94C82.1 16.54 79.6 17.24 78 16.14C77.1 15.44 76.6 14.24 76.5 12.44C76.5 12.24 76.6 12.14 76.8 12.14C77 12.14 77.1 12.24 77.1 12.44C77.1 14.04 77.6 15.14 78.3 15.64C79.6 16.64 82 15.94 83.9 15.34C85.4 14.84 86.7 14.54 87.3 15.04C89 16.34 88.8 19.34 88.8 19.44C88.8 19.64 88.6 19.74 88.5 19.74Z" fill="#493B4B"/>
<path d="M93.9001 17.8401C93.8001 17.8401 93.8002 17.8401 93.7002 17.8401C93.6002 17.7401 93.5002 17.5401 93.6002 17.4401C95.2002 14.6401 95.8002 12.7401 95.3002 11.9401C94.8002 11.0401 93.1002 11.14 91.2002 11.14C89.7002 11.14 88.2001 11.2401 86.9001 10.8401C85.5001 10.4401 84.6002 9.64005 84.0002 8.64005C83.1002 6.84005 83.7002 4.84005 83.8002 4.74005C83.9002 4.54005 84.0002 4.54004 84.2002 4.54004C84.4002 4.64004 84.4001 4.74006 84.4001 4.94006C84.4001 4.94006 83.8002 6.84006 84.6002 8.34006C85.1002 9.24006 85.9002 9.94005 87.1002 10.2401C88.3002 10.6401 89.7002 10.54 91.2002 10.54C93.2002 10.54 95.1002 10.44 95.8002 11.64C96.5002 12.74 95.9002 14.7401 94.1002 17.8401C94.1002 17.8401 94.0001 17.8401 93.9001 17.8401Z" fill="#493B4B"/>
<path d="M63.6999 38.94C61.5999 38.94 60 38.34 59 37.14C57.4 35.14 57.9999 32.24 58.0999 32.14C58.0999 31.94 58.3 31.84 58.5 31.94C58.7 31.94 58.7999 32.14 58.6999 32.34C58.6999 32.34 58.1 35.04 59.5 36.84C60.4 37.94 61.7999 38.44 63.7999 38.44C66.7999 38.44 68.6 36.74 70 35.34C71.1 34.34 71.9999 33.34 73.1999 33.44C74.0999 33.54 75 34.14 76 35.34C76.1 35.44 76.1 35.64 76 35.74C75.9 35.84 75.6999 35.84 75.5999 35.74C74.6999 34.64 73.8999 34.14 73.1999 34.04C72.2999 33.94 71.4999 34.74 70.3999 35.74C68.8999 37.24 66.9999 39.04 63.6999 39.04C63.7999 38.94 63.6999 38.94 63.6999 38.94Z" fill="#493B4B"/>
<path d="M63.4002 46.24C62.3002 46.24 61.3002 45.94 60.5002 45.34C58.9002 44.14 58.7002 42.1399 58.7002 42.0399C58.7002 41.8399 58.8002 41.74 59.0002 41.74C59.2002 41.74 59.3002 41.8399 59.3002 42.0399C59.3002 42.0399 59.4002 43.84 60.8002 44.84C61.9002 45.64 63.4002 45.74 65.4002 45.24C68.1002 44.54 69.9002 43.2399 71.4002 42.1399C73.2002 40.8399 74.6002 39.84 76.0002 41.74C76.1002 41.84 76.1002 42.0399 75.9002 42.1399C75.8002 42.2399 75.6002 42.2399 75.5002 42.0399C74.5002 40.6399 73.8002 41.1399 71.7002 42.5399C70.3002 43.5399 68.3002 44.9399 65.5002 45.6399C64.8002 46.1399 64.0002 46.24 63.4002 46.24Z" fill="#493B4B"/>
<path d="M105 19.7401C104.9 19.7401 104.8 19.7401 104.8 19.6401C104.7 19.5401 104.7 19.3401 104.8 19.2401C106.7 17.7401 107.6 16.2401 107.5 14.9401C107.4 13.5401 106.1 12.7401 106.1 12.6401C106 12.5401 105.9 12.3401 106 12.2401C106.1 12.1401 106.3 12.0401 106.4 12.1401C106.5 12.1401 108 13.1401 108.1 14.8401C108.2 16.3401 107.2 17.9401 105.2 19.6401C105.1 19.7401 105 19.7401 105 19.7401Z" fill="#493B4B"/>
<path d="M40.8999 138.14C40.7999 138.14 40.5999 138.04 40.5999 137.94C39.1999 133.34 37.9999 117.84 37.8999 117.24C37.8999 117.04 37.9999 116.94 38.1999 116.94C38.3999 116.94 38.4999 117.04 38.4999 117.24C38.4999 117.44 39.7999 133.24 41.1999 137.84C41.2999 137.84 41.1999 138.04 40.8999 138.14C40.9999 138.14 40.9999 138.14 40.8999 138.14Z" fill="#2D202A"/>
<path d="M35.3 121.14C35.1 121.14 35 121.04 35 120.84C35 120.64 35.1 120.54 35.3 120.54C35.4 120.54 41.8 120.24 47.5 116.84C47.6 116.74 47.8 116.84 47.9 116.94C48 117.04 47.9 117.24 47.8 117.34C41.9 120.84 35.4 121.14 35.3 121.14Z" fill="#2D202A"/>
<path d="M66.3998 159.34C66.2998 159.34 66.2998 159.34 66.1998 159.34C63.0998 157.44 53.3998 148.64 52.9998 148.24C52.8998 148.14 52.8998 147.94 52.9998 147.84C53.0998 147.74 53.2998 147.74 53.3998 147.84C53.4998 147.94 63.4998 157.04 66.4998 158.84C66.5998 158.94 66.6998 159.14 66.5998 159.24C66.5998 159.34 66.4998 159.34 66.3998 159.34Z" fill="#2D202A"/>
</svg>
