<svg xmlns="http://www.w3.org/2000/svg" viewBox="0 0 145.59 201.42"><defs><style>.cls-1{fill:#44b0d7;}.cls-2{fill:#f4eac1;}.cls-3{fill:#ffc8af;}.cls-4{fill:#ddeefd;}.cls-5,.cls-6{fill:#ff9d80;}.cls-6{opacity:0.51;}.cls-7,.cls-9{fill:none;stroke-linecap:round;stroke-linejoin:round;}.cls-7{stroke:#3f2732;}.cls-8{fill:#3f2732;}.cls-9{stroke:#d6402e;}.cls-10{fill:#93b7ce;}.cls-11{fill:#27263d;}.cls-12{fill:#78a941;}.cls-13{fill:#523544;}.cls-14{fill:#2e1f22;}.cls-15{fill:#493b4b;}</style></defs><g id="Layer_2" data-name="Layer 2"><g id="Layer_1-2" data-name="Layer 1"><rect class="cls-1" x="27.85" y="197.77" width="117.74" height="3.65" rx="1.24"/><path class="cls-2" d="M112.83,112.89V150a11.13,11.13,0,0,1-2.85,7.21c-4,4.79-12,8.06-21.1,8.06H84.54c-9.72,0-18.13-3.73-21.88-9.06A10.7,10.7,0,0,1,60.58,150V112.89c0-8.39,10.78-15.26,24-15.26h4.34C102.05,97.63,112.83,104.5,112.83,112.89Z"/><path class="cls-3" d="M71.71,183.57l6.62-18c1.71.08,13.79.07,15.25,0l6.62,18,9.15-1.52c6-22.21.9-30.24.9-30.24H61.66s-5.09,8,.9,30.24Z"/><path class="cls-4" d="M61,175.46c.41,2,1.58,8.08,2.21,10.43l8.11.2,3.37-10.63Z"/><path class="cls-4" d="M110.9,175.46H97.21l3.48,12.36,7.73-.38C109.05,185.08,110.49,177.51,110.9,175.46Z"/><path class="cls-5" d="M86,92.7v10.38l-9.84-3.84a5.66,5.66,0,0,0,3.69-6.89Z"/><path class="cls-5" d="M85.65,92.7v10.38l9.84-3.84a5.65,5.65,0,0,1-3.68-6.89Z"/><circle class="cls-5" cx="41.32" cy="59.71" r="10.71"/><circle class="cls-5" cx="132.09" cy="59.71" r="10.71"/><path class="cls-3" d="M118.92,23.17v6.14H50.22a40.69,40.69,0,0,0-5.87,21.07V68.57A25.88,25.88,0,0,0,70.16,94.38h35.67a23.58,23.58,0,0,0,23.5-23.5V50.38A40.76,40.76,0,0,0,118.92,23.17Z"/><circle class="cls-6" cx="59.25" cy="73.27" r="7.22"/><circle class="cls-6" cx="112.54" cy="73.27" r="7.22"/><path class="cls-7" d="M81,71.65a5.89,5.89,0,0,0,10.71.82"/><path class="cls-8" d="M74.13,62.66a2.47,2.47,0,1,1-2.47-2.47A2.47,2.47,0,0,1,74.13,62.66Z"/><path class="cls-8" d="M103.05,62.66a2.47,2.47,0,1,1-2.47-2.47A2.47,2.47,0,0,1,103.05,62.66Z"/><polyline class="cls-9" points="86.08 56.49 86.08 63.06 91.11 60.74 88.4 66.92"/><path class="cls-2" d="M44.74,124.33c16.52,0,30.75-10.53,31.43-11a7,7,0,0,0-8.34-11.13c-.28.2-14.28,10.4-27.37,7.86-6.26-1.22-11.35-5.17-15.58-12.1A7,7,0,1,0,13,105.18c6.31,10.33,14.68,16.56,24.89,18.52A36.35,36.35,0,0,0,44.74,124.33Z"/><path class="cls-3" d="M21.23,83.71c-4.23-.62-1.52,6.67-1.12,9.46-1.29.1-2.12-1.29-2.64-2.47L14.7,84.34c-.63-1.43-1.87-3.15-3.33-2.59-1.1.42-1.33,1.87-1.26,3a15.29,15.29,0,0,0,.82,4.13l-3-3.09c-1-1-2.5-2.16-3.75-1.42a2.23,2.23,0,0,0-.84,2.44,6.75,6.75,0,0,0,1.36,2.4,13.4,13.4,0,0,0,3.92,3.84,22.76,22.76,0,0,0-5.28-2.72c-1-.35-2.31-.57-3,.26-.9,1.1.26,2.69,1.41,3.54a28.13,28.13,0,0,0,5.13,3,5.35,5.35,0,0,0-3.52-.85,1.77,1.77,0,0,0-.9.31c-.88.72,0,2.11.79,2.89,2.29,2.14,4.67,4.31,7.6,5.45a9.17,9.17,0,0,0,12.24-5.12,16.43,16.43,0,0,0,1.29-7.58C23.84,85.4,21.24,83.72,21.23,83.71Z"/><path class="cls-8" d="M100.09,186.18l-.75,7.2c-.38,2.8,1.52,5.33,4,5.3l13.62-.15c1.58,0,2.29-2.27,1.09-3.44L108.7,186Z"/><rect class="cls-8" x="100.4" y="185.99" width="8.69" height="2.9"/><path class="cls-8" d="M72.19,186.18l.75,7.2c.38,2.8-1.52,5.33-4,5.3l-13.62-.15c-1.58,0-2.29-2.27-1.09-3.44l9.35-9.1Z"/><path class="cls-10" d="M73.82,97.29h24.6l.25,4.25-8.75,5.92-4.27-4.38-4.1,4.12-7.47-5.92S73.82,97,73.82,97.29Z"/><path class="cls-11" d="M59.79,140.94s-2.57,21.57,2.77,41.11H73.31l5-16.44H93.58l5.22,14.92,10.82.19s6.37-20.28,3.09-40.36C112.71,140.36,59,140.16,59.79,140.94Z"/><path class="cls-12" d="M74,150.42h0a2.71,2.71,0,0,1-2.7-2.7v-8a2.7,2.7,0,0,1,2.7-2.7h0a2.7,2.7,0,0,1,2.69,2.7v8A2.71,2.71,0,0,1,74,150.42Z"/><path class="cls-12" d="M100.27,149.84h0a2.71,2.71,0,0,1-2.69-2.7v-8a2.7,2.7,0,0,1,2.69-2.7h0a2.7,2.7,0,0,1,2.7,2.7v8A2.71,2.71,0,0,1,100.27,149.84Z"/><rect class="cls-13" x="57" y="188.06" width="8.59" height="2.01" rx="0.68"/><rect class="cls-13" x="107.73" y="191.15" width="8.59" height="2.01" rx="0.68"/><rect class="cls-13" x="55.26" y="191.15" width="8.59" height="2.01" rx="0.68"/><rect class="cls-13" x="105.22" y="187.81" width="8.59" height="2.01" rx="0.68"/><path class="cls-6" d="M55,51.68a1.81,1.81,0,1,1-1.81-1.81A1.81,1.81,0,0,1,55,51.68Z"/><path class="cls-6" d="M50.88,59.14a1.81,1.81,0,1,1-1.81-1.8A1.81,1.81,0,0,1,50.88,59.14Z"/><path class="cls-6" d="M50.62,47a1.81,1.81,0,1,1-1.8-1.8A1.8,1.8,0,0,1,50.62,47Z"/><path class="cls-6" d="M120.15,49.1a1.81,1.81,0,1,1-1.81-1.8A1.8,1.8,0,0,1,120.15,49.1Z"/><path class="cls-6" d="M126.84,57.6a1.8,1.8,0,1,1-1.8-1.8A1.8,1.8,0,0,1,126.84,57.6Z"/><path class="cls-6" d="M126.33,48.07a1.81,1.81,0,1,1-1.81-1.8A1.8,1.8,0,0,1,126.33,48.07Z"/><path class="cls-2" d="M112.11,164.69a7,7,0,0,0,8.82-.49C129.8,156.06,134.2,146.9,134,137c-.33-17.11-14.68-29.52-15.3-30a6.95,6.95,0,0,0-9,10.57c.2.18,10.25,9,10.42,19.8.08,5.82-2.73,11.26-8.6,16.65a7,7,0,0,0-.42,9.82A6.59,6.59,0,0,0,112.11,164.69Z"/><path class="cls-3" d="M116.91,166l-5.39-12s-12.65,0-11.41,10.54a9.32,9.32,0,0,0,4.22,10.77C110.86,179.43,118.32,172.76,116.91,166Z"/><path class="cls-14" d="M42.64,39.23s-2-43.68,37.52-30.75c10.53,3.44,9.7-11,24-8.08,26.15,5.42,16,24.52,16,24.52s5.6-5.42,11.4,4.16-.38,28.3-3.61,30.26C124.1,61.7,122.59,53,122.59,53s-2.24-30.64-33.71-18.63C73.58,40.2,75.51,59.82,61,54c0,0-1.23,16.26-5.42,14S24.84,62.1,42.64,39.23Z"/><path class="cls-15" d="M89.44,29.08a.45.45,0,0,1-.19-.59c1.52-3,2-5,1.44-5.8s-2.82-.72-5.34-.46c-3.23.34-7.23.76-10.45-1-8.18-4.4-5.61-9.72-5.59-9.78a.43.43,0,0,1,.58-.19h0a.44.44,0,0,1,.18.59h0c-.09.19-2.17,4.63,5.22,8.61,3,1.61,6.85,1.21,10,.88,2.91-.3,5.21-.54,6.14.83.79,1.17.36,3.23-1.38,6.7a.42.42,0,0,1-.58.19Z"/><path class="cls-15" d="M101.26,27.64h0a.45.45,0,0,1-.13-.61s2.05-3.36,1-5.72c-.27-.63-2.07-1-3.81-1.37-2.9-.6-6.51-1.36-7.72-3.88-.72-1.48-.51-3.33.62-5.64a.43.43,0,0,1,.58-.19.44.44,0,0,1,.19.58c-1,2-1.19,3.66-.61,4.87,1,2.13,4.4,2.84,7.11,3.41,2.22.46,4,.83,4.43,1.86,1.24,2.79-1,6.4-1.06,6.55A.43.43,0,0,1,101.26,27.64Z"/><path class="cls-15" d="M109.28,28.91a.52.52,0,0,1-.17-.16.45.45,0,0,1,.14-.6c3.91-2.49,5.77-4.39,5.71-5.84s-2.22-2.55-4.5-3.71a19.5,19.5,0,0,1-5.07-3.28,6.54,6.54,0,0,1-2.08-4.72,7.94,7.94,0,0,1,2.28-5,.43.43,0,0,1,.61,0,.44.44,0,0,1,0,.62,7.08,7.08,0,0,0-2,4.43A5.67,5.67,0,0,0,106,14.71a18.8,18.8,0,0,0,4.84,3.1c2.51,1.29,4.88,2.5,5,4.46.08,1.81-1.86,3.92-6.11,6.62A.42.42,0,0,1,109.28,28.91Z"/><path class="cls-15" d="M55,36.08c-2.64-1.42-4.18-3.23-4.58-5.4-.67-3.58,2-6.75,2.14-6.89a.43.43,0,0,1,.61,0,.44.44,0,0,1,0,.62s-2.54,3-1.94,6.15c.36,1.93,1.78,3.59,4.27,4.86,3.74,2,7.1,1,9.8.24,2.05-.58,3.82-1.09,5.24-.21,1.07.66,1.79,2,2.26,4.28a.44.44,0,0,1-.33.52.42.42,0,0,1-.51-.34c-.42-2-1-3.19-1.87-3.71-1.09-.67-2.62-.24-4.56.31-2.84.81-6.39,1.81-10.43-.31Z"/><path class="cls-15" d="M62.77,28.29c-2.64-1.42-4.18-3.24-4.58-5.4-.67-3.59,2-6.76,2.15-6.89A.43.43,0,0,1,61,16a.44.44,0,0,1,0,.61s-2.54,3-2,6.16c.36,1.92,1.78,3.58,4.27,4.86,3.74,2,7.1,1,9.81.24,2-.58,3.81-1.09,5.23-.21,1.08.66,1.8,2,2.27,4.28a.43.43,0,0,1-.85.18c-.41-2-1-3.19-1.87-3.71-1.09-.67-2.62-.24-4.55.3-2.85.81-6.39,1.82-10.44-.31Z"/><path class="cls-15" d="M49.74,45.06a6.25,6.25,0,0,1-3.05-8.29.44.44,0,0,1,.58-.22.45.45,0,0,1,.21.58,6,6,0,0,0,0,4.57c.82,1.71,2.64,2.93,5.43,3.63a23.75,23.75,0,0,0,9.49.19c3.09-.41,5.53-.73,6,2.62a.44.44,0,0,1-.37.49.43.43,0,0,1-.49-.37c-.32-2.37-1.54-2.33-5-1.87a24.83,24.83,0,0,1-9.81-.21A13,13,0,0,1,49.74,45.06Z"/><path class="cls-15" d="M121.71,38.65a.43.43,0,0,1-.22-.3.44.44,0,0,1,.34-.52c3.33-.66,5.39-1.87,6.14-3.58a4.55,4.55,0,0,0-.29-3.78.44.44,0,0,1,.15-.6.43.43,0,0,1,.59.15,5.38,5.38,0,0,1,.34,4.59c-.87,2-3.14,3.36-6.76,4.08A.4.4,0,0,1,121.71,38.65Z"/></g></g></svg>