<svg width="70" height="46" viewBox="0 0 70 46" fill="none" xmlns="http://www.w3.org/2000/svg">
<path d="M13.9206 6.86843C13.9206 6.86843 11.8515 5.18477 7.21875 5.5033V12.42C7.21875 12.42 15 11.9649 13.9206 6.86843Z" fill="#342B6E"/>
<path d="M13.9206 6.86843C13.9206 6.86843 11.8515 5.18477 7.21875 5.5033V6.64091C8.61309 7.05045 11.0419 7.86952 11.8515 8.50658C12.3913 8.96163 12.7061 9.68971 12.8861 10.3723C13.7406 9.5532 14.2354 8.41558 13.9206 6.86843Z" fill="#2F2763"/>
<path d="M7.21875 5.503V12.4197C7.21875 12.4197 8.47815 12.3287 9.87249 11.9191C10.2773 11.1455 10.5022 10.099 10.5022 8.91583C10.5022 7.5052 10.1424 6.27658 9.60262 5.503C8.92794 5.4575 8.11832 5.4575 7.21875 5.503Z" fill="#7F48C3"/>
<path d="M7.21946 12.3277C8.38699 12.3277 9.33346 10.8201 9.33346 8.96039C9.33346 7.10067 8.38699 5.59308 7.21946 5.59308C6.05193 5.59308 5.10547 7.10067 5.10547 8.96039C5.10547 10.8201 6.05193 12.3277 7.21946 12.3277Z" fill="#4D2D6E"/>
<path d="M7.93964 6.22977C7.93964 5.91124 7.62479 5.68372 7.21998 5.68372C6.81517 5.68372 6.50032 5.95676 6.5453 6.2753C6.5453 6.59383 6.77019 8.73252 7.175 8.73252C7.53483 8.68702 7.93964 6.54831 7.93964 6.22977Z" fill="#9C9FCE"/>
<path d="M8.79428 8.41293C8.97419 8.27642 9.33402 7.95789 9.06415 7.50284C8.88424 7.22982 8.7493 6.91129 8.20956 7.50284C8.07462 7.63936 6.90518 8.77697 7.17505 8.95899C7.4899 9.18651 8.65934 8.54945 8.79428 8.41293Z" fill="#9C9FCE"/>
<path d="M5.60053 8.41369C5.46559 8.27718 5.10577 8.32268 5.28568 7.5036C5.37564 7.18507 5.60053 6.95755 6.09529 7.5036C6.23023 7.64012 7.3547 8.73224 7.08482 8.91426C6.90491 9.18728 5.78044 8.5502 5.60053 8.41369Z" fill="#9C9FCE"/>
<path d="M8.02916 11.5998C8.02916 11.9183 7.71431 12.1459 7.3095 12.1459C6.90469 12.1459 6.58984 11.8728 6.58984 11.5998C6.58984 11.2813 6.90469 9.05157 7.3095 9.05157C7.71431 9.09708 8.02916 11.3268 8.02916 11.5998Z" fill="#9C9FCE"/>
<path d="M5.73609 9.73311C5.60115 9.86963 5.2863 10.2337 5.64613 10.6887C5.87102 10.9617 6.09591 11.2348 6.50072 10.5977C6.59068 10.4157 7.58021 9.18707 7.22038 9.00505C6.86055 8.82303 5.87102 9.5966 5.73609 9.73311Z" fill="#9C9FCE"/>
<path d="M8.70477 9.27867C9.15456 9.50619 9.55937 9.50619 9.19954 10.1888C9.0646 10.4618 8.97464 10.7348 8.34494 10.2343C8.16503 10.0977 6.86065 9.18766 7.08555 8.96014C7.31044 8.68711 8.52486 9.18766 8.70477 9.27867Z" fill="#9C9FCE"/>
<path d="M7.8053 8.9608C7.8053 9.41584 7.53543 9.77987 7.1756 9.77987C6.81577 9.77987 6.5459 9.41584 6.5459 8.9608C6.5459 8.50575 6.81577 8.14172 7.1756 8.14172C7.53543 8.14172 7.8053 8.50575 7.8053 8.9608Z" fill="#812413"/>
<path d="M7.1297 8.14172C6.76987 8.14172 6.5 8.50575 6.5 8.9608C6.5 9.32483 6.72489 9.64337 6.99476 9.73438C7.35459 9.73438 7.62446 9.37035 7.62446 8.9153C7.62446 8.55127 7.44455 8.23273 7.1297 8.14172Z" fill="#D93E4F"/>
<path d="M7.30852 8.96249C7.30852 9.23552 7.12861 9.41754 6.94869 9.41754C6.76878 9.41754 6.58887 9.23552 6.58887 8.96249C6.58887 8.68946 6.76878 8.50745 6.94869 8.50745C7.17359 8.50745 7.30852 8.73497 7.30852 8.96249Z" fill="#CE5638"/>
<path opacity="0.53" d="M7.84988 11.3734C7.84988 11.6919 7.62499 11.9649 7.35512 11.9649C7.08524 11.9649 6.86035 11.6919 6.86035 11.3734C6.86035 11.0548 7.08524 11.2369 7.35512 11.2369C7.62499 11.2369 7.84988 11.0093 7.84988 11.3734Z" fill="#9C9FCE"/>
<path opacity="0.53" d="M6.00457 10.2814C5.95959 10.4179 5.95959 10.5544 5.82465 10.5089C5.68972 10.4634 5.64474 10.2814 5.68972 10.1449C5.7347 10.0083 5.91461 9.91732 6.04955 9.96282C6.1395 10.0538 6.04955 10.1448 6.00457 10.2814Z" fill="#9C9FCE"/>
<path opacity="0.53" d="M8.07373 9.23438C8.07373 9.23438 8.9733 9.5984 9.06326 9.73491C9.10823 9.91693 9.06325 10.19 8.9733 10.19C8.88334 10.19 8.83836 9.91693 8.56849 9.73491C8.3436 9.5529 7.89381 9.32538 8.07373 9.23438Z" fill="#9C9FCE"/>
<path d="M7.21957 5.50293C6.00515 5.50293 5.01562 7.05007 5.01562 8.96126C5.01562 10.8724 6.00515 12.4196 7.21957 12.4196C8.43399 12.4196 9.42352 10.8724 9.42352 8.96126C9.42352 7.05007 8.43399 5.50293 7.21957 5.50293ZM7.21957 12.2376C6.09511 12.2376 5.19554 10.7814 5.19554 8.96126C5.19554 7.14108 6.09511 5.68493 7.21957 5.68493C8.34404 5.68493 9.24361 7.14108 9.24361 8.96126C9.24361 10.7814 8.34404 12.2376 7.21957 12.2376Z" fill="#85AFAF"/>
<path d="M18.7331 13.6005C18.7331 13.6005 16.664 11.9169 12.0312 12.2354V19.1521C12.0762 19.1521 19.8125 18.697 18.7331 13.6005Z" fill="#342B6E"/>
<path d="M18.7331 13.6005C18.7331 13.6005 16.664 11.9169 12.0312 12.2354V13.373C13.4256 13.7826 15.8544 14.6016 16.664 15.2387C17.2038 15.6937 17.5186 16.4218 17.6986 17.1044C18.5531 16.2853 19.0929 15.1477 18.7331 13.6005Z" fill="#2F2763"/>
<path d="M12.0762 12.2351V19.1518C12.0762 19.1518 13.3356 19.0608 14.7299 18.6512C15.1347 17.8777 15.3596 16.8311 15.3596 15.648C15.3596 14.2373 14.9998 13.0087 14.46 12.2351C13.7404 12.1896 12.9757 12.1896 12.0762 12.2351Z" fill="#972029"/>
<path d="M12.0769 19.0598C10.9074 19.0598 9.96289 17.5582 9.96289 15.6925C9.96289 13.8268 10.9074 12.3252 12.0769 12.3252C13.2463 12.3252 14.1909 13.8268 14.1909 15.6925C14.1459 17.5582 13.2013 19.0598 12.0769 19.0598Z" fill="#4D2D6E"/>
<path d="M12.7971 12.963C12.7971 12.6445 12.4822 12.417 12.0774 12.417C11.6726 12.417 11.3577 12.69 11.4027 13.0085C11.4027 13.3271 11.6276 15.4658 12.0324 15.4658C12.3473 15.4203 12.7971 13.2816 12.7971 12.963Z" fill="#9C9FCE"/>
<path d="M13.6517 15.1462C13.8316 15.0097 14.1914 14.6912 13.9216 14.2361C13.7417 13.9631 13.6067 13.6446 13.067 14.2361C12.932 14.3726 11.7626 15.5102 12.0325 15.6922C12.3023 15.9198 13.4718 15.2827 13.6517 15.1462Z" fill="#9C9FCE"/>
<path d="M10.458 15.147C10.323 15.0105 9.96319 15.056 10.1431 14.2369C10.2331 13.9183 10.458 13.6908 10.9527 14.2369C11.0877 14.3734 12.2121 15.4655 11.9422 15.6475C11.7174 15.9205 10.5929 15.2835 10.458 15.147Z" fill="#9C9FCE"/>
<path d="M12.8866 18.3331C12.8866 18.6516 12.5717 18.8791 12.1669 18.8791C11.7621 18.8791 11.4473 18.6061 11.4473 18.3331C11.4473 18.0146 11.7621 15.7849 12.1669 15.7849C12.5717 15.7849 12.8866 18.0146 12.8866 18.3331Z" fill="#9C9FCE"/>
<path d="M10.5486 16.466C10.4136 16.6025 10.0988 16.9666 10.4586 17.4216C10.6835 17.6946 10.9084 17.9676 11.3132 17.3306C11.4032 17.1486 12.3927 15.9199 12.0329 15.7379C11.718 15.5104 10.6835 16.3295 10.5486 16.466Z" fill="#9C9FCE"/>
<path d="M13.5165 16.0119C13.9663 16.2395 14.3711 16.2395 14.0113 16.922C13.8764 17.1951 13.7864 17.4681 13.1567 16.9676C13.0218 16.831 11.6724 15.9209 11.8973 15.6934C12.1222 15.4204 13.3366 15.9209 13.5165 16.0119Z" fill="#9C9FCE"/>
<path d="M12.6168 15.6929C12.6168 16.148 12.347 16.512 11.9871 16.512C11.6273 16.512 11.3574 16.148 11.3574 15.6929C11.3574 15.2379 11.6273 14.8738 11.9871 14.8738C12.347 14.8738 12.6168 15.2379 12.6168 15.6929Z" fill="#812413"/>
<path d="M11.9871 14.8738C11.6273 14.8738 11.3574 15.2379 11.3574 15.6929C11.3574 16.057 11.5823 16.3755 11.8522 16.4665C12.212 16.4665 12.4819 16.1025 12.4819 15.6474C12.4819 15.2834 12.257 14.9648 11.9871 14.8738Z" fill="#D93E4F"/>
<path d="M12.1659 15.6946C12.1659 15.9676 11.986 16.1497 11.8061 16.1497C11.6262 16.1497 11.4463 15.9676 11.4463 15.6946C11.4463 15.4216 11.6262 15.2396 11.8061 15.2396C11.986 15.2396 12.1659 15.4216 12.1659 15.6946Z" fill="#CE5638"/>
<path opacity="0.53" d="M12.7073 18.1055C12.7073 18.424 12.4824 18.697 12.2125 18.697C11.9427 18.697 11.7178 18.424 11.7178 18.1055C11.7178 17.787 11.9427 17.969 12.2125 17.969C12.4824 17.969 12.7073 17.7415 12.7073 18.1055Z" fill="#9C9FCE"/>
<path opacity="0.53" d="M10.8161 17.0135C10.7711 17.15 10.7711 17.2865 10.6362 17.241C10.5012 17.1955 10.4563 17.0135 10.5012 16.877C10.5462 16.7405 10.7261 16.6494 10.8611 16.6949C10.996 16.7404 10.906 16.877 10.8161 17.0135Z" fill="#9C9FCE"/>
<path opacity="0.53" d="M12.8872 15.9665C12.8872 15.9665 13.7868 16.3305 13.8767 16.467C13.9217 16.649 13.8767 16.9221 13.7868 16.9221C13.6968 16.9221 13.6518 16.649 13.382 16.467C13.1571 16.285 12.7073 16.0575 12.8872 15.9665Z" fill="#9C9FCE"/>
<path d="M12.078 12.2363C10.8636 12.2363 9.87402 13.7835 9.87402 15.6947C9.87402 17.6058 10.8636 19.153 12.078 19.153C13.2924 19.153 14.2819 17.6058 14.2819 15.6947C14.2369 13.7835 13.2924 12.2363 12.078 12.2363ZM12.078 18.971C10.9535 18.971 10.0539 17.5148 10.0539 15.6947C10.0539 13.8745 10.9535 12.4184 12.078 12.4184C13.2024 12.4184 14.102 13.8745 14.102 15.6947C14.057 17.5148 13.1575 18.971 12.078 18.971Z" fill="#85AFAF"/>
<path d="M52.7377 38.8115C52.7377 38.8115 50.2639 36.7638 44.6865 37.1734V45.5007C44.6865 45.5007 54.0421 44.9546 52.7377 38.8115Z" fill="#342B6E"/>
<path d="M52.7377 38.8115C52.7377 38.8115 50.2639 36.7638 44.6865 37.1734V38.5385C46.3507 39.039 49.2743 39.9946 50.2639 40.7682C50.8936 41.3143 51.2984 42.1788 51.5233 42.9979C52.5128 42.0423 53.1425 40.6772 52.7377 38.8115Z" fill="#2F2763"/>
<path d="M44.6865 37.1738V45.5011C44.6865 45.5011 46.1708 45.4101 47.88 44.9095C48.3298 43.9995 48.6446 42.7253 48.6446 41.3147C48.6446 39.631 48.2398 38.1294 47.5652 37.1738C46.7106 37.0828 45.766 37.0828 44.6865 37.1738Z" fill="#7F48C3"/>
<path d="M44.6868 45.3648C46.0779 45.3648 47.2056 43.5516 47.2056 41.3149C47.2056 39.0782 46.0779 37.265 44.6868 37.265C43.2957 37.265 42.168 39.0782 42.168 41.3149C42.168 43.5516 43.2957 45.3648 44.6868 45.3648Z" fill="#4D2D6E"/>
<path d="M45.8111 37.7196C44.6866 38.1291 43.832 39.7218 43.832 41.6785C43.832 43.2712 44.4167 44.6363 45.2264 45.2733C46.3508 44.8638 47.2054 43.2712 47.2054 41.3145C47.2054 39.7673 46.6657 38.4022 45.8111 37.7196Z" fill="#392256"/>
<path d="M45.5422 38.0368C45.5422 37.6728 45.1374 37.3542 44.6876 37.3542C44.1928 37.3542 43.833 37.6728 43.833 38.0368C43.833 38.4009 44.1029 40.9946 44.5527 40.9946C45.0474 40.9946 45.5422 38.4009 45.5422 38.0368Z" fill="#9C9FCE"/>
<path d="M46.5769 40.6773C46.7568 40.4953 47.2515 40.1313 46.9367 39.5852C46.7568 39.2212 46.5319 38.9026 45.9022 39.5852C45.7223 39.7672 44.3279 41.0869 44.6428 41.3599C45.0026 41.6329 46.397 40.8138 46.5769 40.6773Z" fill="#9C9FCE"/>
<path d="M42.7536 40.6773C42.5736 40.5408 42.1239 40.5863 42.3937 39.5852C42.4837 39.2212 42.7536 38.9026 43.3833 39.5852C43.5632 39.7672 44.9125 41.0414 44.5977 41.3144C44.2828 41.5874 42.9335 40.8138 42.7536 40.6773Z" fill="#9C9FCE"/>
<path d="M45.677 44.5434C45.677 44.9074 45.2722 45.2259 44.8224 45.2259C44.3726 45.2259 43.9678 44.9074 43.9678 44.5434C43.9678 44.1793 44.3726 41.4946 44.8224 41.4946C45.2722 41.4946 45.677 44.1338 45.677 44.5434Z" fill="#9C9FCE"/>
<path d="M42.8892 42.2686C42.7093 42.4506 42.3494 42.9056 42.7542 43.4062C43.0241 43.7247 43.294 44.0432 43.7888 43.2697C43.9237 43.0876 45.0482 41.586 44.6883 41.3585C44.2835 41.131 43.0241 42.0865 42.8892 42.2686Z" fill="#9C9FCE"/>
<path d="M46.4419 41.7224C46.9817 41.9954 47.4764 41.9955 47.0267 42.8145C46.8467 43.1331 46.7568 43.4516 45.9921 42.86C45.8122 42.7235 44.193 41.5859 44.4629 41.3129C44.7777 40.9944 46.217 41.5859 46.4419 41.7224Z" fill="#9C9FCE"/>
<path d="M45.3613 41.3139C45.3613 41.8599 45.0015 42.2695 44.5967 42.2695C44.1919 42.2695 43.832 41.8144 43.832 41.3139C43.832 40.7678 44.1919 40.3583 44.5967 40.3583C45.0015 40.3583 45.3613 40.8133 45.3613 41.3139Z" fill="#812413"/>
<path d="M44.5967 40.3583C44.1919 40.3583 43.832 40.8133 43.832 41.3139C43.832 41.7689 44.1019 42.133 44.4167 42.2695C44.8216 42.2695 45.1814 41.8144 45.1814 41.3139C45.1814 40.8588 44.9115 40.4493 44.5967 40.3583Z" fill="#D93E4F"/>
<path d="M44.7775 41.3145C44.7775 41.633 44.5976 41.8605 44.3277 41.8605C44.1028 41.8605 43.8779 41.633 43.8779 41.3145C43.8779 40.996 44.0578 40.7684 44.3277 40.7684C44.5976 40.7684 44.7775 41.0415 44.7775 41.3145Z" fill="#CE5638"/>
<path opacity="0.53" d="M45.4518 44.2275C45.4518 44.637 45.1819 44.9556 44.8221 44.9556C44.4623 44.9556 44.1924 44.637 44.1924 44.2275C44.1924 43.818 44.4173 44.091 44.7771 44.091C45.1369 44.091 45.4518 43.818 45.4518 44.2275Z" fill="#9C9FCE"/>
<path opacity="0.53" d="M43.2033 42.9522C43.1133 43.1342 43.1133 43.3162 42.9784 43.2252C42.7984 43.1797 42.7535 42.9521 42.7984 42.7701C42.8884 42.5881 43.0683 42.4971 43.2033 42.5426C43.3832 42.6336 43.2932 42.7701 43.2033 42.9522Z" fill="#9C9FCE"/>
<path opacity="0.53" d="M45.6766 41.6788C45.6766 41.6788 46.7561 42.0883 46.846 42.3158C46.936 42.4978 46.846 42.8619 46.7561 42.8619C46.6211 42.8619 46.5761 42.4978 46.2613 42.3158C45.9914 42.0428 45.4517 41.7698 45.6766 41.6788Z" fill="#9C9FCE"/>
<path d="M44.6869 37.175C43.2476 37.175 42.0332 39.0407 42.0332 41.316C42.0332 43.6367 43.2026 45.4569 44.6869 45.4569C46.1263 45.4569 47.3407 43.5912 47.3407 41.316C47.3407 39.0407 46.1263 37.175 44.6869 37.175ZM44.6869 45.2748C43.3376 45.2748 42.2581 43.5002 42.2581 41.316C42.2581 39.1318 43.3376 37.3571 44.6869 37.3571C46.0363 37.3571 47.1158 39.1318 47.1158 41.316C47.1158 43.5002 46.0363 45.2748 44.6869 45.2748Z" fill="#85AFAF"/>
<path d="M61.1488 11.7821C61.1488 11.7821 57.6405 4.81993 54.1771 4.13737C52.0181 3.72783 51.5684 13.1018 51.5684 13.1018L61.1488 11.7821Z" fill="#7F48C3"/>
<path d="M14.3709 17.6067C14.3709 17.6067 3.12628 4.50139 6.99444 0.63351C10.8176 -3.23437 38.4345 11.8731 38.4345 11.8731L14.3709 17.6067Z" fill="#6C3EAF"/>
<path d="M36.5002 10.8267C30.743 7.77793 13.5612 -0.958939 8.16374 0.087663C7.12923 5.00214 16.2599 15.6957 16.2599 15.6957L36.5002 10.8267Z" fill="#7F48C3"/>
<path d="M14.3709 17.6064C14.3709 17.6064 -1.14669 22.3389 0.067736 28.9371C1.28216 35.5352 26.2902 38.9935 40.5934 33.3055C54.8966 27.6174 63.8923 20.6552 63.8923 20.6552C63.8923 20.6552 68.1653 8.14153 68.1653 6.50337C68.1653 4.86521 66.681 2.68099 62.1382 5.50226C57.5954 8.32354 53.0975 12.5555 50.2638 12.5555C47.4302 12.5555 26.1553 6.59437 20.3531 7.32244C14.4159 8.05051 14.3709 17.6064 14.3709 17.6064Z" fill="#D93E4F"/>
<path opacity="0.42" d="M68.1208 6.50297C68.1208 6.18444 68.0758 5.86589 67.9409 5.54736C66.4566 10.1888 63.488 16.4684 57.5958 20.8824C48.3752 27.799 25.5261 34.6247 10.2783 34.8522C19.1391 36.8089 31.868 36.7634 40.5489 33.3051C54.8521 27.617 63.8478 20.6548 63.8478 20.6548C63.8478 20.6548 68.1208 8.18664 68.1208 6.50297Z" fill="#929FE4"/>
<path d="M42.4362 33.2144C42.4362 33.2144 40.3672 31.5307 35.7344 31.8492V38.7659C35.7794 38.8114 43.5157 38.3564 42.4362 33.2144Z" fill="#342B6E"/>
<path d="M42.4362 33.2144C42.4362 33.2144 40.3672 31.5307 35.7344 31.8492V32.9869C37.1287 33.3964 39.5575 34.2155 40.3672 34.8526C40.9069 35.3076 41.2218 36.0357 41.4017 36.7182C42.2563 35.9447 42.796 34.807 42.4362 33.2144Z" fill="#2F2763"/>
<path d="M35.7793 31.8947V38.8114C35.7793 38.8114 37.0387 38.7204 38.433 38.3108C38.8378 37.5372 39.0627 36.4907 39.0627 35.3075C39.0627 33.8969 38.7029 32.6683 38.1632 31.8947C37.4435 31.8492 36.6789 31.8037 35.7793 31.8947Z" fill="#7F48C3"/>
<path d="M35.78 38.7204C34.6106 38.7204 33.666 37.2187 33.666 35.353C33.666 33.4873 34.6106 31.9857 35.78 31.9857C36.9495 31.9857 37.894 33.4873 37.894 35.353C37.849 37.1732 36.9045 38.7204 35.78 38.7204Z" fill="#4D2D6E"/>
<path d="M36.4543 32.6233C36.4543 32.3047 36.1394 32.0772 35.7346 32.0772C35.3298 32.0772 35.015 32.3503 35.0599 32.6688C35.0599 32.9873 35.2848 35.126 35.6896 35.126C36.0495 35.0805 36.4993 32.9418 36.4543 32.6233Z" fill="#9C9FCE"/>
<path d="M37.3538 34.8064C37.5338 34.6699 37.8936 34.3514 37.6237 33.8963C37.4438 33.6233 37.3089 33.3048 36.7691 33.8963C36.6342 34.0329 35.4647 35.1705 35.7346 35.3525C36.0045 35.58 37.1739 34.9429 37.3538 34.8064Z" fill="#9C9FCE"/>
<path d="M34.1601 34.8072C34.0252 34.6707 33.6653 34.7162 33.8453 33.8971C33.9352 33.5786 34.1601 33.351 34.6549 33.8971C34.7898 34.0336 35.9143 35.1257 35.6444 35.3078C35.4195 35.5353 34.295 34.9437 34.1601 34.8072Z" fill="#9C9FCE"/>
<path d="M36.5448 37.9933C36.5448 38.3118 36.2299 38.5394 35.8251 38.5394C35.4203 38.5394 35.1055 38.2663 35.1055 37.9933C35.1055 37.6748 35.4203 35.4451 35.8251 35.4451C36.2299 35.4451 36.5448 37.6748 36.5448 37.9933Z" fill="#9C9FCE"/>
<path d="M34.2507 36.1269C34.1158 36.2634 33.8009 36.6274 34.1608 37.0825C34.3857 37.3555 34.6106 37.6285 35.0154 36.9915C35.1053 36.8094 36.0949 35.5808 35.735 35.3988C35.4202 35.1713 34.3857 35.9449 34.2507 36.1269Z" fill="#9C9FCE"/>
<path d="M37.2187 35.6715C37.6685 35.899 38.0733 35.899 37.7134 36.5816C37.5785 36.8546 37.4885 37.1276 36.8588 36.6271C36.7239 36.4906 35.3745 35.5805 35.5994 35.353C35.8243 35.0799 37.0388 35.535 37.2187 35.6715Z" fill="#9C9FCE"/>
<path d="M36.3199 35.3535C36.3199 35.8085 36.0501 36.1726 35.6902 36.1726C35.3304 36.1726 35.0605 35.8085 35.0605 35.3535C35.0605 34.8985 35.3304 34.5344 35.6902 34.5344C36.0501 34.5344 36.3199 34.8985 36.3199 35.3535Z" fill="#812413"/>
<path d="M35.6902 34.5344C35.3304 34.5344 35.0605 34.8985 35.0605 35.3535C35.0605 35.7175 35.2854 36.0361 35.5553 36.1271C35.9151 36.1271 36.185 35.763 36.185 35.308C36.185 34.944 35.9601 34.6254 35.6902 34.5344Z" fill="#D93E4F"/>
<path d="M35.8691 35.3518C35.8691 35.6248 35.6892 35.8068 35.5092 35.8068C35.3293 35.8068 35.1494 35.6248 35.1494 35.3518C35.1494 35.0787 35.3293 34.8967 35.5092 34.8967C35.6892 34.8967 35.8691 35.0787 35.8691 35.3518Z" fill="#CE5638"/>
<path opacity="0.53" d="M36.4104 37.7191C36.4104 38.0376 36.1855 38.3107 35.9157 38.3107C35.6458 38.3107 35.4209 38.0376 35.4209 37.7191C35.4209 37.4006 35.6458 37.5826 35.9157 37.5826C36.1855 37.5826 36.4104 37.4006 36.4104 37.7191Z" fill="#9C9FCE"/>
<path opacity="0.53" d="M34.5192 36.6729C34.4742 36.8094 34.4742 36.9459 34.3393 36.9004C34.2044 36.8549 34.1594 36.6729 34.2044 36.5364C34.2493 36.3999 34.4293 36.3089 34.5642 36.3544C34.6991 36.3999 34.6092 36.5364 34.5192 36.6729Z" fill="#9C9FCE"/>
<path opacity="0.53" d="M36.5903 35.627C36.5903 35.627 37.4899 35.991 37.5799 36.1276C37.6248 36.3096 37.5799 36.5826 37.4899 36.5826C37.3999 36.5826 37.355 36.3096 37.0851 36.1276C36.8602 35.9455 36.4104 35.718 36.5903 35.627Z" fill="#9C9FCE"/>
<path d="M35.7791 31.8944C34.5647 31.8944 33.5752 33.4415 33.5752 35.3527C33.5752 37.2639 34.5647 38.8111 35.7791 38.8111C36.9936 38.8111 37.9831 37.2639 37.9831 35.3527C37.9381 33.4415 36.9486 31.8944 35.7791 31.8944ZM35.7791 38.6291C34.6547 38.6291 33.7551 37.1729 33.7551 35.3527C33.7551 33.5326 34.6547 32.0764 35.7791 32.0764C36.9036 32.0764 37.8032 33.5326 37.8032 35.3527C37.7582 37.1274 36.8586 38.6291 35.7791 38.6291Z" fill="#85AFAF"/>
<path d="M1.59764 24.5684C1.28279 24.887 1.0579 25.2055 0.833008 25.5695C6.81516 31.3941 29.2595 34.6704 42.5731 29.5739C52.0636 25.7971 59.9349 21.2466 64.8825 17.6063C65.1074 16.9692 65.3323 16.2411 65.5572 15.5131C61.5541 18.3343 52.1086 23.7494 41.8985 27.7537C29.1695 32.6682 6.77018 29.5739 1.59764 24.5684Z" fill="#972029"/>
<path d="M41.898 27.7537C41.763 28.4818 41.6281 29.2099 41.4932 29.938C41.853 29.8015 42.2128 29.6649 42.5727 29.5739C52.0631 25.7971 59.9344 21.2466 64.882 17.6063C65.1069 16.9692 65.3318 16.2411 65.5567 15.5131C61.5536 18.3343 52.1081 23.7494 41.898 27.7537Z" fill="#781921"/>
<path d="M22.8261 11.1905C19.9025 10.1894 18.5531 9.14279 17.9684 8.18719C14.4151 10.7354 14.3701 17.5611 14.3701 17.5611C16.799 21.429 24.6252 23.1127 28.4484 22.6121C32.2716 22.1116 32.4965 15.4224 31.7318 13.6022C30.9222 11.8276 29.7978 13.5567 22.8261 11.1905Z" fill="#5B538A"/>
<path opacity="0.24" d="M27.5488 22.703H27.5039C23.4558 22.885 16.619 21.2013 14.3701 17.6065C14.3701 17.6065 14.3701 15.1492 15.1348 12.6465C16.1693 12.692 17.2937 12.8285 18.1033 13.0105C21.3418 13.8296 25.21 18.8806 27.5488 22.703Z" fill="#5B538A"/>
<path d="M31.688 13.6477C30.9233 11.8276 29.7539 13.5567 22.7822 11.1905C19.8586 10.1894 18.5092 9.14279 17.9245 8.18719C17.5647 8.46022 17.3848 8.64224 17.3848 8.64224C17.9695 9.55233 19.3638 10.6899 22.2874 11.691C29.2591 14.0573 30.3836 12.3281 31.1932 14.1483C31.7779 15.5134 31.8229 19.7908 30.0237 21.9295C32.3177 20.0184 32.3626 15.1494 31.688 13.6477Z" fill="#CBD0F2"/>
<path d="M40.5484 17.1515C40.5484 18.3801 39.5589 19.3357 38.3894 19.3357C37.175 19.3357 36.2305 18.3346 36.2305 17.1515C36.2305 15.9229 37.22 14.9673 38.3894 14.9673C39.6039 14.9673 40.5484 15.9684 40.5484 17.1515Z" fill="#515497"/>
<path d="M38.3896 19.472C37.1302 19.472 36.0957 18.4254 36.0957 17.1513C36.0957 15.8772 37.1302 14.8306 38.3896 14.8306C39.649 14.8306 40.6835 15.8772 40.6835 17.1513C40.6835 18.4254 39.649 19.472 38.3896 19.472ZM38.3896 15.0581C37.2651 15.0581 36.3206 16.0137 36.3206 17.1513C36.3206 18.2889 37.2651 19.2445 38.3896 19.2445C39.5141 19.2445 40.4586 18.2889 40.4586 17.1513C40.4586 16.0137 39.5141 15.0581 38.3896 15.0581Z" fill="#CBD0F2"/>
<path d="M47.0689 17.4251C47.0689 18.4262 46.2593 19.1998 45.3147 19.1998C44.3252 19.1998 43.5605 18.3807 43.5605 17.4251C43.5605 16.424 44.3702 15.6504 45.3147 15.6504C46.2593 15.6049 47.0689 16.424 47.0689 17.4251Z" fill="#515497"/>
<path d="M45.3159 19.3354C44.2813 19.3354 43.4268 18.4709 43.4268 17.4243C43.4268 16.3777 44.2813 15.5131 45.3159 15.5131C46.3504 15.5131 47.205 16.3777 47.205 17.4243C47.16 18.4709 46.3504 19.3354 45.3159 19.3354ZM45.3159 15.7406C44.4163 15.7406 43.6517 16.5142 43.6517 17.4243C43.6517 18.3343 44.4163 19.1079 45.3159 19.1079C46.2154 19.1079 46.9801 18.3343 46.9801 17.4243C46.9801 16.4687 46.2154 15.7406 45.3159 15.7406Z" fill="#CBD0F2"/>
<path d="M52.1079 17.016C52.1079 17.7896 51.5232 18.3811 50.7585 18.3811C49.9939 18.3811 49.4092 17.7896 49.4092 17.016C49.4092 16.2424 49.9939 15.6509 50.7585 15.6509C51.5232 15.6509 52.1079 16.2424 52.1079 17.016Z" fill="#515497"/>
<path d="M50.7586 18.4709C49.949 18.4709 49.3193 17.8338 49.3193 17.0147C49.3193 16.1957 49.949 15.5586 50.7586 15.5586C51.5683 15.5586 52.198 16.1957 52.198 17.0147C52.198 17.8338 51.5683 18.4709 50.7586 18.4709ZM50.7586 15.7406C50.084 15.7406 49.4992 16.2867 49.4992 17.0147C49.4992 17.7428 50.039 18.2889 50.7586 18.2889C51.4333 18.2889 52.0181 17.7428 52.0181 17.0147C52.0181 16.2867 51.4333 15.7406 50.7586 15.7406Z" fill="#CBD0F2"/>
<path d="M55.7957 16.3328C55.7957 16.9244 55.3009 17.425 54.7162 17.425C54.1315 17.425 53.6367 16.9244 53.6367 16.3328C53.6367 15.7413 54.1315 15.2407 54.7162 15.2407C55.3009 15.2407 55.7957 15.6958 55.7957 16.3328Z" fill="#515497"/>
<path d="M54.7163 17.5158C54.0416 17.5158 53.5469 16.9698 53.5469 16.3327C53.5469 15.6501 54.0866 15.1496 54.7163 15.1496C55.391 15.1496 55.8858 15.6956 55.8858 16.3327C55.9307 16.9698 55.391 17.5158 54.7163 17.5158ZM54.7163 15.3316C54.1766 15.3316 53.7268 15.7866 53.7268 16.3327C53.7268 16.8788 54.1766 17.3338 54.7163 17.3338C55.2561 17.3338 55.7058 16.8788 55.7058 16.3327C55.7058 15.7866 55.2561 15.3316 54.7163 15.3316Z" fill="#CBD0F2"/>
<path d="M56.0662 18.0165C56.0662 18.0165 64.837 22.84 68.7951 22.2029C72.7532 21.5659 65.6916 15.3773 65.6916 15.3773C65.6916 15.3773 54.357 14.1941 56.0662 18.0165Z" fill="#7F48C3"/>
<path d="M68.7945 22.203C70.5037 21.9299 70.1439 20.6103 69.1993 19.1997C69.5142 19.8367 69.7391 20.7923 68.5246 21.2474C66.8155 21.8844 58.4494 17.0154 56.7852 16.0143C56.0206 16.4239 55.6608 17.061 56.0656 18.0166C56.0656 18.0166 64.7914 22.84 68.7945 22.203Z" fill="#6C3EAF"/>
<path opacity="0.6" d="M21.342 8.77925C21.5669 8.91576 25.705 11.1455 31.3273 12.0101C36.9046 12.8746 43.9663 14.4673 43.9663 12.9201C43.9663 11.373 19.0931 7.3231 21.342 8.77925Z" fill="#929FE4"/>
<path d="M37.625 23.2973C37.625 23.2973 31.373 23.8889 30.7433 25.9366C30.1136 28.0298 31.1481 30.7601 31.1481 30.7601C31.1481 30.7601 51.9732 44.2294 63.3078 43.2283C63.3078 43.2283 65.3768 43.4103 65.3768 41.6811C65.3768 37.6768 47.5203 23.5704 47.5203 23.5704C47.5203 23.5704 41.5382 22.5238 37.625 23.2973Z" fill="#7F48C3"/>
<path opacity="0.42" d="M37.8049 24.1617C37.8049 24.1617 32.9022 24.3437 33.4869 26.1184C34.0716 27.8931 57.5505 39.9972 59.5745 38.7231C61.5985 37.4945 48.1049 24.5257 45.6761 24.1617C43.1573 23.7522 37.8049 24.1617 37.8049 24.1617Z" fill="#929FE4"/>
<path d="M49.0946 37.2219C46.3958 35.9478 43.7421 34.5827 41.0884 33.263C35.1062 30.2597 32.0926 27.7115 30.7883 25.8003C30.7883 25.8458 30.7433 25.8913 30.7433 25.9368C30.1136 28.03 31.1481 30.7603 31.1481 30.7603C31.1481 30.7603 51.7483 44.0021 63.3528 43.7746C64.4323 43.7746 65.4218 42.8645 65.4218 41.6814C65.4218 41.1353 65.1069 40.4527 64.5672 39.6337C64.972 40.2252 65.8716 42.2274 64.4772 42.3184C61.7335 42.5004 52.9627 39.0876 49.0946 37.2219Z" fill="#6C3EAF"/>
<path opacity="0.42" d="M63.3531 43.7745C64.4326 43.7745 65.4222 42.8644 65.4222 41.6813C65.4222 41.1808 65.1073 40.4982 64.6125 39.6791C65.0173 40.3617 65.827 42.2274 64.5226 42.3184C62.0488 42.5004 54.7622 39.7701 50.4893 37.8589C51.2989 39.1786 52.1085 40.4527 53.0081 41.6813C56.6963 43.001 60.3396 43.8655 63.3531 43.7745Z" fill="#929FE4"/>
<path d="M64.6126 39.6778C64.6126 39.6325 64.5674 39.6325 64.5674 39.5873C64.5674 39.6325 64.5674 39.6778 64.6126 39.6778Z" fill="#7F48C3"/>
<path opacity="0.6" d="M12.7078 19.062C12.7078 19.062 4.74655 21.0642 7.08543 23.3849C9.37934 25.7057 23.2327 24.7956 23.2327 24.7956C23.2327 24.7956 10.4588 21.3372 12.7078 19.062Z" fill="#929FE4"/>
<path d="M63.5778 5.68524C63.5778 5.68524 53.4576 11.4188 54.1773 12.1924C54.8969 12.9205 55.0319 12.8295 57.0109 12.4654C58.99 12.1014 64.6123 6.18579 63.5778 5.68524Z" fill="#BBC0FF"/>
<path d="M35.3768 29.0272C35.3768 29.2092 35.2418 29.3457 35.0619 29.3457C34.882 29.3457 34.7471 29.2092 34.7471 29.0272C34.7471 28.8452 34.882 28.7087 35.0619 28.7087C35.2418 28.7087 35.3768 28.8452 35.3768 29.0272Z" fill="#515497"/>
<path d="M39.2897 31.3948C39.2897 31.5313 39.1548 31.6678 39.0199 31.6678C38.84 31.6678 38.75 31.5313 38.75 31.3948C38.75 31.2128 38.8849 31.1218 39.0199 31.1218C39.1548 31.1218 39.2897 31.2583 39.2897 31.3948Z" fill="#515497"/>
<path d="M44.1021 33.8068C44.1021 33.9433 44.0122 34.0343 43.8772 34.0343C43.7423 34.0343 43.6523 33.9433 43.6523 33.8068C43.6523 33.6703 43.7423 33.5793 43.8772 33.5793C44.0122 33.5793 44.1021 33.6703 44.1021 33.8068Z" fill="#515497"/>
</svg>
