<svg width="313" height="307" viewBox="0 0 313 307" fill="none" xmlns="http://www.w3.org/2000/svg">
<path d="M241.861 224.572C241.861 225.28 241.15 226.697 240.439 226.697C239.727 226.697 238.305 225.989 238.305 225.28C238.305 224.572 239.016 223.155 239.727 223.155C241.15 223.155 241.861 223.863 241.861 224.572Z" fill="#EB027E"/>
<path d="M241.149 213.237C241.149 213.945 240.437 214.654 240.437 214.654C239.726 214.654 239.015 213.945 239.015 213.945C239.015 213.237 239.726 212.529 239.726 212.529C240.437 212.529 241.149 213.237 241.149 213.237Z" fill="#EB027E"/>
<path d="M258.222 238.032C258.222 238.74 257.511 239.449 257.511 239.449C256.799 239.449 256.088 238.74 256.088 238.74C256.088 238.032 256.799 237.323 256.799 237.323C257.511 237.323 257.511 237.323 258.222 238.032Z" fill="#EB027E"/>
<path d="M265.335 225.28C265.335 225.988 264.624 227.405 263.912 227.405C263.201 227.405 261.778 226.697 261.778 225.988C261.778 225.28 262.49 223.863 263.201 223.863C264.624 223.154 265.335 223.863 265.335 225.28Z" fill="#EB027E"/>
<path d="M251.108 215.362C251.108 216.071 251.108 216.071 250.397 216.071C249.686 216.071 249.686 216.071 249.686 215.362C249.686 214.654 249.686 214.654 250.397 214.654C250.397 214.654 251.108 214.654 251.108 215.362Z" fill="#EB027E"/>
<path d="M175.704 242.991C175.704 243.699 174.993 245.116 174.282 245.116C173.57 245.116 172.147 244.407 172.147 243.699C172.147 242.991 172.859 241.574 173.57 241.574C174.993 241.574 175.704 242.282 175.704 242.991Z" fill="#EB027E"/>
<path d="M174.992 232.365C174.992 233.073 174.28 233.782 174.28 233.782C173.569 233.782 172.857 233.073 172.857 233.073C172.857 232.365 173.569 231.656 173.569 231.656C174.28 230.948 174.992 231.656 174.992 232.365Z" fill="#EB027E"/>
<path d="M191.353 256.451C191.353 257.16 190.641 257.868 190.641 257.868C189.93 257.868 189.219 257.16 189.219 257.16C189.219 256.451 189.93 255.743 189.93 255.743C190.641 255.743 191.353 256.451 191.353 256.451Z" fill="#EB027E"/>
<path d="M199.178 243.7C199.178 244.408 198.467 245.825 197.755 245.825C197.044 245.825 195.621 245.116 195.621 244.408C195.621 243.7 196.332 242.283 197.044 242.283C197.755 242.283 199.178 242.991 199.178 243.7Z" fill="#EB027E"/>
<path d="M184.951 233.781C184.951 234.49 184.951 234.49 184.24 234.49C183.528 234.49 183.528 234.49 183.528 233.781C183.528 233.073 183.528 233.073 184.24 233.073C184.24 233.073 184.24 233.781 184.951 233.781Z" fill="#EB027E"/>
<path d="M110.974 249.367C111.685 249.367 112.397 250.784 112.397 251.492C112.397 252.2 110.974 252.909 110.263 252.909C109.551 252.909 108.84 251.492 108.84 250.784C108.84 250.075 109.551 249.367 110.974 249.367Z" fill="#EB027E"/>
<path d="M100.302 246.533C101.013 246.533 101.013 247.241 101.013 247.95C101.013 248.658 100.302 248.658 99.5903 248.658C98.8789 248.658 98.8789 247.95 98.8789 247.241C98.8789 246.533 99.5903 246.533 100.302 246.533Z" fill="#EB027E"/>
<path d="M128.756 239.448C129.467 239.448 129.467 240.157 129.467 240.865C129.467 241.574 128.756 241.574 128.044 241.574C127.333 241.574 127.333 240.865 127.333 240.157C128.044 239.449 128.044 239.448 128.756 239.448Z" fill="#EB027E"/>
<path d="M119.509 228.114C120.22 228.114 120.932 229.531 120.932 230.239C120.932 230.948 119.509 231.656 118.798 231.656C118.086 231.656 117.375 230.239 117.375 229.531C117.375 228.114 118.086 227.406 119.509 228.114Z" fill="#EB027E"/>
<path d="M105.28 238.032C105.992 238.032 105.992 238.74 105.992 238.74C105.992 239.449 105.28 239.449 105.28 239.449C104.569 239.449 104.569 238.74 104.569 238.74C103.858 238.032 104.569 238.032 105.28 238.032Z" fill="#EB027E"/>
<path d="M83.2294 261.41C83.9407 261.41 84.6521 262.119 84.6521 262.827C84.6521 263.535 83.9407 264.244 83.2294 264.244C82.518 264.244 81.8066 263.535 81.8066 262.827C81.8066 262.119 82.518 261.41 83.2294 261.41Z" fill="#EB027E"/>
<path d="M74.6928 262.119C75.4042 262.119 75.4042 262.119 75.4042 262.827C75.4042 263.535 75.4042 263.536 74.6928 263.536C73.9814 263.536 73.9814 263.535 73.9814 262.827C73.9814 262.827 73.9814 262.119 74.6928 262.119Z" fill="#EB027E"/>
<path d="M93.8998 249.367C94.6112 249.367 94.6112 249.367 94.6112 250.075C94.6112 250.784 94.6112 250.784 93.8998 250.784C93.1885 250.784 93.1885 250.784 93.1885 250.075C93.1885 249.367 93.1885 249.367 93.8998 249.367Z" fill="#EB027E"/>
<path d="M83.9403 242.991C84.6517 242.991 85.363 243.699 85.363 244.408C85.363 245.116 84.6517 245.825 83.9403 245.825C83.2289 245.825 82.5176 245.116 82.5176 244.408C82.5176 244.408 82.5176 243.699 83.9403 242.991Z" fill="#EB027E"/>
<path d="M76.1166 254.326C76.828 254.326 76.828 254.326 76.828 255.034C76.828 255.743 76.828 255.743 76.1166 255.743C75.4053 255.743 75.4053 255.743 75.4053 255.034C75.4053 255.034 75.4053 254.326 76.1166 254.326Z" fill="#EB027E"/>
<path d="M71.8485 206.861C72.5599 206.861 73.2712 207.57 73.2712 208.278C73.2712 208.987 72.5599 209.695 71.8485 209.695C71.1371 209.695 70.4258 208.987 70.4258 208.278C70.4258 207.57 71.1371 206.861 71.8485 206.861Z" fill="#EB027E"/>
<path d="M63.3119 207.57C64.0233 207.57 64.0233 207.57 64.0233 208.278C64.0233 208.987 64.0233 208.987 63.3119 208.987C62.6006 208.987 62.6006 208.987 62.6006 208.278C62.6006 207.57 62.6006 207.57 63.3119 207.57Z" fill="#EB027E"/>
<path d="M82.519 194.109C83.2303 194.109 83.2303 194.109 83.2303 194.818C83.2303 195.526 83.2303 195.526 82.519 195.526C81.8076 195.526 81.8076 195.526 81.8076 194.818C81.8076 194.818 81.8076 194.109 82.519 194.109Z" fill="#EB027E"/>
<path d="M71.8485 188.442C72.5599 188.442 73.2712 189.151 73.2712 189.859C73.2712 190.567 72.5599 191.276 71.8485 191.276C71.1371 191.276 70.4258 190.567 70.4258 189.859C70.4258 189.151 71.1371 188.442 71.8485 188.442Z" fill="#EB027E"/>
<path d="M64.7358 199.777C65.4471 199.777 65.4471 199.777 65.4471 200.485C65.4471 201.194 65.4471 201.194 64.7358 201.194C64.0244 201.194 64.0244 201.194 64.0244 200.485C64.0244 200.485 64.0244 199.777 64.7358 199.777Z" fill="#EB027E"/>
<path d="M62.5992 150.895C63.3106 151.603 63.3106 152.312 62.5992 153.02C61.8879 153.729 61.1765 153.729 60.4652 153.02C59.7538 152.312 59.7538 151.603 60.4652 150.895C61.1765 150.186 62.5992 150.186 62.5992 150.895Z" fill="#EB027E"/>
<path d="M56.9069 144.519C56.9069 144.519 56.9069 145.227 56.9069 145.936C56.9069 145.936 56.1955 145.936 55.4841 145.936C55.4841 145.936 54.7728 145.227 55.4841 144.519C56.1955 144.519 56.1955 144.519 56.9069 144.519Z" fill="#EB027E"/>
<path d="M78.9598 150.895C78.9598 150.895 78.9598 151.603 78.9598 152.312C78.9598 152.312 78.2485 152.312 77.5371 152.312C77.5371 152.312 77.5371 151.603 77.5371 150.895C78.2485 150.895 78.9598 150.895 78.9598 150.895Z" fill="#EB027E"/>
<path d="M77.5367 139.56C78.2481 140.269 78.2481 140.977 77.5367 141.685C76.8254 142.394 76.114 142.394 75.4027 141.685C74.6913 140.977 74.6913 140.269 75.4027 139.56C75.4027 138.852 76.8254 138.852 77.5367 139.56Z" fill="#EB027E"/>
<path d="M63.308 140.977V141.685H62.5967V140.977C62.5967 140.268 63.308 140.268 63.308 140.977Z" fill="#EB027E"/>
<path d="M60.4635 101.305C61.1749 102.014 61.1749 102.722 60.4635 103.43C59.7521 104.139 59.0408 104.139 58.3294 103.43C57.6181 102.722 57.6181 102.014 58.3294 101.305C59.0408 101.305 59.7521 101.305 60.4635 101.305Z" fill="#EB027E"/>
<path d="M54.0624 95.638C54.0624 95.638 54.0624 96.3464 54.0624 97.0549C54.0624 97.0549 53.351 97.0549 52.6396 97.0549C52.6396 97.0549 52.6396 96.3464 52.6396 95.638C53.351 94.9296 54.0624 94.9296 54.0624 95.638Z" fill="#EB027E"/>
<path d="M76.826 102.013C76.826 102.013 77.5374 102.722 76.826 103.43C76.826 103.43 76.1147 103.43 75.4033 103.43C75.4033 103.43 75.4033 102.722 75.4033 102.013C75.4033 101.305 76.1147 101.305 76.826 102.013Z" fill="#EB027E"/>
<path d="M74.691 89.9705C75.4024 90.6789 75.4024 91.3873 74.691 92.0958C73.9797 92.8042 73.2683 92.8042 72.557 92.0958C71.8456 91.3873 71.8456 90.6789 72.557 89.9705C73.2683 89.9705 73.9797 89.9705 74.691 89.9705Z" fill="#EB027E"/>
<path d="M61.1762 91.3872V92.0956H60.4648V91.3872C60.4648 91.3872 60.4648 91.3872 61.1762 91.3872Z" fill="#EB027E"/>
<path d="M76.8254 71.5513C76.8254 72.2597 75.4026 72.9682 74.6913 72.9682C73.9799 72.9682 73.2686 71.5513 73.2686 70.8429C73.2686 70.1345 74.6913 69.426 75.4026 69.426C76.114 70.1345 76.8254 70.8429 76.8254 71.5513Z" fill="#EB027E"/>
<path d="M78.2483 60.9244C78.2483 61.6329 77.537 61.6329 76.8256 61.6329C76.1143 61.6329 76.1143 60.9244 76.1143 60.216C76.1143 59.5076 76.8256 59.5076 77.537 59.5076C78.2483 59.5076 78.2483 60.216 78.2483 60.9244Z" fill="#EB027E"/>
<path d="M88.9192 89.2613C88.9192 89.9698 88.2079 89.9698 87.4965 89.9698C86.7852 89.9698 86.7852 89.2613 86.7852 88.5529C86.7852 87.8445 87.4965 87.8445 88.2079 87.8445C88.2079 88.5529 88.9192 88.5529 88.9192 89.2613Z" fill="#EB027E"/>
<path d="M99.5898 78.6351C99.5898 80.052 98.1671 80.7604 97.4557 80.052C96.033 80.052 95.3216 78.6351 96.033 77.9267C96.033 76.5099 97.4557 75.8014 98.1671 76.5099C99.5898 76.5099 100.301 77.2183 99.5898 78.6351Z" fill="#EB027E"/>
<path d="M87.4969 65.1749C87.4969 65.8833 86.7856 65.8834 86.7856 65.8834C86.0742 65.8834 86.0742 65.1749 86.0742 65.1749C86.0742 63.7581 86.7856 63.7581 86.7856 63.7581C87.4969 63.7581 88.2083 64.4665 87.4969 65.1749Z" fill="#EB027E"/>
<path d="M138.716 68.0093C138.716 68.7178 137.293 69.4262 136.582 69.4262C135.871 69.4262 135.159 68.0093 135.159 67.3009C135.159 66.5925 136.582 65.884 137.293 65.884C138.005 66.5925 138.716 67.3009 138.716 68.0093Z" fill="#EB027E"/>
<path d="M140.849 57.3824C140.849 58.0909 140.138 58.0909 139.426 58.0909C138.715 58.0909 138.715 57.3824 138.715 56.674C138.715 55.9656 139.426 55.9656 140.138 55.9656C140.138 55.9656 140.849 56.674 140.849 57.3824Z" fill="#EB027E"/>
<path d="M150.81 85.7194C150.81 86.4278 150.098 86.4278 149.387 86.4278C148.676 86.4278 148.676 85.7194 148.676 85.0109C148.676 84.3025 149.387 84.3025 150.098 84.3025C150.81 85.0109 151.521 85.0109 150.81 85.7194Z" fill="#EB027E"/>
<path d="M162.191 75.0931C162.191 76.51 160.769 77.2184 160.057 76.51C158.635 76.51 157.923 75.0931 158.635 74.3847C158.635 72.9679 160.057 72.2594 160.769 72.9679C161.48 72.9679 162.191 73.6763 162.191 75.0931Z" fill="#EB027E"/>
<path d="M150.098 61.6327C150.098 62.3412 149.387 62.3412 149.387 62.3412C148.676 62.3412 148.676 61.6327 148.676 61.6327C148.676 60.9243 149.387 60.9243 149.387 60.9243C150.098 60.2159 150.098 60.9243 150.098 61.6327Z" fill="#EB027E"/>
<path d="M207.718 73.6768C208.429 73.6768 209.852 73.6768 209.852 75.0936C209.852 75.8021 209.852 77.2189 208.429 77.2189C207.718 77.2189 206.295 77.2189 206.295 75.802C206.295 75.0936 206.295 73.6768 207.718 73.6768Z" fill="#EB027E"/>
<path d="M196.335 76.5107C197.047 76.5107 197.758 76.5107 197.758 77.2192C197.758 77.9276 197.758 78.636 197.047 78.636C196.335 78.636 195.624 78.636 195.624 77.9276C195.624 77.2192 195.624 76.5107 196.335 76.5107Z" fill="#EB027E"/>
<path d="M219.099 55.9663C219.81 55.9663 220.522 55.9663 220.522 56.6747C220.522 57.3832 220.522 58.0916 219.81 58.0916C219.099 58.0916 218.388 58.0916 218.388 57.3832C218.388 56.6747 218.388 55.9663 219.099 55.9663Z" fill="#EB027E"/>
<path d="M204.872 49.5903C205.583 49.5903 207.006 50.2988 207.006 51.0072C207.006 51.7156 206.295 53.1325 205.583 53.1325C204.872 53.1325 203.449 52.424 203.449 51.7156C203.449 51.0072 203.449 50.2988 204.872 49.5903Z" fill="#EB027E"/>
<path d="M197.045 65.8838C197.757 65.8838 197.757 65.8838 198.468 66.5922C198.468 67.3006 198.468 67.3007 197.757 68.0091C197.045 68.0091 197.045 68.0091 196.334 67.3006C196.334 66.5922 196.334 65.8838 197.045 65.8838Z" fill="#EB027E"/>
<path d="M243.284 62.3418C243.995 62.3418 244.707 62.3418 245.418 63.7587C245.418 64.4671 245.418 65.1755 243.995 65.8839C243.284 65.8839 242.573 65.8839 241.861 64.4671C241.861 63.7587 242.573 62.3418 243.284 62.3418Z" fill="#EB027E"/>
<path d="M234.037 64.4673C234.748 64.4673 234.748 64.4673 235.459 65.1757C235.459 65.8841 235.459 65.8841 234.748 66.5926C234.037 66.5926 234.037 66.5926 233.325 65.8841C233.325 65.1757 234.037 64.4673 234.037 64.4673Z" fill="#EB027E"/>
<path d="M252.533 48.1729C253.244 48.1729 253.244 48.1729 253.955 48.8813C253.955 49.5897 253.955 49.5897 253.244 50.2981C252.533 50.2981 252.533 50.2981 251.821 49.5897C251.821 48.8813 251.821 48.1729 252.533 48.1729Z" fill="#EB027E"/>
<path d="M241.148 43.2141C241.86 43.2141 242.571 43.2141 243.282 44.631C243.282 45.3394 243.282 46.0478 241.86 46.7563C241.148 46.7563 240.437 46.7563 239.726 45.3394C239.726 44.631 239.726 43.9225 241.148 43.2141Z" fill="#EB027E"/>
<path d="M234.747 56.6746C235.458 56.6746 235.458 56.6746 235.458 57.383C235.458 58.0914 235.458 58.0914 234.747 58.0914C234.035 58.0914 234.035 58.0914 234.035 57.383C234.035 56.6746 234.035 56.6746 234.747 56.6746Z" fill="#EB027E"/>
<path d="M248.265 103.431C248.976 103.431 249.687 103.431 250.399 104.139C250.399 104.848 250.399 105.556 248.976 106.265C248.265 106.265 247.553 106.265 246.842 104.848C246.842 104.848 247.553 104.139 248.265 103.431Z" fill="#EB027E"/>
<path d="M239.729 105.556C240.44 105.556 240.44 105.556 241.151 106.264C241.151 106.973 241.151 106.973 240.44 107.681C239.729 107.681 239.729 107.681 239.017 106.973C238.306 106.264 239.017 105.556 239.729 105.556Z" fill="#EB027E"/>
<path d="M257.512 89.2622C258.224 89.2622 258.224 89.2622 258.935 89.9706C258.935 90.6791 258.935 90.6791 258.224 91.3875C257.512 91.3875 257.512 91.3875 256.801 90.6791C256.801 89.9706 256.801 89.2622 257.512 89.2622Z" fill="#EB027E"/>
<path d="M246.132 85.0117C246.843 85.0117 247.554 85.0117 248.266 86.4286C248.266 87.137 248.266 87.8454 246.843 88.5539C246.132 88.5539 245.42 88.5539 244.709 87.137C244.709 85.7202 245.42 85.0117 246.132 85.0117Z" fill="#EB027E"/>
<path d="M239.73 97.7632C240.441 97.7632 240.441 97.7632 240.441 98.4716C240.441 99.18 240.441 99.18 239.73 99.18C239.019 99.18 239.019 99.18 239.019 98.4716C239.019 97.7632 239.019 97.7632 239.73 97.7632Z" fill="#EB027E"/>
<path d="M250.398 150.187C251.11 150.187 251.821 150.187 252.532 151.604C252.532 152.312 252.532 153.021 251.11 153.729C250.398 153.729 249.687 153.729 248.976 152.312C248.976 151.604 249.687 150.187 250.398 150.187Z" fill="#EB027E"/>
<path d="M241.862 152.312C242.574 152.312 242.574 152.313 243.285 153.021C243.285 153.729 243.285 153.729 242.574 154.438C241.862 154.438 241.862 154.438 241.151 153.729C240.44 153.021 241.151 152.312 241.862 152.312Z" fill="#EB027E"/>
<path d="M259.646 136.018C260.357 136.018 260.357 136.018 261.069 136.726C261.069 137.435 261.069 137.435 260.357 138.143C259.646 138.143 259.646 138.143 258.935 137.435C258.935 136.726 258.935 136.018 259.646 136.018Z" fill="#EB027E"/>
<path d="M248.265 131.059C248.977 131.059 249.688 131.059 250.4 132.476C250.4 133.185 250.4 133.893 248.977 134.601C248.265 134.601 247.554 134.601 246.843 133.185C246.843 132.476 247.554 131.768 248.265 131.059Z" fill="#EB027E"/>
<path d="M241.864 143.811C242.575 143.811 242.575 143.811 242.575 144.519C242.575 145.228 242.575 145.228 241.864 145.228C241.152 145.228 241.152 145.228 241.152 144.519C241.152 144.519 241.152 144.519 241.864 143.811Z" fill="#EB027E"/>
<path d="M246.839 189.151C247.551 189.859 247.551 191.276 246.128 191.984C245.417 192.693 243.994 192.693 243.283 191.276C242.571 190.567 242.571 189.151 243.994 188.442C245.417 188.442 246.128 188.442 246.839 189.151Z" fill="#EB027E"/>
<path d="M240.438 180.649C241.15 181.358 240.438 182.066 240.438 182.066C239.727 182.775 239.016 182.066 239.016 182.066C239.016 181.358 239.016 180.649 239.016 180.649C239.727 179.941 240.438 179.941 240.438 180.649Z" fill="#EB027E"/>
<path d="M267.469 193.401C267.469 194.109 267.469 194.818 267.469 194.818C266.758 195.526 266.047 194.818 266.047 194.818C265.335 194.109 266.047 193.401 266.047 193.401C266.047 192.692 266.758 192.692 267.469 193.401Z" fill="#EB027E"/>
<path d="M267.471 178.524C268.183 179.233 268.183 180.65 266.76 181.358C266.049 182.067 264.626 182.067 263.915 180.65C263.203 179.941 263.203 178.524 264.626 177.816C265.337 177.107 266.76 177.107 267.471 178.524Z" fill="#EB027E"/>
<path d="M249.685 177.107C249.685 177.816 249.685 177.816 249.685 178.524C248.974 178.524 248.974 178.524 248.263 178.524C248.263 177.816 248.263 177.816 248.263 177.107C248.974 176.399 249.685 176.399 249.685 177.107Z" fill="#EB027E"/>
<path d="M196.336 51.7156C196.336 51.7156 195.625 51.7156 196.336 51.7156C194.914 52.424 194.914 53.1324 194.202 53.8409C192.78 54.5493 192.068 55.9662 190.646 56.6746C189.934 58.0914 188.512 58.7999 187.089 60.2167C185.666 61.6336 184.243 63.0505 183.532 64.4673C182.109 65.8842 180.687 68.0095 179.264 69.4263C177.841 70.8432 176.418 72.9685 174.996 75.0938C173.573 77.219 172.15 78.6359 170.727 80.7612C169.305 82.8865 167.882 85.0118 167.171 86.4286C165.748 88.5539 165.037 90.6792 163.614 92.0961C162.191 94.2213 161.48 95.6382 160.768 97.7635C160.057 99.1804 159.346 101.306 158.634 102.722C157.923 104.139 157.212 105.556 156.5 106.973C155.789 108.39 155.789 109.098 155.078 110.515C154.366 111.224 154.366 111.932 154.366 112.641C154.366 113.349 154.366 113.349 154.366 113.349C154.366 113.349 154.366 113.349 155.078 112.641C155.078 111.932 155.789 111.224 156.5 110.515C157.212 109.807 157.923 108.39 158.634 107.682C159.346 106.265 160.057 104.848 161.48 103.431C162.191 102.014 163.614 100.597 164.325 98.4719C165.748 97.0551 166.459 94.9298 167.882 93.5129C169.305 91.3876 170.727 89.9708 171.439 87.8455C172.862 85.7202 174.284 84.3033 174.996 82.178C176.418 80.0528 177.841 78.6359 178.552 76.5106C179.975 74.3853 181.398 72.9685 182.109 70.8432C183.532 68.7179 184.243 67.301 185.666 65.8842C187.089 64.4673 187.8 62.342 188.512 60.9252C189.223 59.5083 190.646 58.0914 191.357 56.6746C192.068 55.2577 192.78 54.5493 193.491 53.8409C194.914 53.8409 195.625 53.1324 196.336 51.7156C195.625 51.7156 196.336 51.7156 196.336 51.7156Z" fill="#02DBF3"/>
<path d="M137.291 55.9663C137.291 55.9663 137.291 55.9663 137.291 56.6747C137.291 57.3832 137.291 58.0916 137.291 59.5085C137.291 61.6337 138.003 65.1759 138.003 68.718C138.003 70.8433 138.714 72.9686 138.714 75.0939C138.714 77.2192 139.426 79.3445 139.426 82.1782C139.426 84.3035 140.137 87.1372 140.137 89.9709C140.848 92.8046 140.848 94.9299 141.56 97.7637C142.271 100.597 142.271 102.723 142.982 105.556C143.694 108.39 143.694 110.515 144.405 113.349C145.116 118.308 145.828 122.559 146.539 126.809C147.25 130.351 147.962 133.894 147.962 136.019C147.962 137.436 148.673 138.144 148.673 138.853C148.673 139.561 148.673 139.561 148.673 139.561C148.673 139.561 148.673 139.561 148.673 138.853C148.673 138.144 148.673 137.436 148.673 136.019C148.673 133.894 147.962 130.351 147.962 126.809C147.25 122.559 147.25 118.308 146.539 113.349C146.539 111.224 145.828 108.39 145.828 105.556C145.828 102.723 145.116 100.597 145.116 97.7637C144.405 94.9299 144.405 92.8046 143.694 89.9709C142.982 87.1372 142.982 85.0119 142.271 82.1782C141.56 80.0529 141.56 77.2192 140.848 75.0939C140.137 72.9686 140.137 70.8433 139.426 68.718C138.714 65.1759 138.003 61.6337 137.291 59.5085C137.291 58.0916 136.58 57.3832 136.58 56.6747C137.291 55.9663 137.291 55.9663 137.291 55.9663Z" fill="#EB027E"/>
<path d="M83.2285 58.0911C83.9399 58.7995 83.9399 59.5079 84.6512 59.5079C85.3626 60.9248 86.7853 62.3416 88.208 63.7585C89.6308 65.1754 91.7648 67.3007 93.8989 69.4259C94.6103 70.1344 96.033 71.5512 97.4557 72.9681C98.8784 74.385 99.5898 75.0934 101.013 76.5102C102.435 77.9271 103.147 78.6355 104.569 80.0524C105.992 81.4692 106.703 82.1777 108.126 83.5945C110.26 85.7198 112.394 87.8451 114.528 89.262C116.662 90.6788 118.085 92.0957 119.508 93.5126C120.219 94.221 120.219 94.221 120.931 94.9294L121.642 95.6378C121.642 95.6378 121.642 95.6378 121.642 94.9294C121.642 94.9294 120.931 94.221 120.931 93.5126C120.219 92.0957 118.797 90.6788 117.374 88.5535C115.951 86.4283 114.528 84.303 112.394 82.1777C111.683 80.7608 110.26 80.0524 109.549 78.6355C108.126 77.2187 107.415 76.5102 105.992 75.0934C104.569 73.6765 103.858 72.9681 102.435 71.5512C101.013 70.1344 100.301 69.4259 98.8784 68.7175C96.7444 66.5922 93.8989 65.1754 91.7648 63.7585C89.6308 62.3416 87.4967 60.9248 86.7853 60.2164C84.6512 58.7995 83.9399 58.7995 83.2285 58.0911Z" fill="#2471BA"/>
<path d="M78.248 88.5536C78.248 88.5536 78.9594 88.5536 78.248 88.5536C79.6708 89.2621 79.6708 89.9705 80.3821 89.9705C81.8049 91.3874 83.9389 92.8042 86.7844 94.2211C89.6298 96.3464 93.1866 98.4717 96.0321 100.597C97.4548 102.014 99.5889 102.722 101.723 104.139C103.857 105.556 105.28 106.973 107.414 107.681C109.548 109.098 110.971 110.515 113.105 111.223C115.239 112.64 116.662 114.057 118.796 114.766C122.352 116.891 125.198 119.725 128.043 121.85C130.889 123.975 133.023 125.392 134.446 126.809C135.157 127.517 135.868 127.517 136.58 128.226C137.291 128.226 137.291 128.934 137.291 128.934C137.291 128.934 137.291 128.934 136.58 128.226C136.58 127.517 135.868 127.517 135.157 126.809C133.734 125.392 132.311 123.267 129.466 121.141C127.332 119.016 124.487 116.182 120.93 113.349C119.507 111.932 117.373 110.515 115.95 109.098C114.527 107.681 112.393 106.264 110.259 104.848C108.125 103.431 106.702 102.014 104.568 101.305C102.434 99.8885 101.012 99.1801 98.8775 97.7632C95.3207 95.6379 91.7639 93.5127 88.2071 92.0958C85.3617 90.6789 82.5162 89.2621 80.3821 88.5536C79.6708 87.8452 78.9594 87.8452 78.248 87.8452C78.9594 88.5536 78.248 88.5536 78.248 88.5536Z" fill="#2E60A2"/>
<path d="M30.5893 100.597C30.5893 100.597 30.5893 100.597 31.3007 100.597C32.012 100.597 32.7234 100.597 33.4347 101.306C35.5688 101.306 38.4143 102.014 41.2597 102.723C44.8165 103.431 48.3733 104.139 52.6415 104.848C54.7756 105.556 56.9096 105.556 59.0437 106.265C61.8892 106.265 64.0232 106.973 66.1573 106.973C68.2914 107.682 70.4255 107.682 72.5596 108.39C74.6937 109.098 76.8277 109.807 78.9618 109.807C83.23 111.224 86.7868 111.932 90.3436 112.641C93.9004 113.349 96.7458 114.057 98.1686 114.766C98.8799 114.766 99.5913 115.474 100.303 115.474C101.014 115.474 101.014 115.474 101.014 115.474C101.014 115.474 101.014 115.474 100.303 114.766C99.5913 114.766 98.8799 114.057 98.1686 114.057C96.7458 113.349 93.9004 111.932 91.055 110.515C88.2095 109.098 84.6527 107.682 80.3845 106.265C78.2505 105.556 76.1164 104.848 73.9823 104.139C71.8482 103.431 69.7141 102.723 67.58 102.723C65.446 102.014 63.3119 102.014 60.4664 101.306C58.3324 100.597 56.1983 100.597 54.0642 99.8888C49.796 99.1804 45.5279 98.4719 41.9711 98.4719C38.4143 98.4719 34.8575 98.4719 32.7234 98.4719C31.3007 98.4719 30.5893 98.4719 29.8779 98.4719C30.5893 100.597 30.5893 100.597 30.5893 100.597Z" fill="#02DBF3"/>
<path d="M0 155.146H0.711361C1.42272 155.146 2.13408 154.438 3.5568 154.438C4.97953 153.729 6.40225 153.729 8.53633 153.021C9.95905 152.313 12.0931 151.604 14.2272 150.896C16.3613 150.187 18.4954 149.479 21.3408 148.77C24.1863 148.062 26.3203 147.354 29.1658 146.645C32.0112 145.937 34.8567 145.228 37.7021 144.52C40.5476 143.811 43.393 143.103 46.2384 142.395C49.7952 141.686 52.6407 140.978 55.4861 140.978C58.3316 140.269 61.177 140.269 64.0225 139.561C66.8679 139.561 69.7133 138.852 71.8474 138.852C74.6929 138.852 76.827 138.144 78.961 138.144C81.0951 138.144 83.2292 138.144 84.6519 137.436C86.0746 137.436 88.2087 137.436 88.9201 137.436C90.3428 137.436 91.0542 137.436 91.7655 137.436C92.4769 137.436 92.4769 137.436 92.4769 137.436C92.4769 137.436 92.4769 137.436 91.7655 137.436C91.0542 137.436 90.3428 137.436 88.9201 137.436C87.4974 137.436 86.0746 137.436 84.6519 137.436C83.2292 137.436 81.0951 137.436 78.961 137.436C76.827 137.436 74.6929 137.436 71.8474 137.436C69.7133 137.436 66.8679 137.436 64.0225 138.144C61.177 138.144 58.3316 138.852 55.4861 138.852C52.6407 139.561 49.7952 139.561 46.9498 140.269C44.1044 140.978 41.2589 141.686 38.4135 142.395C35.568 143.103 32.7226 143.811 29.8771 144.52C27.0317 145.228 24.1863 145.937 22.0522 147.354C19.2067 148.062 17.0727 148.77 14.9386 150.187C12.8045 150.896 10.6704 151.604 8.53633 153.021C6.40225 153.729 4.97953 154.438 3.5568 155.146C2.13408 155.855 1.42272 156.563 0.711361 156.563C0.711361 155.146 0 155.146 0 155.146Z" fill="#2E60A2"/>
<path d="M121.644 150.187C121.644 150.187 120.932 150.187 120.221 150.187C119.51 150.187 118.087 150.187 116.664 149.479C115.242 149.479 113.819 149.479 111.685 148.77C109.551 148.77 107.417 148.77 104.571 148.062C101.726 148.062 99.5917 148.062 96.7462 148.062C93.9008 148.062 91.0553 148.062 87.4985 148.77C84.6531 148.77 81.0963 149.479 77.5395 149.479C73.9827 150.187 70.4259 150.187 67.5804 150.896C64.0236 151.604 60.4668 152.313 57.6214 153.021C54.0646 153.729 51.2191 154.438 47.6623 155.855C44.1055 156.563 41.2601 157.98 38.4147 158.688C35.5692 159.397 32.7238 160.814 29.8783 162.231C27.0329 163.647 24.8988 164.356 22.7647 165.064C20.6306 165.773 19.2079 167.19 17.0738 167.898C16.3625 168.606 14.9397 169.315 14.2284 170.023C13.517 170.732 12.8057 170.732 12.8057 170.732C12.8057 170.732 13.517 170.732 14.2284 170.023C14.9397 170.023 16.3625 169.315 17.7852 168.606C19.2079 167.898 21.342 167.19 23.4761 166.481C25.6102 165.773 27.7442 165.064 30.5897 163.647C33.4351 162.939 35.5692 161.522 39.126 160.814C41.9715 160.105 44.8169 158.688 48.3737 157.98C51.2191 157.272 54.7759 156.563 58.3327 155.146C61.8896 154.438 65.4464 153.729 68.2918 153.021C71.8486 152.313 75.4054 151.604 78.2509 151.604C81.8077 150.896 84.6531 150.896 88.2099 150.187C91.0553 150.187 94.6121 149.479 97.4576 149.479C100.303 149.479 103.148 149.479 105.283 148.77C108.128 148.77 110.262 148.77 112.396 148.77C114.53 148.77 115.953 148.77 117.376 148.77C118.798 148.77 120.221 148.77 120.932 148.77C120.932 150.187 121.644 150.187 121.644 150.187Z" fill="#02DBF3"/>
<path d="M131.602 155.146C131.602 155.146 130.891 155.146 130.18 155.146C129.468 155.146 128.046 155.855 126.623 155.855C123.777 156.563 119.509 157.98 114.53 159.397C112.396 160.105 109.55 160.814 106.705 162.231C103.859 162.939 101.014 164.356 98.1684 165.773C95.3229 167.19 92.4775 168.607 88.9207 170.024C86.0753 171.44 82.5185 172.857 79.673 174.983C76.8276 176.399 73.2708 178.525 70.4253 179.942C67.5799 182.067 64.7344 183.484 61.889 185.609C56.1981 189.151 51.2186 193.402 46.9504 196.944C42.6823 200.486 39.1255 203.32 36.9914 205.445C35.5687 206.862 34.8573 207.57 34.1459 208.279C33.4346 208.987 33.4346 208.987 33.4346 208.987C33.4346 208.987 33.4346 208.987 34.1459 208.279C34.8573 207.57 35.5687 206.862 36.9914 206.153C39.1255 204.028 42.6823 201.194 46.9504 197.652C51.2186 194.11 56.1981 190.568 61.889 187.026C64.7344 184.901 67.5799 183.484 70.4253 181.358C73.2708 179.233 76.1162 177.816 79.673 176.399C82.5185 174.983 86.0753 172.857 88.9207 171.44C91.7661 170.024 95.3229 168.607 98.1684 167.19C101.014 165.773 103.859 164.356 106.705 163.648C109.55 162.231 112.396 161.522 114.53 160.814C119.509 159.397 123.066 157.98 125.911 157.272C127.334 156.563 128.757 156.563 129.468 156.563C130.891 155.855 131.602 155.146 131.602 155.146Z" fill="#02DBF3"/>
<path d="M82.5173 162.939C81.0945 162.939 81.0945 163.648 79.6718 163.648C78.2491 164.356 75.4036 165.064 72.5582 165.773C69.7128 166.481 66.8673 167.898 63.3105 169.315C61.8878 170.024 59.7537 170.732 58.331 171.44C56.9083 172.149 54.7742 172.857 52.6401 174.274C51.2174 174.983 49.7947 176.399 47.6606 177.108C46.2379 177.816 44.1038 179.233 42.6811 179.942C39.1243 182.067 36.2788 184.192 34.1447 186.317C31.2993 188.443 29.1652 189.86 27.7425 191.276C27.0311 191.985 26.3198 192.693 26.3198 192.693C25.6084 192.693 25.6084 193.402 25.6084 193.402C25.6084 193.402 25.6084 193.402 26.3198 192.693C27.0311 192.693 27.0311 191.985 28.4538 191.276C29.8766 190.568 32.0106 189.151 34.8561 187.734C37.7015 186.317 40.547 184.192 44.1038 182.775C45.5265 182.067 47.6606 180.65 49.0833 179.942C50.506 179.233 52.6401 177.816 54.0628 177.108C56.1969 176.399 57.6196 174.983 59.7537 174.274C61.1764 173.566 63.3105 172.857 64.7332 171.44C68.29 170.024 71.1355 168.607 73.9809 167.19C76.8264 165.773 78.9605 165.065 80.3832 164.356C81.0945 163.648 81.8059 163.648 82.5173 162.939Z" fill="#0288C9"/>
<path d="M124.489 166.481C124.489 166.481 124.489 166.481 123.778 166.481C123.067 166.481 122.355 167.19 121.644 167.19C119.51 167.898 116.664 169.315 113.108 170.732C109.551 172.149 105.283 174.274 101.726 176.399C99.5918 177.816 97.4577 178.525 95.3236 179.941C93.1895 181.358 91.0555 182.775 88.9214 184.192C86.7873 185.609 84.6532 187.026 82.5191 188.443C80.3851 189.859 78.251 191.276 76.8283 193.402C73.2715 196.235 69.7146 199.777 66.8692 201.903C64.0238 204.736 61.8897 206.862 60.467 208.987C59.7556 209.695 59.0442 210.404 58.3329 211.112C56.9102 211.821 56.9102 211.821 56.9102 211.821C56.9102 211.821 56.9102 211.821 57.6215 211.112C58.3329 210.404 59.0442 210.404 59.7556 209.695C61.1783 208.279 64.0238 206.153 66.8692 203.32C69.7146 201.194 73.2714 198.361 77.5396 194.818C79.6737 193.402 81.8078 191.985 83.2305 190.568C85.3646 189.151 87.4987 187.734 89.6327 186.317C91.7668 184.9 93.9009 183.484 96.035 182.067C98.1691 180.65 100.303 179.233 102.437 178.525C106.705 176.399 110.262 173.565 113.819 172.149C117.376 170.023 120.221 168.606 121.644 167.898C122.355 167.19 123.067 167.19 123.778 166.481C124.489 166.481 124.489 166.481 124.489 166.481Z" fill="#0288C9"/>
<path d="M97.4561 187.734C97.4561 187.734 97.4561 187.734 96.7448 188.442C96.0334 188.442 95.322 189.151 94.6107 189.859C93.188 191.276 90.3425 192.693 87.4971 194.818C84.6516 196.943 81.8062 199.777 78.2494 202.611C76.8267 204.028 74.6926 205.445 73.2699 207.57C71.8471 208.987 69.7131 211.112 68.2903 212.529C66.8676 213.946 64.7335 216.071 63.3108 218.196C61.8881 220.322 60.4654 221.739 59.0426 223.864C56.1972 227.406 54.0631 230.948 51.929 233.782C49.795 236.616 48.3722 239.449 46.9495 240.866C46.2381 241.575 46.2382 242.283 45.5268 242.991C45.5268 243.7 44.8154 243.7 44.8154 243.7C44.8154 243.7 44.8154 243.7 45.5268 242.991C45.5268 242.283 46.2381 241.575 46.9495 240.866C48.3722 239.449 49.795 236.616 52.6404 233.782C54.7745 230.948 57.6199 228.114 60.4654 224.572C61.8881 223.155 63.3108 221.03 64.7335 219.613C66.1562 218.196 67.579 216.071 69.7131 214.654C71.1358 213.237 73.2699 211.112 74.6926 209.695C76.1153 208.278 78.2494 206.153 79.6721 204.736C82.5175 201.902 86.0743 199.069 88.2084 196.235C91.0539 194.11 93.188 191.984 94.6107 190.568C96.0334 189.151 96.7448 188.442 97.4561 187.734Z" fill="#2E60A2"/>
<path d="M120.218 175.691C120.218 175.691 120.218 175.691 119.506 176.399C118.795 177.108 118.084 177.108 117.372 178.524C115.238 179.941 113.104 182.067 110.259 185.609C108.836 187.026 107.413 188.442 105.279 190.568C103.857 191.985 101.722 194.11 100.3 196.235C98.877 198.36 96.7429 200.486 95.3202 201.903C93.8975 204.028 91.7634 206.153 90.3407 208.278C88.918 210.404 87.4952 212.529 85.3612 214.654C83.9384 216.78 82.5157 218.905 81.093 221.03C78.2476 225.281 76.1135 229.531 73.9794 233.073C71.8453 236.616 70.4226 239.449 69.7112 241.575C68.9999 242.283 68.9999 243.7 68.2885 243.7C68.2885 244.408 67.5771 244.408 67.5771 244.408C67.5771 244.408 67.5772 244.408 68.2885 243.7C68.2885 242.992 68.9999 242.283 69.7112 241.575C71.134 239.449 72.5567 236.616 74.6908 233.073C76.8248 229.531 78.9589 225.281 81.8044 221.739C83.2271 219.613 84.6498 217.488 86.0725 215.363C87.4953 213.237 88.918 211.112 91.0521 208.987C92.4748 206.862 94.6089 204.736 96.0316 202.611C97.4543 200.486 99.5884 198.36 101.011 196.235C102.434 194.11 104.568 192.693 105.991 190.568C107.413 189.151 108.836 187.026 110.259 185.609C113.104 182.775 115.238 179.941 117.372 178.524C118.084 177.816 118.795 177.108 120.218 175.691C120.218 176.399 120.218 175.691 120.218 175.691Z" fill="#EB027E"/>
<path d="M140.139 163.647C140.139 163.647 140.139 163.647 139.428 164.356C138.717 165.064 138.005 165.773 137.294 166.481C136.582 167.19 135.16 168.606 133.737 170.023C132.314 171.44 130.892 172.857 129.469 174.982C128.046 176.399 126.623 178.524 125.201 180.65C123.778 182.775 121.644 184.9 120.221 187.026C118.798 189.151 116.664 191.985 115.242 194.11C113.819 196.944 112.396 199.069 110.973 201.903C109.551 204.736 108.128 206.862 106.705 209.695C105.283 212.529 103.86 214.654 103.148 217.488C101.726 220.322 101.014 222.447 100.303 224.572C99.5917 226.698 98.169 228.823 97.4576 230.948C96.7463 233.074 96.0349 235.199 95.3235 236.616C94.6122 238.033 94.6122 239.449 93.9008 240.866C93.1894 242.283 93.1895 242.992 93.1895 243.7C93.1895 244.408 93.1895 244.408 93.1895 244.408C93.1895 244.408 93.1894 244.408 93.9008 243.7C93.9008 242.992 94.6122 242.283 95.3235 240.866C96.0349 239.449 96.7463 238.033 97.4576 236.616C98.169 235.199 98.8803 233.074 99.5917 230.948C100.303 228.823 101.726 226.698 102.437 224.572C103.86 222.447 104.571 219.613 105.994 217.488C107.417 215.363 108.839 212.529 110.262 209.695C111.685 206.862 113.108 204.736 114.53 201.903C115.953 199.069 117.376 196.944 118.798 194.11C120.221 191.985 121.644 189.151 123.067 187.026C124.489 184.9 125.912 182.775 127.335 180.65C128.757 178.524 130.18 176.399 131.603 174.982C133.026 172.857 134.448 171.44 135.16 170.023C136.582 168.606 137.294 167.19 138.005 166.481C138.717 165.773 139.428 164.356 140.139 164.356C140.139 163.647 140.139 163.647 140.139 163.647Z" fill="#02DBF3"/>
<path d="M145.828 164.355C145.828 164.355 145.828 164.355 145.116 165.064C145.116 165.772 144.405 166.481 143.694 167.189C142.982 167.898 142.982 169.314 142.271 170.731C141.56 172.148 140.848 173.565 140.137 175.69C139.425 177.107 138.714 179.232 138.003 181.358C137.291 183.483 136.58 185.608 135.869 187.734C135.157 189.859 134.446 191.984 133.735 194.818C133.023 196.943 132.312 199.777 131.6 201.902C130.889 204.028 130.178 206.861 130.178 208.987C129.466 211.112 129.466 213.946 128.755 216.071C128.044 218.196 128.044 220.321 127.332 222.447C127.332 224.572 126.621 226.697 126.621 228.114C126.621 230.239 125.91 231.656 125.91 233.073C125.91 234.49 125.91 235.907 125.198 236.615C125.198 238.032 125.198 238.741 125.198 239.449C125.198 240.157 125.198 240.157 125.198 240.157C125.198 240.157 125.198 240.157 125.198 239.449C125.198 238.741 125.198 238.032 125.91 237.324C125.91 236.615 126.621 235.198 126.621 233.782C126.621 232.365 127.332 230.948 128.044 228.823C128.755 226.697 128.755 225.28 129.466 223.155C130.178 221.03 130.178 218.905 130.889 216.779C131.6 214.654 132.312 212.529 132.312 209.695C133.023 207.57 133.735 204.736 134.446 202.611C135.157 200.485 135.869 197.652 136.58 195.526C137.291 193.401 138.003 190.567 138.714 188.442C139.425 186.317 140.137 184.192 140.848 182.066C141.56 179.941 142.271 177.816 142.271 176.399C142.982 174.982 142.982 172.857 143.694 171.44C144.405 170.023 144.405 168.606 145.116 167.898C145.116 167.189 145.828 165.772 145.828 165.772C145.828 164.355 145.828 164.355 145.828 164.355Z" fill="#EB027E"/>
<path d="M121.644 206.861C121.644 206.861 121.644 206.861 120.932 207.57C120.932 208.278 120.221 208.987 119.51 209.695C118.798 210.403 118.798 211.82 118.087 213.237C117.376 214.654 116.664 216.071 115.953 217.488C115.241 218.905 114.53 221.03 113.819 222.447C113.107 224.572 112.396 225.989 111.685 228.114C110.973 230.24 110.262 232.365 109.551 234.49C108.839 236.615 108.128 238.741 107.416 240.866C106.705 242.991 105.994 245.117 105.994 247.242C105.282 249.367 105.282 251.492 104.571 253.618C103.86 255.743 103.86 257.868 103.148 259.994C103.148 262.119 102.437 263.536 102.437 265.661C102.437 267.078 101.726 269.203 101.726 270.62C101.726 272.037 101.726 273.454 101.726 274.162C101.726 274.871 101.726 275.579 101.726 276.287C101.726 276.996 101.726 276.996 101.726 276.996C101.726 276.996 101.726 276.996 101.726 276.287C101.726 275.579 101.726 274.871 102.437 274.162C102.437 273.454 103.148 272.037 103.148 270.62C103.148 269.203 103.86 267.786 103.86 266.369C104.571 264.953 104.571 262.827 105.282 260.702C105.994 258.577 105.994 256.451 106.705 255.035C107.416 252.909 108.128 250.784 108.128 248.659C108.839 246.533 109.551 244.408 110.262 242.283C110.973 240.158 111.685 238.032 112.396 235.907C113.107 233.782 113.819 231.656 114.53 229.531C115.241 227.406 115.953 225.28 116.664 223.864C117.376 221.738 118.087 220.321 118.087 218.196C118.798 216.779 119.51 214.654 119.51 213.946C120.221 212.529 120.221 211.112 120.932 210.403C120.932 209.695 121.644 208.987 121.644 208.278C120.932 206.861 121.644 206.861 121.644 206.861Z" fill="#0288C9"/>
<path d="M145.83 207.57C145.83 207.57 145.83 208.278 145.83 208.987C145.83 209.695 145.83 210.404 145.118 211.82C144.407 214.654 144.407 218.196 143.695 223.155C143.695 225.281 142.984 228.114 142.984 230.24C142.984 233.073 142.273 235.907 142.273 238.741C142.273 241.574 141.561 244.408 141.561 247.95C141.561 250.784 140.85 254.326 140.85 257.16C140.85 259.994 140.85 263.536 140.139 266.369C140.139 269.203 140.139 272.037 140.139 275.579C140.139 281.247 140.139 286.914 140.139 291.165C140.139 295.415 140.139 299.666 140.139 302.499C140.139 303.916 140.139 304.625 140.139 305.333C140.139 306.042 140.139 306.75 140.139 306.75C140.139 306.75 140.139 306.042 140.139 305.333C140.139 304.625 140.139 303.916 140.139 302.499C140.139 299.666 140.139 296.124 140.85 291.165C140.85 286.914 141.561 281.247 141.561 275.579C141.561 272.745 141.561 269.912 142.273 267.078C142.273 264.244 142.984 260.702 142.984 257.868C142.984 255.035 143.695 251.492 143.695 248.659C143.695 245.825 144.407 242.991 144.407 239.449C144.407 236.615 145.118 233.782 145.118 230.948C145.118 228.114 145.83 225.989 145.83 223.864C146.541 218.905 146.541 215.363 146.541 212.529C146.541 211.112 146.541 210.404 146.541 209.695C145.83 208.278 145.83 207.57 145.83 207.57Z" fill="#0288C9"/>
<path d="M151.521 159.397C151.521 159.397 151.521 159.397 151.521 160.105C151.521 160.814 151.521 161.522 151.521 162.939C151.521 164.356 151.521 165.773 151.521 167.189C151.521 168.606 151.521 170.732 151.521 172.857C151.521 174.982 151.521 177.107 151.521 179.941C151.521 182.066 151.521 184.9 152.232 187.734C152.232 190.568 152.232 193.401 152.943 196.235C152.943 199.069 153.655 201.903 153.655 204.736C153.655 207.57 154.366 210.404 154.366 213.237C154.366 216.071 155.077 218.905 155.077 221.739C155.077 224.572 155.789 226.698 155.789 229.531C155.789 231.657 156.5 234.49 156.5 236.616C156.5 238.741 157.211 240.866 157.211 242.283C157.211 243.7 157.923 245.825 157.923 246.534C157.923 247.95 157.923 248.659 158.634 249.367C158.634 250.076 158.634 250.076 158.634 250.076V249.367C158.634 248.659 158.634 247.95 158.634 246.534C158.634 245.117 158.634 243.7 158.634 242.283C158.634 240.866 158.634 238.741 158.634 236.616C158.634 234.49 158.634 232.365 158.634 229.531C158.634 227.406 158.634 224.572 157.923 221.739C157.923 218.905 157.923 216.071 157.211 213.237C157.211 210.404 156.5 207.57 156.5 204.736C156.5 201.903 155.789 199.069 155.789 196.235C155.789 193.401 155.077 190.568 155.077 187.734C155.077 184.9 154.366 182.775 154.366 179.941C154.366 177.816 153.655 174.982 153.655 172.857C153.655 170.732 152.943 168.606 152.943 167.189C152.943 165.773 152.232 163.647 152.232 162.939C152.232 161.522 152.232 160.814 151.521 160.105V159.397Z" fill="#02DBF3"/>
<path d="M159.346 176.399C159.346 177.107 159.346 177.107 159.346 177.816C159.346 178.524 159.346 179.941 159.346 181.358C159.346 182.775 160.057 184.9 160.057 187.025C160.057 187.734 160.768 189.151 160.768 189.859C160.768 190.568 161.48 191.984 161.48 192.693C161.48 193.401 162.191 194.818 162.191 195.527C162.191 196.235 162.903 197.652 162.903 198.36C163.614 200.486 164.325 201.902 164.325 203.319C165.037 204.736 165.037 206.153 165.748 206.861C165.748 207.57 165.748 207.57 166.459 207.57V208.278C166.459 208.278 166.459 208.278 166.459 207.57C166.459 207.57 166.459 206.861 166.459 206.153C166.459 205.445 166.459 204.028 166.459 202.611C166.459 201.194 165.748 199.069 165.748 196.943C165.748 196.235 165.748 194.818 165.037 194.11C165.037 193.401 164.325 191.984 164.325 191.276C164.325 190.568 163.614 189.151 163.614 188.442C163.614 187.734 162.903 186.317 162.903 185.609C162.191 183.483 161.48 182.066 161.48 180.65C160.768 179.233 160.057 177.816 160.057 177.107C159.346 177.107 159.346 177.107 159.346 176.399Z" fill="#2E60A2"/>
<path d="M170.017 233.782C170.017 234.49 170.017 235.199 170.017 235.907C170.017 237.324 170.017 238.741 170.017 240.866C170.017 242.991 170.017 245.117 170.017 247.95C170.017 249.367 170.017 250.784 170.017 251.492C170.017 252.909 170.017 254.326 170.728 255.743C170.728 257.16 170.728 258.577 171.439 259.994C171.439 261.41 171.439 262.827 172.151 263.536C172.151 266.369 172.862 268.495 172.862 270.62C172.862 272.745 173.573 274.162 173.573 275.579C173.573 276.288 173.573 276.287 173.573 276.996V277.704C173.573 277.704 173.573 277.704 173.573 276.996C173.573 276.996 173.573 276.288 173.573 275.579C173.573 274.162 173.573 272.745 173.573 270.62C173.573 268.495 173.573 266.369 173.573 263.536C173.573 262.119 173.573 260.702 173.573 259.994C173.573 258.577 173.573 257.16 173.573 255.743C173.573 254.326 173.573 252.909 172.862 251.492C172.862 250.076 172.862 248.659 172.151 247.95C172.151 245.117 171.439 242.991 170.728 240.866C170.017 238.741 170.017 237.324 170.017 235.907C170.728 234.49 170.728 234.49 170.017 233.782Z" fill="#2E60A2"/>
<path d="M168.593 184.191C168.593 184.191 168.593 184.191 169.304 184.9C169.304 185.608 170.015 186.317 170.727 187.025C171.438 189.15 172.861 191.984 174.284 194.818C174.995 196.235 175.706 198.36 177.129 200.485C177.84 202.611 179.263 204.736 179.975 206.861C180.686 208.986 182.109 211.112 182.82 213.237C183.531 215.362 184.954 217.488 185.665 219.613C186.377 221.738 187.8 223.863 188.511 225.989C189.222 228.114 189.934 230.239 191.356 232.365C192.779 236.615 194.202 240.866 195.624 243.699C197.047 247.242 197.759 250.075 198.47 252.201C198.47 252.909 199.181 254.326 199.181 254.326C199.181 255.034 199.181 255.034 199.181 255.034C199.181 255.034 199.181 255.034 199.181 254.326C199.181 253.618 199.181 252.909 198.47 252.201C197.759 250.075 197.047 247.242 196.336 243.699C195.624 240.157 194.202 235.907 192.779 231.656C192.068 229.531 191.356 227.406 190.645 225.28C189.934 223.155 189.222 221.03 187.8 218.196C187.088 216.071 185.665 213.945 184.954 211.82C184.243 209.695 182.82 207.57 182.109 205.444C181.397 203.319 179.975 201.194 179.263 199.777C178.552 197.652 177.129 196.235 176.418 194.818C174.995 191.276 172.861 189.15 172.15 187.025C171.438 186.317 171.438 185.608 170.727 184.9C168.593 184.9 168.593 184.191 168.593 184.191Z" fill="#EB027E"/>
<path d="M181.398 232.365C181.398 233.073 181.398 233.782 182.11 234.49C182.11 235.907 182.821 238.032 183.533 240.866C184.244 243.7 184.955 246.534 185.667 249.367C186.378 250.784 186.378 252.909 187.089 254.326C187.801 255.743 187.801 257.868 188.512 259.285C189.223 260.702 189.223 262.827 189.935 264.244C190.646 265.661 190.646 267.786 191.357 269.203C192.069 272.745 192.78 275.579 193.492 277.704C194.203 280.538 194.914 282.663 194.914 284.08C194.914 284.789 195.626 285.497 195.626 285.497C195.626 286.206 195.626 286.206 195.626 286.206C195.626 286.206 195.626 286.206 195.626 285.497C195.626 284.789 195.626 284.789 195.626 283.372C195.626 281.955 194.914 279.83 194.914 276.996C194.203 274.162 194.203 271.329 193.492 267.786C193.492 266.37 192.78 264.244 192.78 262.827C192.069 261.411 192.069 259.285 191.357 257.868C190.646 256.452 190.646 254.326 189.935 252.909C189.223 251.493 189.223 249.367 188.512 247.95C187.801 245.117 186.378 241.575 185.667 239.449C184.955 236.616 184.244 235.199 183.533 233.782C182.11 233.782 181.398 233.073 181.398 232.365Z" fill="#0288C9"/>
<path d="M170.017 165.064C170.017 165.064 170.017 165.064 170.728 165.772C171.439 166.481 172.151 167.189 172.862 167.898C173.573 168.606 174.996 170.023 176.419 171.44C177.842 172.857 179.264 174.274 180.687 175.69C182.11 177.107 184.244 179.233 185.667 181.358C187.801 183.483 189.223 185.608 191.357 187.734C193.492 189.859 194.914 191.984 197.048 194.11C199.182 196.235 200.605 199.069 202.739 201.194C204.873 203.319 206.296 206.153 208.43 208.278C210.564 210.403 211.987 213.237 213.41 215.362C214.832 217.488 216.966 219.613 218.389 221.738C219.812 223.864 221.235 225.989 222.657 228.114C224.08 230.24 224.791 231.656 226.214 233.073C226.925 234.49 228.348 235.907 229.06 237.324C229.771 238.741 230.482 239.449 230.482 240.158C231.194 240.866 231.194 240.866 231.194 240.866C231.194 240.866 231.194 240.866 230.482 240.158C230.482 239.449 229.771 238.741 229.06 237.324C228.348 235.907 227.637 234.49 226.925 233.073C226.214 231.656 225.503 229.531 224.08 227.406C222.657 225.28 221.946 223.155 220.523 221.03C219.101 218.905 217.678 216.779 216.255 213.946C214.832 211.82 212.698 208.987 211.276 206.861C209.853 204.736 207.719 201.902 205.585 199.777C203.451 197.652 202.028 194.818 199.894 192.693C197.76 190.567 195.626 188.442 194.203 186.317C192.069 184.192 189.935 182.066 188.512 180.649C186.378 178.524 184.955 177.107 182.821 175.69C181.398 174.274 179.264 172.857 177.842 171.44C176.419 170.023 174.996 169.315 174.285 168.606C172.862 167.898 172.151 167.189 171.439 166.481C170.017 165.064 170.017 165.064 170.017 165.064Z" fill="#02DBF3"/>
<path d="M184.953 160.105C184.953 160.105 184.953 160.105 185.664 160.814C186.376 160.814 187.087 161.522 187.798 162.231C189.221 162.939 189.933 163.647 191.355 164.356C192.778 165.064 194.201 165.773 196.335 167.19C198.469 167.898 199.892 169.315 202.026 170.732C204.16 172.149 206.294 172.857 208.428 174.274C210.562 175.691 212.696 177.108 214.83 178.524C216.964 179.941 219.098 181.358 221.944 182.775C224.078 184.192 226.212 185.609 229.057 187.734C231.191 189.151 233.326 190.568 235.46 192.693C237.594 194.11 239.728 195.527 241.151 196.944C243.285 198.36 244.707 199.777 246.13 201.194C247.553 202.611 248.975 204.028 250.398 204.736C251.821 206.153 252.532 206.862 253.955 207.57C254.666 208.278 255.378 208.987 256.089 209.695C256.8 210.404 256.8 210.404 256.8 210.404C256.8 210.404 256.8 210.404 256.089 209.695C255.378 208.987 254.666 208.278 253.955 207.57C253.244 206.862 251.821 205.445 251.11 204.736C249.687 203.319 248.264 201.903 246.841 200.486C245.419 199.069 243.996 197.652 241.862 196.235C239.728 194.818 238.305 192.693 236.171 191.276C234.037 189.859 231.903 187.734 229.769 186.317C227.635 184.9 225.501 182.775 222.655 181.358C220.521 179.941 217.676 178.524 215.542 177.108C213.407 175.691 210.562 174.274 208.428 172.857C206.294 171.44 204.16 170.732 202.026 169.315C199.892 167.898 197.757 167.19 195.623 166.481C193.489 165.773 192.067 165.064 190.644 164.356C189.221 163.647 187.798 162.939 186.376 162.939C184.953 162.231 184.242 162.231 183.53 162.231C185.664 160.105 184.953 160.105 184.953 160.105Z" fill="#2E60A2"/>
<path d="M248.264 221.738C248.264 221.738 246.13 218.196 241.862 213.945C241.151 212.528 239.728 211.82 238.305 210.403C236.882 208.986 236.171 207.569 234.748 206.153C233.326 204.736 231.903 203.319 230.48 201.902C229.057 200.485 227.635 199.068 226.212 197.651C224.789 196.235 223.367 194.818 221.232 193.401C219.81 191.984 218.387 190.567 216.964 189.859C214.119 187.025 211.273 184.9 208.428 183.483C203.448 179.941 199.892 177.815 199.892 177.815C199.892 177.815 203.448 180.649 208.428 184.191C210.562 186.317 213.407 188.442 216.964 191.276C218.387 192.692 219.81 194.109 221.232 195.526C222.655 196.943 224.078 198.36 225.501 199.777C226.923 201.194 228.346 202.61 229.769 204.027C231.191 205.444 232.614 206.861 234.037 208.278C235.46 209.695 236.882 211.112 238.305 212.528C239.728 213.945 240.439 215.362 241.862 216.071C245.419 218.904 248.264 221.738 248.264 221.738Z" fill="#EB027E"/>
<path d="M278.852 184.192C278.852 184.192 278.141 184.192 277.429 183.483C276.718 182.775 275.295 182.066 273.873 181.358C271.027 179.941 266.759 177.107 261.779 174.982C258.934 173.565 256.088 172.148 253.243 170.731C250.398 169.315 246.841 167.898 243.995 166.481C240.439 165.064 237.593 163.647 234.036 162.939C230.48 161.522 226.923 160.813 223.366 160.105C219.809 159.397 216.252 157.98 212.695 157.271C209.139 156.563 205.582 155.854 202.736 155.146C196.334 154.438 189.932 153.729 184.241 153.021C178.55 153.021 174.282 153.021 171.437 153.021C170.014 153.021 168.591 153.021 167.88 153.021C167.168 153.021 166.457 153.021 166.457 153.021C166.457 153.021 167.168 153.021 167.88 153.021C168.591 153.021 170.014 153.021 171.437 153.021C174.282 153.021 179.262 153.021 184.241 153.729C189.932 154.438 195.623 155.146 202.736 155.854C206.293 156.563 209.85 157.271 212.695 157.98C216.252 158.688 219.809 159.397 223.366 160.813C226.923 161.522 230.48 162.939 234.036 163.647C237.593 165.064 241.15 165.772 243.995 167.189C247.552 168.606 250.398 170.023 253.243 170.731C256.088 172.148 258.934 173.565 261.779 174.274C266.759 176.399 271.027 179.233 274.584 180.65C276.007 181.358 277.429 182.066 278.141 182.775C278.141 184.192 278.852 184.192 278.852 184.192Z" fill="#2E60A2"/>
<path d="M286.681 162.23C286.681 162.23 285.969 162.23 285.969 161.522C285.258 161.522 284.546 160.813 283.124 160.105C281.701 159.396 280.278 158.688 278.144 157.98C276.01 157.271 274.587 156.563 272.453 155.854C270.319 155.146 268.185 154.437 265.34 153.729C262.494 153.021 260.36 152.312 257.515 151.604C254.669 150.895 251.824 150.187 248.978 149.478C246.133 148.77 243.288 148.062 240.442 148.062C237.597 147.353 234.751 147.353 231.906 146.645C229.06 146.645 226.215 145.936 223.369 145.936C220.524 145.936 218.39 145.936 215.544 145.936C213.41 145.936 210.565 145.936 208.431 145.936C206.297 145.936 204.163 145.936 202.74 145.936C201.317 145.936 199.895 145.936 198.472 146.645C197.049 146.645 196.338 146.645 195.626 146.645C194.915 146.645 194.915 146.645 194.915 146.645H195.626C196.338 146.645 197.049 146.645 198.472 146.645C199.895 146.645 201.317 146.645 202.74 146.645C204.163 146.645 206.297 146.645 208.431 146.645C210.565 146.645 212.699 146.645 215.544 147.353C217.679 147.353 220.524 148.062 223.369 148.062C226.215 148.062 229.06 148.77 231.906 148.77C234.751 149.478 237.597 149.478 240.442 150.187C243.288 150.895 246.133 150.895 248.978 151.604C251.824 152.312 254.669 153.021 257.515 153.021C260.36 153.729 263.206 154.437 265.34 155.146C267.474 155.854 270.319 156.563 272.453 157.271C274.587 157.98 276.721 158.688 278.144 158.688C279.567 159.396 281.701 159.396 282.412 160.105C283.835 160.813 284.546 160.813 285.258 160.813C285.969 162.23 286.681 162.23 286.681 162.23Z" fill="#02DBF3"/>
<path d="M280.988 137.435C280.988 137.435 280.277 137.435 279.565 137.435C278.854 137.435 277.431 136.727 276.008 136.727C273.163 136.019 268.184 135.31 263.204 134.602C260.359 134.602 257.513 133.893 254.668 133.893C251.822 133.893 248.265 133.185 245.42 133.185C242.575 133.185 239.018 133.185 235.461 133.185C231.904 133.185 229.059 133.185 225.502 133.893C221.945 133.893 219.1 134.602 215.543 134.602C212.697 135.31 209.141 135.31 206.295 136.019C200.604 136.727 194.913 138.144 190.645 139.561C186.377 140.978 182.109 142.394 179.975 143.103C178.552 143.811 177.841 143.811 177.129 144.52C176.418 144.52 176.418 145.228 176.418 145.228C176.418 145.228 177.129 145.228 177.841 145.228C178.552 145.228 179.263 144.52 180.686 144.52C183.532 143.811 187.088 142.394 192.068 141.686C197.047 140.269 202.027 139.561 208.429 138.852C211.275 138.144 214.831 138.144 217.677 137.435C220.522 136.727 224.079 136.727 227.636 136.727C231.193 136.727 234.038 136.019 237.595 136.019C241.152 136.019 243.997 136.019 247.554 136.019C250.399 136.019 253.956 136.019 256.802 136.019C259.647 136.019 262.493 136.019 265.338 136.727C270.318 137.435 274.586 137.435 278.143 138.144C279.565 138.144 280.988 138.852 281.699 138.852C280.277 137.435 280.988 137.435 280.988 137.435Z" fill="#EB027E"/>
<path d="M264.627 111.223C263.915 111.223 263.204 111.223 262.492 111.223C261.07 111.223 258.936 111.223 256.09 111.932C253.956 111.932 251.111 112.64 248.265 113.349C246.843 113.349 245.42 114.057 243.997 114.057C242.574 114.057 241.152 114.765 239.729 115.474C238.306 116.182 236.883 116.182 235.461 116.891C234.038 117.599 232.615 117.599 231.193 118.308C228.347 119.016 226.213 120.433 224.079 121.141C221.945 121.85 220.522 122.558 219.811 123.267C219.099 123.267 219.099 123.975 218.388 123.975H217.677C217.677 123.975 217.677 123.975 218.388 123.975C219.099 123.975 219.099 123.975 219.811 123.267C221.234 123.267 223.368 122.558 225.502 121.85C227.636 121.141 230.481 120.433 233.327 119.724C234.749 119.016 236.172 119.016 237.595 118.308C239.018 117.599 240.44 117.599 241.863 116.891C243.286 116.182 244.708 116.182 246.131 115.474C247.554 114.765 248.977 114.765 250.399 114.057C253.245 113.349 255.379 112.64 257.513 111.932C259.647 111.223 261.07 110.515 262.492 110.515C263.204 111.223 263.915 111.223 264.627 111.223Z" fill="#0288C9"/>
<path d="M224.791 103.431C224.791 103.431 224.791 103.431 224.08 103.431C223.369 103.431 222.657 104.139 221.946 104.139C219.812 104.848 216.966 105.556 214.121 106.973C210.564 108.39 207.007 109.807 203.451 111.224C201.317 111.932 199.894 113.349 197.76 114.057C195.626 114.766 194.203 116.183 192.069 116.891C189.935 118.308 188.512 119.016 186.378 120.433C184.244 121.85 182.821 122.559 181.398 123.975C177.842 126.101 174.996 128.226 172.862 130.351C170.728 132.477 168.594 133.893 167.171 135.31C166.46 136.019 165.748 136.727 165.748 136.727L165.037 137.436C165.037 137.436 165.037 137.436 165.748 136.727C166.46 136.727 167.171 136.019 167.883 135.31C169.305 134.602 171.439 132.477 174.285 131.06C177.13 129.643 179.976 127.518 183.532 125.392C184.955 124.684 187.089 123.267 189.223 122.558C191.357 121.142 192.78 120.433 194.914 119.725C197.048 119.016 198.471 117.599 200.605 116.891C202.739 116.183 204.162 114.766 206.296 114.057C209.853 111.932 213.41 110.515 216.255 109.098C219.101 107.681 221.946 106.265 223.369 105.556C223.369 104.848 223.369 104.139 224.791 103.431Z" fill="#02DBF3"/>
<path d="M241.152 77.2185C241.152 77.2185 240.44 77.2185 239.729 77.9269C239.018 77.9269 238.306 78.6354 236.884 79.3438C234.038 80.7607 230.481 82.1775 226.213 84.3028C224.079 85.7197 221.945 86.4281 219.1 87.845C216.965 89.2618 214.12 90.6787 211.986 92.0955C209.141 93.5124 207.006 94.9293 204.161 97.0545C201.316 98.4714 199.181 100.597 196.336 102.014C194.202 104.139 191.357 105.556 189.222 107.681C187.088 109.806 184.243 111.223 182.109 113.348C177.841 116.891 173.572 120.433 170.727 123.975C167.17 126.809 165.036 129.642 162.902 131.768C162.191 132.476 161.479 133.184 160.768 133.893C160.057 134.601 160.057 134.601 160.057 134.601C160.057 134.601 160.057 134.601 160.768 133.893C161.479 133.184 162.191 132.476 162.902 131.768C165.036 129.642 167.882 127.517 170.727 123.975C174.284 121.141 177.841 117.599 182.82 114.057C184.954 111.932 187.088 110.515 189.934 108.389C192.068 106.264 194.913 104.847 197.047 102.722C199.893 100.597 202.027 99.1798 204.872 97.763C207.718 96.3461 209.852 94.2208 212.697 92.804C214.831 91.3871 217.677 89.9702 219.811 88.5534C221.945 87.1365 224.079 85.7197 226.213 85.0112C230.481 82.8859 234.038 80.7607 236.172 80.0522C237.595 79.3438 238.306 78.6354 239.018 78.6354C240.44 77.2185 241.152 77.2185 241.152 77.2185Z" fill="#EB027E"/>
<path d="M205.583 76.5105C204.872 76.5105 204.872 77.2189 204.161 77.2189C203.449 77.9274 202.027 78.6358 200.604 79.3442C199.181 80.0526 197.758 81.4695 196.336 82.8864C195.624 83.5948 194.913 84.3032 194.202 85.0117C193.49 85.7201 192.779 86.4285 192.067 87.1369C191.356 87.8454 190.645 88.5538 189.933 89.2622C189.222 89.9707 188.511 90.6791 187.799 91.3875C186.377 92.8044 185.665 94.2212 184.954 95.6381C184.242 97.055 183.531 97.7634 182.82 98.4718C182.82 99.1802 182.82 99.1802 182.108 99.1802L182.82 98.4718C183.531 97.7634 184.954 97.055 185.665 96.3465C187.088 95.6381 188.511 94.2212 189.933 92.8044C190.645 92.096 191.356 91.3875 192.067 90.6791C192.779 89.9707 193.49 89.2622 194.202 88.5538C194.913 87.8454 195.624 87.1369 196.336 86.4285C197.047 85.7201 197.758 85.0116 198.47 84.3032C199.892 82.8864 200.604 81.4695 202.026 80.7611C202.738 79.3442 203.449 78.6358 204.161 77.9274C205.583 77.2189 205.583 77.2189 205.583 76.5105Z" fill="#0288C9"/>
<path d="M184.244 191.276C184.244 191.984 184.956 192.693 184.956 192.693C185.667 194.11 186.378 195.526 187.09 196.943C187.801 199.069 189.224 201.194 190.646 203.319C191.358 204.736 192.069 205.444 192.78 206.861C193.492 208.278 194.203 208.987 194.915 210.403C195.626 211.82 196.337 212.529 197.049 213.946C197.76 215.362 198.471 216.071 199.183 217.488C200.605 219.613 201.317 221.738 202.74 223.864C203.451 225.989 204.874 227.406 205.585 228.114C205.585 228.823 206.296 228.823 206.296 229.531V230.24C206.296 230.24 206.296 230.24 206.296 229.531C206.296 229.531 206.296 228.823 205.585 228.114C205.585 226.697 204.874 225.281 204.162 223.155C203.451 221.03 202.74 218.905 201.317 216.779C200.605 215.362 199.894 214.654 199.894 213.237C199.183 211.82 198.471 211.112 197.76 209.695C197.049 208.278 196.337 207.57 195.626 206.153C194.915 204.736 194.203 204.028 193.492 202.611C192.069 200.485 190.646 198.36 189.224 196.235C187.801 194.818 187.09 193.401 186.378 191.984C184.956 191.984 184.956 191.984 184.244 191.276Z" fill="#0288C9"/>
<path d="M105.992 49.5898C105.992 49.5898 135.158 83.5945 140.138 125.392C140.138 125.392 139.426 74.3849 105.992 49.5898Z" fill="#02DBF3"/>
<path d="M203.451 14.8772C203.451 14.8772 157.923 45.3397 153.655 106.973C153.655 106.973 153.655 40.3807 203.451 14.8772Z" fill="#0288C9"/>
<path d="M214.832 196.943C214.832 196.943 246.843 224.572 252.534 261.41C252.534 261.41 234.75 213.237 214.832 196.943Z" fill="#0288C9"/>
<path d="M60.4644 199.777C60.4644 199.777 34.144 213.946 22.0509 247.95C21.3395 247.242 39.1236 219.613 60.4644 199.777Z" fill="#EB027E"/>
<path d="M244.709 182.067C244.709 182.067 283.122 200.486 290.947 242.283C290.947 242.283 278.143 203.32 244.709 182.067Z" fill="#02DBF3"/>
<path d="M289.526 226.697L288.814 218.196L287.392 226.697L283.835 219.613L285.969 228.823C285.969 228.823 278.855 225.281 278.144 224.572C277.433 223.864 284.546 232.365 284.546 232.365L272.453 230.24L283.835 235.907L273.165 239.449L284.546 238.741L280.278 245.825L285.969 241.574L280.989 254.326L288.814 243.7L289.526 249.367L290.949 243.7L296.639 257.868L293.794 243.7L298.773 248.659L293.794 240.866L308.021 247.242L293.794 239.449L313.001 240.158L295.217 238.032L305.887 234.49L297.351 235.907L299.485 230.24L293.794 234.49L298.773 218.196L291.66 232.365L292.371 225.989L289.526 226.697Z" fill="#7DE8F2"/>
<path d="M81.093 53.1323L80.3816 46.7564L79.6703 53.1323L76.8248 47.4648L78.2476 54.5491C78.2476 54.5491 72.5567 51.7154 72.5567 51.007C71.8453 50.2985 77.5362 57.3828 77.5362 57.3828L67.5771 55.966L76.1135 60.2166L68.2885 62.3419L76.8248 61.6334L73.268 67.3009L77.5362 63.7587L73.9794 73.6767L80.3816 65.1756L81.093 69.4261L82.5157 64.4671L86.7839 75.0936L84.6498 64.4671L88.2066 68.0093L84.6498 62.3419L95.3202 67.3009L83.9384 60.925H98.877L85.3612 59.5081L93.8975 56.6744L87.4952 58.0913L88.918 53.8407L84.6498 57.3828L88.2066 44.6311L82.5157 55.2576L83.2271 50.2985L81.093 53.1323Z" fill="#2471BA"/>
<path d="M93.1883 238.032L92.4769 231.656L91.7655 238.032L88.9201 232.365L90.3428 239.449C90.3428 239.449 84.6519 236.615 84.6519 235.907C83.9406 235.198 89.6315 242.283 89.6315 242.283L80.3838 240.866L88.9201 245.116L81.0951 247.95L89.6315 247.242L86.0747 252.201L90.3428 248.658L86.786 258.576L93.1883 250.075L93.8996 254.326L95.3223 249.367L99.5905 259.993L97.4564 249.367L101.013 252.909L96.7451 247.95L107.415 252.909L96.0337 246.533H110.972L97.4564 245.116L105.993 242.283L99.5905 243.699L101.013 239.449L96.7451 242.991L100.302 230.239L94.611 240.866L95.3223 235.907L93.1883 238.032Z" fill="#7DE8F2"/>
<path d="M23.4742 241.574L22.7629 237.324L22.0515 241.574L19.9174 238.032L21.3402 242.991C21.3402 242.991 17.7834 240.866 17.072 240.866L20.6288 245.116L14.2266 243.699L19.9174 246.533L14.9379 247.95L20.6288 247.242L18.4947 250.784L21.3402 248.658L19.2061 255.034L23.4742 249.367V252.201L24.1856 249.367L27.0311 256.451L25.6083 249.367L28.4538 252.201L25.6083 247.95L32.7219 251.492L25.6083 247.242H35.5674L26.3197 245.825L32.0106 243.699L27.7424 244.408L29.1651 241.574L26.3197 243.699L29.1651 235.198L25.6083 242.283V238.74L23.4742 241.574Z" fill="#E96AB0"/>
<path d="M239.017 72.2595L238.306 68.0089L237.595 72.2595L235.46 68.7173L236.883 73.6763C236.883 73.6763 233.326 71.5511 232.615 71.5511L236.172 75.8016L229.77 74.3848L235.46 77.2185L229.77 78.6353L235.46 77.9269L233.326 81.4691L236.172 79.3438L234.749 85.7196L239.017 80.0522V82.8859L239.729 80.0522L242.574 87.1365L241.151 80.0522L243.997 82.8859L241.151 79.3438L248.265 82.8859L241.151 78.6353H251.11L241.863 77.2185L247.554 75.0932L243.285 75.8016L244.708 72.9679L241.863 75.0932L244.708 66.592L241.151 73.6763V70.1342L239.017 72.2595Z" fill="#E96AB0"/>
<path d="M197.76 254.326V250.784L197.048 254.326L195.625 251.492L196.337 255.743C196.337 255.743 193.491 254.326 192.78 253.618L195.625 257.16L189.935 256.451L194.914 258.577L190.646 259.994L195.625 259.285L193.491 262.119L195.625 259.994L193.491 265.661L197.048 260.702V262.827L197.76 259.994L199.894 266.369L198.471 259.994L200.605 262.119L198.471 258.577L204.162 261.411L197.76 257.868H206.296L198.471 257.16L202.739 255.743L199.182 256.451L199.894 254.326L199.182 256.451L201.316 249.367L198.471 255.743V252.909L197.76 254.326Z" fill="#E96AB0"/>
<path d="M85.3624 131.059C85.3624 131.059 36.2785 124.684 11.3809 138.144C11.3809 137.435 46.9489 116.891 85.3624 131.059Z" fill="#0288C9"/>
<path d="M147.251 153.729C147.251 153.729 144.405 132.477 105.28 123.267C105.28 123.267 137.292 120.433 147.251 153.729Z" fill="#02DBF3"/>
<path d="M147.962 89.2625C147.962 89.2625 149.384 43.923 162.189 32.5881C162.189 32.5881 141.559 45.3399 147.962 89.2625Z" fill="#02DBF3"/>
<path d="M133.736 147.354C133.736 147.354 98.1677 114.766 57.6201 119.725C57.6201 119.725 94.6109 119.017 133.736 147.354Z" fill="#EB027E"/>
<path d="M165.747 148.77C165.747 148.77 179.974 133.185 208.429 126.809C208.429 126.809 179.974 126.101 165.747 148.77Z" fill="#02DBF3"/>
<path d="M170.017 114.766C170.017 114.766 157.212 124.684 155.79 145.228C155.79 145.228 155.078 118.308 170.017 114.766Z" fill="#02DBF3"/>
<path d="M23.4761 189.151L22.7647 183.484L22.0534 189.151L19.9193 184.192L21.342 190.568C21.342 190.568 17.0738 187.734 16.3625 187.734C15.6511 187.734 20.6306 192.693 20.6306 192.693L12.8057 191.276L19.9193 194.818L12.8057 196.944L19.9193 196.235L17.0738 200.486L21.342 197.652L18.4965 206.153L23.4761 199.069V202.611L24.8988 198.361L28.4556 207.57L26.3215 198.361L29.8783 201.194L26.3215 196.235L35.5692 201.194L26.3215 196.235H38.4146L27.0329 194.818L34.1465 192.693L28.4556 193.402L29.8783 189.859L26.3215 192.693L29.8783 182.067L24.8988 191.276V187.026L23.4761 189.151Z" fill="#2471BA"/>
<path d="M273.163 177.107L272.452 172.857V177.107L270.318 173.565L271.741 178.524C271.741 178.524 268.184 176.399 267.472 176.399L271.029 180.65L264.627 179.233L270.318 182.066L264.627 183.483L270.318 182.775L268.184 186.317L271.029 184.192L268.895 191.276L273.163 185.609V188.442L273.875 185.609L276.72 192.693L275.297 185.609L278.143 188.442L275.297 184.192L282.411 187.734L275.297 183.483H285.256L276.009 182.066L281.7 179.941L277.431 180.65L278.854 177.816L276.009 179.941L278.854 171.44L275.297 178.524V174.982L273.163 177.107Z" fill="#2471BA"/>
<path d="M201.314 8.50116L200.602 1.41686L199.179 8.50116L195.623 2.12529L197.757 9.91802L191.355 6.37587C190.643 5.66744 197.045 13.4602 197.045 13.4602L186.375 11.3349L196.334 16.2939L187.086 19.1276L196.334 18.4192L192.777 24.0866L197.757 20.5445L193.489 31.8793L200.602 22.6698L201.314 27.6288L202.736 22.6698L207.716 34.7131L205.582 22.6698L209.85 26.9203L205.582 20.5445L217.675 26.2119L205.582 19.836L221.943 20.5445L206.293 18.4192L215.541 15.5855L208.427 17.0023L210.561 12.0433L204.159 14.1686L208.427 0L202.025 12.0433L202.736 7.0843L201.314 8.50116Z" fill="#2471BA"/>
<path d="M127.36 220.631C127.36 220.631 145.317 209.858 175.443 218.992C175.443 218.992 169.181 226.955 150.397 226.955C131.613 226.955 127.36 220.631 127.36 220.631Z" fill="#FFC346"/>
<path d="M127.36 220.631C127.36 220.631 145.317 209.858 175.443 218.992C175.443 218.992 169.181 226.955 150.397 226.955C131.613 226.955 127.36 220.631 127.36 220.631Z" fill="#FFC346"/>
<path opacity="0.42" d="M139.647 217.821C140.119 217.352 140.592 216.767 141.064 216.181C132.204 217.704 127.36 220.514 127.36 220.514C127.36 220.514 128.778 222.622 133.504 224.379C135.512 222.154 137.757 220.046 139.647 217.821Z" fill="#FFC465"/>
<path opacity="0.42" d="M170.834 217.703C169.653 219.811 168.353 222.036 167.171 224.144C173.198 221.802 175.561 218.874 175.561 218.874C173.907 218.523 172.371 218.054 170.834 217.703Z" fill="#FFC465"/>
<path d="M127.358 220.631L126.649 226.955C126.649 226.955 136.455 234.215 151.577 234.215C166.698 234.215 176.149 226.603 176.149 226.603L175.677 218.991C175.677 218.991 164.454 226.603 151.577 226.603C138.7 226.603 127.358 220.631 127.358 220.631Z" fill="#FFC346"/>
<path opacity="0.42" d="M167.878 222.973C164.925 224.261 161.263 225.432 157.246 226.018C157.01 228.594 156.892 231.17 156.655 233.864C161.735 233.278 165.988 231.873 169.178 230.468C168.824 228.009 168.351 225.549 167.878 222.973Z" fill="#FFD188"/>
<path opacity="0.55" d="M143.308 225.784C138.819 224.964 134.802 223.676 131.967 222.505C131.612 224.73 131.258 227.072 130.785 229.297C133.502 230.702 137.637 232.342 142.717 233.279C142.835 230.82 143.072 228.36 143.308 225.784Z" fill="#CC8600"/>
<path d="M147.914 205.056C147.914 205.056 145.67 214.776 140.117 220.28C140.117 220.28 149.923 228.243 162.8 220.28C162.8 220.28 155.83 213.956 154.766 205.056H147.914Z" fill="#F4AB08"/>
<path opacity="0.35" d="M151.341 213.019C153.113 212.785 154.886 212.2 156.658 211.614C155.831 209.623 155.122 207.515 154.767 205.056H147.797C147.797 205.056 146.97 208.452 145.198 212.317C147.443 212.902 149.569 213.254 151.341 213.019Z" fill="#C2AB08"/>
<path opacity="0.55" d="M150.281 205.056H149.926C148.744 216.299 145.79 223.091 145.79 223.091C147.445 223.559 149.454 223.911 151.699 223.793C151.817 223.793 150.044 219.812 150.281 205.056Z" fill="#C47E00"/>
<path d="M151.459 208.452C155.961 208.452 159.611 206.669 159.611 204.47C159.611 202.271 155.961 200.489 151.459 200.489C146.957 200.489 143.308 202.271 143.308 204.47C143.308 206.669 146.957 208.452 151.459 208.452Z" fill="#F4AB08"/>
<path d="M156.421 201.308C157.484 202.245 157.484 204.119 150.987 204.236C150.396 204.236 143.898 203.884 146.143 201.425C144.371 202.128 143.308 203.182 143.308 204.47C143.308 206.695 146.97 208.452 151.459 208.452C155.948 208.452 159.611 206.695 159.611 204.47C159.611 203.182 158.311 202.011 156.421 201.308Z" fill="#FFC346"/>
<path d="M160.437 166.528C157.366 168.167 153.703 168.401 150.277 168.284C147.206 168.167 144.725 167.699 142.008 166.762C143.78 171.68 148.505 187.256 148.505 202.597C151.695 204.705 154.294 202.597 154.294 202.597C154.294 202.597 153.703 183.274 161.028 166.411C160.91 166.528 160.792 166.528 160.437 166.528Z" fill="#F4AB08"/>
<path opacity="0.55" d="M150.281 168.284C148.863 168.284 147.563 168.05 146.263 167.816C146.972 170.743 150.399 200.606 150.044 203.299C150.281 203.416 150.517 203.416 150.753 203.416C150.753 203.534 151.462 168.284 150.281 168.284Z" fill="#C47E00"/>
<path d="M186.545 115C186.545 115 205.211 95.6774 216.552 102.353C231.438 111.136 225.413 133.503 205.447 144.98C189.026 154.465 182.529 153.529 181.82 158.447C181.111 163.483 187.254 161.258 186.073 159.15C186.073 159.15 183.356 160.087 183.71 157.627C184.064 155.051 192.216 153.646 191.271 163.014C190.916 166.645 185.246 170.626 179.575 167.347C176.149 165.357 175.322 159.97 177.331 155.637C183.828 142.169 196.233 146.619 206.629 131.278C217.852 114.766 207.692 110.433 203.203 112.072C198.477 113.829 192.57 118.279 185.718 125.306L186.545 115Z" fill="#FFC346"/>
<path opacity="0.55" d="M197.77 105.865C191.39 109.964 186.547 115 186.547 115L185.72 125.305C188.791 122.143 191.745 119.567 194.344 117.459C195.053 113.477 196.234 109.613 197.77 105.865Z" fill="#CC8600"/>
<path opacity="0.55" d="M179.931 159.033C180.167 152.592 185.247 147.908 186.074 146.503C182.648 148.494 179.695 150.953 177.45 155.754C175.324 160.087 176.269 165.474 179.695 167.465C181.231 168.402 182.766 168.753 184.184 168.636C182.176 165.943 179.813 162.781 179.931 159.033Z" fill="#CC8600"/>
<path opacity="0.55" d="M207.574 132.449C218.089 116.991 211.709 111.019 206.511 110.667C205.921 110.667 205.33 110.784 204.739 111.019C203.912 111.253 203.203 111.721 202.258 112.073C202.258 112.073 202.258 112.073 202.376 112.073C203.085 111.838 203.912 111.721 204.857 111.721C209.701 111.37 216.907 116.406 206.748 131.278C196.47 146.502 184.183 142.286 177.686 155.285C185.246 145.448 197.178 147.556 207.574 132.449Z" fill="#A04F00"/>
<path opacity="0.42" d="M212.89 116.523C215.725 114.415 218.561 112.19 221.16 109.848C220.096 107.974 218.679 106.335 216.789 104.929C214.426 107.037 212.181 109.38 209.937 111.722C211.354 113.01 212.299 114.649 212.89 116.523Z" fill="#FFC465"/>
<path opacity="0.42" d="M220.332 122.847C217.379 124.486 214.307 126.009 211.236 127.648C209.346 130.81 206.983 133.855 204.384 136.548C209.818 135.846 214.307 133.621 219.151 130.693C221.041 127.648 222.223 124.603 222.813 121.559C221.986 121.91 221.159 122.378 220.332 122.847Z" fill="#FFC465"/>
<path opacity="0.42" d="M196.468 142.989C192.924 145.214 189.38 146.737 185.954 148.728C188.553 148.611 190.916 149.079 193.515 149.665C196.587 148.376 200.367 146.503 205.092 143.809C205.565 143.575 206.038 143.224 206.51 142.872C205.801 142.989 205.211 143.107 204.502 143.107C201.903 143.341 199.186 143.224 196.468 142.989Z" fill="#FFC465"/>
<path d="M116.371 115C116.371 115 97.705 95.6774 86.3637 102.353C71.4783 111.136 77.5034 133.503 97.4687 145.097C113.89 154.583 120.388 153.646 121.096 158.564C121.805 163.6 115.662 161.375 116.843 159.267C116.843 159.267 119.561 160.204 119.206 157.744C118.852 155.168 110.7 153.763 111.645 163.131C112 166.762 117.67 170.743 123.341 167.464C126.767 165.474 127.594 160.087 125.586 155.754C119.088 142.286 106.683 146.736 96.2873 131.395C84.9461 114.766 95.106 110.433 99.5952 112.072C104.321 113.829 110.228 118.279 117.08 125.306L116.371 115Z" fill="#FFC346"/>
<path opacity="0.55" d="M109.048 113.243C109.048 114.883 109.166 116.522 109.284 118.162C111.766 120.153 114.366 122.495 117.084 125.305L116.375 115C116.375 115 113.066 111.604 108.457 108.208C108.93 109.73 109.166 111.487 109.048 113.243Z" fill="#CC8600"/>
<path opacity="0.55" d="M125.47 155.637C123.698 151.772 121.334 149.43 118.734 147.674C119.916 149.43 120.862 151.421 121.452 153.529C122.871 159.033 122.043 164.186 118.734 168.636C120.152 168.636 121.807 168.285 123.343 167.465C126.652 165.474 127.598 159.97 125.47 155.637Z" fill="#CC8600"/>
<path opacity="0.55" d="M95.3436 132.449C84.8293 116.991 91.2088 111.019 96.4069 110.667C96.9975 110.667 97.5882 110.784 98.1789 111.019C99.0059 111.253 99.7147 111.721 100.66 112.073C100.66 112.073 100.66 112.073 100.542 112.073C99.8329 111.838 99.0059 111.721 98.0608 111.721C93.2171 111.37 86.0107 116.406 96.1706 131.278C106.449 146.502 118.735 142.286 125.233 155.285C117.672 145.448 105.622 147.556 95.3436 132.449Z" fill="#A04F00"/>
<path opacity="0.42" d="M90.0255 116.523C87.1902 114.415 84.3549 112.19 81.7559 109.848C82.8191 107.974 84.2368 106.335 86.127 104.93C88.4897 107.038 90.7344 109.38 92.979 111.722C91.4432 113.01 90.4981 114.65 90.0255 116.523Z" fill="#FFC465"/>
<path opacity="0.42" d="M82.5834 122.847C85.5369 124.487 88.6085 126.009 91.6801 127.648C93.5703 130.81 95.933 133.855 98.5321 136.549C93.0977 135.846 88.6085 133.621 83.7648 130.693C81.8746 127.648 80.6932 124.604 80.1025 121.559C80.9295 121.91 81.7565 122.379 82.5834 122.847Z" fill="#FFC465"/>
<path opacity="0.42" d="M106.329 142.989C109.873 145.214 113.417 146.737 116.843 148.728C114.244 148.611 111.881 149.079 109.282 149.665C106.211 148.376 102.43 146.503 97.7048 143.809C97.2322 143.575 96.7597 143.224 96.2871 142.872C96.9959 142.989 97.5866 143.107 98.2955 143.107C101.013 143.341 103.73 143.224 106.329 142.989Z" fill="#FFC465"/>
<path opacity="0.35" d="M157.248 177.419C158.193 173.788 159.374 170.041 160.91 166.411C160.91 166.411 160.674 166.411 160.319 166.411C157.248 168.05 153.585 168.284 150.159 168.167C147.088 168.05 144.607 167.582 141.89 166.645C142.598 168.519 143.78 172.149 144.843 176.599C148.624 178.707 153.113 178.707 157.248 177.419Z" fill="#C2AB08"/>
<path d="M151.46 109.027L114.482 105.983C114.482 105.983 116.963 140.178 124.997 154.231C130.785 164.302 140.355 171.68 151.578 171.68C162.801 171.68 172.37 164.302 178.159 154.231C186.192 140.178 188.673 105.983 188.673 105.983L151.46 109.027Z" fill="#FFC346"/>
<path opacity="0.42" d="M162.21 123.665C162.092 132.097 161.383 140.646 160.32 148.492C159.257 156.221 155.831 165.707 153.35 171.68C162.328 165.59 166.345 155.285 169.535 146.853C172.724 138.538 174.26 129.872 175.441 121.089C171.07 122.612 166.227 123.431 162.21 123.665Z" fill="#FFD188"/>
<path opacity="0.55" d="M147.443 123.197C140.709 122.612 133.503 121.675 127.241 119.801C128.068 126.125 128.777 132.566 130.077 138.656C133.03 151.655 139.173 162.663 148.034 171.446C149.097 171.563 150.278 171.68 151.46 171.68C151.46 171.68 146.498 161.96 146.498 142.52C146.498 135.845 146.734 129.404 147.443 123.197Z" fill="#CC8600"/>
<path opacity="0.55" d="M187.492 115.468C188.201 109.847 188.437 106.1 188.437 106.1L151.46 109.145L114.482 106.1C114.482 106.1 114.719 110.082 115.428 115.82C115.428 115.703 152.523 128.936 187.492 115.468Z" fill="#CC8600"/>
<path d="M151.461 93.6863C129.251 93.6863 110.703 102.118 110.703 102.118V112.541C110.703 112.541 133.268 118.396 152.524 118.396C171.899 118.396 192.1 112.541 192.1 112.541V102.118C192.1 102.118 173.671 93.6863 151.461 93.6863Z" fill="#FFC346"/>
<path d="M150.398 108.91C128.542 108.91 115.192 103.875 110.703 102.352C110.703 103.875 110.703 112.541 110.703 112.541C110.703 112.541 133.268 118.396 152.524 118.396C171.899 118.396 192.1 112.541 192.1 112.541C192.1 112.541 192.1 102.586 192.1 102.118C185.248 105.046 170.599 108.91 150.398 108.91Z" fill="#FFC346"/>
<path opacity="0.55" d="M131.966 107.622C127.595 107.037 123.815 106.217 120.625 105.397C120.625 108.442 120.507 111.604 120.271 114.649C123.578 115.351 127.477 116.054 131.73 116.64C131.966 113.595 131.966 110.667 131.966 107.622Z" fill="#CC8600"/>
<path opacity="0.42" d="M172.252 107.271C169.888 107.623 167.407 107.974 164.807 108.208C164.925 111.37 164.689 114.532 164.334 117.694C167.407 117.343 170.361 116.991 173.079 116.523C172.961 113.478 172.606 110.433 172.252 107.271Z" fill="#FFD188"/>
<path opacity="0.42" d="M190.093 102.938C188.911 103.406 187.493 103.874 185.957 104.343C186.312 107.505 186.548 110.667 186.902 113.946C188.202 113.594 189.266 113.36 190.093 113.126C189.857 109.73 189.857 106.334 190.093 102.938Z" fill="#FFC465"/>
<path opacity="0.55" d="M140.59 117.693C142.244 117.81 143.781 117.927 145.435 118.045C145.553 115 145.671 111.838 145.671 108.793C143.899 108.676 142.244 108.676 140.708 108.559C140.708 111.604 140.708 114.648 140.59 117.693Z" fill="#CC8600"/>
<path d="M151.461 93.6863C129.251 93.6863 110.703 102.118 110.703 102.118C110.703 102.118 110.703 102.235 110.703 102.352C115.074 103.875 128.424 107.739 150.398 107.739C170.599 107.739 185.248 105.046 192.1 102.118C192.1 102.118 173.671 93.6863 151.461 93.6863Z" fill="#FFC346"/>
<path opacity="0.42" d="M151.461 93.6863C129.251 93.6863 110.703 102.118 110.703 102.118C110.703 102.118 110.703 102.235 110.703 102.352C115.074 103.875 128.66 109.73 150.516 109.73C170.717 109.73 185.13 105.163 191.982 102.235C191.982 102.235 173.671 93.6863 151.461 93.6863Z" fill="#FFC465"/>
<path opacity="0.42" d="M125.822 97.082C116.725 99.4242 110.818 102.118 110.818 102.118C110.818 102.118 110.818 102.235 110.818 102.352C112.472 102.937 115.308 104.108 119.442 105.28C121.451 102.586 123.577 99.7755 125.822 97.082Z" fill="#FFD188"/>
<path opacity="0.42" d="M148.388 93.8037C147.561 93.8037 146.734 93.8037 145.907 93.9208C142.126 98.8393 138.228 103.758 134.447 108.559C136.101 108.794 137.873 109.028 139.645 109.145C142.244 103.992 145.434 98.9565 148.388 93.8037Z" fill="#FFD188"/>
<path opacity="0.42" d="M181.704 98.3706C180.759 101.064 179.814 103.758 178.751 106.451C184.54 105.046 189.029 103.406 192.101 102.118C192.101 102.118 188.202 100.244 181.704 98.3706Z" fill="#FFD188"/>
<path opacity="0.42" d="M168 95.2091C166.583 94.9749 165.283 94.7406 163.747 94.6235C161.857 98.8394 159.731 102.938 157.368 106.92C156.777 107.857 156.186 108.794 155.714 109.73C157.958 109.613 160.203 109.496 162.33 109.262C164.456 104.578 166.346 99.8934 168 95.2091Z" fill="#FFD188"/>
<path d="M151.459 97.4336C135.038 97.4336 121.334 101.767 121.334 101.767C121.334 101.767 121.334 101.884 121.334 102.001C124.524 103.172 134.447 105.982 150.75 105.982C165.754 105.982 176.623 103.992 181.703 101.767C181.703 101.767 167.88 97.4336 151.459 97.4336Z" fill="#A04F00"/>
<path d="M110.703 102.118C110.703 102.118 121.336 110.315 152.051 110.315C182.767 110.315 192.1 102.235 192.1 102.235C192.1 102.235 179.105 109.144 151.933 109.144C124.762 109.144 110.703 102.118 110.703 102.118Z" fill="#FFE18C"/>
<path d="M110.704 111.956C110.704 112.307 110.704 112.541 110.704 112.541C110.704 112.541 133.268 118.396 152.525 118.396C171.9 118.396 192.101 112.541 192.101 112.541C192.101 112.541 192.101 112.307 192.101 111.956C192.101 111.956 171.9 117.811 152.525 117.811C133.268 117.811 110.704 111.956 110.704 111.956Z" fill="#FFE18C"/>
<path d="M127.477 220.632C127.477 220.632 139.527 226.136 151.695 226.136C163.981 226.136 175.559 219.109 175.559 219.109C175.559 219.109 165.399 227.072 151.695 227.072C137.991 227.072 127.477 220.632 127.477 220.632Z" fill="#FFE18C"/>
<path d="M153.059 136.544C152.909 140.854 152.759 145.126 152.647 149.435C152.609 151.384 152.684 153.333 152.722 155.244C152.759 156.593 153.584 157.53 154.783 157.605C155.982 157.642 156.957 156.706 157.069 155.431C157.144 154.382 157.144 153.37 157.144 152.321C157.181 149.361 157.219 146.4 157.294 143.44C157.331 139.842 157.444 136.244 157.444 132.647C157.481 131.073 156.132 129.874 154.558 129.911C152.722 129.949 149.911 131.972 149.274 133.734C149.012 134.521 149.237 135.345 149.836 135.87C150.473 136.357 151.298 136.432 152.047 135.982C152.347 135.757 152.647 135.495 153.059 135.12C153.059 135.682 153.097 136.132 153.059 136.544Z" fill="white"/>
</svg>
