<svg width="65" height="60" viewBox="0 0 65 60" fill="none" xmlns="http://www.w3.org/2000/svg">
<path d="M63.5616 37.4611C67.1058 23.775 59.8538 8.78018 46.7129 3.38205C38.9156 0.164992 26.7562 -3.16112 12.961 5.67217C-5.90512 17.7771 -2.90617 45.0948 13.7789 54.746C37.4979 68.4321 59.5266 52.783 63.5616 37.4611Z" fill="#F8761E"/>
<path d="M64.4338 31.1906C64.4338 30.5908 64.4338 29.9365 64.4338 29.3367C61.5985 30.7544 57.1818 32.6629 51.402 34.026C46.8218 35.1165 40.115 35.5528 33.6809 34.8439C33.1902 26.774 37.9885 21.5394 44.259 18.595C49.7662 15.9777 56.2549 15.0508 60.3444 15.487C60.0717 14.9963 59.7446 14.5055 59.4174 14.0148C55.2189 14.0693 46.2765 14.7781 39.7333 19.6855C34.6079 23.5024 32.4268 29.2277 32.8085 34.7894C28.7735 34.2986 24.8476 33.3172 21.6306 31.7359C21.6851 31.5178 21.6851 31.2997 21.7396 31.0271C24.3024 15.4325 36.4072 6.59918 45.9494 3.16401C45.2405 2.89138 44.4771 2.61875 43.7138 2.34612C40.1696 3.92738 36.1346 6.38107 33.2992 8.78023C26.3744 14.6146 22.1758 22.6845 20.7581 31.2997C20.5946 31.2452 20.4855 31.1361 20.3219 31.0816C18.2499 29.9365 16.4505 28.7915 14.8693 27.6464C16.1234 26.0651 17.2684 24.2112 18.1409 22.1392C21.2489 14.56 21.4125 7.30803 20.9217 1.90991C20.5946 2.01897 20.2674 2.12802 19.9402 2.2916C20.3764 8.12594 20.2129 19.4129 13.9423 27.0466C9.25305 23.6114 5.49072 19.3039 3.36419 16.0868C3.14608 16.523 2.87345 16.9592 2.70987 17.3954C4.67283 19.9037 8.3261 24.1022 13.2335 27.8645C9.03494 32.3902 4.29114 34.0805 0.365234 34.5167C0.474287 35.2256 0.637867 35.9344 0.74692 36.6433C4.34567 35.6073 9.85284 33.3172 14.1059 28.5734C16.0689 30.0456 18.2499 31.4087 20.54 32.5538C19.8312 37.8974 20.1583 43.4591 21.576 48.8027C22.2849 51.4199 24.684 56.9271 25.9927 59.4898C26.756 59.6534 27.5194 59.7625 28.2828 59.817C24.7931 55.4549 19.7767 46.6216 21.467 32.9355C23.1573 33.7534 24.9021 34.4077 26.756 34.9529C28.6645 35.4982 30.791 35.8799 32.9721 36.2071C33.899 42.3686 37.934 48.0938 44.6407 50.602C47.0399 51.529 49.9298 52.1833 53.3104 52.565C53.6921 52.2924 54.0193 51.9652 54.3464 51.6926C46.4401 51.0382 36.1891 47.9302 33.899 36.3161C44.6953 37.4612 57.4544 35.6073 64.4338 31.1906Z" fill="#924100"/>
</svg>
