<svg xmlns="http://www.w3.org/2000/svg" viewBox="0 0 145.59 195.47"><defs><style>.cls-1{fill:#44b0d7;}.cls-2{fill:#eee;}.cls-3{fill:#e43513;}.cls-4{fill:#ddeefd;}.cls-5{fill:#ffc8af;}.cls-6,.cls-7{fill:#ff9d80;}.cls-7{opacity:0.51;}.cls-10,.cls-16,.cls-17,.cls-20,.cls-8{fill:none;stroke-linecap:round;stroke-linejoin:round;}.cls-8{stroke:#3f2732;}.cls-9{fill:#3f2732;}.cls-10{stroke:#d6402e;}.cls-11{fill:#ff4a16;}.cls-12{fill:#b1dbfc;}.cls-13{fill:#523544;}.cls-14{fill:#a03b07;}.cls-15{fill:#5b394a;}.cls-16,.cls-17{stroke:#b1dbfc;}.cls-16,.cls-20{stroke-width:2.38px;}.cls-17{stroke-width:2.23px;}.cls-18{fill:#00cbd4;}.cls-19{fill:#fcf8ed;}.cls-20{stroke:#009ea1;}</style></defs><g id="Layer_2" data-name="Layer 2"><g id="Layer_1-2" data-name="Layer 1"><rect class="cls-1" y="191.96" width="141.45" height="3.51" rx="1.24"/><polygon class="cls-2" points="65.46 108.98 66.34 110.58 67.94 111.46 66.34 112.34 65.46 113.94 64.59 112.34 62.98 111.46 64.59 110.58 65.46 108.98"/><rect class="cls-3" x="58.79" y="99.57" width="70.16" height="55.89" rx="15.02"/><path class="cls-4" d="M118.25,114.12v33.81a10.13,10.13,0,0,1-2.6,6.57c-3.7,4.37-11,7.35-19.25,7.35h-4c-8.86,0-16.53-3.4-20-8.26a9.79,9.79,0,0,1-1.9-5.66V114.12c0-7.66,9.83-13.92,21.85-13.92h4C108.42,100.2,118.25,106.46,118.25,114.12Z"/><path class="cls-5" d="M80.74,178.59l6-16.38c1.56.07,12.58.06,13.92,0l6,16.38,8.35-1.39c5.47-20.25.82-27.58.82-27.58H71.58s-4.65,7.33.82,27.58Z"/><path class="cls-4" d="M71,171.19c.37,1.87,1.43,7.37,2,9.52l7.4.17,3.07-9.69Z"/><path class="cls-4" d="M116.49,171.19H104l3.17,11.28,7-.35C114.8,180,116.12,173.06,116.49,171.19Z"/><path class="cls-6" d="M93.74,95.7v9.47l-9-3.51a5.15,5.15,0,0,0,3.36-6.28Z"/><path class="cls-6" d="M93.46,95.7v9.47l9-3.51a5.14,5.14,0,0,1-3.36-6.28Z"/><circle class="cls-6" cx="53.03" cy="65.61" r="9.77"/><circle class="cls-6" cx="135.82" cy="65.61" r="9.77"/><path class="cls-5" d="M123.81,32.27v5.61H61.14A37.16,37.16,0,0,0,55.79,57.1V73.69A23.61,23.61,0,0,0,79.33,97.23h32.53A21.49,21.49,0,0,0,133.3,75.8V57.1A37.26,37.26,0,0,0,123.81,32.27Z"/><circle class="cls-7" cx="69.38" cy="77.98" r="6.58"/><circle class="cls-7" cx="117.99" cy="77.98" r="6.58"/><path class="cls-8" d="M89.19,77.52a5.37,5.37,0,0,0,9.77.76"/><path class="cls-9" d="M84.06,69.52a2.37,2.37,0,1,1-2.37-2.37A2.37,2.37,0,0,1,84.06,69.52Z"/><path class="cls-9" d="M110.6,69.52a2.37,2.37,0,1,1-2.37-2.37A2.38,2.38,0,0,1,110.6,69.52Z"/><polyline class="cls-10" points="94.01 62.67 94.01 68.66 98.59 66.55 96.13 72.19"/><path class="cls-9" d="M106.63,181l-.68,6.57c-.35,2.55,1.38,4.86,3.64,4.84l12.43-.14c1.44,0,2.09-2.07,1-3.14l-8.52-8.3Z"/><rect class="cls-9" x="106.91" y="180.8" width="7.93" height="2.64"/><path class="cls-9" d="M81.18,181l.68,6.57c.36,2.55-1.38,4.86-3.64,4.84l-12.42-.14c-1.45,0-2.1-2.07-1-3.14l8.53-8.3Z"/><path class="cls-11" d="M116.1,131h0a4.71,4.71,0,0,1-4.69-4.7V108.48a4.71,4.71,0,0,1,4.69-4.7h0a4.71,4.71,0,0,1,4.7,4.7v17.85A4.71,4.71,0,0,1,116.1,131Z"/><path class="cls-12" d="M82.67,99.89H105.1l.24,3.87-8,5.4-3.89-4-3.74,3.76-6.81-5.4S82.67,99.65,82.67,99.89Z"/><path class="cls-9" d="M93.71,110.81h0a3.3,3.3,0,0,1-3.29-3.29v-2.35a3.3,3.3,0,0,1,3.29-3.29h0A3.3,3.3,0,0,1,97,105.17v2.35A3.3,3.3,0,0,1,93.71,110.81Z"/><polygon class="cls-9" points="92.66 108.81 85.73 124.55 94.65 131.95 102.29 124.43 95 108.58 92.66 108.81"/><path class="cls-9" d="M69.87,139.7s-2.35,19.68,2.53,37.5h9.8l4.58-15H100.7l4.76,13.61,9.86.17s5.82-18.49,2.82-36.82C118.14,139.17,69.17,139,69.87,139.7Z"/><path class="cls-13" d="M82.84,148.35h0a2.46,2.46,0,0,1-2.46-2.46v-7.28a2.46,2.46,0,0,1,2.46-2.46h0a2.47,2.47,0,0,1,2.46,2.46v7.28A2.47,2.47,0,0,1,82.84,148.35Z"/><path class="cls-13" d="M106.8,147.82h0a2.46,2.46,0,0,1-2.46-2.46v-7.27a2.46,2.46,0,0,1,2.46-2.46h0a2.46,2.46,0,0,1,2.46,2.46v7.27A2.47,2.47,0,0,1,106.8,147.82Z"/><rect class="cls-13" x="67.32" y="182.69" width="7.83" height="1.83" rx="0.65"/><rect class="cls-13" x="113.6" y="185.51" width="7.83" height="1.83" rx="0.65"/><rect class="cls-13" x="65.74" y="185.51" width="7.83" height="1.83" rx="0.65"/><rect class="cls-13" x="111.31" y="182.45" width="7.83" height="1.83" rx="0.65"/><path class="cls-14" d="M135.5,45.83H82.87a29.45,29.45,0,0,0,6.57-12.5C86,39.71,79.19,43.72,72.15,45.44s-14.4,1.42-21.64,1.13c.92-6,1.51-13.78,4.62-19s8.17-9.64,14.19-10.67c1.56-5.5,5.12-11.18,10.23-13.74A33.7,33.7,0,0,1,96.23.05a45.65,45.65,0,0,1,30.63,13.54C134.78,21.85,136.8,34.47,135.5,45.83Z"/><path class="cls-7" d="M65.5,58.28a1.65,1.65,0,1,1-1.65-1.64A1.64,1.64,0,0,1,65.5,58.28Z"/><path class="cls-7" d="M61.74,65.09a1.65,1.65,0,1,1-1.65-1.64A1.65,1.65,0,0,1,61.74,65.09Z"/><path class="cls-7" d="M61.5,54.05a1.64,1.64,0,1,1-1.64-1.64A1.64,1.64,0,0,1,61.5,54.05Z"/><path class="cls-7" d="M124.93,55.93a1.65,1.65,0,1,1-3.29,0,1.65,1.65,0,0,1,3.29,0Z"/><path class="cls-7" d="M131,63.68A1.64,1.64,0,1,1,129.39,62,1.64,1.64,0,0,1,131,63.68Z"/><path class="cls-7" d="M130.56,55a1.64,1.64,0,1,1-1.64-1.64A1.64,1.64,0,0,1,130.56,55Z"/><path class="cls-4" d="M117.6,161.37a6.35,6.35,0,0,0,8-.44c8.09-7.43,12.11-15.79,11.94-24.84-.3-15.61-13.39-26.93-14-27.4a6.34,6.34,0,0,0-8.24,9.64c.19.17,9.36,8.26,9.51,18.06.08,5.31-2.49,10.28-7.84,15.19a6.34,6.34,0,0,0-.38,9A6,6,0,0,0,117.6,161.37Z"/><path class="cls-4" d="M75.14,161.37a6.35,6.35,0,0,1-8-.44C59,153.5,55,145.14,55.16,136.09c.29-15.61,13.39-26.93,14-27.4a6.34,6.34,0,0,1,8.23,9.64c-.19.17-9.35,8.26-9.5,18.06-.08,5.31,2.48,10.28,7.84,15.19a6.34,6.34,0,0,1,.38,9A6,6,0,0,1,75.14,161.37Z"/><path class="cls-11" d="M71,130.56h0a4.71,4.71,0,0,1-4.69-4.7V108a4.71,4.71,0,0,1,4.69-4.7h0a4.71,4.71,0,0,1,4.7,4.7v17.85A4.71,4.71,0,0,1,71,130.56Z"/><path class="cls-5" d="M122,162.54l-4.91-11s-11.54,0-10.41,9.61A8.51,8.51,0,0,0,110.5,171C116.46,174.81,123.26,168.73,122,162.54Z"/><path class="cls-5" d="M68.55,161.36l4.92-11s11.54,0,10.41,9.61A8.51,8.51,0,0,1,80,169.83C74.07,173.63,67.27,167.55,68.55,161.36Z"/><path class="cls-11" d="M116.1,131h0a4.71,4.71,0,0,1-4.69-4.7V108.48a4.71,4.71,0,0,1,4.69-4.7h0a4.71,4.71,0,0,1,4.7,4.7v17.85A4.71,4.71,0,0,1,116.1,131Z"/><path class="cls-4" d="M50.66,170.88A21.88,21.88,0,0,1,32.3,192.37a21.06,21.06,0,0,1-3.57.27,21.86,21.86,0,1,1,21.93-21.76Z"/><polygon class="cls-15" points="29.25 164.51 22.27 164.51 18.77 170.56 22.27 176.61 29.25 176.61 32.74 170.56 29.25 164.51"/><path class="cls-15" d="M43.32,187.13a21.78,21.78,0,0,1-10.94,5.23l-.92-1.6,3.49-6h7Z"/><path class="cls-15" d="M20.06,189.35l-.67,1.16a22,22,0,0,1-8.49-7.2h5.67Z"/><path class="cls-15" d="M49.47,163.68l-1,1.66h-7L38,159.28l3.49-6h.28A21.83,21.83,0,0,1,49.47,163.68Z"/><path class="cls-15" d="M21.94,151.77l-3.49,6h-7l-.09-.16a21.79,21.79,0,0,1,9.75-7.31Z"/><path class="cls-16" d="M19.67,160l1.46,2.56"/><path class="cls-16" d="M36,160.78l-3.62,2"/><path class="cls-16" d="M20.51,179c-.73,1.17-1.47,2.34-2.21,3.51"/><path class="cls-16" d="M34.2,182.49c-.82-1.12-1.64-2.23-2.45-3.35"/><path class="cls-17" d="M40.49,172.27l4.06,1.4"/><path class="cls-16" d="M11.16,171.52,15,169.73"/><path class="cls-18" d="M107.78,156.7c-.56.56-6.56-11.74-9.47-17.83a4.88,4.88,0,0,1,1.15-5.75l19-17.09a3.18,3.18,0,0,1,5.14,1.37L128,130.63s1.41,18.79-9.4,22.78C118.58,153.41,113.18,151.3,107.78,156.7Z"/><path class="cls-19" d="M119.62,123.36l-16.1,15.07a1.89,1.89,0,0,1-2.66-.08h0a1.9,1.9,0,0,1,.08-2.67L117,120.6a1.9,1.9,0,0,1,2.66.09h0A1.9,1.9,0,0,1,119.62,123.36Z"/><line class="cls-20" x1="107.31" y1="139.79" x2="113.21" y2="151.3"/><path class="cls-20" d="M116.21,134.65l2,12.69Z"/><line class="cls-20" x1="124.31" y1="140.29" x2="116.21" y2="134.65"/><line class="cls-20" x1="122.02" y1="139.41" x2="118.06" y2="143.2"/></g></g></svg>