<svg xmlns="http://www.w3.org/2000/svg" viewBox="0 0 164.66 47.19"><defs><style>.cls-1{fill:#fff;}.cls-2{fill:#d93e4f;}</style></defs><g id="Layer_2" data-name="Layer 2"><g id="Layer_1-2" data-name="Layer 1"><path class="cls-1" d="M15.7,46.51c-4.21,0-11.62-3.88-13.54-6.14A9.5,9.5,0,0,1,.72,30.69a9.9,9.9,0,0,1,2.79-3.88A15.21,15.21,0,0,1,.33,19.4C-.88,10.77,5.11,2,13.14.71A17.67,17.67,0,0,1,15.88.48a16.74,16.74,0,0,1,9.81,3.23A11.43,11.43,0,0,1,30,13.16a9.41,9.41,0,0,1-2.52,6,15.55,15.55,0,0,1,4,7.05A16.25,16.25,0,0,1,16,46.51Z"/><path class="cls-1" d="M53.92,47.19a9.64,9.64,0,0,1-5.77-1.9,10.53,10.53,0,0,1-2.65.49c-1.87.1-3.7.14-5.54.19-1.28,0-2.51,0-3.75,0h-.12c-1.12,0-2.24,0-3.36,0h0c-9.44,0-11.18-6-11.49-8.57l-.05-.4V36c.07-3.76.12-7.41.18-11.05s.11-7.4.17-11.09c0-1,0-2-.11-3.1a9.91,9.91,0,0,1,8-10.34,15.51,15.51,0,0,1,3.3-.32l2.92,0c2.93,0,6,0,9,.21,1.49.1,3.09.14,5.06.14l3.73,0c1.31,0,2.61,0,3.91,0s2.33,0,3.49,0h.19a12.21,12.21,0,0,1,4.56,1.07A9.35,9.35,0,0,1,71.06,11a9.4,9.4,0,0,1-6.54,8.32c-.33.12-.67.22-1,.31q0,7.51,0,15c0,11-6.93,12.31-8.84,12.47h0C54.45,47.18,54.18,47.19,53.92,47.19Z"/><path class="cls-1" d="M74.86,46.56a9.93,9.93,0,0,1-2.35-.28l-.22-.06a9.44,9.44,0,0,1-7-8.27l0-.25c-.14-2.18-.24-4.31-.28-6.49l-.1-11.93a9.24,9.24,0,0,1-6.29-5.08A9.1,9.1,0,0,1,62.83,2,10.44,10.44,0,0,1,67.42.88c3.3,0,6.66-.06,10-.06,1.41,0,2.81,0,4.22,0a9.62,9.62,0,0,1,8,4.39,9.31,9.31,0,0,1,.7,8.69,9.24,9.24,0,0,1-6.26,5.49c0,.64,0,1.28,0,1.93.07,5,.14,10,.17,15a10.94,10.94,0,0,1-1.87,6.24A8.92,8.92,0,0,1,74.86,46.56Z"/><path class="cls-1" d="M88.9,46.51a9.68,9.68,0,0,1-9.36-9.82c0-2.84,0-5.74,0-8.63,0-1.33,0-2.66,0-4-.11-1.57-.15-5.41,0-8.79.22-4.82.56-12,6.21-13.89A9.24,9.24,0,0,1,89,.79a9.74,9.74,0,0,1,9.52,9l0,.15c.1,1.34.19,2.67.19,4.07l-.13,22.69a9.7,9.7,0,0,1-9.55,9.78Z"/><path class="cls-1" d="M111.67,46.31a9.17,9.17,0,0,1-6.53-2.72,9.23,9.23,0,0,1-6.32,2.69h-.19a9.57,9.57,0,0,1-9.46-9.16V37L89,10.42a13.68,13.68,0,0,1,.3-2.94A8.76,8.76,0,0,1,90.9,3.93,9.87,9.87,0,0,1,99,0a10.06,10.06,0,0,1,7.15,2.81A9,9,0,0,1,111.56.75h.22a9.18,9.18,0,0,1,9.15,9l.26,8c.09,3.24.13,6.48.18,9.68,0,0,0,2.28.06,3.22,0,1.9.08,3.78.08,5.66a9.51,9.51,0,0,1-6.76,9.53A9.27,9.27,0,0,1,111.67,46.31Z"/><path class="cls-1" d="M128.1,46.27a20.46,20.46,0,0,1-2.06-.11,15.8,15.8,0,0,1-14.9-15.93c0-4.35.11-8.32.33-12.15a21.89,21.89,0,0,1,3.19-10A14.64,14.64,0,0,1,127.5.48a16,16,0,0,1,10.13,3.7l.16.13.15.14a16.91,16.91,0,0,1,2.89,3.37,9.37,9.37,0,0,1,.72,9.07,10.14,10.14,0,0,1,1.06,1.63l.1.19.09.2a12.66,12.66,0,0,1,1.09,5c0,.65,0,1.21,0,1.76a35.22,35.22,0,0,1-.82,9C141.08,41.85,135.36,46.27,128.1,46.27Z"/><path class="cls-1" d="M148.29,46.51c-4.21,0-11.62-3.88-13.54-6.14a9.48,9.48,0,0,1-1.44-9.68,10,10,0,0,1,2.78-3.88,15.28,15.28,0,0,1-3.17-7.41C131.71,10.77,137.7,2,145.73.71a17.67,17.67,0,0,1,2.74-.23,16.76,16.76,0,0,1,9.81,3.23,11.46,11.46,0,0,1,4.35,9.45,9.41,9.41,0,0,1-2.52,6,15.74,15.74,0,0,1,4,7.05,16.25,16.25,0,0,1-15.6,20.28Z"/><path class="cls-2" d="M15.79,39.85c-2,.09-7.8-2.89-8.56-3.79A3.06,3.06,0,0,1,9.15,31.3c.76-.05,3.7,1.73,4.46,2.14a3.71,3.71,0,0,0,5.21-2.19,2.37,2.37,0,0,0-.53-2.58,8.88,8.88,0,0,0-2-1.43c-1.21-.62-2.54-1.07-3.79-1.65-3-1.47-5.13-3.7-5.62-7.13C6.21,13.38,9.69,8,14.23,7.27a10,10,0,0,1,7.62,1.87c1.16.85,2.77,4.5.09,6.06a2.18,2.18,0,0,1-2.85-.75,3,3,0,0,0-3.61-1.07,3.13,3.13,0,0,0-2,2.89c-.27,1.83.22,2.68,1.91,3.48,1.29.58,2.68,1.07,4,1.69,2.81,1.39,4.95,3.39,5.75,6.47A9.59,9.59,0,0,1,15.79,39.85Z"/><path class="cls-2" d="M50.52,13.24H34.3v6.82c1.69,0,3.34,0,4.94,0a7.54,7.54,0,0,1,2.23.27,3,3,0,0,1-.62,6c-1.87.05-3.79,0-5.66-.09a9.27,9.27,0,0,1-1-.09v7c3.34-.09,6.77-.18,10.16-.22a5.47,5.47,0,0,1,2.09.31,3.06,3.06,0,0,1,1.79,3.3,3.3,3.3,0,0,1-3.12,2.63c-1.79.09-3.57.13-5.35.18-2.36,0-4.77,0-7.18,0-2.72,0-4.5-.53-4.77-2.72V36c.14-7.35.22-14.71.36-22,0-1.25-.05-2.45-.14-3.7A3.26,3.26,0,0,1,30.77,7a9.14,9.14,0,0,1,2-.18c3.83,0,7.71,0,11.54.22,5.44.36,10.92,0,16.36.14a5.72,5.72,0,0,1,2.14.44,2.68,2.68,0,0,1,1.65,2.9,2.75,2.75,0,0,1-2.05,2.58,5.65,5.65,0,0,1-1.92.32c-1.16,0-2.32,0-3.52,0,0,.13-.09.22-.09.31,0,7,0,14,0,21,0,.84,0,5.66-2.71,5.79a3,3,0,0,1-3.3-2.81c-.18-2.18-.27-4.41-.32-6.64,0-5.75,0-11.5,0-17.25C50.61,13.73,50.56,13.6,50.52,13.24Z"/><path class="cls-2" d="M71.48,13.15c-1.47-.09-2.81-.13-4.15-.22a2.93,2.93,0,0,1-2.76-1.6A2.46,2.46,0,0,1,65.73,8a3.9,3.9,0,0,1,1.69-.44c4.72,0,9.45-.09,14.17,0a2.77,2.77,0,0,1,2.64,3.84,2.83,2.83,0,0,1-2.72,1.78H77.36v1c.09,7.44.22,14.89.27,22.38a4.27,4.27,0,0,1-.76,2.4,2.48,2.48,0,0,1-2.81.94,2.79,2.79,0,0,1-2.18-2.54c-.14-2.05-.23-4.1-.27-6.2q-.06-8.49-.13-17Z"/><path class="cls-2" d="M88,7.67c1.83-.8,3.75.58,4,2.81.09,1.16.18,2.36.18,3.56C92.07,21.58,92,29.16,92,36.69a3,3,0,0,1-2.89,3.16,3,3,0,0,1-2.9-3.16c0-4.32,0-8.6,0-12.93C86.1,23.76,85.66,8.25,88,7.67Z"/><path class="cls-2" d="M101,19c0,2,0,3.74,0,5.52.09,4.06.18,8.12.27,12.13a2.72,2.72,0,0,1-2.63,2.94,2.86,2.86,0,0,1-2.81-2.85v-.22c0-8.74-.09-17.43-.13-26.17a6.78,6.78,0,0,1,.17-1.61,2.35,2.35,0,0,1,.45-1c1.16-1.6,4.46-1.51,5.48.18a27,27,0,0,1,1.65,3.21c2,4.5,3.93,9,5.89,13.46a1.53,1.53,0,0,0,.4.67c0-.89,0-1.74,0-2.58-.09-4.24-.23-8.47-.32-12.71a2.44,2.44,0,1,1,4.86-.09c.09,2.68.18,5.31.27,8,.09,3.3.13,6.64.18,9.94,0,2.86.13,5.66.13,8.47a2.92,2.92,0,0,1-2.27,3.17,2.53,2.53,0,0,1-3-.94,6.44,6.44,0,0,1-.75-1.34c-2.5-5.84-5-11.67-7.54-17.51A5,5,0,0,1,101,19Z"/><path class="cls-2" d="M131.53,25.68a30.79,30.79,0,0,1-4.1-.31,2.54,2.54,0,0,1-2.1-3.44,2.31,2.31,0,0,1,2-1.56c2.05-.17,4.15-.31,6.24-.35a3.17,3.17,0,0,1,3.08,1.56,6.08,6.08,0,0,1,.53,2.32c0,3,.14,6.1-.62,9.09-1.29,4.72-5,7.09-9.85,6.55-3.21-.31-5.8-1.51-7.58-4.32a9.12,9.12,0,0,1-1.38-5c0-3.93.09-7.85.31-11.77a15.24,15.24,0,0,1,2.27-7c3.17-5.44,9.23-5.26,13-2.14a10.17,10.17,0,0,1,1.83,2.09,2.61,2.61,0,0,1-.4,3.57,2.64,2.64,0,0,1-3.52-.31,6,6,0,0,0-3.26-1.78,2.29,2.29,0,0,0-2.49,1.33A12.71,12.71,0,0,0,124,19.88c-.13,3.08-.13,6.11-.13,9.19a8.16,8.16,0,0,0,.44,2.72,2.8,2.8,0,0,0,2.54,1.69,2,2,0,0,0,.49,0c2.86.14,3.44-.26,3.84-3A45,45,0,0,0,131.53,25.68Z"/><path class="cls-2" d="M148.38,39.85c-2,.09-7.8-2.89-8.56-3.79a3.06,3.06,0,0,1,1.92-4.76c.76-.05,3.7,1.73,4.46,2.14a3.72,3.72,0,0,0,5.21-2.19,2.39,2.39,0,0,0-.53-2.58,8.88,8.88,0,0,0-2-1.43c-1.21-.62-2.54-1.07-3.79-1.65-3-1.47-5.13-3.7-5.62-7.13-.71-5.08,2.76-10.43,7.31-11.19a10,10,0,0,1,7.62,1.87c1.16.85,2.77,4.5.09,6.06a2.18,2.18,0,0,1-2.85-.75,3,3,0,0,0-3.61-1.07,3.15,3.15,0,0,0-2,2.89c-.26,1.83.23,2.68,1.92,3.48,1.29.58,2.67,1.07,4,1.69,2.8,1.39,5,3.39,5.75,6.47A9.59,9.59,0,0,1,148.38,39.85Z"/></g></g></svg>