<svg width="899" height="766" viewBox="0 0 899 766" fill="none" xmlns="http://www.w3.org/2000/svg">
<path d="M70.2631 187.05C70.2631 187.05 176.62 -17.351 299.85 1.18909C423.08 19.7292 398.185 56.3498 450.741 77.648C584.206 131.583 606.473 -54.4313 740.629 50.987C929.14 199.155 728.597 386.548 812.272 386.089C895.946 385.629 937.576 521.079 851.412 637.989C765.248 754.899 652.391 738.964 622.932 725.48C584.898 708.166 537.874 634.159 490.988 669.094C444.103 704.182 391.408 801.939 290.86 752.141C138.309 676.602 292.796 489.668 143.012 518.168C-6.63472 546.821 -51.8606 352.073 70.2631 187.05Z" fill="#FCF9EE"/>
<path d="M629.024 506.391L630.91 501.635L633.215 506.855L637.615 507.087L633.844 510.103L634.996 514.975L630.91 512.307L626.51 514.743L628.186 509.639L624.414 507.319L629.024 506.391Z" fill="white"/>
<path d="M655.635 486.555L654.902 483.539L656.892 485.859L659.093 483.887L658.254 486.787L660.978 487.135L658.674 488.063L659.826 490.615L657.731 489.455L656.683 491.543L656.159 489.339L653.749 490.615L655.216 488.527L653.33 487.251L655.635 486.555Z" fill="white"/>
<path d="M252.28 474.607L251.547 471.475L253.642 473.795L255.843 471.823L254.9 474.723L257.624 475.071L255.319 475.999L256.471 478.551L254.376 477.391L253.328 479.479L252.804 477.275L250.499 478.551L251.966 476.463L249.976 475.187L252.28 474.607Z" fill="white"/>
<path d="M225.565 445.375L224.831 442.359L226.927 444.679L229.127 442.707L228.184 445.607L231.013 445.955L228.603 446.883L229.86 449.435L227.66 448.275L226.717 450.363L226.193 448.159L223.784 449.435L225.25 447.347L223.26 446.071L225.565 445.375Z" fill="white"/>
<path d="M200.316 267.432L199.373 263.604L201.992 266.504L204.716 264.068L203.563 267.663L207.021 268.128L204.087 269.288L205.659 272.535L202.935 271.027L201.678 273.579L201.049 270.911L198.011 272.419L199.896 269.868L197.487 268.36L200.316 267.432Z" fill="white"/>
<path d="M708.229 301.304L707.39 297.476L709.905 300.376L712.734 297.94L711.581 301.536L715.038 302L712.105 303.16L713.572 306.408L710.952 304.9L709.59 307.452L708.962 304.784L706.028 306.292L707.809 303.74L705.4 302.232L708.229 301.304Z" fill="#F8F2DE"/>
<path d="M589.527 155.608L588.584 151.78L591.203 154.68L593.927 152.244L592.775 155.84L596.232 156.304L593.298 157.464L594.87 160.712L592.146 159.204L590.889 161.756L590.26 159.088L587.222 160.596L589.108 158.044L586.698 156.536L589.527 155.608Z" fill="white"/>
</svg>
