<svg xmlns="http://www.w3.org/2000/svg" viewBox="0 0 138.09 140"><defs><style>.cls-1{fill:#78a941;}.cls-1,.cls-2,.cls-3,.cls-4,.cls-5,.cls-6{fill-rule:evenodd;}.cls-2{fill:#001c4a;}.cls-3{fill:#fff;}.cls-4{fill:#ffb43b;}.cls-5{fill:#ff3612;}.cls-6{fill:#ee824f;}</style></defs><g id="Layer_2" data-name="Layer 2"><g id="Layer_1-2" data-name="Layer 1"><path class="cls-1" d="M40.55,25.11C45.37,38.81,56,35.79,48.68,44.38,44.76,49,48.59,50.86,36,39.81,28.21,33,2.32,39.18,8.68,15,10.44,8.28,33.27,4.47,40.55,25.11Z"/><path class="cls-2" d="M21.08,17.94c-5.26.26-2.36,7.42,1.49,4.86S22.06,17.5,21.08,17.94Z"/><path class="cls-3" d="M20.36,18.61c-2.63.14-1.18,3.72.75,2.44S20.85,18.4,20.36,18.61Z"/><path class="cls-1" d="M66.11,26.31C64.09,11,88.46-6.52,94.36,2.43,91.82,8.81,80.05,7.6,81,28.44,81,30.37,69.26,38.81,68.59,37.1,66.2,31,66.63,30.24,66.11,26.31Z"/><path class="cls-1" d="M31.11,63.11C16.45,57.9-6.06,77.73,1.52,85.35c6.84-1.11,8.15-12.74,28.53-7.44,1.89.5,12.74-9.1,11.18-10.11C35.72,64.2,34.88,64.45,31.11,63.11Z"/><path class="cls-1" d="M106.64,59.06c14.66-5.2,38.25,8.67,29.59,22.24-4-3.87-11.59-17.63-32-12.33-1.89.49-9.29-4.2-7.74-5.21C102,60.15,102.87,60.4,106.64,59.06Z"/><path class="cls-1" d="M63.17,114.39c-.84,15.39,19.33,33.79,30,21.7-4.91-2.73-20.39-6-21.08-26.8-.07-1.93-6.73-7.61-7.27-5.85C62.91,109.7,63.39,110.43,63.17,114.39Z"/><path class="cls-4" d="M43.38,110.09c10.45,11.47,49.51,19.37,61.22,5.65,9.49-11.12,16.86-32.6,11.88-49.11C94.48-6.36-16.39,44.49,43.38,110.09Z"/><path class="cls-2" d="M9.56,27.48c.29-.09,4.62.27,6.58-.59.16-.07,1.2-.68,1.23-.69,1.25,1-3.83,3.35-7.75,1.65C9.55,27.82,9.55,27.48,9.56,27.48Z"/><path class="cls-5" d="M37.82,47.59c.83.16,5.11-4.65,8.8-6C48.18,41,63.1,34,63,36.74c-.21,4.74,5.3,23.09,2.11,25.33a54.34,54.34,0,0,0-4.26,3.62C58.07,67.56,41.32,52.27,37.82,47.59Z"/><path class="cls-5" d="M66.56,38c-.88,3,.27,24.53,6.42,24.46,13-.17,5.46,11,16.48-16.61,3.7-9.25,1.09-6.2-12.29-10.53C74.38,34.4,68,33.32,66.56,38Z"/><path class="cls-5" d="M44.92,108.11c.83-.16,5.11,4.65,8.8,6,1.56.59,16.48,7.54,16.37,4.83-.21-4.75,5.29-23.1,2.11-25.34C69.84,92,68.66,90.5,67.93,90,65.17,88.14,48.41,103.43,44.92,108.11Z"/><path class="cls-5" d="M73.66,117.72c-.88-3,.27-24.53,6.41-24.45,13.06.16,5.47-11,16.49,16.6,3.7,9.25,1.09,6.2-12.3,10.53C81.47,121.3,75,122.38,73.66,117.72Z"/><path class="cls-5" d="M29.69,81.48c.78.33,1.65,6.68,3.95,9.85,1,1.34,9.5,15.31,10.92,13C47.05,100.26,61.9,88,60.5,84.39c-1-2.67-1.19-4.55-1.52-5.35C57.73,76,35.22,79.51,29.69,81.48Z"/><path class="cls-5" d="M114,65.41c-.52.66,1.89,6.61,1.47,10.49-.17,1.64-.63,18-3,16.64-4.18-2.32-23.22-5.73-23.8-9.55a54.42,54.42,0,0,0-1.34-5.4C86.83,74.3,108.17,66.39,114,65.41Z"/><path class="cls-5" d="M94.88,41.41c.06.83,5.83,3.74,8.11,6.92,1,1.35,11.5,13.91,8.81,14.48-4.69,1-21.27,10.86-24.25,8.36a18.27,18.27,0,0,0-2.25-1.66C82.78,67.33,91.18,45.93,94.88,41.41Z"/><path class="cls-5" d="M113.54,94.25c-.83.15-2,5.78-4.22,9.49-.86,1.41-7.83,12.65-8.7,10.08-1.52-4.5-11-21.89-10.05-24.19,1.08-2.66.91-1.23,1.26-2C92.34,86.47,108.58,91.12,113.54,94.25Z"/><path class="cls-5" d="M37.09,50.42c.31.77-4,8.83-6,12.69-.76,1.47-3.29,15.26-.62,14.64,4.67-1.09,24.59-2.25,26.07-4.25,1.72-2.3.59-1.41,1.09-2.12C58.35,70.36,42.38,52.94,37.09,50.42Z"/><path class="cls-5" d="M61.7,69.07c.11-.19,5.62-5.46,5.82-5.46,2.59,0,8.16,2.64,12.42,3,.38,0,3.65,4.51,4.14,5.22.88,1.29.92.87.21,2.57C82.38,79,86.92,84.67,86,85.47c-1.77,1.46-4.81,4.13-7,4.91-1.58.55-.22,1.16-3.12-.36C75,89.6,68,86.87,67.24,86.87c0,0-2-3-2.45-4-.8-1.75-1.8-4.39-3.1-5.79A49.7,49.7,0,0,1,61.7,69.07Z"/><path class="cls-6" d="M68,64.66c-1.92.93,1.08,2.37.75.43C68.74,64.77,68.11,64.63,68,64.66Z"/><path class="cls-6" d="M78.78,67.22c-1.92.92,1.08,2.36.75.42C79.48,67.33,78.85,67.18,78.78,67.22Z"/><path class="cls-6" d="M83,72.49c-1.92.92,1.08,2.36.75.42C83.73,72.6,83.1,72.45,83,72.49Z"/><path class="cls-6" d="M84.1,84c-1.91.92,1.08,2.36.76.42C84.8,84.14,84.17,84,84.1,84Z"/><path class="cls-6" d="M77.65,88.61c-1.92.93,1.08,2.36.75.43C78.35,88.72,77.72,88.58,77.65,88.61Z"/><path class="cls-6" d="M68,84.89c-1.91.92,1.08,2.36.76.42C68.72,85,68.1,84.85,68,84.89Z"/><path class="cls-6" d="M63.08,75.84c-1.92.92,1.08,2.36.75.43C63.77,76,63.15,75.8,63.08,75.84Z"/><path class="cls-6" d="M63.13,69c-1.92.93,1.08,2.37.75.43C63.83,69.08,63.2,68.94,63.13,69Z"/><path class="cls-6" d="M73.83,75.52c-1.91.92,1.08,2.36.75.43C74.53,75.63,73.9,75.49,73.83,75.52Z"/><path class="cls-6" d="M71.15,74.11c-1.14.55.64,1.41.45.26C71.57,74.18,71.19,74.09,71.15,74.11Z"/><path class="cls-6" d="M69,72.61c-1.15.55.64,1.4.44.25C69.38,72.67,69,72.59,69,72.61Z"/><path class="cls-6" d="M66.25,70.77c-1.14.55.64,1.41.45.25C66.67,70.84,66.29,70.75,66.25,70.77Z"/><path class="cls-6" d="M74.63,73.78c-1.06-.69-.89,1.26,0,.51C74.79,74.16,74.67,73.8,74.63,73.78Z"/><path class="cls-6" d="M74.82,71.15c-1.07-.69-.89,1.27,0,.51C75,71.53,74.86,71.17,74.82,71.15Z"/><path class="cls-6" d="M75,67.9c-1.06-.69-.89,1.27,0,.51C75.17,68.28,75.05,67.92,75,67.9Z"/><path class="cls-6" d="M73.58,84.24c-1.06-.69-.88,1.27,0,.51C73.74,84.63,73.62,84.26,73.58,84.24Z"/><path class="cls-6" d="M73.77,81.61c-1.07-.69-.89,1.27,0,.51C73.92,82,73.81,81.64,73.77,81.61Z"/><path class="cls-6" d="M74,78.36c-1.06-.69-.89,1.27,0,.51C74.12,78.75,74,78.39,74,78.36Z"/><path class="cls-6" d="M81.44,79.73c-1.09.63.75,1.35.47.22C81.86,79.76,81.48,79.7,81.44,79.73Z"/><path class="cls-6" d="M79.15,78.39c-1.1.63.75,1.35.47.22C79.57,78.42,79.19,78.36,79.15,78.39Z"/><path class="cls-6" d="M76.3,76.76c-1.09.63.75,1.35.47.22C76.72,76.79,76.35,76.73,76.3,76.76Z"/><path class="cls-6" d="M71.34,77.19c-.12,1.25,1.55.18.45-.25C71.61,76.87,71.34,77.14,71.34,77.19Z"/><path class="cls-6" d="M68.9,78.25c-.12,1.25,1.55.19.45-.25C69.17,77.93,68.91,78.2,68.9,78.25Z"/><path class="cls-6" d="M65.91,79.59c-.12,1.25,1.54.19.45-.24C66.18,79.28,65.91,79.55,65.91,79.59Z"/><path class="cls-6" d="M80.8,72.85c-.12,1.25,1.55.19.45-.24C81.07,72.54,80.81,72.81,80.8,72.85Z"/><path class="cls-6" d="M78.37,73.92c-.12,1.25,1.54.19.45-.25C78.64,73.6,78.37,73.87,78.37,73.92Z"/><path class="cls-6" d="M75.37,75.26c-.12,1.25,1.55.19.45-.25C75.64,74.94,75.37,75.21,75.37,75.26Z"/><path class="cls-6" d="M66.92,90.85c-1.91.92,1.08,2.36.75.42C67.62,91,67,90.81,66.92,90.85Z"/><path class="cls-6" d="M71.33,95c-1.91.92,1.08,2.36.75.43C72,95.11,71.4,95,71.33,95Z"/><path class="cls-6" d="M68.75,117.25c-1.91.92,1.08,2.36.75.42C69.45,117.35,68.82,117.21,68.75,117.25Z"/><path class="cls-6" d="M47.46,106.71c-1.92.92,1.08,2.36.75.42C48.15,106.82,47.53,106.67,47.46,106.71Z"/><path class="cls-6" d="M43.05,101.71c-1.92.92,1.08,2.36.75.42C43.74,101.81,43.12,101.67,43.05,101.71Z"/><path class="cls-6" d="M32.4,82.23c-1.92.92,1.08,2.36.75.42C33.1,82.34,32.47,82.19,32.4,82.23Z"/><path class="cls-6" d="M57.13,78.82c-1.91.92,1.09,2.36.76.43C57.83,78.93,57.21,78.79,57.13,78.82Z"/><path class="cls-6" d="M59,84.89c-1.91.92,1.08,2.36.76.42C59.66,85,59,84.85,59,84.89Z"/><path class="cls-6" d="M55.52,70.84c-1.91.92,1.08,2.36.75.42C56.22,71,55.59,70.8,55.52,70.84Z"/><path class="cls-6" d="M37.88,53.06c-1.91.93,1.08,2.36.76.43C38.58,53.17,38,53,37.88,53.06Z"/><path class="cls-6" d="M31.54,74.78c-1.92.92,1.08,2.36.75.42C32.24,74.89,31.61,74.74,31.54,74.78Z"/><path class="cls-6" d="M88.11,92.87c-1.92.93,1.08,2.36.75.43C88.81,93,88.18,92.84,88.11,92.87Z"/><path class="cls-6" d="M79.72,94.36c-1.91.93,1.08,2.36.75.43C80.42,94.47,79.79,94.33,79.72,94.36Z"/><path class="cls-6" d="M76.39,118.31c-1.92.92,1.08,2.36.75.43C77.09,118.42,76.46,118.27,76.39,118.31Z"/><path class="cls-6" d="M96,114.8c-1.91.92,1.08,2.36.75.42C96.66,114.91,96,114.76,96,114.8Z"/><path class="cls-6" d="M92.73,88.51c-1.91.92,1.09,2.36.76.42C93.43,88.62,92.81,88.47,92.73,88.51Z"/><path class="cls-6" d="M101.23,109.69c-1.91.92,1.08,2.36.75.42C101.93,109.8,101.3,109.65,101.23,109.69Z"/><path class="cls-6" d="M111.13,94.68c-1.92.92,1.08,2.36.75.43C111.82,94.79,111.2,94.65,111.13,94.68Z"/><path class="cls-6" d="M89.19,76.59c-1.92.92,1.08,2.36.75.42C89.88,76.69,89.26,76.55,89.19,76.59Z"/><path class="cls-6" d="M90.37,82c-1.92.93,1.08,2.37.75.43C91.07,82.12,90.44,82,90.37,82Z"/><path class="cls-6" d="M112.26,66.42c-1.92.92,1.08,2.36.75.43C113,66.53,112.33,66.39,112.26,66.42Z"/><path class="cls-6" d="M111.83,89.57c-1.92.93,1.08,2.36.75.43C112.52,89.68,111.9,89.54,111.83,89.57Z"/><path class="cls-6" d="M89.45,69.29c-1.91.93,1.09,2.37.76.43C90.15,69.4,89.53,69.26,89.45,69.29Z"/><path class="cls-6" d="M109.57,60.83c-1.92.93,1.08,2.36.75.43C110.27,60.94,109.64,60.8,109.57,60.83Z"/><path class="cls-6" d="M95.56,43.59c-1.91.92,1.09,2.36.76.42C96.26,43.7,95.64,43.55,95.56,43.59Z"/><path class="cls-6" d="M87.07,65.73c-1.92.92,1.08,2.36.75.42C87.77,65.84,87.14,65.69,87.07,65.73Z"/><path class="cls-6" d="M89,39.65c-1.91.92,1.09,2.36.76.43C89.7,39.76,89.08,39.61,89,39.65Z"/><path class="cls-6" d="M70.2,35.45c-1.91.92,1.08,2.36.76.42C70.9,35.56,70.28,35.41,70.2,35.45Z"/><path class="cls-6" d="M71.71,59.4c-1.92.92,1.08,2.36.75.42C72.41,59.5,71.78,59.36,71.71,59.4Z"/><path class="cls-6" d="M81,61.42c-1.92.92,1.08,2.36.75.42C81.66,61.53,81,61.38,81,61.42Z"/><path class="cls-6" d="M60.74,37.89c-1.92.93,1.08,2.37.75.43C61.44,38,60.81,37.86,60.74,37.89Z"/><path class="cls-6" d="M40.3,47.47c-1.91.93,1.08,2.37.76.43C41,47.58,40.38,47.44,40.3,47.47Z"/><path class="cls-6" d="M60.2,62.7c-1.91.92,1.08,2.36.75.42C60.9,62.8,60.27,62.66,60.2,62.7Z"/></g></g></svg>