<svg width="151" height="150" viewBox="0 0 151 150" fill="none" xmlns="http://www.w3.org/2000/svg">
<path d="M69.6 106.34C69.6 106.34 58.5 108.34 47.9 117.74C37.3 127.14 31.5 144.44 31.5 144.44C31.5 144.44 24.1 139.74 25.5 141.34C26.9 142.94 34.1 148.54 34.1 148.54C34.1 148.54 57.7 125.84 67.7 123.94L69.6 106.34Z" fill="#E57E66"/>
<path d="M39.1001 144.74L32.5001 139.84L31.5001 141.24C31.5001 141.24 25.9001 138.74 23.6001 140.54L35.0001 149.54L39.1001 144.74Z" fill="#D8B20F"/>
<path d="M29.4999 143.04C29.2999 143.04 29.2 142.94 29.2 142.74L29.2999 140.54C29.2999 140.34 29.4 140.24 29.6 140.24C29.8 140.24 29.9 140.34 29.9 140.54L29.7999 142.74C29.7999 142.94 29.6999 143.04 29.4999 143.04Z" fill="#2D202A"/>
<path d="M58 94.7401C58 94.7401 48.1 89.3401 33.9 89.9401C19.8 90.5401 4.29998 100.34 4.29998 100.34C4.29998 100.34 1.50003 92.0401 1.60003 94.1401C1.60003 96.2401 3.7 105.14 3.7 105.14C3.7 105.14 36.3 102.34 45.3 107.14L58 94.7401Z" fill="#E57E66"/>
<path d="M10.1 105.34L8.09998 97.4401L6.39996 97.9401C6.39996 97.9401 3.69995 92.4401 0.699951 92.4401L3.89996 106.64L10.1 105.34Z" fill="#D8B20F"/>
<path d="M33.6 88.44C33.6 88.44 47.7 85.04 51.7 86.64C51.7 86.64 79.9 110.44 86.5 112.24C86.5 112.24 74.4 127.14 60.7 129.64C60.7 129.64 48.4 120.74 44.5 115.64C44.5 115.64 48.4 109.14 52 106.64C53.6 106.34 45.5 107.04 36.8 109.74C36.9 109.54 32.2 94.84 33.6 88.44Z" fill="#F9B818"/>
<path d="M53.9001 105.54C53.9001 105.54 53.8001 105.44 53.9001 105.54C53.7001 105.44 53.6001 105.34 53.6001 105.24C53.6001 105.14 53.9001 101.64 56.4001 100.44C56.5001 100.34 56.7 100.44 56.8 100.54C56.9 100.64 56.8001 100.84 56.7001 100.94C55.2001 101.64 54.6 103.34 54.3 104.34C55.6 103.34 57.9001 102.44 58.0001 102.34C58.1001 102.24 58.3001 102.34 58.4001 102.54C58.5001 102.64 58.4001 102.84 58.2001 102.94C57.3001 103.34 54.7001 104.44 54.1001 105.34C54.1001 105.44 54.0001 105.54 53.9001 105.54Z" fill="#2D202A"/>
<path d="M39.2 108.14C39.1 108.14 39 108.04 38.9 107.94C32.3 93.1401 36.3 88.7401 36.5 88.6401C36.6 88.5401 36.8 88.5401 36.9 88.6401C37 88.7401 37 88.9401 36.9 89.0401C36.9 89.0401 33 93.4401 39.4 107.74C39.5 107.84 39.4 108.04 39.3 108.14C39.3 108.04 39.2 108.14 39.2 108.14Z" fill="#2D202A"/>
<path d="M62.4999 128.14H62.3999C54.4999 124.84 46.3999 114.94 46.2999 114.84C46.1999 114.74 46.1999 114.54 46.2999 114.44C46.3999 114.34 46.5999 114.34 46.6999 114.44C46.7999 114.54 54.6999 124.34 62.4999 127.54C62.5999 127.64 62.6999 127.74 62.6999 127.94C62.6999 128.04 62.5999 128.14 62.4999 128.14Z" fill="#2D202A"/>
<path d="M58.9 128.44C58.8 128.44 58.7 128.34 58.6 128.24C58.5 128.14 58.6 127.94 58.8 127.84C58.9 127.84 71.3 123.24 77.7 114.84C77.8 114.74 78 114.74 78.1 114.74C78.2 114.84 78.2 115.04 78.2 115.14C71.6 123.74 59.1 128.34 58.9 128.44C59 128.44 58.9 128.44 58.9 128.44Z" fill="#2D202A"/>
<path d="M68.4999 123.04C68.3999 123.04 68.2999 123.04 68.2999 122.94C63.4999 116.94 66.8999 111.54 66.9999 111.44C67.0999 111.34 67.2999 111.24 67.3999 111.34C67.4999 111.44 67.5999 111.64 67.4999 111.74C67.3999 111.94 64.2999 116.84 68.7999 122.54C68.8999 122.64 68.8999 122.84 68.7999 122.94C68.5999 123.04 68.4999 123.04 68.4999 123.04Z" fill="#2D202A"/>
<path d="M80.7 13.6401C80.7 13.6401 89.2 -3.85994 111.7 2.24006C134.3 8.34006 138 26.3401 130.1 42.7401C120.5 62.7401 98.7 63.0401 82.4 49.2401C66.2 35.4401 80.7 13.6401 80.7 13.6401Z" fill="#FCD786"/>
<path d="M80.2001 121.64C80.2001 121.64 50.2001 101.24 45.6001 86.14C45.6001 86.14 66.3001 62.34 71.9001 54.24C71.9001 54.24 96.7001 64.04 109.1 67.24C109.2 67.24 113 96.94 80.2001 121.64Z" fill="#6EAF9F"/>
<path d="M50.3 27.7401C50.3 27.7401 54.4 23.6401 54 23.0401C53.6 22.4401 49.7 25.2401 49.7 25.2401C49.7 25.2401 53.3 18.1401 52.2 17.7401C51.1 17.3401 48.1 22.2401 48.1 22.2401C48.1 22.2401 49.6 14.6401 48.6 15.1401C47.6 15.6401 45.7 21.6401 45.7 21.6401C45.7 21.6401 45.9 15.8401 44.2 16.2401C42.5 16.6401 44.2 23.4401 44.2 23.4401C44.2 23.4401 42.9 19.8401 41.6 20.4401C40.3 21.0401 43.8 26.9401 43.8 26.9401C43.8 26.9401 32.9 48.8401 60.7 66.2401L70.7 54.1401C70.8 54.1401 47.9 40.5401 50.3 27.7401Z" fill="#E57E66"/>
<path d="M47.3 26.8401C47.3 26.8401 47.2 26.8401 47.3 26.8401C47.1 26.8401 47 26.6401 47 26.4401C47 26.3401 47.4 24.8401 49.7 24.8401C49.9 24.8401 50 24.9401 50 25.1401C50 25.3401 49.9 25.4401 49.7 25.4401C47.8 25.5401 47.5 26.6401 47.5 26.6401C47.5 26.8401 47.4 26.8401 47.3 26.8401Z" fill="#2D202A"/>
<path d="M129.4 105.74C129.4 105.74 126.1 110.54 126.7 111.14C127.2 111.64 130.5 108.14 130.5 108.14C130.5 108.14 128.3 115.74 129.5 115.94C130.7 116.14 132.6 110.74 132.6 110.74C132.6 110.74 132.6 118.54 133.5 117.84C134.4 117.14 135.2 110.84 135.2 110.84C135.2 110.84 136.1 116.64 137.7 115.84C139.3 115.14 136.4 108.74 136.4 108.74C136.4 108.74 138.3 112.04 139.5 111.14C140.7 110.24 136.1 105.14 136.1 105.14C136.1 105.14 142.7 81.5401 112 69.8401L104.5 83.5401C104.3 83.6401 129.4 92.7401 129.4 105.74Z" fill="#E57E66"/>
<path d="M124 39.7401C124 39.7401 128.1 15.1401 103.8 9.3401C88.0999 5.5401 65.8 24.4401 77.9 46.2401C87.5 63.1401 119.1 60.0401 124 39.7401Z" fill="#E57E66"/>
<path d="M99.5998 52.64L95.8998 62.94L99.3998 64.54C99.3998 64.54 91.6998 72.14 84.7998 66.04C79.3998 61.24 82.0998 58.14 82.0998 58.14L85.3998 59.34L90.9998 51.14L99.5998 52.64Z" fill="#E57E66"/>
<path d="M88.0999 43.0401C87.9999 43.0401 87.8998 43.0401 87.7998 43.0401C86.9998 42.9401 86.2998 42.6401 85.7998 42.0401C83.3998 39.1401 85.1998 35.2401 85.2998 35.0401C85.3998 34.9401 85.4998 34.8401 85.6998 34.9401C85.7998 35.0401 85.8998 35.1401 85.7998 35.3401C85.7998 35.3401 83.9998 39.1401 86.1998 41.7401C86.5998 42.2401 87.0998 42.5401 87.7998 42.5401C89.9998 42.7401 92.8998 40.2401 92.8998 40.2401C92.9998 40.1401 93.1998 40.1401 93.2998 40.2401C93.3998 40.3401 93.3998 40.5401 93.2998 40.6401C93.1998 40.6401 90.4999 43.0401 88.0999 43.0401Z" fill="#2D202A"/>
<path d="M98.2 42.6401C95.9 44.1401 95.2 47.3401 96.8 49.6401C98.3 51.9401 101.5 52.64 103.8 51.04C106.1 49.54 106.8 46.34 105.2 44.04C103.6 41.74 100.5 41.1401 98.2 42.6401Z" fill="#E74C4E"/>
<path d="M78.0999 26.24C75.7999 27.74 75.0999 30.94 76.6999 33.24C78.1999 35.54 81.3999 36.24 83.6999 34.64C85.9999 33.14 86.6999 29.94 85.0999 27.64C83.5999 25.34 80.4999 24.64 78.0999 26.24Z" fill="#E74C4E"/>
<path d="M100.4 35.1401C99.1999 35.9401 98.8999 37.5401 99.6999 38.6401C100.5 39.8401 102.1 40.1401 103.2 39.3401C104.4 38.5401 104.7 36.9401 103.9 35.8401C103.1 34.6401 101.5 34.3401 100.4 35.1401Z" fill="#2E1F22"/>
<path d="M86.7998 23.4401C85.5998 24.2401 85.2998 25.8401 86.0998 26.9401C86.8998 28.1401 88.4998 28.44 89.5998 27.64C90.7998 26.84 91.0998 25.24 90.2998 24.14C89.5998 23.04 87.9998 22.6401 86.7998 23.4401Z" fill="#2E1F22"/>
<path d="M88.5 55.14C88.5 55.14 92.5 57.64 98.2 57.14L96.7 60.84L87 57.44L88.5 55.14Z" fill="#E74C4E"/>
<path d="M110 50.54C110 50.54 119.6 44.1401 119.7 52.2401C119.9 62.3401 110.4 60.3401 107.3 57.6401C104.2 54.8401 110 50.54 110 50.54Z" fill="#E57E66"/>
<path d="M109.9 56.14C109.8 56.14 109.7 56.14 109.7 56.04C109.6 55.94 109.6 55.74 109.7 55.64C112.7 52.84 115.1 51.5401 116.8 51.9401C117.9 52.1401 118.2 52.9401 118.2 52.9401C118.3 53.0401 118.2 53.2401 118.1 53.3401C118 53.4401 117.8 53.34 117.7 53.24C117.7 53.24 117.4 52.64 116.7 52.54C115.7 52.34 113.7 52.84 110.1 56.14C110 56.14 109.9 56.14 109.9 56.14Z" fill="#2D202A"/>
<path d="M88.7001 37.54C88.5001 37.54 88.4001 37.44 88.4001 37.24L88.1001 31.74C88.1001 31.64 88.2 31.54 88.3 31.44C88.4 31.44 88.5001 31.44 88.6001 31.54L91.2001 34.64L94.5001 31.44C94.6001 31.34 94.8001 31.34 94.9001 31.44C95.0001 31.54 95.0001 31.74 94.9001 31.84L91.4001 35.24C91.3001 35.34 91.3001 35.34 91.2001 35.34C91.1001 35.34 91.0001 35.34 91.0001 35.24L88.8 32.54L89.0001 37.14C89.0001 37.34 88.8001 37.54 88.7001 37.54Z" fill="#2D202A"/>
<path d="M82.6001 13.34C82.6001 13.34 90.3001 24.84 95.9001 24.24C101.5 23.54 106 15.04 106 15.04C106 15.04 99.7001 23.24 100.9 28.14C102.2 33.04 115.5 42.14 119.8 40.94C124 39.74 139.3 19.34 119.8 7.54001C100 -4.45999 84.8001 10.14 82.6001 13.34Z" fill="#FCD786"/>
<path d="M119.8 34.2401C119.8 34.2401 119.8 42.9401 113.1 51.1401C111.4 53.2401 128.5 45.3401 128.1 39.8401C127.8 34.8401 126.4 29.2401 119.8 34.2401Z" fill="#FCD786"/>
<path d="M131.2 34.64C131.2 34.64 145.6 32.44 149.7 41.44C153.8 50.44 142.2 65.54 142.2 65.54C142.2 65.54 127.4 52.94 131.2 34.64Z" fill="#FCD786"/>
<path d="M47.2999 55.1401C47.2999 55.1401 57.6999 45.4401 58.2999 44.4401C58.8999 43.4401 79.0999 57.0401 81.3999 58.0401C81.3999 58.0401 65.9999 70.5401 63.0999 71.4401C60.1999 72.3401 45.6999 56.6401 47.2999 55.1401Z" fill="#6EAF9F"/>
<path d="M99.4 64.4401C99.4 64.4401 115.2 67.0401 125.8 77.2401C125.8 77.2401 118.9 92.4401 118 93.8401C118 93.8401 99.6 85.14 92.5 85.54L99.4 64.4401Z" fill="#6EAF9F"/>
<path d="M105.7 86.3401C105.5 86.2401 105.4 86.1401 105.4 85.9401C109.2 74.9401 106.2 68.4401 106.1 68.3401C106 68.2401 106.1 68.0401 106.2 67.9401C106.3 67.8401 106.5 67.9401 106.6 68.0401C106.7 68.3401 109.8 74.7401 105.9 86.0401C106 86.3401 105.8 86.3401 105.7 86.3401Z" fill="#2D202A"/>
<path d="M60.7999 68.64C60.6999 68.64 60.6999 68.64 60.5999 68.54C60.4999 68.44 60.3999 68.24 60.4999 68.14C60.8999 67.64 69.1999 56.54 74.3999 55.54C74.5999 55.54 74.6999 55.6401 74.6999 55.7401C74.6999 55.9401 74.5999 56.04 74.4999 56.04C69.4999 56.94 60.9999 68.2401 60.8999 68.3401C60.9999 68.5401 60.8999 68.64 60.7999 68.64Z" fill="#2D202A"/>
<path d="M89.7 71.1401C88.3 71.1401 87 70.8401 85.8 70.1401C81.2 67.2401 80 62.3401 80 62.1401C80 61.9401 80.1 61.8401 80.2 61.8401C80.4 61.8401 80.5 61.9401 80.5 62.0401C80.5 62.0401 81.7 66.9401 86.1 69.7401C90.4 72.5401 97.9 68.1401 98 68.1401C98.1 68.0401 98.3 68.1401 98.4 68.2401C98.5 68.3401 98.4 68.5401 98.3 68.6401C98 68.7401 93.7 71.1401 89.7 71.1401Z" fill="#2D202A"/>
<path d="M53.8 83.14C53.8 83.14 56.2 89.04 65.9 97.24C75.6 105.44 87.9 108.34 87.9 108.34L78.8 117.24C78.8 117.24 57.6 105.24 49.5 87.94C49.6 87.94 52.4 84.04 53.8 83.14Z" fill="#58897E"/>
<path d="M110.5 33.3401C110.3 33.3401 110.2 33.24 110.2 33.04C109.4 20.34 113.6 11.74 113.7 11.64C113.8 11.44 114 11.4401 114.2 11.4401C114.4 11.5401 114.4 11.7401 114.4 11.9401C114.4 12.0401 110.2 20.4401 111 32.9401C110.8 33.1401 110.7 33.3401 110.5 33.3401Z" fill="#2E1F22"/>
<path d="M119.4 37.8401H119.3C119.1 37.7401 119 37.5401 119.1 37.3401C122.6 28.9401 121.9 22.4401 120.7 18.5401C119.4 14.3401 117.3 12.0401 117.2 12.0401C117.1 11.9401 117.1 11.6401 117.2 11.5401C117.3 11.4401 117.6 11.4401 117.7 11.5401C117.8 11.6401 126.6 21.1401 119.6 37.6401C119.7 37.7401 119.6 37.8401 119.4 37.8401Z" fill="#2E1F22"/>
<path d="M137.8 51.54C137.6 51.54 137.5 51.3401 137.5 51.2401C137.6 42.1401 133.1 39.2401 133 39.1401C132.8 39.0401 132.8 38.8401 132.9 38.6401C133 38.4401 133.2 38.44 133.4 38.54C133.6 38.64 138.3 41.6401 138.2 51.2401C138.1 51.3401 138 51.54 137.8 51.54Z" fill="#2E1F22"/>
<path d="M140.6 48.4401C140.4 48.4401 140.3 48.3401 140.3 48.1401C140.3 48.0401 139.5 38.94 133.6 37.54C133.5 37.54 133.4 37.4401 133.3 37.2401C133.3 37.1401 133.3 36.9401 133.4 36.9401C133.5 36.8401 135.2 35.44 137.5 36.04C139.8 36.54 141.9 38.74 143.6 42.54C143.7 42.74 143.6 42.94 143.4 43.04C143.2 43.14 143 43.0401 142.9 42.8401C141.3 39.2401 139.4 37.2401 137.3 36.7401C136.1 36.4401 135 36.8401 134.4 37.1401C140 39.1401 140.8 47.7401 140.9 48.1401C141 48.3401 140.9 48.4401 140.6 48.4401C140.7 48.4401 140.7 48.4401 140.6 48.4401Z" fill="#2E1F22"/>
<path d="M88.1999 13.1401C88.0999 13.1401 87.9999 13.0401 87.8999 13.0401C87.7999 12.8401 87.7999 12.6401 87.9999 12.5401C88.4999 12.1401 101.1 3.34013 110.6 7.44013C110.8 7.54013 110.9 7.74013 110.8 7.94013C110.7 8.14013 110.5 8.24011 110.3 8.14011C101.2 4.24011 88.4999 13.0401 88.3999 13.1401C88.3999 13.1401 88.2999 13.1401 88.1999 13.1401Z" fill="#2E1F22"/>
<path d="M94.9999 20.4401C94.8999 20.4401 94.7999 20.4401 94.7999 20.3401C94.6999 20.2401 94.6999 19.9401 94.7999 19.8401C95.2999 19.4401 106 8.94006 111.6 8.94006C111.8 8.94006 112 9.04005 112 9.24005C112 9.44005 111.8 9.54004 111.7 9.54004C106.4 9.54004 95.4999 20.1401 95.3999 20.2401C95.0999 20.4401 94.9999 20.4401 94.9999 20.4401Z" fill="#2E1F22"/>
</svg>
