<svg xmlns="http://www.w3.org/2000/svg" viewBox="0 0 62.55 130"><defs><style>.cls-1{fill:#2d202a;}.cls-2{fill:#e42d31;}.cls-3{fill:#fff;}</style></defs><g id="Layer_2" data-name="Layer 2"><g id="Layer_1-2" data-name="Layer 1"><path class="cls-1" d="M36.67,130a.38.38,0,0,1-.25-.09.37.37,0,0,1,0-.53c10.65-12.1,6.6-23.17,3.23-28.7a28.27,28.27,0,0,0-4.74-5.84c-2.94,2-6.29,2.91-8.6,2a3.75,3.75,0,0,1-2.38-4.1A2.82,2.82,0,0,1,26,89.92c2.1-.52,5.59,1,9,4a15.33,15.33,0,0,0,3.05-3c2.23-2.92,5.1-9-.74-17.25-6.71-9.46-6.91-17.76-5.89-23.05a23.35,23.35,0,0,1,3.88-9.34.37.37,0,0,1,.53-.07.39.39,0,0,1,.07.53c-.11.14-10.51,13.84,2,31.5,6.11,8.61,3.07,15.06.72,18.13a16.17,16.17,0,0,1-3.09,3,28.88,28.88,0,0,1,4.76,5.9c2.8,4.59,8.08,16.66-3.31,29.58A.35.35,0,0,1,36.67,130ZM26.93,90.57a3.14,3.14,0,0,0-.77.08,2.07,2.07,0,0,0-1.51,2.18,3,3,0,0,0,1.89,3.36c1.85.69,4.93,0,7.76-1.86C31.59,91.94,28.83,90.57,26.93,90.57Z"/><ellipse class="cls-2" cx="31.28" cy="34.96" rx="31.28" ry="34.96"/><path class="cls-2" d="M33.94,67.19s-1.06,7.52,0,8.27,5.56-.63,6.32-3.07S33.38,64.44,33.94,67.19Z"/><path class="cls-3" d="M40.31,6.29s14.26,4.75,15,16.53c.12,2-8.26-6.58-18.42-11.23C19.23,3.51,33.09,3.53,40.31,6.29Z"/></g></g></svg>