<svg width="61" height="62" viewBox="0 0 61 62" fill="none" xmlns="http://www.w3.org/2000/svg">
<path fill-rule="evenodd" clip-rule="evenodd" d="M58.1299 19.2522C66.0832 18.8034 55.8252 28.4519 47.7363 25.2656C49.318 20.6434 48.369 22.0794 49.6795 18.5342C52.1649 19.1624 54.9214 19.4317 58.1299 19.2522Z" fill="#F9B818"/>
<path d="M35.6259 32.4008C44.6355 32.4008 51.9393 25.1476 51.9393 16.2004C51.9393 7.25315 44.6355 0 35.6259 0C26.6163 0 19.3125 7.25315 19.3125 16.2004C19.3125 25.1476 26.6163 32.4008 35.6259 32.4008Z" fill="#FFDC48"/>
<path d="M43.3077 15.9758C44.1312 15.9758 44.7989 15.3128 44.7989 14.4949C44.7989 13.677 44.1312 13.014 43.3077 13.014C42.4841 13.014 41.8164 13.677 41.8164 14.4949C41.8164 15.3128 42.4841 15.9758 43.3077 15.9758Z" fill="#4F1A3B"/>
<path fill-rule="evenodd" clip-rule="evenodd" d="M32.508 21.675C43.1727 24.2779 50.9001 32.0864 50.9001 41.3309C50.9001 52.6846 39.2412 61.8843 24.871 61.8843C1.05617 61.8843 -8.79514 35.4072 9.41621 24.7266C8.42204 30.5606 14.5678 35.9906 21.301 35.9906C28.0342 35.9906 33.6377 31.0093 33.6377 26.7461C33.6377 22.5726 33.231 23.2457 32.508 21.675Z" fill="#FFDC48"/>
<path fill-rule="evenodd" clip-rule="evenodd" d="M29.7514 37.6062C34.8126 29.8875 39.2412 50.9794 27.6275 52.7296C22.973 53.4476 15.7879 52.1462 13.8447 48.1522C19.9905 47.6137 25.1873 44.5172 29.7514 37.6062Z" fill="#FCE68D"/>
</svg>
