<svg width="162" height="352" viewBox="0 0 162 352" fill="none" xmlns="http://www.w3.org/2000/svg">
<path d="M37.1098 298.067L37.6472 299.075L38.6549 299.612L37.6472 300.217L37.1098 301.224L36.5052 300.217L35.4976 299.612L36.5052 299.075L37.1098 298.067Z" fill="#EEEEEE"/>
<path d="M66.8019 327.088H41.2747C35.8334 327.088 31.3998 322.654 31.3998 317.213V302.635C31.3998 297.194 35.8334 292.76 41.2747 292.76H66.7347C72.176 292.76 76.6097 297.194 76.6097 302.635V317.213C76.6097 322.654 72.176 327.088 66.8019 327.088Z" fill="#78A941"/>
<path d="M80.3043 309.017C70.5637 309.017 62.2338 302.837 61.8308 302.501C60.017 301.158 59.6811 298.605 61.0246 296.791C62.3682 294.977 64.9209 294.641 66.7347 295.985C66.869 296.119 75.1317 302.098 82.7899 300.62C86.4846 299.881 89.4404 297.597 91.9259 293.499C93.1351 291.551 95.6206 290.947 97.5687 292.156C99.5169 293.365 100.121 295.851 98.9123 297.799C95.2176 303.845 90.3137 307.539 84.2678 308.681C82.9242 308.883 81.5807 309.017 80.3043 309.017Z" fill="#DDEEFD"/>
<path d="M71.1012 301.358V323.123C71.1012 324.668 70.4966 326.079 69.4218 327.356C67.0706 330.177 62.3682 332.125 56.9941 332.125H54.4414C48.7314 332.125 43.7603 329.908 41.6107 326.818C40.8045 325.676 40.4015 324.467 40.4015 323.191V301.425C40.4015 296.521 46.7161 292.424 54.5086 292.424H57.0613C64.7866 292.356 71.1012 296.454 71.1012 301.358Z" fill="#DDEEFD"/>
<path d="M46.9176 342.874L50.8139 332.328C51.8215 332.395 58.9422 332.395 59.7483 332.328L63.6446 342.874L69.0187 342.001C72.5119 328.969 69.5561 324.199 69.5561 324.199H41.0061C41.0061 324.199 37.9831 328.902 41.5435 342.001L46.9176 342.874Z" fill="#FFC8AF"/>
<path d="M40.6703 338.105C40.939 339.314 41.6108 342.875 41.9466 344.218L46.7162 344.352L48.6643 338.105H40.6703Z" fill="#DDEEFD"/>
<path d="M69.9593 338.105H61.8981L63.9134 345.36L68.4814 345.159C68.8844 343.748 69.6906 339.314 69.9593 338.105Z" fill="#DDEEFD"/>
<path d="M55.3148 289.469V295.582L49.5376 293.298C49.5376 293.298 52.359 292.424 51.6873 289.267L55.3148 289.469Z" fill="#FF9D80"/>
<path d="M55.1133 289.469V295.582L60.8905 293.298C60.8905 293.298 58.0691 292.424 58.7408 289.267L55.1133 289.469Z" fill="#FF9D80"/>
<path d="M36.3038 275.227C36.3038 275.227 30.7953 275.495 27.3693 272.472C18.9051 264.949 27.5037 259.977 27.5037 259.977C27.5037 259.977 22.8013 258.701 22.0624 253.529C21.0547 246.341 29.3175 244.325 29.3175 244.325C29.3175 244.325 24.6151 233.846 33.4152 230.151C42.2154 226.456 46.3131 232.368 46.3131 232.368C46.3131 232.368 49.3361 223.836 57.3301 226.524C65.2569 229.211 67.0707 233.577 67.0707 233.577C67.0707 233.577 71.3028 227.867 76.3411 231.159C85.0069 236.802 81.7152 245.333 81.7152 245.333C81.7152 245.333 89.3062 243.788 90.1795 251.648C91.0528 259.507 84.9397 261.455 84.9397 261.455C84.9397 261.455 89.4405 265.352 86.2161 271.532C82.9916 277.712 76.0724 277.309 76.0724 277.309L36.3038 275.227Z" fill="#E74E1B"/>
<path d="M29.0485 276.436C32.536 276.436 35.3632 273.609 35.3632 270.122C35.3632 266.634 32.536 263.807 29.0485 263.807C25.5611 263.807 22.7339 266.634 22.7339 270.122C22.7339 273.609 25.5611 276.436 29.0485 276.436Z" fill="#FF9D80"/>
<path d="M82.387 276.436C85.8745 276.436 88.7016 273.609 88.7016 270.122C88.7016 266.634 85.8745 263.807 82.387 263.807C78.8995 263.807 76.0724 266.634 76.0724 270.122C76.0724 273.609 78.8995 276.436 82.387 276.436Z" fill="#FF9D80"/>
<path d="M74.6616 248.625V252.253H34.2884C32.0716 255.881 30.8624 260.113 30.8624 264.614V275.295C30.8624 283.625 37.7144 290.477 46.0443 290.477H67.0035C74.5944 290.477 80.8418 284.229 80.8418 276.638V264.614C80.7747 258.5 78.4907 252.925 74.6616 248.625Z" fill="#FFC8AF"/>
<path opacity="0.51" d="M39.5955 282.281C41.9328 282.281 43.8276 280.386 43.8276 278.049C43.8276 275.711 41.9328 273.816 39.5955 273.816C37.2581 273.816 35.3633 275.711 35.3633 278.049C35.3633 280.386 37.2581 282.281 39.5955 282.281Z" fill="#FF9D80"/>
<path opacity="0.51" d="M70.8997 282.281C73.2371 282.281 75.1319 280.386 75.1319 278.049C75.1319 275.711 73.2371 273.816 70.8997 273.816C68.5624 273.816 66.6676 275.711 66.6676 278.049C66.6676 280.386 68.5624 282.281 70.8997 282.281Z" fill="#FF9D80"/>
<path d="M53.2323 277.175C54.2399 279.996 58.069 280.198 59.5469 277.645" stroke="#3F2732" stroke-width="0.412818" stroke-miterlimit="10" stroke-linecap="round" stroke-linejoin="round"/>
<path d="M32.609 267.098C32.609 267.098 41.4763 268.979 45.8428 265.956C50.2764 262.933 47.5894 253.596 54.5086 251.983C61.3606 250.304 62.5026 256.551 62.5026 256.551C62.5026 256.551 68.1454 253.058 71.034 255.275C78.2219 260.783 68.2798 270.121 76.5425 269.852C84.8052 269.516 83.5289 262.53 83.5289 262.53C83.5289 262.53 81.9838 262.664 80.5731 260.851C79.1624 259.037 84.6709 243.519 65.324 247.617C65.324 247.617 58.4048 236.465 44.6336 241.638C30.8624 246.878 28.5112 259.843 32.609 267.098Z" fill="#E74E1B"/>
<path d="M35.0946 253.664C34.2885 253.664 33.5495 253.462 32.9449 253.059C30.6609 251.514 30.4594 247.887 30.4594 247.685C30.4594 247.551 30.5266 247.416 30.6609 247.416C30.7953 247.416 30.9296 247.484 30.9296 247.618C30.9296 247.685 31.1312 251.245 33.2137 252.589C34.2213 253.261 35.5648 253.328 37.1099 252.791C38.9237 252.186 40.8718 250.372 42.9543 248.491C46.2459 245.535 49.6719 242.445 53.1651 242.983C55.1804 243.319 56.9942 244.796 58.6064 247.551C58.6736 247.685 58.6064 247.819 58.5392 247.887C58.4049 247.954 58.2705 247.887 58.2034 247.819C56.6583 245.2 54.9789 243.789 53.0979 243.453C49.8735 242.983 46.5146 245.938 43.2901 248.827C41.1405 250.775 39.1252 252.589 37.2442 253.261C36.4381 253.529 35.7664 253.664 35.0946 253.664Z" fill="#2D202A"/>
<path d="M61.495 248.357C61.2935 248.357 61.2263 248.222 61.2263 248.088C61.2263 248.021 62.4355 241.303 59.3453 238.885C58.069 237.877 56.1208 238.078 54.3071 238.28C52.4933 238.482 50.8139 238.616 49.8062 237.675C49.2017 237.138 48.933 236.332 49.0001 235.123C49.0001 234.988 49.1345 234.854 49.2688 234.921C49.4032 234.921 49.5375 235.056 49.4704 235.19C49.4704 236.265 49.6719 236.936 50.1421 237.407C50.9482 238.213 52.5605 238.011 54.2399 237.877C56.188 237.675 58.2033 237.474 59.6812 238.616C62.9729 241.236 61.8309 248.021 61.7637 248.289C61.7637 248.289 61.6293 248.357 61.495 248.357Z" fill="#2D202A"/>
<path d="M63.7791 249.296C63.6448 249.296 63.5104 249.162 63.5104 249.028C63.5776 248.759 64.5853 241.705 69.2205 241.369C71.1686 241.235 72.7136 241.638 73.9228 241.907C75.6022 242.31 76.6771 242.579 77.6847 241.437C77.7519 241.369 77.9534 241.302 78.0206 241.437C78.0878 241.504 78.1549 241.705 78.0206 241.773C76.8114 243.116 75.4679 242.78 73.7885 242.377C72.5793 242.108 71.1014 241.705 69.2205 241.84C64.9211 242.108 63.9135 248.96 63.9135 249.028C63.9807 249.229 63.9135 249.296 63.7791 249.296Z" fill="#2D202A"/>
<path d="M81.1777 257.223C78.9609 257.223 78.2891 255.813 77.5502 254.133C76.8113 252.521 76.0051 250.707 73.7211 249.297C71.9745 248.222 70.4966 247.886 69.2875 248.356C67.6081 248.961 66.9363 250.842 66.9363 250.842C66.8691 250.976 66.7348 251.043 66.6004 250.976C66.466 250.909 66.3989 250.774 66.4661 250.64C66.4661 250.573 67.205 248.558 69.0859 247.886C70.4966 247.416 72.1089 247.752 73.9898 248.894C76.4082 250.439 77.2815 252.387 78.0204 253.932C78.8937 255.947 79.4983 257.223 82.6556 256.619C82.79 256.619 82.9243 256.686 82.9243 256.82C82.9243 256.955 82.8571 257.089 82.7228 257.089C82.1182 257.223 81.648 257.223 81.1777 257.223Z" fill="#2D202A"/>
<path d="M37.9832 259.777C37.5129 259.777 37.1771 259.709 37.1771 259.709C37.0427 259.709 36.9755 259.575 36.9755 259.441C36.9755 259.306 37.1099 259.239 37.2442 259.239C37.3114 259.239 41.2077 259.709 44.365 256.821C45.5741 255.746 46.4474 254.268 47.2535 252.857C48.7314 250.439 50.075 248.222 52.6949 248.827C52.8292 248.827 52.8964 248.961 52.8964 249.095C52.8964 249.23 52.762 249.297 52.6277 249.297C50.3437 248.76 49.1345 250.775 47.7238 253.126C46.8505 254.537 45.9772 256.015 44.768 257.157C42.1481 259.508 39.3267 259.777 37.9832 259.777Z" fill="#2D202A"/>
<path d="M81.1777 265.956C79.9685 265.956 75.7364 265.822 75.602 264.008C75.602 263.605 75.6692 263.068 75.8036 262.329C76.2738 259.776 77.0127 255.947 72.5119 253.797C72.3776 253.73 72.3104 253.596 72.3775 253.461C72.4447 253.327 72.5791 253.26 72.7134 253.327C77.5502 255.678 76.744 259.843 76.2738 262.396C76.1394 263.068 76.0723 263.605 76.0723 263.941C76.1394 265.083 79.4311 265.419 81.4464 265.419C81.5807 265.419 81.7151 265.553 81.7151 265.688C81.7151 265.822 81.5807 265.956 81.4464 265.956C81.3792 265.956 81.312 265.956 81.1777 265.956Z" fill="#2D202A"/>
<path d="M47.8582 274.152C48.6744 274.152 49.3361 273.49 49.3361 272.674C49.3361 271.857 48.6744 271.196 47.8582 271.196C47.042 271.196 46.3803 271.857 46.3803 272.674C46.3803 273.49 47.042 274.152 47.8582 274.152Z" fill="#3F2732"/>
<path d="M65.4585 272.674C65.4585 273.48 64.7867 274.152 63.9806 274.152C63.1744 274.152 62.5027 273.48 62.5027 272.674C62.5027 271.868 63.1744 271.196 63.9806 271.196C64.7867 271.196 65.4585 271.868 65.4585 272.674Z" fill="#3F2732"/>
<path d="M55.382 268.241V272.07L58.3377 270.727L56.7255 274.354" stroke="#D6402E" stroke-width="0.412818" stroke-miterlimit="10" stroke-linecap="round" stroke-linejoin="round"/>
<path d="M94.0756 285.102C96.5611 284.766 94.9489 288.998 94.7474 290.677C95.4863 290.744 96.0237 289.938 96.2924 289.199C96.8299 287.923 97.3673 286.714 97.9047 285.437C98.2406 284.564 98.9795 283.556 99.8528 283.892C100.525 284.161 100.659 284.967 100.592 285.706C100.525 286.512 100.39 287.318 100.122 288.125C100.726 287.52 101.331 286.915 101.868 286.311C102.473 285.706 103.346 285.034 104.085 285.505C104.555 285.773 104.69 286.445 104.555 286.915C104.421 287.453 104.085 287.923 103.749 288.326C103.077 289.199 102.406 290.073 101.465 290.61C102.406 289.938 103.48 289.401 104.555 288.998C105.16 288.796 105.899 288.662 106.302 289.132C106.839 289.804 106.167 290.744 105.496 291.215C104.555 291.886 103.548 292.491 102.473 293.028C103.077 292.625 103.816 292.424 104.555 292.558C104.757 292.558 104.958 292.625 105.093 292.76C105.63 293.163 105.093 293.969 104.622 294.439C103.279 295.715 101.868 296.992 100.122 297.664C97.0986 298.873 94.1428 297.529 92.9336 294.641C92.329 293.23 92.0603 291.685 92.1947 290.207C92.5306 286.109 94.0756 285.102 94.0756 285.102Z" fill="#FFC8AF"/>
<path d="M31.0641 308.076C40.8047 308.076 49.1346 301.896 49.5376 301.56C51.3514 300.217 51.6873 297.664 50.3438 295.85C49.0002 294.036 46.4475 293.701 44.6337 295.044C44.4994 295.178 36.2367 301.157 28.5785 299.679C24.8838 298.94 21.928 296.656 19.4425 292.559C18.2333 290.61 15.7478 290.006 13.7997 291.215C11.8515 292.424 11.2469 294.91 12.4561 296.858C16.1508 302.904 21.0547 306.598 27.1006 307.74C28.4442 307.942 29.7877 308.076 31.0641 308.076Z" fill="#DDEEFD"/>
<path d="M17.2928 284.229C14.8072 283.893 16.4195 288.125 16.621 289.804C15.8821 289.871 15.3447 289.065 15.0759 288.326C14.5385 287.05 14.0011 285.841 13.4637 284.564C13.1278 283.691 12.3889 282.683 11.5156 283.019C10.8438 283.288 10.7095 284.094 10.7766 284.833C10.8438 285.639 10.9782 286.445 11.2469 287.251C10.6423 286.647 10.0377 286.042 9.50029 285.438C8.8957 284.833 8.0224 284.161 7.28346 284.632C6.81322 284.9 6.67887 285.572 6.81322 286.042C6.94757 286.58 7.28346 287.05 7.61934 287.453C8.29111 288.326 8.96287 289.2 9.90335 289.737C8.96287 289.065 7.88805 288.528 6.81322 288.125C6.20863 287.923 5.46969 287.789 5.06663 288.259C4.52922 288.931 5.20098 289.871 5.87275 290.342C6.81322 291.013 7.82087 291.618 8.8957 292.155C8.29111 291.752 7.55216 291.551 6.81322 291.685C6.61169 291.685 6.41016 291.752 6.27581 291.887C5.73839 292.29 6.27581 293.096 6.74604 293.566C8.08958 294.842 9.50029 296.119 11.2469 296.791C14.2698 298 17.2256 296.656 18.4348 293.768C19.0394 292.357 19.3081 290.812 19.1737 289.334C18.8378 285.236 17.2928 284.229 17.2928 284.229Z" fill="#FFC8AF"/>
<path d="M63.6446 344.419L63.1744 348.651C62.9729 350.263 64.0477 351.808 65.5256 351.741L73.5196 351.674C74.4601 351.674 74.8631 350.331 74.1914 349.659L68.6829 344.285L63.6446 344.419Z" fill="#3F2732"/>
<path d="M68.8844 344.285H63.779V345.964H68.8844V344.285Z" fill="#3F2732"/>
<path d="M47.1864 344.419L47.6566 348.651C47.8582 350.263 46.7833 351.808 45.3055 351.741L37.3114 351.674C36.371 351.674 35.9679 350.331 36.6397 349.659L42.1482 344.285L47.1864 344.419Z" fill="#3F2732"/>
<path d="M69.6906 312.241C68.0111 312.241 66.6676 310.897 66.6676 309.218V297.73C66.6676 296.051 68.0111 294.708 69.6906 294.708C71.37 294.708 72.7135 296.051 72.7135 297.73V309.218C72.7135 310.897 71.37 312.241 69.6906 312.241Z" fill="#597C2A"/>
<path d="M40.6702 311.973C38.9908 311.973 37.6473 310.629 37.6473 308.95V297.462C37.6473 295.783 38.9908 294.439 40.6702 294.439C42.3496 294.439 43.6932 295.783 43.6932 297.462V308.95C43.6932 310.562 42.3496 311.973 40.6702 311.973Z" fill="#597C2A"/>
<path d="M48.194 292.155H62.6369L62.7713 294.641L57.5987 298.134L55.1132 295.581L52.6948 298L48.3283 294.506C48.3283 294.506 48.194 292.021 48.194 292.155Z" fill="#44B0D7"/>
<path d="M55.3148 299.209C54.1728 299.209 53.1652 298.268 53.1652 297.059V295.514C53.1652 294.372 54.1056 293.364 55.3148 293.364C56.4568 293.364 57.4645 294.305 57.4645 295.514V297.059C57.3973 298.268 56.4568 299.209 55.3148 299.209Z" fill="#4C2A3B"/>
<path d="M54.5759 297.933L50.1422 308.077L55.9194 312.846L60.8233 308.01L56.1209 297.799L54.5759 297.933Z" fill="#4C2A3B"/>
<path d="M39.9313 317.817C39.9313 317.817 38.4534 330.514 41.5435 342.001H47.8581L50.8139 332.327H59.7484L62.8385 341.06L69.2203 341.195C69.2203 341.195 72.9822 329.304 71.0341 317.481C71.0341 317.481 39.4611 317.414 39.9313 317.817Z" fill="#4F2F3F"/>
<path d="M48.2611 323.392C47.3878 323.392 46.6489 322.653 46.6489 321.78V317.078C46.6489 316.204 47.3878 315.465 48.2611 315.465C49.1344 315.465 49.8733 316.204 49.8733 317.078V321.78C49.8733 322.72 49.1344 323.392 48.2611 323.392Z" fill="#725465"/>
<path d="M63.7118 323.057C62.8385 323.057 62.0995 322.318 62.0995 321.445V316.743C62.0995 315.869 62.8385 315.13 63.7118 315.13C64.5851 315.13 65.324 315.869 65.324 316.743V321.445C65.324 322.385 64.5851 323.057 63.7118 323.057Z" fill="#725465"/>
<path d="M42.887 346.703H38.7221C38.4534 346.703 38.2518 346.501 38.2518 346.233V345.964C38.2518 345.695 38.4534 345.494 38.7221 345.494H42.887C43.1557 345.494 43.3573 345.695 43.3573 345.964V346.233C43.3573 346.501 43.1557 346.703 42.887 346.703Z" fill="#523544"/>
<path d="M72.7134 348.517H68.5484C68.2797 348.517 68.0782 348.315 68.0782 348.047V347.778C68.0782 347.509 68.2797 347.308 68.5484 347.308H72.7134C72.9821 347.308 73.1836 347.509 73.1836 347.778V348.047C73.1164 348.315 72.9149 348.517 72.7134 348.517Z" fill="#523544"/>
<path d="M41.8794 348.517H37.7144C37.4457 348.517 37.2442 348.315 37.2442 348.047V347.778C37.2442 347.509 37.4457 347.308 37.7144 347.308H41.8794C42.1481 347.308 42.3496 347.509 42.3496 347.778V348.047C42.2825 348.315 42.0809 348.517 41.8794 348.517Z" fill="#523544"/>
<path d="M71.2357 346.569H67.0707C66.802 346.569 66.6005 346.367 66.6005 346.098V345.83C66.6005 345.561 66.802 345.359 67.0707 345.359H71.2357C71.5044 345.359 71.7059 345.561 71.7059 345.83V346.098C71.6387 346.367 71.4372 346.569 71.2357 346.569Z" fill="#523544"/>
<path d="M121.007 0.83636C121.823 4.78277 122.081 8.98774 121.805 13.0716C121.529 17.1554 120.644 21.1683 119.024 24.831C117.479 28.4435 115.157 31.6128 112.374 33.7581C109.633 35.9965 106.557 37.4903 103.512 38.8407C100.426 40.0981 97.3395 41.3555 94.4942 42.9349C91.5754 44.5646 88.7823 46.4735 86.1987 48.8479C80.9896 53.5035 77.1954 60.235 74.7543 67.624C75.7231 63.7973 77.1535 60.1419 78.9719 56.7082C80.8323 53.3676 83.0491 50.3919 85.6643 47.8742C90.7794 42.796 97.047 39.8514 103.146 37.3869C106.191 36.0364 109.235 34.686 111.829 32.548C114.538 30.4529 116.682 27.5275 118.311 24.1011C121.497 17.2987 122.113 8.84442 121.007 0.83636Z" fill="#223553"/>
<path d="M85.5573 62.7983L91.5132 56.1717L82.8068 51.7762L85.5573 62.7983Z" fill="#F15A61"/>
<path d="M80.0881 40.6105L74.1321 47.2371L82.8069 51.776L80.0881 40.6105Z" fill="#F15A61"/>
<path d="M82.0522 50.9533C82.4094 50.4658 83.0496 50.3934 83.5215 50.8012C83.9199 51.2592 83.9927 52.0615 83.6774 52.6421C83.3201 53.1297 82.6799 53.2021 82.208 52.7943C81.6942 52.2934 81.6215 51.4911 82.0522 50.9533Z" fill="#F15A61"/>
<path d="M96.354 52.6181L103.881 49.0558L96.9096 41.0403L96.354 52.6181Z" fill="#FCB415"/>
<path d="M97.5075 29.5569L89.9382 33.0261L96.9099 41.0416L97.5075 29.5569Z" fill="#FCB415"/>
<path d="M96.4492 40.0179C96.9637 39.6663 97.5826 39.9736 97.8758 40.6252C98.1691 41.2768 97.9376 42.0436 97.4231 42.3952C96.9085 42.7469 96.2896 42.4396 95.9964 41.788C95.7031 41.1364 95.8927 40.2765 96.4492 40.0179Z" fill="#FCB415"/>
<path d="M111.713 45.5301L118.853 40.8937L111.209 33.9465L111.713 45.5301Z" fill="#52C4C9"/>
<path d="M110.705 22.3639L103.565 27.0003L111.209 33.9475L110.705 22.3639Z" fill="#52C4C9"/>
<path d="M110.559 32.9305C111.032 32.4858 111.682 32.6498 111.976 33.3014C112.342 33.9027 112.226 34.7124 111.712 35.064C111.239 35.5088 110.589 35.3448 110.295 34.6932C109.971 34.1849 110.087 33.3753 110.559 32.9305Z" fill="#52C4C9"/>
<path d="M127.155 27.3072L130.08 18.0048L120.761 18.6534L127.155 27.3072Z" fill="white"/>
<path d="M114.482 10.0438L111.483 19.3964L120.761 18.6547L114.482 10.0438Z" fill="white"/>
<path d="M119.806 18.4551C119.964 17.7385 120.552 17.3366 121.056 17.6011C121.633 17.8153 121.968 18.56 121.768 19.1835C121.61 19.9001 121.022 20.302 120.518 20.0375C120.015 19.773 119.648 19.1717 119.806 18.4551Z" fill="white"/>
<path d="M35.4584 159.48L79.5792 143.688L50.4331 123.563L35.4584 159.48Z" fill="#FCB415"/>
<path d="M75.0491 66.5711L50.433 123.561L79.579 143.686L75.0491 66.5711Z" fill="#F15A61"/>
<path d="M21.5069 104.139L50.4331 123.562L35.4584 159.479L21.5069 104.139Z" fill="#52C4C9"/>
<path d="M75.0494 66.5721L21.5071 104.139L50.4334 123.562L75.0494 66.5721Z" fill="#FFAC39"/>
<path d="M22.2234 346.161C20.4326 340.643 18.9095 334.481 17.7442 327.69C16.538 320.979 15.7305 313.561 15.2482 305.771C14.7659 297.981 14.5678 289.899 14.804 281.554C15.0103 273.203 15.5799 264.662 16.4802 256.188C17.3913 247.629 18.6933 239.148 20.244 230.892C21.8247 222.642 23.7252 214.543 25.6448 206.536C27.5644 198.529 29.5141 190.528 31.2643 182.399C33.0254 174.185 34.5077 165.74 35.5391 157.205C34.4476 165.728 32.9051 174.161 31.1249 182.284C29.3447 190.406 27.395 198.407 25.4562 206.323C23.5065 214.325 21.617 222.338 20.0253 230.673C18.4337 239.009 17.1208 247.575 16.2096 256.134C15.3285 264.699 14.778 273.331 14.5718 281.682C14.5503 283.776 14.4988 285.864 14.4773 287.957L14.5548 294.092C14.5441 295.139 14.6044 296.113 14.6346 297.081L14.7444 300.075C14.8047 301.049 14.794 302.096 14.8843 303.076L15.0652 305.997C15.5885 313.707 16.415 321.217 17.6622 327.849C18.8275 334.639 20.3807 340.808 22.2234 346.161Z" fill="#213653"/>
</svg>
