<svg xmlns="http://www.w3.org/2000/svg" xmlns:xlink="http://www.w3.org/1999/xlink" viewBox="0 0 78.07 73.08"><defs><style>.cls-1{mask:url(#mask);filter:url(#luminosity-noclip-3);}.cls-11,.cls-12,.cls-2,.cls-32,.cls-34,.cls-35,.cls-4,.cls-42,.cls-48,.cls-49,.cls-50,.cls-51{mix-blend-mode:multiply;}.cls-2{fill:url(#linear-gradient);}.cls-3{mask:url(#mask-2);filter:url(#luminosity-noclip-4);}.cls-4{fill:url(#linear-gradient-2);}.cls-5{isolation:isolate;}.cls-6{fill:#8c0000;}.cls-7{fill:#fac761;}.cls-14,.cls-15,.cls-16,.cls-17,.cls-8{mix-blend-mode:overlay;}.cls-8{fill:url(#linear-gradient-3);}.cls-9{fill:#ebb449;}.cls-10{fill:#fce4b3;}.cls-11{fill:url(#linear-gradient-4);}.cls-12{fill:url(#linear-gradient-5);}.cls-13{fill:#ed1c24;}.cls-14{fill:url(#linear-gradient-6);}.cls-15{fill:url(#linear-gradient-7);}.cls-16{fill:url(#linear-gradient-8);}.cls-17{fill:url(#linear-gradient-9);}.cls-18{fill:#dea127;}.cls-19{fill:#997a3b;}.cls-20{fill:url(#linear-gradient-10);}.cls-21{opacity:0.7;}.cls-22{fill:#7eb033;}.cls-23{fill:#616801;}.cls-24{fill:#a1b400;}.cls-25{fill:#b1d132;}.cls-26{fill:#b3d246;}.cls-27{fill:#cd3700;}.cls-28{mask:url(#mask-3);}.cls-29,.cls-31{mix-blend-mode:screen;}.cls-29{fill:url(#linear-gradient-11);}.cls-30{mask:url(#mask-4);}.cls-31{fill:url(#linear-gradient-12);}.cls-32{fill:#3d8da8;opacity:0.5;}.cls-33{fill:#edf4f9;}.cls-34{fill:#939598;}.cls-34,.cls-42{opacity:0.4;}.cls-35,.cls-48,.cls-49,.cls-50,.cls-51{opacity:0.3;}.cls-35{fill:url(#linear-gradient-13);}.cls-36{fill:#fafbfd;}.cls-37{fill:#915533;}.cls-38{fill:#e4eaef;}.cls-39{fill:#fffffb;}.cls-40{fill:#bd9649;}.cls-41,.cls-42{fill:#bcbec0;}.cls-43{fill:#fff;}.cls-44{fill:#e6e7e8;}.cls-45{fill:url(#linear-gradient-14);}.cls-46{fill:url(#radial-gradient);}.cls-47{fill:url(#radial-gradient-2);}.cls-48{fill:url(#linear-gradient-15);}.cls-49{fill:url(#linear-gradient-16);}.cls-50{fill:url(#linear-gradient-17);}.cls-51{fill:url(#linear-gradient-18);}.cls-52{fill:url(#linear-gradient-19);}.cls-53{filter:url(#luminosity-noclip-2);}.cls-54{filter:url(#luminosity-noclip);}</style><filter id="luminosity-noclip" x="34.09" y="-14836.15" width="3.49" height="32766" filterUnits="userSpaceOnUse" color-interpolation-filters="sRGB"><feFlood flood-color="#fff" result="bg"/><feBlend in="SourceGraphic" in2="bg"/></filter><mask id="mask" x="34.09" y="-14836.15" width="3.49" height="32766" maskUnits="userSpaceOnUse"><g class="cls-54"/></mask><linearGradient id="linear-gradient" x1="865.78" y1="-965.06" x2="865.78" y2="-968.78" gradientTransform="matrix(0.96, -0.26, 0.26, 0.96, -545.12, 1188.91)" gradientUnits="userSpaceOnUse"><stop offset="0.01"/><stop offset="1" stop-color="#fff"/></linearGradient><filter id="luminosity-noclip-2" x="39.78" y="-14836.15" width="4.56" height="32766" filterUnits="userSpaceOnUse" color-interpolation-filters="sRGB"><feFlood flood-color="#fff" result="bg"/><feBlend in="SourceGraphic" in2="bg"/></filter><mask id="mask-2" x="39.78" y="-14836.15" width="4.56" height="32766" maskUnits="userSpaceOnUse"><g class="cls-53"/></mask><linearGradient id="linear-gradient-2" x1="42.06" y1="22.66" x2="42.06" y2="20.42" gradientTransform="matrix(1, 0, 0, 1, 0, 0)" xlink:href="#linear-gradient"/><linearGradient id="linear-gradient-3" x1="39.04" y1="28.42" x2="39.04" y2="85.72" gradientUnits="userSpaceOnUse"><stop offset="0" stop-color="#918f90"/><stop offset="1"/></linearGradient><linearGradient id="linear-gradient-4" x1="30.4" y1="29.51" x2="22.78" y2="20.24" gradientTransform="translate(2.3 -4.73) rotate(0.03)" gradientUnits="userSpaceOnUse"><stop offset="0.56" stop-color="#fff"/><stop offset="0.6" stop-color="#fbf9f8"/><stop offset="0.65" stop-color="#efe9e5"/><stop offset="0.72" stop-color="#ddcfc6"/><stop offset="0.79" stop-color="#c3aa9b"/><stop offset="0.87" stop-color="#a27b65"/><stop offset="0.91" stop-color="#8f6146"/><stop offset="0.95" stop-color="#78401f"/></linearGradient><linearGradient id="linear-gradient-5" x1="16705.4" y1="19.5" x2="16697.78" y2="10.24" gradientTransform="matrix(-1, 0, 0, 1, 16750.76, -4.73)" xlink:href="#linear-gradient-4"/><linearGradient id="linear-gradient-6" x1="39.04" y1="15.89" x2="39.04" y2="28.46" gradientUnits="userSpaceOnUse"><stop offset="0" stop-color="#d1d3d4"/><stop offset="1"/></linearGradient><linearGradient id="linear-gradient-7" x1="39.04" y1="68.6" x2="39.04" y2="73.51" xlink:href="#linear-gradient-3"/><linearGradient id="linear-gradient-8" x1="39.04" y1="70.14" x2="39.04" y2="69.08" gradientUnits="userSpaceOnUse"><stop offset="0" stop-color="#fff"/><stop offset="1" stop-color="#231f20"/></linearGradient><linearGradient id="linear-gradient-9" x1="39.04" y1="72.39" x2="39.04" y2="71.33" xlink:href="#linear-gradient-8"/><linearGradient id="linear-gradient-10" x1="40.63" y1="29.37" x2="37.1" y2="20.47" gradientUnits="userSpaceOnUse"><stop offset="0" stop-color="#9ed7e2"/><stop offset="1" stop-color="#2eabe3"/></linearGradient><filter id="luminosity-noclip-3" x="34.09" y="24.76" width="3.49" height="5.64" filterUnits="userSpaceOnUse" color-interpolation-filters="sRGB"><feFlood flood-color="#fff" result="bg"/><feBlend in="SourceGraphic" in2="bg"/></filter><mask id="mask-3" x="34.09" y="24.76" width="3.49" height="5.64" maskUnits="userSpaceOnUse"><g class="cls-1"><path class="cls-2" d="M34.79,29.76c0-.38-1.39-1.06-.24-2.22s-.62-2.11,1.07-2.6,1.06.1,1.32,1.24,1,3.78.47,4S34.91,30.68,34.79,29.76Z"/></g></mask><linearGradient id="linear-gradient-11" x1="865.78" y1="-965.06" x2="865.78" y2="-968.78" gradientTransform="matrix(0.96, -0.26, 0.26, 0.96, -545.12, 1188.91)" gradientUnits="userSpaceOnUse"><stop offset="0.01" stop-color="#f1f2f2"/><stop offset="1"/></linearGradient><filter id="luminosity-noclip-4" x="39.78" y="19.52" width="4.56" height="3.34" filterUnits="userSpaceOnUse" color-interpolation-filters="sRGB"><feFlood flood-color="#fff" result="bg"/><feBlend in="SourceGraphic" in2="bg"/></filter><mask id="mask-4" x="39.78" y="19.52" width="4.56" height="3.34" maskUnits="userSpaceOnUse"><g class="cls-3"><path class="cls-4" d="M40.08,22.27c0-.06-.63-1.68,0-2.25s.64-.59,1.62-.36a5.3,5.3,0,0,1,2.27,1.11c.58.34.39,1.82.39,1.82S40.22,23.4,40.08,22.27Z"/></g></mask><linearGradient id="linear-gradient-12" x1="42.06" y1="22.66" x2="42.06" y2="20.42" gradientTransform="matrix(1, 0, 0, 1, 0, 0)" xlink:href="#linear-gradient-11"/><linearGradient id="linear-gradient-13" x1="39.04" y1="35.01" x2="39.04" y2="33.73" gradientUnits="userSpaceOnUse"><stop offset="0.01" stop-color="#fafbfd"/><stop offset="1"/></linearGradient><linearGradient id="linear-gradient-14" x1="23.89" y1="55.6" x2="20.85" y2="52.56" xlink:href="#linear-gradient-10"/><radialGradient id="radial-gradient" cx="126.43" cy="-14.33" r="1.6" gradientTransform="translate(-32.85 65.22) scale(0.47 0.47)" gradientUnits="userSpaceOnUse"><stop offset="0.21" stop-color="#edd089"/><stop offset="1" stop-color="#c08329"/></radialGradient><radialGradient id="radial-gradient-2" cx="126.43" cy="-11.79" r="0.65" xlink:href="#radial-gradient"/><linearGradient id="linear-gradient-15" x1="21.75" y1="71.43" x2="21.75" y2="73.06" gradientUnits="userSpaceOnUse"><stop offset="0.67" stop-color="#a7a9ac"/><stop offset="1"/></linearGradient><linearGradient id="linear-gradient-16" x1="21.75" y1="69.75" x2="21.75" y2="71.38" xlink:href="#linear-gradient-15"/><linearGradient id="linear-gradient-17" x1="21.75" y1="68.08" x2="21.75" y2="69.7" xlink:href="#linear-gradient-15"/><linearGradient id="linear-gradient-18" x1="39.04" y1="40.26" x2="39.04" y2="38.02" xlink:href="#linear-gradient-13"/><linearGradient id="linear-gradient-19" x1="55.19" y1="57.82" x2="39.62" y2="41.68" xlink:href="#linear-gradient-10"/></defs><g class="cls-5"><g id="Layer_2" data-name="Layer 2"><g id="Layer_1-2" data-name="Layer 1"><polygon class="cls-6" points="71.05 29.73 4.26 29.73 0.01 32.52 78.07 32.52 71.05 29.73"/><polygon class="cls-7" points="68.87 68.99 9.21 68.99 9.21 28.73 38.95 5.86 68.87 28.73 68.87 68.99"/><polygon class="cls-8" points="68.87 68.62 9.21 68.62 9.21 28.36 38.95 6.88 68.87 28.36 68.87 68.62"/><rect class="cls-9" x="9.21" y="48.17" width="59.66" height="0.23"/><rect class="cls-10" x="9.21" y="48.39" width="59.66" height="0.23"/><rect class="cls-9" x="9.21" y="59.84" width="59.66" height="0.23"/><rect class="cls-10" x="9.21" y="60.07" width="59.66" height="0.23"/><rect class="cls-9" x="9.21" y="55.95" width="59.66" height="0.23"/><rect class="cls-10" x="9.21" y="56.17" width="59.66" height="0.23"/><rect class="cls-9" x="9.21" y="67.62" width="59.66" height="0.23"/><rect class="cls-10" x="9.21" y="67.85" width="59.66" height="0.23"/><rect class="cls-9" x="9.21" y="63.73" width="59.66" height="0.23"/><rect class="cls-10" x="9.21" y="63.96" width="59.66" height="0.23"/><rect class="cls-9" x="9.21" y="52.06" width="59.66" height="0.23"/><rect class="cls-10" x="9.21" y="52.28" width="59.66" height="0.23"/><rect class="cls-9" x="9.21" y="36.49" width="59.66" height="0.23"/><rect class="cls-10" x="9.21" y="36.72" width="59.66" height="0.23"/><rect class="cls-9" x="9.21" y="32.6" width="59.66" height="0.23"/><rect class="cls-10" x="9.21" y="32.83" width="59.66" height="0.23"/><rect class="cls-9" x="9.21" y="44.27" width="59.66" height="0.23"/><rect class="cls-10" x="9.21" y="44.5" width="59.66" height="0.23"/><rect class="cls-9" x="9.21" y="40.38" width="59.66" height="0.23"/><rect class="cls-10" x="9.21" y="40.61" width="59.66" height="0.23"/><rect class="cls-9" x="9.21" y="28.71" width="59.66" height="0.23"/><rect class="cls-10" x="9.21" y="28.94" width="59.66" height="0.23"/><rect class="cls-9" x="27.57" y="12.85" width="22.93" height="0.23"/><rect class="cls-10" x="27.57" y="13.07" width="22.93" height="0.23"/><rect class="cls-9" x="29.91" y="9.06" width="18.25" height="0.23"/><rect class="cls-10" x="29.91" y="9.29" width="18.25" height="0.23"/><rect class="cls-9" x="9.21" y="24.81" width="59.66" height="0.23"/><rect class="cls-10" x="9.21" y="25.04" width="59.66" height="0.23"/><rect class="cls-9" x="9.21" y="24.82" width="59.66" height="0.23"/><rect class="cls-10" x="9.21" y="25.05" width="59.66" height="0.23"/><rect class="cls-9" x="16.83" y="20.93" width="44.42" height="0.23"/><rect class="cls-10" x="16.83" y="21.15" width="44.42" height="0.23"/><rect class="cls-9" x="19.73" y="16.87" width="38.61" height="0.23"/><rect class="cls-10" x="19.73" y="17.1" width="38.61" height="0.23"/><polygon class="cls-11" points="71.03 32.54 78.06 32.55 39.05 0 0 32.5 7.03 32.51 9.2 32.51 9.21 32.6 71.03 32.54"/><polygon class="cls-12" points="7.03 32.54 0 32.55 39.01 0 78.06 32.5 71.03 32.51 68.86 32.51 68.85 32.6 7.03 32.54"/><polygon class="cls-13" points="39.04 6.93 71.03 32.52 78.07 32.52 39.04 0 0.01 32.52 7.04 32.52 39.04 6.93"/><polygon class="cls-13" points="39.04 6.93 71.03 32.52 78.07 32.52 39.04 0 0.01 32.52 7.04 32.52 39.04 6.93"/><polygon class="cls-13" points="39.04 6.93 71.03 32.52 78.07 32.52 39.04 0 0.01 32.52 7.04 32.52 39.04 6.93"/><polygon class="cls-14" points="39.04 6.93 71.03 32.52 78.07 32.52 39.04 0 0.01 32.52 7.04 32.52 39.04 6.93"/><rect class="cls-13" x="7.24" y="68.4" width="63.6" height="4.67"/><rect class="cls-15" x="7.24" y="68.4" width="63.6" height="4.67"/><rect class="cls-16" x="7.24" y="69.05" width="63.6" height="1.13"/><rect class="cls-17" x="7.24" y="71.3" width="63.6" height="1.13"/><rect class="cls-18" x="30.39" y="15.66" width="16.69" height="17.85"/><rect class="cls-19" x="30.96" y="16.27" width="15.55" height="16.63"/><rect class="cls-20" x="32.38" y="17.79" width="12.69" height="13.58"/><g class="cls-21"><polygon class="cls-7" points="43.53 28.49 40.01 28.49 40.48 30.7 43.06 30.7 43.53 28.49"/><path class="cls-22" d="M41.65,27a1.46,1.46,0,0,1,1.67-1.21,1.77,1.77,0,0,1-1.47,1.86C41.46,27.78,41.65,27,41.65,27Z"/><path class="cls-23" d="M40.81,27.88a1.39,1.39,0,0,1-.73-1.8,1.67,1.67,0,0,1,1.37,1.76C41.44,28.22,40.81,27.88,40.81,27.88Z"/><path class="cls-24" d="M41.16,28.08a1.65,1.65,0,0,1,.56-2.26,2,2,0,0,1,.09,2.67C41.53,28.86,41.16,28.08,41.16,28.08Z"/><path class="cls-25" d="M42.88,28.81a2.33,2.33,0,0,0,1-2.13,1.92,1.92,0,0,0-2.11,1.67,2.06,2.06,0,0,0,0,.46Z"/><path class="cls-26" d="M40.58,28.81h1.3a2,2,0,0,0-2-1.69A1.58,1.58,0,0,0,40.58,28.81Z"/><polygon class="cls-27" points="43.53 28.49 40.01 28.49 40.13 29.06 43.41 29.06 43.53 28.49"/><polygon class="cls-27" points="43.06 30.7 43.38 29.2 40.16 29.2 40.48 30.7 43.06 30.7"/><path class="cls-27" d="M43.54,30.86a.24.24,0,0,1-.24.24H40.23a.23.23,0,0,1-.23-.24h0a.23.23,0,0,1,.23-.23H43.3a.23.23,0,0,1,.24.23Z"/></g><g class="cls-28"><path class="cls-29" d="M34.79,29.76c0-.38-1.39-1.06-.24-2.22s-.62-2.11,1.07-2.6,1.06.1,1.32,1.24,1,3.78.47,4S34.91,30.68,34.79,29.76Z"/></g><g class="cls-30"><path class="cls-31" d="M40.08,22.27c0-.06-.63-1.68,0-2.25s.64-.59,1.62-.36a5.3,5.3,0,0,1,2.27,1.11c.58.34.39,1.82.39,1.82S40.22,23.4,40.08,22.27Z"/></g><path class="cls-32" d="M46,23.37h-.44v-6.5h-14V32.31h14V24.23H46Zm-.89,0H39.64v-5h5.48Zm-6.69-5v5H33v-5ZM33,24.23h5.47V31.4H33ZM45.12,31.4H39.64V24.23h5.48Z"/><polygon class="cls-33" points="45.7 22.98 39.34 22.98 39.34 17.43 38.12 17.43 38.12 22.98 31.75 22.98 31.75 23.83 38.12 23.83 38.12 31.38 39.34 31.38 39.34 23.83 45.7 23.83 45.7 22.98"/><path class="cls-33" d="M31.22,16.55V32.61h15V16.55ZM44.81,31.08H32.65v-13H44.81Z"/><polygon class="cls-34" points="33.46 18.78 46.23 18.78 46.23 16.55 31.22 16.55 31.22 32.61 33.46 32.61 33.46 18.78"/><rect class="cls-35" x="29.24" y="32.61" width="19.59" height="2.55"/><rect class="cls-33" x="29.24" y="32.61" width="19.59" height="1.45"/><rect class="cls-36" x="29.24" y="32.61" width="19.59" height="0.19"/><polygon class="cls-37" points="29.56 45.5 13.94 45.5 13.81 45.5 13.81 58.81 13.81 68.41 29.68 68.41 29.68 59.05 29.68 45.5 29.56 45.5"/><polygon class="cls-38" points="29.36 45.68 14.13 45.68 14.01 45.68 14.01 58.68 14.01 68.05 29.49 68.05 29.49 58.91 29.49 45.68 29.36 45.68"/><polygon class="cls-39" points="14.36 59.04 14.36 46.03 14.48 46.03 29.49 46.03 29.49 45.68 29.36 45.68 14.13 45.68 14.01 45.68 14.01 58.68 14.01 68.05 14.36 68.05 14.36 59.04"/><polygon class="cls-19" points="28.13 46.96 28.03 46.96 15.46 46.96 15.36 46.96 15.36 46.96 21.69 53.14 28.13 46.96"/><polygon class="cls-40" points="28.13 59.43 28.13 46.96 28.13 46.96 21.69 53.14 28.13 59.43"/><polygon class="cls-40" points="21.69 53.14 15.36 59.22 15.36 68.05 28.13 68.05 28.13 59.43 21.69 53.14"/><polygon class="cls-40" points="15.36 46.96 15.36 59.22 21.69 53.14 15.36 46.96"/><rect class="cls-37" x="15.68" y="47.23" width="12.1" height="21.85"/><rect class="cls-33" x="15.98" y="47.45" width="11.5" height="21.31"/><rect class="cls-41" x="17.57" y="49.1" width="8.32" height="8.69"/><polygon class="cls-42" points="17.69 49.22 25.9 49.22 25.9 49.1 17.57 49.1 17.57 57.8 17.69 57.8 17.69 49.22"/><rect class="cls-41" x="17.57" y="59.68" width="3.45" height="7.49"/><polygon class="cls-42" points="17.68 59.78 21.02 59.78 21.02 59.68 17.57 59.68 17.57 67.17 17.68 67.17 17.68 59.78"/><rect class="cls-33" x="17.78" y="59.9" width="3.03" height="7.04"/><polygon class="cls-43" points="17.93 60.05 20.81 60.05 20.81 59.9 17.78 59.9 17.78 66.94 17.93 66.94 17.93 60.05"/><polygon class="cls-44" points="20.66 66.79 17.78 66.79 17.78 66.94 20.81 66.94 20.81 59.9 20.66 59.9 20.66 66.79"/><rect class="cls-41" x="22.45" y="59.68" width="3.45" height="7.49"/><polygon class="cls-42" points="22.55 59.78 25.9 59.78 25.9 59.68 22.45 59.68 22.45 67.17 22.55 67.17 22.55 59.78"/><rect class="cls-33" x="22.66" y="59.9" width="3.03" height="7.04"/><polygon class="cls-43" points="22.81 60.05 25.69 60.05 25.69 59.9 22.66 59.9 22.66 66.94 22.81 66.94 22.81 60.05"/><polygon class="cls-44" points="25.54 66.79 22.66 66.79 22.66 66.94 25.69 66.94 25.69 59.9 25.54 59.9 25.54 66.79"/><rect class="cls-33" x="17.78" y="49.32" width="7.9" height="8.25"/><rect class="cls-45" x="17.9" y="49.44" width="7.68" height="8.02"/><circle class="cls-46" cx="26.63" cy="58.61" r="0.59"/><path class="cls-47" d="M26.88,59.78c0-.19-.11-.35-.25-.35s-.26.16-.26.35.11.34.26.34S26.88,60,26.88,59.78Z"/><path class="cls-37" d="M26.71,59.7a.08.08,0,0,0-.08-.08.08.08,0,0,0-.09.08.09.09,0,0,0,0,.08v.16h.09v-.16A.09.09,0,0,0,26.71,59.7Z"/><rect class="cls-38" x="12.21" y="71.4" width="19.08" height="1.68"/><rect class="cls-39" x="12.21" y="71.4" width="19.08" height="0.36"/><rect class="cls-38" x="13.19" y="69.72" width="17.12" height="1.68"/><rect class="cls-39" x="13.19" y="69.72" width="17.12" height="0.36"/><rect class="cls-38" x="14.01" y="68.05" width="15.48" height="1.68"/><rect class="cls-48" x="12.21" y="71.4" width="19.08" height="1.68"/><rect class="cls-49" x="13.19" y="69.72" width="17.12" height="1.68"/><rect class="cls-50" x="14.01" y="68.05" width="15.48" height="1.68"/><rect class="cls-39" x="14.01" y="68.05" width="15.48" height="0.36"/><rect class="cls-33" x="8.26" y="35.95" width="61.92" height="2.36"/><rect class="cls-51" x="9.21" y="37.05" width="59.66" height="3.05"/><rect class="cls-18" x="35.78" y="40.83" width="26.66" height="21.37"/><rect class="cls-19" x="36.12" y="41.17" width="25.98" height="20.69"/><rect class="cls-52" x="37.99" y="42.77" width="22.24" height="17.51"/><path class="cls-32" d="M60.79,41.61h-24V61.07h24ZM44.67,60.53h-6.2v-5h6.2Zm0-5.31h-6.2V48.34h6.2Zm0-7.17h-6.2V43h6.2Zm9,12.48H45.55v-5h8.08Zm0-5.31H45.55V48.34h8.08Zm0-7.17H45.55V43h8.08Zm7.08,12.48H54.52v-5h6.19Zm0-5.31H54.52V48.34h6.19Zm-6.19-7.17V43h6.19v5Z"/><path class="cls-33" d="M36.34,41.35V61.69H61.88V41.35Zm23.89,6.44H54v-5h6.2ZM44.19,55H38V48.08h6.2Zm.88-6.88h8.08V55H45.07Zm8.08,7.17v5H45.07v-5Zm-8.08-7.46v-5h8.08v5Zm9,.29h6.2V55H54Zm-9.84-5.31v5H38v-5ZM38,55.25h6.2v5H38Zm16,5v-5h6.2v5Z"/><rect class="cls-33" x="8.26" y="35.95" width="61.92" height="2.36"/></g></g></g></svg>