<svg width="208" height="89" viewBox="0 0 208 89" fill="none" xmlns="http://www.w3.org/2000/svg">
<rect width="208" height="89" rx="5.68246" fill="white"/>
<path d="M186.67 62.686L185.78 60L188.253 62.0349L190.824 60.3256L189.736 62.8488L193 63.1744L190.231 63.9884L191.714 66.2674L189.143 65.2093L187.956 67L187.363 65.1279L184.495 66.186L186.275 64.3953L184 63.3372L186.67 62.686Z" fill="#7F48C3"/>
<path d="M141.967 20.8372L140.978 17L143.725 19.907L146.582 17.4651L145.374 21.0698L149 21.5349L145.923 22.6977L147.571 25.9535L144.714 24.4419L143.396 27L142.736 24.3256L139.549 25.8372L141.527 23.2791L139 21.7674L141.967 20.8372Z" fill="#7F48C3"/>
<path d="M172.484 52.9186L171.989 51L173.363 52.4535L174.791 51.2326L174.187 53.0349L176 53.2674L174.462 53.8488L175.286 55.4767L173.857 54.7209L173.198 56L172.868 54.6628L171.275 55.4186L172.264 54.1395L171 53.3837L172.484 52.9186Z" fill="#7F48C3"/>
<path d="M121.077 21.686L120.385 19L122.308 21.0349L124.308 19.3256L123.462 21.8488L126 22.1744L123.846 22.9884L125 25.2674L123 24.2093L122.077 26L121.615 24.1279L119.385 25.186L120.769 23.3953L119 22.3372L121.077 21.686Z" fill="#7F48C3"/>
</svg>
