<svg width="208" height="89" viewBox="0 0 208 89" fill="none" xmlns="http://www.w3.org/2000/svg">
<rect x="1.13649" y="1.13649" width="205.727" height="86.727" rx="4.54597" fill="#7F48C3" stroke="#7F48C3" stroke-width="2.27298"/>
<path d="M185.967 66.0698L184.978 63L187.725 65.3256L190.582 63.3721L189.374 66.2558L193 66.6279L189.923 67.5581L191.571 70.1628L188.714 68.9535L187.396 71L186.736 68.8605L183.549 70.0698L185.527 68.0233L183 66.814L185.967 66.0698Z" fill="white"/>
<path d="M141.967 20.8372L140.978 17L143.725 19.907L146.582 17.4651L145.374 21.0698L149 21.5349L145.923 22.6977L147.571 25.9535L144.714 24.4419L143.396 27L142.736 24.3256L139.549 25.8372L141.527 23.2791L139 21.7674L141.967 20.8372Z" fill="white"/>
<path d="M170.484 55.3023L169.989 53L171.363 54.7442L172.791 53.2791L172.187 55.4419L174 55.7209L172.462 56.4186L173.286 58.3721L171.857 57.4651L171.198 59L170.868 57.3953L169.275 58.3023L170.264 56.7674L169 55.8605L170.484 55.3023Z" fill="white"/>
<path d="M121.077 21.686L120.385 19L122.308 21.0349L124.308 19.3256L123.462 21.8488L126 22.1744L123.846 22.9884L125 25.2674L123 24.2093L122.077 26L121.615 24.1279L119.385 25.186L120.769 23.3953L119 22.3372L121.077 21.686Z" fill="white"/>
</svg>
