<svg xmlns="http://www.w3.org/2000/svg" xmlns:xlink="http://www.w3.org/1999/xlink" viewBox="0 0 66 73.22"><defs><style>.cls-1{fill:#6e2f34;}.cls-2{fill:#dd4734;}.cls-3{clip-path:url(#clip-path);}.cls-4{fill:#37120d;}.cls-5{fill:#f1b5ae;}</style><clipPath id="clip-path"><path class="cls-1" d="M49.4,48.78A16.44,16.44,0,1,1,33,32.35,16.44,16.44,0,0,1,49.4,48.78Z"/></clipPath></defs><g id="Layer_2" data-name="Layer 2"><g id="Layer_1-2" data-name="Layer 1"><path class="cls-2" d="M58.81,29.93,33.33,5.72,7.85,29.93a2.25,2.25,0,0,1-1.55.61V73.22H60.7V30.51a1.86,1.86,0,0,1-.34,0A2.26,2.26,0,0,1,58.81,29.93Z"/><path class="cls-1" d="M33.24,0,0,33.73a4.63,4.63,0,0,0,2.44.67,2.74,2.74,0,0,0,1.3-.35,2.3,2.3,0,0,0,.47-.35L33.29,6.07,62.37,33.7a2.55,2.55,0,0,0,1.77.7,1.9,1.9,0,0,0,.38,0A3,3,0,0,0,66,33.6Z"/><path class="cls-1" d="M49.4,48.78A16.44,16.44,0,1,1,33,32.35,16.44,16.44,0,0,1,49.4,48.78Z"/><g class="cls-3"><rect class="cls-4" x="12.79" y="56.94" width="41.55" height="12.85"/></g><path class="cls-5" d="M36.14,18.71A2.92,2.92,0,0,0,33,20.52a2.92,2.92,0,0,0-3.17-1.81c-2.5.22-2.34,3.22-.91,4.59,1.68,1.6,3.49,2.17,4.08,4,.76-1.76,2.6-2.59,4.08-4S38.63,18.93,36.14,18.71Z"/></g></g></svg>