<svg xmlns="http://www.w3.org/2000/svg" xmlns:xlink="http://www.w3.org/1999/xlink" viewBox="0 0 66.18 66.18"><defs><style>.cls-1{isolation:isolate;}.cls-2{fill:#d93e4f;}.cls-3,.cls-4{mix-blend-mode:color-dodge;opacity:0.3;}.cls-3{fill:url(#linear-gradient);}.cls-5{fill:url(#radial-gradient);}.cls-6{opacity:0.8;}.cls-7{fill:#fff;}</style><linearGradient id="linear-gradient" x1="28.73" y1="72.29" x2="28.73" y2="49.51" gradientUnits="userSpaceOnUse"><stop offset="0" stop-color="#fff"/><stop offset="0.08" stop-color="#e5e5e5"/><stop offset="0.26" stop-color="#aba9aa"/><stop offset="0.44" stop-color="#7a7878"/><stop offset="0.61" stop-color="#545152"/><stop offset="0.76" stop-color="#393637"/><stop offset="0.9" stop-color="#292526"/><stop offset="1" stop-color="#231f20"/></linearGradient><radialGradient id="radial-gradient" cx="48.78" cy="45.59" r="51.17" xlink:href="#linear-gradient"/></defs><g class="cls-1"><g id="Layer_2" data-name="Layer 2"><g id="Layer_1-2" data-name="Layer 1"><path class="cls-2" d="M33.09,66.18A33.09,33.09,0,1,1,66.18,33.09,33.13,33.13,0,0,1,33.09,66.18Z"/><path class="cls-3" d="M30.17,62.15A33.24,33.24,0,0,1,8,49.08c-.64-.9-3.39-6.26.3-4.87,3,1.14,4.86,4.28,7.74,5.82,8.56,4.58,19,5.94,27.1-.43a10.78,10.78,0,0,1,2-1.39c2.14-1,5.31.37,5.84,2.75s-2,5.77-3.6,7.18a15.92,15.92,0,0,1-5.9,3.13A26.57,26.57,0,0,1,30.17,62.15Z"/><g class="cls-4"><path class="cls-5" d="M29.77,1.09A28.38,28.38,0,0,0,25.32,2C21.41,3.05,16.8,4.6,13.61,7.17A30.2,30.2,0,0,0,8.69,12.7L4.57,18.18A11.86,11.86,0,0,0,2,23.08c-.59,3.38,2.11,6.79,5.44,7.62,5.06,1.26,9.35-2.37,13.26-4.91a71.17,71.17,0,0,1,15.14-7.56c5.59-1.93,11.67-2.78,17.43-1.5a17.59,17.59,0,0,1,5.9,2.39,13.77,13.77,0,0,1,5.67,8C62.72,18.88,58.5,9.76,50.5,5.89,43.62,2.58,37.12.26,29.77,1.09Z"/></g><g class="cls-6"><path class="cls-7" d="M18.67,9.52a1.47,1.47,0,0,0-1-.17C15.05,9.63,14.11,12,13,14a28.88,28.88,0,0,0-2.78,7.29,33.25,33.25,0,0,1,2.9-6c1.45-2.55,2.69-2.47,4.92-3.82.62-.38,1.23-1.17.79-1.75A.91.91,0,0,0,18.67,9.52Z"/></g><g class="cls-6"><path class="cls-7" d="M20.41,8.62a1,1,0,0,0-.82,1.14,1.81,1.81,0,0,0,1.25.58.87.87,0,1,0-.7-1.59Z"/></g><path class="cls-7" d="M42.25,45.2c0,.68-1.14,1-3.42,1a7.51,7.51,0,0,1-2.76-.5q-1.3-.51-4-3.43c-1.82-1.94-3.42-3.8-4.82-5.58L25.06,34a2.13,2.13,0,0,1-.63-1.56,2.93,2.93,0,0,1,.79-1.87l2.29-2.76q1.48-1.8,4.47-5T36,19.38a8.25,8.25,0,0,1,3.58-.5c1.8,0,2.7.33,2.7,1,0,.42-.36.93-1.08,1.52-.25.26-.6.58-1.05,1S39,23.56,37.85,24.68s-2.11,2.12-3,3q-3.37,3.61-3.37,4.73c0,.74.81,2,2.41,3.87s3.22,3.52,4.83,5l2.41,2.28C41.89,44.21,42.25,44.73,42.25,45.2Z"/></g></g></g></svg>