<svg xmlns="http://www.w3.org/2000/svg" viewBox="0 0 41.35 41.1"><defs><style>.cls-1{fill:#78a941;}.cls-2{fill:#49703e;}.cls-3{fill:#648e2e;}.cls-4{opacity:0.16;}.cls-5{fill:#fff;}.cls-6{fill:#eaeaea;}.cls-7{fill:#303030;}.cls-8{fill:#edac80;}.cls-9{fill:#c9936f;}.cls-10{fill:#82bc37;}</style></defs><g id="Layer_2" data-name="Layer 2"><g id="Layer_1-2" data-name="Layer 1"><path class="cls-1" d="M8.61,14.4a3.43,3.43,0,0,1-1.77,0,3.89,3.89,0,0,1-1.27-.87,23.17,23.17,0,0,0-1.83-1.44.92.92,0,0,0-.4-.19.32.32,0,0,0-.36.18.45.45,0,0,0,.07.37A28.64,28.64,0,0,0,4.7,15.26,33.1,33.1,0,0,0,.61,16.49c-.28.1-.61.27-.61.57s.27.46.52.54a4.4,4.4,0,0,0,2,0l2.38-.37a27.6,27.6,0,0,0-1.73,2.44,2.38,2.38,0,0,0-.45,1.15.48.48,0,0,0,.14.38.46.46,0,0,0,.31.06,2.12,2.12,0,0,0,1.24-.79,9.64,9.64,0,0,1,2.83-2.26c1.63-.72,3.5-.49,5.28-.67a3.5,3.5,0,0,0,2.33-1,3.07,3.07,0,0,0,.57-1.09,3,3,0,0,0,.17-1.32,1.58,1.58,0,0,0-.67-1.12c-.76-.47-1.86-.07-2.62.23A22.85,22.85,0,0,1,8.61,14.4Z"/><path class="cls-2" d="M4.81,14.62c.47.89.05.6-.11.64-.46-.73-1.25-2-1.65-2.78A.45.45,0,0,1,3,12.11a.29.29,0,0,1,.23-.18A28,28,0,0,0,4.81,14.62Z"/><path class="cls-3" d="M2.85,20.3a.36.36,0,0,0,.13.26.41.41,0,0,0,.31.07,2.17,2.17,0,0,0,1.24-.79,9.48,9.48,0,0,1,2.83-2.26c1.63-.73,3.5-.49,5.28-.68a3.49,3.49,0,0,0,2.33-1,3,3,0,0,0,.57-1.09,2.17,2.17,0,0,0,.07-.24,3.72,3.72,0,0,1-.18.88,3.07,3.07,0,0,1-.57,1.09,3.5,3.5,0,0,1-2.33,1c-1.78.18-3.65-.05-5.28.67a9.64,9.64,0,0,0-2.83,2.26,2.12,2.12,0,0,1-1.24.79.46.46,0,0,1-.31-.06.48.48,0,0,1-.14-.38A1.63,1.63,0,0,1,2.85,20.3Z"/><path class="cls-2" d="M0,17.06a.49.49,0,0,1,.21-.37A.9.9,0,0,0,.63,17a4.4,4.4,0,0,0,2,0L5,16.6c.87-.28.06.4-.11.64l-2.38.37a4.4,4.4,0,0,1-2,0C.27,17.52,0,17.33,0,17.06Z"/><g class="cls-4"><path class="cls-5" d="M6.28,14.67a2,2,0,0,0,1.55.24,6.19,6.19,0,0,1,1.59-.24c.14,0,.32.07.32.21a.32.32,0,0,1-.1.2,1.65,1.65,0,0,1-.94.36A4.78,4.78,0,0,1,6,15a1.35,1.35,0,0,1-.44-.31c-.16-.18-.07-.43.18-.4S6.12,14.54,6.28,14.67Z"/></g><g class="cls-4"><path class="cls-5" d="M4.57,13l.61.68a.31.31,0,0,1,.09.14.14.14,0,0,1,0,.16H5.11a.73.73,0,0,1-.26-.2l-.61-.66c-.07-.08-.2-.3,0-.36S4.5,12.9,4.57,13Z"/></g><path class="cls-1" d="M32.61,11.86a3.29,3.29,0,0,0,1.5-.93,4.12,4.12,0,0,0,.6-1.41,21.33,21.33,0,0,1,.76-2.21,1,1,0,0,1,.23-.38.33.33,0,0,1,.4,0,.45.45,0,0,1,.14.35,26.82,26.82,0,0,1,.11,3.23,33.15,33.15,0,0,1,4.11-1.18c.29-.07.66-.1.83.15a.67.67,0,0,1-.15.74,4.22,4.22,0,0,1-1.68,1.09l-2.2,1A27.65,27.65,0,0,1,40,13.37a2.43,2.43,0,0,1,1,.72.5.5,0,0,1,.09.39.45.45,0,0,1-.23.22,2.18,2.18,0,0,1-1.47,0,9.58,9.58,0,0,0-3.6-.37c-1.76.27-3.21,1.48-4.81,2.29a3.48,3.48,0,0,1-2.48.45,2.86,2.86,0,0,1-1.07-.61,2.92,2.92,0,0,1-.86-1,1.55,1.55,0,0,1,0-1.3c.39-.81,1.52-1.07,2.33-1.22A22.91,22.91,0,0,0,32.61,11.86Z"/><path class="cls-2" d="M35.91,10c.09,1,.29.53.44.48,0-.86,0-2.36-.11-3.23a.45.45,0,0,0-.14-.35.3.3,0,0,0-.29,0A27.28,27.28,0,0,1,35.91,10Z"/><path class="cls-3" d="M40.64,13.71a.37.37,0,0,1,0,.29.45.45,0,0,1-.23.22,2.18,2.18,0,0,1-1.47,0,9.58,9.58,0,0,0-3.6-.37c-1.76.27-3.21,1.48-4.81,2.29a3.48,3.48,0,0,1-2.48.45A3,3,0,0,1,27,16l-.19-.16a3.82,3.82,0,0,0,.63.64,2.86,2.86,0,0,0,1.07.61A3.48,3.48,0,0,0,31,16.63c1.6-.81,3.05-2,4.81-2.29a9.58,9.58,0,0,1,3.6.37,2.18,2.18,0,0,0,1.47,0,.45.45,0,0,0,.23-.22.5.5,0,0,0-.09-.39A1.76,1.76,0,0,0,40.64,13.71Z"/><path class="cls-2" d="M41.29,9.44a.47.47,0,0,0-.38-.19,1,1,0,0,1-.21.45A4.4,4.4,0,0,1,39,10.79l-2.2,1c-.89.23.16.37.44.48l2.2-1a4.22,4.22,0,0,0,1.68-1.09A.67.67,0,0,0,41.29,9.44Z"/><path class="cls-1" d="M10.58,5.89a4.54,4.54,0,0,1-.42-2.78A3.07,3.07,0,0,1,11.91,1c2.28-1.15,3.92,1,4.27,1.39a14.51,14.51,0,0,1,1,1.4A2.2,2.2,0,0,1,17.67,5a2.16,2.16,0,0,1-.24.82A5.6,5.6,0,0,1,13.7,8.72C12.27,9,11.08,7,10.58,5.89Z"/><path class="cls-2" d="M14.52,3.49a1.69,1.69,0,1,1-2-1.25A1.68,1.68,0,0,1,14.52,3.49Z"/><path class="cls-5" d="M14.39,3.18a1.7,1.7,0,0,1-3.3.79,1.71,1.71,0,0,1,1.26-2.05A1.69,1.69,0,0,1,14.39,3.18Z"/><path class="cls-6" d="M13.62,2.12a1.91,1.91,0,0,1,.29.61,1.69,1.69,0,0,1-1.26,2.05,1.65,1.65,0,0,1-1.27-.2,1.69,1.69,0,1,0,2.24-2.46Z"/><path class="cls-7" d="M13.89,3.43a1.08,1.08,0,1,1-1.3-.8A1.08,1.08,0,0,1,13.89,3.43Z"/><path class="cls-5" d="M12,3.48a.5.5,0,0,0,0,.36.3.3,0,0,0,.14.17A.15.15,0,0,0,12.34,4a.29.29,0,0,0,0-.13.62.62,0,0,1,.06-.38c.05-.08.13-.17.11-.26s0,0,0-.05a.13.13,0,0,0-.12,0A.53.53,0,0,0,12,3.48Z"/><path class="cls-5" d="M12.72,2.91a.08.08,0,0,0-.07,0,.12.12,0,0,0,0,.14.2.2,0,0,0,.15,0A.23.23,0,0,0,13,3a.15.15,0,0,0,0-.07l0,0a.3.3,0,0,0-.3,0Z"/><path class="cls-3" d="M17.21,3.83a13,13,0,0,0-1-1.4C15.85,2,14.38.14,12.31.86a2.17,2.17,0,0,0,.43,0,2.8,2.8,0,0,1,1.1.28,3.76,3.76,0,0,1,1.28,1.07,6,6,0,0,1,1.26,3,5.07,5.07,0,0,1,1.11-.88A4.48,4.48,0,0,0,17.21,3.83Z"/><path class="cls-1" d="M23.78,2.17a4.61,4.61,0,0,1,2-2,3.16,3.16,0,0,1,2.71.23c2.25,1.2,1.47,3.77,1.33,4.29a16.07,16.07,0,0,1-.54,1.66,2.2,2.2,0,0,1-.69,1,2.11,2.11,0,0,1-.81.28,5.56,5.56,0,0,1-4.53-1.37C22.2,5.35,23.17,3.21,23.78,2.17Z"/><circle class="cls-2" cx="26.75" cy="2.88" r="1.69"/><path class="cls-5" d="M28.2,3.71A1.7,1.7,0,1,1,28,1.31,1.71,1.71,0,0,1,28.2,3.71Z"/><path class="cls-6" d="M28.61,2.47a1.82,1.82,0,0,1-.33.59,1.71,1.71,0,0,1-2.4.16,1.7,1.7,0,0,1-.57-1.16,1.7,1.7,0,1,0,3.3.41Z"/><circle class="cls-7" cx="26.89" cy="2.73" r="1.08"/><path class="cls-5" d="M26.59,2a.53.53,0,0,0-.31.19.27.27,0,0,0-.06.21.16.16,0,0,0,.16.12.26.26,0,0,0,.11-.07.65.65,0,0,1,.34-.17c.1,0,.22,0,.28-.06a.08.08,0,0,0,0-.05s0-.07-.07-.1A.55.55,0,0,0,26.59,2Z"/><path class="cls-5" d="M27.44,2.19a.08.08,0,0,0-.08,0,.11.11,0,0,0-.08.12.17.17,0,0,0,.07.13.22.22,0,0,0,.23,0,.12.12,0,0,0,.05,0v0a.33.33,0,0,0-.21-.22Z"/><path class="cls-3" d="M29.29,6.39a14.66,14.66,0,0,0,.55-1.66c.13-.49.82-2.79-1-4.06.07.14.21.3.24.36a2.71,2.71,0,0,1,.41,1.05,3.78,3.78,0,0,1-.13,1.67,6,6,0,0,1-1.69,2.74c.47,0,.39,1.41.84,1.55C28.63,7.88,29.23,6.56,29.29,6.39Z"/><path class="cls-8" d="M14,38a2.22,2.22,0,0,0,.12.77,1.71,1.71,0,0,0,.51.63A6.84,6.84,0,0,0,19,41.1c7.71,0,9.2-2.67,9.28-2.88a1.22,1.22,0,0,0,0-.57l-.45-5A6.13,6.13,0,0,0,27.22,30c-.95-1.64-3.1-2.05-5-2.15a11.46,11.46,0,0,0-5.55.78C12.89,30.47,13.87,34.53,14,38Z"/><path class="cls-9" d="M28.26,38.1a1.37,1.37,0,0,0,0-.57L28,34.24a4,4,0,0,0-.83-.4,19.92,19.92,0,0,0-5.24-1.06,16.26,16.26,0,0,0-4.57.08,7.19,7.19,0,0,0-3.56,1.61c0,.69.06,1.39.11,2.08a2.44,2.44,0,0,0,1.25.4l10.12,1.2a8.27,8.27,0,0,1,2.09.43,3.14,3.14,0,0,1,.37.18A2.52,2.52,0,0,0,28.26,38.1Z"/><path class="cls-1" d="M11.66,8.75A8.2,8.2,0,0,1,17.11,3.3C20,2.55,25.39,3,27.6,5.44c4.68,5.06,4.48,25,4.36,25.61-.39,2-2.25,3.13-4,3.8a19.65,19.65,0,0,1-11.89.62c-1.67-.44-4.2-1.09-5.51-2.38-.58-.57-.42-1.75-.44-2.56,0-1.26,0-2.52,0-3.78C10.24,23.92,10.54,12.83,11.66,8.75Z"/><path class="cls-3" d="M27.61,5.47a8.13,8.13,0,0,0-4.17-2.09,5.91,5.91,0,0,1,1.75,1.26c4.68,5.06,4.48,25.05,4.36,25.61-.39,2-2.24,3.13-4,3.8a19.53,19.53,0,0,1-11.9.62l-1.1-.3a23.27,23.27,0,0,0,3.52,1.13A19.53,19.53,0,0,0,28,34.88c1.75-.67,3.6-1.84,4-3.8C32.09,30.52,32.29,10.54,27.61,5.47Z"/><path class="cls-7" d="M15.06,9.09a.11.11,0,0,1-.09,0l-.17-.24a.12.12,0,0,1,.2-.12l.15.21a.12.12,0,0,1,0,.17A.08.08,0,0,1,15.06,9.09Z"/><path class="cls-7" d="M20.73,11.66h-.08a.11.11,0,0,1-.11-.12.12.12,0,0,1,.12-.12h.57a.12.12,0,0,1,.12.11.13.13,0,0,1-.11.13Zm-.65,0h0a5.42,5.42,0,0,1-.58-.06.12.12,0,1,1,0-.23,5.23,5.23,0,0,0,.57.06.11.11,0,0,1,.1.13A.1.1,0,0,1,20.08,11.63Zm1.73,0a.12.12,0,0,1,0-.24,5,5,0,0,0,.56-.09.13.13,0,0,1,.14.1.11.11,0,0,1-.1.13l-.58.1Zm-2.88-.13h0a5.29,5.29,0,0,1-.57-.15.11.11,0,0,1-.08-.14.12.12,0,0,1,.15-.08l.55.14a.13.13,0,0,1,.09.14A.12.12,0,0,1,18.93,11.47Zm4-.1a.12.12,0,0,1-.11-.08.12.12,0,0,1,.08-.15l.54-.17a.11.11,0,0,1,.15.07.11.11,0,0,1-.07.15c-.18.06-.36.13-.55.18Zm-5.11-.24h0c-.18-.07-.36-.16-.53-.24a.13.13,0,0,1-.06-.16.12.12,0,0,1,.16-.05l.52.23a.12.12,0,0,1,.07.15A.13.13,0,0,1,17.83,11.13ZM24,11a.12.12,0,0,1-.11-.07.12.12,0,0,1,.06-.16c.17-.08.33-.17.49-.26a.12.12,0,0,1,.17,0,.13.13,0,0,1,0,.16l-.52.28Zm-7.24-.36a.07.07,0,0,1-.06,0c-.17-.1-.33-.21-.49-.32a.12.12,0,0,1,0-.17.11.11,0,0,1,.16,0,4.76,4.76,0,0,0,.47.31.12.12,0,0,1-.06.22ZM25,10.37a.1.1,0,0,1-.1,0,.11.11,0,0,1,0-.16,3.73,3.73,0,0,0,.43-.36.12.12,0,0,1,.17,0,.11.11,0,0,1,0,.16,5.32,5.32,0,0,1-.45.38Zm-9.16-.44a.11.11,0,0,1-.08,0c-.15-.13-.29-.27-.43-.41a.12.12,0,0,1,.17-.16,3.88,3.88,0,0,0,.42.39.14.14,0,0,1,0,.17A.12.12,0,0,1,15.86,9.93Zm10-.34a.13.13,0,0,1-.08,0,.12.12,0,0,1,0-.16A4.94,4.94,0,0,0,26.14,9a.13.13,0,0,1,.17,0,.12.12,0,0,1,0,.17c-.11.15-.24.31-.37.46A.14.14,0,0,1,25.87,9.59Z"/><path class="cls-7" d="M26.55,8.66l-.06,0a.12.12,0,0,1,0-.16,1.47,1.47,0,0,0,.12-.24.12.12,0,0,1,.15-.06.11.11,0,0,1,.06.15,1.52,1.52,0,0,1-.13.27A.13.13,0,0,1,26.55,8.66Z"/><path class="cls-2" d="M18.75,6a1.58,1.58,0,0,0,.3.92,5.67,5.67,0,0,0,.18-1A1.55,1.55,0,0,0,19,5C18.77,5.07,18.75,5.78,18.75,6Z"/><path class="cls-2" d="M21.23,6a1.58,1.58,0,0,0,.3.92,4.87,4.87,0,0,0,.17-1,1.55,1.55,0,0,0-.22-1C21.24,5.07,21.22,5.78,21.23,6Z"/><g class="cls-4"><path class="cls-5" d="M34.71,10.83a1.88,1.88,0,0,1-1.17,1,6.32,6.32,0,0,0-1.47.67c-.11.08-.23.23-.15.35a.27.27,0,0,0,.19.11,1.74,1.74,0,0,0,1-.2,4.86,4.86,0,0,0,2-1.87,1.3,1.3,0,0,0,.2-.49c0-.24-.18-.41-.37-.24S34.77,10.63,34.71,10.83Z"/></g><g class="cls-4"><path class="cls-5" d="M35.23,8.49l-.14.9a.33.33,0,0,0,0,.17.15.15,0,0,0,.13.1.2.2,0,0,0,.09-.07.6.6,0,0,0,.11-.3l.15-.88c0-.11,0-.36-.15-.33S35.25,8.38,35.23,8.49Z"/></g><path class="cls-2" d="M17.23,20.39a5.36,5.36,0,0,0-.57,1.66,10.08,10.08,0,0,0-.26,2.68,8.13,8.13,0,0,0,1.16,3.6A4.72,4.72,0,0,0,19,29.94a5.35,5.35,0,0,0,2.28.75,4.36,4.36,0,0,0,2-.1A3.68,3.68,0,0,0,25,29.12a10.52,10.52,0,0,0,1.48-5.47,8,8,0,0,0-.2-2.72,2.8,2.8,0,0,0-.51-1,3,3,0,0,0-.85-.7C22.75,17.89,18.68,17.94,17.23,20.39Z"/><path class="cls-10" d="M16.46,19.62a5.3,5.3,0,0,0-.57,1.65A10.16,10.16,0,0,0,15.63,24a8.13,8.13,0,0,0,1.16,3.6,4.72,4.72,0,0,0,1.4,1.61,5.2,5.2,0,0,0,2.28.74,4.31,4.31,0,0,0,2-.09,3.71,3.71,0,0,0,1.78-1.47,10.53,10.53,0,0,0,1.48-5.48,8.56,8.56,0,0,0-.2-2.72,3.06,3.06,0,0,0-.51-1,3.21,3.21,0,0,0-.85-.7C22,17.11,17.91,17.17,16.46,19.62Z"/><path class="cls-7" d="M21.73,29.53a.1.1,0,0,1-.1-.1.09.09,0,0,1,.09-.11,3.29,3.29,0,0,0,.58-.13l.27-.11a.11.11,0,0,1,.15.05.11.11,0,0,1,0,.14,1.88,1.88,0,0,1-.3.12,2.42,2.42,0,0,1-.63.14Zm-.92,0h0l-.33,0c-.22,0-.42-.06-.6-.1a.11.11,0,0,1-.09-.12.12.12,0,0,1,.13-.09l.59.1.32,0a.11.11,0,0,1,0,.21ZM19,29.12h0a3.51,3.51,0,0,1-.61-.32l-.21-.16a.1.1,0,0,1,0-.15.11.11,0,0,1,.15,0l.2.15a2.57,2.57,0,0,0,.57.3.11.11,0,0,1,.06.14A.1.1,0,0,1,19,29.12Zm4.37-.37a.11.11,0,0,1-.07,0,.12.12,0,0,1,0-.16,4.77,4.77,0,0,0,.57-.67v0a.11.11,0,0,1,.15,0,.11.11,0,0,1,0,.15v0a4.77,4.77,0,0,1-.6.71A.11.11,0,0,1,23.37,28.75ZM17.56,28a.12.12,0,0,1-.08,0,6,6,0,0,1-.44-.67L17,27.16A.12.12,0,0,1,17,27a.11.11,0,0,1,.15,0l.07.12a4.88,4.88,0,0,0,.43.65.11.11,0,0,1,0,.15Zm6.87-.75h-.05a.12.12,0,0,1-.05-.15,7,7,0,0,0,.34-.84.11.11,0,0,1,.14-.07.1.1,0,0,1,.06.13,7.65,7.65,0,0,1-.34.88A.13.13,0,0,1,24.43,27.24Zm-7.78-.86a.09.09,0,0,1-.1-.06,5.92,5.92,0,0,1-.32-.89.11.11,0,0,1,.07-.13.1.1,0,0,1,.13.07,8.82,8.82,0,0,0,.31.86.1.1,0,0,1,0,.14Zm8.36-.9h0a.11.11,0,0,1-.08-.13c.06-.28.11-.59.15-.9a.11.11,0,0,1,.13-.09s.09.06.09.12c-.05.32-.1.63-.16.92A.11.11,0,0,1,25,25.48Zm-8.88-.87a.1.1,0,0,1-.1-.09A5.51,5.51,0,0,1,16,24c0-.12,0-.25,0-.37a.11.11,0,0,1,.11-.11h0a.11.11,0,0,1,.11.11c0,.12,0,.24,0,.36a5,5,0,0,0,.06.54.11.11,0,0,1-.09.13Zm9.14-1h0a.12.12,0,0,1-.1-.12c0-.18,0-.38,0-.59s0-.22,0-.33.06-.11.11-.1a.11.11,0,0,1,.11.11c0,.11,0,.22,0,.34s0,.4,0,.59A.11.11,0,0,1,25.27,23.65Zm-9.16-.89h0a.1.1,0,0,1-.09-.12c0-.29.08-.59.14-.93a.11.11,0,1,1,.21.05c-.06.32-.11.62-.14.9A.11.11,0,0,1,16.11,22.76Zm9.21-1a.1.1,0,0,1-.11-.1,4.9,4.9,0,0,0-.12-.9.12.12,0,0,1,.09-.13.11.11,0,0,1,.12.09,4.37,4.37,0,0,1,.12.93.1.1,0,0,1-.1.11Zm-8.85-.85h0a.11.11,0,0,1-.07-.14,3.67,3.67,0,0,1,.37-.87.1.1,0,0,1,.14,0,.11.11,0,0,1,0,.15,3.68,3.68,0,0,0-.35.82A.11.11,0,0,1,16.47,20.94ZM24.9,20a.12.12,0,0,1-.1-.05,1.66,1.66,0,0,0-.22-.34,2.18,2.18,0,0,0-.34-.34.1.1,0,1,1,.13-.16,2.18,2.18,0,0,1,.38.36,2,2,0,0,1,.24.38A.1.1,0,0,1,25,20Zm-7.51-.62a.09.09,0,0,1-.07,0,.1.1,0,0,1,0-.15,3.72,3.72,0,0,1,.77-.56.1.1,0,0,1,.14,0,.11.11,0,0,1,0,.15,3.49,3.49,0,0,0-.72.52A.11.11,0,0,1,17.39,19.38Zm6.13-.57h-.05a6.53,6.53,0,0,0-.85-.32.11.11,0,0,1-.07-.13.12.12,0,0,1,.13-.08,5.37,5.37,0,0,1,.88.34.1.1,0,0,1,.05.14A.09.09,0,0,1,23.52,18.81ZM19,18.48a.11.11,0,0,1-.1-.08.11.11,0,0,1,.07-.13,5.36,5.36,0,0,1,.92-.2.1.1,0,0,1,.12.09.1.1,0,0,1-.09.12,6,6,0,0,0-.88.19Zm2.76-.19h0a7,7,0,0,0-.91-.07.1.1,0,0,1-.1-.11.09.09,0,0,1,.1-.1,5.86,5.86,0,0,1,.94.07.11.11,0,0,1,0,.21Z"/><g class="cls-4"><path class="cls-5" d="M12.59,9.31a1.34,1.34,0,0,0,.16.84.58.58,0,0,0,.75.24.67.67,0,0,0,.24-.26,6.54,6.54,0,0,0,.44-1.57A6.48,6.48,0,0,1,16,5.91c.19-.18.38-.49.19-.68A.51.51,0,0,0,16,5.14c-1-.29-1.8.52-2.36,1.25A5.16,5.16,0,0,0,12.59,9.31Z"/></g><g class="cls-4"><path class="cls-5" d="M16.49,4.49a.85.85,0,0,0,.79.14,1.69,1.69,0,0,0,.32-.19,3.11,3.11,0,0,1,.74-.2.86.86,0,0,0,.59-.43.25.25,0,0,0,0-.29.27.27,0,0,0-.16,0,3.46,3.46,0,0,0-1.61.34C17,3.88,16.17,4.27,16.49,4.49Z"/></g></g></g></svg>