<svg width="926" height="428" viewBox="0 0 926 428" fill="none" xmlns="http://www.w3.org/2000/svg">
<path d="M440 221.8C440 223.463 441.114 224.8 442.5 224.8C443.886 224.8 445 223.463 445 221.8C445 220.138 443.886 218.8 442.5 218.8C441.114 218.8 440 220.138 440 221.8Z" fill="#FFAC39" fill-opacity="0.65"/>
<path d="M284 312.8C284 314.463 285.114 315.8 286.5 315.8C287.886 315.8 289 314.463 289 312.8C289 311.138 287.886 309.8 286.5 309.8C285.114 309.8 284 311.138 284 312.8Z" fill="#FFAC39" fill-opacity="0.65"/>
<rect width="926" height="428" fill="#FCF9EE"/>
<path d="M234.88 17.4453L237.724 23.154L244.032 24.0709L239.471 28.5372L240.537 34.8079L234.88 31.85L229.253 34.8079L230.319 28.5372L225.758 24.0709L232.066 23.154L234.88 17.4453Z" fill="#7F48C3" fill-opacity="0.65"/>
<path d="M68.7078 258L73.032 265.513L77.3859 273.026H68.7078H60L64.3539 265.513L68.7078 258Z" fill="#65E2CB" fill-opacity="0.65"/>
<path d="M852.985 261L848.508 269L844 277H852.985H862L857.492 269L852.985 261Z" fill="#65E2CB" fill-opacity="0.65"/>
<path d="M590.985 230.8L586.508 238.8L582 246.8H590.985H600L595.492 238.8L590.985 230.8Z" fill="#65E2CB" fill-opacity="0.65"/>
<path d="M109.678 148.8L114.032 156.313L118.356 163.797H109.678H101L105.324 156.313L109.678 148.8Z" fill="#FF3612" fill-opacity="0.65"/>
<path d="M825.5 182L820.734 190.016L816 198H825.5H835L830.266 190.016L825.5 182Z" fill="#FF3612" fill-opacity="0.65"/>
<path d="M563.5 151.8L558.734 159.816L554 167.8H563.5H573L568.266 159.816L563.5 151.8Z" fill="#FF3612" fill-opacity="0.65"/>
<path d="M227.234 360.278L215.89 367.318C215.328 367.673 214.972 368.324 215.002 368.975C215.031 369.655 215.416 370.276 216.009 370.572L227.797 376.872C228.389 377.197 229.13 377.168 229.692 376.813C230.137 376.547 230.433 376.133 230.551 375.63C230.581 375.482 230.611 375.304 230.611 375.127L230.166 361.787C230.137 361.107 229.752 360.486 229.159 360.19C228.537 359.924 227.826 359.924 227.234 360.278Z" fill="#FF3612" fill-opacity="0.65"/>
<path d="M679.11 372.293L692.916 379.704C693.601 380.078 694.034 380.763 693.998 381.448C693.962 382.164 693.493 382.818 692.772 383.129L678.425 389.761C677.704 390.104 676.802 390.073 676.118 389.699C675.577 389.419 675.216 388.983 675.072 388.454C675.036 388.298 675 388.111 675 387.924L675.541 373.881C675.577 373.165 676.045 372.511 676.766 372.2C677.523 371.92 678.389 371.92 679.11 372.293Z" fill="#FF3612" fill-opacity="0.65"/>
<path d="M23.6612 178.522L20.0077 191.377C19.8355 192.03 19.9891 192.739 20.4661 193.209C20.9434 193.709 21.6251 193.881 22.2746 193.728L35.2042 190.455C35.8537 190.302 36.382 189.794 36.5543 189.141C36.6981 188.636 36.6349 188.133 36.3948 187.691C36.3048 187.544 36.2152 187.426 36.0959 187.308L26.7903 177.727C26.313 177.228 25.6313 177.055 24.9818 177.209C24.3621 177.391 23.8337 177.899 23.6612 178.522Z" fill="#FF9090" fill-opacity="0.65"/>
<path d="M901.487 174.65L905.463 188.637C905.65 189.348 905.483 190.12 904.964 190.632C904.445 191.175 903.703 191.363 902.996 191.196L888.927 187.635C888.22 187.468 887.645 186.915 887.457 186.205C887.301 185.655 887.37 185.108 887.631 184.627C887.729 184.466 887.826 184.338 887.956 184.21L898.082 173.785C898.602 173.241 899.343 173.053 900.05 173.22C900.724 173.419 901.299 173.972 901.487 174.65Z" fill="#FF9090" fill-opacity="0.65"/>
<path d="M639.487 144.45L643.463 158.438C643.65 159.148 643.483 159.92 642.964 160.432C642.445 160.976 641.703 161.163 640.996 160.996L626.927 157.435C626.22 157.268 625.645 156.716 625.457 156.005C625.301 155.456 625.37 154.908 625.631 154.427C625.729 154.267 625.826 154.139 625.956 154.011L636.082 143.585C636.602 143.041 637.343 142.854 638.05 143.021C638.724 143.219 639.299 143.772 639.487 144.45Z" fill="#FF9090" fill-opacity="0.65"/>
<path d="M184.354 255.718L197.178 259.474C197.83 259.652 198.541 259.504 199.015 259.031C199.518 258.558 199.696 257.877 199.548 257.226L196.379 244.242C196.231 243.591 195.727 243.058 195.075 242.881C194.572 242.733 194.068 242.792 193.624 243.029C193.476 243.118 193.358 243.206 193.239 243.325L183.584 252.523C183.08 252.997 182.902 253.677 183.05 254.328C183.199 255.008 183.702 255.511 184.354 255.718Z" fill="#78A941" fill-opacity="0.65"/>
<path d="M750.614 235.884L737.479 239.922C736.811 240.113 736.083 239.954 735.598 239.445C735.082 238.936 734.9 238.205 735.052 237.506L738.298 223.549C738.449 222.85 738.965 222.277 739.632 222.087C740.148 221.928 740.664 221.991 741.119 222.246C741.27 222.341 741.392 222.436 741.513 222.564L751.402 232.451C751.918 232.96 752.1 233.691 751.948 234.39C751.797 235.121 751.281 235.662 750.614 235.884Z" fill="#78A941" fill-opacity="0.65"/>
<path d="M488.614 205.685L475.479 209.722C474.811 209.913 474.083 209.754 473.598 209.245C473.082 208.737 472.9 208.005 473.052 207.306L476.298 193.349C476.449 192.65 476.965 192.078 477.632 191.887C478.148 191.728 478.664 191.792 479.119 192.046C479.27 192.141 479.392 192.237 479.513 192.364L489.402 202.251C489.918 202.76 490.1 203.491 489.948 204.19C489.797 204.922 489.281 205.462 488.614 205.685Z" fill="#78A941" fill-opacity="0.65"/>
<path d="M327.614 122.685L314.479 126.722C313.811 126.913 313.083 126.754 312.598 126.245C312.082 125.737 311.9 125.005 312.052 124.306L315.298 110.349C315.449 109.65 315.965 109.078 316.632 108.887C317.148 108.728 317.664 108.792 318.119 109.046C318.27 109.141 318.392 109.237 318.513 109.364L328.402 119.251C328.918 119.76 329.1 120.491 328.948 121.19C328.797 121.922 328.281 122.462 327.614 122.685Z" fill="#78A941" fill-opacity="0.65"/>
<path d="M287.614 243.685L274.479 247.722C273.811 247.913 273.083 247.754 272.598 247.245C272.082 246.737 271.9 246.005 272.052 245.306L275.298 231.349C275.449 230.65 275.965 230.078 276.632 229.887C277.148 229.728 277.664 229.792 278.119 230.046C278.27 230.141 278.392 230.237 278.513 230.364L288.402 240.251C288.918 240.76 289.1 241.491 288.948 242.19C288.797 242.922 288.281 243.462 287.614 243.685Z" fill="#FE7A5F"/>
<path d="M59.4804 121.709L72.2597 125.516C72.912 125.718 73.6205 125.535 74.0902 125.087C74.5892 124.609 74.7908 123.926 74.6377 123.275L71.546 110.297C71.3929 109.647 70.8859 109.118 70.2335 108.916C69.7591 108.772 69.2271 108.835 68.7854 109.076C68.6382 109.166 68.5206 109.255 68.3737 109.375L58.686 118.546C58.1869 119.024 57.9854 119.707 58.1385 120.357C58.2916 121.007 58.828 121.507 59.4804 121.709Z" fill="#65E2CB" fill-opacity="0.65"/>
<path d="M887.156 99.3739L873.251 103.517C872.541 103.737 871.77 103.537 871.259 103.05C870.716 102.53 870.496 101.787 870.663 101.079L874.027 86.9567C874.194 86.2489 874.745 85.6732 875.455 85.4533C875.972 85.2963 876.55 85.3654 877.031 85.6271C877.191 85.7251 877.319 85.8228 877.479 85.953L888.021 95.9322C888.564 96.4523 888.783 97.1953 888.617 97.903C888.45 98.6108 887.866 99.154 887.156 99.3739Z" fill="#65E2CB" fill-opacity="0.65"/>
<path d="M397.156 215.848L383.251 219.99C382.541 220.21 381.77 220.011 381.259 219.523C380.716 219.003 380.496 218.26 380.663 217.552L384.027 203.43C384.194 202.723 384.745 202.147 385.455 201.927C385.972 201.77 386.55 201.839 387.031 202.101C387.191 202.199 387.319 202.296 387.479 202.427L398.021 212.406C398.564 212.926 398.783 213.669 398.617 214.377C398.45 215.084 397.866 215.628 397.156 215.848Z" fill="#65E2CB" fill-opacity="0.65"/>
<path d="M388.717 35.8134L402.016 37.174C402.697 37.2332 403.349 36.9374 403.734 36.405C404.119 35.843 404.208 35.1331 403.912 34.512L398.432 22.3552C398.166 21.7341 397.573 21.32 396.892 21.2608C396.389 21.2017 395.885 21.3495 395.5 21.6749C395.382 21.7636 395.263 21.9115 395.174 22.0298L387.355 32.8556C386.97 33.4175 386.881 34.1274 387.177 34.7486C387.444 35.3401 388.036 35.7542 388.717 35.8134Z" fill="#65E2CB" fill-opacity="0.65"/>
<path d="M504.091 20.4545L489.304 21.9916C488.546 22.0584 487.822 21.7242 487.394 21.1228C486.965 20.4879 486.867 19.6859 487.196 18.9842L493.289 5.25077C493.585 4.54905 494.244 4.08125 495.001 4.01442C495.561 3.94759 496.121 4.11466 496.549 4.48223C496.681 4.58247 496.813 4.74954 496.912 4.8832L505.606 17.113C506.035 17.7479 506.133 18.5498 505.804 19.2516C505.508 19.9199 504.849 20.3877 504.091 20.4545Z" fill="#F67300" fill-opacity="0.65"/>
<path d="M192.083 177.997L205.381 179.358C206.062 179.417 206.714 179.121 207.099 178.589C207.484 178.027 207.573 177.317 207.277 176.696L201.797 164.539C201.531 163.918 200.939 163.504 200.257 163.444C199.754 163.385 199.25 163.533 198.865 163.858C198.747 163.947 198.628 164.095 198.539 164.213L190.72 175.039C190.335 175.601 190.246 176.311 190.543 176.932C190.839 177.524 191.431 177.938 192.083 177.997Z" fill="#F67300" fill-opacity="0.65"/>
<path d="M200.493 124.786L213.792 126.147C214.473 126.206 215.125 125.91 215.51 125.378C215.895 124.816 215.984 124.106 215.688 123.485L210.238 111.328C209.971 110.707 209.379 110.293 208.698 110.233C208.194 110.174 207.691 110.322 207.306 110.648C207.187 110.736 207.069 110.884 206.98 111.003L199.161 121.828C198.776 122.39 198.687 123.1 198.983 123.721C199.25 124.313 199.812 124.727 200.493 124.786Z" fill="#4B78C6" fill-opacity="0.65"/>
<path d="M632.121 28.4545L617.308 29.9916C616.549 30.0584 615.823 29.7242 615.394 29.1228C614.965 28.4879 614.866 27.6859 615.196 26.9842L621.267 13.2508C621.564 12.5491 622.224 12.0812 622.982 12.0144C623.543 11.9476 624.104 12.1147 624.533 12.4822C624.665 12.5825 624.797 12.7495 624.896 12.8832L633.606 25.113C634.035 25.7479 634.134 26.5498 633.804 27.2516C633.507 27.9198 632.88 28.3877 632.121 28.4545Z" fill="#4B78C6" fill-opacity="0.65"/>
<path d="M126.496 43.5654L139.794 44.926C140.476 44.9851 141.127 44.6894 141.512 44.1569C141.897 43.595 141.986 42.8851 141.69 42.2639L136.24 30.1072C135.974 29.486 135.381 29.0719 134.7 29.0128C134.197 28.9536 133.693 29.1015 133.308 29.4269C133.19 29.5156 133.071 29.6635 132.982 29.7818L125.163 40.6075C124.778 41.1695 124.689 41.8794 124.985 42.5006C125.252 43.0921 125.815 43.5062 126.496 43.5654Z" fill="#4B78C6" fill-opacity="0.65"/>
<path d="M789.22 28.5403L775.186 29.992C774.468 30.0552 773.78 29.7396 773.374 29.1715C772.967 28.5719 772.873 27.8145 773.186 27.1518L778.937 14.1813C779.218 13.5186 779.843 13.0767 780.562 13.0136C781.094 12.9505 781.625 13.1083 782.031 13.4554C782.156 13.5501 782.281 13.7079 782.375 13.8341L790.626 25.3845C791.033 25.9841 791.127 26.7415 790.814 27.4042C790.533 28.0354 789.939 28.4772 789.22 28.5403Z" fill="#4B78C6" fill-opacity="0.65"/>
<path d="M296.339 31.1403C297.435 30.6966 298.59 31.6136 298.442 32.7671L296.931 43.4745L295.421 54.1819C295.243 55.3651 293.881 55.8975 292.962 55.1876L284.432 48.5324L275.902 41.8773C274.984 41.1378 275.191 39.6885 276.287 39.2448L286.328 35.1926L296.339 31.1403Z" fill="#FF3612" fill-opacity="0.65"/>
<path d="M710.287 91.121C709.102 90.6498 707.854 91.6236 708.014 92.8488L709.646 104.221L711.279 115.592C711.471 116.849 712.944 117.414 713.936 116.66L723.155 109.592L732.374 102.524C733.367 101.739 733.143 100.2 731.958 99.7284L721.106 95.4247L710.287 91.121Z" fill="#FF3612" fill-opacity="0.65"/>
<path d="M398.287 81.9213C397.102 81.4501 395.854 82.4239 396.014 83.6491L397.646 95.0209L399.279 106.393C399.471 107.649 400.944 108.215 401.936 107.461L411.155 100.393L420.374 93.3245C421.367 92.5392 421.143 90.9999 419.958 90.5287L409.106 86.225L398.287 81.9213Z" fill="#FF3612" fill-opacity="0.65"/>
<path d="M38.7158 16L33.621 26.1707L28.5261 36.3413L22.2677 26.8244L16.0093 17.3076L27.3626 16.6538L38.7158 16Z" fill="#FFAC39" fill-opacity="0.65"/>
<path d="M885.105 8.80029L890.649 19.8676L896.193 30.9348L903.003 20.579L909.813 10.2232L897.459 9.51174L885.105 8.80029Z" fill="#FFAC39" fill-opacity="0.65"/>
<path d="M438.405 318.498C438.405 320.539 436.746 322.195 434.702 322.195C432.659 322.195 431 320.539 431 318.498C431 316.457 432.659 314.8 434.702 314.8C436.746 314.8 438.405 316.457 438.405 318.498Z" fill="#FF3612" fill-opacity="0.65"/>
<path d="M505 402C505 404.208 506.792 406 509 406C511.208 406 513 404.208 513 402C513 399.792 511.208 398 509 398C506.792 398 505 399.792 505 402Z" fill="#FF3612" fill-opacity="0.65"/>
<path d="M44.7565 63.4338C42.7156 63.4502 41.046 61.8049 41.0296 59.7614C41.0132 57.7178 42.6563 56.046 44.6971 56.0296C46.738 56.0133 48.4076 57.6585 48.424 59.7021C48.4404 61.7456 46.7973 63.4175 44.7565 63.4338Z" fill="#FF3612" fill-opacity="0.65"/>
<path d="M878.532 49.4158C880.753 49.4336 882.57 47.6433 882.588 45.4196C882.605 43.1959 880.818 41.3767 878.597 41.3589C876.376 41.3411 874.559 43.1314 874.541 45.3551C874.524 47.5788 876.311 49.398 878.532 49.4158Z" fill="#FF3612" fill-opacity="0.65"/>
<path d="M388.532 165.889C390.753 165.907 392.57 164.117 392.588 161.893C392.605 159.67 390.818 157.85 388.597 157.833C386.376 157.815 384.559 159.605 384.541 161.829C384.524 164.052 386.311 165.872 388.532 165.889Z" fill="#FF3612" fill-opacity="0.65"/>
<path d="M149.405 85.6973C149.405 87.7382 147.746 89.3946 145.702 89.3946C143.659 89.3946 142 87.7382 142 85.6973C142 83.6564 143.659 82 145.702 82C147.776 82 149.405 83.6564 149.405 85.6973Z" fill="#FFAC39" fill-opacity="0.65"/>
<path d="M822 73.8003C822 76.0083 823.792 77.8003 826 77.8003C828.208 77.8003 830 76.0083 830 73.8003C830 71.5923 828.208 69.8003 826 69.8003C823.76 69.8003 822 71.5923 822 73.8003Z" fill="#FFAC39" fill-opacity="0.65"/>
<path d="M332 190.274C332 192.482 333.792 194.274 336 194.274C338.208 194.274 340 192.482 340 190.274C340 188.066 338.208 186.274 336 186.274C333.76 186.274 332 188.066 332 190.274Z" fill="#FFAC39" fill-opacity="0.65"/>
<path d="M192.734 203.79C192.734 205.151 191.638 206.245 190.276 206.245C188.913 206.245 187.817 205.151 187.817 203.79C187.817 202.429 188.913 201.335 190.276 201.335C191.638 201.335 192.734 202.429 192.734 203.79Z" fill="#7F48C3" fill-opacity="0.65"/>
<path d="M718 202.5C718 203.886 719.114 205 720.5 205C721.886 205 723 203.886 723 202.5C723 201.114 721.886 200 720.5 200C719.114 200 718 201.114 718 202.5Z" fill="#7F48C3" fill-opacity="0.65"/>
<path d="M239 199.5C239 200.886 240.114 202 241.5 202C242.886 202 244 200.886 244 199.5C244 198.114 242.886 197 241.5 197C240.114 197 239 198.114 239 199.5Z" fill="#7F48C3" fill-opacity="0.65"/>
<path d="M456 167.3C456 168.686 457.114 169.8 458.5 169.8C459.886 169.8 461 168.686 461 167.3C461 165.915 459.886 164.8 458.5 164.8C457.114 164.8 456 165.915 456 167.3Z" fill="#7F48C3" fill-opacity="0.65"/>
<path d="M295 89.3003C295 90.6858 296.114 91.8003 297.5 91.8003C298.886 91.8003 300 90.6858 300 89.3003C300 87.9147 298.886 86.8003 297.5 86.8003C296.114 86.8003 295 87.9147 295 89.3003Z" fill="#7F48C3" fill-opacity="0.65"/>
<path d="M300 263.3C300 264.686 301.114 265.8 302.5 265.8C303.886 265.8 305 264.686 305 263.3C305 261.915 303.886 260.8 302.5 260.8C301.114 260.8 300 261.915 300 263.3Z" fill="#7F48C3" fill-opacity="0.65"/>
<path d="M226.08 78.1523C227.782 78.1523 229.161 76.7751 229.161 75.0762C229.161 73.3772 227.782 72 226.08 72C224.379 72 223 73.3772 223 75.0762C223 76.7751 224.379 78.1523 226.08 78.1523Z" fill="#FFAC39" fill-opacity="0.65"/>
<path d="M682.5 66C680.567 66 679 64.433 679 62.5C679 60.567 680.567 59 682.5 59C684.433 59 686 60.567 686 62.5C686 64.433 684.433 66 682.5 66Z" fill="#FFAC39" fill-opacity="0.65"/>
<path d="M264.765 407.053C264.765 408.058 263.936 408.886 262.929 408.886C261.922 408.886 261.093 408.058 261.093 407.053C261.093 406.047 261.922 405.219 262.929 405.219C263.936 405.219 264.765 406.047 264.765 407.053Z" fill="#65E2CB" fill-opacity="0.65"/>
<path d="M638 423C638 424.097 638.903 425 640 425C641.097 425 642 424.097 642 423C642 421.903 641.097 421 640 421C638.903 421 638 421.903 638 423Z" fill="#65E2CB" fill-opacity="0.65"/>
<path d="M24.0752 137.971C21.709 137.99 19.7415 136.08 19.7223 133.681C19.7033 131.312 21.6101 129.342 24.0059 129.323C26.3721 129.304 28.3397 131.213 28.3589 133.612C28.3781 136.011 26.471 137.952 24.0752 137.971Z" fill="#34A5CF" fill-opacity="0.65"/>
<path d="M901.037 130.523C903.611 130.544 905.752 128.466 905.773 125.856C905.794 123.278 903.719 121.134 901.112 121.113C898.537 121.092 896.396 123.17 896.375 125.78C896.354 128.391 898.43 130.503 901.037 130.523Z" fill="#34A5CF" fill-opacity="0.65"/>
<path d="M639.037 100.324C641.611 100.344 643.752 98.2666 643.773 95.6561C643.794 93.0779 641.719 90.9341 639.112 90.9132C636.537 90.8925 634.396 92.9703 634.375 95.5808C634.354 98.1912 636.43 100.303 639.037 100.324Z" fill="#34A5CF" fill-opacity="0.65"/>
<path d="M163.886 168.71C163.886 170.396 162.494 171.786 160.806 171.786C159.118 171.786 157.726 170.396 157.726 168.71C157.726 167.024 159.118 165.634 160.806 165.634C162.494 165.634 163.886 166.994 163.886 168.71Z" fill="#65E2CB" fill-opacity="0.65"/>
<path d="M766 144.3C766 146.219 767.582 147.8 769.5 147.8C771.418 147.8 773 146.219 773 144.3C773 142.382 771.418 140.8 769.5 140.8C767.582 140.8 766 142.348 766 144.3Z" fill="#A6C57E"/>
<path d="M287 141.3C287 143.219 288.582 144.8 290.5 144.8C292.418 144.8 294 143.219 294 141.3C294 139.382 292.418 137.8 290.5 137.8C288.582 137.8 287 139.348 287 141.3Z" fill="#A6C57E"/>
<path d="M504 108.101C504 110.019 505.582 111.601 507.5 111.601C509.418 111.601 511 110.019 511 108.101C511 106.182 509.418 104.601 507.5 104.601C505.582 104.601 504 106.149 504 108.101Z" fill="#A6C57E"/>
<path d="M75.1608 323.876C75.1608 325.562 73.7686 326.953 72.0803 326.953C70.3921 326.953 69 325.562 69 323.876C69 322.19 70.3921 320.8 72.0803 320.8C73.7686 320.8 75.1608 322.161 75.1608 323.876Z" fill="#65E2CB" fill-opacity="0.65"/>
<path d="M849 371.5C849 373.418 850.582 375 852.5 375C854.418 375 856 373.418 856 371.5C856 369.582 854.418 368 852.5 368C850.582 368 849 369.548 849 371.5Z" fill="#65E2CB" fill-opacity="0.65"/>
<path d="M535 350.3C535 352.219 536.582 353.8 538.5 353.8C540.418 353.8 542 352.219 542 350.3C542 348.382 540.418 346.8 538.5 346.8C536.582 346.8 535 348.348 535 350.3Z" fill="#65E2CB" fill-opacity="0.65"/>
<path d="M789 382.3C789 384.219 790.582 385.8 792.5 385.8C794.418 385.8 796 384.219 796 382.3C796 380.382 794.418 378.8 792.5 378.8C790.582 378.8 789 380.348 789 382.3Z" fill="#FEC778"/>
<path d="M353.886 408.679C353.886 410.04 352.79 411.134 351.428 411.134C350.066 411.134 348.97 410.04 348.97 408.679C348.97 407.319 350.066 406.224 351.428 406.224C352.761 406.195 353.886 407.319 353.886 408.679Z" fill="#65E2CB" fill-opacity="0.65"/>
<path d="M542 424.5C542 425.886 543.337 427 545 427C546.663 427 548 425.886 548 424.5C548 423.115 546.663 422.001 545 422.001C543.373 421.97 542 423.115 542 424.5Z" fill="#65E2CB" fill-opacity="0.65"/>
<path d="M352.458 379.71C353.816 379.71 354.917 378.611 354.917 377.255C354.917 375.899 353.816 374.8 352.458 374.8C351.101 374.8 350 375.899 350 377.255C350 378.611 351.101 379.71 352.458 379.71Z" fill="#FF9090" fill-opacity="0.65"/>
<path d="M563.5 386C562.119 386 561 384.881 561 383.5C561 382.119 562.119 381 563.5 381C564.881 381 566 382.119 566 383.5C566 384.881 564.881 386 563.5 386Z" fill="#FF9090" fill-opacity="0.65"/>
<path d="M807.5 418C806.119 418 805 416.881 805 415.5C805 414.119 806.119 413 807.5 413C808.881 413 810 414.119 810 415.5C810 416.881 808.881 418 807.5 418Z" fill="#FF9090" fill-opacity="0.65"/>
<path d="M187.649 35.3185C187.649 37.6847 185.723 39.6369 183.324 39.6369C180.925 39.6369 179 37.7143 179 35.3185C179 32.9226 180.925 31 183.324 31C185.723 31 187.649 32.9226 187.649 35.3185Z" fill="#FF3612" fill-opacity="0.65"/>
<path d="M724 19.5C724 21.9658 726.003 24 728.5 24C730.997 24 733 21.9966 733 19.5C733 17.0034 730.997 15 728.5 15C726.003 15 724 17.0034 724 19.5Z" fill="#FF3612" fill-opacity="0.65"/>
<path d="M101.161 81.0762C101.161 82.7621 99.7685 84.1523 98.0803 84.1523C96.3921 84.1523 95 82.7621 95 81.0762C95 79.3902 96.3921 78 98.0803 78C99.7685 78 101.161 79.3902 101.161 81.0762Z" fill="#65E2CB" fill-opacity="0.65"/>
<path d="M723 149.8C723 151.445 724.582 152.8 726.5 152.8C728.418 152.8 730 151.445 730 149.8C730 148.156 728.418 146.8 726.5 146.8C724.582 146.8 723 148.156 723 149.8Z" fill="#65E2CB" fill-opacity="0.65"/>
<path d="M244 146.8C244 148.445 245.582 149.8 247.5 149.8C249.418 149.8 251 148.445 251 146.8C251 145.156 249.418 143.8 247.5 143.8C245.582 143.8 244 145.156 244 146.8Z" fill="#65E2CB" fill-opacity="0.65"/>
<path d="M461 113.601C461 115.245 462.582 116.601 464.5 116.601C466.418 116.601 468 115.245 468 113.601C468 111.956 466.418 110.601 464.5 110.601C462.582 110.601 461 111.956 461 113.601Z" fill="#65E2CB" fill-opacity="0.65"/>
<path d="M145.917 120.455C145.917 121.816 144.821 122.91 143.458 122.91C142.096 122.91 141 121.816 141 120.455C141 119.094 142.096 118 143.458 118C144.821 118 145.917 119.094 145.917 120.455Z" fill="#FF9090" fill-opacity="0.65"/>
<path d="M773 91.3003C773 92.6858 774.114 93.8003 775.5 93.8003C776.886 93.8003 778 92.6858 778 91.3003C778 89.9148 776.886 88.8003 775.5 88.8003C774.114 88.8003 773 89.9148 773 91.3003Z" fill="#FF9090" fill-opacity="0.65"/>
<path d="M149.669 203.701C149.669 205.062 148.573 206.156 147.21 206.156C145.848 206.156 144.752 205.062 144.752 203.701C144.752 202.34 145.848 201.246 147.21 201.246C148.573 201.246 149.669 202.34 149.669 203.701Z" fill="#FF9090" fill-opacity="0.65"/>
<path d="M765 202.5C765 203.886 766.114 205 767.5 205C768.886 205 770 203.886 770 202.5C770 201.114 768.886 200 767.5 200C766.114 200 765 201.114 765 202.5Z" fill="#FF9090" fill-opacity="0.65"/>
<path d="M286 199.5C286 200.886 287.114 202 288.5 202C289.886 202 291 200.886 291 199.5C291 198.114 289.886 197 288.5 197C287.114 197 286 198.114 286 199.5Z" fill="#FF9090" fill-opacity="0.65"/>
<path d="M503 167.3C503 168.686 504.114 169.8 505.5 169.8C506.886 169.8 508 168.686 508 167.3C508 165.915 506.886 164.8 505.5 164.8C504.114 164.8 503 165.915 503 167.3Z" fill="#FF9090" fill-opacity="0.65"/>
<path d="M342 89.3003C342 90.6858 343.114 91.8003 344.5 91.8003C345.886 91.8003 347 90.6858 347 89.3003C347 87.9147 345.886 86.8003 344.5 86.8003C343.114 86.8003 342 87.9147 342 89.3003Z" fill="#FF9090" fill-opacity="0.65"/>
<path d="M347 263.3C347 264.686 348.114 265.8 349.5 265.8C350.886 265.8 352 264.686 352 263.3C352 261.915 350.886 260.8 349.5 260.8C348.114 260.8 347 261.915 347 263.3Z" fill="#FF9090" fill-opacity="0.65"/>
<path d="M64.7164 417.565L78.015 418.926C78.6962 418.985 79.3478 418.689 79.7329 418.157C80.1179 417.595 80.2068 416.885 79.9106 416.264L74.4312 404.107C74.1647 403.486 73.5723 403.072 72.8911 403.013C72.3876 402.954 71.8841 403.101 71.499 403.427C71.3805 403.516 71.2621 403.663 71.1732 403.782L63.354 414.608C62.969 415.17 62.8801 415.879 63.1763 416.501C63.4429 417.063 64.0352 417.477 64.7164 417.565Z" fill="#F67300" fill-opacity="0.65"/>
<path d="M857.192 424.54L843.183 425.992C842.465 426.055 841.779 425.74 841.373 425.172C840.967 424.572 840.874 423.815 841.186 423.152L846.958 410.181C847.239 409.519 847.863 409.077 848.58 409.014C849.111 408.951 849.641 409.108 850.047 409.455C850.172 409.55 850.296 409.708 850.39 409.834L858.627 421.385C859.033 421.984 859.126 422.742 858.814 423.404C858.533 424.004 857.909 424.446 857.192 424.54Z" fill="#C3F0E1" fill-opacity="0.65"/>
<path d="M710.091 292.54L695.304 293.992C694.546 294.055 693.822 293.74 693.394 293.172C692.965 292.572 692.867 291.815 693.196 291.152L699.289 278.181C699.585 277.519 700.244 277.077 701.001 277.014C701.561 276.951 702.121 277.108 702.549 277.455C702.681 277.55 702.813 277.708 702.912 277.834L711.606 289.385C712.035 289.984 712.133 290.742 711.804 291.404C711.475 292.004 710.849 292.477 710.091 292.54Z" fill="#4B78C6" fill-opacity="0.65"/>
<path d="M448.091 262.341L433.304 263.792C432.546 263.855 431.822 263.54 431.394 262.972C430.965 262.372 430.867 261.615 431.196 260.952L437.289 247.982C437.585 247.319 438.244 246.877 439.001 246.814C439.561 246.751 440.121 246.909 440.549 247.256C440.681 247.35 440.813 247.508 440.912 247.634L449.606 259.185C450.035 259.784 450.133 260.542 449.804 261.205C449.475 261.804 448.849 262.278 448.091 262.341Z" fill="#4B78C6" fill-opacity="0.65"/>
<path d="M334.091 339.341L319.304 340.792C318.546 340.855 317.822 340.54 317.394 339.972C316.965 339.372 316.867 338.615 317.196 337.952L323.289 324.982C323.585 324.319 324.244 323.877 325.001 323.814C325.561 323.751 326.121 323.909 326.549 324.256C326.681 324.35 326.813 324.508 326.912 324.634L335.606 336.185C336.035 336.784 336.133 337.542 335.804 338.205C335.475 338.804 334.849 339.278 334.091 339.341Z" fill="#4B78C6" fill-opacity="0.65"/>
<path d="M173.068 276.553C173.068 278.594 171.409 280.25 169.365 280.25C167.322 280.25 165.663 278.594 165.663 276.553C165.663 274.512 167.322 272.855 169.365 272.855C171.439 272.885 173.068 274.541 173.068 276.553Z" fill="#FFAC39" fill-opacity="0.65"/>
<path d="M739 281C739 283.208 740.792 285 743 285C745.208 285 747 283.208 747 281C747 278.792 745.208 277 743 277C740.76 277.032 739 278.824 739 281Z" fill="#FFAC39" fill-opacity="0.65"/>
<path d="M477 250.8C477 253.008 478.792 254.8 481 254.8C483.208 254.8 485 253.008 485 250.8C485 248.592 483.208 246.8 481 246.8C478.76 246.832 477 248.624 477 250.8Z" fill="#FFAC39" fill-opacity="0.65"/>
<path d="M276 358.8C276 361.008 277.792 362.8 280 362.8C282.208 362.8 284 361.008 284 358.8C284 356.592 282.208 354.8 280 354.8C277.76 354.832 276 356.624 276 358.8Z" fill="#FFAC39" fill-opacity="0.65"/>
<path d="M147.405 411.697C147.405 413.738 145.746 415.395 143.702 415.395C141.659 415.395 140 413.738 140 411.697C140 409.656 141.659 408 143.702 408C145.746 408 147.405 409.656 147.405 411.697Z" fill="#FFAC39" fill-opacity="0.65"/>
<path d="M481.405 355.498C481.405 357.539 479.746 359.195 477.702 359.195C475.659 359.195 474 357.539 474 355.498C474 353.457 475.659 351.8 477.702 351.8C479.746 351.8 481.405 353.457 481.405 355.498Z" fill="#FFAC39" fill-opacity="0.65"/>
<path d="M209.917 411.455C209.917 412.816 208.821 413.91 207.458 413.91C206.096 413.91 205 412.816 205 411.455C205 410.094 206.096 409 207.458 409C208.791 409 209.917 410.094 209.917 411.455Z" fill="#7F48C3" fill-opacity="0.65"/>
<path d="M704 418.5C704 419.886 705.114 421 706.5 421C707.886 421 709 419.886 709 418.5C709 417.114 707.886 416 706.5 416C705.145 416 704 417.114 704 418.5Z" fill="#7F48C3" fill-opacity="0.65"/>
<path d="M202.161 308.876C202.161 310.562 200.769 311.953 199.08 311.953C197.392 311.953 196 310.562 196 308.876C196 307.19 197.392 305.8 199.08 305.8C200.769 305.8 202.161 307.161 202.161 308.876Z" fill="#65E2CB" fill-opacity="0.65"/>
<path d="M735 338.5C735 340.418 736.582 342 738.5 342C740.418 342 742 340.418 742 338.5C742 336.582 740.418 335 738.5 335C736.582 335 735 336.548 735 338.5Z" fill="#65E2CB" fill-opacity="0.65"/>
<path d="M811 296C811 298.74 813.003 301 815.5 301C817.997 301 820 298.774 820 296C820 293.226 817.966 291 815.469 291C812.973 291 811 293.226 811 296Z" fill="#FF3612" fill-opacity="0.65"/>
<path d="M545 279.8C545 282.54 547.003 284.8 549.5 284.8C551.997 284.8 554 282.574 554 279.8C554 277.026 551.966 274.8 549.469 274.8C546.973 274.8 545 277.026 545 279.8Z" fill="#FF3612" fill-opacity="0.65"/>
<path d="M122.161 236.076C122.161 237.762 120.769 239.152 119.08 239.152C117.392 239.152 116 237.762 116 236.076C116 234.39 117.392 233 119.08 233C120.769 233 122.161 234.39 122.161 236.076Z" fill="#65E2CB" fill-opacity="0.65"/>
<path d="M794 237C794 238.644 795.582 240 797.5 240C799.418 240 801 238.644 801 237C801 235.356 799.418 234 797.5 234C795.582 234 794 235.356 794 237Z" fill="#65E2CB" fill-opacity="0.65"/>
<path d="M532 206.8C532 208.445 533.582 209.8 535.5 209.8C537.418 209.8 539 208.445 539 206.8C539 205.156 537.418 203.8 535.5 203.8C533.582 203.8 532 205.156 532 206.8Z" fill="#65E2CB" fill-opacity="0.65"/>
<path d="M376 297.8C376 299.445 377.582 300.8 379.5 300.8C381.418 300.8 383 299.445 383 297.8C383 296.156 381.418 294.8 379.5 294.8C377.582 294.8 376 296.156 376 297.8Z" fill="#65E2CB" fill-opacity="0.65"/>
<path d="M801 336.5C801 337.886 802.114 339 803.5 339C804.886 339 806 337.886 806 336.5C806 335.114 804.886 334 803.5 334C802.114 334 801 335.114 801 336.5Z" fill="#FF9090" fill-opacity="0.65"/>
<path d="M15.3537 356.657L28.1782 360.413C28.8298 360.591 29.5407 360.443 30.0146 359.969C30.5181 359.496 30.6957 358.816 30.5477 358.165L27.3785 345.21C27.2305 344.559 26.727 344.027 26.0754 343.849C25.5719 343.701 25.0683 343.76 24.6241 343.997C24.476 344.086 24.3576 344.175 24.2391 344.293L14.5836 353.521C14.0801 353.995 13.9024 354.675 14.0505 355.326C14.1986 355.947 14.7021 356.479 15.3537 356.657Z" fill="#78A941" fill-opacity="0.65"/>
<path d="M910.532 367.877L896.624 371.922C895.918 372.113 895.147 371.954 894.633 371.444C894.087 370.935 893.894 370.202 894.055 369.501L897.492 355.552C897.652 354.851 898.198 354.278 898.905 354.087C899.451 353.928 899.997 353.991 900.479 354.246C900.639 354.342 900.768 354.437 900.896 354.565L911.367 364.501C911.913 365.011 912.106 365.743 911.945 366.444C911.785 367.113 911.239 367.686 910.532 367.877Z" fill="#78A941" fill-opacity="0.65"/>
<path d="M636.532 346.677L622.624 350.722C621.918 350.913 621.147 350.754 620.633 350.244C620.087 349.735 619.894 349.002 620.055 348.302L623.492 334.352C623.652 333.651 624.198 333.078 624.905 332.887C625.451 332.728 625.997 332.792 626.479 333.046C626.639 333.142 626.768 333.237 626.896 333.365L637.367 343.301C637.913 343.811 638.106 344.544 637.945 345.244C637.785 345.913 637.239 346.486 636.532 346.677Z" fill="#FEB5B1"/>
<path d="M828.192 133.454L814.183 134.992C813.465 135.058 812.779 134.724 812.373 134.123C811.967 133.488 811.874 132.686 812.186 131.984L817.958 118.251C818.239 117.549 818.863 117.081 819.58 117.014C820.111 116.948 820.641 117.115 821.047 117.482C821.172 117.582 821.296 117.75 821.39 117.883L829.627 130.113C830.033 130.748 830.126 131.55 829.814 132.252C829.502 132.92 828.878 133.388 828.192 133.454Z" fill="#F67300" fill-opacity="0.65"/>
<path d="M566.192 103.255L552.183 104.792C551.465 104.859 550.779 104.525 550.373 103.923C549.967 103.288 549.874 102.486 550.186 101.785L555.958 88.0511C556.239 87.3494 556.863 86.8815 557.58 86.8147C558.111 86.7479 558.641 86.915 559.047 87.2825C559.172 87.3828 559.296 87.5498 559.39 87.6835L567.627 99.9133C568.033 100.548 568.126 101.35 567.814 102.052C567.502 102.72 566.878 103.188 566.192 103.255Z" fill="#F67300" fill-opacity="0.65"/>
<path d="M44.4047 229.697C44.4047 231.738 42.746 233.395 40.7023 233.395C38.6586 233.395 37 231.738 37 229.697C37 227.656 38.6586 226 40.7023 226C42.746 226 44.4047 227.656 44.4047 229.697Z" fill="#FFAC39" fill-opacity="0.65"/>
<path d="M879 230C879 232.208 880.792 234 883 234C885.208 234 887 232.208 887 230C887 227.792 885.208 226 883 226C880.792 226 879 227.792 879 230Z" fill="#FFAC39" fill-opacity="0.65"/>
<path d="M617 199.8C617 202.008 618.792 203.8 621 203.8C623.208 203.8 625 202.008 625 199.8C625 197.592 623.208 195.8 621 195.8C618.792 195.8 617 197.592 617 199.8Z" fill="#FFAC39" fill-opacity="0.65"/>
<path d="M119.405 284.498C119.405 286.539 117.746 288.195 115.702 288.195C113.659 288.195 112 286.539 112 284.498C112 282.457 113.659 280.8 115.702 280.8C117.746 280.8 119.405 282.457 119.405 284.498Z" fill="#4B78C6" fill-opacity="0.65"/>
<path d="M865 337C865 339.208 866.792 341 869 341C871.208 341 873 339.208 873 337C873 334.792 871.208 333 869 333C866.792 333 865 334.792 865 337Z" fill="#4B78C6" fill-opacity="0.65"/>
<path d="M591 315.8C591 318.008 592.792 319.8 595 319.8C597.208 319.8 599 318.008 599 315.8C599 313.592 597.208 311.8 595 311.8C592.792 311.8 591 313.592 591 315.8Z" fill="#4B78C6" fill-opacity="0.65"/>
<path d="M29.7485 288.744C29.7485 290.43 28.3565 291.82 26.6682 291.82C24.98 291.82 23.5879 290.43 23.5879 288.744C23.5879 287.058 24.98 285.668 26.6682 285.668C28.3565 285.668 29.7485 287.058 29.7485 288.744Z" fill="#65E2CB" fill-opacity="0.65"/>
<path d="M895 294C895 295.644 896.582 297 898.5 297C900.418 297 902 295.644 902 294C902 292.356 900.418 291 898.5 291C896.582 291 895 292.356 895 294Z" fill="#65E2CB" fill-opacity="0.65"/>
<path d="M633 263.8C633 265.445 634.582 266.8 636.5 266.8C638.418 266.8 640 265.445 640 263.8C640 262.156 638.418 260.8 636.5 260.8C634.582 260.8 633 262.156 633 263.8Z" fill="#65E2CB" fill-opacity="0.65"/>
<path d="M106.716 370.366L120.015 371.726C120.696 371.785 121.348 371.49 121.733 370.957C122.118 370.395 122.207 369.685 121.911 369.064L116.431 356.907C116.165 356.286 115.572 355.872 114.891 355.813C114.388 355.754 113.884 355.902 113.499 356.227C113.381 356.316 113.262 356.464 113.173 356.582L105.354 367.408C104.969 367.97 104.88 368.68 105.176 369.301C105.443 369.892 106.035 370.306 106.716 370.366Z" fill="#4B78C6" fill-opacity="0.65"/>
<path d="M397.716 366.366L411.015 367.726C411.696 367.785 412.348 367.49 412.733 366.957C413.118 366.395 413.207 365.685 412.911 365.064L407.431 352.907C407.165 352.286 406.572 351.872 405.891 351.813C405.388 351.754 404.884 351.902 404.499 352.227C404.381 352.316 404.262 352.464 404.173 352.582L396.354 363.408C395.969 363.97 395.88 364.68 396.176 365.301C396.443 365.892 397.035 366.306 397.716 366.366Z" fill="#FEC778"/>
<path d="M592.716 415.366L606.015 416.726C606.696 416.785 607.348 416.49 607.733 415.957C608.118 415.395 608.207 414.685 607.911 414.064L602.431 401.907C602.165 401.286 601.572 400.872 600.891 400.813C600.388 400.754 599.884 400.902 599.499 401.227C599.381 401.316 599.262 401.464 599.173 401.582L591.354 412.408C590.969 412.97 590.88 413.68 591.176 414.301C591.443 414.892 592.035 415.306 592.716 415.366Z" fill="#FEC778"/>
<path d="M775.192 401.341L761.183 402.792C760.465 402.855 759.779 402.54 759.373 401.972C758.967 401.372 758.874 400.615 759.186 399.952L764.958 386.982C765.239 386.319 765.863 385.877 766.58 385.814C767.111 385.751 767.641 385.909 768.047 386.256C768.172 386.35 768.296 386.508 768.39 386.634L776.627 398.185C777.033 398.784 777.126 399.542 776.814 400.205C776.533 400.836 775.909 401.278 775.192 401.341Z" fill="#4B78C6" fill-opacity="0.65"/>
<path d="M26.0756 398.332C26.0756 400.373 24.4169 402.029 22.3732 402.029C20.3295 402.029 18.6709 400.373 18.6709 398.332C18.6709 396.291 20.3295 394.635 22.3732 394.635C24.4169 394.635 26.0756 396.291 26.0756 398.332Z" fill="#FFAC39" fill-opacity="0.65"/>
<path d="M899 413C899 415.208 900.792 417 903 417C905.208 417 907 415.208 907 413C907 410.792 905.208 409 903 409C900.792 409 899 410.792 899 413Z" fill="#FFAC39" fill-opacity="0.65"/>
<path d="M154.141 367.21C154.141 368.571 153.045 369.666 151.683 369.666C150.32 369.666 149.225 368.571 149.225 367.21C149.225 365.85 150.32 364.755 151.683 364.755C153.016 364.726 154.141 365.85 154.141 367.21Z" fill="#FF9090" fill-opacity="0.65"/>
<path d="M510.141 317.21C510.141 318.571 509.045 319.666 507.683 319.666C506.32 319.666 505.225 318.571 505.225 317.21C505.225 315.85 506.32 314.755 507.683 314.755C509.016 314.726 510.141 315.85 510.141 317.21Z" fill="#FF9090" fill-opacity="0.65"/>
<path d="M80.4944 23.9361C79.1338 23.947 78.0307 22.86 78.0198 21.4976C78.0089 20.1352 79.0944 19.0306 80.455 19.0197C81.8155 19.0088 82.9187 20.0958 82.9296 21.4582C82.9405 22.8206 81.855 23.9252 80.4944 23.9361Z" fill="#FF3612" fill-opacity="0.65"/>
<path d="M444.044 387.206C444.044 388.892 442.652 390.282 440.964 390.282C439.276 390.282 437.884 388.892 437.884 387.206C437.884 385.52 439.276 384.13 440.964 384.13C442.652 384.13 444.044 385.52 444.044 387.206Z" fill="#65E2CB" fill-opacity="0.65"/>
<path d="M414.722 409.448C414.722 410.809 413.626 411.903 412.264 411.903C410.902 411.903 409.806 410.809 409.806 409.448C409.806 408.088 410.902 406.993 412.264 406.993C413.626 406.993 414.722 408.088 414.722 409.448Z" fill="#FF9090" fill-opacity="0.65"/>
<path d="M476 425.5C476 426.886 477.114 428 478.5 428C479.886 428 481 426.886 481 425.5C481 424.114 479.886 423 478.5 423C477.114 423 476 424.114 476 425.5Z" fill="#FF9090" fill-opacity="0.65"/>
<path d="M72.1254 182.985C70.4395 182.999 69.0382 181.618 69.0246 179.93C69.0111 178.242 70.3901 176.838 72.076 176.825C73.7619 176.811 75.1633 178.192 75.1768 179.88C75.1903 181.569 73.8113 182.972 72.1254 182.985Z" fill="#65E2CB" fill-opacity="0.65"/>
<path d="M855.279 161.225C857.114 161.24 858.639 159.737 858.653 157.9C858.668 156.063 857.168 154.536 855.333 154.521C853.499 154.507 851.974 156.009 851.959 157.846C851.944 159.683 853.445 161.21 855.279 161.225Z" fill="#65E2CB" fill-opacity="0.65"/>
<path d="M593.279 131.025C595.114 131.04 596.639 129.537 596.653 127.7C596.668 125.863 595.168 124.336 593.333 124.322C591.499 124.307 589.974 125.81 589.959 127.647C589.944 129.484 591.445 131.01 593.279 131.025Z" fill="#65E2CB" fill-opacity="0.65"/>
<path d="M366.563 49.3906C366.563 51.0766 365.171 52.4668 363.483 52.4668C361.794 52.4668 360.402 51.0766 360.402 49.3906C360.402 47.7046 361.794 46.3145 363.483 46.3145C365.171 46.3145 366.563 47.7046 366.563 49.3906Z" fill="#FF3612" fill-opacity="0.65"/>
<path d="M529 34.5C529 36.4183 530.356 38 532 38C533.644 38 535 36.4183 535 34.5C535 32.5817 533.644 31 532 31C530.356 31 529 32.5817 529 34.5Z" fill="#FF3612" fill-opacity="0.65"/>
<path d="M453.161 52.8765C453.161 54.5624 451.769 55.9526 450.08 55.9526C448.392 55.9526 447 54.5624 447 52.8765C447 51.1905 448.392 49.8003 450.08 49.8003C451.769 49.8003 453.161 51.1905 453.161 52.8765Z" fill="#FF3612" fill-opacity="0.65"/>
<path d="M622 53.5C622 55.4183 623.356 57 625 57C626.644 57 628 55.4183 628 53.5C628 51.5817 626.644 50 625 50C623.356 50 622 51.5817 622 53.5Z" fill="#FF3612" fill-opacity="0.65"/>
<path d="M342.04 23.8046C342.04 25.1652 340.944 26.2596 339.581 26.2596C338.219 26.2596 337.123 25.1652 337.123 23.8046C337.123 22.444 338.219 21.3496 339.581 21.3496C340.944 21.3496 342.04 22.444 342.04 23.8046Z" fill="#FFAC39" fill-opacity="0.65"/>
<path d="M298 392.8L311.328 394.96L324.656 397.089L316.126 407.56L307.596 418.001L302.798 405.401L298 392.8Z" fill="#D93E4F" fill-opacity="0.65"/>
<path d="M243.944 308.646C243.944 310.332 242.552 311.722 240.863 311.722C239.175 311.722 237.783 310.332 237.783 308.646C237.783 306.96 239.175 305.569 240.863 305.569C242.581 305.569 243.944 306.93 243.944 308.646Z" fill="#65E2CB" fill-opacity="0.65"/>
<path d="M661 316.5C661 318.418 662.582 320 664.5 320C666.418 320 668 318.418 668 316.5C668 314.582 666.418 313 664.5 313C662.548 313 661 314.548 661 316.5Z" fill="#65E2CB" fill-opacity="0.65"/>
</svg>
