<svg xmlns="http://www.w3.org/2000/svg" viewBox="0 0 114.93 141.99"><defs><style>.cls-1{fill:#eee;}.cls-2{fill:#78a941;}.cls-3{fill:#ddeefd;}.cls-4{fill:#ffc8af;}.cls-5,.cls-7{fill:#ff9d80;}.cls-6{fill:#e74e1b;}.cls-7{opacity:0.51;}.cls-11,.cls-8{fill:none;stroke-linecap:round;stroke-linejoin:round;}.cls-8{stroke:#3f2732;}.cls-9{fill:#2d202a;}.cls-10{fill:#3f2732;}.cls-11{stroke:#d6402e;}.cls-12{fill:#597c2a;}.cls-13{fill:#44b0d7;}.cls-14{fill:#4c2a3b;}.cls-15{fill:#4f2f3f;}.cls-16{fill:#725465;}.cls-17{fill:#523544;}</style></defs><g id="Layer_2" data-name="Layer 2"><g id="Layer_1-2" data-name="Layer 1"><polygon class="cls-1" points="36.47 81.32 37.11 82.48 38.27 83.12 37.11 83.76 36.47 84.93 35.83 83.76 34.67 83.12 35.83 82.48 36.47 81.32"/><rect class="cls-2" x="30.08" y="75.35" width="51.04" height="38.75" rx="14.67"/><path class="cls-3" d="M85.24,93.67c-11,0-20.4-7-20.85-7.32A4.62,4.62,0,0,1,69.92,79c.18.14,9.48,6.91,18.16,5.22,4.16-.81,7.54-3.43,10.34-8A4.62,4.62,0,0,1,106.3,81c-4.19,6.86-9.74,11-16.52,12.29A24.28,24.28,0,0,1,85.24,93.67Z"/><path class="cls-3" d="M74.88,85.06v24.59a7.37,7.37,0,0,1-1.9,4.78c-2.69,3.18-8,5.35-14,5.35H56.1c-6.45,0-12-2.48-14.52-6a7.1,7.1,0,0,1-1.38-4.12V85.06c0-5.57,7.15-10.13,15.9-10.13H59C67.72,74.93,74.88,79.49,74.88,85.06Z"/><path class="cls-4" d="M47.59,132,52,120c1.14.06,9.15,0,10.12,0L66.49,132l6.08-1c4-14.74.59-20.07.59-20.07H40.92s-3.38,5.33.59,20.07Z"/><path class="cls-3" d="M40.49,126.58c.27,1.35,1,5.36,1.46,6.92l5.39.13,2.23-7Z"/><path class="cls-3" d="M73.59,126.58H64.51l2.31,8.2,5.12-.26C72.37,133,73.32,127.93,73.59,126.58Z"/><path class="cls-5" d="M57,71.66v6.89L50.51,76A3.74,3.74,0,0,0,53,71.42Z"/><path class="cls-5" d="M56.84,71.66v6.89L63.37,76a3.75,3.75,0,0,1-2.45-4.57Z"/><path class="cls-6" d="M35.57,55.55s-6.24.34-10.1-3.09c-9.57-8.49.2-14.14.2-14.14a8.94,8.94,0,0,1-6.13-7.26c-1.15-8.1,8.18-10.4,8.18-10.4s-5.32-11.82,4.61-16S46.89,7.18,46.89,7.18,50.33-2.42,59.3.58s11,8,11,8,4.78-6.47,10.48-2.75c9.75,6.35,6,16,6,16s8.61-1.73,9.59,7.13-6,11.08-6,11.08,5.09,4.42,1.42,11.4S80.4,58,80.4,58Z"/><circle class="cls-5" cx="27.42" cy="49.77" r="7.11"/><circle class="cls-5" cx="87.65" cy="49.77" r="7.11"/><path class="cls-4" d="M78.91,25.51v4.08H33.33a27,27,0,0,0-3.9,14V55.65A17.17,17.17,0,0,0,46.56,72.77H70.23A15.64,15.64,0,0,0,85.82,57.18V43.58A27.06,27.06,0,0,0,78.91,25.51Z"/><circle class="cls-7" cx="39.32" cy="58.76" r="4.79"/><circle class="cls-7" cx="74.68" cy="58.76" r="4.79"/><path class="cls-8" d="M54.73,57.71a3.91,3.91,0,0,0,7.11.55"/><path class="cls-6" d="M31.4,46.38s10,2.16,15-1.29,2-13.94,9.75-15.82,9.06,5.18,9.06,5.18,6.34-4,9.61-1.44c8.12,6.25-3.09,16.8,6.23,16.45S88.9,41.2,88.9,41.2a4.12,4.12,0,0,1-3.31-1.87c-1.58-2,4.64-19.55-17.25-14.95,0,0-7.85-12.62-23.38-6.73S26.79,38.18,31.4,46.38Z"/><path class="cls-9" d="M34.22,31.19a4.31,4.31,0,0,1-2.46-.72c-2.58-1.71-2.83-5.87-2.84-6a.27.27,0,1,1,.54,0s.25,4.06,2.6,5.62a4.77,4.77,0,0,0,4.39.2c2-.72,4.25-2.74,6.61-4.87,3.72-3.36,7.57-6.83,11.49-6.23,2.29.34,4.3,2,6.15,5.15a.27.27,0,0,1-.1.37.26.26,0,0,1-.37-.09c-1.76-3-3.64-4.58-5.76-4.9-3.66-.56-7.42,2.83-11,6.11-2.4,2.16-4.67,4.21-6.79,5A7.15,7.15,0,0,1,34.22,31.19Z"/><path class="cls-9" d="M64.06,25.23h0a.27.27,0,0,1-.22-.32c0-.08,1.34-7.67-2.15-10.39-1.43-1.11-3.61-.9-5.73-.7s-3.95.39-5.07-.65a3.65,3.65,0,0,1-.92-2.9A.26.26,0,0,1,50.2,10a.28.28,0,0,1,.27.28,3.13,3.13,0,0,0,.74,2.48c.94.87,2.74.7,4.65.51,2.22-.21,4.51-.43,6.11.81C65.73,17,64.38,24.68,64.32,25A.26.26,0,0,1,64.06,25.23Z"/><path class="cls-9" d="M66.6,26.28h0a.26.26,0,0,1-.23-.3c0-.34,1.18-8.27,6.47-8.62a16.63,16.63,0,0,1,5.35.61c1.87.45,3.11.75,4.27-.52a.27.27,0,0,1,.4.36c-1.38,1.51-2.89,1.15-4.8.69a16.25,16.25,0,0,0-5.18-.6c-4.85.32-6,8.07-6,8.15A.27.27,0,0,1,66.6,26.28Z"/><path class="cls-9" d="M86.26,35.24c-2.54,0-3.24-1.59-4.1-3.52a10.71,10.71,0,0,0-4.34-5.48c-1.94-1.21-3.64-1.57-5-1.07A4.92,4.92,0,0,0,70.12,28a.27.27,0,0,1-.51-.18,5.41,5.41,0,0,1,3-3.13c1.57-.56,3.42-.19,5.52,1.11a11.41,11.41,0,0,1,4.54,5.73c1,2.26,1.67,3.75,5.27,3A.27.27,0,0,1,88,35,8.71,8.71,0,0,1,86.26,35.24Z"/><path class="cls-9" d="M37.44,38.13a6.1,6.1,0,0,1-.94-.06.26.26,0,0,1-.23-.3.27.27,0,0,1,.31-.23,10.79,10.79,0,0,0,8.06-2.77,19.71,19.71,0,0,0,3.28-4.44c1.63-2.71,3.17-5.26,6.13-4.59a.27.27,0,0,1-.12.53c-2.58-.59-4,1.7-5.55,4.34A20.32,20.32,0,0,1,45,35.17,11.17,11.17,0,0,1,37.44,38.13Z"/><path class="cls-9" d="M86.25,45.06c-1.35,0-6.17-.15-6.31-2.17A7.94,7.94,0,0,1,80.17,41c.55-2.87,1.37-7.19-3.72-9.65a.26.26,0,0,1-.13-.36.28.28,0,0,1,.36-.13c5.47,2.64,4.57,7.4,4,10.24a8.11,8.11,0,0,0-.23,1.75c.09,1.29,3.76,1.71,6,1.66a.27.27,0,0,1,.27.27.25.25,0,0,1-.26.27Z"/><circle class="cls-10" cx="48.64" cy="52.66" r="1.67"/><path class="cls-10" d="M68.48,52.66A1.68,1.68,0,1,1,66.81,51,1.67,1.67,0,0,1,68.48,52.66Z"/><polyline class="cls-11" points="57.1 47.63 57.1 51.99 60.43 50.45 58.64 54.55"/><path class="cls-4" d="M100.84,66.72c2.81-.42,1,4.42.75,6.27.85.07,1.41-.85,1.75-1.64.61-1.4,1.23-2.81,1.84-4.22.41-.94,1.24-2.08,2.21-1.71.73.28.88,1.23.84,2a10.18,10.18,0,0,1-.55,2.74l2-2c.67-.69,1.66-1.43,2.49-.94a1.49,1.49,0,0,1,.56,1.62,4.36,4.36,0,0,1-.91,1.59,8.66,8.66,0,0,1-2.6,2.55,15.13,15.13,0,0,1,3.51-1.8c.67-.24,1.53-.38,2,.17.6.73-.17,1.78-.93,2.35a18.85,18.85,0,0,1-3.41,2,3.52,3.52,0,0,1,2.34-.56,1.1,1.1,0,0,1,.59.2c.59.48,0,1.4-.52,1.92a16.58,16.58,0,0,1-5,3.62,6.1,6.1,0,0,1-8.13-3.4,10.85,10.85,0,0,1-.85-5C99.11,67.84,100.84,66.72,100.84,66.72Z"/><path class="cls-3" d="M29.69,92.65c11,0,20.41-7,20.86-7.33A4.61,4.61,0,0,0,45,77.94c-.18.13-9.48,6.9-18.16,5.22-4.15-.81-7.54-3.44-10.34-8a4.62,4.62,0,0,0-7.88,4.81c4.19,6.85,9.75,11,16.52,12.29A24.36,24.36,0,0,0,29.69,92.65Z"/><path class="cls-4" d="M14.09,65.69c-2.81-.41-1,4.42-.75,6.28-.85.06-1.4-.86-1.75-1.64-.61-1.41-1.22-2.81-1.84-4.22-.41-1-1.24-2.09-2.2-1.72-.73.28-.89,1.24-.84,2a10.24,10.24,0,0,0,.54,2.74l-2-2.05c-.68-.69-1.67-1.43-2.49-.95a1.5,1.5,0,0,0-.56,1.63,4.28,4.28,0,0,0,.9,1.59,9.15,9.15,0,0,0,2.6,2.55,14.42,14.42,0,0,0-3.51-1.81c-.66-.23-1.52-.37-2,.17-.61.73.17,1.79.93,2.35a18.21,18.21,0,0,0,3.4,2,3.56,3.56,0,0,0-2.34-.56,1.14,1.14,0,0,0-.59.21c-.59.47,0,1.4.52,1.91a16.45,16.45,0,0,0,5.05,3.62,6.09,6.09,0,0,0,8.12-3.4,10.83,10.83,0,0,0,.85-5C15.82,66.82,14.1,65.7,14.09,65.69Z"/><path class="cls-10" d="M66.42,133.69l-.5,4.78A2.94,2.94,0,0,0,68.58,142l9-.1a1.34,1.34,0,0,0,.73-2.29l-6.21-6Z"/><rect class="cls-10" x="66.63" y="133.56" width="5.77" height="1.92"/><path class="cls-10" d="M47.9,133.69l.5,4.78A2.93,2.93,0,0,1,45.75,142l-9-.1A1.34,1.34,0,0,1,36,139.6l6.2-6Z"/><path class="cls-12" d="M73.31,97.36h0a3.43,3.43,0,0,1-3.42-3.42V81a3.43,3.43,0,0,1,3.42-3.42h0A3.43,3.43,0,0,1,76.73,81v13A3.43,3.43,0,0,1,73.31,97.36Z"/><path class="cls-12" d="M40.5,97h0a3.42,3.42,0,0,1-3.42-3.41v-13a3.43,3.43,0,0,1,3.42-3.42h0a3.43,3.43,0,0,1,3.42,3.42v13A3.42,3.42,0,0,1,40.5,97Z"/><path class="cls-13" d="M49,74.7H65.31l.17,2.82-5.81,3.93-2.83-2.9-2.72,2.73-5-3.93S49,74.53,49,74.7Z"/><path class="cls-14" d="M57,82.65h0a2.4,2.4,0,0,1-2.39-2.39V78.55A2.4,2.4,0,0,1,57,76.15h0a2.4,2.4,0,0,1,2.39,2.4v1.71A2.4,2.4,0,0,1,57,82.65Z"/><polygon class="cls-14" points="56.25 81.2 51.21 92.64 57.7 98.03 63.26 92.56 57.96 81.03 56.25 81.2"/><path class="cls-15" d="M39.68,103.67S38,118,41.51,131h7.14L52,120H62.1l3.47,9.9,7.17.13s4.23-13.46,2.05-26.79C74.79,103.28,39.16,103.15,39.68,103.67Z"/><path class="cls-16" d="M49.11,110h0a1.8,1.8,0,0,1-1.79-1.79v-5.29a1.79,1.79,0,0,1,1.79-1.79h0a1.79,1.79,0,0,1,1.79,1.79v5.29A1.8,1.8,0,0,1,49.11,110Z"/><path class="cls-16" d="M66.54,109.57h0a1.79,1.79,0,0,1-1.79-1.79v-5.29a1.8,1.8,0,0,1,1.79-1.79h0a1.8,1.8,0,0,1,1.79,1.79v5.29A1.79,1.79,0,0,1,66.54,109.57Z"/><rect class="cls-17" x="37.82" y="134.94" width="5.7" height="1.33" rx="0.67"/><rect class="cls-17" x="71.49" y="136.99" width="5.7" height="1.33" rx="0.67"/><rect class="cls-17" x="36.67" y="136.99" width="5.7" height="1.33" rx="0.67"/><rect class="cls-17" x="69.82" y="134.77" width="5.7" height="1.33" rx="0.67"/></g></g></svg>