<svg width="40" height="40" viewBox="0 0 40 40" fill="none" xmlns="http://www.w3.org/2000/svg">
<path d="M20 40C31.0457 40 40 31.0457 40 20C40 8.9543 31.0457 0 20 0C8.9543 0 0 8.9543 0 20C0 31.0457 8.9543 40 20 40Z" fill="#78A941"/>
<path d="M18.8003 37.7C13.7003 37 8.60033 34.1 5.70033 29.9C5.30033 29.4 3.70033 26.2 5.90033 27C7.70033 27.7 8.80033 29.5 10.5003 30.5C15.6003 33.2 21.8003 34 26.6003 30.2C27.0003 29.9 27.3003 29.6 27.8003 29.4C29.1003 28.8 31.0003 29.6 31.3003 31C31.6003 32.3 30.1003 34.4 29.2003 35.3C28.2003 36.2 27.0003 36.8 25.7003 37.2C23.4003 37.9 21.1003 38 18.8003 37.7Z" fill="#96C658"/>
<path d="M17.8002 0.799986C16.9002 0.899986 16.0002 1.09999 15.1002 1.29999C12.8002 1.99999 10.0002 2.99999 8.10021 4.49999C6.90021 5.39999 6.00021 6.69999 5.10021 7.79999C4.30021 8.99999 3.50021 10.1 2.60021 11.2C1.90021 12.1 1.20021 13 1.00021 14.2C0.600208 16.2 2.30021 18.3 4.30021 18.8C7.40021 19.6 9.90021 17.4 12.3002 15.8C15.1002 14 18.3002 12.3 21.4002 11.2C24.8002 9.99999 28.4002 9.49999 31.9002 10.3C33.2002 10.6 34.4002 11 35.5002 11.7C37.2002 12.8 38.4002 14.6 38.9002 16.5C37.6002 11.6 35.1002 5.99999 30.3002 3.69999C26.2002 1.69999 22.3002 0.299986 17.8002 0.799986Z" fill="#8DBC50"/>
<path d="M33.2283 33.5717C33.3939 33.5326 33.5232 33.4058 33.5636 33.2432C34.8178 28.4864 33.3537 22.0506 29.3652 18.5199C30.195 12.5023 25.5677 8.34739 21.6839 7.43879V7.43859C21.4944 7.39504 21.2975 7.47414 21.1932 7.63592C21.0889 7.79771 21.1001 8.00662 21.221 8.15685C22.4053 9.43093 23.5468 12.366 22.9534 14.8443L22.9536 14.8445C22.3158 14.6498 21.6663 14.4946 21.009 14.3801C20.8353 14.3544 20.661 14.4231 20.5537 14.5599L19.5929 13.6142C19.3372 13.3627 18.9904 13.2217 18.6288 13.2217C18.2674 13.2217 17.9206 13.3627 17.6647 13.6142L13.3387 17.8722C13.0833 18.1243 12.94 18.4654 12.94 18.8213C12.94 19.177 13.0833 19.5184 13.3387 19.7703L14.2996 20.716H14.2993C14.1342 20.827 14.0445 21.0184 14.0658 21.2143C14.1821 21.8614 14.3397 22.5008 14.5376 23.1284C12.0166 23.7138 9.03436 22.5855 7.74348 21.4229V21.4231C7.60692 21.3158 7.42024 21.2944 7.26237 21.368C7.1045 21.4413 7.00264 21.5968 7 21.7688C7.83031 25.6534 12.1849 30.2704 18.2714 29.4395C21.8997 33.3511 28.2321 34.8073 33.2283 33.5717L33.2283 33.5717ZM33.0755 29.4309C33.0841 30.5502 32.9727 31.6673 32.7428 32.7635C31.6602 32.986 30.557 33.096 29.4513 33.0922C29.5079 32.1445 29.9019 31.2467 30.5645 30.5566C31.2268 29.8668 32.1152 29.4286 33.0731 29.3193C33.0735 29.356 33.0754 29.3946 33.0756 29.4309L33.0755 29.4309ZM33.038 28.4247C31.8501 28.5443 30.745 29.078 29.9218 29.9293C29.0986 30.7805 28.6116 31.8932 28.5487 33.0668C28.2433 33.0564 27.945 33.0233 27.6362 32.9935C27.7255 31.6122 28.3083 30.3063 29.2814 29.3073C30.2544 28.3082 31.5553 27.6801 32.9536 27.534C32.9954 27.8406 33.0179 28.1434 33.038 28.4246V28.4247ZM23.9505 12.2381C23.7977 11.0043 23.3872 9.8149 22.7449 8.74477C26.0981 10.045 28.871 13.6732 28.5198 17.7756C27.1161 16.6405 25.5273 15.7473 23.8205 15.1343C24.0204 14.1818 24.0642 13.2041 23.9506 12.238L23.9505 12.2381ZM13.9814 19.1372V19.137C13.8962 19.0531 13.8483 18.9395 13.8483 18.8208C13.8483 18.7022 13.8962 18.5883 13.9814 18.5044L18.3074 14.2464C18.4851 14.072 18.7724 14.072 18.9502 14.2464L19.911 15.1919L14.9422 20.0827L13.9814 19.1372ZM12.7936 27.6853C10.7833 26.6669 9.2054 24.9789 8.34095 22.9225C10.3007 24.0443 12.6099 24.4207 14.8322 23.9813C15.4549 25.6611 16.3624 27.2248 17.5155 28.6065C15.8863 28.7155 14.2569 28.3978 12.7933 27.6853H12.7936ZM20.5648 30.2564C17.6618 28.0344 15.6842 24.8447 15.0039 21.2875C15.0534 21.2394 20.9814 15.4044 21.0842 15.3026C25.7046 16.0426 31.6616 19.9799 32.8054 26.6537C31.2119 26.8141 29.7278 27.5258 28.6172 28.662C27.5067 29.7985 26.8417 31.2857 26.7407 32.8594C24.5003 32.4895 22.3826 31.5969 20.5648 30.2561V30.2564Z" fill="white"/>
<path d="M28.9902 24.8202C28.9819 23.5274 28.3459 22.3162 27.2788 21.562C26.2119 20.8078 24.8428 20.6015 23.5955 21.007L22.5482 19.9762C22.089 19.5244 21.42 19.3478 20.7928 19.5132C20.1656 19.6786 19.6758 20.1607 19.5078 20.7781C19.3397 21.3954 19.5191 22.0539 19.9781 22.5059L21.0254 23.5367C20.6423 24.6564 20.7782 25.8852 21.3973 26.8974C22.0162 27.9095 23.0558 28.6029 24.2402 28.7939C25.4246 28.9848 26.6346 28.6539 27.5491 27.8887C28.4637 27.1235 28.9906 26.0017 28.9902 24.8202L28.9902 24.8202ZM20.6211 21.8732C20.3971 21.6463 20.3116 21.3197 20.3965 21.0145C20.4811 20.7095 20.7234 20.4711 21.0334 20.3878C21.3435 20.3043 21.6751 20.3884 21.9056 20.6089L22.7251 21.4156H22.7253C22.2067 21.7375 21.7677 22.1695 21.4407 22.68L20.6211 21.8732ZM21.7178 24.8202C21.7188 23.99 22.0545 23.194 22.6508 22.6068C23.2474 22.0198 24.056 21.6895 24.8996 21.6884C29.1148 21.8462 29.1135 27.795 24.8996 27.952C24.056 27.951 23.2472 27.6207 22.6508 27.0336C22.0545 26.4465 21.7189 25.6505 21.7178 24.8202Z" fill="white"/>
<path d="M27.1719 24.8201C27.1719 24.2269 26.9324 23.6579 26.5063 23.2382C26.08 22.8188 25.5019 22.5831 24.8992 22.5831C24.2965 22.5831 23.7185 22.8188 23.2921 23.2382C22.866 23.6579 22.6266 24.2269 22.6266 24.8201C22.6266 25.4135 22.866 25.9823 23.2923 26.402C23.7184 26.8215 24.2965 27.0571 24.8992 27.0571C25.5019 27.0563 26.0794 26.8204 26.5055 26.4012C26.9314 25.9818 27.1713 25.4131 27.1719 24.8201ZM23.5356 24.8201C23.5411 24.3442 23.8022 23.9068 24.2219 23.6703C24.6415 23.4338 25.1569 23.4338 25.5765 23.6703C25.9964 23.9068 26.2573 24.3442 26.2628 24.8201C26.2573 25.2961 25.9962 25.7335 25.5765 25.97C25.1569 26.2064 24.6415 26.2064 24.2219 25.97C23.8021 25.7335 23.5411 25.2961 23.5356 24.8201Z" fill="white"/>
<path d="M15.1982 9.41636C13.4627 7.54286 9.86332 6.69623 7.39534 7.09786C6.31299 7.2213 7.84887 10.2402 8.25917 10.7L7.76019 10.5109C7.60516 10.4543 7.43107 10.4847 7.30485 10.5902C7.17884 10.6954 7.1202 10.8596 7.15165 11.0196C9.61869 20.939 19.9165 14.9695 15.1982 9.41636H15.1982ZM12.6003 14.1648C11.1113 12.6051 12.6011 11.1412 14.1844 12.6059C15.6237 14.0681 14.2841 15.6757 12.6003 14.1648ZM10.0025 14.5301C9.23633 13.6996 8.64871 12.7251 8.27511 11.6653L9.87673 12.2731L9.87653 12.2729C10.0876 12.349 10.3233 12.2622 10.4319 12.0686C10.5407 11.8751 10.4897 11.6324 10.312 11.497C9.12613 10.6249 8.30065 9.36024 7.98736 7.93613C10.5766 7.63713 16.0037 9.03244 15.4453 12.8467C14.8565 11.3909 12.6047 10.5179 11.5865 11.6082C10.4355 12.794 11.4304 14.8075 12.8446 15.4057L12.8448 15.4055C11.8089 15.5888 10.7476 15.2619 10.0027 14.5301L10.0025 14.5301Z" fill="white"/>
</svg>
