<svg width="86" height="86" viewBox="0 0 86 86" fill="none" xmlns="http://www.w3.org/2000/svg">
<circle cx="43" cy="43" r="43" fill="white"/>
<path d="M43 83C65.0914 83 83 65.0914 83 43C83 20.9086 65.0914 3 43 3C20.9086 3 3 20.9086 3 43C3 65.0914 20.9086 83 43 83Z" fill="#78A941"/>
<path d="M40.5997 78.4C30.3997 77 20.1997 71.2 14.3997 62.8C13.5997 61.8 10.3997 55.4 14.7997 57C18.3997 58.4 20.5997 62 23.9997 64C34.1997 69.4 46.5997 71 56.1997 63.4C56.9997 62.8 57.5997 62.2 58.5997 61.8C61.1997 60.6 64.9997 62.2 65.5997 65C66.1997 67.6 63.1997 71.8 61.3997 73.6C59.3997 75.4 56.9997 76.6 54.3997 77.4C49.7997 78.8 45.1997 79 40.5997 78.4Z" fill="#96C658"/>
<path d="M38.6004 4.59997C36.8004 4.79997 35.0004 5.19997 33.2004 5.59997C28.6004 6.99997 23.0004 8.99997 19.2004 12C16.8004 13.8 15.0004 16.4 13.2004 18.6C11.6004 21 10.0004 23.2 8.20042 25.4C6.80042 27.2 5.40042 29 5.00042 31.4C4.20042 35.4 7.60042 39.6 11.6004 40.6C17.8004 42.2 22.8004 37.8 27.6004 34.6C33.2004 31 39.6004 27.6 45.8004 25.4C52.6004 23 59.8004 22 66.8004 23.6C69.4004 24.2 71.8004 25 74.0004 26.4C77.4004 28.6 79.8004 32.2 80.8004 36C78.2004 26.2 73.2004 15 63.6004 10.4C55.4004 6.39997 47.6004 3.59997 38.6004 4.59997Z" fill="#8DBC50"/>
<path opacity="0.8" d="M25.3982 14.8C24.9982 14.6 24.5982 14.6 24.1982 14.6C20.9982 15 19.7982 17.8 18.3982 20.2C16.9982 23 15.7982 26 15.1982 29C15.9982 26.4 17.3982 24 18.7982 21.8C20.5982 18.8 21.9982 18.8 24.7982 17.2C25.5982 16.8 26.1982 15.8 25.7982 15C25.3982 15 25.3982 15 25.3982 14.8Z" fill="white"/>
<path opacity="0.8" d="M27.4004 13.8C26.8004 14 26.4004 14.6 26.4004 15.2C26.8004 15.6 27.4004 15.8 28.0004 15.8C28.6004 15.6 28.8004 15 28.6004 14.4C28.4004 13.8 27.8004 13.6 27.2004 13.8H27.4004Z" fill="white"/>
<path d="M57.3797 44.1128C56.3275 44.1128 55.4068 44.8308 55.164 45.8523C54.4254 49.0076 52.4829 51.7685 49.7108 53.5383C46.4329 55.6115 42.3759 56.0565 38.7438 54.7215C35.1017 53.3866 32.2891 50.4335 31.1357 46.7422C29.9824 43.0408 30.6096 39.0157 32.8455 35.8503C35.0814 32.6848 38.6629 30.733 42.5378 30.5813C46.3924 30.4296 50.0953 32.0679 52.574 35.0109C52.5942 35.0311 52.574 35.0614 52.5538 35.0614L48.6789 35.0614C47.4244 35.0614 46.4126 36.0728 46.4126 37.3268C46.4126 38.5808 47.4244 39.5922 48.6789 39.5922L57.6933 39.5922C58.098 39.5922 58.4925 39.5011 58.8365 39.309C59.5751 38.8944 60 38.1359 60 37.3268V28.2654C60 27.0113 58.9883 26 57.7338 26C56.4792 26 55.4675 27.0113 55.4675 28.2654V31.3802C55.4675 31.4106 55.427 31.4207 55.4169 31.4005C52.7662 28.5688 49.2151 26.7282 45.3706 26.182C41.4957 25.6359 37.55 26.445 34.2012 28.4676C30.8524 30.4903 28.3029 33.6051 26.9877 37.2965C25.6725 40.9777 25.6725 45.0027 26.9776 48.6941C28.3029 52.3753 30.8423 55.5003 34.1911 57.533C37.5399 59.5658 41.4755 60.3748 45.3503 59.8388C49.2252 59.3028 52.7966 57.442 55.4574 54.58C57.4808 52.3955 58.8972 49.7357 59.565 46.8737C59.8988 45.4578 58.8264 44.1128 57.3797 44.1128Z" fill="white"/>
</svg>
