<svg xmlns="http://www.w3.org/2000/svg" viewBox="0 0 120.16 160"><defs><style>.cls-1{isolation:isolate;}.cls-2,.cls-3{fill:#1e2848;}.cls-3{mix-blend-mode:multiply;opacity:0.27;}.cls-4{fill:#fff1e2;}.cls-5{fill:#343d5a;}.cls-6,.cls-8{fill:#f67300;}.cls-7{fill:#ffb43b;}.cls-8{opacity:0.4;}.cls-9{fill:#fa394a;opacity:0.35;}.cls-10{fill:#ffd5aa;opacity:0.57;}.cls-10,.cls-11{mix-blend-mode:soft-light;}.cls-11{fill:#fff;}</style></defs><g class="cls-1"><g id="Layer_2" data-name="Layer 2"><g id="Layer_1-2" data-name="Layer 1"><path class="cls-2" d="M19.75,91.54C17.89,95,6.07,157.61,14.31,159s14.63-34.49,14.63-34.49-3.78,35.18,2.45,35.18,9.67-33.5,9.67-33.5S43.25,160,47.89,160s4-35.52,4-35.52,4.58,33.78,10.39,32.43-4.23-61.26-6.13-66.82S21.45,88.39,19.75,91.54Z"/><path class="cls-3" d="M57.56,112.37a6.1,6.1,0,0,1,2.77.09c-1.7-11-3.48-20.34-4.18-22.37-1.9-5.55-34.7-1.7-36.4,1.45-.67,1.24-2.61,10.06-4.45,20.94a8.5,8.5,0,0,1,2.09-.67c3.91-.68,6.62,2.26,7.8,5.65a24.56,24.56,0,0,1,.94,3.56c2.35-4,5.74-8.13,9.77-5,2.53,2,3.1,5.85,3.48,8.85,1.16-3.69,3.8-8.85,6.28-8.85s4,5.08,4.66,7.86C50.41,123.41,53.15,113.23,57.56,112.37Z"/><path class="cls-2" d="M71.49,20.51C69.51,6,53.7-4.22,34.28,1.73S11.17,37.8,9.87,58.52,8.68,88,12.63,92,27,101,42.07,101,68.62,95.31,74,87.28,74.4,41.85,71.49,20.51Z"/><path class="cls-3" d="M6.5,85.91c3,1.06,13.69-9.54,17.56-19C28.92,54.93,16.57,44.78,7.3,54.24-.53,62.24,4.59,85.24,6.5,85.91Z"/><path class="cls-4" d="M57.68,7.93c-6.87-2.24-15.51-.74-21,4-8.6,7.41-9.61,20.6-10.24,31.17-.66,11.19-.6,25.52,7.67,34.19,14,14.73,34-9.55,41.37-22.85C75.47,43,73,32,71.8,22.78,68.89,16.4,64.65,10.2,57.68,7.93Z"/><path class="cls-5" d="M3.41,85.41c3,1.06,13.7-9.55,17.56-19,4.86-12-7.49-22.1-16.75-12.63C-3.62,61.74,1.5,84.73,3.41,85.41Z"/><path class="cls-6" d="M24.3,97.48c-2.71.18-3.3,9.29.17,9.29S27.66,97.27,24.3,97.48Z"/><path class="cls-6" d="M28.9,97.48c-2.71.18-3.3,9.29.17,9.29S32.26,97.27,28.9,97.48Z"/><path class="cls-6" d="M33.55,97.48c-2.71.18-3.31,9.29.17,9.29S36.91,97.27,33.55,97.48Z"/><path class="cls-6" d="M49.19,97.48c-2.71.18-3.3,9.29.17,9.29S52.55,97.27,49.19,97.48Z"/><path class="cls-6" d="M53.79,97.48c-2.71.18-3.3,9.29.17,9.29S57.15,97.27,53.79,97.48Z"/><path class="cls-6" d="M58.44,97.48c-2.71.18-3.31,9.29.17,9.29S61.8,97.27,58.44,97.48Z"/><path class="cls-7" d="M71.11,18.46c-1,1-5.13,5-4.17,14.78s4.88,14.54,5.47,14.54,4.43-6.59,20.13-3.45,21.85,10,25.46,8.59,4-20.13-9.61-31.36C92.61,8.6,72.26,17.32,71.11,18.46Z"/><path class="cls-2" d="M104,44.14a24.53,24.53,0,0,0,1.33,4.13c6.73,2.84,10.26,5.56,12.67,4.65,1.87-.71,2.88-6.06,1.54-12.62C112.34,37.25,101.78,34.19,104,44.14Z"/><path class="cls-8" d="M87.37,35.07c-7-.83-16-1.6-20.5-6.56a27.11,27.11,0,0,0,.07,4.73c1,9.81,4.88,14.54,5.47,14.54s4.43-6.59,20.13-3.45,21.85,10,25.46,8.59l.12-.06C112,42.51,99.25,36.48,87.37,35.07Z"/><path class="cls-9" d="M35.46,30.7c0,4.79,12.83,4.24,12.83-1S35.46,25.08,35.46,30.7Z"/><path class="cls-2" d="M45.58,28c.22-1.73,1-3.66,2.82-4.21,2.42-.72,3.42,1.73,4,3.56.32,1,1.84.55,1.52-.42-.82-2.52-2.34-5.35-5.48-4.77-2.85.54-4.13,3.22-4.46,5.84-.12,1,1.45,1,1.58,0Z"/><path class="cls-10" d="M101.61,22.79a30.74,30.74,0,0,1,11,10.07c.56.84,1.93.06,1.36-.79A32.37,32.37,0,0,0,102.4,21.43c-.89-.48-1.68.88-.79,1.36Z"/><path class="cls-10" d="M114.42,36.1a13.83,13.83,0,0,1,1.63,4.53c.18,1,1.7.58,1.52-.42a15.13,15.13,0,0,0-1.79-4.9.79.79,0,0,0-1.36.79Z"/><path class="cls-11" d="M44.13,12.68a18.58,18.58,0,0,1,7.76-1.36c1,0,1-1.53,0-1.57a19.57,19.57,0,0,0-8.18,1.41c-.93.37-.52,1.89.42,1.52Z"/><path class="cls-11" d="M55.25,12a5,5,0,0,1,2.19,1c.77.65,1.89-.46,1.11-1.11a6.82,6.82,0,0,0-2.88-1.44c-1-.22-1.41,1.3-.42,1.52Z"/><path class="cls-7" d="M49.26,101.84c0,.64.06,1.28,0,1.92a.79.79,0,0,0,1.58,0c0-.64,0-1.28-.05-1.92a.81.81,0,0,0-.79-.79.79.79,0,0,0-.78.79Z"/><path class="cls-7" d="M53.61,100.52a8.75,8.75,0,0,1,.17,1.76.79.79,0,0,0,1.57,0,9.87,9.87,0,0,0-.22-2.17.79.79,0,0,0-1-.55.81.81,0,0,0-.55,1Z"/><path class="cls-7" d="M58.3,101.16a3.09,3.09,0,0,1,.15,1.9c-.23,1,1.29,1.41,1.51.42a4.89,4.89,0,0,0-.3-3.11.79.79,0,0,0-1.08-.29.81.81,0,0,0-.28,1.08Z"/><path class="cls-7" d="M24.12,102.1a11.42,11.42,0,0,1,.11,1.85.79.79,0,0,0,1.58,0,15.77,15.77,0,0,0-.17-2.27.8.8,0,0,0-1-.55.81.81,0,0,0-.55,1Z"/><path class="cls-7" d="M28.37,100.52a3.66,3.66,0,0,1,.28,1,.82.82,0,0,0,.79.78.79.79,0,0,0,.79-.78,6.46,6.46,0,0,0-.5-1.83.79.79,0,0,0-1.08-.28.81.81,0,0,0-.28,1.08Z"/><path class="cls-7" d="M33.62,100.81a11.6,11.6,0,0,1,.1,1.77.79.79,0,0,0,1.58,0,14.88,14.88,0,0,0-.1-1.77.83.83,0,0,0-.79-.79.8.8,0,0,0-.79.79Z"/></g></g></g></svg>