<svg width="62" height="105" viewBox="0 0 62 105" fill="none" xmlns="http://www.w3.org/2000/svg">
<path d="M48.1004 49.2C54.4004 52.4 58.9004 57.6 60.6004 64.9C64.8004 81.6 53.1004 101 36.4004 103.8C24.9004 105.5 13.8004 103.9 5.60039 94.2C2.60039 90.7 0.800394 86.7 0.600394 82.1C0.300394 77.9 2.50039 74.6 6.10039 73.5C9.60039 72.5 13.2004 73.9 15.5004 77.2C15.9004 77.9 16.5004 78.6 16.7004 79.4C18.1004 84.4 24.0004 87 28.9004 86.6C38.4004 85.9 44.3004 79 43.2004 69.5C43.1004 67.9 41.8004 65.9 40.3004 65.3C36.0004 63.3 31.5004 61.4 26.9004 60.3C24.5004 59.7 21.6004 60.9 18.8004 60.9C14.8004 61 11.5004 59 10.2004 55.6C7.90039 50.1 11.6004 44.8 18.0004 43.4C22.6004 42.4 27.2004 40.7 31.5004 38.6C35.5004 36.7 37.7004 33 37.8004 28.2C37.8004 21.3 32.8004 17 25.8004 17.4C20.2004 17.8 16.0004 19.8 12.7004 24.3C10.5004 27 6.90039 27.6 3.90039 26C0.600394 24.1 -0.899606 20.1 0.600394 16.2C2.50039 11.3 5.80039 7.30001 10.2004 4.80001C21.0004 -1.09999 32.2004 -1.99999 43.3004 4.40001C55.8004 11.5 58.6004 26.6 54.1004 38.1C52.5004 41.8 50.1004 45.3 48.1004 49.2Z" fill="#F7B718"/>
</svg>
