<svg width="896" height="500" viewBox="0 0 896 500" fill="none" xmlns="http://www.w3.org/2000/svg">
<g clip-path="url(#clip0_110_2)">
<rect width="896" height="500" fill="white"/>
<rect x="-93" width="1081.78" height="500" fill="#FCF9EE"/>
<path d="M171.603 14.0187L175.033 20.9418L182.701 22.0622L177.138 27.4628L178.464 35.0467L171.603 31.4559L164.742 35.0467L166.04 27.4628L160.505 22.0622L168.173 20.9418L171.603 14.0187Z" fill="#F67300"/>
<path d="M197.902 439.252L203.138 448.014L208.402 456.776H197.902H187.374L192.638 448.014L197.902 439.252Z" fill="#F67300"/>
<path d="M39.0091 197.43L44.2661 206.192L49.5232 214.953H39.0091H28.4951L33.7521 206.192L39.0091 197.43Z" fill="#FF3612"/>
<path d="M721.907 203.655L727.164 212.416L732.421 221.178H721.907H711.393L716.65 212.416L721.907 203.655Z" fill="#FF3612"/>
<path d="M871.968 339.953L877.232 348.715L882.467 357.477H871.968H861.439L866.704 348.715L871.968 339.953Z" fill="#4B78C6"/>
<path d="M273.339 462.953L259.72 471.131C259.036 471.544 258.609 472.287 258.637 473.058C258.666 473.857 259.121 474.545 259.834 474.931L273.965 482.227C274.678 482.585 275.561 482.558 276.245 482.145C276.758 481.842 277.128 481.346 277.27 480.768C277.327 480.575 277.327 480.383 277.327 480.19L276.814 464.715C276.786 463.917 276.33 463.228 275.618 462.843C274.906 462.513 274.022 462.54 273.339 462.953Z" fill="#FF3612"/>
<path d="M839.927 446.598L826.309 454.776C825.625 455.189 825.197 455.932 825.226 456.703C825.254 457.502 825.71 458.19 826.423 458.576L840.554 465.872C841.267 466.23 842.15 466.203 842.834 465.79C843.346 465.487 843.717 464.991 843.859 464.413C843.916 464.22 843.916 464.027 843.916 463.835L843.403 448.36C843.375 447.562 842.919 446.873 842.207 446.488C841.466 446.157 840.611 446.185 839.927 446.598Z" fill="#FF3612"/>
<path d="M658.631 477.949L673.952 482.386C674.718 482.61 675.57 482.414 676.165 481.852C676.761 481.291 676.988 480.476 676.79 479.69L673.016 464.332C672.817 463.546 672.221 462.928 671.455 462.703C670.86 462.535 670.264 462.619 669.725 462.9C669.554 462.984 669.384 463.096 669.242 463.237L657.694 474.159C657.099 474.72 656.872 475.535 657.07 476.321C657.269 477.107 657.865 477.725 658.631 477.949Z" fill="#FF9090"/>
<path d="M85.0331 273.504L100.355 277.946C101.121 278.171 101.972 277.974 102.568 277.412C103.164 276.85 103.391 276.034 103.192 275.247L99.4183 259.895C99.2197 259.108 98.6238 258.489 97.8578 258.264C97.2619 258.095 96.6661 258.18 96.127 258.461C95.9568 258.545 95.7865 258.658 95.6447 258.798L84.0968 269.736C83.501 270.298 83.274 271.114 83.4726 271.901C83.6712 272.66 84.267 273.279 85.0331 273.504Z" fill="#78A941"/>
<path d="M767.93 279.729L783.251 284.171C784.017 284.396 784.868 284.199 785.464 283.637C786.06 283.075 786.287 282.259 786.088 281.472L782.315 266.12C782.116 265.332 781.52 264.714 780.754 264.489C780.158 264.32 779.563 264.405 779.023 264.686C778.853 264.77 778.683 264.883 778.541 265.023L766.993 275.961C766.397 276.523 766.17 277.339 766.369 278.126C766.568 278.885 767.164 279.504 767.93 279.729Z" fill="#78A941"/>
<path d="M862.798 238.096L875.419 241.752C876.058 241.924 876.756 241.781 877.222 241.32C877.716 240.859 877.89 240.197 877.745 239.535L874.633 226.87C874.488 226.237 873.994 225.718 873.354 225.546C872.86 225.402 872.365 225.459 871.929 225.69C871.784 225.776 871.667 225.862 871.522 225.978L862.012 234.987C861.518 235.448 861.344 236.11 861.489 236.772C861.664 237.405 862.158 237.923 862.798 238.096Z" fill="#F67300"/>
<path d="M576.333 462.181L580.97 446.867C581.194 446.098 581.026 445.244 580.464 444.647C579.93 444.049 579.087 443.793 578.328 443.992L562.931 447.579C562.144 447.749 561.526 448.347 561.301 449.116C561.132 449.713 561.188 450.311 561.469 450.852C561.554 451.023 561.666 451.194 561.807 451.336L572.568 463.064C573.102 463.662 573.945 463.918 574.704 463.718C575.462 463.548 576.109 462.978 576.333 462.181Z" fill="#65E2CB"/>
<path d="M354.086 35.7878L369.521 37.3714C370.292 37.4547 371.064 37.0936 371.533 36.4546C372.001 35.8156 372.084 34.9822 371.753 34.2598L365.386 20.0078C365.056 19.2855 364.394 18.7854 363.595 18.7021C363.016 18.6465 362.437 18.8132 361.969 19.2021C361.831 19.3133 361.693 19.4522 361.583 19.6189L352.515 32.2873C352.046 32.9263 351.963 33.7598 352.294 34.4821C352.625 35.2044 353.314 35.7045 354.086 35.7878Z" fill="#65E2CB"/>
<path d="M135.628 200.507L151.063 202.091C151.834 202.174 152.606 201.813 153.075 201.174C153.543 200.535 153.626 199.702 153.295 198.979L146.928 184.727C146.598 184.005 145.936 183.505 145.137 183.422C144.558 183.366 143.979 183.533 143.511 183.922C143.373 184.033 143.235 184.172 143.125 184.338L134.056 197.007C133.588 197.646 133.505 198.479 133.836 199.202C134.167 199.952 134.828 200.452 135.628 200.507Z" fill="#F67300"/>
<path d="M785.992 204.096L801.427 205.68C802.199 205.763 802.97 205.402 803.439 204.763C803.908 204.124 803.99 203.29 803.66 202.568L797.293 188.316C796.962 187.594 796.3 187.094 795.501 187.01C794.922 186.955 794.343 187.122 793.875 187.511C793.737 187.622 793.599 187.761 793.489 187.927L784.421 200.596C783.952 201.235 783.869 202.068 784.2 202.79C784.531 203.541 785.193 204.041 785.992 204.096Z" fill="#F67300"/>
<path d="M654.992 260.096L670.427 261.68C671.199 261.763 671.97 261.402 672.439 260.763C672.908 260.124 672.99 259.29 672.66 258.568L666.293 244.316C665.962 243.594 665.3 243.094 664.501 243.01C663.922 242.955 663.343 243.122 662.875 243.511C662.737 243.622 662.599 243.761 662.489 243.927L653.421 256.596C652.952 257.235 652.869 258.068 653.2 258.79C653.531 259.541 654.193 260.041 654.992 260.096Z" fill="#F67300"/>
<path d="M129.787 142.099L145.222 143.68C145.994 143.763 146.765 143.402 147.234 142.764C147.703 142.126 147.785 141.294 147.454 140.573L141.087 126.314C140.757 125.593 140.095 125.094 139.296 125.01C138.717 124.955 138.138 125.121 137.67 125.51C137.532 125.621 137.394 125.759 137.284 125.926L128.216 138.575C127.747 139.214 127.664 140.046 127.995 140.767C128.326 141.516 129.015 142.015 129.787 142.099Z" fill="#4B78C6"/>
<path d="M812.683 148.323L828.118 149.904C828.89 149.988 829.662 149.627 830.13 148.989C830.599 148.351 830.682 147.519 830.351 146.798L823.984 132.539C823.653 131.818 822.992 131.318 822.192 131.235C821.614 131.18 821.035 131.346 820.566 131.734C820.428 131.845 820.291 131.984 820.18 132.151L811.112 144.8C810.644 145.438 810.561 146.27 810.892 146.992C811.222 147.741 811.911 148.24 812.683 148.323Z" fill="#4B78C6"/>
<path d="M817.992 291.099L833.427 292.68C834.199 292.763 834.97 292.402 835.439 291.764C835.908 291.126 835.99 290.294 835.66 289.573L829.293 275.314C828.962 274.593 828.3 274.094 827.501 274.01C826.922 273.955 826.343 274.121 825.875 274.51C825.737 274.621 825.599 274.759 825.489 274.926L816.421 287.575C815.952 288.214 815.87 289.046 816.2 289.767C816.531 290.516 817.22 291.015 817.992 291.099Z" fill="#4B78C6"/>
<path d="M715.992 403.099L731.427 404.68C732.199 404.763 732.97 404.402 733.439 403.764C733.908 403.126 733.99 402.294 733.66 401.573L727.293 387.314C726.962 386.593 726.3 386.094 725.501 386.01C724.922 385.955 724.343 386.121 723.875 386.51C723.737 386.621 723.599 386.759 723.489 386.926L714.421 399.575C713.952 400.214 713.87 401.046 714.2 401.767C714.531 402.516 715.22 403.015 715.992 403.099Z" fill="#4B78C6"/>
<path d="M625.992 144.099L641.427 145.68C642.199 145.763 642.97 145.402 643.439 144.764C643.908 144.126 643.99 143.294 643.66 142.573L637.293 128.314C636.962 127.593 636.3 127.094 635.501 127.01C634.922 126.955 634.343 127.121 633.875 127.51C633.737 127.621 633.599 127.759 633.489 127.926L624.421 140.575C623.952 141.214 623.87 142.046 624.2 142.767C624.531 143.516 625.22 144.015 625.992 144.099Z" fill="#4B78C6"/>
<path d="M864.249 138.913L876.972 140.179C877.611 140.237 878.25 139.978 878.628 139.431C879.005 138.913 879.064 138.222 878.802 137.646L873.574 126.077C873.312 125.502 872.76 125.099 872.092 125.012C871.598 124.955 871.134 125.099 870.756 125.415C870.64 125.502 870.524 125.617 870.436 125.761L862.942 136.035C862.564 136.553 862.506 137.244 862.768 137.819C863.058 138.452 863.61 138.855 864.249 138.913Z" fill="#7F48C3"/>
<path d="M666.642 349.913L679.365 351.179C680.004 351.237 680.643 350.978 681.02 350.431C681.398 349.913 681.456 349.222 681.195 348.646L675.966 337.077C675.705 336.502 675.153 336.099 674.485 336.012C673.991 335.955 673.526 336.099 673.149 336.415C673.032 336.502 672.916 336.617 672.829 336.761L665.335 347.035C664.957 347.553 664.899 348.244 665.16 348.819C665.451 349.452 666.003 349.855 666.642 349.913Z" fill="#7F48C3"/>
<path d="M-14.2556 189.146L-1.53275 190.413C-0.893701 190.47 -0.254667 190.211 0.122953 189.664C0.500572 189.146 0.558696 188.456 0.297267 187.88L-4.93131 176.311C-5.19274 175.735 -5.74467 175.332 -6.41277 175.246C-6.90658 175.189 -7.3713 175.332 -7.74892 175.649C-7.86511 175.735 -7.98133 175.85 -8.06847 175.994L-15.5628 186.268C-15.9404 186.787 -15.9985 187.477 -15.737 188.053C-15.4465 188.686 -14.8947 189.089 -14.2556 189.146Z" fill="#7F48C3"/>
<path d="M244.405 30.5123C245.727 29.9755 247.135 31.0774 246.934 32.4617L245.095 45.2314L243.255 58.001C243.054 59.3854 241.387 60.0634 240.266 59.1876L229.949 51.2489L219.631 43.3103C218.51 42.4345 218.74 40.7111 220.091 40.1743L232.248 35.3716L244.405 30.5123Z" fill="#FF3612"/>
<path d="M465.411 459.112L477.692 465.233L489.944 471.382L478.382 478.681L466.82 485.981L466.101 472.533L465.411 459.112Z" fill="#FFAC39"/>
<path d="M752.794 445.094L765.046 451.214L777.327 457.363L765.765 464.663L754.174 471.963L753.484 458.514L752.794 445.094Z" fill="#EF7807"/>
<path d="M30.8321 270C30.8321 272.576 28.7353 274.673 26.1592 274.673C23.5831 274.673 21.4863 272.576 21.4863 270C21.4863 267.424 23.5831 265.327 26.1592 265.327C28.7653 265.327 30.8321 267.424 30.8321 270Z" fill="#FF3612"/>
<path d="M713.729 276.225C713.729 278.801 711.632 280.898 709.056 280.898C706.48 280.898 704.383 278.801 704.383 276.225C704.383 273.649 706.48 271.552 709.056 271.552C711.662 271.552 713.729 273.649 713.729 276.225Z" fill="#FF3612"/>
<path d="M881.299 292.056C881.299 294.632 879.202 296.729 876.626 296.729C874.05 296.729 871.953 294.632 871.953 292.056C871.953 289.48 874.05 287.383 876.626 287.383C879.202 287.383 881.299 289.48 881.299 292.056Z" fill="#FF3612"/>
<path d="M547.187 473.131C547.187 475.707 545.09 477.804 542.514 477.804C539.938 477.804 537.841 475.707 537.841 473.131C537.841 470.555 539.938 468.458 542.514 468.458C545.09 468.458 547.187 470.555 547.187 473.131Z" fill="#FF3612"/>
<path d="M597.42 25.701C597.42 27.642 595.857 29.2056 593.916 29.2056C591.975 29.2056 590.411 27.642 590.411 25.701C590.411 23.7599 591.975 22.1963 593.916 22.1963C595.857 22.1963 597.42 23.7599 597.42 25.701Z" fill="#FF3612"/>
<path d="M642.981 35.0467C642.981 36.9877 641.417 38.5513 639.476 38.5513C637.535 38.5513 635.972 36.9877 635.972 35.0467C635.972 33.1056 637.535 31.542 639.476 31.542C641.417 31.542 642.981 33.1056 642.981 35.0467Z" fill="#78A941"/>
<path d="M97.42 129.673C97.42 132.249 95.3232 134.346 92.7471 134.346C90.171 134.346 88.0742 132.249 88.0742 129.673C88.0742 127.097 90.171 125 92.7471 125C95.3532 125.03 97.42 127.097 97.42 129.673Z" fill="#FFAC39"/>
<path d="M780.317 135.898C780.317 138.474 778.221 140.571 775.645 140.571C773.068 140.571 770.972 138.474 770.972 135.898C770.972 133.322 773.068 131.225 775.645 131.225C778.251 131.255 780.317 133.322 780.317 135.898Z" fill="#FFAC39"/>
<path d="M869.617 75.9346C869.617 78.5107 867.521 80.6075 864.944 80.6075C862.368 80.6075 860.271 78.5107 860.271 75.9346C860.271 73.3585 862.368 71.2617 864.944 71.2617C867.521 71.2617 869.617 73.3585 869.617 75.9346Z" fill="#FFAC39"/>
<path d="M120.785 236.565C120.785 238.166 119.494 239.486 117.865 239.486C116.264 239.486 114.944 238.194 114.944 236.565C114.944 234.965 116.236 233.645 117.865 233.645C119.466 233.645 120.785 234.937 120.785 236.565Z" fill="#7F48C3"/>
<path d="M690.878 16.3551C690.878 18.2962 689.315 19.8598 687.374 19.8598C685.433 19.8598 683.869 18.2962 683.869 16.3551C683.869 14.4141 685.433 12.8505 687.374 12.8505C689.315 12.8505 690.878 14.4141 690.878 16.3551Z" fill="#FFAC39"/>
<path d="M221.252 477.804C221.252 479.092 220.204 480.14 218.916 480.14C217.628 480.14 216.579 479.092 216.579 477.804C216.579 476.516 217.628 475.467 218.916 475.467C220.204 475.467 221.252 476.516 221.252 477.804Z" fill="#65E2CB"/>
<path d="M610.271 477.22C610.271 480.108 607.931 482.477 605.014 482.477C602.125 482.477 599.757 480.137 599.757 477.22C599.757 474.331 602.096 471.963 605.014 471.963C607.931 471.963 610.271 474.302 610.271 477.22Z" fill="#34A5CF"/>
<path d="M100.925 192.757C100.925 194.698 99.3617 196.262 97.4207 196.262C95.4796 196.262 93.916 194.698 93.916 192.757C93.916 190.816 95.4796 189.252 97.4207 189.252C99.3617 189.252 100.925 190.843 100.925 192.757Z" fill="#65E2CB"/>
<path d="M820.009 240.505C820.009 242.446 818.446 244.009 816.505 244.009C814.564 244.009 813 242.446 813 240.505C813 238.564 814.564 237 816.505 237C818.446 237 820.009 238.591 820.009 240.505Z" fill="#65E2CB"/>
<path d="M880.13 408.878C880.13 410.82 878.567 412.383 876.626 412.383C874.685 412.383 873.121 410.82 873.121 408.878C873.121 406.937 874.685 405.374 876.626 405.374C878.567 405.374 880.13 406.937 880.13 408.878Z" fill="#65E2CB"/>
<path d="M28.5284 382L33.7926 390.762L39.028 399.523H28.5284H18L23.2642 390.762L28.5284 382Z" fill="#4B78C6"/>
<path d="M36.691 450.925C36.691 452.866 35.1274 454.43 33.1863 454.43C31.2453 454.43 29.6816 452.866 29.6816 450.925C29.6816 448.984 31.2453 447.421 33.1863 447.421C35.1274 447.421 36.691 448.984 36.691 450.925Z" fill="#65E2CB"/>
<path d="M880.13 184.58C880.13 186.521 878.567 188.084 876.626 188.084C874.685 188.084 873.121 186.521 873.121 184.58C873.121 182.638 874.685 181.075 876.626 181.075C878.567 181.075 880.13 182.638 880.13 184.58Z" fill="#65E2CB"/>
<path d="M326.393 479.556C326.393 481.157 325.101 482.477 323.472 482.477C321.872 482.477 320.552 481.185 320.552 479.556C320.552 477.955 321.844 476.635 323.472 476.635C325.101 476.635 326.393 477.927 326.393 479.556Z" fill="#65E2CB"/>
<path d="M288.425 438.084C290.038 438.084 291.346 436.777 291.346 435.164C291.346 433.551 290.038 432.243 288.425 432.243C286.812 432.243 285.505 433.551 285.505 435.164C285.505 436.777 286.812 438.084 288.425 438.084Z" fill="#FF9090"/>
<path d="M27.3265 167.64C27.3265 170.529 24.9869 172.897 22.0695 172.897C19.1522 172.897 16.8125 170.558 16.8125 167.64C16.8125 164.723 19.1522 162.383 22.0695 162.383C24.9869 162.383 27.3265 164.723 27.3265 167.64Z" fill="#FF3612"/>
<path d="M710.224 173.865C710.224 176.753 707.884 179.122 704.967 179.122C702.05 179.122 699.71 176.782 699.71 173.865C699.71 170.948 702.05 168.608 704.967 168.608C707.884 168.608 710.224 170.948 710.224 173.865Z" fill="#FF3612"/>
<path d="M44.8511 115.654C44.8511 117.595 43.2875 119.159 41.3465 119.159C39.4054 119.159 37.8418 117.595 37.8418 115.654C37.8418 113.713 39.4054 112.15 41.3465 112.15C43.2875 112.15 44.8511 113.713 44.8511 115.654Z" fill="#65E2CB"/>
<path d="M727.748 121.879C727.748 123.82 726.184 125.384 724.243 125.384C722.302 125.384 720.738 123.82 720.738 121.879C720.738 119.938 722.302 118.374 724.243 118.374C726.184 118.374 727.748 119.938 727.748 121.879Z" fill="#65E2CB"/>
<path d="M69.3831 166.472C69.3831 168.073 68.0913 169.393 66.4626 169.393C64.8619 169.393 63.542 168.101 63.542 166.472C63.542 164.871 64.8338 163.551 66.4626 163.551C68.0913 163.551 69.3831 164.871 69.3831 166.472Z" fill="#FF9090"/>
<path d="M832.841 385.921C832.841 387.521 831.549 388.841 829.921 388.841C828.32 388.841 827 387.549 827 385.921C827 384.32 828.292 383 829.921 383C831.549 383 832.841 384.32 832.841 385.921Z" fill="#FF9090"/>
<path d="M679.841 406.921C679.841 408.521 678.549 409.841 676.921 409.841C675.32 409.841 674 408.549 674 406.921C674 405.32 675.292 404 676.921 404C678.549 404 679.841 405.32 679.841 406.921Z" fill="#FF9090"/>
<path d="M69.3831 236.565C69.3831 238.166 68.0913 239.486 66.4626 239.486C64.8619 239.486 63.542 238.194 63.542 236.565C63.542 234.965 64.8338 233.645 66.4626 233.645C68.0632 233.645 69.3831 234.937 69.3831 236.565Z" fill="#FF9090"/>
<path d="M808.841 439.014C808.841 440.615 807.549 441.935 805.921 441.935C804.32 441.935 803 440.643 803 439.014C803 437.413 804.292 436.094 805.921 436.094C807.521 436.094 808.841 437.385 808.841 439.014Z" fill="#FF9090"/>
<path d="M752.281 242.79C752.281 244.391 750.989 245.711 749.36 245.711C747.759 245.711 746.439 244.419 746.439 242.79C746.439 241.189 747.731 239.87 749.36 239.87C750.961 239.87 752.281 241.161 752.281 242.79Z" fill="#FF9090"/>
<path d="M512.14 450.35C512.14 451.951 510.848 453.271 509.219 453.271C507.619 453.271 506.299 451.979 506.299 450.35C506.299 448.75 507.591 447.43 509.219 447.43C510.82 447.43 512.14 448.722 512.14 450.35Z" fill="#FF3612"/>
<path d="M433.869 454.439C433.869 456.38 432.305 457.944 430.364 457.944C428.423 457.944 426.859 456.38 426.859 454.439C426.859 452.498 428.423 450.935 430.364 450.935C432.305 450.935 433.869 452.498 433.869 454.439Z" fill="#65E2CB"/>
<path d="M398.823 480.724C398.823 482.325 397.531 483.645 395.902 483.645C394.301 483.645 392.981 482.353 392.981 480.724C392.981 479.124 394.273 477.804 395.902 477.804C397.531 477.804 398.823 479.124 398.823 480.724Z" fill="#FF9090"/>
<path d="M729.43 477.22C729.43 478.82 728.138 480.14 726.509 480.14C724.909 480.14 723.589 478.848 723.589 477.22C723.589 475.619 724.881 474.299 726.509 474.299C728.138 474.327 729.43 475.619 729.43 477.22Z" fill="#65E2CB"/>
<path d="M706.066 450.35C706.066 451.951 704.774 453.271 703.145 453.271C701.544 453.271 700.225 451.979 700.225 450.35C700.225 448.75 701.516 447.43 703.145 447.43C704.746 447.43 706.066 448.722 706.066 450.35Z" fill="#FF3612"/>
<path d="M642.981 449.766C642.981 451.707 641.417 453.271 639.476 453.271C637.535 453.271 635.972 451.707 635.972 449.766C635.972 447.825 637.535 446.262 639.476 446.262C641.417 446.262 642.981 447.825 642.981 449.766Z" fill="#65E2CB"/>
<path d="M327.561 52.5701C327.561 54.5112 325.997 56.0748 324.056 56.0748C322.115 56.0748 320.552 54.5112 320.552 52.5701C320.552 50.6291 322.115 49.0654 324.056 49.0654C325.997 49.0654 327.561 50.6291 327.561 52.5701Z" fill="#FF3612"/>
<path d="M407 52.5701C407 54.5112 405.436 56.0748 403.495 56.0748C401.554 56.0748 399.99 54.5112 399.99 52.5701C399.99 50.6291 401.554 49.0654 403.495 49.0654C405.436 49.0654 407 50.6291 407 52.5701Z" fill="#FF3612"/>
<path d="M479.43 43.2243C479.43 45.1653 477.867 46.729 475.926 46.729C473.985 46.729 472.421 45.1653 472.421 43.2243C472.421 41.2832 473.985 39.7196 475.926 39.7196C477.867 39.7196 479.43 41.2832 479.43 43.2243Z" fill="#EF7807"/>
<path d="M298.355 21.6122C298.355 23.2129 297.063 24.5328 295.434 24.5328C293.834 24.5328 292.514 23.241 292.514 21.6122C292.514 20.0115 293.805 18.6917 295.434 18.6917C297.063 18.6917 298.355 19.9834 298.355 21.6122Z" fill="#FFAC39"/>
<path d="M432.701 22.1963C432.701 24.1374 431.137 25.701 429.196 25.701C427.255 25.701 425.691 24.1374 425.691 22.1963C425.691 20.2553 427.255 18.6917 429.196 18.6917C431.137 18.6917 432.701 20.2553 432.701 22.1963Z" fill="#65E2CB"/>
<path d="M793.682 477.804C793.682 479.745 792.119 481.308 790.178 481.308C788.236 481.308 786.673 479.745 786.673 477.804C786.673 475.863 788.236 474.299 790.178 474.299C792.119 474.299 793.682 475.863 793.682 477.804Z" fill="#D93E4F"/>
<path d="M531.995 34.9873L530.899 19.5619C530.843 18.792 530.366 18.0771 529.635 17.7471C528.905 17.3897 528.062 17.4722 527.388 17.9121L514.297 26.5735C513.623 27.0134 513.258 27.7558 513.314 28.5532C513.342 29.1306 513.623 29.6805 514.073 30.0655C514.213 30.203 514.382 30.2855 514.55 30.368L528.764 37.1596C529.495 37.517 530.337 37.4345 531.012 36.9946C531.658 36.5271 532.051 35.7847 531.995 34.9873Z" fill="#7F48C3"/>
<path d="M341.579 441.589L357.336 444.189L373.121 446.789L363.038 459.362L352.954 471.963L347.253 456.79L341.579 441.589Z" fill="#D93E4F"/>
<path d="M442.048 119.159C441.718 118.854 441.425 118.511 441.095 118.205" stroke="#3F2732" stroke-width="1.5859" stroke-linecap="round" stroke-linejoin="round"/>
<path d="M440.141 117.252C416.771 96.265 385.656 102.849 356.938 105.798C342.418 107.284 327.322 107.924 313.424 102.781C296.898 96.6536 292.127 80.5362 308.169 69.7227C310.474 68.1682 316.42 64.8761 317.25 70.0428C318.54 78.0901 303.121 85.6344 297.521 88.332C287.61 93.133 276.593 95.3048 265.599 93.9788C237.965 90.641 195.211 41.2372 169.351 53.3767C161.882 62.9088 144.656 81.6869 135.502 80.5427C124.06 79.1124 105.944 46.2172 118.34 43.3567C128.256 41.0683 132.96 50.3489 134.072 55.2753C135.344 51.3024 139.538 43.9863 145.991 43.3567C165.537 41.4497 147.898 82.6852 115.479 88.332C89.5444 92.8495 85.6033 93.9788 86.8747 93.9788" stroke="#3F2732" stroke-width="1.5859" stroke-linecap="round" stroke-linejoin="round" stroke-dasharray="7.11 7.11"/>
<path d="M169.351 53.3683C169.043 53.4834 168.705 53.6216 168.397 53.7598" stroke="#3F2732" stroke-width="1.5859" stroke-linecap="round" stroke-linejoin="round"/>
<path d="M657.093 52.303C644.812 60.6106 631.599 67.6622 617.342 71.7161C604.637 75.3132 584.141 79.881 573.215 69.8033C568.698 65.6352 567.625 58.6122 570.73 53.2451C573.949 47.7066 585.27 46.9073 583.294 55.5575C581.346 64.1221 567.455 63.4655 561.018 62.6662C552.125 61.5528 543.712 58.2697 535.13 55.7859C515.423 50.0762 495.209 52.931 478.354 65.0643" stroke="#3F2732" stroke-width="1.5859" stroke-miterlimit="10" stroke-linecap="round" stroke-linejoin="round" stroke-dasharray="7.14 7.14"/>
<path d="M662.934 47.8971C707.717 25.4738 738.857 31.2107 762.233 43.7876C768.268 48.2727 781.158 63.785 784.429 89.9532" stroke="#3F2732" stroke-width="1.5859" stroke-miterlimit="10" stroke-linecap="round" stroke-linejoin="round" stroke-dasharray="7.14 7.14"/>
<path d="M30.6424 299.156L35.4894 283.96C35.7345 283.2 35.5609 282.344 35.0156 281.733C34.4703 281.122 33.6624 280.873 32.8712 281.051L17.4168 284.41C16.6255 284.587 15.992 285.166 15.7469 285.926C15.5624 286.517 15.6306 287.115 15.8968 287.661C15.9764 287.834 16.0841 288.007 16.2206 288.153L26.8281 299.99C27.3734 300.601 28.1813 300.85 28.9725 300.672C29.7637 300.495 30.3973 299.916 30.6424 299.156Z" fill="#FF9090"/>
<path d="M14.1035 99.2991L20.5524 87.1875L27.0286 75.1054L34.0148 86.8593L41.0009 98.6133L27.5378 98.9702L14.1035 99.2991Z" fill="#FFAC39"/>
<path d="M697 105.524L703.449 93.4122L709.925 81.3301L716.911 93.0841L723.897 104.838L710.434 105.195L697 105.524Z" fill="#FFAC39"/>
<path d="M5.92578 471.963L12.3747 459.851L18.8509 447.769L25.837 459.523L32.8231 471.277L19.36 471.634L5.92578 471.963Z" fill="#FFAC39"/>
<path d="M30.7078 18.8207C33.283 18.89 35.3226 21.0425 35.2533 23.6176C35.184 26.1928 33.0315 28.2324 30.4563 28.1631C27.8812 28.0938 25.8416 25.9413 25.9109 23.3661C25.9802 20.791 28.1327 18.7514 30.7078 18.8207Z" fill="#FF3612"/>
<path d="M27.8183 347.248C30.7057 347.326 33.0104 349.728 32.9319 352.645C32.8542 355.532 30.4517 357.837 27.5354 357.758C24.648 357.681 22.3432 355.278 22.4217 352.362C22.5002 349.445 24.902 347.17 27.8183 347.248Z" fill="#34A5CF"/>
<path d="M812.931 51.8129C813.068 50.3131 811.833 47.9272 811.285 46.4274C808.781 39.3717 801.922 35.3496 794.617 36.7812C788.409 38.0083 781.962 45.9502 786.557 51.9492C789.129 55.2896 792.285 56.619 796.434 56.4826C798.115 56.4144 800.036 56.4485 801.682 56.2099C803.98 55.835 808.575 55.4941 810.153 53.8239L812.931 51.8129Z" fill="#8AC1CE"/>
<path d="M819.242 54.5738C821.162 54.1989 823.7 51.7788 825.381 50.5517C833.269 44.8594 835.807 34.9065 831.314 26.3851C827.507 19.159 815.16 14.0803 809.33 22.0222C806.106 26.4192 805.626 30.8503 807.307 35.895C807.993 37.9401 808.679 40.3261 809.57 42.2689C810.873 44.9958 813 50.5176 815.675 51.881L819.242 54.5738Z" fill="#BAD9E2"/>
<path d="M787.792 79.8993C787.895 79.8312 787.929 79.6948 787.998 79.5926C788.101 79.4562 788.238 79.3199 788.375 79.1836C788.684 78.9109 789.095 78.6723 789.438 78.4337C790.193 77.9565 790.947 77.5475 791.702 77.0703C792.49 76.5931 793.279 76.1499 794.068 75.7068C794.891 75.2637 795.954 74.3775 796.915 74.8888C797.326 75.0933 797.395 75.5364 797.36 75.9454C797.292 76.4567 796.846 76.7294 796.4 76.968C795.989 77.1725 795.577 77.377 795.2 77.6156C794.411 78.0587 793.588 78.5018 792.799 78.9109C791.976 79.3199 791.153 79.763 790.295 80.0357C789.884 80.172 789.507 80.2743 789.095 80.3425C788.889 80.3765 788.684 80.3765 788.478 80.3425C788.306 80.3084 788.101 80.2061 787.895 80.2061C787.723 80.2402 787.689 80.0016 787.792 79.8993Z" fill="black"/>
<path d="M793.897 76.0817C797.978 84.3304 805.66 88.148 813.96 88.8638C819.584 89.3751 825.483 88.4889 830.799 86.6482C831.176 86.5119 831.554 86.3756 831.931 86.2392C833.611 85.5916 835.189 84.8417 836.698 83.9214C839.099 82.4557 841.191 80.6151 842.803 78.4336C843.317 77.6838 843.797 76.9339 844.209 76.1158C844.518 75.5023 844.792 74.8547 845.032 74.173C845.375 73.2527 845.615 72.2642 845.821 71.2757C846.884 65.2767 844.963 58.3573 839.27 55.3237C834.983 53.04 831.279 50.9267 826.306 50.4495L826.066 50.4154C825.106 50.3131 824.111 50.2791 823.083 50.2109C820.579 50.1427 818.007 50.2109 815.4 50.5517C812.622 50.8926 809.844 51.5061 807.272 52.4605C803.191 53.9262 799.555 56.244 796.983 59.5844C796.332 60.4024 795.783 61.2887 795.268 62.2431C792.971 66.5378 791.599 71.4802 793.897 76.0817Z" fill="#FAC309"/>
<path d="M845.581 75.6728C845.649 75.6045 845.649 75.6045 845.581 75.6728V75.6728Z" fill="black"/>
<path d="M827.095 80.7174C829.873 82.5921 833.406 83.8532 836.63 83.9214C839.031 82.4557 841.123 80.6151 842.734 78.4336C843.249 77.6837 843.729 76.9339 844.141 76.1158C841.123 76.6953 837.35 75.7068 834.675 74.6501C828.399 72.1278 823.769 67.0832 821.608 60.7774C820.305 56.9257 821.162 53.3467 823.049 50.2449C820.545 50.1768 817.973 50.2449 815.366 50.5858C814.886 51.5743 814.577 52.665 814.372 53.7898C812.657 64.1859 818.521 74.9228 827.095 80.7174Z" fill="black"/>
<path d="M807.032 82.5579C808.987 84.9439 811.319 87.1595 813.925 88.8637C819.55 89.375 825.449 88.4888 830.765 86.6482C828.398 85.762 826.1 84.5349 824.077 83.3419C817.561 79.4902 811.422 74.5138 808.609 67.2877C806.757 62.5498 805.763 57.1984 807.238 52.4264C803.156 53.8921 799.521 56.2099 796.949 59.5503C796.572 67.833 802.127 76.593 807.032 82.5579Z" fill="black"/>
<path d="M827.61 65.1403C831.176 70.2872 838.653 74.0366 844.998 74.173C845.341 73.2527 845.581 72.2642 845.787 71.2757C846.85 65.2767 844.929 58.3573 839.236 55.3237C834.949 53.04 831.245 50.9267 826.272 50.4495L826.032 50.4154C825.14 52.3583 824.797 54.9488 824.763 56.4826C824.729 59.4481 825.895 62.6862 827.61 65.1403Z" fill="#F9A30B"/>
<path d="M846.747 72.2641C847.741 72.1278 848.736 71.8551 849.662 71.4802C854.189 69.5714 858.167 65.9242 859.916 61.3227C866.124 44.6208 843.832 36.4403 831.965 45.6093C825.826 50.3472 823.7 56.2099 828.193 62.9588C831.725 68.3102 839.75 73.2185 846.747 72.2641Z" fill="#FAC309"/>
<path d="M839.682 60.3684C843.729 57.2325 842.288 50.8926 838.241 48.3703C833.611 45.473 827.369 50.4154 827.815 55.426C828.158 59.2095 831.142 62.0045 835.017 61.8681C837.007 61.8 838.55 61.2205 839.682 60.3684Z" fill="white"/>
<path d="M833.989 50.9948C830.422 49.6314 827.301 53.5172 829.427 56.6871C831.313 59.5162 836.081 58.63 836.321 55.0851C836.424 53.3127 835.772 51.6766 833.989 50.9948Z" fill="black"/>
<path d="M831.554 53.2104C830.833 52.1878 829.05 52.6991 829.05 53.9943C829.05 55.0169 830.045 55.9031 830.936 55.3237C831.691 54.8806 832.102 54.0284 831.554 53.2104Z" fill="white"/>
<path d="M857.996 59.0049C861.597 56.2099 860.293 50.5858 856.727 48.3361C852.611 45.7797 847.089 50.1767 847.467 54.5738C847.775 57.9141 850.416 60.4365 853.846 60.3001C855.629 60.266 857.001 59.7548 857.996 59.0049Z" fill="white"/>
<path d="M852.92 50.688C849.73 49.4951 846.952 52.9377 848.873 55.7327C850.553 58.255 854.771 57.437 854.977 54.3011C855.08 52.7332 854.531 51.3016 852.92 50.688Z" fill="black"/>
<path d="M850.759 52.6649C850.108 51.7446 848.53 52.2218 848.53 53.3807C848.53 54.301 849.387 55.0509 850.211 54.5737C850.862 54.1306 851.274 53.3807 850.759 52.6649Z" fill="white"/>
<path d="M850.999 64.6631C850.999 64.6631 844.071 67.424 839.613 64.6631C839.613 64.6631 845.272 72.8436 850.999 64.6631Z" fill="black"/>
<path d="M838.687 44.3482C838.104 44.1777 837.761 43.4279 837.453 42.9507C837.11 42.3371 836.732 41.7577 836.321 41.1782C835.498 39.9852 834.572 38.8604 833.543 37.8719C832.548 36.9175 831.417 36.1336 830.182 35.5541C829.599 35.2814 828.947 35.0769 828.33 34.9406C827.644 34.8042 826.992 34.7361 826.375 34.4293C826.135 34.293 826.032 33.8839 826.272 33.6794C827.473 32.725 829.359 33.2022 830.696 33.7476C832.205 34.327 833.509 35.2814 834.709 36.3722C835.875 37.4629 836.904 38.7241 837.761 40.0534C838.173 40.6669 838.55 41.3146 838.859 41.9963C839.133 42.6098 839.579 43.4619 839.27 44.1096C839.167 44.3141 838.893 44.4163 838.687 44.3482Z" fill="black"/>
<path d="M846.987 43.2574C846.609 42.0303 847.089 40.8032 847.57 39.6784C848.118 38.3832 848.941 37.2243 849.833 36.1335C850.691 35.0769 851.685 34.1225 852.783 33.3044C853.331 32.8954 853.914 32.4523 854.532 32.1114C854.84 31.941 855.183 31.8047 855.526 31.7024C855.904 31.5661 856.212 31.6002 856.487 31.6342C857.07 31.6342 857.481 32.4182 857.001 32.8272C856.795 32.9977 856.658 33.2022 856.384 33.3726C856.144 33.5089 855.938 33.6453 855.698 33.7816C855.183 34.1225 854.669 34.4293 854.154 34.8042C853.16 35.5541 852.234 36.5085 851.411 37.4629C850.622 38.3832 849.97 39.3716 849.387 40.4283C848.873 41.4168 848.598 42.3712 848.118 43.3596C847.878 43.9391 847.124 43.7346 846.987 43.2574Z" fill="black"/>
<path d="M855.732 31.3275C859.265 30.1004 859.882 36.2699 857.138 37.2584C853.983 38.4173 852.885 32.2819 855.732 31.3275Z" fill="#FAC309"/>
<path d="M824.66 31.3275C828.192 30.1345 828.809 36.2699 826.031 37.2924C822.911 38.4173 821.813 32.2819 824.66 31.3275Z" fill="#FAC309"/>
<path d="M703.144 257.169C703.085 257.169 702.996 257.14 702.937 257.081C702.818 256.962 702.789 256.785 702.907 256.667C711.378 247.054 708.15 238.269 705.484 233.891C704.388 232.087 703.055 230.519 701.723 229.247C699.383 230.845 696.717 231.555 694.881 230.874C693.578 230.401 692.896 229.247 692.985 227.621C693.044 226.408 693.637 225.609 694.644 225.343C696.302 224.929 699.087 226.083 701.782 228.478C702.67 227.828 703.5 227.029 704.21 226.112C705.988 223.805 708.268 218.954 703.618 212.417C698.287 204.904 698.109 198.308 698.938 194.108C699.827 189.553 701.93 186.802 702.019 186.684C702.108 186.566 702.315 186.536 702.433 186.625C702.552 186.714 702.581 186.921 702.493 187.039C702.404 187.157 694.14 198.013 704.122 212.033C708.979 218.865 706.58 223.983 704.684 226.438C703.973 227.354 703.144 228.183 702.226 228.863C703.588 230.135 704.892 231.702 706.017 233.536C708.238 237.175 712.444 246.758 703.381 257.022C703.292 257.14 703.203 257.169 703.144 257.169ZM695.384 225.876C695.177 225.876 694.97 225.905 694.762 225.935C694.022 226.112 693.607 226.704 693.548 227.65C693.459 229.011 693.992 229.928 695.059 230.312C696.539 230.845 698.968 230.312 701.219 228.833C699.087 226.97 696.895 225.876 695.384 225.876Z" fill="#2D202A"/>
<path d="M698.85 209.489C712.574 209.489 723.699 197.067 723.699 181.745C723.699 166.422 712.574 154 698.85 154C685.126 154 674 166.422 674 181.745C674 197.067 685.126 209.489 698.85 209.489Z" fill="#E74C4E"/>
<path d="M700.953 207.33C700.953 207.33 700.123 213.305 700.953 213.896C701.782 214.488 705.366 213.393 705.988 211.471C706.58 209.519 700.508 205.141 700.953 207.33Z" fill="#E42D31"/>
<path d="M706.017 158.969C706.017 158.969 717.361 162.726 717.924 172.102C718.013 173.67 711.349 166.867 703.292 163.199C689.283 156.78 700.301 156.78 706.017 158.969Z" fill="white"/>
<path d="M769.284 403.676C769.196 403.676 769.107 403.647 769.048 403.587C768.929 403.469 768.959 403.262 769.077 403.173C778.614 394.655 776.452 385.574 774.32 380.901C773.431 378.978 772.335 377.263 771.121 375.872C768.633 377.174 765.908 377.558 764.161 376.671C762.917 376.05 762.383 374.808 762.68 373.21C762.887 372.027 763.568 371.288 764.575 371.14C766.293 370.933 768.899 372.412 771.269 375.103C772.217 374.571 773.135 373.891 773.935 373.033C775.978 370.962 778.792 366.407 774.971 359.397C770.558 351.322 771.18 344.786 772.483 340.704C773.905 336.297 776.304 333.812 776.422 333.723C776.541 333.605 776.719 333.605 776.837 333.723C776.956 333.842 776.956 334.019 776.837 334.137C776.748 334.226 767.27 344.046 775.475 359.102C779.473 366.437 776.482 371.229 774.349 373.447C773.55 374.275 772.602 374.985 771.624 375.547C772.809 376.967 773.935 378.682 774.823 380.635C776.6 384.509 779.621 394.507 769.433 403.587C769.403 403.676 769.344 403.676 769.284 403.676ZM764.931 371.732C764.842 371.732 764.723 371.732 764.634 371.761C763.864 371.85 763.42 372.382 763.242 373.329C763.005 374.66 763.42 375.636 764.427 376.139C765.819 376.849 768.307 376.612 770.706 375.399C768.663 373.122 766.441 371.732 764.931 371.732Z" fill="#2D202A"/>
<path d="M798.572 331.356C800.383 316.173 790.817 302.552 777.205 300.932C763.594 299.313 751.091 310.308 749.28 325.492C747.468 340.675 757.035 354.296 770.646 355.915C784.258 357.535 796.761 346.539 798.572 331.356Z" fill="#78A941"/>
<path d="M772.987 354.014C772.987 354.014 771.447 359.811 772.217 360.521C772.987 361.202 776.659 360.551 777.489 358.687C778.288 356.854 772.809 351.796 772.987 354.014Z" fill="#78A941"/>
<path d="M783.709 306.718C783.709 306.718 794.49 311.776 793.957 321.123C793.868 322.691 788.063 315.178 780.51 310.563C767.359 302.548 778.289 303.879 783.709 306.718Z" fill="white"/>
</g>
<defs>
<clipPath id="clip0_110_2">
<rect width="896" height="500" fill="white"/>
</clipPath>
</defs>
</svg>
