<svg xmlns="http://www.w3.org/2000/svg" viewBox="0 0 130.78 130"><defs><style>.cls-1{fill:#78a941;}.cls-2{fill:#49703e;}.cls-3{fill:#648e2e;}.cls-4{opacity:0.16;}.cls-5{fill:#fff;}.cls-6{fill:#eaeaea;}.cls-7{fill:#303030;}.cls-8{fill:#edac80;}.cls-9{fill:#c9936f;}.cls-10{fill:#82bc37;}</style></defs><g id="Layer_2" data-name="Layer 2"><g id="Layer_1-2" data-name="Layer 1"><path class="cls-1" d="M27.23,45.54a10.66,10.66,0,0,1-5.6.1,12.47,12.47,0,0,1-4-2.74,69.19,69.19,0,0,0-5.82-4.57,2.89,2.89,0,0,0-1.24-.61,1.05,1.05,0,0,0-1.16.58,1.54,1.54,0,0,0,.25,1.18,83.53,83.53,0,0,0,5.22,8.78,108.42,108.42,0,0,0-13,3.88C1,52.47,0,53,0,54s.85,1.44,1.66,1.71c2,.67,4.22.35,6.33,0l7.53-1.17a85.4,85.4,0,0,0-5.46,7.73,7.41,7.41,0,0,0-1.41,3.61,1.47,1.47,0,0,0,.42,1.2,1.42,1.42,0,0,0,1,.21c1.58-.15,2.81-1.36,3.91-2.5,2.67-2.77,5.44-5.58,9-7.15,5.16-2.29,11.09-1.55,16.7-2.14,2.72-.28,5.59-1,7.38-3.05A9.61,9.61,0,0,0,48.8,49a9.49,9.49,0,0,0,.53-4.18,4.88,4.88,0,0,0-2.1-3.54c-2.43-1.5-5.88-.23-8.29.73A70.77,70.77,0,0,1,27.23,45.54Z"/><path class="cls-2" d="M15.23,46.23c1.48,2.81.13,1.91-.35,2-1.49-2.3-4-6.35-5.22-8.78a1.54,1.54,0,0,1-.25-1.18.94.94,0,0,1,.74-.57A84.78,84.78,0,0,0,15.23,46.23Z"/><path class="cls-3" d="M9,64.21a1.23,1.23,0,0,0,.41.83,1.4,1.4,0,0,0,1,.21c1.57-.15,2.81-1.36,3.91-2.5,2.67-2.77,5.44-5.58,9-7.15,5.16-2.29,11.09-1.55,16.7-2.14,2.71-.28,5.59-1,7.38-3.05A9.61,9.61,0,0,0,49.15,47c.08-.25.16-.51.23-.76A11.27,11.27,0,0,1,48.8,49,9.61,9.61,0,0,1,47,52.44c-1.79,2.06-4.66,2.77-7.38,3.05-5.61.59-11.54-.15-16.7,2.14-3.51,1.57-6.28,4.38-9,7.15-1.1,1.14-2.33,2.35-3.91,2.5a1.42,1.42,0,0,1-1-.21,1.47,1.47,0,0,1-.42-1.2A4.75,4.75,0,0,1,9,64.21Z"/><path class="cls-2" d="M0,54a1.54,1.54,0,0,1,.67-1.17A3,3,0,0,0,2,53.64c2,.67,4.22.35,6.33,0l7.53-1.16c2.75-.9.21,1.27-.35,2L8,55.7c-2.11.32-4.31.64-6.33,0C.85,55.4,0,54.81,0,54Z"/><g class="cls-4"><path class="cls-5" d="M19.86,46.38c1.32,1.08,3.22,1.07,4.89.76a20.29,20.29,0,0,1,5-.75c.45,0,1,.24,1,.68a.84.84,0,0,1-.32.61,5.08,5.08,0,0,1-3,1.15,15.13,15.13,0,0,1-8.58-1.49,4.21,4.21,0,0,1-1.38-1c-.49-.56-.21-1.38.59-1.27S19.35,46,19.86,46.38Z"/></g><g class="cls-4"><path class="cls-5" d="M14.46,41.05l1.92,2.15a1.26,1.26,0,0,1,.3.46.42.42,0,0,1-.17.48.5.5,0,0,1-.36,0,2.34,2.34,0,0,1-.81-.63l-1.91-2.08c-.24-.25-.64-1-.17-1.13S14.24,40.81,14.46,41.05Z"/></g><path class="cls-1" d="M103.13,37.52a10.7,10.7,0,0,0,4.76-3,12.59,12.59,0,0,0,1.88-4.47,68.64,68.64,0,0,1,2.41-7,3.15,3.15,0,0,1,.72-1.19,1.06,1.06,0,0,1,1.29-.13,1.56,1.56,0,0,1,.43,1.12A87,87,0,0,1,115,33.12a106.6,106.6,0,0,1,13-3.74c.91-.21,2.07-.3,2.59.48a2.08,2.08,0,0,1-.46,2.34c-1.34,1.66-3.36,2.58-5.31,3.45l-7,3.09a84,84,0,0,1,8.76,3.55,7.32,7.32,0,0,1,3.15,2.27,1.4,1.4,0,0,1,.29,1.23,1.37,1.37,0,0,1-.72.72c-1.4.72-3.1.38-4.64,0-3.74-.88-7.59-1.75-11.39-1.16-5.58.86-10.16,4.69-15.2,7.24-2.44,1.22-5.24,2.18-7.86,1.42a11.44,11.44,0,0,1-6.09-5.15A4.89,4.89,0,0,1,84,44.76c1.22-2.58,4.81-3.38,7.37-3.87A71.76,71.76,0,0,0,103.13,37.52Z"/><path class="cls-2" d="M113.59,31.6c.27,3.17.92,1.68,1.39,1.52,0-2.74-.1-7.48-.36-10.21a1.56,1.56,0,0,0-.43-1.12.93.93,0,0,0-.93-.08A85.94,85.94,0,0,1,113.59,31.6Z"/><path class="cls-3" d="M128.54,43.36a1.21,1.21,0,0,1,.11.91,1.41,1.41,0,0,1-.72.72c-1.4.73-3.1.38-4.64,0-3.74-.88-7.6-1.75-11.39-1.16-5.58.86-10.17,4.69-15.21,7.24-2.43,1.22-5.23,2.18-7.85,1.42a9.56,9.56,0,0,1-3.38-1.92c-.21-.16-.4-.34-.6-.51a11.58,11.58,0,0,0,2,2A9.65,9.65,0,0,0,90.23,54c2.62.76,5.42-.2,7.86-1.43,5-2.54,9.62-6.37,15.2-7.23,3.8-.59,7.65.28,11.39,1.16,1.54.36,3.24.71,4.64,0a1.37,1.37,0,0,0,.72-.72,1.4,1.4,0,0,0-.29-1.23A4.6,4.6,0,0,0,128.54,43.36Z"/><path class="cls-2" d="M130.57,29.86a1.48,1.48,0,0,0-1.19-.61,3,3,0,0,1-.67,1.43c-1.33,1.66-3.36,2.58-5.31,3.45l-7,3.09c-2.8.74.52,1.18,1.4,1.52l7-3.09c2-.87,4-1.79,5.31-3.45A2.08,2.08,0,0,0,130.57,29.86Z"/><path class="cls-1" d="M33.46,18.64a14.52,14.52,0,0,1-1.34-8.79,9.86,9.86,0,0,1,5.54-6.57c7.2-3.63,12.41,3.08,13.5,4.39a49,49,0,0,1,3.29,4.44,6.9,6.9,0,0,1,1.43,3.68,6,6,0,0,1-.77,2.59,17.58,17.58,0,0,1-11.79,9.2C38.79,28.53,35,22.11,33.46,18.64Z"/><path class="cls-2" d="M45.93,11a5.34,5.34,0,1,1-6.44-3.94A5.33,5.33,0,0,1,45.93,11Z"/><path class="cls-5" d="M45.53,10.05a5.37,5.37,0,1,1-6.48-4A5.37,5.37,0,0,1,45.53,10.05Z"/><path class="cls-6" d="M43.08,6.71A5.37,5.37,0,0,1,36,14.5a5.37,5.37,0,0,0,9.54-4.45A5.31,5.31,0,0,0,43.08,6.71Z"/><path class="cls-7" d="M43.93,10.84a3.42,3.42,0,1,1-4.12-2.53A3.42,3.42,0,0,1,43.93,10.84Z"/><path class="cls-5" d="M38.07,11A1.69,1.69,0,0,0,38,12.16a.8.8,0,0,0,.44.51.46.46,0,0,0,.59-.19.81.81,0,0,0,0-.41,2.07,2.07,0,0,1,.18-1.18c.16-.27.43-.53.35-.83a.24.24,0,0,0-.08-.15c-.11-.09-.27,0-.4,0A1.81,1.81,0,0,0,38.07,11Z"/><path class="cls-5" d="M40.23,9.22a.22.22,0,0,0-.22.14.37.37,0,0,0,.14.44.59.59,0,0,0,.47.07.71.71,0,0,0,.55-.52.23.23,0,0,0,0-.2A.28.28,0,0,0,41,9.07a1,1,0,0,0-.94.13Z"/><path class="cls-3" d="M54.44,12.11a49,49,0,0,0-3.29-4.44c-1-1.23-5.68-7.23-12.22-4.94a11,11,0,0,0,1.37,0,9,9,0,0,1,3.46.87A12.18,12.18,0,0,1,47.81,7a18.8,18.8,0,0,1,4,9.38,15.73,15.73,0,0,1,3.51-2.8A13.8,13.8,0,0,0,54.44,12.11Z"/><path class="cls-1" d="M75.2,6.85A14.53,14.53,0,0,1,81.59.68a9.87,9.87,0,0,1,8.57.72C97.28,5.19,94.82,13.31,94.38,15a48.06,48.06,0,0,1-1.72,5.25,6.86,6.86,0,0,1-2.18,3.29,5.91,5.91,0,0,1-2.56.87A17.58,17.58,0,0,1,73.6,20.06C70.21,16.92,73.27,10.14,75.2,6.85Z"/><circle class="cls-2" cx="84.59" cy="9.12" r="5.34"/><path class="cls-5" d="M89.18,11.73a5.36,5.36,0,1,1-.51-7.57A5.37,5.37,0,0,1,89.18,11.73Z"/><path class="cls-6" d="M90.49,7.81a5.43,5.43,0,0,1-1.06,1.86A5.36,5.36,0,0,1,80,6.53,5.37,5.37,0,1,0,90.49,7.81Z"/><circle class="cls-7" cx="85.04" cy="8.64" r="3.42"/><path class="cls-5" d="M84.09,6.2a1.69,1.69,0,0,0-1,.61.84.84,0,0,0-.17.65.48.48,0,0,0,.51.37.88.88,0,0,0,.35-.2,2.06,2.06,0,0,1,1.07-.54c.31,0,.68,0,.89-.19a.31.31,0,0,0,.06-.16c0-.14-.12-.24-.23-.32A1.89,1.89,0,0,0,84.09,6.2Z"/><path class="cls-5" d="M86.8,6.93a.24.24,0,0,0-.25-.1.38.38,0,0,0-.27.37.61.61,0,0,0,.21.43.68.68,0,0,0,.74.14.26.26,0,0,0,.15-.14.32.32,0,0,0,0-.14,1,1,0,0,0-.64-.69Z"/><path class="cls-3" d="M92.65,20.2A48.06,48.06,0,0,0,94.37,15c.42-1.55,2.61-8.82-3-12.82a11.63,11.63,0,0,0,.77,1.12A8.76,8.76,0,0,1,93.4,6.58,11.94,11.94,0,0,1,93,11.85a18.89,18.89,0,0,1-5.34,8.68c1.48,0,1.24,4.44,2.65,4.91C90.56,24.93,92.44,20.73,92.65,20.2Z"/><path class="cls-8" d="M44.16,120.1a6.72,6.72,0,0,0,.36,2.41,5.75,5.75,0,0,0,1.63,2A21.64,21.64,0,0,0,60,130c24.36,0,29.08-8.45,29.33-9.12a3.86,3.86,0,0,0,.11-1.79q-.72-8-1.43-16c-.26-2.82-.54-5.73-2-8.18-3-5.18-9.82-6.47-15.8-6.78S58.12,88,52.74,90.59C40.77,96.36,43.88,109.21,44.16,120.1Z"/><path class="cls-9" d="M89.36,120.49a3.86,3.86,0,0,0,.11-1.79l-.93-10.42A13.42,13.42,0,0,0,85.89,107a64.22,64.22,0,0,0-16.55-3.36,52,52,0,0,0-14.48.27c-3.69.71-8.46,2.26-11.26,5.08,0,2.18.21,4.4.35,6.58a7.87,7.87,0,0,0,3.95,1.27l32,3.79A25.87,25.87,0,0,1,86.52,122a11.66,11.66,0,0,1,1.19.56A6.91,6.91,0,0,0,89.36,120.49Z"/><path class="cls-1" d="M36.87,27.67C40,16.31,50.44,11.37,54.11,10.42c9.12-2.36,26.18-.81,33.19,6.78,14.8,16,14.15,79.21,13.79,81-1.26,6.19-7.11,9.89-12.65,12a61.85,61.85,0,0,1-37.63,2c-5.27-1.37-13.28-3.45-17.41-7.5-1.85-1.83-1.32-5.57-1.41-8.12-.14-4-.11-8,0-11.93C32.38,75.66,33.34,40.58,36.87,27.67Z"/><path class="cls-3" d="M87.34,17.3c-3-3.26-7.9-5.41-13.2-6.6a18.55,18.55,0,0,1,5.54,4c14.8,16,14.15,79.21,13.79,81-1.25,6.2-7.11,9.9-12.64,12a61.85,61.85,0,0,1-37.63,2l-3.49-.93a76.1,76.1,0,0,0,11.14,3.55,61.93,61.93,0,0,0,37.63-2c5.54-2.13,11.39-5.83,12.65-12C101.49,96.51,102.14,33.32,87.34,17.3Z"/><path class="cls-7" d="M47.63,28.76a.37.37,0,0,1-.29-.14,8.44,8.44,0,0,1-.53-.75.37.37,0,0,1,.63-.39,8.15,8.15,0,0,0,.49.68.38.38,0,0,1-.07.52A.34.34,0,0,1,47.63,28.76Z"/><path class="cls-7" d="M65.58,36.87h-.26A.36.36,0,0,1,65,36.5a.37.37,0,0,1,.37-.37h.25c.52,0,1,0,1.56,0a.38.38,0,0,1,.39.35.37.37,0,0,1-.35.39C66.65,36.86,66.12,36.87,65.58,36.87ZM63.5,36.8h0c-.62,0-1.24-.12-1.84-.21a.37.37,0,0,1-.32-.42.37.37,0,0,1,.42-.31c.59.08,1.19.15,1.8.2a.37.37,0,0,1,.34.39A.38.38,0,0,1,63.5,36.8ZM69,36.68a.37.37,0,0,1-.37-.33.36.36,0,0,1,.32-.41c.61-.08,1.2-.17,1.78-.28a.38.38,0,0,1,.44.29.36.36,0,0,1-.29.43c-.6.12-1.22.22-1.84.29Zm-9.1-.41H59.8q-.91-.21-1.8-.48a.37.37,0,0,1,.22-.71c.57.17,1.15.33,1.74.46a.37.37,0,0,1,.28.44A.37.37,0,0,1,59.88,36.27ZM72.56,36a.36.36,0,0,1-.35-.27.37.37,0,0,1,.25-.46c.59-.16,1.16-.35,1.71-.56a.37.37,0,0,1,.48.22.37.37,0,0,1-.22.48c-.57.21-1.16.41-1.77.58Zm-16.17-.78a.32.32,0,0,1-.14,0c-.58-.23-1.15-.48-1.7-.76a.37.37,0,1,1,.33-.66c.53.26,1.09.51,1.64.73a.37.37,0,0,1-.13.72Zm19.6-.5a.39.39,0,0,1-.34-.21.37.37,0,0,1,.18-.5c.54-.26,1.07-.54,1.58-.85a.37.37,0,0,1,.51.13.39.39,0,0,1-.13.51c-.53.31-1.08.61-1.64.88A.32.32,0,0,1,76,34.69ZM53.11,33.56a.45.45,0,0,1-.19-.05c-.53-.32-1.05-.67-1.55-1a.37.37,0,1,1,.44-.6c.48.35,1,.68,1.49,1a.37.37,0,0,1,.13.51A.36.36,0,0,1,53.11,33.56Zm26-.76a.37.37,0,0,1-.22-.67A16.69,16.69,0,0,0,80.28,31a.39.39,0,0,1,.53,0,.37.37,0,0,1,0,.52,18.18,18.18,0,0,1-1.44,1.19A.36.36,0,0,1,79.12,32.8Zm-29-1.39a.38.38,0,0,1-.25-.09q-.7-.63-1.35-1.29a.39.39,0,0,1,0-.53.38.38,0,0,1,.53,0c.41.42.84.84,1.3,1.24a.37.37,0,0,1,0,.52A.41.41,0,0,1,50.16,31.41Zm31.67-1.07a.38.38,0,0,1-.25-.09.36.36,0,0,1,0-.52c.4-.45.78-.92,1.13-1.4a.37.37,0,0,1,.6.44,16.24,16.24,0,0,1-1.18,1.45A.36.36,0,0,1,81.83,30.34Z"/><path class="cls-7" d="M84,27.37a.39.39,0,0,1-.18,0,.37.37,0,0,1-.14-.51c.25-.46.37-.74.37-.74a.39.39,0,0,1,.49-.21.37.37,0,0,1,.2.49s-.13.32-.41.82A.37.37,0,0,1,84,27.37Z"/><path class="cls-2" d="M59.31,19A5.1,5.1,0,0,0,60.26,22a17.31,17.31,0,0,0,.55-3.19,4.91,4.91,0,0,0-.71-3.12C59.35,16.05,59.29,18.28,59.31,19Z"/><path class="cls-2" d="M67.14,19a5.1,5.1,0,0,0,1,2.93,17.31,17.31,0,0,0,.55-3.19,4.91,4.91,0,0,0-.71-3.12C67.18,16.05,67.12,18.28,67.14,19Z"/><g class="cls-4"><path class="cls-5" d="M109.78,34.24c-.54,1.62-2.13,2.64-3.71,3.29a19.62,19.62,0,0,0-4.64,2.09c-.36.27-.72.74-.48,1.12a.87.87,0,0,0,.6.34,5.14,5.14,0,0,0,3.12-.64,15.28,15.28,0,0,0,6.41-5.9,4.42,4.42,0,0,0,.63-1.56c.11-.74-.57-1.27-1.18-.75S110,33.62,109.78,34.24Z"/></g><g class="cls-4"><path class="cls-5" d="M111.43,26.84,111,29.68a1.14,1.14,0,0,0,0,.55.41.41,0,0,0,.4.31.5.5,0,0,0,.3-.2,2.13,2.13,0,0,0,.34-1c.16-.93.32-1.86.49-2.79.06-.34,0-1.15-.48-1S111.48,26.51,111.43,26.84Z"/></g><path class="cls-2" d="M54.49,64.5a17.4,17.4,0,0,0-1.81,5.22,31.72,31.72,0,0,0-.8,8.51,25.77,25.77,0,0,0,3.65,11.38A15.37,15.37,0,0,0,60,94.71a16.79,16.79,0,0,0,7.19,2.35,14,14,0,0,0,6.41-.3,11.72,11.72,0,0,0,5.63-4.66c3.44-5,4.34-11.28,4.66-17.31a25.85,25.85,0,0,0-.63-8.6A9.22,9.22,0,0,0,81.64,63a10,10,0,0,0-2.71-2.21C71.94,56.57,59.07,56.74,54.49,64.5Z"/><path class="cls-10" d="M52.05,62.05a17.4,17.4,0,0,0-1.81,5.22,31.72,31.72,0,0,0-.8,8.51,25.77,25.77,0,0,0,3.65,11.38,15.37,15.37,0,0,0,4.45,5.1,16.79,16.79,0,0,0,7.19,2.35,14,14,0,0,0,6.41-.3,11.72,11.72,0,0,0,5.63-4.66c3.44-5,4.34-11.28,4.66-17.31a25.85,25.85,0,0,0-.63-8.6,9.14,9.14,0,0,0-1.6-3.23,10,10,0,0,0-2.71-2.21C69.5,54.12,56.63,54.29,52.05,62.05Z"/><path class="cls-7" d="M68.73,93.39a.34.34,0,0,1-.34-.3.34.34,0,0,1,.3-.37,8.2,8.2,0,0,0,1.85-.4c.28-.1.57-.22.85-.35a.34.34,0,0,1,.45.15.34.34,0,0,1-.15.46,7.28,7.28,0,0,1-.93.38,8.77,8.77,0,0,1-2,.43Zm-2.93,0h0l-1-.12c-.7-.09-1.33-.2-1.91-.32a.35.35,0,0,1-.27-.4.34.34,0,0,1,.4-.26c.57.12,1.18.22,1.87.31l1,.12a.33.33,0,0,1,.3.37A.34.34,0,0,1,65.8,93.37ZM60.1,92.1a.31.31,0,0,1-.13,0,11,11,0,0,1-1.93-1,8.33,8.33,0,0,1-.67-.5.34.34,0,0,1-.06-.47.35.35,0,0,1,.48-.06,7.36,7.36,0,0,0,.63.47,11,11,0,0,0,1.81,1,.34.34,0,0,1,.18.44A.34.34,0,0,1,60.1,92.1Zm13.82-1.17a.34.34,0,0,1-.24-.11.34.34,0,0,1,0-.48A13.34,13.34,0,0,0,75.5,88.2l0,0a.33.33,0,0,1,.47-.08.35.35,0,0,1,.09.47l0,0a14.26,14.26,0,0,1-1.9,2.25A.37.37,0,0,1,73.92,90.93ZM55.55,88.52a.37.37,0,0,1-.27-.13,22.49,22.49,0,0,1-1.4-2.1l-.23-.4a.34.34,0,0,1,.59-.33l.22.38a18.79,18.79,0,0,0,1.36,2,.36.36,0,0,1-.06.48A.35.35,0,0,1,55.55,88.52Zm21.71-2.38a.32.32,0,0,1-.14,0,.34.34,0,0,1-.16-.45A23,23,0,0,0,78,83a.33.33,0,0,1,.42-.22.34.34,0,0,1,.22.43A23.68,23.68,0,0,1,77.57,86,.34.34,0,0,1,77.26,86.14Zm-24.62-2.7a.35.35,0,0,1-.31-.2,26.09,26.09,0,0,1-1-2.8.34.34,0,1,1,.65-.19A22.19,22.19,0,0,0,53,83a.34.34,0,0,1-.18.44A.35.35,0,0,1,52.64,83.44Zm26.47-2.85H79a.33.33,0,0,1-.26-.4c.19-.89.36-1.86.49-2.86a.34.34,0,0,1,.38-.29.33.33,0,0,1,.29.38c-.13,1-.3,2-.5,2.91A.35.35,0,0,1,79.11,80.59ZM51,77.82a.33.33,0,0,1-.33-.28c-.09-.6-.16-1.2-.19-1.79,0-.39,0-.78,0-1.18a.34.34,0,0,1,.33-.34h0a.33.33,0,0,1,.33.33c0,.39,0,.77,0,1.15,0,.57.1,1.15.19,1.72a.35.35,0,0,1-.29.39Zm28.89-3h0a.35.35,0,0,1-.32-.37c.05-.59.09-1.19.12-1.85,0-.35,0-.71,0-1.06a.35.35,0,0,1,.35-.33.34.34,0,0,1,.33.35c0,.36,0,.72,0,1.07,0,.67-.07,1.28-.12,1.88A.34.34,0,0,1,79.91,74.79ZM51,72h0a.34.34,0,0,1-.3-.37c.11-.92.26-1.88.46-2.92a.34.34,0,1,1,.66.13c-.2,1-.34,2-.44,2.87A.34.34,0,0,1,51,72Zm29.11-3a.34.34,0,0,1-.34-.32,17.17,17.17,0,0,0-.36-2.85.34.34,0,0,1,.66-.15,18.5,18.5,0,0,1,.38,3,.34.34,0,0,1-.32.36Zm-28-2.7-.1,0a.34.34,0,0,1-.23-.42A12.21,12.21,0,0,1,52.93,63a.34.34,0,0,1,.46-.12.34.34,0,0,1,.12.47A12.08,12.08,0,0,0,52.41,66,.34.34,0,0,1,52.09,66.23Zm26.65-3a.33.33,0,0,1-.3-.18A6.34,6.34,0,0,0,76.66,61a.35.35,0,0,1,0-.48.33.33,0,0,1,.47,0,7.6,7.6,0,0,1,1.18,1.15A6.8,6.8,0,0,1,79,62.77a.33.33,0,0,1-.14.45A.32.32,0,0,1,78.74,63.26ZM55,61.3a.36.36,0,0,1-.25-.11.34.34,0,0,1,0-.48A11.81,11.81,0,0,1,57.21,59a.34.34,0,1,1,.33.59,11.6,11.6,0,0,0-2.3,1.67A.33.33,0,0,1,55,61.3Zm19.37-1.8a.28.28,0,0,1-.15,0,17.33,17.33,0,0,0-2.68-1,.34.34,0,1,1,.19-.65,18.77,18.77,0,0,1,2.79,1.06.34.34,0,0,1-.15.65ZM60.07,58.44a.33.33,0,0,1-.32-.24.33.33,0,0,1,.22-.42,17.76,17.76,0,0,1,2.92-.64.34.34,0,0,1,.38.29.35.35,0,0,1-.29.38,16.67,16.67,0,0,0-2.81.62Zm8.71-.6h0a21.34,21.34,0,0,0-2.88-.21.34.34,0,0,1-.33-.34.34.34,0,0,1,.34-.34,22.7,22.7,0,0,1,3,.22.34.34,0,0,1,0,.67Z"/><g class="cls-4"><path class="cls-5" d="M39.81,29.44a4.53,4.53,0,0,0,.51,2.67,1.89,1.89,0,0,0,2.39.76,2.18,2.18,0,0,0,.75-.84c.86-1.5.93-3.3,1.4-5,.93-3.32,3.39-5.95,5.84-8.37.59-.59,1.2-1.56.61-2.15a1.36,1.36,0,0,0-.59-.29c-3.17-.91-5.69,1.64-7.47,3.94A16.53,16.53,0,0,0,39.81,29.44Z"/></g><g class="cls-4"><path class="cls-5" d="M52.16,14.21a2.68,2.68,0,0,0,2.5.44c.37-.15.67-.41,1-.59A9.44,9.44,0,0,1,58,13.4,2.65,2.65,0,0,0,59.88,12a.78.78,0,0,0-.14-.9,1,1,0,0,0-.5-.15,11.46,11.46,0,0,0-5.11,1.08C53.65,12.26,51.13,13.49,52.16,14.21Z"/></g></g></g></svg>