<svg width="82" height="131" viewBox="0 0 82 131" fill="none" xmlns="http://www.w3.org/2000/svg">
<path d="M54.565 130.474C54.5129 130.487 54.4551 130.494 54.3966 130.494C54.338 130.494 54.2803 130.487 54.2281 130.474C54.1833 130.452 54.1476 130.426 54.1233 130.397C54.099 130.369 54.0865 130.338 54.0865 130.307C54.0865 130.276 54.099 130.245 54.1233 130.216C54.1476 130.188 54.1833 130.162 54.2281 130.14C61.1309 126.262 63.2723 122.546 63.1448 119.363C63.0172 116.177 60.6147 113.525 58.4399 111.779C56.7405 110.399 54.6656 109.14 52.2738 108.04C50.737 108.658 48.9405 109.096 47.0163 109.325C45.0921 109.553 43.0891 109.564 41.1545 109.359C40.1089 109.16 39.2317 108.79 38.6681 108.31C38.1044 107.831 37.888 107.27 38.0546 106.722C38.011 106.309 38.2549 105.901 38.7457 105.567C39.2364 105.233 39.9441 104.992 40.7502 104.885C43.4795 104.535 47.9946 105.486 52.3749 107.423C53.8574 106.854 55.1729 106.185 56.2835 105.436C59.1812 103.567 63.0224 99.6443 55.34 94.3698C52.0559 92.3014 49.6793 89.9162 48.3622 87.3668C47.0452 84.8175 46.8167 82.16 47.6913 79.5643C48.4535 77.4053 50.1804 75.3579 52.7455 73.5721C52.7866 73.5475 52.8381 73.5278 52.8964 73.5143C52.9546 73.5007 53.0181 73.4937 53.0825 73.4937C53.1468 73.4937 53.2103 73.5007 53.2686 73.5143C53.3268 73.5278 53.3783 73.5475 53.4194 73.5721C53.512 73.6189 53.5639 73.6818 53.5639 73.7473C53.5639 73.8129 53.512 73.8758 53.4194 73.9226C53.4194 74.006 39.9415 82.8025 56.0476 94.1361C63.9996 99.661 60.0573 103.801 56.9911 105.82C55.8301 106.548 54.495 107.204 53.0151 107.773C55.3865 108.891 57.4486 110.159 59.1475 111.545C61.08 113.007 63.8642 115.822 63.9951 119.363C64.1152 122.615 61.9993 126.479 54.9357 130.474C54.816 130.495 54.6847 130.495 54.565 130.474ZM41.9632 105.153C41.6282 105.127 41.2874 105.127 40.9524 105.153C40.3507 105.234 39.8254 105.417 39.4683 105.67C39.1111 105.923 38.9447 106.23 38.9981 106.538C38.8347 106.985 38.9909 107.446 39.4399 107.842C39.8888 108.238 40.6024 108.544 41.4578 108.708C43.2182 108.877 45.0315 108.858 46.7754 108.651C48.5192 108.443 50.1529 108.053 51.5662 107.506C48.9675 106.225 45.5959 105.399 41.9632 105.153Z" fill="#7F48C3"/>
<path d="M41 81.1743C63.2984 81.1743 81.3749 63.1133 81.3749 40.834C81.3749 18.5546 63.2984 0.493652 41 0.493652C18.7016 0.493652 0.625092 18.5546 0.625092 40.834C0.625092 63.1133 18.7016 81.1743 41 81.1743Z" fill="#7F48C3"/>
<path d="M44.4233 77.995C44.4233 77.995 43.0808 86.6629 44.4233 87.5327C46.027 87.7917 47.6812 87.5884 49.1472 86.9522C50.6131 86.3161 51.8149 85.28 52.5788 83.9936C53.5521 81.1742 43.7185 74.8458 44.4233 77.995Z" fill="#7F48C3"/>
<path d="M52.646 7.75167C52.646 7.75167 71.105 13.2404 72.0112 26.8271C72.0112 29.1065 61.3385 19.2389 48.2158 13.8702C25.4609 4.54245 43.3494 4.57244 52.646 7.75167Z" fill="#7F48C3"/>
</svg>
