<svg width="150" height="84" viewBox="0 0 150 84" fill="none" xmlns="http://www.w3.org/2000/svg">
<path opacity="0.35" d="M150 0H0V83.71H150V0Z" fill="black"/>
<path d="M88.6 34.3018H86.4V29.9013C86.4 23.8006 81.6 19 75.5 19C69.4 19 64.6 23.8006 64.6 29.9013V34.3018H62.4C60 34.3018 58 36.3021 58 38.7024V60.605C58 63.0053 60 65.0055 62.4 65.0055H88.6C91 65.0055 93 63.0053 93 60.605V38.7024C93 36.3021 91 34.3018 88.6 34.3018ZM75.5 54.0042C73.1 54.0042 71.1 52.0039 71.1 49.6037C71.1 47.2034 73.1 45.2031 75.5 45.2031C77.9 45.2031 79.9 47.2034 79.9 49.6037C79.9 52.104 77.9 54.0042 75.5 54.0042ZM82.3 34.3018H68.7V29.9013C68.7 26.2009 71.8 23.1005 75.5 23.1005C79.2 23.1005 82.3 26.2009 82.3 29.9013V34.3018V34.3018Z" fill="white"/>
</svg>
