<svg width="30" height="60" viewBox="0 0 30 60" fill="none" xmlns="http://www.w3.org/2000/svg">
<path d="M24.4346 27.2024C24.204 28.3091 23.8812 29.7385 23.4201 31.3525C23.3279 31.7214 23.2356 32.1364 23.0973 32.5053C23.0051 32.8281 22.9129 33.1508 22.8207 33.4736C22.1751 35.7792 21.3912 38.4076 20.5611 41.036C20.0539 42.6038 19.5467 44.2177 19.0394 45.8317C18.44 47.6762 17.8405 49.4746 17.2872 51.1807C17.0105 51.9646 16.78 52.7485 16.5033 53.5324C15.7194 55.9302 15.0277 57.9592 14.5205 59.3887C14.2438 60.1726 13.2293 60.2187 12.9526 59.4348C12.0765 57.1753 11.2465 54.8697 10.4626 52.5179C10.1859 51.734 9.95534 50.9501 9.72478 50.2123C9.21755 48.5984 8.71031 46.9845 8.24919 45.3706C7.78806 43.7566 7.32695 42.1888 6.95805 40.6671C5.94358 36.932 5.15969 33.612 4.60634 31.1219C4.468 30.4302 4.32966 29.7846 4.19132 29.2313C4.00687 28.4013 3.86855 27.7096 3.77633 27.2024V27.1562C3.73021 26.6951 3.96077 26.2801 4.37578 26.1418C14.336 23.0061 21.6217 25.2656 23.8351 26.0957C24.2962 26.2801 24.5268 26.7412 24.4346 27.2024Z" fill="#F67300"/>
<path d="M22.1288 31.998C19.6849 33.1969 17.287 34.488 14.9353 35.8253C12.9525 34.0269 10.9235 32.2747 8.80238 30.6607C7.18845 29.4157 5.52842 28.309 3.82227 27.2023V27.2484C3.91449 27.7557 4.05284 28.4012 4.23729 29.2774C5.4362 30.1996 6.68122 31.168 7.88013 32.1363C9.72462 33.658 11.4769 35.2258 13.2292 36.8398C12.9986 36.9781 12.7219 37.1164 12.4914 37.2548C10.6469 38.3615 8.84849 39.4681 7.05012 40.6671C7.46513 42.1888 7.88013 43.7566 8.34125 45.3705C8.8946 45.8777 9.44795 46.385 9.95518 46.8922C10.5546 47.4917 11.2002 48.0911 11.7997 48.6906C11.108 49.1978 10.4624 49.7051 9.81685 50.2123C10.0474 50.9962 10.3241 51.734 10.5546 52.5179C11.523 51.7801 12.4452 51.0423 13.4136 50.2584C14.4742 51.319 15.5348 52.4257 16.6414 53.4863C16.872 52.7485 17.1487 51.9646 17.4254 51.1345C16.6415 50.3967 15.9037 49.659 15.1198 48.9212C15.8575 48.3217 16.5953 47.7683 17.3331 47.215C17.9326 46.7539 18.5782 46.2928 19.1776 45.7855C19.6848 44.2177 20.1921 42.6038 20.6993 40.9899C19.3159 39.6526 17.8865 38.3615 16.457 37.0703C18.5782 35.8253 20.7454 34.6264 22.9588 33.4275C23.051 33.1047 23.1433 32.7819 23.2355 32.4591C23.3277 32.0441 23.466 31.6752 23.5583 31.3063C23.0049 31.583 22.5899 31.8135 22.1288 31.998ZM19.5926 43.0649C18.4859 43.8488 17.3792 44.6327 16.2726 45.4627C15.3503 46.1544 14.382 46.8461 13.4597 47.5378C12.7219 46.8461 11.9841 46.1544 11.2002 45.4627C10.1396 44.4944 9.07905 43.526 7.97236 42.6038C9.81685 41.3126 11.6613 40.0676 13.5519 38.8687C13.9208 38.6381 14.2897 38.4076 14.6586 38.2231C14.7509 38.3153 14.8892 38.4537 14.9814 38.5459C16.5492 40.0215 18.0709 41.5432 19.5926 43.0649Z" fill="#F9CC3D"/>
<path d="M24.4352 27.2022C24.1585 28.5856 23.6974 30.43 23.144 32.5512C21.7607 32.5051 20.2851 32.0901 19.2245 32.8279C18.625 33.2429 18.2561 33.9346 17.5644 34.1651C15.8583 34.7185 14.8438 32.044 13.0915 31.9056C11.8465 31.7673 10.5554 32.9201 9.49479 32.3206C7.97309 31.4906 8.06533 30.4762 5.99028 30.799C5.57527 30.8451 5.16026 30.9834 4.74525 31.1678C4.37635 29.4156 4.05357 28.0783 3.91523 27.2944C3.82301 26.8333 4.09968 26.3261 4.51468 26.1877C14.4749 23.0521 21.7606 25.3116 23.974 26.1416C24.2968 26.2799 24.5274 26.7411 24.4352 27.2022Z" fill="#FFBBB6"/>
<path d="M29.4607 26.3722C29.4607 28.1706 28.2157 30.9834 26.1406 30.2918C25.6334 30.1073 25.3106 29.6462 25.08 29.1851C24.8956 28.8162 24.3422 27.4789 23.7889 28.0784C23.4661 28.4934 23.4661 29.3234 23.3278 29.8306C23.1894 30.3379 22.9128 30.8451 22.4516 31.0757C20.9761 31.8596 20.8377 29.6001 20.4688 28.724C20.2843 28.309 19.7771 27.9401 19.4544 28.2628C19.3621 28.3551 19.316 28.4934 19.2699 28.5856C18.5321 31.0296 18.8549 33.7963 17.7943 36.1019C17.7021 36.2864 17.6099 36.4708 17.4254 36.6091C17.1026 36.8858 16.5954 36.8397 16.2265 36.563C15.9037 36.2864 15.6731 35.8252 15.5809 35.4102C15.0737 33.4274 15.8576 31.214 15.1659 29.3234C15.0737 29.0929 14.9353 28.8162 14.7048 28.724C14.2437 28.5395 13.8287 29.0928 13.6903 29.6001C13.552 30.1073 13.4136 30.7068 12.9525 30.8912C12.4914 31.0296 12.0764 30.6146 11.938 30.1073C11.7997 29.6462 11.8458 29.0929 11.7997 28.6317C11.7536 28.1245 11.5692 27.5711 11.1542 27.3867C10.7853 27.2023 10.3241 27.3867 10.0475 27.7095C9.77079 28.0323 9.58633 28.4473 9.49411 28.8623C9.03298 30.799 9.26354 32.8741 8.71019 34.7646C8.57186 35.1797 8.38741 35.5947 8.11074 35.9175C7.83407 36.2402 7.37296 36.3786 7.00407 36.2402C6.49683 36.0558 6.26626 35.4102 6.12792 34.8569C5.75903 33.2891 5.57459 31.6751 5.6207 30.0612C5.6207 29.6462 5.62069 29.1851 5.29791 29.0006C5.15957 28.9084 4.97512 28.9545 4.83679 28.9545C3.54565 29.0467 2.07006 29.3234 1.00948 28.4934C-0.143322 27.5712 -0.281664 25.5883 0.45613 24.205C0.87114 23.375 1.74727 22.4066 2.53118 21.9916C1.8395 21.2999 1.51669 20.2854 1.33224 19.3171C1.00946 17.6109 0.963364 15.9048 1.14781 14.1986C1.51671 11.0169 2.71563 7.97349 4.69846 5.52954C7.69575 1.84057 12.3531 -0.234487 16.8721 0.134411C20.0538 0.411084 23.1894 1.84056 25.495 4.28451C26.9706 5.85232 28.0773 7.78904 28.6768 9.9102C29.0457 11.1091 29.2301 12.3541 29.2301 13.5992C29.2762 17.0576 28.4001 20.2854 26.0023 22.591C28.2156 22.1299 29.4607 24.2511 29.4607 26.3722Z" fill="#D93E4F"/>
<path opacity="0.33" d="M3.4072 12.6306C2.62329 15.3512 3.22277 18.6252 5.39005 20.4697C8.01844 22.6831 12.0302 22.0836 15.1197 20.5619C17.702 19.3169 20.0076 17.4724 21.8521 15.2129C23.8349 12.769 25.3105 9.26446 23.881 6.45162C22.8666 4.42268 20.6993 3.26986 18.4859 2.80874C15.4425 2.16317 10.739 2.39374 8.34121 4.74546C6.4045 6.68217 4.145 10.0022 3.4072 12.6306Z" fill="#FFBBB6"/>
<path d="M28.7223 9.86401C28.2151 10.2329 27.5695 10.3713 27.0623 10.1407C26.1401 9.72569 25.5406 8.2962 24.5722 8.48065C23.65 8.6651 23.4655 10.0024 22.9583 10.8785C22.3589 11.9391 20.791 12.2619 19.961 11.4318C19.0388 10.5557 18.9466 8.66509 17.7476 8.38842C17.2404 8.25008 16.6409 8.52676 16.272 8.94177C15.9032 9.35678 15.6726 9.91012 15.4881 10.4635C15.2115 11.2935 14.9809 12.1235 14.7965 12.9535C14.612 13.7836 14.4737 14.6597 14.0587 15.3514C13.6437 16.0892 12.9059 16.6886 12.122 16.5503C11.1997 16.4119 10.6003 15.3975 10.4619 14.383C10.3236 13.3685 10.508 12.3541 10.508 11.3396C10.508 10.7402 10.4158 10.1868 10.2314 9.58735C10.1391 9.35679 10.093 9.08012 9.90857 8.89567C9.40134 8.20399 8.43299 8.34233 7.69519 8.75734C6.63461 9.3568 5.89682 10.4635 5.15902 11.5241C4.42123 12.5847 3.5912 13.5991 2.43839 14.0141C2.02338 14.1524 1.60837 14.1986 1.19336 14.1063C1.56226 10.9246 2.76118 7.8812 4.744 5.43726C7.74129 1.74828 12.3986 -0.326772 16.9176 0.0421257C20.0994 0.318799 23.235 1.74828 25.5406 4.19222C26.9701 5.80615 28.0768 7.74285 28.7223 9.86401Z" fill="#933D2E"/>
<path d="M10.5089 3.96187C10.2783 3.73131 9.90942 3.68521 9.63274 3.82354C9.26385 4.0541 8.94107 4.33076 8.6644 4.69966C8.34161 5.11467 8.15715 5.48359 8.01882 5.99082C7.78826 6.6825 8.7105 7.18973 9.17162 6.72861C9.67886 6.17526 10.1861 5.52968 10.6011 4.93022C10.8317 4.60743 10.7394 4.14632 10.5089 3.96187Z" fill="#FFCF65"/>
<path d="M13.5521 7.28197C13.2293 7.00529 12.9065 7.00529 12.5837 7.28197C12.2148 7.60475 12.2148 8.25031 12.2148 8.71143C12.2148 9.21867 12.3532 9.67979 12.5376 10.0948C12.7221 10.5559 13.4137 10.5559 13.6443 10.0948C13.8288 9.63368 13.9671 9.17256 13.9671 8.71143C13.9671 8.25031 13.921 7.60475 13.5521 7.28197Z" fill="white"/>
<path d="M19.5 5.29912C19.3617 4.74577 18.9928 4.37685 18.6239 4.00796C18.255 3.68517 17.9322 3.27018 17.5172 2.99351C16.9178 2.62461 16.2722 3.22407 16.4105 3.91575C16.5027 4.4691 16.9178 5.02244 17.2867 5.43745C17.7017 5.89857 18.255 6.26747 18.8545 6.22136C19.2695 6.17525 19.6384 5.80635 19.5 5.29912Z" fill="#9FE8F4"/>
<path d="M23.4662 5.20683C22.7284 5.52961 22.129 6.2213 21.6678 6.91299C21.2528 7.51244 22.0828 8.38857 22.6362 7.97356C23.2817 7.46633 23.9273 6.82076 24.204 5.99074C24.3884 5.57573 23.8812 5.06849 23.4662 5.20683Z" fill="#E2BEE6"/>
</svg>
