<svg width="313" height="307" viewBox="0 0 313 307" fill="none" xmlns="http://www.w3.org/2000/svg">
<path d="M241.863 224.822C241.863 225.53 241.152 226.947 240.441 226.947C239.729 226.947 238.307 226.239 238.307 225.53C238.307 224.822 239.018 223.405 239.729 223.405C241.152 223.405 241.863 224.113 241.863 224.822Z" fill="#EB027E"/>
<path d="M241.152 213.487C241.152 214.195 240.44 214.904 240.44 214.904C239.729 214.904 239.018 214.195 239.018 214.195C239.018 213.487 239.729 212.778 239.729 212.778C240.44 212.778 241.152 213.487 241.152 213.487Z" fill="#EB027E"/>
<path d="M258.224 238.281C258.224 238.99 257.513 239.698 257.513 239.698C256.801 239.698 256.09 238.99 256.09 238.99C256.09 238.281 256.801 237.573 256.801 237.573C257.513 237.573 257.513 237.573 258.224 238.281Z" fill="#EB027E"/>
<path d="M265.337 225.53C265.337 226.238 264.626 227.655 263.914 227.655C263.203 227.655 261.78 226.947 261.78 226.238C261.78 225.53 262.492 224.113 263.203 224.113C264.626 223.404 265.337 224.113 265.337 225.53Z" fill="#EB027E"/>
<path d="M251.111 215.612C251.111 216.321 251.111 216.321 250.4 216.321C249.688 216.321 249.688 216.321 249.688 215.612C249.688 214.904 249.688 214.904 250.4 214.904C250.4 214.904 251.111 214.904 251.111 215.612Z" fill="#EB027E"/>
<path d="M175.705 243.24C175.705 243.949 174.994 245.366 174.283 245.366C173.571 245.366 172.148 244.657 172.148 243.949C172.148 243.24 172.86 241.823 173.571 241.823C174.994 241.823 175.705 242.532 175.705 243.24Z" fill="#EB027E"/>
<path d="M174.993 232.614C174.993 233.323 174.282 234.031 174.282 234.031C173.571 234.031 172.859 233.323 172.859 233.323C172.859 232.614 173.571 231.906 173.571 231.906C174.282 231.197 174.993 231.906 174.993 232.614Z" fill="#EB027E"/>
<path d="M191.355 256.701C191.355 257.409 190.643 258.118 190.643 258.118C189.932 258.118 189.221 257.409 189.221 257.409C189.221 256.701 189.932 255.992 189.932 255.992C190.643 255.992 191.355 256.701 191.355 256.701Z" fill="#EB027E"/>
<path d="M199.179 243.949C199.179 244.658 198.468 246.075 197.756 246.075C197.045 246.075 195.622 245.366 195.622 244.658C195.622 243.949 196.333 242.532 197.045 242.532C197.756 242.532 199.179 243.241 199.179 243.949Z" fill="#EB027E"/>
<path d="M184.953 234.031C184.953 234.739 184.953 234.739 184.242 234.739C183.53 234.739 183.53 234.739 183.53 234.031C183.53 233.322 183.53 233.323 184.242 233.323C184.242 233.323 184.242 234.031 184.953 234.031Z" fill="#EB027E"/>
<path d="M110.974 249.617C111.685 249.617 112.397 251.034 112.397 251.742C112.397 252.451 110.974 253.159 110.263 253.159C109.551 253.159 108.84 251.742 108.84 251.034C108.84 250.325 109.551 249.617 110.974 249.617Z" fill="#EB027E"/>
<path d="M100.303 246.783C101.014 246.783 101.014 247.492 101.014 248.2C101.014 248.909 100.303 248.909 99.5913 248.909C98.8799 248.909 98.8799 248.2 98.8799 247.492C98.8799 246.783 99.5913 246.783 100.303 246.783Z" fill="#EB027E"/>
<path d="M128.757 239.699C129.468 239.699 129.468 240.407 129.468 241.116C129.468 241.824 128.757 241.824 128.045 241.824C127.334 241.824 127.334 241.116 127.334 240.407C128.045 239.699 128.045 239.699 128.757 239.699Z" fill="#EB027E"/>
<path d="M119.51 228.364C120.221 228.364 120.933 229.781 120.933 230.489C120.933 231.198 119.51 231.906 118.799 231.906C118.087 231.906 117.376 230.489 117.376 229.781C117.376 228.364 118.087 227.656 119.51 228.364Z" fill="#EB027E"/>
<path d="M105.28 238.282C105.992 238.282 105.992 238.99 105.992 238.99C105.992 239.699 105.28 239.699 105.28 239.699C104.569 239.699 104.569 238.99 104.569 238.99C103.858 238.282 104.569 238.282 105.28 238.282Z" fill="#EB027E"/>
<path d="M83.2303 261.66C83.9417 261.66 84.6531 262.369 84.6531 263.077C84.6531 263.786 83.9417 264.494 83.2303 264.494C82.519 264.494 81.8076 263.786 81.8076 263.077C81.8076 262.369 82.519 261.66 83.2303 261.66Z" fill="#EB027E"/>
<path d="M74.6938 262.369C75.4051 262.369 75.4051 262.369 75.4051 263.077C75.4051 263.786 75.4051 263.786 74.6938 263.786C73.9824 263.786 73.9824 263.786 73.9824 263.077C73.9824 263.077 73.9824 262.369 74.6938 262.369Z" fill="#EB027E"/>
<path d="M93.9008 249.617C94.6122 249.617 94.6122 249.617 94.6122 250.326C94.6122 251.034 94.6122 251.034 93.9008 251.034C93.1894 251.034 93.1895 251.034 93.1895 250.326C93.1895 249.617 93.1894 249.617 93.9008 249.617Z" fill="#EB027E"/>
<path d="M83.9413 243.241C84.6526 243.241 85.364 243.949 85.364 244.658C85.364 245.366 84.6526 246.075 83.9413 246.075C83.2299 246.075 82.5186 245.366 82.5186 244.658C82.5186 244.658 82.5186 243.949 83.9413 243.241Z" fill="#EB027E"/>
<path d="M76.1176 254.576C76.829 254.576 76.829 254.576 76.829 255.284C76.829 255.993 76.829 255.993 76.1176 255.993C75.4062 255.993 75.4062 255.993 75.4062 255.284C75.4062 255.284 75.4062 254.576 76.1176 254.576Z" fill="#EB027E"/>
<path d="M71.8495 207.111C72.5609 207.111 73.2722 207.82 73.2722 208.528C73.2722 209.237 72.5609 209.945 71.8495 209.945C71.1381 209.945 70.4268 209.237 70.4268 208.528C70.4268 207.82 71.1381 207.111 71.8495 207.111Z" fill="#EB027E"/>
<path d="M63.3129 207.82C64.0243 207.82 64.0243 207.82 64.0243 208.528C64.0243 209.236 64.0243 209.236 63.3129 209.236C62.6016 209.236 62.6016 209.236 62.6016 208.528C62.6016 207.82 62.6016 207.82 63.3129 207.82Z" fill="#EB027E"/>
<path d="M82.52 194.359C83.2313 194.359 83.2313 194.359 83.2313 195.067C83.2313 195.776 83.2313 195.776 82.52 195.776C81.8086 195.776 81.8086 195.776 81.8086 195.067C81.8086 195.067 81.8086 194.359 82.52 194.359Z" fill="#EB027E"/>
<path d="M71.8495 188.692C72.5609 188.692 73.2722 189.4 73.2722 190.109C73.2722 190.817 72.5609 191.526 71.8495 191.526C71.1381 191.526 70.4268 190.817 70.4268 190.109C70.4268 189.4 71.1381 188.692 71.8495 188.692Z" fill="#EB027E"/>
<path d="M64.7368 200.027C65.4481 200.027 65.4481 200.027 65.4481 200.735C65.4481 201.444 65.4481 201.444 64.7368 201.444C64.0254 201.444 64.0254 201.444 64.0254 200.735C64.0254 200.735 64.0254 200.027 64.7368 200.027Z" fill="#EB027E"/>
<path d="M62.6002 151.145C63.3116 151.853 63.3116 152.561 62.6002 153.27C61.8889 153.978 61.1775 153.978 60.4661 153.27C59.7548 152.561 59.7548 151.853 60.4661 151.145C61.1775 150.436 62.6002 150.436 62.6002 151.145Z" fill="#EB027E"/>
<path d="M56.9078 144.769C56.9078 144.769 56.9078 145.477 56.9078 146.185C56.9078 146.185 56.1965 146.185 55.4851 146.185C55.4851 146.185 54.7737 145.477 55.4851 144.769C56.1965 144.769 56.1965 144.769 56.9078 144.769Z" fill="#EB027E"/>
<path d="M78.9608 151.145C78.9608 151.145 78.9608 151.853 78.9608 152.561C78.9608 152.561 78.2495 152.561 77.5381 152.561C77.5381 152.561 77.5381 151.853 77.5381 151.145C78.2495 151.145 78.9608 151.145 78.9608 151.145Z" fill="#EB027E"/>
<path d="M77.5377 139.81C78.2491 140.518 78.2491 141.226 77.5377 141.935C76.8264 142.643 76.115 142.643 75.4036 141.935C74.6923 141.226 74.6923 140.518 75.4036 139.81C75.4036 139.101 76.8264 139.101 77.5377 139.81Z" fill="#EB027E"/>
<path d="M63.309 141.226V141.935H62.5977V141.226C62.5977 140.518 63.309 140.518 63.309 141.226Z" fill="#EB027E"/>
<path d="M60.4655 101.554C61.1768 102.263 61.1768 102.971 60.4655 103.68C59.7541 104.388 59.0427 104.388 58.3314 103.68C57.62 102.971 57.62 102.263 58.3314 101.554C59.0427 101.554 59.7541 101.554 60.4655 101.554Z" fill="#EB027E"/>
<path d="M54.0634 95.887C54.0634 95.887 54.0634 96.5955 54.0634 97.3039C54.0634 97.3039 53.352 97.3039 52.6406 97.3039C52.6406 97.3039 52.6406 96.5955 52.6406 95.887C53.352 95.1786 54.0634 95.1786 54.0634 95.887Z" fill="#EB027E"/>
<path d="M76.826 102.262C76.826 102.262 77.5374 102.971 76.826 103.679C76.826 103.679 76.1147 103.679 75.4033 103.679C75.4033 103.679 75.4033 102.971 75.4033 102.262C75.4033 101.554 76.1147 101.554 76.826 102.262Z" fill="#EB027E"/>
<path d="M74.692 90.2192C75.4034 90.9277 75.4034 91.6361 74.692 92.3445C73.9807 93.053 73.2693 93.053 72.5579 92.3445C71.8466 91.6361 71.8466 90.9277 72.5579 90.2192C73.2693 90.2192 73.9807 90.2192 74.692 90.2192Z" fill="#EB027E"/>
<path d="M61.1772 91.6357V92.3442H60.4658V91.6357C60.4658 91.6357 60.4658 91.6357 61.1772 91.6357Z" fill="#EB027E"/>
<path d="M76.8254 71.8003C76.8254 72.5088 75.4026 73.2172 74.6913 73.2172C73.9799 73.2172 73.2686 71.8003 73.2686 71.0919C73.2686 70.3835 74.6913 69.675 75.4026 69.675C76.114 70.3835 76.8254 71.0919 76.8254 71.8003Z" fill="#EB027E"/>
<path d="M78.2483 61.1735C78.2483 61.8819 77.537 61.8819 76.8256 61.8819C76.1143 61.8819 76.1143 61.1735 76.1143 60.465C76.1143 59.7566 76.8256 59.7566 77.537 59.7566C78.2483 59.7566 78.2483 60.465 78.2483 61.1735Z" fill="#EB027E"/>
<path d="M88.9193 89.5104C88.9193 90.2188 88.2079 90.2188 87.4965 90.2188C86.7852 90.2188 86.7852 89.5104 86.7852 88.8019C86.7852 88.0935 87.4965 88.0935 88.2079 88.0935C88.2079 88.8019 88.9193 88.8019 88.9193 89.5104Z" fill="#EB027E"/>
<path d="M99.5898 78.8844C99.5898 80.3013 98.1671 81.0097 97.4557 80.3013C96.033 80.3013 95.3216 78.8844 96.033 78.176C96.033 76.7591 97.4557 76.0507 98.1671 76.7591C99.5898 76.7591 100.301 77.4676 99.5898 78.8844Z" fill="#EB027E"/>
<path d="M87.4969 65.4239C87.4969 66.1324 86.7856 66.1324 86.7856 66.1324C86.0742 66.1324 86.0742 65.4239 86.0742 65.4239C86.0742 64.0071 86.7856 64.0071 86.7856 64.0071C87.4969 64.0071 88.2083 64.7155 87.4969 65.4239Z" fill="#EB027E"/>
<path d="M138.716 68.2584C138.716 68.9668 137.293 69.6752 136.582 69.6752C135.871 69.6752 135.159 68.2584 135.159 67.5499C135.159 66.8415 136.582 66.1331 137.293 66.1331C138.005 66.8415 138.716 67.5499 138.716 68.2584Z" fill="#EB027E"/>
<path d="M140.849 57.6315C140.849 58.3399 140.138 58.3399 139.426 58.3399C138.715 58.3399 138.715 57.6315 138.715 56.923C138.715 56.2146 139.426 56.2146 140.138 56.2146C140.138 56.2146 140.849 56.923 140.849 57.6315Z" fill="#EB027E"/>
<path d="M150.81 85.9684C150.81 86.6768 150.099 86.6768 149.387 86.6768C148.676 86.6768 148.676 85.9684 148.676 85.26C148.676 84.5515 149.387 84.5515 150.099 84.5515C150.81 85.2599 151.521 85.26 150.81 85.9684Z" fill="#EB027E"/>
<path d="M162.191 75.3424C162.191 76.7593 160.769 77.4677 160.057 76.7593C158.635 76.7593 157.923 75.3424 158.635 74.634C158.635 73.2171 160.057 72.5087 160.769 73.2171C161.48 73.2171 162.191 73.9256 162.191 75.3424Z" fill="#EB027E"/>
<path d="M150.098 61.8818C150.098 62.5902 149.387 62.5902 149.387 62.5902C148.676 62.5902 148.676 61.8818 148.676 61.8818C148.676 61.1733 149.387 61.1733 149.387 61.1733C150.098 60.4649 150.098 61.1733 150.098 61.8818Z" fill="#EB027E"/>
<path d="M207.719 73.9255C208.43 73.9255 209.853 73.9255 209.853 75.3424C209.853 76.0508 209.853 77.4677 208.43 77.4677C207.719 77.4677 206.296 77.4677 206.296 76.0508C206.296 75.3424 206.296 73.9255 207.719 73.9255Z" fill="#EB027E"/>
<path d="M196.336 76.7595C197.048 76.7595 197.759 76.7595 197.759 77.4679C197.759 78.1764 197.759 78.8848 197.048 78.8848C196.336 78.8848 195.625 78.8848 195.625 78.1764C195.625 77.468 195.625 76.7595 196.336 76.7595Z" fill="#EB027E"/>
<path d="M219.099 56.2153C219.81 56.2153 220.522 56.2153 220.522 56.9238C220.522 57.6322 220.522 58.3406 219.81 58.3406C219.099 58.3406 218.388 58.3406 218.388 57.6322C218.388 56.9238 218.388 56.2153 219.099 56.2153Z" fill="#EB027E"/>
<path d="M204.873 49.8391C205.584 49.8391 207.007 50.5475 207.007 51.256C207.007 51.9644 206.296 53.3813 205.584 53.3813C204.873 53.3813 203.45 52.6728 203.45 51.9644C203.45 51.256 203.45 50.5475 204.873 49.8391Z" fill="#EB027E"/>
<path d="M197.047 66.1328C197.759 66.1328 197.759 66.1328 198.47 66.8412C198.47 67.5497 198.47 67.5497 197.759 68.2581C197.047 68.2581 197.047 68.2581 196.336 67.5497C196.336 66.8412 196.336 66.1328 197.047 66.1328Z" fill="#EB027E"/>
<path d="M243.284 62.5908C243.995 62.5908 244.707 62.5908 245.418 64.0077C245.418 64.7161 245.418 65.4245 243.995 66.133C243.284 66.133 242.573 66.133 241.861 64.7161C241.861 64.0077 242.573 62.5908 243.284 62.5908Z" fill="#EB027E"/>
<path d="M234.037 64.7166C234.748 64.7166 234.748 64.7165 235.459 65.425C235.459 66.1334 235.459 66.1334 234.748 66.8418C234.037 66.8418 234.037 66.8419 233.325 66.1334C233.325 65.425 234.037 64.7166 234.037 64.7166Z" fill="#EB027E"/>
<path d="M252.533 48.4219C253.244 48.4219 253.244 48.4219 253.955 49.1303C253.955 49.8387 253.955 49.8387 253.244 50.5472C252.533 50.5472 252.533 50.5472 251.821 49.8387C251.821 49.1303 251.821 48.4219 252.533 48.4219Z" fill="#EB027E"/>
<path d="M241.149 43.4631C241.861 43.4631 242.572 43.4631 243.283 44.88C243.283 45.5884 243.283 46.2969 241.861 47.0053C241.149 47.0053 240.438 47.0053 239.727 45.5884C239.727 44.88 239.727 44.1716 241.149 43.4631Z" fill="#EB027E"/>
<path d="M234.747 56.9238C235.459 56.9238 235.459 56.9238 235.459 57.6323C235.459 58.3407 235.459 58.3407 234.747 58.3407C234.036 58.3407 234.036 58.3407 234.036 57.6323C234.036 56.9238 234.036 56.9238 234.747 56.9238Z" fill="#EB027E"/>
<path d="M248.265 103.68C248.976 103.68 249.687 103.68 250.399 104.389C250.399 105.097 250.399 105.805 248.976 106.514C248.265 106.514 247.553 106.514 246.842 105.097C246.842 105.097 247.553 104.389 248.265 103.68Z" fill="#EB027E"/>
<path d="M239.73 105.805C240.441 105.805 240.441 105.805 241.152 106.513C241.152 107.222 241.152 107.222 240.441 107.93C239.73 107.93 239.73 107.93 239.018 107.222C238.307 106.513 239.018 105.805 239.73 105.805Z" fill="#EB027E"/>
<path d="M257.513 89.5112C258.225 89.5112 258.225 89.5112 258.936 90.2197C258.936 90.9281 258.936 90.9281 258.224 91.6365C257.513 91.6365 257.513 91.6365 256.802 90.9281C256.802 90.2197 256.802 89.5112 257.513 89.5112Z" fill="#EB027E"/>
<path d="M246.133 85.2607C246.844 85.2607 247.555 85.2607 248.267 86.6776C248.267 87.386 248.267 88.0945 246.844 88.8029C246.133 88.8029 245.421 88.8029 244.71 87.386C244.71 85.9692 245.421 85.2607 246.133 85.2607Z" fill="#EB027E"/>
<path d="M239.731 98.0122C240.442 98.0122 240.442 98.0122 240.442 98.7206C240.442 99.4291 240.442 99.4291 239.731 99.4291C239.02 99.4291 239.02 99.4291 239.02 98.7206C239.02 98.0122 239.02 98.0122 239.731 98.0122Z" fill="#EB027E"/>
<path d="M250.399 150.437C251.111 150.437 251.822 150.437 252.533 151.853C252.533 152.562 252.533 153.27 251.111 153.979C250.399 153.979 249.688 153.979 248.977 152.562C248.977 151.853 249.688 150.437 250.399 150.437Z" fill="#EB027E"/>
<path d="M241.864 152.562C242.576 152.562 242.576 152.562 243.287 153.271C243.287 153.979 243.287 153.979 242.576 154.688C241.864 154.688 241.864 154.688 241.153 153.979C240.442 153.271 241.153 152.562 241.864 152.562Z" fill="#EB027E"/>
<path d="M259.648 136.268C260.359 136.268 260.359 136.268 261.071 136.976C261.071 137.684 261.071 137.684 260.359 138.393C259.648 138.393 259.648 138.393 258.937 137.684C258.937 136.976 258.937 136.268 259.648 136.268Z" fill="#EB027E"/>
<path d="M248.267 131.309C248.979 131.309 249.69 131.309 250.402 132.726C250.402 133.434 250.402 134.143 248.979 134.851C248.267 134.851 247.556 134.851 246.845 133.434C246.845 132.726 247.556 132.017 248.267 131.309Z" fill="#EB027E"/>
<path d="M241.866 144.06C242.577 144.06 242.577 144.06 242.577 144.769C242.577 145.477 242.577 145.477 241.866 145.477C241.154 145.477 241.154 145.477 241.154 144.769C241.154 144.769 241.154 144.769 241.866 144.06Z" fill="#EB027E"/>
<path d="M246.84 189.4C247.552 190.109 247.552 191.525 246.129 192.234C245.418 192.942 243.995 192.942 243.284 191.525C242.572 190.817 242.572 189.4 243.995 188.692C245.418 188.692 246.129 188.692 246.84 189.4Z" fill="#EB027E"/>
<path d="M240.439 180.899C241.151 181.607 240.439 182.316 240.439 182.316C239.728 183.024 239.017 182.316 239.017 182.316C239.017 181.607 239.017 180.899 239.017 180.899C239.728 180.19 240.439 180.19 240.439 180.899Z" fill="#EB027E"/>
<path d="M267.47 193.65C267.47 194.359 267.47 195.067 267.47 195.067C266.759 195.776 266.048 195.067 266.048 195.067C265.336 194.359 266.048 193.65 266.048 193.65C266.048 192.942 266.759 192.942 267.47 193.65Z" fill="#EB027E"/>
<path d="M267.471 178.774C268.183 179.482 268.183 180.899 266.76 181.607C266.049 182.316 264.626 182.316 263.915 180.899C263.203 180.19 263.203 178.774 264.626 178.065C265.337 177.357 266.76 177.357 267.471 178.774Z" fill="#EB027E"/>
<path d="M249.686 177.357C249.686 178.065 249.686 178.065 249.686 178.773C248.975 178.773 248.975 178.773 248.264 178.773C248.264 178.065 248.264 178.065 248.264 177.357C248.975 176.648 249.686 176.648 249.686 177.357Z" fill="#EB027E"/>
<path d="M196.337 51.9648C196.337 51.9648 195.625 51.9648 196.337 51.9648C194.914 52.6733 194.914 53.3817 194.203 54.0901C192.78 54.7986 192.068 56.2154 190.646 56.9239C189.934 58.3407 188.512 59.0492 187.089 60.466C185.666 61.8829 184.243 63.2998 183.532 64.7166C182.109 66.1335 180.687 68.2588 179.264 69.6757C177.841 71.0925 176.418 73.2178 174.996 75.3431C173.573 77.4684 172.15 78.8853 170.728 81.0106C169.305 83.1359 167.882 85.2612 167.171 86.678C165.748 88.8033 165.037 90.9286 163.614 92.3455C162.191 94.4708 161.48 95.8877 160.768 98.013C160.057 99.4298 159.346 101.555 158.634 102.972C157.923 104.389 157.212 105.806 156.5 107.223C155.789 108.639 155.789 109.348 155.078 110.765C154.366 111.473 154.366 112.182 154.366 112.89C154.366 113.598 154.366 113.598 154.366 113.598C154.366 113.598 154.366 113.598 155.078 112.89C155.078 112.182 155.789 111.473 156.5 110.765C157.212 110.056 157.923 108.639 158.634 107.931C159.346 106.514 160.057 105.097 161.48 103.68C162.191 102.264 163.614 100.847 164.325 98.7214C165.748 97.3045 166.459 95.1792 167.882 93.7624C169.305 91.6371 170.728 90.2202 171.439 88.0949C172.862 85.9696 174.284 84.5527 174.996 82.4274C176.418 80.3021 177.841 78.8853 178.553 76.76C179.975 74.6347 181.398 73.2178 182.109 71.0925C183.532 68.9672 184.243 67.5504 185.666 66.1335C187.089 64.7166 187.8 62.5913 188.512 61.1745C189.223 59.7576 190.646 58.3407 191.357 56.9239C192.068 55.507 192.78 54.7986 193.491 54.0901C194.914 54.0901 195.625 53.3817 196.337 51.9648C195.625 51.9648 196.337 51.9648 196.337 51.9648Z" fill="#02DBF3"/>
<path d="M137.291 56.2153C137.291 56.2153 137.291 56.2153 137.291 56.9238C137.291 57.6322 137.291 58.3406 137.291 59.7575C137.291 61.8828 138.003 65.425 138.003 68.9671C138.003 71.0924 138.714 73.2177 138.714 75.343C138.714 77.4683 139.426 79.5936 139.426 82.4273C139.426 84.5526 140.137 87.3864 140.137 90.2201C140.848 93.0538 140.848 95.1791 141.56 98.0129C142.271 100.847 142.271 102.972 142.982 105.806C143.694 108.639 143.694 110.765 144.405 113.598C145.116 118.557 145.828 122.808 146.539 127.059C147.251 130.601 147.962 134.143 147.962 136.268C147.962 137.685 148.673 138.394 148.673 139.102C148.673 139.81 148.673 139.81 148.673 139.81C148.673 139.81 148.673 139.81 148.673 139.102C148.673 138.394 148.673 137.685 148.673 136.268C148.673 134.143 147.962 130.601 147.962 127.059C147.25 122.808 147.251 118.557 146.539 113.598C146.539 111.473 145.828 108.639 145.828 105.806C145.828 102.972 145.116 100.847 145.116 98.0129C144.405 95.1791 144.405 93.0538 143.694 90.2201C142.982 87.3864 142.982 85.2611 142.271 82.4273C141.56 80.302 141.56 77.4683 140.848 75.343C140.137 73.2177 140.137 71.0924 139.426 68.9671C138.714 65.425 138.003 61.8828 137.291 59.7575C137.291 58.3406 136.58 57.6322 136.58 56.9238C137.291 56.2153 137.291 56.2153 137.291 56.2153Z" fill="#EB027E"/>
<path d="M83.2295 58.3401C83.9409 59.0485 83.9409 59.757 84.6522 59.757C85.3636 61.1738 86.7863 62.5907 88.209 64.0076C89.6318 65.4244 91.7659 67.5497 93.8999 69.675C94.6113 70.3834 96.034 71.8003 97.4568 73.2172C98.8795 74.634 99.5909 75.3425 101.014 76.7593C102.436 78.1762 103.148 78.8846 104.57 80.3015C105.993 81.7184 106.704 82.4268 108.127 83.8437C110.261 85.969 112.395 88.0943 114.529 89.5111C116.664 90.928 118.086 92.3449 119.509 93.7617C120.22 94.4702 120.22 94.4702 120.932 95.1786L121.643 95.887C121.643 95.887 121.643 95.887 121.643 95.1786C121.643 95.1786 120.932 94.4702 120.932 93.7617C120.22 92.3449 118.798 90.928 117.375 88.8027C115.952 86.6774 114.529 84.5521 112.395 82.4268C111.684 81.0099 110.261 80.3015 109.55 78.8846C108.127 77.4678 107.416 76.7593 105.993 75.3425C104.57 73.9256 103.859 73.2172 102.436 71.8003C101.014 70.3834 100.302 69.675 98.8795 68.9666C96.7454 66.8413 93.8999 65.4244 91.7659 64.0076C89.6318 62.5907 87.4977 61.1738 86.7863 60.4654C84.6522 59.0485 83.9409 59.0485 83.2295 58.3401Z" fill="#2471BA"/>
<path d="M78.249 88.8029C78.249 88.8029 78.9604 88.8029 78.249 88.8029C79.6718 89.5114 79.6718 90.2198 80.3831 90.2198C81.8058 91.6366 83.9399 93.0535 86.7854 94.4704C89.6308 96.5957 93.1877 98.721 96.0331 100.846C97.4558 102.263 99.5899 102.972 101.724 104.388C103.858 105.805 105.281 107.222 107.415 107.931C109.549 109.347 110.972 110.764 113.106 111.473C115.24 112.89 116.663 114.306 118.797 115.015C122.354 117.14 125.199 119.974 128.044 122.099C130.89 124.225 133.024 125.641 134.447 127.058C135.158 127.767 135.869 127.767 136.581 128.475C137.292 128.475 137.292 129.184 137.292 129.184C137.292 129.184 137.292 129.184 136.581 128.475C136.581 127.767 135.869 127.767 135.158 127.058C133.735 125.641 132.313 123.516 129.467 121.391C127.333 119.266 124.488 116.432 120.931 113.598C119.508 112.181 117.374 110.764 115.951 109.347C114.529 107.931 112.394 106.514 110.26 105.097C108.126 103.68 106.704 102.263 104.569 101.555C102.435 100.138 101.013 99.4294 98.8786 98.0125C95.3218 95.8872 91.7649 93.7619 88.2081 92.3451C85.3627 90.9282 82.5172 89.5114 80.3831 88.8029C79.6718 88.0945 78.9604 88.0945 78.249 88.0945C78.9604 88.8029 78.249 88.8029 78.249 88.8029Z" fill="#2E60A2"/>
<path d="M30.5893 100.846C30.5893 100.846 30.5893 100.846 31.3007 100.846C32.012 100.846 32.7234 100.846 33.4347 101.555C35.5688 101.555 38.4143 102.263 41.2598 102.972C44.8166 103.68 48.3734 104.389 52.6416 105.097C54.7757 105.806 56.9098 105.806 59.0438 106.514C61.8893 106.514 64.0234 107.222 66.1575 107.222C68.2916 107.931 70.4257 107.931 72.5598 108.639C74.6938 109.348 76.8279 110.056 78.962 110.056C83.2302 111.473 86.787 112.181 90.3438 112.89C93.9007 113.598 96.7461 114.307 98.1688 115.015C98.8802 115.015 99.5916 115.724 100.303 115.724C101.014 115.724 101.014 115.724 101.014 115.724C101.014 115.724 101.014 115.724 100.303 115.015C99.5916 115.015 98.8802 114.307 98.1688 114.307C96.7461 113.598 93.9007 112.181 91.0552 110.765C88.2098 109.348 84.6529 107.931 80.3848 106.514C78.2507 105.806 76.1166 105.097 73.9825 104.389C71.8484 103.68 69.7143 102.972 67.5802 102.972C65.4461 102.263 63.312 102.263 60.4666 101.555C58.3325 100.846 56.1984 100.846 54.0643 100.138C49.7961 99.4296 45.5279 98.7212 41.9711 98.7212C38.4143 98.7212 34.8575 98.7212 32.7234 98.7212C31.3007 98.7212 30.5893 98.7212 29.8779 98.7212C30.5893 100.846 30.5893 100.846 30.5893 100.846Z" fill="#02DBF3"/>
<path d="M0 155.396H0.711364C1.42273 155.396 2.13409 154.687 3.55682 154.687C4.97955 153.979 6.40227 153.979 8.53636 153.27C9.95909 152.562 12.0932 151.853 14.2273 151.145C16.3614 150.437 18.4955 149.728 21.3409 149.02C24.1864 148.311 26.3205 147.603 29.1659 146.894C32.0114 146.186 34.8568 145.478 37.7023 144.769C40.5477 144.061 43.3932 143.352 46.2386 142.644C49.7955 141.935 52.6409 141.227 55.4864 141.227C58.3318 140.519 61.1773 140.519 64.0227 139.81C66.8682 139.81 69.7136 139.102 71.8477 139.102C74.6932 139.102 76.8273 138.393 78.9614 138.393C81.0955 138.393 83.2295 138.393 84.6523 137.685C86.075 137.685 88.2091 137.685 88.9205 137.685C90.3432 137.685 91.0545 137.685 91.7659 137.685C92.4773 137.685 92.4773 137.685 92.4773 137.685C92.4773 137.685 92.4773 137.685 91.7659 137.685C91.0545 137.685 90.3432 137.685 88.9205 137.685C87.4977 137.685 86.075 137.685 84.6523 137.685C83.2295 137.685 81.0955 137.685 78.9614 137.685C76.8273 137.685 74.6932 137.685 71.8477 137.685C69.7136 137.685 66.8682 137.685 64.0227 138.393C61.1773 138.393 58.3318 139.102 55.4864 139.102C52.6409 139.81 49.7955 139.81 46.95 140.519C44.1045 141.227 41.2591 141.935 38.4136 142.644C35.5682 143.352 32.7227 144.061 29.8773 144.769C27.0318 145.478 24.1864 146.186 22.0523 147.603C19.2068 148.311 17.0727 149.02 14.9386 150.437C12.8045 151.145 10.6705 151.853 8.53636 153.27C6.40227 153.979 4.97955 154.687 3.55682 155.396C2.13409 156.104 1.42273 156.813 0.711364 156.813C0.711364 155.396 0 155.396 0 155.396Z" fill="#2E60A2"/>
<path d="M121.644 150.437C121.644 150.437 120.933 150.437 120.222 150.437C119.51 150.437 118.087 150.437 116.665 149.728C115.242 149.728 113.819 149.728 111.685 149.02C109.551 149.02 107.417 149.02 104.572 148.312C101.726 148.312 99.592 148.312 96.7466 148.312C93.9011 148.312 91.0557 148.312 87.4989 149.02C84.6534 149.02 81.0966 149.728 77.5398 149.728C73.9829 150.437 70.4261 150.437 67.5807 151.145C64.0238 151.854 60.467 152.562 57.6216 153.271C54.0648 153.979 51.2193 154.687 47.6625 156.104C44.1057 156.813 41.2602 158.23 38.4148 158.938C35.5693 159.646 32.7238 161.063 29.8784 162.48C27.0329 163.897 24.8988 164.605 22.7648 165.314C20.6307 166.022 19.2079 167.439 17.0738 168.148C16.3625 168.856 14.9398 169.565 14.2284 170.273C13.517 170.981 12.8057 170.981 12.8057 170.981C12.8057 170.981 13.517 170.981 14.2284 170.273C14.9398 170.273 16.3625 169.565 17.7852 168.856C19.2079 168.148 21.342 167.439 23.4761 166.731C25.6102 166.022 27.7443 165.314 30.5898 163.897C33.4352 163.189 35.5693 161.772 39.1261 161.063C41.9716 160.355 44.817 158.938 48.3738 158.23C51.2193 157.521 54.7761 156.813 58.3329 155.396C61.8898 154.687 65.4466 153.979 68.292 153.271C71.8489 152.562 75.4057 151.854 78.2511 151.854C81.8079 151.145 84.6534 151.145 88.2102 150.437C91.0557 150.437 94.6125 149.728 97.4579 149.728C100.303 149.728 103.149 149.728 105.283 149.02C108.128 149.02 110.262 149.02 112.397 149.02C114.531 149.02 115.953 149.02 117.376 149.02C118.799 149.02 120.222 149.02 120.933 149.02C120.933 150.437 121.644 150.437 121.644 150.437Z" fill="#02DBF3"/>
<path d="M131.602 155.396C131.602 155.396 130.89 155.396 130.179 155.396C129.468 155.396 128.045 156.104 126.622 156.104C123.777 156.813 119.509 158.23 114.529 159.647C112.395 160.355 109.55 161.063 106.704 162.48C103.859 163.189 101.013 164.606 98.1677 166.022C95.3222 167.439 92.4768 168.856 88.92 170.273C86.0745 171.69 82.5177 173.107 79.6722 175.232C76.8268 176.649 73.27 178.774 70.4245 180.191C67.579 182.316 64.7336 183.733 61.8881 185.859C56.1972 189.401 51.2177 193.651 46.9495 197.194C42.6813 200.736 39.1245 203.569 36.9904 205.695C35.5677 207.112 34.8563 207.82 34.145 208.528C33.4336 209.237 33.4336 209.237 33.4336 209.237C33.4336 209.237 33.4336 209.237 34.145 208.528C34.8563 207.82 35.5677 207.112 36.9904 206.403C39.1245 204.278 42.6813 201.444 46.9495 197.902C51.2177 194.36 56.1972 190.818 61.8881 187.275C64.7336 185.15 67.579 183.733 70.4245 181.608C73.27 179.483 76.1154 178.066 79.6722 176.649C82.5177 175.232 86.0745 173.107 88.92 171.69C91.7654 170.273 95.3222 168.856 98.1677 167.439C101.013 166.022 103.859 164.606 106.704 163.897C109.55 162.48 112.395 161.772 114.529 161.063C119.509 159.647 123.065 158.23 125.911 157.521C127.334 156.813 128.756 156.813 129.468 156.813C130.89 156.104 131.602 155.396 131.602 155.396Z" fill="#02DBF3"/>
<path d="M82.5175 163.189C81.0948 163.189 81.0948 163.897 79.672 163.897C78.2493 164.606 75.4039 165.314 72.5584 166.022C69.7129 166.731 66.8675 168.148 63.3107 169.565C61.8879 170.273 59.7539 170.981 58.3311 171.69C56.9084 172.398 54.7743 173.107 52.6402 174.524C51.2175 175.232 49.7948 176.649 47.6607 177.357C46.2379 178.066 44.1039 179.483 42.6811 180.191C39.1243 182.316 36.2789 184.442 34.1448 186.567C31.2993 188.692 29.1652 190.109 27.7425 191.526C27.0311 192.234 26.3198 192.943 26.3198 192.943C25.6084 192.943 25.6084 193.651 25.6084 193.651C25.6084 193.651 25.6084 193.651 26.3198 192.943C27.0311 192.943 27.0311 192.234 28.4539 191.526C29.8766 190.818 32.0107 189.401 34.8561 187.984C37.7016 186.567 40.547 184.442 44.1039 183.025C45.5266 182.316 47.6607 180.9 49.0834 180.191C50.5061 179.483 52.6402 178.066 54.0629 177.357C56.197 176.649 57.6198 175.232 59.7539 174.524C61.1766 173.815 63.3107 173.107 64.7334 171.69C68.2902 170.273 71.1357 168.856 73.9811 167.439C76.8266 166.022 78.9607 165.314 80.3834 164.606C81.0948 163.897 81.8061 163.897 82.5175 163.189Z" fill="#0288C9"/>
<path d="M124.49 166.731C124.49 166.731 124.49 166.731 123.778 166.731C123.067 166.731 122.356 167.439 121.644 167.439C119.51 168.148 116.665 169.565 113.108 170.982C109.551 172.398 105.283 174.524 101.726 176.649C99.592 178.066 97.4579 178.774 95.3238 180.191C93.1897 181.608 91.0556 183.025 88.9215 184.442C86.7874 185.859 84.6533 187.276 82.5192 188.692C80.3852 190.109 78.2511 191.526 76.8283 193.651C73.2715 196.485 69.7147 200.027 66.8692 202.153C64.0238 204.986 61.8897 207.112 60.467 209.237C59.7556 209.945 59.0442 210.654 58.3329 211.362C56.9102 212.071 56.9102 212.071 56.9102 212.071C56.9102 212.071 56.9102 212.071 57.6215 211.362C58.3329 210.654 59.0442 210.654 59.7556 209.945C61.1783 208.528 64.0238 206.403 66.8692 203.569C69.7147 201.444 73.2715 198.61 77.5397 195.068C79.6738 193.651 81.8079 192.235 83.2306 190.818C85.3647 189.401 87.4988 187.984 89.6329 186.567C91.767 185.15 93.9011 183.733 96.0352 182.316C98.1692 180.9 100.303 179.483 102.437 178.774C106.706 176.649 110.262 173.815 113.819 172.398C117.376 170.273 120.222 168.856 121.644 168.148C122.356 167.439 123.067 167.439 123.778 166.731C124.49 166.731 124.49 166.731 124.49 166.731Z" fill="#0288C9"/>
<path d="M97.4563 187.983C97.4563 187.983 97.4563 187.983 96.745 188.692C96.0336 188.692 95.3222 189.4 94.6109 190.109C93.1882 191.526 90.3427 192.942 87.4972 195.068C84.6518 197.193 81.8063 200.027 78.2495 202.86C76.8268 204.277 74.6927 205.694 73.27 207.82C71.8472 209.236 69.7132 211.362 68.2904 212.779C66.8677 214.195 64.7336 216.321 63.3109 218.446C61.8882 220.571 60.4654 221.988 59.0427 224.113C56.1972 227.656 54.0632 231.198 51.9291 234.032C49.795 236.865 48.3722 239.699 46.9495 241.116C46.2382 241.824 46.2382 242.533 45.5268 243.241C45.5268 243.95 44.8154 243.95 44.8154 243.95C44.8154 243.95 44.8154 243.95 45.5268 243.241C45.5268 242.533 46.2382 241.824 46.9495 241.116C48.3722 239.699 49.795 236.865 52.6404 234.032C54.7745 231.198 57.62 228.364 60.4654 224.822C61.8882 223.405 63.3109 221.28 64.7336 219.863C66.1563 218.446 67.5791 216.321 69.7132 214.904C71.1359 213.487 73.27 211.362 74.6927 209.945C76.1154 208.528 78.2495 206.403 79.6722 204.986C82.5177 202.152 86.0745 199.318 88.2086 196.485C91.0541 194.359 93.1882 192.234 94.6109 190.817C96.0336 189.4 96.745 188.692 97.4563 187.983Z" fill="#2E60A2"/>
<path d="M120.219 175.94C120.219 175.94 120.219 175.94 119.508 176.649C118.796 177.357 118.085 177.357 117.374 178.774C115.239 180.191 113.105 182.316 110.26 185.858C108.837 187.275 107.414 188.692 105.28 190.817C103.858 192.234 101.724 194.359 100.301 196.485C98.8781 198.61 96.744 200.735 95.3213 202.152C93.8986 204.277 91.7645 206.403 90.3418 208.528C88.919 210.653 87.4963 212.779 85.3622 214.904C83.9395 217.029 82.5168 219.155 81.094 221.28C78.2486 225.53 76.1145 229.781 73.9804 233.323C71.8463 236.865 70.4236 239.699 69.7122 241.824C69.0009 242.533 69.0009 243.95 68.2895 243.95C68.2895 244.658 67.5781 244.658 67.5781 244.658C67.5781 244.658 67.5781 244.658 68.2895 243.95C68.2895 243.241 69.0009 242.533 69.7122 241.824C71.1349 239.699 72.5577 236.865 74.6918 233.323C76.8259 229.781 78.9599 225.53 81.8054 221.988C83.2281 219.863 84.6509 217.738 86.0736 215.612C87.4963 213.487 88.919 211.362 91.0531 209.237C92.4759 207.111 94.6099 204.986 96.0327 202.861C97.4554 200.735 99.5895 198.61 101.012 196.485C102.435 194.359 104.569 192.943 105.992 190.817C107.414 189.4 108.837 187.275 110.26 185.858C113.105 183.025 115.239 180.191 117.374 178.774C118.085 178.065 118.796 177.357 120.219 175.94C120.219 176.649 120.219 175.94 120.219 175.94Z" fill="#EB027E"/>
<path d="M140.139 163.897C140.139 163.897 140.139 163.897 139.428 164.605C138.717 165.314 138.005 166.022 137.294 166.731C136.583 167.439 135.16 168.856 133.737 170.273C132.314 171.69 130.892 173.107 129.469 175.232C128.046 176.649 126.624 178.774 125.201 180.899C123.778 183.025 121.644 185.15 120.221 187.275C118.799 189.401 116.664 192.234 115.242 194.36C113.819 197.193 112.396 199.319 110.974 202.152C109.551 204.986 108.128 207.111 106.705 209.945C105.283 212.779 103.86 214.904 103.149 217.738C101.726 220.572 101.014 222.697 100.303 224.822C99.5917 226.947 98.169 229.073 97.4576 231.198C96.7463 233.323 96.0349 235.449 95.3235 236.866C94.6122 238.282 94.6122 239.699 93.9008 241.116C93.1894 242.533 93.1895 243.241 93.1895 243.95C93.1895 244.658 93.1895 244.658 93.1895 244.658C93.1895 244.658 93.1894 244.658 93.9008 243.95C93.9008 243.241 94.6122 242.533 95.3235 241.116C96.0349 239.699 96.7463 238.282 97.4576 236.866C98.169 235.449 98.8804 233.323 99.5917 231.198C100.303 229.073 101.726 226.947 102.437 224.822C103.86 222.697 104.571 219.863 105.994 217.738C107.417 215.613 108.839 212.779 110.262 209.945C111.685 207.111 113.108 204.986 114.53 202.152C115.953 199.319 117.376 197.193 118.799 194.36C120.221 192.234 121.644 189.401 123.067 187.275C124.489 185.15 125.912 183.025 127.335 180.899C128.758 178.774 130.18 176.649 131.603 175.232C133.026 173.107 134.449 171.69 135.16 170.273C136.583 168.856 137.294 167.439 138.005 166.731C138.717 166.022 139.428 164.605 140.139 164.605C140.139 163.897 140.139 163.897 140.139 163.897Z" fill="#02DBF3"/>
<path d="M145.829 164.605C145.829 164.605 145.829 164.605 145.117 165.314C145.117 166.022 144.406 166.731 143.695 167.439C142.983 168.147 142.983 169.564 142.272 170.981C141.561 172.398 140.849 173.815 140.138 175.94C139.426 177.357 138.715 179.482 138.004 181.608C137.292 183.733 136.581 185.858 135.87 187.983C135.158 190.109 134.447 192.234 133.736 195.068C133.024 197.193 132.313 200.027 131.601 202.152C130.89 204.277 130.179 207.111 130.179 209.236C129.467 211.362 129.467 214.196 128.756 216.321C128.045 218.446 128.045 220.571 127.333 222.697C127.333 224.822 126.622 226.947 126.622 228.364C126.622 230.489 125.911 231.906 125.911 233.323C125.911 234.74 125.911 236.157 125.199 236.865C125.199 238.282 125.199 238.991 125.199 239.699C125.199 240.408 125.199 240.408 125.199 240.408C125.199 240.408 125.199 240.408 125.199 239.699C125.199 238.991 125.199 238.282 125.911 237.574C125.911 236.865 126.622 235.448 126.622 234.032C126.622 232.615 127.333 231.198 128.045 229.073C128.756 226.947 128.756 225.53 129.467 223.405C130.179 221.28 130.179 219.155 130.89 217.029C131.601 214.904 132.313 212.779 132.313 209.945C133.024 207.82 133.736 204.986 134.447 202.861C135.158 200.735 135.87 197.902 136.581 195.776C137.292 193.651 138.004 190.817 138.715 188.692C139.426 186.567 140.138 184.441 140.849 182.316C141.561 180.191 142.272 178.065 142.272 176.649C142.983 175.232 142.983 173.106 143.695 171.69C144.406 170.273 144.406 168.856 145.117 168.147C145.117 167.439 145.829 166.022 145.829 166.022C145.829 164.605 145.829 164.605 145.829 164.605Z" fill="#EB027E"/>
<path d="M121.644 207.111C121.644 207.111 121.644 207.111 120.932 207.82C120.932 208.528 120.221 209.236 119.51 209.945C118.798 210.653 118.798 212.07 118.087 213.487C117.376 214.904 116.664 216.321 115.953 217.738C115.241 219.154 114.53 221.28 113.819 222.697C113.107 224.822 112.396 226.239 111.685 228.364C110.973 230.489 110.262 232.615 109.551 234.74C108.839 236.865 108.128 238.991 107.416 241.116C106.705 243.241 105.994 245.366 105.994 247.492C105.282 249.617 105.282 251.742 104.571 253.868C103.86 255.993 103.86 258.118 103.148 260.244C103.148 262.369 102.437 263.786 102.437 265.911C102.437 267.328 101.726 269.453 101.726 270.87C101.726 272.287 101.726 273.704 101.726 274.412C101.726 275.121 101.726 275.829 101.726 276.537C101.726 277.246 101.726 277.246 101.726 277.246C101.726 277.246 101.726 277.246 101.726 276.537C101.726 275.829 101.726 275.121 102.437 274.412C102.437 273.704 103.148 272.287 103.148 270.87C103.148 269.453 103.86 268.036 103.86 266.619C104.571 265.203 104.571 263.077 105.282 260.952C105.994 258.827 105.994 256.701 106.705 255.284C107.416 253.159 108.128 251.034 108.128 248.909C108.839 246.783 109.551 244.658 110.262 242.533C110.973 240.407 111.685 238.282 112.396 236.157C113.107 234.032 113.819 231.906 114.53 229.781C115.241 227.656 115.953 225.53 116.664 224.113C117.376 221.988 118.087 220.571 118.087 218.446C118.798 217.029 119.51 214.904 119.51 214.195C120.221 212.779 120.221 211.362 120.932 210.653C120.932 209.945 121.644 209.236 121.644 208.528C120.932 207.111 121.644 207.111 121.644 207.111Z" fill="#0288C9"/>
<path d="M145.831 207.819C145.831 207.819 145.831 208.528 145.831 209.236C145.831 209.945 145.831 210.653 145.119 212.07C144.408 214.904 144.408 218.446 143.696 223.405C143.696 225.53 142.985 228.364 142.985 230.489C142.985 233.323 142.274 236.157 142.274 238.99C142.274 241.824 141.562 244.658 141.562 248.2C141.562 251.034 140.851 254.576 140.851 257.41C140.851 260.243 140.851 263.786 140.14 266.619C140.14 269.453 140.14 272.287 140.14 275.829C140.14 281.496 140.14 287.164 140.14 291.414C140.14 295.665 140.14 299.916 140.14 302.749C140.14 304.166 140.14 304.875 140.14 305.583C140.14 306.291 140.14 307 140.14 307C140.14 307 140.14 306.291 140.14 305.583C140.14 304.875 140.14 304.166 140.14 302.749C140.14 299.916 140.14 296.373 140.851 291.414C140.851 287.164 141.562 281.496 141.562 275.829C141.562 272.995 141.562 270.161 142.274 267.328C142.274 264.494 142.985 260.952 142.985 258.118C142.985 255.284 143.696 251.742 143.696 248.908C143.696 246.075 144.408 243.241 144.408 239.699C144.408 236.865 145.119 234.031 145.119 231.198C145.119 228.364 145.831 226.239 145.831 224.113C146.542 219.154 146.542 215.612 146.542 212.778C146.542 211.362 146.542 210.653 146.542 209.945C145.831 208.528 145.831 207.819 145.831 207.819Z" fill="#0288C9"/>
<path d="M151.521 159.646C151.521 159.646 151.521 159.646 151.521 160.355C151.521 161.063 151.521 161.772 151.521 163.189C151.521 164.606 151.521 166.022 151.521 167.439C151.521 168.856 151.521 170.981 151.521 173.107C151.521 175.232 151.521 177.357 151.521 180.191C151.521 182.316 151.521 185.15 152.233 187.984C152.233 190.818 152.233 193.651 152.944 196.485C152.944 199.319 153.656 202.152 153.656 204.986C153.656 207.82 154.367 210.654 154.367 213.487C154.367 216.321 155.078 219.155 155.078 221.989C155.078 224.822 155.79 226.948 155.79 229.781C155.79 231.907 156.501 234.74 156.501 236.866C156.501 238.991 157.212 241.116 157.212 242.533C157.212 243.95 157.924 246.075 157.924 246.784C157.924 248.201 157.924 248.909 158.635 249.617C158.635 250.326 158.635 250.326 158.635 250.326V249.617C158.635 248.909 158.635 248.201 158.635 246.784C158.635 245.367 158.635 243.95 158.635 242.533C158.635 241.116 158.635 238.991 158.635 236.866C158.635 234.74 158.635 232.615 158.635 229.781C158.635 227.656 158.635 224.822 157.924 221.989C157.924 219.155 157.924 216.321 157.212 213.487C157.212 210.654 156.501 207.82 156.501 204.986C156.501 202.152 155.79 199.319 155.79 196.485C155.79 193.651 155.078 190.818 155.078 187.984C155.078 185.15 154.367 183.025 154.367 180.191C154.367 178.066 153.656 175.232 153.656 173.107C153.656 170.981 152.944 168.856 152.944 167.439C152.944 166.022 152.233 163.897 152.233 163.189C152.233 161.772 152.233 161.063 151.521 160.355V159.646Z" fill="#02DBF3"/>
<path d="M159.347 176.648C159.347 177.357 159.347 177.357 159.347 178.065C159.347 178.774 159.347 180.191 159.347 181.607C159.347 183.024 160.058 185.15 160.058 187.275C160.058 187.983 160.769 189.4 160.769 190.109C160.769 190.817 161.481 192.234 161.481 192.942C161.481 193.651 162.192 195.068 162.192 195.776C162.192 196.485 162.903 197.901 162.903 198.61C163.615 200.735 164.326 202.152 164.326 203.569C165.038 204.986 165.038 206.403 165.749 207.111C165.749 207.819 165.749 207.819 166.46 207.819V208.528C166.46 208.528 166.46 208.528 166.46 207.819C166.46 207.819 166.46 207.111 166.46 206.403C166.46 205.694 166.46 204.277 166.46 202.86C166.46 201.444 165.749 199.318 165.749 197.193C165.749 196.485 165.749 195.068 165.038 194.359C165.038 193.651 164.326 192.234 164.326 191.526C164.326 190.817 163.615 189.4 163.615 188.692C163.615 187.983 162.903 186.567 162.903 185.858C162.192 183.733 161.481 182.316 161.481 180.899C160.769 179.482 160.058 178.065 160.058 177.357C159.347 177.357 159.347 177.357 159.347 176.648Z" fill="#2E60A2"/>
<path d="M170.018 234.031C170.018 234.74 170.018 235.448 170.018 236.157C170.018 237.574 170.018 238.991 170.018 241.116C170.018 243.241 170.018 245.366 170.018 248.2C170.018 249.617 170.018 251.034 170.018 251.742C170.018 253.159 170.018 254.576 170.729 255.993C170.729 257.41 170.729 258.827 171.44 260.243C171.44 261.66 171.44 263.077 172.152 263.786C172.152 266.619 172.863 268.745 172.863 270.87C172.863 272.995 173.574 274.412 173.574 275.829C173.574 276.537 173.574 276.537 173.574 277.246V277.954C173.574 277.954 173.574 277.954 173.574 277.246C173.574 277.246 173.574 276.537 173.574 275.829C173.574 274.412 173.574 272.995 173.574 270.87C173.574 268.745 173.574 266.619 173.574 263.786C173.574 262.369 173.574 260.952 173.574 260.243C173.574 258.827 173.574 257.41 173.574 255.993C173.574 254.576 173.574 253.159 172.863 251.742C172.863 250.325 172.863 248.909 172.152 248.2C172.152 245.366 171.44 243.241 170.729 241.116C170.018 238.991 170.018 237.574 170.018 236.157C170.729 234.74 170.729 234.74 170.018 234.031Z" fill="#2E60A2"/>
<path d="M168.593 184.441C168.593 184.441 168.593 184.441 169.304 185.15C169.304 185.858 170.015 186.566 170.727 187.275C171.438 189.4 172.861 192.234 174.284 195.068C174.995 196.485 175.706 198.61 177.129 200.735C177.841 202.86 179.263 204.986 179.975 207.111C180.686 209.236 182.109 211.362 182.82 213.487C183.531 215.612 184.954 217.737 185.666 219.863C186.377 221.988 187.8 224.113 188.511 226.239C189.222 228.364 189.934 230.489 191.356 232.615C192.779 236.865 194.202 241.116 195.625 243.949C197.047 247.492 197.759 250.325 198.47 252.451C198.47 253.159 199.181 254.576 199.181 254.576C199.181 255.284 199.181 255.284 199.181 255.284C199.181 255.284 199.181 255.284 199.181 254.576C199.181 253.868 199.181 253.159 198.47 252.451C197.759 250.325 197.047 247.492 196.336 243.949C195.625 240.407 194.202 236.157 192.779 231.906C192.068 229.781 191.356 227.656 190.645 225.53C189.934 223.405 189.222 221.28 187.8 218.446C187.088 216.321 185.666 214.195 184.954 212.07C184.243 209.945 182.82 207.819 182.109 205.694C181.397 203.569 179.975 201.444 179.263 200.027C178.552 197.901 177.129 196.485 176.418 195.068C174.995 191.525 172.861 189.4 172.15 187.275C171.438 186.566 171.438 185.858 170.727 185.15C168.593 185.15 168.593 184.441 168.593 184.441Z" fill="#EB027E"/>
<path d="M181.398 232.615C181.398 233.323 181.398 234.032 182.11 234.74C182.11 236.157 182.821 238.282 183.533 241.116C184.244 243.95 184.955 246.784 185.667 249.617C186.378 251.034 186.378 253.16 187.089 254.576C187.801 255.993 187.801 258.119 188.512 259.535C189.223 260.952 189.223 263.078 189.935 264.494C190.646 265.911 190.646 268.037 191.358 269.453C192.069 272.996 192.78 275.829 193.492 277.955C194.203 280.788 194.914 282.914 194.914 284.331C194.914 285.039 195.626 285.747 195.626 285.747C195.626 286.456 195.626 286.456 195.626 286.456C195.626 286.456 195.626 286.456 195.626 285.747C195.626 285.039 195.626 285.039 195.626 283.622C195.626 282.205 194.914 280.08 194.914 277.246C194.203 274.413 194.203 271.579 193.492 268.037C193.492 266.62 192.78 264.494 192.78 263.078C192.069 261.661 192.069 259.535 191.358 258.119C190.646 256.702 190.646 254.576 189.935 253.16C189.223 251.743 189.223 249.617 188.512 248.201C187.801 245.367 186.378 241.825 185.667 239.699C184.955 236.866 184.244 235.449 183.533 234.032C182.11 234.032 181.398 233.323 181.398 232.615Z" fill="#0288C9"/>
<path d="M170.018 165.313C170.018 165.313 170.018 165.313 170.729 166.022C171.44 166.73 172.152 167.439 172.863 168.147C173.574 168.856 174.997 170.273 176.42 171.689C177.843 173.106 179.265 174.523 180.688 175.94C182.111 177.357 184.245 179.482 185.668 181.607C187.802 183.733 189.224 185.858 191.358 187.983C193.493 190.109 194.915 192.234 197.049 194.359C199.184 196.485 200.606 199.318 202.74 201.444C204.874 203.569 206.297 206.403 208.431 208.528C210.565 210.653 211.988 213.487 213.411 215.612C214.833 217.737 216.968 219.863 218.39 221.988C219.813 224.113 221.236 226.239 222.658 228.364C224.081 230.489 224.793 231.906 226.215 233.323C226.927 234.74 228.349 236.157 229.061 237.574C229.772 238.99 230.484 239.699 230.484 240.407C231.195 241.116 231.195 241.116 231.195 241.116C231.195 241.116 231.195 241.116 230.484 240.407C230.484 239.699 229.772 238.99 229.061 237.574C228.349 236.157 227.638 234.74 226.927 233.323C226.215 231.906 225.504 229.781 224.081 227.656C222.659 225.53 221.947 223.405 220.524 221.28C219.102 219.154 217.679 217.029 216.256 214.195C214.833 212.07 212.699 209.236 211.277 207.111C209.854 204.986 207.72 202.152 205.586 200.027C203.452 197.901 202.029 195.068 199.895 192.942C197.761 190.817 195.627 188.692 194.204 186.566C192.07 184.441 189.936 182.316 188.513 180.899C186.379 178.774 184.956 177.357 182.822 175.94C181.399 174.523 179.265 173.106 177.843 171.689C176.42 170.273 174.997 169.564 174.286 168.856C172.863 168.147 172.152 167.439 171.44 166.73C170.018 165.313 170.018 165.313 170.018 165.313Z" fill="#02DBF3"/>
<path d="M184.953 160.355C184.953 160.355 184.953 160.355 185.664 161.063C186.376 161.063 187.087 161.772 187.798 162.48C189.221 163.188 189.933 163.897 191.355 164.605C192.778 165.314 194.201 166.022 196.335 167.439C198.469 168.147 199.892 169.564 202.026 170.981C204.16 172.398 206.294 173.107 208.428 174.523C210.562 175.94 212.696 177.357 214.83 178.774C216.964 180.191 219.098 181.608 221.944 183.025C224.078 184.441 226.212 185.858 229.058 187.984C231.192 189.4 233.326 190.817 235.46 192.943C237.594 194.36 239.728 195.776 241.151 197.193C243.285 198.61 244.708 200.027 246.13 201.444C247.553 202.861 248.976 204.278 250.398 204.986C251.821 206.403 252.533 207.111 253.955 207.82C254.667 208.528 255.378 209.237 256.089 209.945C256.801 210.653 256.801 210.653 256.801 210.653C256.801 210.653 256.801 210.653 256.089 209.945C255.378 209.237 254.667 208.528 253.955 207.82C253.244 207.111 251.821 205.694 251.11 204.986C249.687 203.569 248.264 202.152 246.842 200.735C245.419 199.319 243.996 197.902 241.862 196.485C239.728 195.068 238.305 192.943 236.171 191.526C234.037 190.109 231.903 187.984 229.769 186.567C227.635 185.15 225.501 183.025 222.655 181.608C220.521 180.191 217.676 178.774 215.542 177.357C213.408 175.94 210.562 174.523 208.428 173.107C206.294 171.69 204.16 170.981 202.026 169.564C199.892 168.147 197.758 167.439 195.623 166.731C193.489 166.022 192.067 165.314 190.644 164.605C189.221 163.897 187.798 163.188 186.376 163.188C184.953 162.48 184.242 162.48 183.53 162.48C185.664 160.355 184.953 160.355 184.953 160.355Z" fill="#2E60A2"/>
<path d="M248.265 221.988C248.265 221.988 246.131 218.446 241.863 214.195C241.152 212.778 239.729 212.07 238.306 210.653C236.883 209.236 236.172 207.819 234.749 206.402C233.327 204.985 231.904 203.569 230.481 202.152C229.059 200.735 227.636 199.318 226.213 197.901C224.79 196.484 223.368 195.067 221.233 193.65C219.811 192.234 218.388 190.817 216.965 190.108C214.12 187.275 211.274 185.149 208.429 183.732C203.449 180.19 199.893 178.065 199.893 178.065C199.893 178.065 203.449 180.899 208.429 184.441C210.563 186.566 213.408 188.691 216.965 191.525C218.388 192.942 219.811 194.359 221.233 195.776C222.656 197.193 224.079 198.609 225.502 200.026C226.924 201.443 228.347 202.86 229.77 204.277C231.193 205.694 232.615 207.111 234.038 208.528C235.461 209.944 236.883 211.361 238.306 212.778C239.729 214.195 240.44 215.612 241.863 216.32C245.42 219.154 248.265 221.988 248.265 221.988Z" fill="#EB027E"/>
<path d="M278.853 184.441C278.853 184.441 278.142 184.441 277.431 183.733C276.719 183.024 275.297 182.316 273.874 181.608C271.028 180.191 266.76 177.357 261.781 175.232C258.935 173.815 256.09 172.398 253.244 170.981C250.399 169.564 246.842 168.147 243.997 166.73C240.44 165.314 237.594 163.897 234.038 163.188C230.481 161.771 226.924 161.063 223.367 160.355C219.81 159.646 216.253 158.229 212.697 157.521C209.14 156.812 205.583 156.104 202.738 155.396C196.335 154.687 189.933 153.979 184.242 153.27C178.551 153.27 174.283 153.27 171.438 153.27C170.015 153.27 168.592 153.27 167.881 153.27C167.169 153.27 166.458 153.27 166.458 153.27C166.458 153.27 167.169 153.27 167.881 153.27C168.592 153.27 170.015 153.27 171.438 153.27C174.283 153.27 179.263 153.27 184.242 153.979C189.933 154.687 195.624 155.396 202.738 156.104C206.294 156.812 209.851 157.521 212.697 158.229C216.253 158.938 219.81 159.646 223.367 161.063C226.924 161.771 230.481 163.188 234.038 163.897C237.594 165.314 241.151 166.022 243.997 167.439C247.553 168.856 250.399 170.273 253.244 170.981C256.09 172.398 258.935 173.815 261.781 174.523C266.76 176.649 271.028 179.482 274.585 180.899C276.008 181.608 277.431 182.316 278.142 183.024C278.142 184.441 278.853 184.441 278.853 184.441Z" fill="#2E60A2"/>
<path d="M286.681 162.48C286.681 162.48 285.97 162.48 285.97 161.771C285.258 161.771 284.547 161.063 283.124 160.354C281.701 159.646 280.279 158.938 278.145 158.229C276.01 157.521 274.588 156.812 272.454 156.104C270.32 155.395 268.185 154.687 265.34 153.979C262.495 153.27 260.36 152.562 257.515 151.853C254.67 151.145 251.824 150.436 248.979 149.728C246.133 149.02 243.288 148.311 240.442 148.311C237.597 147.603 234.751 147.603 231.906 146.894C229.06 146.894 226.215 146.186 223.37 146.186C220.524 146.186 218.39 146.186 215.545 146.186C213.41 146.186 210.565 146.186 208.431 146.186C206.297 146.186 204.163 146.186 202.74 146.186C201.317 146.186 199.895 146.186 198.472 146.894C197.049 146.894 196.338 146.894 195.626 146.894C194.915 146.894 194.915 146.894 194.915 146.894H195.626C196.338 146.894 197.049 146.894 198.472 146.894C199.895 146.894 201.317 146.894 202.74 146.894C204.163 146.894 206.297 146.894 208.431 146.894C210.565 146.894 212.699 146.894 215.545 147.603C217.679 147.603 220.524 148.311 223.37 148.311C226.215 148.311 229.06 149.02 231.906 149.02C234.751 149.728 237.597 149.728 240.442 150.436C243.288 151.145 246.133 151.145 248.979 151.853C251.824 152.562 254.67 153.27 257.515 153.27C260.36 153.979 263.206 154.687 265.34 155.395C267.474 156.104 270.32 156.812 272.454 157.521C274.588 158.229 276.722 158.938 278.145 158.938C279.567 159.646 281.701 159.646 282.413 160.354C283.835 161.063 284.547 161.063 285.258 161.063C285.97 162.48 286.681 162.48 286.681 162.48Z" fill="#02DBF3"/>
<path d="M280.989 137.685C280.989 137.685 280.278 137.685 279.567 137.685C278.855 137.685 277.433 136.976 276.01 136.976C273.164 136.268 268.185 135.56 263.205 134.851C260.36 134.851 257.514 134.143 254.669 134.143C251.824 134.143 248.267 133.434 245.421 133.434C242.576 133.434 239.019 133.434 235.462 133.434C231.905 133.434 229.06 133.434 225.503 134.143C221.946 134.143 219.101 134.851 215.544 134.851C212.698 135.56 209.142 135.56 206.296 136.268C200.605 136.976 194.914 138.393 190.646 139.81C186.378 141.227 182.11 142.644 179.976 143.352C178.553 144.061 177.842 144.061 177.13 144.769C176.419 144.769 176.419 145.478 176.419 145.478C176.419 145.478 177.13 145.478 177.842 145.478C178.553 145.478 179.264 144.769 180.687 144.769C183.533 144.061 187.089 142.644 192.069 141.936C197.049 140.519 202.028 139.81 208.43 139.102C211.276 138.393 214.833 138.393 217.678 137.685C220.524 136.976 224.08 136.976 227.637 136.976C231.194 136.976 234.039 136.268 237.596 136.268C241.153 136.268 243.999 136.268 247.555 136.268C250.401 136.268 253.958 136.268 256.803 136.268C259.648 136.268 262.494 136.268 265.339 136.976C270.319 137.685 274.587 137.685 278.144 138.393C279.567 138.393 280.989 139.102 281.701 139.102C280.278 137.685 280.989 137.685 280.989 137.685Z" fill="#EB027E"/>
<path d="M264.628 111.473C263.916 111.473 263.205 111.473 262.494 111.473C261.071 111.473 258.937 111.473 256.091 112.181C253.957 112.181 251.112 112.89 248.266 113.598C246.844 113.598 245.421 114.307 243.998 114.307C242.575 114.307 241.153 115.015 239.73 115.723C238.307 116.432 236.885 116.432 235.462 117.14C234.039 117.849 232.616 117.849 231.194 118.557C228.348 119.266 226.214 120.682 224.08 121.391C221.946 122.099 220.523 122.808 219.812 123.516C219.1 123.516 219.1 124.225 218.389 124.225H217.678C217.678 124.225 217.678 124.225 218.389 124.225C219.1 124.225 219.1 124.225 219.812 123.516C221.235 123.516 223.369 122.808 225.503 122.099C227.637 121.391 230.482 120.682 233.328 119.974C234.75 119.266 236.173 119.266 237.596 118.557C239.019 117.849 240.441 117.849 241.864 117.14C243.287 116.432 244.71 116.432 246.132 115.723C247.555 115.015 248.978 115.015 250.4 114.307C253.246 113.598 255.38 112.89 257.514 112.181C259.648 111.473 261.071 110.764 262.494 110.764C263.205 111.473 263.916 111.473 264.628 111.473Z" fill="#0288C9"/>
<path d="M224.792 103.68C224.792 103.68 224.792 103.68 224.08 103.68C223.369 103.68 222.658 104.388 221.946 104.388C219.812 105.097 216.967 105.805 214.121 107.222C210.564 108.639 207.008 110.056 203.451 111.473C201.317 112.181 199.894 113.598 197.76 114.306C195.626 115.015 194.203 116.432 192.069 117.14C189.935 118.557 188.512 119.265 186.378 120.682C184.244 122.099 182.821 122.808 181.398 124.224C177.842 126.35 174.996 128.475 172.862 130.6C170.728 132.726 168.594 134.143 167.171 135.559C166.46 136.268 165.748 136.976 165.748 136.976L165.037 137.685C165.037 137.685 165.037 137.685 165.748 136.976C166.46 136.976 167.171 136.268 167.883 135.559C169.305 134.851 171.439 132.726 174.285 131.309C177.13 129.892 179.976 127.767 183.533 125.641C184.955 124.933 187.089 123.516 189.223 122.808C191.358 121.391 192.78 120.682 194.914 119.974C197.048 119.265 198.471 117.849 200.605 117.14C202.739 116.432 204.162 115.015 206.296 114.306C209.853 112.181 213.41 110.764 216.255 109.347C219.101 107.931 221.946 106.514 223.369 105.805C223.369 105.097 223.369 104.388 224.792 103.68Z" fill="#02DBF3"/>
<path d="M241.152 77.4678C241.152 77.4678 240.441 77.4678 239.729 78.1762C239.018 78.1762 238.307 78.8846 236.884 79.5931C234.038 81.0099 230.482 82.4268 226.213 84.5521C224.079 85.969 221.945 86.6774 219.1 88.0943C216.966 89.5111 214.12 90.928 211.986 92.3449C209.141 93.7617 207.007 95.1786 204.161 97.3039C201.316 98.7208 199.182 100.846 196.336 102.263C194.202 104.388 191.357 105.805 189.223 107.93C187.088 110.056 184.243 111.473 182.109 113.598C177.841 117.14 173.573 120.682 170.727 124.224C167.17 127.058 165.036 129.892 162.902 132.017C162.191 132.726 161.479 133.434 160.768 134.142C160.057 134.851 160.057 134.851 160.057 134.851C160.057 134.851 160.057 134.851 160.768 134.142C161.479 133.434 162.191 132.726 162.902 132.017C165.036 129.892 167.882 127.766 170.727 124.224C174.284 121.391 177.841 117.848 182.82 114.306C184.954 112.181 187.088 110.764 189.934 108.639C192.068 106.514 194.913 105.097 197.048 102.971C199.893 100.846 202.027 99.4292 204.873 98.0123C207.718 96.5955 209.852 94.4702 212.698 93.0533C214.832 91.6364 217.677 90.2196 219.811 88.8027C221.945 87.3858 224.079 85.969 226.213 85.2605C230.482 83.1352 234.038 81.0099 236.173 80.3015C237.595 79.5931 238.307 78.8846 239.018 78.8846C240.441 77.4678 241.152 77.4678 241.152 77.4678Z" fill="#EB027E"/>
<path d="M205.584 76.7595C204.873 76.7595 204.873 77.4679 204.162 77.4679C203.45 78.1764 202.028 78.8848 200.605 79.5932C199.182 80.3017 197.759 81.7185 196.337 83.1354C195.625 83.8438 194.914 84.5523 194.203 85.2607C193.491 85.9691 192.78 86.6776 192.068 87.386C191.357 88.0944 190.646 88.8029 189.934 89.5113C189.223 90.2197 188.512 90.9282 187.8 91.6366C186.378 93.0535 185.666 94.4703 184.955 95.8872C184.243 97.3041 183.532 98.0125 182.821 98.7209C182.821 99.4294 182.821 99.4294 182.109 99.4294L182.821 98.7209C183.532 98.0125 184.955 97.3041 185.666 96.5956C187.089 95.8872 188.512 94.4703 189.934 93.0535C190.646 92.345 191.357 91.6366 192.068 90.9282C192.78 90.2197 193.491 89.5113 194.203 88.8029C194.914 88.0944 195.625 87.386 196.337 86.6776C197.048 85.9691 197.759 85.2607 198.471 84.5523C199.893 83.1354 200.605 81.7185 202.028 81.0101C202.739 79.5932 203.45 78.8848 204.162 78.1764C205.584 77.468 205.584 77.468 205.584 76.7595Z" fill="#0288C9"/>
<path d="M184.244 191.526C184.244 192.234 184.956 192.943 184.956 192.943C185.667 194.359 186.378 195.776 187.09 197.193C187.801 199.318 189.224 201.444 190.646 203.569C191.358 204.986 192.069 205.694 192.781 207.111C193.492 208.528 194.203 209.236 194.915 210.653C195.626 212.07 196.337 212.779 197.049 214.195C197.76 215.612 198.471 216.321 199.183 217.738C200.605 219.863 201.317 221.988 202.74 224.114C203.451 226.239 204.874 227.656 205.585 228.364C205.585 229.073 206.296 229.073 206.296 229.781V230.489C206.296 230.489 206.296 230.489 206.296 229.781C206.296 229.781 206.296 229.073 205.585 228.364C205.585 226.947 204.874 225.53 204.162 223.405C203.451 221.28 202.74 219.155 201.317 217.029C200.605 215.612 199.894 214.904 199.894 213.487C199.183 212.07 198.471 211.362 197.76 209.945C197.049 208.528 196.337 207.82 195.626 206.403C194.915 204.986 194.203 204.277 193.492 202.861C192.069 200.735 190.646 198.61 189.224 196.485C187.801 195.068 187.09 193.651 186.378 192.234C184.956 192.234 184.956 192.234 184.244 191.526Z" fill="#0288C9"/>
<path d="M105.992 49.8391C105.992 49.8391 135.158 83.8439 140.138 125.641C140.138 125.641 139.426 74.6343 105.992 49.8391Z" fill="#02DBF3"/>
<path d="M203.452 15.126C203.452 15.126 157.924 45.5886 153.656 107.222C153.656 107.222 153.656 40.6295 203.452 15.126Z" fill="#0288C9"/>
<path d="M214.833 197.193C214.833 197.193 246.844 224.822 252.535 261.66C252.535 261.66 234.751 213.487 214.833 197.193Z" fill="#0288C9"/>
<path d="M60.4655 200.027C60.4655 200.027 34.1451 214.195 22.0519 248.2C21.3405 247.492 39.1246 219.863 60.4655 200.027Z" fill="#EB027E"/>
<path d="M244.711 182.316C244.711 182.316 283.125 200.736 290.95 242.533C290.95 242.533 278.145 203.569 244.711 182.316Z" fill="#02DBF3"/>
<path d="M289.526 226.947L288.814 218.446L287.392 226.947L283.835 219.863L285.969 229.073C285.969 229.073 278.855 225.53 278.144 224.822C277.433 224.114 284.546 232.615 284.546 232.615L272.453 230.489L283.835 236.157L273.165 239.699L284.546 238.991L280.278 246.075L285.969 241.824L280.989 254.576L288.814 243.95L289.526 249.617L290.949 243.95L296.64 258.118L293.794 243.95L298.774 248.909L293.794 241.116L308.021 247.492L293.794 239.699L313.001 240.407L295.217 238.282L305.887 234.74L297.351 236.157L299.485 230.489L293.794 234.74L298.774 218.446L291.66 232.615L292.371 226.239L289.526 226.947Z" fill="#7DE8F2"/>
<path d="M81.094 53.3816L80.3827 47.0057L79.6713 53.3816L76.8259 47.7141L78.2486 54.7984C78.2486 54.7984 72.5577 51.9647 72.5577 51.2563C71.8463 50.5478 77.5372 57.6322 77.5372 57.6322L67.5781 56.2153L76.1145 60.4659L68.2895 62.5912L76.8259 61.8828L73.269 67.5502L77.5372 64.0081L73.9804 73.9261L80.3827 65.4249L81.094 69.6755L82.5168 64.7165L86.7849 75.343L84.6509 64.7165L88.2077 68.2587L84.6509 62.5912L95.3213 67.5502L83.9395 61.1743H98.8781L85.3622 59.7575L93.8986 56.9237L87.4963 58.3406L88.919 54.09L84.6509 57.6322L88.2077 44.8804L82.5168 55.5069L83.2281 50.5478L81.094 53.3816Z" fill="#2471BA"/>
<path d="M93.1883 238.282L92.477 231.906L91.7656 238.282L88.9201 232.615L90.3429 239.699C90.3429 239.699 84.652 236.865 84.652 236.157C83.9406 235.448 89.6315 242.533 89.6315 242.533L80.3838 241.116L88.9201 245.366L81.0951 248.2L89.6315 247.492L86.0747 252.451L90.3429 248.908L86.7861 258.827L93.1883 250.325L93.8997 254.576L95.3224 249.617L99.5906 260.243L97.4565 249.617L101.013 253.159L96.7451 248.2L107.416 253.159L96.0338 246.783H110.972L97.4565 245.366L105.993 242.533L99.5906 243.949L101.013 239.699L96.7451 243.241L100.302 230.489L94.6111 241.116L95.3224 236.157L93.1883 238.282Z" fill="#7DE8F2"/>
<path d="M23.4743 241.824L22.7629 237.573L22.0516 241.824L19.9175 238.282L21.3402 243.241C21.3402 243.241 17.7834 241.115 17.072 241.115L20.6288 245.366L14.2266 243.949L19.9175 246.783L14.9379 248.2L20.6288 247.491L18.4947 251.034L21.3402 248.908L19.2061 255.284L23.4743 249.617V252.45L24.1857 249.617L27.0311 256.701L25.6084 249.617L28.4538 252.45L25.6084 248.2L32.722 251.742L25.6084 247.491H35.5675L26.3197 246.075L32.0107 243.949L27.7425 244.658L29.1652 241.824L26.3197 243.949L29.1652 235.448L25.6084 242.532V238.99L23.4743 241.824Z" fill="#E96AB0"/>
<path d="M239.018 72.5085L238.307 68.2579L237.596 72.5085L235.461 68.9664L236.884 73.9254C236.884 73.9254 233.327 71.8001 232.616 71.8001L236.173 76.0507L229.771 74.6338L235.461 77.4675L229.771 78.8844L235.461 78.176L233.327 81.7181L236.173 79.5928L234.75 85.9687L239.018 80.3013V83.135L239.73 80.3013L242.575 87.3856L241.152 80.3013L243.998 83.135L241.152 79.5928L248.266 83.135L241.152 78.8844H251.111L241.864 77.4675L247.555 75.3423L243.286 76.0507L244.709 73.217L241.864 75.3423L244.709 66.8411L241.152 73.9254V70.3832L239.018 72.5085Z" fill="#E96AB0"/>
<path d="M197.76 254.576V251.034L197.048 254.576L195.625 251.742L196.337 255.993C196.337 255.993 193.491 254.576 192.78 253.868L195.625 257.41L189.935 256.701L194.914 258.827L190.646 260.243L195.625 259.535L193.491 262.369L195.625 260.243L193.491 265.911L197.048 260.952V263.077L197.76 260.243L199.894 266.619L198.471 260.243L200.605 262.369L198.471 258.827L204.162 261.66L197.76 258.118H206.296L198.471 257.41L202.739 255.993L199.182 256.701L199.894 254.576L199.182 256.701L201.316 249.617L198.471 255.993V253.159L197.76 254.576Z" fill="#E96AB0"/>
<path d="M85.3637 131.309C85.3637 131.309 36.2796 124.933 11.3818 138.393C11.3818 137.685 46.95 117.14 85.3637 131.309Z" fill="#0288C9"/>
<path d="M147.252 153.979C147.252 153.979 144.406 132.726 105.281 123.516C105.281 123.516 137.293 120.683 147.252 153.979Z" fill="#02DBF3"/>
<path d="M147.962 89.5118C147.962 89.5118 149.384 44.1721 162.189 32.8372C162.189 32.8372 141.559 45.5889 147.962 89.5118Z" fill="#02DBF3"/>
<path d="M133.737 147.603C133.737 147.603 98.1688 115.015 57.6211 119.974C57.6211 119.974 94.612 119.266 133.737 147.603Z" fill="#EB027E"/>
<path d="M165.748 149.02C165.748 149.02 179.975 133.434 208.43 127.058C208.43 127.058 179.975 126.35 165.748 149.02Z" fill="#02DBF3"/>
<path d="M170.017 115.015C170.017 115.015 157.212 124.933 155.79 145.477C155.79 145.477 155.078 118.557 170.017 115.015Z" fill="#02DBF3"/>
<path d="M23.4761 189.401L22.7648 183.733L22.0534 189.401L19.9193 184.442L21.342 190.818C21.342 190.818 17.0738 187.984 16.3625 187.984C15.6511 187.984 20.6307 192.943 20.6307 192.943L12.8057 191.526L19.9193 195.068L12.8057 197.193L19.9193 196.485L17.0738 200.736L21.342 197.902L18.4966 206.403L23.4761 199.319V202.861L24.8988 198.61L28.4557 207.82L26.3216 198.61L29.8784 201.444L26.3216 196.485L35.5693 201.444L26.3216 196.485H38.4148L27.0329 195.068L34.1466 192.943L28.4557 193.651L29.8784 190.109L26.3216 192.943L29.8784 182.316L24.8988 191.526V187.275L23.4761 189.401Z" fill="#2471BA"/>
<path d="M273.164 177.357L272.453 173.107V177.357L270.319 173.815L271.742 178.774C271.742 178.774 268.185 176.649 267.473 176.649L271.03 180.899L264.628 179.482L270.319 182.316L264.628 183.733L270.319 183.025L268.185 186.567L271.03 184.441L268.896 191.526L273.164 185.858V188.692L273.876 185.858L276.721 192.943L275.298 185.858L278.144 188.692L275.298 184.441L282.412 187.984L275.298 183.733H285.257L276.01 182.316L281.701 180.191L277.432 180.899L278.855 178.066L276.01 180.191L278.855 171.69L275.298 178.774V175.232L273.164 177.357Z" fill="#2471BA"/>
<path d="M201.315 8.74997L200.603 1.66564L199.181 8.74997L195.624 2.37408L197.758 10.1668L191.356 6.62467C190.644 5.91624 197.046 13.709 197.046 13.709L186.376 11.5837L196.335 16.5427L187.087 19.3765L196.335 18.668L192.778 24.3355L197.758 20.7933L193.49 32.1282L200.603 22.9186L201.315 27.8777L202.737 22.9186L207.717 34.962L205.583 22.9186L209.851 27.1692L205.583 20.7933L217.676 26.4608L205.583 20.0849L221.944 20.7933L206.294 18.668L215.542 15.8343L208.428 17.2512L210.562 12.2921L204.16 14.4174L208.428 0.248779L202.026 12.2921L202.737 7.33311L201.315 8.74997Z" fill="#2471BA"/>
<path d="M127.36 220.881C127.36 220.881 145.317 210.107 175.443 219.241C175.443 219.241 169.181 227.205 150.397 227.205C131.613 227.205 127.36 220.881 127.36 220.881Z" fill="#CCCCCC"/>
<path d="M127.36 220.881C127.36 220.881 145.317 210.107 175.443 219.241C175.443 219.241 169.181 227.205 150.397 227.205C131.613 227.205 127.36 220.881 127.36 220.881Z" fill="#CCCCCC"/>
<path opacity="0.42" d="M139.647 218.071C140.119 217.602 140.592 217.017 141.064 216.431C132.204 217.954 127.36 220.764 127.36 220.764C127.36 220.764 128.778 222.872 133.504 224.629C135.512 222.404 137.757 220.296 139.647 218.071Z" fill="#BEBEBE"/>
<path opacity="0.42" d="M170.834 217.953C169.653 220.061 168.353 222.286 167.171 224.394C173.198 222.052 175.561 219.124 175.561 219.124C173.907 218.773 172.371 218.304 170.834 217.953Z" fill="#BEBEBE"/>
<path d="M127.359 220.881L126.65 227.205C126.65 227.205 136.456 234.466 151.578 234.466C166.699 234.466 176.15 226.853 176.15 226.853L175.678 219.241C175.678 219.241 164.455 226.853 151.578 226.853C138.701 226.853 127.359 220.881 127.359 220.881Z" fill="#CCCCCC"/>
<path opacity="0.42" d="M167.879 223.223C164.926 224.511 161.264 225.682 157.247 226.267C157.011 228.844 156.893 231.42 156.656 234.114C161.736 233.528 165.989 232.123 169.179 230.718C168.825 228.258 168.352 225.799 167.879 223.223Z" fill="#E0E0E0"/>
<path opacity="0.55" d="M143.308 226.034C138.819 225.214 134.802 223.926 131.967 222.755C131.612 224.98 131.258 227.322 130.785 229.547C133.502 230.952 137.637 232.592 142.717 233.529C142.835 231.069 143.072 228.61 143.308 226.034Z" fill="#757575"/>
<path d="M147.914 205.306C147.914 205.306 145.67 215.026 140.117 220.53C140.117 220.53 149.923 228.493 162.8 220.53C162.8 220.53 155.83 214.206 154.766 205.306H147.914Z" fill="#9B9B9B"/>
<path opacity="0.35" d="M151.341 213.269C153.114 213.035 154.886 212.45 156.658 211.864C155.831 209.873 155.122 207.765 154.767 205.306H147.797C147.797 205.306 146.97 208.702 145.198 212.567C147.443 213.152 149.569 213.503 151.341 213.269Z" fill="#737373"/>
<path opacity="0.55" d="M150.281 205.306H149.926C148.744 216.548 145.79 223.341 145.79 223.341C147.445 223.809 149.454 224.16 151.699 224.043C151.817 224.043 150.044 220.062 150.281 205.306Z" fill="#505050"/>
<path d="M151.459 208.701C155.961 208.701 159.611 206.919 159.611 204.72C159.611 202.521 155.961 200.738 151.459 200.738C146.957 200.738 143.308 202.521 143.308 204.72C143.308 206.919 146.957 208.701 151.459 208.701Z" fill="#9B9B9B"/>
<path d="M156.421 201.558C157.484 202.494 157.484 204.368 150.987 204.485C150.396 204.485 143.898 204.134 146.143 201.675C144.371 202.377 143.308 203.431 143.308 204.72C143.308 206.945 146.97 208.701 151.459 208.701C155.948 208.701 159.611 206.945 159.611 204.72C159.611 203.431 158.311 202.26 156.421 201.558Z" fill="#CCCCCC"/>
<path d="M160.438 166.777C157.367 168.417 153.705 168.651 150.278 168.534C147.207 168.417 144.726 167.948 142.009 167.011C143.781 171.93 148.506 187.505 148.506 202.847C151.696 204.955 154.295 202.847 154.295 202.847C154.295 202.847 153.705 183.524 161.029 166.66C160.911 166.777 160.793 166.777 160.438 166.777Z" fill="#9B9B9B"/>
<path opacity="0.55" d="M150.281 168.534C148.863 168.534 147.563 168.299 146.263 168.065C146.972 170.993 150.399 200.855 150.044 203.549C150.281 203.666 150.517 203.666 150.753 203.666C150.753 203.783 151.462 168.534 150.281 168.534Z" fill="#505050"/>
<path d="M186.545 115.249C186.545 115.249 205.211 95.9264 216.553 102.602C231.438 111.385 225.413 133.752 205.448 145.229C189.026 154.715 182.529 153.778 181.82 158.696C181.111 163.732 187.254 161.507 186.073 159.399C186.073 159.399 183.356 160.336 183.71 157.877C184.065 155.3 192.216 153.895 191.271 163.264C190.917 166.894 185.246 170.876 179.575 167.597C176.149 165.606 175.322 160.219 177.331 155.886C183.828 142.418 196.233 146.868 206.629 131.527C217.852 115.015 207.692 110.682 203.203 112.322C198.477 114.078 192.57 118.528 185.718 125.555L186.545 115.249Z" fill="#CCCCCC"/>
<path opacity="0.55" d="M197.769 106.115C191.389 110.213 186.546 115.249 186.546 115.249L185.719 125.554C188.79 122.393 191.744 119.816 194.343 117.708C195.052 113.727 196.233 109.862 197.769 106.115Z" fill="#757575"/>
<path opacity="0.55" d="M179.931 159.282C180.167 152.841 185.247 148.157 186.074 146.752C182.648 148.743 179.695 151.202 177.45 156.003C175.324 160.336 176.269 165.723 179.695 167.714C181.231 168.651 182.767 169.002 184.184 168.885C182.176 166.192 179.813 163.03 179.931 159.282Z" fill="#757575"/>
<path opacity="0.55" d="M207.576 132.698C218.09 117.24 211.71 111.268 206.512 110.916C205.922 110.916 205.331 111.033 204.74 111.268C203.913 111.502 203.204 111.97 202.259 112.322C202.259 112.322 202.259 112.322 202.377 112.322C203.086 112.087 203.913 111.97 204.858 111.97C209.702 111.619 216.909 116.655 206.749 131.527C196.471 146.751 184.184 142.535 177.687 155.535C185.247 145.697 197.179 147.805 207.576 132.698Z" fill="#535353"/>
<path opacity="0.42" d="M212.89 116.772C215.725 114.664 218.561 112.439 221.16 110.097C220.096 108.223 218.679 106.584 216.789 105.178C214.426 107.286 212.181 109.628 209.937 111.97C211.354 113.259 212.299 114.898 212.89 116.772Z" fill="#BEBEBE"/>
<path opacity="0.42" d="M220.333 123.096C217.379 124.735 214.307 126.257 211.236 127.897C209.346 131.059 206.983 134.104 204.384 136.797C209.818 136.095 214.307 133.87 219.151 130.942C221.041 127.897 222.223 124.852 222.813 121.807C221.986 122.159 221.159 122.627 220.333 123.096Z" fill="#BEBEBE"/>
<path opacity="0.42" d="M196.468 143.238C192.924 145.463 189.38 146.986 185.954 148.977C188.553 148.859 190.916 149.328 193.515 149.913C196.587 148.625 200.367 146.751 205.093 144.058C205.565 143.824 206.038 143.472 206.51 143.121C205.801 143.238 205.211 143.355 204.502 143.355C201.903 143.59 199.186 143.472 196.468 143.238Z" fill="#BEBEBE"/>
<path d="M116.372 115.249C116.372 115.249 97.706 95.9264 86.3647 102.602C71.4793 111.385 77.5043 133.752 97.4698 145.346C113.891 154.832 120.389 153.895 121.097 158.814C121.806 163.849 115.663 161.624 116.844 159.516C116.844 159.516 119.562 160.453 119.207 157.994C118.853 155.417 110.701 154.012 111.646 163.381C112.001 167.011 117.671 170.993 123.342 167.714C126.768 165.723 127.595 160.336 125.587 156.003C119.089 142.535 106.685 146.986 96.2884 131.644C84.9471 115.015 95.107 110.682 99.5963 112.322C104.322 114.078 110.229 118.528 117.081 125.555L116.372 115.249Z" fill="#CCCCCC"/>
<path opacity="0.55" d="M109.049 113.492C109.049 115.132 109.167 116.771 109.285 118.411C111.767 120.402 114.367 122.744 117.085 125.555L116.376 115.249C116.376 115.249 113.067 111.853 108.458 108.457C108.931 109.979 109.167 111.736 109.049 113.492Z" fill="#757575"/>
<path opacity="0.55" d="M125.471 155.886C123.699 152.022 121.335 149.679 118.735 147.923C119.917 149.679 120.863 151.67 121.453 153.778C122.872 159.282 122.044 164.435 118.735 168.885C120.153 168.885 121.808 168.534 123.344 167.714C126.653 165.723 127.599 160.219 125.471 155.886Z" fill="#757575"/>
<path opacity="0.55" d="M95.3446 132.698C84.8303 117.24 91.2098 111.268 96.4079 110.916C96.9985 110.916 97.5892 111.033 98.1799 111.268C99.0069 111.502 99.7157 111.97 100.661 112.322C100.661 112.322 100.661 112.322 100.543 112.322C99.8339 112.087 99.0069 111.97 98.0618 111.97C93.2181 111.619 86.0117 116.655 96.1716 131.527C106.45 146.751 118.736 142.535 125.234 155.535C117.673 145.697 105.623 147.805 95.3446 132.698Z" fill="#535353"/>
<path opacity="0.42" d="M90.0256 116.772C87.1902 114.664 84.3549 112.439 81.7559 110.097C82.8191 108.223 84.2368 106.584 86.127 105.178C88.4898 107.286 90.7344 109.628 92.979 111.97C91.4432 113.259 90.4981 114.898 90.0256 116.772Z" fill="#BEBEBE"/>
<path opacity="0.42" d="M82.5835 123.096C85.5369 124.735 88.6085 126.257 91.6801 127.897C93.5703 131.059 95.9331 134.104 98.5322 136.797C93.0978 136.095 88.6085 133.87 83.7648 130.942C81.8746 127.897 80.6932 124.852 80.1025 121.807C80.9295 122.159 81.7565 122.627 82.5835 123.096Z" fill="#BEBEBE"/>
<path opacity="0.42" d="M106.329 143.238C109.873 145.463 113.417 146.986 116.843 148.977C114.244 148.859 111.881 149.328 109.282 149.913C106.211 148.625 102.43 146.751 97.7048 144.058C97.2322 143.824 96.7597 143.472 96.2871 143.121C96.9959 143.238 97.5866 143.355 98.2955 143.355C101.013 143.59 103.73 143.472 106.329 143.238Z" fill="#BEBEBE"/>
<path opacity="0.35" d="M157.248 177.668C158.193 174.038 159.374 170.291 160.91 166.66C160.91 166.66 160.674 166.66 160.319 166.66C157.248 168.3 153.585 168.534 150.159 168.417C147.088 168.3 144.607 167.831 141.89 166.894C142.598 168.768 143.78 172.398 144.843 176.849C148.624 178.957 153.113 178.957 157.248 177.668Z" fill="#737373"/>
<path d="M151.459 109.277L114.481 106.232C114.481 106.232 116.962 140.428 124.996 154.481C130.785 164.552 140.354 171.93 151.577 171.93C162.8 171.93 172.369 164.552 178.158 154.481C186.192 140.428 188.672 106.232 188.672 106.232L151.459 109.277Z" fill="#CCCCCC"/>
<path opacity="0.42" d="M162.211 123.915C162.093 132.347 161.384 140.896 160.321 148.742C159.258 156.471 155.831 165.957 153.351 171.929C162.329 165.84 166.346 155.534 169.536 147.102C172.725 138.788 174.261 130.122 175.443 121.339C171.071 122.861 166.228 123.681 162.211 123.915Z" fill="#E0E0E0"/>
<path opacity="0.55" d="M147.444 123.447C140.71 122.861 133.504 121.925 127.242 120.051C128.069 126.375 128.778 132.816 130.078 138.905C133.031 151.904 139.174 162.912 148.035 171.696C149.098 171.813 150.279 171.93 151.461 171.93C151.461 171.93 146.499 162.21 146.499 142.77C146.499 136.095 146.735 129.654 147.444 123.447Z" fill="#757575"/>
<path opacity="0.55" d="M187.491 115.718C188.2 110.097 188.436 106.349 188.436 106.349L151.459 109.394L114.481 106.349C114.481 106.349 114.718 110.331 115.427 116.069C115.427 115.952 152.522 129.185 187.491 115.718Z" fill="#757575"/>
<path d="M151.461 93.9355C129.251 93.9355 110.703 102.367 110.703 102.367V112.79C110.703 112.79 133.268 118.645 152.524 118.645C171.899 118.645 192.101 112.79 192.101 112.79V102.367C192.101 102.367 173.671 93.9355 151.461 93.9355Z" fill="#CCCCCC"/>
<path d="M150.398 109.159C128.542 109.159 115.192 104.124 110.703 102.601C110.703 104.124 110.703 112.79 110.703 112.79C110.703 112.79 133.268 118.645 152.524 118.645C171.899 118.645 192.101 112.79 192.101 112.79C192.101 112.79 192.101 102.836 192.101 102.367C185.249 105.295 170.599 109.159 150.398 109.159Z" fill="#CCCCCC"/>
<path opacity="0.55" d="M131.966 107.872C127.595 107.286 123.815 106.466 120.625 105.646C120.625 108.691 120.507 111.853 120.271 114.898C123.578 115.601 127.477 116.303 131.73 116.889C131.966 113.844 131.966 110.916 131.966 107.872Z" fill="#757575"/>
<path opacity="0.42" d="M172.253 107.521C169.889 107.872 167.408 108.223 164.808 108.457C164.926 111.619 164.689 114.781 164.335 117.943C167.408 117.592 170.362 117.24 173.08 116.772C172.962 113.727 172.607 110.682 172.253 107.521Z" fill="#E0E0E0"/>
<path opacity="0.42" d="M190.093 103.187C188.911 103.655 187.493 104.124 185.957 104.592C186.312 107.754 186.548 110.916 186.902 114.195C188.202 113.844 189.266 113.609 190.093 113.375C189.857 109.979 189.857 106.583 190.093 103.187Z" fill="#BEBEBE"/>
<path opacity="0.55" d="M140.59 117.943C142.244 118.06 143.781 118.177 145.435 118.294C145.553 115.249 145.671 112.087 145.671 109.042C143.899 108.925 142.244 108.925 140.708 108.808C140.708 111.853 140.708 114.898 140.59 117.943Z" fill="#757575"/>
<path d="M151.461 93.9355C129.251 93.9355 110.703 102.367 110.703 102.367C110.703 102.367 110.703 102.484 110.703 102.602C115.074 104.124 128.424 107.989 150.398 107.989C170.599 107.989 185.249 105.295 192.101 102.367C192.101 102.367 173.671 93.9355 151.461 93.9355Z" fill="#CCCCCC"/>
<path opacity="0.42" d="M151.461 93.9355C129.251 93.9355 110.703 102.367 110.703 102.367C110.703 102.367 110.703 102.484 110.703 102.602C115.074 104.124 128.66 109.979 150.516 109.979C170.718 109.979 185.13 105.412 191.983 102.484C191.983 102.484 173.671 93.9355 151.461 93.9355Z" fill="#BEBEBE"/>
<path opacity="0.42" d="M125.823 97.3313C116.726 99.6735 110.819 102.367 110.819 102.367C110.819 102.367 110.819 102.484 110.819 102.601C112.473 103.187 115.309 104.358 119.443 105.529C121.452 102.835 123.578 100.025 125.823 97.3313Z" fill="#E0E0E0"/>
<path opacity="0.42" d="M148.389 94.053C147.562 94.053 146.735 94.053 145.908 94.1701C142.127 99.0886 138.229 104.007 134.448 108.809C136.102 109.043 137.874 109.277 139.646 109.394C142.245 104.241 145.435 99.2057 148.389 94.053Z" fill="#E0E0E0"/>
<path opacity="0.42" d="M181.704 98.6199C180.759 101.313 179.814 104.007 178.751 106.7C184.54 105.295 189.029 103.656 192.101 102.367C192.101 102.367 188.202 100.494 181.704 98.6199Z" fill="#E0E0E0"/>
<path opacity="0.42" d="M168 95.4581C166.583 95.2239 165.283 94.9897 163.747 94.8726C161.857 99.0885 159.731 103.187 157.368 107.169C156.777 108.106 156.186 109.043 155.714 109.98C157.959 109.862 160.203 109.745 162.33 109.511C164.456 104.827 166.346 100.142 168 95.4581Z" fill="#E0E0E0"/>
<path d="M151.459 97.6829C135.038 97.6829 121.334 102.016 121.334 102.016C121.334 102.016 121.334 102.133 121.334 102.25C124.524 103.421 134.447 106.232 150.751 106.232C165.754 106.232 176.623 104.241 181.703 102.016C181.703 102.016 167.881 97.6829 151.459 97.6829Z" fill="#535353"/>
<path d="M110.703 102.367C110.703 102.367 121.336 110.565 152.052 110.565C182.768 110.565 192.101 102.484 192.101 102.484C192.101 102.484 179.105 109.394 151.934 109.394C124.762 109.394 110.703 102.367 110.703 102.367Z" fill="white"/>
<path d="M110.703 112.205C110.703 112.556 110.703 112.79 110.703 112.79C110.703 112.79 133.268 118.646 152.524 118.646C171.899 118.646 192.101 112.79 192.101 112.79C192.101 112.79 192.101 112.556 192.101 112.205C192.101 112.205 171.899 118.06 152.524 118.06C133.268 118.06 110.703 112.205 110.703 112.205Z" fill="white"/>
<path d="M127.477 220.881C127.477 220.881 139.527 226.385 151.695 226.385C163.981 226.385 175.559 219.359 175.559 219.359C175.559 219.359 165.399 227.322 151.695 227.322C137.991 227.322 127.477 220.881 127.477 220.881Z" fill="white"/>
<path d="M150.609 151.634C151.171 150.772 151.733 149.873 152.445 149.086C153.719 147.624 155.105 146.238 156.416 144.814C157.765 143.39 158.889 141.778 159.526 139.867C160.275 137.506 160.125 135.258 158.776 133.122C156.191 129.037 150.909 129.374 148.137 131.435C147.163 132.185 146.489 133.122 146.189 134.283C145.964 135.183 146.414 136.12 147.238 136.494C148.062 136.907 148.924 136.644 149.486 135.857C149.598 135.707 149.673 135.558 149.748 135.445C150.572 134.358 152.483 133.909 153.831 134.471C154.955 134.883 155.592 136.157 155.405 137.619C155.18 139.193 154.318 140.429 153.269 141.553C151.808 143.127 150.272 144.664 148.849 146.275C147.05 148.336 145.515 150.622 145.365 153.47C145.252 155.681 145.964 157.48 148.624 157.48C150.085 157.48 151.583 157.368 153.082 157.368C154.88 157.33 156.716 157.368 158.514 157.33C159.563 157.33 160.462 156.543 160.612 155.494C160.799 154.52 160.2 153.545 159.263 153.171C158.889 153.021 158.514 152.908 158.139 152.908C156.191 152.908 154.243 152.946 152.295 152.983C151.583 152.983 150.834 153.096 149.973 153.133C150.197 152.571 150.347 152.046 150.609 151.634Z" fill="white"/>
</svg>
