<svg width="1366" height="1024" viewBox="0 0 1366 1024" fill="none" xmlns="http://www.w3.org/2000/svg">
<g clip-path="url(#clip0_961_4200)">
<rect width="1366" height="1024" fill="white"/>
<path d="M41.8892 43.3769L44.481 36.4561L47.8349 43.8832L54.3906 44.3896L48.7497 48.6096L50.5792 55.6992L44.6334 51.8169L38.0778 55.5304L40.6696 48.1032L35.1812 44.5584L41.8892 43.3769Z" fill="#7F48C3"/>
<path d="M1336.63 873.526L1339.2 880L1342.52 873.053L1349 872.579L1343.42 868.632L1345.23 862L1339.35 865.632L1332.87 862.158L1335.43 869.105L1330 872.421L1336.63 873.526Z" fill="#49BACA"/>
<path d="M1135.71 254.414L1138.3 247.494L1141.65 254.921L1148.21 255.427L1142.57 259.647L1144.4 266.737L1138.45 262.854L1131.9 266.568L1134.49 259.141L1129 255.596L1135.71 254.414Z" fill="#49BACA"/>
<path d="M104.967 111.049L96.734 108.686L95.5144 113.412L105.881 114.931L104.967 111.049Z" fill="#52C4C9"/>
<path d="M85.1176 978.73L77.1765 981L76 976.459L86 975L85.1176 978.73Z" fill="#F9B818"/>
<path d="M243.452 150.857L235.22 148.494L234 153.22L244.367 154.739L243.452 150.857Z" fill="#7F48C3"/>
<path d="M102.452 240.857L94.2196 238.494L93 243.22L103.367 244.739L102.452 240.857Z" fill="#C9B8C3"/>
<path d="M32.4522 305.857L24.2196 303.494L23 308.22L33.3669 309.739L32.4522 305.857Z" fill="#E02C93"/>
<path d="M1131.85 172.633L1123.62 170.27L1122.4 174.996L1132.77 176.515L1131.85 172.633Z" fill="#F9B818"/>
<path d="M894.452 38.8569L886.22 36.4937L885 41.2201L895.367 42.7393L894.452 38.8569Z" fill="#F9B818"/>
<path d="M29.6349 998.807L32.1984 1006L35.5158 998.281L42 997.754L36.4206 993.368L38.2302 986L32.3492 990.035L25.8651 986.175L28.4286 993.895L23 997.579L29.6349 998.807Z" fill="#49BACA"/>
<path d="M975.708 55.4145L978.3 48.4937L981.654 55.9208L988.209 56.4272L982.569 60.6472L984.398 67.7368L978.452 63.8545L971.897 67.568L974.488 60.1408L969 56.596L975.708 55.4145Z" fill="#49BACA"/>
<path d="M1018.63 1001.81L1021.2 1009L1024.52 1001.28L1031 1000.75L1025.42 996.368L1027.23 989L1021.35 993.035L1014.87 989.175L1017.43 996.895L1012 1000.58L1018.63 1001.81Z" fill="#49BACA"/>
<path d="M258.635 995.167L261.198 1002L264.516 994.667L271 994.167L265.421 990L267.23 983L261.349 986.833L254.865 983.167L257.429 990.5L252 994L258.635 995.167Z" fill="#E68888"/>
<path d="M43.15 928.19L43.75 936L48.8499 929.752L55 931.314L50.95 925.24L54.4 918.818L47.8 920.727L42.55 915L43.15 923.157L37 924.893L43.15 928.19Z" fill="#F9B818"/>
<path d="M218.251 224.09L218.86 216.494L224.044 222.57L230.295 221.051L226.178 226.959L229.685 233.205L222.977 231.348L217.641 236.918L218.251 228.985L212 227.297L218.251 224.09Z" fill="#E68888"/>
<path d="M1043.25 105.09L1043.86 97.4937L1049.04 103.57L1055.29 102.051L1051.18 107.959L1054.68 114.205L1047.98 112.348L1042.64 117.918L1043.25 109.985L1037 108.297L1043.25 105.09Z" fill="#F9B818"/>
<path d="M929.15 1025.19L929.75 1033L934.85 1026.75L941 1028.31L936.95 1022.24L940.4 1015.82L933.8 1017.73L928.55 1012L929.15 1020.16L923 1021.89L929.15 1025.19Z" fill="#F9B818"/>
<path d="M1131 951L1123.58 946L1121 949.833L1130.84 955L1131 951Z" fill="#C9B8C3"/>
<path d="M1064.51 167.28L1057.5 172.344L1055.06 168.461L1064.36 163.229L1064.51 167.28Z" fill="#C9B8C3"/>
<path d="M735.452 33.5448L728.439 38.6088L726 34.7265L735.3 29.4937L735.452 33.5448Z" fill="#C9B8C3"/>
<path d="M339.452 76.5448L332.439 81.6088L330 77.7265L339.3 72.4937L339.452 76.5448Z" fill="#C9B8C3"/>
<path d="M350 1007L343.323 1002L341 1005.83L349.855 1011L350 1007Z" fill="#49BACA"/>
<path d="M581.897 38.1281L579 29.3505L582.964 27.4937L585.403 38.8033L581.897 38.1281Z" fill="#E68888"/>
<path d="M809.897 44.1281L807 35.3505L810.964 33.4937L813.403 44.8033L809.897 44.1281Z" fill="#E68888"/>
<path d="M1074.9 33.1281L1072 24.3505L1075.96 22.4937L1078.4 33.8033L1074.9 33.1281Z" fill="#E68888"/>
<path d="M1074.71 995.716L1072 1005.03L1075.71 1007L1078 995L1074.71 995.716Z" fill="#E68888"/>
<path d="M1286.89 130.377L1289.48 123.456L1292.83 130.883L1299.39 131.39L1293.75 135.61L1295.58 142.699L1289.63 138.817L1283.08 142.53L1285.67 135.103L1280.18 131.558L1286.89 130.377Z" fill="#49BACA"/>
<path d="M281.452 70.8569L273.22 68.4937L272 73.2201L282.367 74.7393L281.452 70.8569Z" fill="#F9B818"/>
<path d="M101.118 907.73L93.1765 910L92 905.459L102 904L101.118 907.73Z" fill="#E68888"/>
<path d="M490.452 28.8569L482.22 26.4937L481 31.2201L491.367 32.7393L490.452 28.8569Z" fill="#F9B818"/>
<path d="M1339.97 68.0488L1331.73 65.6855L1330.51 70.412L1340.88 71.9312L1339.97 68.0488Z" fill="#F9B818"/>
<path d="M1340.12 961.351L1332.18 964L1331 958.703L1341 957L1340.12 961.351Z" fill="#F9B818"/>
<path d="M1349.97 299.049L1341.73 296.686L1340.51 301.412L1350.88 302.931L1349.97 299.049Z" fill="#F9B818"/>
<path d="M397.708 42.4145L400.3 35.4937L403.654 42.9208L410.209 43.4272L404.569 47.6472L406.398 54.7368L400.452 50.8545L393.897 54.568L396.488 47.1408L391 43.596L397.708 42.4145Z" fill="#A8C93A"/>
<path d="M142.635 988.807L145.198 996L148.516 988.281L155 987.754L149.421 983.368L151.23 976L145.349 980.035L138.865 976.175L141.429 983.895L136 987.579L142.635 988.807Z" fill="#A8C93A"/>
<path d="M429.635 1025.81L432.198 1033L435.516 1025.28L442 1024.75L436.421 1020.37L438.23 1013L432.349 1017.04L425.865 1013.18L428.429 1020.89L423 1024.58L429.635 1025.81Z" fill="#7F48C3"/>
<path d="M1336.71 15.4145L1339.3 8.49365L1342.65 15.9208L1349.21 16.4272L1343.57 20.6472L1345.4 27.7368L1339.45 23.8545L1332.9 27.568L1335.49 20.1408L1330 16.596L1336.71 15.4145Z" fill="#A8C93A"/>
<path d="M1336.63 1013.81L1339.2 1021L1342.52 1013.28L1349 1012.75L1343.42 1008.37L1345.23 1001L1339.35 1005.04L1332.87 1001.18L1335.43 1008.89L1330 1012.58L1336.63 1013.81Z" fill="#A8C93A"/>
<path d="M33.15 850.19L33.75 858L38.8499 851.752L45 853.314L40.95 847.24L44.4 840.818L37.8 842.727L32.55 837L33.15 845.157L27 846.893L33.15 850.19Z" fill="#E74C4E"/>
<path d="M25.2506 155.09L25.8605 147.494L31.0439 153.57L37.2946 152.051L33.1783 157.959L36.6848 164.205L29.9768 162.348L24.6409 167.918L25.2506 159.985L19 158.297L25.2506 155.09Z" fill="#E74C4E"/>
<path d="M1348.26 198.433L1348.87 190.837L1354.05 196.914L1360.3 195.394L1356.18 201.302L1359.69 207.548L1352.98 205.691L1347.65 211.262L1348.26 203.328L1342.01 201.64L1348.26 198.433Z" fill="#E74C4E"/>
<path d="M1288.15 921.19L1288.75 929L1293.85 922.752L1300 924.314L1295.95 918.24L1299.4 911.818L1292.8 913.727L1287.55 908L1288.15 916.157L1282 917.893L1288.15 921.19Z" fill="#E74C4E"/>
<path d="M1158.15 1009.19L1158.75 1017L1163.85 1010.75L1170 1012.31L1165.95 1006.24L1169.4 999.818L1162.8 1001.73L1157.55 996L1158.15 1004.16L1152 1005.89L1158.15 1009.19Z" fill="#7F48C3"/>
<path d="M674.251 30.0897L674.86 22.4937L680.044 28.5704L686.295 27.0512L682.178 32.9592L685.685 39.2048L678.977 37.348L673.641 42.9184L674.251 34.9848L668 33.2968L674.251 30.0897Z" fill="#E74C4E"/>
<path d="M1250.51 76.2797L1243.5 81.3437L1241.06 77.4613L1250.36 72.2285L1250.51 76.2797Z" fill="#C9B8C3"/>
<path d="M1251 953L1243.58 948L1241 951.833L1250.84 957L1251 953Z" fill="#C9B8C3"/>
<path d="M149.897 42.1281L147 33.3505L150.964 31.4937L153.403 42.8033L149.897 42.1281Z" fill="#E68888"/>
<path d="M189.714 1007.66L187 1016.19L190.714 1018L193 1007L189.714 1007.66Z" fill="#E68888"/>
<path d="M1234.9 31.1281L1232 22.3505L1235.96 20.4937L1238.4 31.8033L1234.9 31.1281Z" fill="#E68888"/>
<path d="M1241.71 997.716L1239 1007.03L1242.71 1009L1245 997L1241.71 997.716Z" fill="#E68888"/>
<path d="M1057.98 616.308L1055.02 602.494L1063.89 612.959L1073.87 604.168L1069.8 617.145L1082 618.819L1071.65 623.005L1076.83 634.726L1067.59 629.284L1062.78 638.494L1060.57 628.866L1050.22 634.308L1056.5 625.098L1048 619.656L1057.98 616.308Z" fill="white"/>
<path d="M308.978 277.308L306.022 263.494L314.891 273.959L324.87 265.168L320.804 278.145L333 279.819L322.652 284.005L327.826 295.726L318.587 290.284L313.783 299.494L311.565 289.866L301.217 295.308L307.5 286.098L299 280.656L308.978 277.308Z" fill="white"/>
<path d="M217.978 538.814L215.022 525L223.891 535.465L233.87 526.674L229.804 539.651L242 541.326L231.652 545.512L236.826 557.233L227.587 551.791L222.783 561L220.565 551.372L210.217 556.814L216.5 547.605L208 542.163L217.978 538.814Z" fill="white"/>
<path d="M1036.58 679.168L1034.92 671.494L1039.88 677.308L1045.46 672.424L1043.18 679.633L1050 680.563L1044.22 682.889L1047.11 689.401L1041.95 686.377L1039.26 691.494L1038.02 686.145L1032.24 689.168L1035.75 684.052L1031 681.029L1036.58 679.168Z" fill="white"/>
<path d="M279.576 306.168L277.924 298.494L282.88 304.308L288.457 299.424L286.185 306.633L293 307.563L287.217 309.889L290.109 316.401L284.946 313.377L282.261 318.494L281.022 313.145L275.239 316.168L278.75 311.052L274 308.029L279.576 306.168Z" fill="white"/>
<path d="M1029.58 266.168L1027.92 258.494L1032.88 264.308L1038.46 259.424L1036.18 266.633L1043 267.563L1037.22 269.889L1040.11 276.401L1034.95 273.377L1032.26 278.494L1031.02 273.145L1025.24 276.168L1028.75 271.052L1024 268.029L1029.58 266.168Z" fill="white"/>
<path d="M260.576 588.674L258.924 581L263.88 586.814L269.457 581.93L267.185 589.14L274 590.07L268.217 592.395L271.109 598.907L265.946 595.884L263.261 601L262.022 595.651L256.239 598.674L259.75 593.558L255 590.535L260.576 588.674Z" fill="white"/>
</g>
<defs>
<clipPath id="clip0_961_4200">
<rect width="1366" height="1024" fill="white"/>
</clipPath>
</defs>
</svg>
