<svg width="66" height="66" viewBox="0 0 66 66" fill="none" xmlns="http://www.w3.org/2000/svg">
<path d="M33 66C14.7746 66 0 51.2254 0 33C0 14.7746 14.7746 0 33 0C51.2254 0 66 14.7746 66 33C66 51.2254 51.2254 66 33 66Z" fill="#D93E4F"/>
<path d="M34.9801 62.2046C43.3951 61.0496 51.8101 56.2646 56.5951 49.3346C57.2551 48.5096 59.8951 43.2296 56.2651 44.5496C53.2951 45.7046 51.4801 48.6746 48.6751 50.3246C40.2601 54.7796 30.0301 56.0996 22.1101 49.8296C21.4501 49.3346 20.9551 48.8396 20.1301 48.5096C17.9851 47.5196 14.8501 48.8396 14.3551 51.1496C13.8601 53.2946 16.3351 56.7596 17.8201 58.2446C19.4701 59.7296 21.4501 60.7196 23.5951 61.3796C27.3901 62.5346 31.1851 62.6996 34.9801 62.2046Z" fill="#E55C6B"/>
<path d="M36.6293 1.32042C38.1143 1.48542 39.5993 1.81542 41.0843 2.14542C44.8793 3.30042 49.4993 4.95042 52.6343 7.42542C54.6143 8.91042 56.0993 11.0554 57.5843 12.8704C58.9043 14.8504 60.2243 16.6654 61.7093 18.4804C62.8643 19.9654 64.0193 21.4504 64.3493 23.4304C65.0093 26.7304 62.2043 30.1954 58.9043 31.0204C53.7893 32.3404 49.6643 28.7104 45.7043 26.0704C41.0843 23.1004 35.8043 20.2954 30.6893 18.4804C25.0793 16.5004 19.1393 15.6754 13.3643 16.9954C11.2193 17.4904 9.23927 18.1504 7.42427 19.3054C4.61927 21.1204 2.63926 24.0904 1.81426 27.2254C3.95926 19.1404 8.08426 9.90042 16.0043 6.10542C22.7693 2.80542 29.2043 0.495422 36.6293 1.32042Z" fill="#E55C6B"/>
<path opacity="0.8" d="M47.5215 9.73531C47.8515 9.57031 48.1815 9.57031 48.5115 9.57031C51.1515 9.90031 52.1415 12.2103 53.2965 14.1903C54.4515 16.5003 55.4415 18.9753 55.9365 21.4503C55.2765 19.3053 54.1215 17.3253 52.9665 15.5103C51.4815 13.0353 50.3265 13.0353 48.0165 11.7153C47.3565 11.3853 46.8615 10.5603 47.1915 9.90031C47.5215 9.90031 47.5215 9.90031 47.5215 9.73531Z" fill="white"/>
<path opacity="0.8" d="M45.8693 8.90953C46.3643 9.07453 46.6943 9.56953 46.6943 10.0645C46.3643 10.3945 45.8693 10.5595 45.3743 10.5595C44.8793 10.3945 44.7143 9.89953 44.8793 9.40453C45.0443 8.90953 45.5393 8.74453 46.0343 8.90953H45.8693Z" fill="white"/>
<path d="M24.2 45.5C24.2 46.2 25.3 46.5 27.6 46.5C28.6 46.5 29.5 46.3 30.4 46C31.3 45.7 32.6 44.5 34.4 42.6C36.2 40.7 37.8 38.8 39.2 37L41.4 34.3C41.8 33.9 42 33.4 42 32.7C42 32.1 41.7 31.5 41.2 30.8C40.7 30.2 39.9 29.2 38.9 28C37.9 26.8 36.4 25.1 34.4 23C32.4 20.9 31.1 19.7 30.3 19.5C29.7 19.2 28.5 19 26.7 19C24.9 19 24 19.3 24 20C24 20.4 24.4 20.9 25.1 21.5C25.4 21.8 25.7 22.1 26.1 22.5C26.5 22.9 27.3 23.7 28.4 24.8C29.5 25.9 30.5 26.9 31.3 27.8C33.5 30.2 34.7 31.8 34.7 32.5C34.7 33.2 33.9 34.5 32.3 36.4C30.7 38.2 29.1 39.9 27.5 41.4L25.1 43.7C24.6 44.5 24.2 45.1 24.2 45.5Z" fill="white"/>
</svg>
