<svg xmlns="http://www.w3.org/2000/svg" viewBox="0 0 35.49 41.1"><defs><style>.cls-1,.cls-2{fill:#c2451d;}.cls-1,.cls-10,.cls-4,.cls-5,.cls-6,.cls-8{fill-rule:evenodd;}.cls-3,.cls-5{fill:#d0775b;}.cls-4{fill:#c86244;}.cls-6,.cls-7{fill:#ffd88d;}.cls-8,.cls-9{fill:#402c2a;}.cls-10{fill:#c35026;}</style></defs><g id="Layer_2" data-name="Layer 2"><g id="Layer_1-2" data-name="Layer 1"><path class="cls-1" d="M7.6,33.57c2.52,0,4.58-3.5,4.58-7.8S10.12,18,7.6,18,3,21.47,3,25.77,5.08,33.57,7.6,33.57Z"/><ellipse class="cls-2" cx="27.93" cy="25.77" rx="4.58" ry="7.8"/><circle class="cls-3" cx="17.75" cy="28.38" r="12.61"/><path class="cls-4" d="M17.75,15.77a12.62,12.62,0,0,1,0,25.23V15.77h0Z"/><path class="cls-5" d="M6.68,0a3.81,3.81,0,0,1,3.81,3.7A12.79,12.79,0,0,1,25,3.6a3.81,3.81,0,1,1,3.8,4H28.6a10.44,10.44,0,0,1,1.24,4.92c0,6.15-5.38,11.13-12,11.13s-12-5-12-11.13A10.48,10.48,0,0,1,7,7.6l-.36,0A3.81,3.81,0,0,1,6.68,0Z"/><path class="cls-4" d="M17.82,1.39A12.62,12.62,0,0,1,25,3.6a3.81,3.81,0,1,1,3.8,4H28.6a10.44,10.44,0,0,1,1.24,4.92c0,6.15-5.38,11.13-12,11.13Z"/><path class="cls-6" d="M28.81,5.2a1.39,1.39,0,1,0-1.39-1.39A1.39,1.39,0,0,0,28.81,5.2Z"/><path class="cls-6" d="M6.68,5.2A1.39,1.39,0,1,0,5.29,3.81,1.4,1.4,0,0,0,6.68,5.2Z"/><ellipse class="cls-7" cx="17.75" cy="18.44" rx="6.37" ry="4.69"/><path class="cls-8" d="M17.75,19.53a1.1,1.1,0,1,0-1.14-1.09A1.11,1.11,0,0,0,17.75,19.53Z"/><rect class="cls-9" x="17.59" y="19.23" width="0.31" height="3.89"/><path class="cls-8" d="M23.17,13.76A1.1,1.1,0,1,0,22,12.66,1.12,1.12,0,0,0,23.17,13.76Z"/><path class="cls-8" d="M12.32,13.76a1.1,1.1,0,1,0-1.13-1.1A1.13,1.13,0,0,0,12.32,13.76Z"/><path class="cls-10" d="M9.35,30.53c3.26,1.95,4.65,5.63,3.1,8.23S7,41.87,3.73,39.93-.92,34.29.63,31.7,6.09,28.58,9.35,30.53Z"/><path class="cls-10" d="M26.15,30.53c-3.27,1.95-4.65,5.63-3.1,8.23s5.45,3.11,8.71,1.17,4.65-5.64,3.1-8.23S29.41,28.58,26.15,30.53Z"/><path class="cls-6" d="M7.88,33c1.55.93,2.21,2.68,1.47,3.92s-2.59,1.48-4.15.55S3,34.78,3.73,33.55,6.32,32.07,7.88,33Z"/><path class="cls-6" d="M27.62,33c-1.55.93-2.21,2.68-1.48,3.92s2.6,1.48,4.15.55,2.21-2.68,1.47-3.91S29.17,32.07,27.62,33Z"/></g></g></svg>