<svg width="176" height="352" viewBox="0 0 176 352" fill="none" xmlns="http://www.w3.org/2000/svg">
<path d="M116.876 327.828H141.689C146.882 327.828 151.114 323.599 151.114 318.408V304.118C151.114 298.927 146.882 294.697 141.689 294.697H116.876C111.682 294.697 107.451 298.927 107.451 304.118V318.408C107.451 323.599 111.682 327.828 116.876 327.828Z" fill="#C32F43"/>
<path d="M103.924 310.398C113.285 310.398 121.364 304.438 121.749 304.117C123.48 302.836 123.864 300.337 122.518 298.606C121.236 296.876 118.735 296.492 117.004 297.837C116.876 297.965 108.925 303.733 101.488 302.259C97.9615 301.554 95.0762 299.311 92.6398 295.402C91.4857 293.544 89.0493 292.967 87.254 294.12C85.3946 295.274 84.8176 297.709 85.9717 299.503C89.5622 305.335 94.3068 308.86 100.077 310.013C101.36 310.27 102.642 310.398 103.924 310.398Z" fill="#DDEEFD"/>
<path d="M155.153 267.59C166.52 267.59 175.734 258.868 175.734 248.109C175.734 237.35 166.52 228.627 155.153 228.627C143.786 228.627 134.572 237.35 134.572 248.109C134.572 258.868 143.786 267.59 155.153 267.59Z" fill="#B12819"/>
<path d="M102.578 264.963C113.945 264.963 123.159 256.241 123.159 245.481C123.159 234.722 113.945 226 102.578 226C91.211 226 81.9965 234.722 81.9965 245.481C81.9965 256.241 91.211 264.963 102.578 264.963Z" fill="#B12819"/>
<path d="M112.772 303.028V324.048C112.772 325.522 113.349 326.931 114.375 328.149C116.683 330.841 121.172 332.699 126.365 332.699H128.801C134.315 332.699 139.06 330.584 141.176 327.572C141.945 326.483 142.33 325.329 142.33 324.048V303.028C142.33 298.286 136.239 294.377 128.737 294.377H126.301C118.927 294.377 112.772 298.286 112.772 303.028Z" fill="#DDEEFD"/>
<path d="M136.111 343.08L132.328 332.891C131.366 332.955 124.506 332.955 123.672 332.891L119.889 343.08L114.696 342.183C111.298 329.623 114.183 325.073 114.183 325.073H141.689C141.689 325.073 144.574 329.623 141.176 342.183L136.111 343.08Z" fill="#FFC8AF"/>
<path d="M142.138 338.467C141.881 339.62 141.24 343.017 140.855 344.362L136.239 344.491L134.315 338.467H142.138Z" fill="#DDEEFD"/>
<path d="M113.926 338.467H121.684L119.697 345.452L115.337 345.26C114.952 343.914 114.119 339.62 113.926 338.467Z" fill="#DDEEFD"/>
<path d="M128.032 291.557V297.453L133.61 295.274C133.61 295.274 130.853 294.441 131.494 291.365L128.032 291.557Z" fill="#FF9D80"/>
<path d="M128.224 291.557V297.453L122.646 295.274C122.646 295.274 125.403 294.441 124.762 291.365L128.224 291.557Z" fill="#FF9D80"/>
<path d="M153.294 278.997C156.658 278.997 159.385 276.271 159.385 272.909C159.385 269.546 156.658 266.821 153.294 266.821C149.93 266.821 147.203 269.546 147.203 272.909C147.203 276.271 149.93 278.997 153.294 278.997Z" fill="#FF9D80"/>
<path d="M101.873 278.997C105.237 278.997 107.964 276.271 107.964 272.909C107.964 269.546 105.237 266.821 101.873 266.821C98.5086 266.821 95.7815 269.546 95.7815 272.909C95.7815 276.271 98.5086 278.997 101.873 278.997Z" fill="#FF9D80"/>
<path d="M109.374 252.209V255.67H148.293C150.409 259.195 151.627 263.232 151.627 267.59V277.907C151.627 285.917 145.023 292.518 137.008 292.518H116.812C109.502 292.518 103.475 286.558 103.475 279.189V267.59C103.475 261.694 105.655 256.311 109.374 252.209Z" fill="#FFC8AF"/>
<path opacity="0.51" d="M143.164 284.7C145.43 284.7 147.267 282.864 147.267 280.599C147.267 278.334 145.43 276.498 143.164 276.498C140.897 276.498 139.06 278.334 139.06 280.599C139.06 282.864 140.897 284.7 143.164 284.7Z" fill="#FF9D80"/>
<path opacity="0.51" d="M112.965 284.7C115.231 284.7 117.068 282.864 117.068 280.599C117.068 278.334 115.231 276.498 112.965 276.498C110.698 276.498 108.861 278.334 108.861 280.599C108.861 282.864 110.698 284.7 112.965 284.7Z" fill="#FF9D80"/>
<path d="M130.276 280.021C129.314 282.777 125.596 282.969 124.185 280.47" stroke="#3F2732" stroke-width="0.412818" stroke-miterlimit="10" stroke-linecap="round" stroke-linejoin="round"/>
<path d="M135.598 276.818C136.589 276.818 137.393 276.014 137.393 275.023C137.393 274.032 136.589 273.229 135.598 273.229C134.606 273.229 133.803 274.032 133.803 275.023C133.803 276.014 134.606 276.818 135.598 276.818Z" fill="#3F2732"/>
<path d="M118.415 276.818C119.406 276.818 120.21 276.014 120.21 275.023C120.21 274.032 119.406 273.229 118.415 273.229C117.423 273.229 116.619 274.032 116.619 275.023C116.619 276.014 117.423 276.818 118.415 276.818Z" fill="#3F2732"/>
<path d="M151.691 256.247C153.55 258.747 154.384 261.823 153.23 264.899C152.14 267.654 149.191 269.513 146.434 268.936C144.831 268.616 143.356 267.526 141.753 267.142C139.83 266.629 137.778 267.013 135.854 266.565C133.546 266.052 131.559 264.194 130.725 261.887C129.892 263.425 128.225 264.322 126.557 264.322C124.89 264.386 123.288 263.681 121.877 262.656C121.172 264.771 119.569 266.373 117.838 267.526C115.209 269.32 112.131 270.474 108.99 270.73C106.489 270.923 103.796 270.538 102.065 268.616C99.8851 266.18 100.077 262.335 100.911 259.067C101.744 255.671 103.347 252.146 106.361 250.672C108.99 249.39 112.131 250.095 114.952 250.8C119.184 251.89 123.544 253.043 127.904 252.851C130.725 252.723 133.546 252.018 136.367 251.569C139.188 251.057 142.074 250.8 144.895 251.441C147.331 252.146 149.96 253.94 151.691 256.247Z" fill="#D6402E"/>
<path d="M127.968 271.5L128.16 275.216L125.275 274.063L127.006 277.523" stroke="#D6402E" stroke-width="0.412818" stroke-miterlimit="10" stroke-linecap="round" stroke-linejoin="round"/>
<path d="M142.458 250.735C142.458 250.735 148.293 249.966 151.691 256.247" stroke="#F99621" stroke-width="2.61879" stroke-miterlimit="10" stroke-linecap="round" stroke-linejoin="round"/>
<path d="M110.977 249.198C110.977 249.198 105.143 248.429 101.744 254.709" stroke="#F99621" stroke-width="2.61879" stroke-miterlimit="10" stroke-linecap="round" stroke-linejoin="round"/>
<path d="M90.6523 287.392C88.28 287.007 89.8188 291.173 90.0111 292.775C89.3058 292.839 88.7929 292.07 88.5364 291.365C88.0235 290.147 87.5105 288.994 86.9335 287.776C86.5488 286.943 85.8436 285.982 85.0742 286.302C84.433 286.559 84.3047 287.328 84.3688 288.033C84.4329 288.802 84.5612 289.635 84.8177 290.404C84.2406 289.827 83.6636 289.25 83.0865 288.674C82.5095 288.097 81.676 287.456 80.9707 287.84C80.5219 288.097 80.3936 288.738 80.5219 289.25C80.6501 289.763 80.9707 290.212 81.2913 290.596C81.9325 291.429 82.5736 292.262 83.5354 292.775C82.6377 292.134 81.6118 291.621 80.5219 291.237C79.9448 291.045 79.2395 290.916 78.8548 291.365C78.3419 292.006 78.9831 292.903 79.6243 293.352C80.5219 294.057 81.4837 294.633 82.5095 295.082C81.9325 294.697 81.2271 294.505 80.5219 294.633C80.3295 294.633 80.1372 294.697 80.009 294.826C79.496 295.21 80.0089 296.043 80.4578 296.492C81.7401 297.709 83.0866 298.927 84.7536 299.568C87.6388 300.721 90.524 299.44 91.6781 296.684C92.2552 295.338 92.5116 293.864 92.3834 292.39C92.1269 288.353 90.6523 287.392 90.6523 287.392Z" fill="#FFC8AF"/>
<path d="M113.093 316.166H142.907L146.818 336.48L107.002 336.288L113.093 316.166Z" fill="#512C3F"/>
<path d="M131.623 316.935L133.803 326.035C134.508 329.047 137.457 330.905 140.471 330.393L159.962 326.868C163.104 326.291 165.22 323.279 164.643 320.075L162.976 311.039C162.398 307.899 159.385 305.848 156.243 306.361L144.125 308.476L138.291 309.501L136.239 309.886C132.969 310.398 130.853 313.667 131.623 316.935Z" fill="#F39D22"/>
<path d="M158.231 312.064L153.55 317.64C151.819 319.754 148.934 320.588 146.369 319.819L136.688 316.999" stroke="#F67300" stroke-width="0.982052" stroke-miterlimit="10" stroke-linecap="round" stroke-linejoin="round"/>
<path d="M152.076 323.856C153.935 323.856 155.538 322.574 155.923 320.652C157.269 313.987 156.179 308.284 152.781 303.862C146.882 296.172 136.175 295.339 135.726 295.275C133.546 295.147 131.687 296.749 131.494 298.928C131.366 301.106 132.969 302.965 135.149 303.157C135.277 303.157 142.843 303.862 146.562 308.668C148.549 311.296 149.126 314.756 148.229 319.178C147.78 321.293 149.19 323.407 151.306 323.792C151.563 323.856 151.819 323.856 152.076 323.856Z" fill="#DDEEFD"/>
<path d="M154.705 322.831L148.229 319.178C148.229 319.178 142.458 323.471 146.562 327.829C146.562 327.829 147.716 331.61 152.076 331.354C156.436 331.033 157.654 325.458 154.705 322.831Z" fill="#FFC8AF"/>
<path d="M136.752 294.826C136.688 297.389 134.572 299.504 131.943 299.504C129.314 299.504 127.199 297.453 127.134 294.826H136.752Z" fill="#B1DBFC"/>
<path d="M129.122 294.826C129.058 297.389 126.942 299.504 124.313 299.504C121.685 299.504 119.569 297.453 119.505 294.826H129.122Z" fill="#B1DBFC"/>
<path d="M129.763 297.389L136.175 304.951C136.495 305.335 136.431 305.912 136.047 306.232L131.943 309.757C131.43 310.205 130.597 309.949 130.468 309.244L128.16 298.158C128.096 297.773 128.288 297.325 128.673 297.132C129.058 297.004 129.507 297.132 129.763 297.389Z" fill="#3F2732"/>
<path d="M126.621 297.389L120.21 304.951C119.889 305.335 119.953 305.912 120.338 306.232L124.441 309.757C124.954 310.205 125.788 309.949 125.916 309.244L128.224 298.158C128.288 297.773 128.096 297.325 127.711 297.132C127.327 297.004 126.878 297.132 126.621 297.389Z" fill="#3F2732"/>
<path d="M128.16 312.961C128.801 312.961 129.314 312.448 129.314 311.807V302.9C129.314 302.259 128.801 301.746 128.16 301.746C127.519 301.746 127.006 302.259 127.006 302.9V311.807C127.006 312.384 127.519 312.961 128.16 312.961Z" fill="#3F2732"/>
<path d="M128.225 303.028C129.122 303.028 129.892 302.259 129.892 301.362V297.709C129.892 296.812 129.122 296.043 128.225 296.043C127.327 296.043 126.557 296.812 126.557 297.709V301.362C126.557 302.259 127.263 303.028 128.225 303.028Z" fill="#5B394A"/>
<path d="M120.018 344.554L120.466 348.655C120.659 350.257 119.633 351.667 118.222 351.667L110.528 351.603C109.631 351.603 109.246 350.321 109.887 349.68L115.209 344.554H120.018Z" fill="#3F2732"/>
<path d="M116.619 348.72C117.196 348.72 117.709 348.207 117.709 347.63V344.554C117.709 343.978 117.196 343.465 116.619 343.465C116.042 343.465 115.529 343.978 115.529 344.554V347.694C115.529 348.271 116.042 348.72 116.619 348.72Z" fill="#DDEEFD"/>
<path d="M119.825 344.426H114.888V346.092H119.825V344.426Z" fill="#3F2732"/>
<path d="M135.854 344.554L135.405 348.655C135.213 350.257 136.239 351.667 137.649 351.667L145.343 351.603C146.241 351.603 146.626 350.321 145.985 349.68L140.663 344.554H135.854Z" fill="#3F2732"/>
<path d="M139.252 348.72C138.675 348.72 138.162 348.207 138.162 347.63V344.554C138.162 343.978 138.675 343.465 139.252 343.465C139.829 343.465 140.342 343.978 140.342 344.554V347.694C140.342 348.271 139.829 348.72 139.252 348.72Z" fill="#DDEEFD"/>
<path d="M140.919 344.426H135.982V346.092H140.919V344.426Z" fill="#3F2732"/>
<path d="M121.749 323.15C121.749 323.15 124.057 327.252 132.264 330.456" stroke="#84446A" stroke-width="1.63674" stroke-miterlimit="10" stroke-linecap="round" stroke-linejoin="round"/>
<path d="M114.119 313.538C115.722 313.538 117.068 312.256 117.068 310.59V299.504C117.068 297.901 115.786 296.556 114.119 296.556C112.516 296.556 111.169 297.837 111.169 299.504V310.59C111.234 312.192 112.516 313.538 114.119 313.538Z" fill="#DD5465"/>
<path d="M138.355 298.351V309.501L144.189 308.476V298.351C144.189 296.748 142.907 295.467 141.24 295.467C140.471 295.467 139.701 295.787 139.188 296.3C138.675 296.813 138.355 297.517 138.355 298.351Z" fill="#DD5465"/>
<path d="M40.9295 0.836359C40.1141 4.78277 39.8553 8.98774 40.1318 13.0716C40.4082 17.1554 41.2935 21.1683 42.9133 24.831C44.4596 28.4435 46.7823 31.6128 49.566 33.7581C52.3078 35.9965 55.3849 37.4903 58.4304 38.8407C61.5178 40.0981 64.6052 41.3555 67.4514 42.9349C70.3712 44.5646 73.1653 46.4735 75.7497 48.8479C80.9606 53.5035 84.756 60.235 87.1979 67.624C86.2288 63.7973 84.798 60.1419 82.9789 56.7082C81.1179 53.3676 78.9003 50.3919 76.2843 47.8742C71.1675 42.796 64.8979 39.8514 58.7966 37.3869C55.7511 36.0364 52.7056 34.686 50.1108 32.548C47.4006 30.4529 45.2566 27.5275 43.6265 24.1011C40.4399 17.2987 39.8237 8.84442 40.9295 0.836359Z" fill="#223553"/>
<path d="M76.3914 62.7983L70.4335 56.1717L79.1427 51.7762L76.3914 62.7983Z" fill="#F15A61"/>
<path d="M81.8623 40.6105L87.8202 47.2371L79.1426 51.776L81.8623 40.6105Z" fill="#F15A61"/>
<path d="M79.8976 50.9533C79.5403 50.4658 78.8999 50.3934 78.4278 50.8012C78.0293 51.2592 77.9565 52.0615 78.2719 52.6421C78.6293 53.1297 79.2697 53.2021 79.7418 52.7943C80.2557 52.2934 80.3285 51.4911 79.8976 50.9533Z" fill="#F15A61"/>
<path d="M65.5911 52.6181L58.0612 49.0558L65.0352 41.0403L65.5911 52.6181Z" fill="#FCB415"/>
<path d="M64.4372 29.5569L72.009 33.0261L65.035 41.0416L64.4372 29.5569Z" fill="#FCB415"/>
<path d="M65.4959 40.0179C64.9813 39.6663 64.3622 39.9736 64.0688 40.6252C63.7754 41.2768 64.007 42.0436 64.5217 42.3952C65.0364 42.7469 65.6555 42.4396 65.9489 41.788C66.2423 41.1364 66.0525 40.2765 65.4959 40.0179Z" fill="#FCB415"/>
<path d="M50.2268 45.5301L43.0843 40.8937L50.7312 33.9465L50.2268 45.5301Z" fill="#52C4C9"/>
<path d="M51.2355 22.3639L58.3779 27.0003L50.7311 33.9475L51.2355 22.3639Z" fill="#52C4C9"/>
<path d="M51.381 32.9305C50.9082 32.4858 50.2575 32.6498 49.9641 33.3014C49.5972 33.9027 49.7134 34.7124 50.2281 35.064C50.7009 35.5088 51.3516 35.3448 51.645 34.6932C51.97 34.1849 51.8538 33.3753 51.381 32.9305Z" fill="#52C4C9"/>
<path d="M34.7801 27.3072L31.8537 18.0048L41.1762 18.6534L34.7801 27.3072Z" fill="white"/>
<path d="M47.4568 10.0438L50.4567 19.3964L41.1761 18.6547L47.4568 10.0438Z" fill="white"/>
<path d="M42.1312 18.4551C41.9731 17.7385 41.3849 17.3366 40.8813 17.6011C40.3041 17.8153 39.9688 18.56 40.1688 19.1835C40.3269 19.9001 40.9151 20.302 41.4187 20.0375C41.9224 19.773 42.2893 19.1717 42.1312 18.4551Z" fill="white"/>
<path d="M126.507 159.48L82.3715 143.688L111.527 123.563L126.507 159.48Z" fill="#FCB415"/>
<path d="M86.903 66.5711L111.527 123.561L82.3715 143.686L86.903 66.5711Z" fill="#F15A61"/>
<path d="M140.463 104.139L111.527 123.562L126.507 159.479L140.463 104.139Z" fill="#52C4C9"/>
<path d="M86.9027 66.5721L140.463 104.139L111.527 123.562L86.9027 66.5721Z" fill="#FFAC39"/>
<path d="M139.746 346.161C141.538 340.643 143.061 334.481 144.227 327.69C145.433 320.979 146.241 313.561 146.724 305.771C147.206 297.981 147.404 289.899 147.168 281.554C146.962 273.203 146.392 264.662 145.491 256.188C144.58 247.629 143.277 239.148 141.726 230.892C140.145 222.642 138.244 214.543 136.324 206.536C134.403 198.529 132.453 190.528 130.702 182.399C128.941 174.185 127.458 165.74 126.426 157.205C127.518 165.728 129.061 174.161 130.842 182.284C132.623 190.406 134.573 198.407 136.512 206.323C138.463 214.325 140.353 222.338 141.945 230.673C143.537 239.009 144.85 247.575 145.762 256.134C146.643 264.699 147.194 273.331 147.4 281.682C147.422 283.776 147.473 285.864 147.495 287.957L147.417 294.092C147.428 295.139 147.368 296.113 147.337 297.081L147.228 300.075C147.167 301.049 147.178 302.096 147.088 303.076L146.907 305.997C146.383 313.707 145.556 321.217 144.309 327.849C143.143 334.639 141.589 340.808 139.746 346.161Z" fill="#213653"/>
</svg>
