<svg xmlns="http://www.w3.org/2000/svg" viewBox="0 0 18 11.24"><defs><style>.cls-1{fill:#fff;}</style></defs><g id="Layer_2" data-name="Layer 2"><g id="Layer_1-2" data-name="Layer 1"><path class="cls-1" d="M4.09,0H2.22a.65.65,0,0,0-.55.72v.33h3l0-.35A.65.65,0,0,0,4.09,0Z"/><path class="cls-1" d="M15.55,0H13.68a.65.65,0,0,0-.55.72v.33h3l0-.35A.65.65,0,0,0,15.55,0Z"/><path class="cls-1" d="M16.65,11.21a2.87,2.87,0,0,1-2.73-1.12A11.57,11.57,0,0,1,13,8.5a2.25,2.25,0,0,0-2-1.27H7.12a2.42,2.42,0,0,0-2.2,1.37,13.94,13.94,0,0,1-.84,1.48,2.88,2.88,0,0,1-2.74,1.1A1.56,1.56,0,0,1,0,9.28L1.45,1.44A1.48,1.48,0,0,1,1.63.93.76.76,0,0,1,2.3.55H3.84a1.22,1.22,0,0,1,.47.07,5.18,5.18,0,0,0,2.43.62l5.25,0c.62,0,.62-.22,1.11-.58h0a.69.69,0,0,1,.39-.12h2.33a.63.63,0,0,1,.5.26,1.63,1.63,0,0,1,.28.66L18,9.32A1.56,1.56,0,0,1,16.65,11.21Z"/><path class="cls-1" d="M1.55,3.81a2.28,2.28,0,1,1,2.27,2.3A2.29,2.29,0,0,1,1.55,3.81Z"/><path class="cls-1" d="M6.29,6.49a1.16,1.16,0,1,1,2.32,0A1.17,1.17,0,0,1,7.45,7.65,1.16,1.16,0,0,1,6.29,6.49Z"/><path class="cls-1" d="M6.7,6.49a.75.75,0,1,1,.75.75A.75.75,0,0,1,6.7,6.49Z"/><path class="cls-1" d="M9.54,6.5A1.17,1.17,0,0,1,10.7,5.34a1.16,1.16,0,0,1,0,2.32A1.17,1.17,0,0,1,9.54,6.5Z"/><path class="cls-1" d="M10,6.5a.75.75,0,1,1,.75.75A.75.75,0,0,1,10,6.5Z"/><path class="cls-1" d="M10.58,3.22H7.18a.8.8,0,0,1-.8-.8V1.23h5V2.43A.78.78,0,0,1,10.58,3.22Z"/><path class="cls-1" d="M3.36,2.26h.83a.36.36,0,0,1,.27.58L4,3.45a.22.22,0,0,1-.35,0l-.53-.68A.31.31,0,0,1,3.36,2.26Z"/><path class="cls-1" d="M4.22,5.23H3.39a.36.36,0,0,1-.27-.58L3.59,4a.23.23,0,0,1,.35,0l.53.68A.32.32,0,0,1,4.22,5.23Z"/><path class="cls-1" d="M5.42,3.34v.83a.36.36,0,0,1-.58.29L4.24,4a.24.24,0,0,1,0-.36l.67-.53A.31.31,0,0,1,5.42,3.34Z"/><path class="cls-1" d="M2.24,4.21V3.37a.36.36,0,0,1,.58-.28l.59.48a.23.23,0,0,1,0,.36l-.67.53A.31.31,0,0,1,2.24,4.21Z"/><path class="cls-1" d="M11.71,3.84A2.28,2.28,0,1,1,14,6.14,2.3,2.3,0,0,1,11.71,3.84Z"/><path class="cls-1" d="M13.6,2.71a.48.48,0,0,1,.48-.47.47.47,0,0,1,.47.47.48.48,0,0,1-.47.48A.49.49,0,0,1,13.6,2.71Z"/><path class="cls-1" d="M13.6,4.84a.48.48,0,0,1,.47-.48.49.49,0,0,1,.48.48.48.48,0,0,1-.48.47A.47.47,0,0,1,13.6,4.84Z"/><path class="cls-1" d="M15.15,3.3a.48.48,0,0,1,.47.48.48.48,0,1,1-.47-.48Z"/><path class="cls-1" d="M13,3.3a.47.47,0,0,1,.45.49.48.48,0,0,1-.49.46.49.49,0,0,1-.46-.5A.47.47,0,0,1,13,3.3Z"/></g></g></svg>