<svg xmlns="http://www.w3.org/2000/svg" viewBox="0 0 119.76 100"><defs><style>.cls-1{fill:#34a5cf;}.cls-2{fill:#2e1f22;}</style></defs><g id="Layer_2" data-name="Layer 2"><g id="Layer_1-2" data-name="Layer 1"><polygon class="cls-1" points="119.76 38.45 88.43 49.86 88.16 92.94 68.73 76.88 56.69 100 0 0 119.76 38.45"/><path class="cls-2" d="M88.43,51.1a1.3,1.3,0,0,1-.6-.15L1.48,3A1.24,1.24,0,0,1,2.69.78L89,48.78a1.24,1.24,0,0,1-.6,2.32Z"/><path class="cls-2" d="M88.16,94.18a1.26,1.26,0,0,1-1.12-.7L72.19,62.76a1.25,1.25,0,0,1,.58-1.66,1.23,1.23,0,0,1,1.65.58L89.27,92.4a1.25,1.25,0,0,1-.57,1.66A1.32,1.32,0,0,1,88.16,94.18Z"/><path class="cls-2" d="M73.31,63.46a1.23,1.23,0,0,1-.8-.3L1.28,2.81A1.24,1.24,0,0,1,2.89.92L74.11,61.27A1.24,1.24,0,0,1,74.25,63,1.22,1.22,0,0,1,73.31,63.46Z"/><path class="cls-2" d="M68.73,78.12a1.57,1.57,0,0,1-.37-.05,1.24,1.24,0,0,1-.81-1.55l4.58-14.67A1.24,1.24,0,0,1,73.68,61a1.25,1.25,0,0,1,.81,1.56L69.91,77.25A1.23,1.23,0,0,1,68.73,78.12Z"/></g></g></svg>