<svg xmlns="http://www.w3.org/2000/svg" viewBox="0 0 109.29 137.43"><defs><style>.cls-1{fill:#44b0d7;}.cls-2{fill:#3f2732;}.cls-3{fill:#ddeefd;}.cls-4{fill:#a03b07;}.cls-5,.cls-7{fill:#70220a;}.cls-6{fill:#d15d42;}.cls-7{opacity:0.51;}.cls-13,.cls-15,.cls-17,.cls-18,.cls-8,.cls-9{fill:none;stroke-linecap:round;stroke-linejoin:round;}.cls-8{stroke:#3f2732;}.cls-9{stroke:#70220a;}.cls-10{fill:#512c3f;}.cls-11{fill:#b1dbfc;}.cls-12{fill:#5b394a;}.cls-13{stroke:#84446a;}.cls-13,.cls-15{stroke-width:4.01px;}.cls-14{fill:#d93e4f;}.cls-15,.cls-17{stroke:#ff9090;}.cls-16{fill:#ea6e86;}.cls-17{stroke-width:1.6px;}.cls-18{stroke:#ddeefd;stroke-width:2.24px;}</style></defs><g id="Layer_2" data-name="Layer 2"><g id="Layer_1-2" data-name="Layer 1"><rect class="cls-1" x="16.15" y="134.95" width="80" height="2.48" rx="1.24"/><path class="cls-2" d="M105.8,50.43a8.77,8.77,0,0,0-5.3-15.77,7.32,7.32,0,0,0-.81,0A8.53,8.53,0,1,0,91,20a4.78,4.78,0,0,1-.34-.42A8.92,8.92,0,0,0,91.43,16,9,9,0,0,0,77.76,8.24a9,9,0,0,0-16-3.06A4,4,0,0,1,61,4.49,14.19,14.19,0,0,0,48.58.18c-4.49.78-7.69,3.52-8.67,8A12.22,12.22,0,0,0,24.62,18.77a10.69,10.69,0,0,1-.39,2.62,9.89,9.89,0,0,0-3.5-.64,10,10,0,0,0-7.64,16.44,9.39,9.39,0,0,0-3.82-.83A9.27,9.27,0,0,0,2.68,52.15a6.69,6.69,0,0,0-1,4.93,6.39,6.39,0,0,0,1.51,2.46H107.77a6.61,6.61,0,0,0,1-3.54A6.71,6.71,0,0,0,105.8,50.43Z"/><path class="cls-3" d="M26.63,83.65C32.07,75.48,42,71.91,42.44,71.74a4.13,4.13,0,0,1,2.76,7.79c-.2.07-9.85,3.64-12.9,10.94-1.46,3.5-1.19,7.32.84,11.69a4.13,4.13,0,1,1-7.49,3.48c-3-6.52-3.35-12.71-1-18.4A21.66,21.66,0,0,1,26.63,83.65Z"/><path class="cls-3" d="M38.56,79v24.2a7.25,7.25,0,0,0,1.86,4.71c2.65,3.13,7.84,5.27,13.78,5.27H57c6.34,0,11.84-2.44,14.29-5.92a7,7,0,0,0,1.36-4.06V79c0-5.48-7-10-15.65-10H54.2C45.6,69,38.56,73.49,38.56,79Z"/><path class="cls-4" d="M65.42,125.13,61.09,113.4c-1.12,0-9,0-10,0l-4.32,11.73-6-1c-3.91-14.5-.59-19.74-.59-19.74H72s3.32,5.24-.59,19.74Z"/><path class="cls-3" d="M72.4,119.83c-.26,1.34-1,5.28-1.44,6.82l-5.3.12-2.2-6.94Z"/><path class="cls-3" d="M39.82,119.83h8.94l-2.27,8.08-5.05-.25C41,126.12,40.09,121.17,39.82,119.83Z"/><path class="cls-5" d="M56.11,65.78v6.78l6.43-2.51a3.69,3.69,0,0,1-2.41-4.5Z"/><path class="cls-5" d="M56.31,65.78v6.78l-6.43-2.51a3.69,3.69,0,0,0,2.41-4.5Z"/><circle class="cls-5" cx="85.26" cy="44.24" r="7"/><circle class="cls-5" cx="25.98" cy="44.24" r="7"/><path class="cls-6" d="M36,24.39H75.56a6.24,6.24,0,0,1,5.82,3.88,26.41,26.41,0,0,1,1.9,9.88V50A16.9,16.9,0,0,1,66.43,66.88H43.13A15.4,15.4,0,0,1,27.78,51.53V38.15C27.24,30.66,30.5,27,32.69,25.44A5.59,5.59,0,0,1,36,24.39Z"/><circle class="cls-7" cx="73.55" cy="53.09" r="4.71" transform="translate(-3.65 100.73) rotate(-67.5)"/><circle class="cls-7" cx="38.75" cy="53.09" r="4.71" transform="translate(-25.13 68.57) rotate(-67.5)"/><path class="cls-8" d="M58.39,52.29a3.84,3.84,0,0,1-7,.54"/><polyline class="cls-9" points="56.06 42.13 56.06 46.42 52.79 44.91 54.55 48.95"/><polygon class="cls-10" points="38.41 94.1 72.72 94.1 77.27 117.56 31.35 117.31 38.41 94.1"/><path class="cls-3" d="M83.83,103a4.55,4.55,0,0,0,4.45-3.67c1.52-7.71.3-14.24-3.64-19.39C77.85,71.08,65.5,70.1,65,70.06a4.54,4.54,0,0,0-.66,9.06c.18,0,8.9.8,13.14,6.39,2.3,3,2.92,7,1.92,12.09A4.53,4.53,0,0,0,83,102.93,4.38,4.38,0,0,0,83.83,103Z"/><path class="cls-6" d="M86.85,101.84,79.37,97.6s-6.65,4.91-1.94,10a6.1,6.1,0,0,0,6.39,4C88.87,111.26,90.22,104.87,86.85,101.84Z"/><path class="cls-11" d="M66.15,69.55a5.54,5.54,0,0,1-11.07,0Z"/><path class="cls-11" d="M57.41,69.55a5.54,5.54,0,0,1-11.08,0Z"/><path class="cls-2" d="M58.09,72.5l7.4,8.7a1,1,0,0,1-.12,1.47l-4.76,4.07a1,1,0,0,1-1.7-.59L56.28,73.38a1,1,0,0,1,.59-1.16h0A1,1,0,0,1,58.09,72.5Z"/><path class="cls-2" d="M54.49,72.5l-7.4,8.7a1,1,0,0,0,.12,1.47L52,86.74a1,1,0,0,0,1.7-.59L56.3,73.38a1,1,0,0,0-.59-1.16h0A1,1,0,0,0,54.49,72.5Z"/><path class="cls-2" d="M56.24,90.4h0a1.35,1.35,0,0,0,1.35-1.34V78.8a1.36,1.36,0,0,0-1.35-1.35h0A1.35,1.35,0,0,0,54.9,78.8V89.06A1.34,1.34,0,0,0,56.24,90.4Z"/><path class="cls-12" d="M56.33,79h0A1.94,1.94,0,0,0,58.26,77v-4.2a1.94,1.94,0,0,0-1.93-1.94h0a1.94,1.94,0,0,0-1.94,1.94V77A1.94,1.94,0,0,0,56.33,79Z"/><path class="cls-2" d="M46.88,126.84l.49,4.7A2.88,2.88,0,0,1,44.76,135l-8.9-.1a1.31,1.31,0,0,1-.71-2.25l6.11-5.94Z"/><path class="cls-3" d="M43,131.69h0a1.27,1.27,0,0,0,1.26-1.26v-3.59A1.27,1.27,0,0,0,43,125.57h0a1.27,1.27,0,0,0-1.27,1.27v3.59A1.27,1.27,0,0,0,43,131.69Z"/><rect class="cls-2" x="41" y="126.71" width="5.68" height="1.89"/><path class="cls-2" d="M65.1,126.84l-.49,4.7A2.88,2.88,0,0,0,67.22,135l8.9-.1a1.31,1.31,0,0,0,.71-2.25l-6.11-5.94Z"/><path class="cls-3" d="M69,131.69h0a1.27,1.27,0,0,1-1.26-1.26v-3.59A1.27,1.27,0,0,1,69,125.57h0a1.27,1.27,0,0,1,1.27,1.27v3.59A1.27,1.27,0,0,1,69,131.69Z"/><rect class="cls-2" x="65.3" y="126.71" width="5.68" height="1.89"/><path class="cls-13" d="M48.84,102.18s2.69,4.7,12.11,8.4"/><rect class="cls-14" x="18.72" y="114.28" width="25.08" height="15.64" rx="4.12"/><path class="cls-15" d="M31,122.86h0a4.44,4.44,0,0,1-4.15-4.66v-4.55A4.44,4.44,0,0,1,31,109h0a4.44,4.44,0,0,1,4.15,4.66v4.55A4.44,4.44,0,0,1,31,122.86Z"/><path class="cls-6" d="M26.59,104.51l6.32-3.59s5.62,4.16,1.64,8.42a5.16,5.16,0,0,1-5.4,3.42C24.88,112.47,23.74,107.07,26.59,104.51Z"/><path class="cls-16" d="M31.1,120.63a3.2,3.2,0,1,1-3.2-3.19A3.2,3.2,0,0,1,31.1,120.63Z"/><path class="cls-16" d="M37.15,120.63A3.2,3.2,0,1,1,34,117.44,3.19,3.19,0,0,1,37.15,120.63Z"/><polygon class="cls-16" points="25.89 122.99 30.76 127.53 36.31 122.82 30.76 119.12 25.89 122.99"/><line class="cls-17" x1="41.15" y1="115.67" x2="41.15" y2="127.66"/><path class="cls-2" d="M36.23,31h0a1.59,1.59,0,0,1-1.59-1.59V23.8a1.59,1.59,0,0,1,1.59-1.59h0a1.59,1.59,0,0,1,1.58,1.59v5.61A1.59,1.59,0,0,1,36.23,31Z"/><path class="cls-2" d="M31.83,31.12h0a1.59,1.59,0,0,1-1.58-1.59V23.92a1.58,1.58,0,0,1,1.58-1.58h0a1.59,1.59,0,0,1,1.59,1.58v5.61A1.59,1.59,0,0,1,31.83,31.12Z"/><path class="cls-2" d="M42,30.75h0a1.59,1.59,0,0,1-1.59-1.58V23.56A1.59,1.59,0,0,1,42,22h0a1.59,1.59,0,0,1,1.58,1.59v5.61A1.58,1.58,0,0,1,42,30.75Z"/><path class="cls-2" d="M47.32,30.51h0a1.59,1.59,0,0,1-1.58-1.59V23.31a1.58,1.58,0,0,1,1.58-1.58h0a1.59,1.59,0,0,1,1.59,1.58v5.61A1.59,1.59,0,0,1,47.32,30.51Z"/><path class="cls-2" d="M52.69,30.26h0a1.58,1.58,0,0,1-1.58-1.58V23.07a1.59,1.59,0,0,1,1.58-1.59h0a1.6,1.6,0,0,1,1.59,1.59v5.61A1.59,1.59,0,0,1,52.69,30.26Z"/><path class="cls-2" d="M58.06,30h0a1.59,1.59,0,0,1-1.59-1.58V22.82a1.59,1.59,0,0,1,1.59-1.58h0a1.58,1.58,0,0,1,1.58,1.58v5.62A1.58,1.58,0,0,1,58.06,30Z"/><path class="cls-2" d="M63.42,29.78h0a1.59,1.59,0,0,1-1.58-1.59V22.58A1.58,1.58,0,0,1,63.42,21h0A1.59,1.59,0,0,1,65,22.58v5.61A1.59,1.59,0,0,1,63.42,29.78Z"/><rect class="cls-2" x="67.21" y="20.75" width="3.17" height="8.78" rx="1.59"/><path class="cls-2" d="M74.16,29.29h0a1.59,1.59,0,0,1-1.59-1.59V22.09a1.59,1.59,0,0,1,1.59-1.58h0a1.58,1.58,0,0,1,1.58,1.58V27.7A1.59,1.59,0,0,1,74.16,29.29Z"/><path class="cls-2" d="M79.28,31.73h0a1.59,1.59,0,0,1-1.58-1.59V24.53A1.58,1.58,0,0,1,79.28,23h0a1.59,1.59,0,0,1,1.59,1.58v5.61A1.59,1.59,0,0,1,79.28,31.73Z"/><path class="cls-2" d="M48.19,46.53a1.68,1.68,0,1,1-1.68-1.68A1.68,1.68,0,0,1,48.19,46.53Z"/><path class="cls-2" d="M65.38,46.53a1.68,1.68,0,1,1-1.67-1.68A1.67,1.67,0,0,1,65.38,46.53Z"/><path class="cls-2" d="M30.37,36.85H26.71a1.58,1.58,0,0,1-1.58-1.58h0a1.59,1.59,0,0,1,1.58-1.59h3.66A1.59,1.59,0,0,1,32,35.27h0A1.59,1.59,0,0,1,30.37,36.85Z"/><path class="cls-2" d="M82.45,37.83H78.79a1.59,1.59,0,0,1-1.58-1.59h0a1.58,1.58,0,0,1,1.58-1.58h3.66A1.59,1.59,0,0,1,84,36.24h0A1.6,1.6,0,0,1,82.45,37.83Z"/><path class="cls-1" d="M12,36.13V31.5a3.19,3.19,0,0,1,4.79-2.76l4,2.31,4,2.31a3.19,3.19,0,0,1,0,5.53l-4,2.32-4,2.31A3.19,3.19,0,0,1,12,40.76Z"/><path class="cls-1" d="M37.91,35.89V31.27a3.19,3.19,0,0,0-4.79-2.77l-4,2.32-4,2.31a3.2,3.2,0,0,0,0,5.53l4,2.31,4,2.32a3.2,3.2,0,0,0,4.79-2.77Z"/><path class="cls-3" d="M24.61,40.77h0a2.23,2.23,0,0,1-2.23-2.22V33.27A2.23,2.23,0,0,1,24.61,31h0a2.24,2.24,0,0,1,2.23,2.23v5.28A2.24,2.24,0,0,1,24.61,40.77Z"/><line class="cls-18" x1="16.75" y1="35.73" x2="34.11" y2="35.73"/><path class="cls-1" d="M69.83,36.13V31.5a3.19,3.19,0,0,1,4.79-2.76l4,2.31,4,2.31a3.19,3.19,0,0,1,0,5.53l-4,2.32-4,2.31a3.19,3.19,0,0,1-4.79-2.76Z"/><path class="cls-1" d="M95.72,35.89V31.27a3.19,3.19,0,0,0-4.79-2.77l-4,2.32-4,2.31a3.19,3.19,0,0,0,0,5.53l4,2.31,4,2.32a3.2,3.2,0,0,0,4.79-2.77Z"/><path class="cls-3" d="M82.42,40.77h0a2.24,2.24,0,0,1-2.23-2.22V33.27A2.24,2.24,0,0,1,82.42,31h0a2.23,2.23,0,0,1,2.23,2.23v5.28A2.23,2.23,0,0,1,82.42,40.77Z"/><line class="cls-18" x1="74.57" y1="35.73" x2="91.92" y2="35.73"/></g></g></svg>