<svg xmlns="http://www.w3.org/2000/svg" viewBox="0 0 20.16 41.1"><defs><style>.cls-1{fill:#f67300;}.cls-2{fill:#f9cc3d;}.cls-3,.cls-5{fill:#ffbbb6;}.cls-4{fill:#d93e4f;}.cls-5{opacity:0.33;}.cls-6{fill:#933d2e;}.cls-7{fill:#ffcf65;}.cls-8{fill:#fff;}.cls-9{fill:#9fe8f4;}.cls-10{fill:#e2bee6;}</style></defs><g id="Layer_2" data-name="Layer 2"><g id="Layer_1-2" data-name="Layer 1"><path class="cls-1" d="M16.73,18.6c-.15.77-.39,1.74-.68,2.86-.07.25-.14.52-.22.79s-.12.45-.19.68c-.45,1.6-1,3.38-1.55,5.2-.33,1.09-.68,2.19-1,3.28l-1.19,3.66-.53,1.6c-.55,1.64-1,3-1.35,4a.57.57,0,0,1-1.09,0C8.3,39.18,7.73,37.59,7.19,36L6.68,34.4c-.36-1.12-.69-2.23-1-3.32s-.62-2.18-.9-3.22C4.1,25.31,3.56,23,3.18,21.31c-.11-.47-.21-.9-.29-1.28-.12-.59-.22-1.05-.29-1.39,0,0,0,0,0,0A.65.65,0,0,1,3,17.9a20.33,20.33,0,0,1,13.34,0A.65.65,0,0,1,16.73,18.6Z"/><path class="cls-2" d="M15.15,21.89q-2.51,1.24-4.94,2.64C8.84,23.3,7.45,22.1,6,21c-1.1-.85-2.26-1.61-3.41-2.38,0,0,0,0,0,0,.07.34.17.8.29,1.39.84.64,1.67,1.28,2.49,2C6.63,23,7.84,24.11,9,25.22l-.5.3C7.28,26.27,6,27,4.78,27.86c.28,1,.58,2.12.9,3.22L6.8,32.14c.42.4.84.81,1.25,1.23l-1.37,1L7.19,36l2-1.54,2.2,2.22.53-1.6-1.6-1.51,1.53-1.19,1.26-1c.35-1.09.7-2.19,1-3.28-.95-.91-1.92-1.81-2.89-2.7,1.46-.86,3-1.68,4.44-2.5.07-.23.13-.46.19-.68s.15-.54.22-.79Zm-1.76,7.59-2.27,1.64L9.18,32.53,7.64,31.11c-.73-.66-1.46-1.32-2.2-2C6.69,28.26,8,27.4,9.26,26.59l.75-.45.23.22C11.3,27.38,12.35,28.43,13.39,29.48Z"/><path class="cls-3" d="M16.73,18.6c-.18.95-.5,2.21-.9,3.65-.95,0-1.95-.3-2.69.21-.41.28-.66.77-1.15.92-1.15.37-1.85-1.44-3.06-1.56-.86-.09-1.74.7-2.49.3-1-.57-1-1.26-2.41-1.06a4.26,4.26,0,0,0-.85.25c-.27-1.19-.47-2.12-.58-2.67A.63.63,0,0,1,3,17.9a20.33,20.33,0,0,1,13.34,0A.65.65,0,0,1,16.73,18.6Z"/><path class="cls-4" d="M20.16,18c0,1.23-.86,3.17-2.28,2.7a1.38,1.38,0,0,1-.73-.77c-.12-.24-.51-1.18-.87-.75s-.22.85-.33,1.19a1.45,1.45,0,0,1-.59.86c-1,.55-1.1-1-1.36-1.61-.12-.29-.48-.53-.69-.31a.6.6,0,0,0-.12.24c-.52,1.67-.27,3.58-1,5.14a1,1,0,0,1-.24.35.64.64,0,0,1-.81,0,1.5,1.5,0,0,1-.44-.81c-.35-1.35.18-2.86-.28-4.17a.68.68,0,0,0-.3-.41c-.31-.13-.59.26-.69.61s-.2.77-.52.87-.61-.2-.71-.53a5.77,5.77,0,0,1-.08-1,1,1,0,0,0-.44-.86.68.68,0,0,0-.77.21,1.84,1.84,0,0,0-.37.8c-.32,1.32-.14,2.74-.53,4a2,2,0,0,1-.41.78.74.74,0,0,1-.77.22c-.35-.14-.5-.57-.6-1a12.83,12.83,0,0,1-.34-3.28c0-.27,0-.6-.23-.72a.58.58,0,0,0-.32,0,3.59,3.59,0,0,1-2.63-.32A2.45,2.45,0,0,1,.3,16.53,3.79,3.79,0,0,1,1.73,15a3.38,3.38,0,0,1-.82-1.84A11.88,11.88,0,0,1,.79,9.66,11.58,11.58,0,0,1,3.22,3.72,9.84,9.84,0,0,1,11.56,0a9.22,9.22,0,0,1,5.9,2.84,9.43,9.43,0,0,1,2.19,3.84A9.22,9.22,0,0,1,20,9.26a8,8,0,0,1-2.22,6.15C19.32,15.12,20.17,16.56,20.16,18Z"/><path class="cls-5" d="M2.3,8.59A5.21,5.21,0,0,0,3.65,14c1.81,1.51,4.55,1.11,6.66.08a13.81,13.81,0,0,0,4.61-3.67c1.37-1.68,2.36-4.06,1.39-6a5.21,5.21,0,0,0-3.68-2.51c-2.1-.45-5.33-.29-7,1.35A14.46,14.46,0,0,0,2.3,8.59Z"/><path class="cls-6" d="M19.65,6.71a1.13,1.13,0,0,1-1.15.19c-.63-.29-1-1.25-1.7-1.13s-.75,1.05-1.1,1.64a1.35,1.35,0,0,1-2.06.37C13,7.17,13,5.9,12.14,5.7a1,1,0,0,0-1,.38,3,3,0,0,0-.54,1,14.5,14.5,0,0,0-.49,1.71,6.19,6.19,0,0,1-.5,1.65,1.41,1.41,0,0,1-1.32.83A1.62,1.62,0,0,1,7.15,9.83a17.91,17.91,0,0,1,0-2.07A4.83,4.83,0,0,0,7,6.57a1.54,1.54,0,0,0-.22-.49A1.15,1.15,0,0,0,5.28,6,6.23,6.23,0,0,0,3.53,7.87,4.23,4.23,0,0,1,1.66,9.59a1.71,1.71,0,0,1-.87.07A11.58,11.58,0,0,1,3.22,3.72,9.84,9.84,0,0,1,11.56,0a9.22,9.22,0,0,1,5.9,2.84A9.43,9.43,0,0,1,19.65,6.71Z"/><path class="cls-7" d="M7.18,2.65a.47.47,0,0,0-.59-.08,2.52,2.52,0,0,0-.66.6,2.69,2.69,0,0,0-.44.88.47.47,0,0,0,.77.49,13.54,13.54,0,0,0,1-1.24A.58.58,0,0,0,7.18,2.65Z"/><path class="cls-8" d="M9.26,4.94a.47.47,0,0,0-.66,0,1.3,1.3,0,0,0-.26,1,2.29,2.29,0,0,0,.22,1,.41.41,0,0,0,.74,0,2.64,2.64,0,0,0,.22-1A1.3,1.3,0,0,0,9.26,4.94Z"/><path class="cls-9" d="M13.32,3.58a1.86,1.86,0,0,0-.6-.88A6,6,0,0,0,12,2c-.42-.26-.85.17-.77.64a2.26,2.26,0,0,0,.6,1.05,1.32,1.32,0,0,0,1.06.53A.52.52,0,0,0,13.32,3.58Z"/><path class="cls-10" d="M16.06,3.53a3,3,0,0,0-1.23,1.18c-.28.41.27,1,.65.71a3.19,3.19,0,0,0,1.08-1.35C16.67,3.77,16.34,3.41,16.06,3.53Z"/></g></g></svg>