<svg xmlns="http://www.w3.org/2000/svg" viewBox="0 0 18 16.75"><defs><style>.cls-1{fill:#fff;}.cls-2{opacity:0.1;}.cls-3{fill:#924100;}</style></defs><g id="Layer_2" data-name="Layer 2"><g id="Layer_1-2" data-name="Layer 1"><path class="cls-1" d="M17.75,10.46A8.2,8.2,0,0,0,13.05.94a9.62,9.62,0,0,0-9.43.65c-5.27,3.37-4.43,11,.23,13.7C10.47,19.11,16.63,14.74,17.75,10.46Z"/><g class="cls-2"><path class="cls-3" d="M18,8.7c0-.17,0-.35,0-.52a17.49,17.49,0,0,1-3.63,1.31,15.66,15.66,0,0,1-4.95.23,4.59,4.59,0,0,1,2.95-4.55,9.42,9.42,0,0,1,4.5-.87c-.08-.14-.17-.28-.26-.41a9.75,9.75,0,0,0-5.5,1.58A4.83,4.83,0,0,0,9.16,9.69,10.38,10.38,0,0,1,6,8.83l0-.19A10.24,10.24,0,0,1,12.83.85L12.21.62A12.81,12.81,0,0,0,9.3,2.42,10.34,10.34,0,0,0,5.8,8.71l-.12-.06c-.57-.33-1.07-.65-1.52-1a6,6,0,0,0,.91-1.54A11.8,11.8,0,0,0,5.85.49l-.27.1c.12,1.64.07,4.78-1.67,6.92A13.06,13.06,0,0,1,1,4.45c-.07.12-.13.25-.19.37A17.65,17.65,0,0,0,3.69,7.75,5.66,5.66,0,0,1,.11,9.61a5.59,5.59,0,0,0,.11.59A8.06,8.06,0,0,0,4,8a12.38,12.38,0,0,0,1.8,1.11A11.88,11.88,0,0,0,6,13.61a22.23,22.23,0,0,0,1.22,3l.64.1A9.86,9.86,0,0,1,6,9.18a9.4,9.4,0,0,0,1.48.56,12.75,12.75,0,0,0,1.74.35,5.05,5.05,0,0,0,3.25,4,10.32,10.32,0,0,0,2.42.55l.3-.25c-2.21-.18-5.07-1.05-5.71-4.29C12.49,10.46,16.05,9.94,18,8.7Z"/></g></g></g></svg>